<svg width="1038" height="95" viewBox="0 0 1038 95" fill="none" xmlns="http://www.w3.org/2000/svg">
<path d="M62.4177 93C80.0052 93 88.274 81.45 88.274 69.2437C88.274 57.9561 81.0552 49.2936 71.6052 47.8498C80.1365 46.0123 86.5677 38.6623 86.5677 27.7685C86.5677 17.531 78.6927 5.45593 60.5802 5.45593H7.42371V93H62.4177ZM54.4114 37.7435H33.9363V27.506H54.4114C57.1676 27.506 59.6614 29.4748 59.6614 32.4935C59.6614 35.6435 57.1676 37.7435 54.4114 37.7435ZM55.1989 70.9499H33.9363V59.7936H55.1989C59.0051 59.7936 61.3677 62.2874 61.3677 65.4374C61.3677 68.7187 59.0051 70.9499 55.1989 70.9499ZM165.353 93V69.8999H125.453V60.3186H164.434V37.2185H125.453V28.556H165.353V5.45593H98.9401V93H165.353ZM211.12 94.575C234.614 94.575 248.92 83.4187 248.92 64.1249C248.92 31.5748 200.227 38.6623 200.227 30.3935C200.227 28.1623 201.67 26.456 206.92 26.456C215.189 26.456 225.033 29.3435 232.645 35.1185L246.82 16.3497C236.845 8.21219 223.983 4.14342 209.677 4.14342C185.658 4.14342 173.32 18.3185 173.32 33.1498C173.32 67.6687 222.145 59.1374 222.145 67.5374C222.145 70.9499 217.42 72.2624 212.433 72.2624C200.62 72.2624 190.777 67.2749 184.214 60.9749L170.433 80.6625C179.751 89.0625 192.483 94.575 211.12 94.575ZM300.338 93V28.556H323.7V5.45593H250.331V28.556H273.825V93H300.338Z" fill="white"/>
<path d="M363.593 93.9463C370.83 93.9463 376.416 89.0276 376.416 81.8252C376.416 74.6229 370.83 69.7042 363.593 69.7042C356.355 69.7042 350.769 74.6229 350.769 81.8252C350.769 89.0276 356.355 93.9463 363.593 93.9463ZM363.593 87.6925C360.185 87.6925 357.971 85.0926 357.971 81.8252C357.971 78.5578 360.185 75.958 363.593 75.958C367 75.958 369.214 78.5578 369.214 81.8252C369.214 85.0926 367 87.6925 363.593 87.6925ZM386.03 93.5247V84.7764H396.464V78.593H386.03V76.2742H396.71V70.0907H378.933V93.5247H386.03Z" fill="white"/>
<path d="M465.86 94.575C489.354 94.575 503.66 83.4187 503.66 64.1249C503.66 31.5748 454.967 38.6623 454.967 30.3935C454.967 28.1623 456.41 26.456 461.66 26.456C469.929 26.456 479.773 29.3435 487.385 35.1185L501.56 16.3497C491.585 8.21219 478.723 4.14342 464.417 4.14342C440.398 4.14342 428.06 18.3185 428.06 33.1498C428.06 67.6687 476.885 59.1374 476.885 67.5374C476.885 70.9499 472.16 72.2624 467.173 72.2624C455.36 72.2624 445.517 67.2749 438.954 60.9749L425.173 80.6625C434.491 89.0625 447.223 94.575 465.86 94.575ZM560.953 93V58.2186L593.503 5.45593H563.71L547.697 34.9873L531.422 5.45593H501.628L534.441 58.2186V93H560.953ZM682.5 93V5.45593H655.987V46.9311L625.537 5.45593H598.237V93H624.749V48.6373L657.037 93H682.5ZM763.087 93V69.8999H723.187V60.3186H762.169V37.2185H723.187V28.556H763.087V5.45593H696.675V93H763.087ZM853.217 93L837.336 62.0249C844.292 58.6124 853.086 50.6061 853.086 35.5123C853.086 19.106 842.061 5.45593 821.586 5.45593H774.861V93H801.373V65.4374H810.955L823.03 93H853.217ZM817.517 42.3373H801.373V28.556H817.517C821.98 28.556 826.18 30.656 826.18 35.381C826.18 40.2373 821.98 42.3373 817.517 42.3373ZM907.258 94.575C924.452 94.575 937.577 87.6187 947.289 76.8562V41.0248H904.633V64.1249H920.908V67.2749C918.152 69.3749 912.245 71.2124 907.258 71.2124C894.526 71.2124 885.995 61.4999 885.995 49.2936C885.995 37.0873 894.526 27.3748 907.258 27.3748C915.133 27.3748 920.908 32.8873 923.402 38.2685L945.714 26.8498C940.202 15.5622 928.127 4.01217 907.258 4.01217C880.745 4.01217 859.089 21.206 859.089 49.2936C859.089 77.2499 880.745 94.575 907.258 94.575ZM1004.95 93V58.2186L1037.5 5.45593H1007.71L991.693 34.9873L975.418 5.45593H945.624L978.437 58.2186V93H1004.95Z" fill="white"/>
<path d="M351.267 9.29147V55.1931H397.06V9.29147H351.267ZM358.36 48.1031V16.4018H389.987V48.1031H358.36Z" fill="#F8006B"/>
<path d="M378.95 46.9622V36.918L374.315 32.2525L378.97 27.5665V17.5224L364.274 32.2525L378.95 46.9622Z" fill="#F8006B"/>
</svg>
