<svg width="205" height="64" viewBox="0 0 205 64" fill="none" xmlns="http://www.w3.org/2000/svg">
<path d="M83.3754 0.000488281C85.1293 0.000488281 86.8831 0.466188 88.4346 1.39759C88.5695 1.73023 88.637 2.46205 88.637 3.59303C88.637 4.72402 88.637 5.3893 88.4346 5.58889C86.2086 4.32485 84.5221 3.65956 83.3754 3.65956C82.7008 3.65956 82.2286 3.79262 81.8239 4.12526C81.4192 4.4579 81.2843 4.85708 81.2843 5.38931C81.2843 5.92153 81.4866 6.3207 81.9588 6.58682C82.431 6.85293 83.3079 7.18558 84.5896 7.58475C85.2642 7.78433 85.8713 8.05045 86.4109 8.25003C86.9506 8.44962 87.4902 8.78226 88.0299 9.24796C88.5695 9.64713 89.0417 10.2459 89.379 10.9112C89.7163 11.5765 89.8512 12.3748 89.8512 13.2397C89.8512 15.1025 89.2441 16.4996 87.9624 17.4975C86.6807 18.4954 85.0618 19.0277 83.1056 19.0277C81.0144 19.0277 79.1257 18.562 77.5742 17.6306C77.4393 17.2979 77.3718 16.5661 77.3718 15.4351C77.3718 14.3041 77.3718 13.5723 77.5742 13.3727C79.8002 14.6368 81.5541 15.3021 82.9707 15.3021C83.7127 15.3021 84.3198 15.1025 84.7245 14.8364C85.1293 14.5703 85.3316 14.1046 85.3316 13.5723C85.3316 13.0401 85.1293 12.7075 84.6571 12.4413C84.1849 12.1752 83.3079 11.8426 81.9588 11.3769C81.2843 11.1773 80.7446 10.9112 80.205 10.7116C79.6653 10.4455 79.1257 10.1128 78.586 9.71366C78.0464 9.31449 77.5742 8.78226 77.3043 8.11698C76.9671 7.45169 76.8322 6.71988 76.8322 5.92153C76.8322 4.25832 77.4393 2.86122 78.586 1.79676C79.8002 0.665774 81.4192 0.133545 83.5103 0.133545L83.3754 0.000488281Z" fill="#EAEAEA"/>
<path d="M102.399 18.6281C100.915 18.8942 99.4305 18.8942 97.8791 18.6281V12.3744L91.2009 0.532288C91.8755 0.399231 92.6849 0.332703 93.6293 0.332703C94.5737 0.332703 95.3832 0.399231 96.0577 0.532288L100.173 8.24961L104.287 0.532288C104.962 0.399231 105.771 0.332703 106.716 0.332703C107.66 0.332703 108.47 0.399231 109.144 0.532288L102.466 12.3744L102.399 18.6281Z" fill="#EAEAEA"/>
<path d="M128.099 18.6281C126.885 18.8277 125.738 18.8277 124.591 18.6281L116.024 7.98349V18.6281C114.54 18.8942 113.056 18.8942 111.505 18.6281V0.46576C112.719 0.266174 113.866 0.266174 115.012 0.46576L123.579 11.1103V0.46576C125.063 0.199646 126.547 0.199646 128.099 0.46576V18.6281Z" fill="#EAEAEA"/>
<path d="M145.031 14.9026C145.233 16.1001 145.233 17.3641 145.031 18.6282H132.214V0.465881H145.031C145.233 1.72992 145.233 2.92744 145.031 4.19148H136.733V7.58444H144.086C144.289 8.84848 144.289 10.046 144.086 11.31H136.733V14.9026H145.031Z" fill="#EAEAEA"/>
<path d="M155.89 0.53241C157.981 0.53241 159.6 1.06464 160.882 2.19562C162.163 3.32661 162.838 4.79024 162.838 6.51998C162.838 7.7175 162.501 8.78196 161.893 9.71336C161.286 10.6448 160.409 11.31 159.33 11.7757L163.782 18.5617C163.108 18.6947 162.298 18.7612 161.354 18.7612C160.342 18.7612 159.533 18.6947 158.925 18.5617L154.878 12.441H153.124V18.6282C151.64 18.8943 150.156 18.8943 148.605 18.6282V0.465881L155.89 0.53241ZM153.057 8.78196H155.89C156.564 8.78196 157.104 8.58237 157.576 8.1832C158.048 7.78403 158.251 7.2518 158.251 6.45345C158.251 5.72164 158.048 5.12288 157.576 4.72371C157.104 4.32454 156.564 4.12495 155.957 4.12495H153.124L153.057 8.78196Z" fill="#EAEAEA"/>
<path d="M177.476 9.71305C178.961 9.44694 180.445 9.44694 181.929 9.71305V17.5634C181.321 17.8961 180.445 18.2287 179.298 18.5614C178.151 18.8275 176.937 18.9605 175.723 18.9605C172.552 18.9605 170.056 18.0291 168.168 16.2329C166.279 14.4366 165.334 12.1746 165.334 9.51347C165.334 6.85232 166.279 4.59035 168.168 2.79408C170.056 0.997807 172.62 -0.00012207 175.79 -0.00012207C178.016 -0.00012207 179.837 0.465578 181.389 1.39698C181.524 1.72962 181.591 2.39491 181.591 3.45936C181.591 4.52382 181.591 5.18911 181.389 5.38869C179.5 4.25771 177.679 3.65895 176.06 3.65895C174.306 3.65895 172.889 4.19118 171.743 5.25564C170.596 6.32009 169.989 7.7172 169.989 9.44694C169.989 11.2432 170.529 12.6403 171.743 13.7048C172.889 14.7692 174.373 15.3015 176.06 15.3015C176.465 15.3015 177.004 15.2349 177.544 15.1684L177.476 9.71305Z" fill="#EAEAEA"/>
<path d="M195.15 18.6281C193.666 18.8942 192.182 18.8942 190.631 18.6281V12.3744L183.953 0.532288C184.627 0.399231 185.437 0.332703 186.381 0.332703C187.325 0.332703 188.135 0.399231 188.809 0.532288L192.924 8.24961L197.039 0.532288C197.714 0.399231 198.523 0.332703 199.467 0.332703C200.412 0.332703 201.221 0.399231 201.896 0.532288L195.218 12.3744L195.15 18.6281Z" fill="#EAEAEA"/>
<path d="M97.2038 55.4844C100.779 55.4844 104.557 54.2204 108.604 51.7588C108.874 52.2245 109.009 53.6216 108.941 55.9501C108.874 58.2786 108.739 59.7422 108.536 60.4075C105.299 62.4034 101.319 63.4013 96.5967 63.4013C89.9186 63.4013 84.5221 61.4054 80.4747 57.5468C76.4273 53.6881 74.4037 48.8315 74.4037 43.1101C74.4037 37.3886 76.4273 32.5986 80.4747 28.6734C84.5221 24.8147 89.9186 22.8188 96.5967 22.8188C101.319 22.8188 105.299 23.8168 108.536 25.8126C108.806 26.4779 108.874 27.9415 108.941 30.2701C109.009 32.5986 108.874 33.9957 108.604 34.4614C104.557 31.9998 100.779 30.7358 97.2038 30.7358C93.4937 30.7358 90.4582 31.8667 87.9623 34.1287C85.4664 36.3907 84.3197 39.5175 84.3197 43.2431C84.3197 46.9687 85.5339 49.9625 88.0298 52.2245C90.5257 54.4865 93.5612 55.6174 97.2713 55.6174L97.2038 55.4844Z" fill="#EAEAEA"/>
<path d="M132.214 24.0165C136.599 24.0165 140.174 25.214 142.872 27.609C145.571 30.0041 146.987 33.0644 146.987 36.923C146.987 39.5176 146.313 41.7796 144.963 43.7089C143.614 45.7048 141.793 47.1684 139.5 48.1664L149.078 62.6696C147.662 62.9357 145.908 63.0022 143.817 63.0022C141.726 63.0022 139.972 62.8692 138.555 62.6696L129.921 49.5635H126.143V62.6696C122.973 63.2018 119.735 63.2018 116.564 62.6696V23.95L132.214 24.0165ZM126.143 41.7131H132.214C133.631 41.7131 134.845 41.3139 135.789 40.449C136.734 39.5842 137.206 38.4532 137.206 36.79C137.206 35.1268 136.734 33.9958 135.789 33.1309C134.845 32.266 133.698 31.8669 132.282 31.8669H126.211L126.143 41.7131Z" fill="#EAEAEA"/>
<path d="M205 62.6696C201.829 63.2018 198.726 63.2018 195.556 62.6696L190.699 40.9147L182.739 62.6696C180.176 63.0687 177.545 63.0687 174.982 62.6696L167.022 40.9147L162.165 62.6696C158.995 63.2018 155.892 63.2018 152.721 62.6696L162.03 23.9499C164.728 23.4842 167.494 23.4842 170.192 23.9499L178.894 47.6341L187.596 23.9499C190.294 23.4842 193.06 23.4842 195.758 23.9499L205 62.6696Z" fill="#EAEAEA"/>
<path d="M0 0.266174V62.67H63.2738V0.266174H0ZM55.3814 54.8862H7.89236V8.05002H55.3814V54.8862ZM39.3269 52.1585L18.2806 31.4681L39.3269 10.7112V21.7549L29.4783 31.4681L39.3269 41.1813V52.1585Z" fill="#0CB0FF"/>
</svg>
