<svg width="601" height="272" viewBox="0 0 601 272" fill="none" xmlns="http://www.w3.org/2000/svg">
<path d="M40.2479 89.0302C63.2652 89.0302 77.2812 78.1003 77.2812 59.1979C77.2812 27.3081 29.5752 34.2519 29.5752 26.1508C29.5752 23.9648 30.9896 22.2932 36.1331 22.2932C44.2342 22.2932 53.8783 25.1221 61.3363 30.78L75.2238 12.3919C65.4511 4.4195 52.8495 0.433274 38.8335 0.433274C15.3019 0.433274 3.21467 14.3208 3.21467 28.8512C3.21467 62.6698 51.0493 54.3115 51.0493 62.5412C51.0493 65.8844 46.4202 67.1703 41.5338 67.1703C29.9609 67.1703 20.3168 62.284 13.8875 56.1118L0.385742 75.3999C9.51547 83.6296 21.9885 89.0302 40.2479 89.0302Z" fill="white"/>
<path d="M133.412 87.4872V53.4114L165.302 1.71915H136.112L120.424 30.6514L104.48 1.71915H75.2901L107.437 53.4114V87.4872H133.412Z" fill="white"/>
<path d="M252.492 87.4872V1.71915H226.517V42.3529L196.685 1.71915H169.939V87.4872H195.913V44.0245L227.546 87.4872H252.492Z" fill="white"/>
<path d="M331.445 87.4872V64.8557H292.354V55.4688H330.545V32.8374H292.354V24.3506H331.445V1.71915H266.38V87.4872H331.445Z" fill="white"/>
<path d="M419.747 87.4872L404.187 57.1405C411.003 53.7972 419.618 45.9533 419.618 31.1657C419.618 15.0923 408.817 1.71915 388.757 1.71915H342.98V87.4872H368.954V60.4838H378.341L390.171 87.4872H419.747ZM384.771 37.8523H368.954V24.3506H384.771C389.143 24.3506 393.257 26.408 393.257 31.0372C393.257 35.7949 389.143 37.8523 384.771 37.8523Z" fill="white"/>
<path d="M472.691 89.0302C489.536 89.0302 502.394 82.2151 511.91 71.6709V36.5664H470.119V59.1979H486.064V62.284C483.363 64.3414 477.577 66.1416 472.691 66.1416C460.218 66.1416 451.859 56.6261 451.859 44.6675C451.859 32.7088 460.218 23.1933 472.691 23.1933C480.406 23.1933 486.064 28.594 488.507 33.8661L510.367 22.679C504.966 11.6204 493.136 0.304688 472.691 0.304688C446.716 0.304688 425.499 17.1497 425.499 44.6675C425.499 72.0567 446.716 89.0302 472.691 89.0302Z" fill="white"/>
<path d="M568.4 87.4872V53.4114L600.29 1.71915H571.1L555.413 30.6514L539.468 1.71915H510.278L542.425 53.4114V87.4872H568.4Z" fill="white"/>
<path d="M49.2491 191.03C75.7382 191.03 96.1836 173.028 96.1836 146.667C96.1836 120.307 75.7382 102.305 49.2491 102.305C22.76 102.305 2.31456 120.307 2.31456 146.667C2.31456 173.028 22.76 191.03 49.2491 191.03ZM49.2491 168.142C36.7761 168.142 28.675 158.626 28.675 146.667C28.675 134.709 36.7761 125.193 49.2491 125.193C61.7221 125.193 69.8231 134.709 69.8231 146.667C69.8231 158.626 61.7221 168.142 49.2491 168.142Z" fill="white"/>
<path d="M187.947 189.487V103.719H161.972V144.353L132.14 103.719H105.394V189.487H131.368V146.025L163.001 189.487H187.947Z" fill="white"/>
<path d="M260.342 189.487V166.856H227.809V103.719H201.835V189.487H260.342Z" fill="white"/>
<path d="M296.749 189.487V103.719H270.775V189.487H296.749Z" fill="white"/>
<path d="M393.135 189.487V103.719H367.16V144.353L337.328 103.719H310.582V189.487H336.556V146.025L368.189 189.487H393.135Z" fill="white"/>
<path d="M472.088 189.487V166.856H432.997V157.469H471.188V134.837H432.997V126.351H472.088V103.719H407.022V189.487H472.088Z" fill="white"/>
<path d="M483.275 104.344V189.803H568.534V104.344H483.275ZM496.482 176.603V117.582H555.364V176.603H496.482Z" fill="#F8006B"/>
<path d="M534.815 174.479V155.779L526.187 147.093L534.852 138.368V119.668L507.493 147.093L534.815 174.479Z" fill="#F8006B"/>
<path d="M43.7323 270V224.972H29.2182L23.7501 243.064L18.552 224.972H3.76781V270H15.7167V248.33L21.9273 270H25.6403L31.986 248.33V270H43.7323ZM63.4988 270.81C74.7051 270.81 79.9032 261.157 79.9032 247.52C79.9032 233.883 74.7051 224.23 63.4988 224.23C52.2926 224.23 47.0945 233.883 47.0945 247.52C47.0945 261.157 52.2926 270.81 63.4988 270.81ZM63.4988 260.279C60.326 260.279 59.2459 255.148 59.2459 247.52C59.2459 239.824 60.326 234.761 63.4988 234.761C66.6717 234.761 67.7518 239.824 67.7518 247.52C67.7518 255.148 66.6717 260.279 63.4988 260.279ZM113.351 270L107.612 252.11C109.908 250.423 112.945 246.912 112.945 239.554C112.945 231.318 107.072 224.972 98.9039 224.972H83.2422V270H95.191V255.013H96.7437L100.592 270H113.351ZM96.9462 244.617H95.191V235.369H96.9462C99.309 235.369 100.862 237.056 100.862 240.027C100.862 242.929 99.309 244.617 96.9462 244.617ZM139.663 270V259.604H128.929V252.381H139.19V241.984H128.929V235.369H139.663V224.972H116.98V270H139.663ZM170.35 270V235.369H176.83V224.972H151.853V235.369H158.401V270H170.35ZM210.466 270V224.972H198.585V241.647H192.104V224.972H180.155V270H192.104V252.043H198.585V270H210.466ZM245.72 270L235.797 224.972H222.093L212.236 270H224.455L225.333 263.722H232.556L233.501 270H245.72ZM231.206 253.326H226.751L228.978 237.934L231.206 253.326ZM277.744 270V224.972H265.863V242.524L259.382 224.972H247.433V270H259.382V251.3L266.673 270H277.744ZM322.74 270L312.816 224.972H299.112L289.256 270H301.475L302.352 263.722H309.576L310.521 270H322.74ZM308.225 253.326H303.77L305.998 237.934L308.225 253.326Z" fill="#F8006B"/>
<path d="M363.2 270V247.11H376.53V233.604H363.2V225.01H377.144V211.504H347.677V270H363.2ZM401.208 271.052C415.766 271.052 422.519 258.511 422.519 240.796C422.519 223.08 415.766 210.539 401.208 210.539C386.65 210.539 379.897 223.08 379.897 240.796C379.897 258.511 386.65 271.052 401.208 271.052ZM401.208 257.371C397.086 257.371 395.683 250.706 395.683 240.796C395.683 230.798 397.086 224.22 401.208 224.22C405.33 224.22 406.733 230.798 406.733 240.796C406.733 250.706 405.33 257.371 401.208 257.371ZM465.972 270L458.517 246.759C461.499 244.567 465.446 240.006 465.446 230.447C465.446 219.748 457.816 211.504 447.204 211.504H426.857V270H442.38V250.53H444.397L449.396 270H465.972ZM444.66 237.025H442.38V225.01H444.66C447.73 225.01 449.747 227.202 449.747 231.061C449.747 234.832 447.73 237.025 444.66 237.025ZM490.42 271.052C500.067 271.052 510.152 265.089 510.152 251.232V211.504H494.629V252.109C494.629 256.056 492.963 257.547 490.42 257.547C487.789 257.547 486.21 256.056 486.21 252.109V211.504H470.687V251.32C470.687 265.089 480.773 271.052 490.42 271.052ZM568.405 270V211.504H549.55L542.446 235.007L535.693 211.504H516.487V270H532.01V241.848L540.078 270H544.902L553.146 241.848V270H568.405Z" fill="white"/>
</svg>
