<svg width="533" height="249" viewBox="0 0 533 249" fill="none" xmlns="http://www.w3.org/2000/svg">
<path d="M40.3701 78.3548C60.5984 78.3548 72.9162 68.7492 72.9162 52.1372C72.9162 24.1114 30.9905 30.2138 30.9905 23.0943C30.9905 21.1732 32.2336 19.7041 36.7539 19.7041C43.8733 19.7041 52.3489 22.1903 58.9033 27.1626L71.1081 11.0026C62.5195 3.99611 51.4448 0.492889 39.127 0.492889C18.4467 0.492889 7.82405 12.6977 7.82405 25.4675C7.82405 55.1884 49.8627 47.8429 49.8627 55.0754C49.8627 58.0135 45.7945 59.1436 41.5002 59.1436C31.3295 59.1436 22.854 54.8493 17.2036 49.425L5.33789 66.3761C13.3614 73.6085 24.3231 78.3548 40.3701 78.3548Z" fill="white"/>
<path d="M122.246 76.9987V47.0518L150.271 1.62296H124.619L110.832 27.0496L96.819 1.62296H71.1663L99.4181 47.0518V76.9987H122.246Z" fill="white"/>
<path d="M226.897 76.9987V1.62296H204.07V37.3332L177.852 1.62296H154.347V76.9987H177.174V38.8023L204.974 76.9987H226.897Z" fill="white"/>
<path d="M296.284 76.9987V57.1095H261.93V48.86H295.493V28.9707H261.93V21.5122H296.284V1.62296H239.102V76.9987H296.284Z" fill="white"/>
<path d="M373.886 76.9987L360.212 50.3291C366.202 47.3909 373.773 40.4974 373.773 27.5016C373.773 13.3757 364.28 1.62296 346.651 1.62296H306.421V76.9987H329.248V53.2672H337.498L347.894 76.9987H373.886ZM343.148 33.378H329.248V21.5122H343.148C346.99 21.5122 350.607 23.3203 350.607 27.3886C350.607 31.5699 346.99 33.378 343.148 33.378Z" fill="white"/>
<path d="M420.415 78.3548C435.219 78.3548 446.52 72.3654 454.882 63.0989V32.2479H418.155V52.1372H432.168V54.8493C429.795 56.6575 424.709 58.2396 420.415 58.2396C409.453 58.2396 402.108 49.877 402.108 39.3674C402.108 28.8577 409.453 20.4952 420.415 20.4952C427.195 20.4952 432.168 25.2415 434.315 29.8748L453.526 20.0431C448.78 10.3245 438.383 0.379883 420.415 0.379883C397.587 0.379883 378.941 15.1838 378.941 39.3674C378.941 63.4379 397.587 78.3548 420.415 78.3548Z" fill="white"/>
<path d="M504.528 76.9987V47.0518L532.553 1.62296H506.901L493.114 27.0496L479.101 1.62296H453.448L481.7 47.0518V76.9987H504.528Z" fill="white"/>
<path d="M48.2806 168.355C71.5601 168.355 89.5282 152.534 89.5282 129.367C89.5282 106.201 71.5601 90.3799 48.2806 90.3799C25.0011 90.3799 7.033 106.201 7.033 129.367C7.033 152.534 25.0011 168.355 48.2806 168.355ZM48.2806 148.24C37.3189 148.24 30.1995 139.877 30.1995 129.367C30.1995 118.858 37.3189 110.495 48.2806 110.495C59.2423 110.495 66.3618 118.858 66.3618 129.367C66.3618 139.877 59.2423 148.24 48.2806 148.24Z" fill="white"/>
<path d="M170.173 166.999V91.623H147.346V127.333L121.128 91.623H97.6224V166.999H120.45V128.802L148.25 166.999H170.173Z" fill="white"/>
<path d="M233.796 166.999V147.109H205.205V91.623H182.378V166.999H233.796Z" fill="white"/>
<path d="M265.792 166.999V91.623H242.965V166.999H265.792Z" fill="white"/>
<path d="M350.499 166.999V91.623H327.671V127.333L301.454 91.623H277.948V166.999H300.776V128.802L328.575 166.999H350.499Z" fill="white"/>
<path d="M419.885 166.999V147.109H385.531V138.86H419.094V118.971H385.531V111.512H419.885V91.623H362.704V166.999H419.885Z" fill="white"/>
<path d="M429.719 91.7891V166.894H504.647V91.7891H429.719ZM441.325 155.293V103.423H493.073V155.293H441.325Z" fill="#F8006B"/>
<path d="M475.014 153.426V136.992L467.431 129.358L475.047 121.691V105.256L451.002 129.358L475.014 153.426Z" fill="#F8006B"/>
<rect y="176.804" width="497" height="72" fill="#190543"/>
<path d="M13.46 191.784V231.804H26.84C35.78 231.804 39.86 225.444 39.86 218.424C39.86 211.404 35.78 205.104 26.84 205.104H24.08V201.024H37.52V191.784H13.46ZM25.64 214.344C27.74 214.344 29.12 215.844 29.12 218.484C29.12 221.064 27.74 222.564 25.64 222.564H24.08V214.344H25.64ZM55.8256 232.524C65.7856 232.524 70.4056 223.944 70.4056 211.824C70.4056 199.704 65.7856 191.124 55.8256 191.124C45.8656 191.124 41.2456 199.704 41.2456 211.824C41.2456 223.944 45.8656 232.524 55.8256 232.524ZM55.8256 223.164C53.0056 223.164 52.0456 218.604 52.0456 211.824C52.0456 204.984 53.0056 200.484 55.8256 200.484C58.6456 200.484 59.6056 204.984 59.6056 211.824C59.6056 218.604 58.6456 223.164 55.8256 223.164ZM70.8116 232.524C78.4316 232.524 84.5516 229.824 85.3916 213.624L86.0516 201.024H88.9316V231.804H99.5516V191.784H76.3316L74.8316 213.624C74.2316 222.264 72.8516 223.164 70.8116 223.164V232.524ZM103.945 191.784V231.804H117.325C126.265 231.804 130.345 225.444 130.345 218.424C130.345 211.404 126.265 205.104 117.325 205.104H114.565V191.784H103.945ZM116.125 214.344C118.225 214.344 119.605 215.844 119.605 218.484C119.605 221.064 118.225 222.564 116.125 222.564H114.565V214.344H116.125ZM164.011 191.784V222.564H159.211V191.784H148.591V222.564H143.791V191.784H133.171V231.804H174.631V191.784H164.011ZM199.194 231.804V222.564H189.654V216.144H198.774V206.904H189.654V201.024H199.194V191.784H179.034V231.804H199.194ZM221.368 191.784H210.748V205.164C210.748 212.184 214.828 218.484 222.808 218.484C224.848 218.484 225.988 218.244 227.068 217.884V231.804H237.688V191.784H227.068V208.944C226.348 209.124 225.808 209.244 224.848 209.244C222.748 209.244 221.368 207.744 221.368 205.104V191.784ZM262.14 231.804V222.564H252.6V216.144H261.72V206.904H252.6V201.024H262.14V191.784H241.98V231.804H262.14ZM301.217 231.804V191.784H288.317L283.457 207.864L278.837 191.784H265.697V231.804H276.317V212.544L281.837 231.804H285.137L290.777 212.544V231.804H301.217Z" fill="#F8006B"/>
<path d="M338.843 231.804V227.604C349.343 226.104 354.263 219.984 354.263 211.824C354.263 203.664 349.343 197.544 338.843 196.044V191.784H328.283V196.044C317.783 197.544 312.863 203.664 312.863 211.824C312.863 219.984 317.783 226.104 328.283 227.604V231.804H338.843ZM343.523 211.824C343.523 214.704 342.203 216.924 338.843 217.944V205.704C342.203 206.784 343.523 209.004 343.523 211.824ZM323.663 211.824C323.663 209.004 324.923 206.784 328.283 205.704V217.944C324.923 216.924 323.663 214.704 323.663 211.824ZM370.378 232.524C380.338 232.524 384.958 223.944 384.958 211.824C384.958 199.704 380.338 191.124 370.378 191.124C360.418 191.124 355.798 199.704 355.798 211.824C355.798 223.944 360.418 232.524 370.378 232.524ZM370.378 223.164C367.558 223.164 366.598 218.604 366.598 211.824C366.598 204.984 367.558 200.484 370.378 200.484C373.198 200.484 374.158 204.984 374.158 211.824C374.158 218.604 373.198 223.164 370.378 223.164ZM398.546 231.804V218.484H401.306C410.246 218.484 414.326 212.184 414.326 205.164C414.326 198.144 410.246 191.784 401.306 191.784H387.926V231.804H398.546ZM400.106 209.244H398.546V201.024H400.106C402.206 201.024 403.586 202.524 403.586 205.104C403.586 207.744 402.206 209.244 400.106 209.244ZM418.88 232.524C426.5 232.524 428.78 228.324 431.78 220.284L442.34 191.784L431.06 191.724L427.22 205.404L423.32 191.784H412.16L421.58 217.344L420.62 219.924C420.14 221.184 419.24 223.164 417.32 223.164C416.54 223.164 415.34 222.864 414.56 222.204L412.16 230.904C414.08 232.164 416.6 232.524 418.88 232.524ZM479.316 231.804V191.784H466.416L461.556 207.864L456.936 191.784H443.796V231.804H454.416V212.544L459.936 231.804H463.236L468.876 212.544V231.804H479.316Z" fill="white"/>
</svg>
