<svg width="581" height="234" viewBox="0 0 581 234" fill="none" xmlns="http://www.w3.org/2000/svg">
<path d="M95.4092 132V99.0098H47.9858V6.97455H10.122V132H95.4092ZM205.464 132V99.0098H148.481V85.3263H204.152V52.3361H148.481V39.9648H205.464V6.97455H110.617V132H205.464ZM284.322 134.249C308.878 134.249 327.622 124.315 341.493 108.944V57.772H280.574V90.7622H303.817V95.2609C299.88 98.26 291.445 100.884 284.322 100.884C266.14 100.884 253.956 87.0133 253.956 69.581C253.956 52.1487 266.14 38.2778 284.322 38.2778C295.569 38.2778 303.817 46.1504 307.378 53.8357L339.244 37.528C331.371 21.4078 314.126 4.91266 284.322 4.91266C246.459 4.91266 215.53 29.4679 215.53 69.581C215.53 109.507 246.459 134.249 284.322 134.249ZM482.792 132L436.681 6.97455H389.07L342.959 132H385.884L390.382 117.379H435.369L439.868 132H482.792ZM425.247 84.3891H400.504L412.876 44.0886L425.247 84.3891ZM574.82 132V99.0098H527.397V6.97455H489.533V132H574.82Z" fill="white"/>
<rect x="10" y="162" width="525" height="72" fill="#190543"/>
<path d="M480.577 180V213.08H513.579V180H480.577ZM485.689 207.971V185.124H508.482V207.971H485.689Z" fill="#F8006B"/>
<path d="M500.527 207.148V199.91L497.188 196.547L500.542 193.17V185.932L489.951 196.547L500.527 207.148Z" fill="#F8006B"/>
<path d="M37.1648 213.595C43.6604 213.595 47.7759 209.281 47.7759 203.083C47.7759 193.067 37.0657 193.017 37.0657 189.15C37.0657 188.009 37.859 187.117 39.297 187.117C41.1316 187.117 42.8175 187.712 44.2554 189.15L47.4288 182.406C45.3463 180.473 42.272 179.382 38.9499 179.382C31.7601 179.382 28.1404 184.489 28.1404 189.646C28.1404 200.158 38.9003 199.563 38.9003 203.728C38.9003 204.918 38.1069 205.86 36.5698 205.86C34.5369 205.86 32.256 205.017 30.7188 203.232L27.1983 210.075C29.6776 212.405 32.8014 213.595 37.1648 213.595ZM64.2248 213V199.662L72.3071 179.927H63.0844L59.8118 191.431L56.5888 179.927H47.3661L55.4484 199.662V213H64.2248ZM95.7734 213V179.927H87.0465V192.819L82.2864 179.927H73.5099V213H82.2864V199.265L87.6415 213H95.7734ZM116.065 213V205.364H108.181V200.058H115.718V192.422H108.181V187.563H116.065V179.927H99.4043V213H116.065ZM141.118 213L136.904 199.86C138.59 198.62 140.821 196.042 140.821 190.637C140.821 184.588 136.507 179.927 130.507 179.927H119.004V213H127.78V201.992H128.921L131.747 213H141.118ZM129.069 194.356H127.78V187.563H129.069C130.805 187.563 131.945 188.803 131.945 190.984C131.945 193.117 130.805 194.356 129.069 194.356ZM154.743 213.595C159.255 213.595 162.18 211.76 164.808 208.835V193.91H154.148V201.596H157.172V204.918C156.627 205.562 155.883 205.86 154.743 205.86C153.106 205.86 151.569 204.075 151.569 196.488C151.569 188.852 153.106 187.117 154.743 187.117C156.528 187.117 157.271 189.001 157.618 191.133L164.511 188.604C163.321 183.547 160.098 179.382 154.743 179.382C146.512 179.382 142.644 186.324 142.644 196.488C142.644 206.604 146.462 213.595 154.743 213.595ZM181.01 213V199.662L189.092 179.927H179.87L176.597 191.431L173.374 179.927H164.151L172.234 199.662V213H181.01ZM208.359 213.595C216.59 213.595 220.408 206.504 220.408 196.488C220.408 186.472 216.59 179.382 208.359 179.382C200.128 179.382 196.31 186.472 196.31 196.488C196.31 206.504 200.128 213.595 208.359 213.595ZM208.359 205.86C206.028 205.86 205.235 202.091 205.235 196.488C205.235 190.836 206.028 187.117 208.359 187.117C210.689 187.117 211.482 190.836 211.482 196.488C211.482 202.091 210.689 205.86 208.359 205.86ZM245.124 213V179.927H236.397V192.819L231.637 179.927H222.86V213H231.637V199.265L236.992 213H245.124ZM265.415 213V205.364H257.531V179.927H248.755V213H265.415ZM276.695 213V179.927H267.918V213H276.695ZM302.518 213V179.927H293.791V192.819L289.031 179.927H280.254V213H289.031V199.265L294.386 213H302.518ZM322.809 213V205.364H314.925V200.058H322.462V192.422H314.925V187.563H322.809V179.927H306.149V213H322.809ZM341.679 213V200.058H349.216V192.422H341.679V187.563H349.563V179.927H332.903V213H341.679ZM363.169 213.595C371.4 213.595 375.218 206.504 375.218 196.488C375.218 186.472 371.4 179.382 363.169 179.382C354.938 179.382 351.12 186.472 351.12 196.488C351.12 206.504 354.938 213.595 363.169 213.595ZM363.169 205.86C360.838 205.86 360.045 202.091 360.045 196.488C360.045 190.836 360.838 187.117 363.169 187.117C365.499 187.117 366.293 190.836 366.293 196.488C366.293 202.091 365.499 205.86 363.169 205.86ZM399.785 213L395.57 199.86C397.256 198.62 399.488 196.042 399.488 190.637C399.488 184.588 395.174 179.927 389.174 179.927H377.67V213H386.447V201.992H387.587L390.414 213H399.785ZM387.736 194.356H386.447V187.563H387.736C389.472 187.563 390.612 188.803 390.612 190.984C390.612 193.117 389.472 194.356 387.736 194.356ZM413.608 213.595C419.062 213.595 424.764 210.223 424.764 202.389V179.927H415.988V202.885C415.988 205.116 415.046 205.959 413.608 205.959C412.12 205.959 411.228 205.116 411.228 202.885V179.927H402.451V202.438C402.451 210.223 408.153 213.595 413.608 213.595ZM457.7 213V179.927H447.039L443.022 193.216L439.204 179.927H428.345V213H437.122V197.083L441.684 213H444.411L449.072 197.083V213H457.7Z" fill="white"/>
</svg>
