<svg width="693" height="276" viewBox="0 0 693 276" fill="none" xmlns="http://www.w3.org/2000/svg">
<path d="M149.73 89.9691C166.451 89.9691 179.881 84.0444 181.724 48.4962L183.172 20.8476H189.492V88.3892H212.796V0.571966H161.843L158.552 48.4962C157.235 67.4553 154.207 69.4302 149.73 69.4302V89.9691Z" fill="white"/>
<path d="M228.23 89.9691C244.95 89.9691 249.954 80.7529 256.537 63.1105L279.709 0.571966L254.957 0.440308L246.53 30.4588L237.972 0.571966H213.484L234.154 56.6591L232.048 62.3205C230.994 65.0854 229.02 69.4302 224.806 69.4302C223.095 69.4302 220.462 68.7719 218.75 67.3236L213.484 86.4143C217.697 89.1792 223.227 89.9691 228.23 89.9691Z" fill="white"/>
<path d="M302.125 0.571966H278.821V29.9321C278.821 45.3364 287.774 59.1607 305.285 59.1607C309.761 59.1607 312.263 58.634 314.633 57.8441V88.3892H337.936V0.571966H314.633V38.2267C313.053 38.6217 311.868 38.885 309.761 38.885C305.153 38.885 302.125 35.5935 302.125 29.8005V0.571966Z" fill="white"/>
<path d="M412.526 0.571966V68.1136H401.993V0.571966H378.689V68.1136H368.156V0.571966H344.853V88.3892H435.83V0.571966H412.526Z" fill="white"/>
<path d="M464.451 88.3892L478.671 51.9194V88.3892H501.974V0.571966H478.671L466.031 34.8036V0.571966H442.859V88.3892H464.451Z" fill="white"/>
<path d="M553.22 88.3892V68.1136H532.286V54.0259H552.298V33.7503H532.286V20.8476H553.22V0.571966H508.982V88.3892H553.22Z" fill="white"/>
<path d="M35.9602 206.389C52.8127 206.389 59.1323 195.198 59.1323 182.559C59.1323 171.499 52.681 162.546 43.5965 161.098C51.891 159.123 57.9474 151.882 57.9474 140.954C57.9474 130.026 51.7594 118.572 34.7752 118.572H0.806946V206.389H35.9602ZM28.1922 151.75H24.1108V138.848H28.1922C32.4053 138.848 34.2486 141.086 34.2486 145.299C34.2486 149.775 32.4053 151.75 28.1922 151.75ZM28.7189 186.114H24.1108V172.026H28.7189C32.8003 172.026 35.4335 174.396 35.4335 179.004C35.4335 184.007 32.8003 186.114 28.7189 186.114Z" fill="white"/>
<path d="M62.9443 118.572V206.389H92.3045C111.922 206.389 120.875 192.433 120.875 177.029C120.875 161.625 111.922 147.8 92.3045 147.8H86.2481V118.572H62.9443ZM89.6713 168.076C94.2794 168.076 97.3076 171.368 97.3076 177.161C97.3076 182.822 94.2794 186.114 89.6713 186.114H86.2481V168.076H89.6713ZM148.26 206.389V118.572H124.956V206.389H148.26Z" fill="white"/>
<path d="M184.265 207.969C202.171 207.969 207.7 192.433 210.202 181.769L192.033 175.186C191.243 182.164 189.005 187.43 184.265 187.43C177.814 187.43 175.839 177.687 175.839 162.546C175.839 147.406 177.814 137.663 184.265 137.663C188.741 137.663 190.585 141.612 191.901 148.327L210.202 141.612C207.174 131.08 201.644 117.124 184.265 117.124C162.278 117.124 152.14 135.688 152.14 162.546C152.14 189.273 162.278 207.969 184.265 207.969Z" fill="white"/>
<path d="M245.723 206.389V138.848H258.363V118.572H209.648V138.848H222.42V206.389H245.723Z" fill="white"/>
<path d="M270.64 207.969C287.361 207.969 292.364 198.753 298.947 181.11L322.119 118.572L297.367 118.44L288.941 148.459L280.383 118.572H255.894L276.565 174.659L274.458 180.321C273.405 183.085 271.43 187.43 267.217 187.43C265.505 187.43 262.872 186.772 261.16 185.324L255.894 204.414C260.107 207.179 265.637 207.969 270.64 207.969Z" fill="white"/>
<path d="M381.795 206.389V118.572H322.68V206.389H345.983V138.848H358.623V206.389H381.795Z" fill="white"/>
<path d="M384.853 207.969C401.574 207.969 415.003 202.044 416.846 166.496L418.295 138.848H424.614V206.389H447.918V118.572H396.966L393.674 166.496C392.358 185.455 389.329 187.43 384.853 187.43V207.969Z" fill="white"/>
<path d="M499.164 206.389V186.114H478.23V172.026H498.242V151.75H478.23V138.848H499.164V118.572H454.926V206.389H499.164Z" fill="white"/>
<path d="M563.45 206.389V118.572H540.278V151.092H527.638V118.572H504.334V206.389H527.638V171.368H540.278V206.389H563.45Z" fill="white"/>
<path d="M592.05 206.389L606.269 169.919V206.389H629.573V118.572H606.269L593.63 152.804V118.572H570.458V206.389H592.05Z" fill="white"/>
<path d="M659.095 206.389L666.599 177.161H669.627V206.389H692.931V118.572H662.386C646.455 118.572 635.001 130.948 635.001 147.011C635.001 161.361 640.926 168.208 645.402 171.499L634.211 206.389H659.095ZM666.204 156.885C661.596 156.885 658.568 153.594 658.568 147.932C658.568 142.139 661.596 138.848 666.204 138.848H669.627V156.885H666.204Z" fill="white"/>
<path d="M16.2394 275.922C24.7611 275.922 27.3928 268.528 28.5834 263.453L19.9363 260.32C19.5603 263.641 18.4951 266.147 16.2394 266.147C13.169 266.147 12.2291 261.51 12.2291 254.304C12.2291 247.098 13.169 242.462 16.2394 242.462C18.3698 242.462 19.247 244.341 19.8736 247.537L28.5834 244.341C27.1422 239.329 24.5105 232.687 16.2394 232.687C5.77514 232.687 0.950317 241.522 0.950317 254.304C0.950317 267.024 5.77514 275.922 16.2394 275.922Z" fill="#F8006B"/>
<path d="M63.2402 275.17V270.784C74.2057 269.217 79.3438 262.826 79.3438 254.304C79.3438 245.783 74.2057 239.391 63.2402 237.825V233.376H52.2121V237.825C41.2466 239.391 36.1085 245.783 36.1085 254.304C36.1085 262.826 41.2466 269.217 52.2121 270.784V275.17H63.2402ZM68.1277 254.304C68.1277 257.312 66.7492 259.63 63.2402 260.696V247.913C66.7492 249.041 68.1277 251.359 68.1277 254.304ZM47.3873 254.304C47.3873 251.359 48.7031 249.041 52.2121 247.913V260.696C48.7031 259.63 47.3873 257.312 47.3873 254.304Z" fill="#F8006B"/>
<path d="M94.9202 275.922C105.322 275.922 110.147 266.962 110.147 254.304C110.147 241.647 105.322 232.687 94.9202 232.687C84.5187 232.687 79.6939 241.647 79.6939 254.304C79.6939 266.962 84.5187 275.922 94.9202 275.922ZM94.9202 266.147C91.9752 266.147 90.9727 261.385 90.9727 254.304C90.9727 247.161 91.9752 242.462 94.9202 242.462C97.8653 242.462 98.8678 247.161 98.8678 254.304C98.8678 261.385 97.8653 266.147 94.9202 266.147Z" fill="#F8006B"/>
<path d="M123.083 275.17V261.26H125.966C135.302 261.26 139.563 254.68 139.563 247.349C139.563 240.018 135.302 233.376 125.966 233.376H111.993V275.17H123.083ZM124.713 251.61H123.083V243.026H124.713C126.906 243.026 128.347 244.592 128.347 247.286C128.347 250.043 126.906 251.61 124.713 251.61Z" fill="#F8006B"/>
<path d="M143.067 275.922C151.024 275.922 153.406 271.536 156.539 263.139L167.567 233.376L155.787 233.313L151.776 247.6L147.703 233.376H136.049L145.886 260.069L144.884 262.763C144.382 264.079 143.443 266.147 141.437 266.147C140.623 266.147 139.37 265.834 138.555 265.145L136.049 274.23C138.054 275.546 140.686 275.922 143.067 275.922Z" fill="#F8006B"/>
<path d="M204.928 275.17V233.376H191.456L186.381 250.169L181.556 233.376H167.833V275.17H178.924V255.056L184.689 275.17H188.135L194.025 255.056V275.17H204.928Z" fill="#F8006B"/>
<path d="M222.022 275.922C232.424 275.922 237.249 266.962 237.249 254.304C237.249 241.647 232.424 232.687 222.022 232.687C211.621 232.687 206.796 241.647 206.796 254.304C206.796 266.962 211.621 275.922 222.022 275.922ZM222.022 266.147C219.077 266.147 218.075 261.385 218.075 254.304C218.075 247.161 219.077 242.462 222.022 242.462C224.967 242.462 225.97 247.161 225.97 254.304C225.97 261.385 224.967 266.147 222.022 266.147Z" fill="#F8006B"/>
<path d="M255.825 275.17C263.845 275.17 266.853 269.844 266.853 263.829C266.853 258.565 263.783 254.304 259.459 253.615C263.407 252.675 266.289 249.229 266.289 244.028C266.289 238.827 263.344 233.376 255.261 233.376H239.095V275.17H255.825ZM252.128 249.166H250.185V243.026H252.128C254.133 243.026 255.01 244.091 255.01 246.096C255.01 248.226 254.133 249.166 252.128 249.166ZM252.378 265.52H250.185V258.816H252.378C254.321 258.816 255.574 259.944 255.574 262.137C255.574 264.518 254.321 265.52 252.378 265.52Z" fill="#F8006B"/>
<path d="M290.303 275.922C298.825 275.922 301.457 268.528 302.647 263.453L294 260.32C293.624 263.641 292.559 266.147 290.303 266.147C287.233 266.147 286.293 261.51 286.293 254.304C286.293 247.098 287.233 242.462 290.303 242.462C292.434 242.462 293.311 244.341 293.938 247.537L302.647 244.341C301.206 239.329 298.575 232.687 290.303 232.687C279.839 232.687 275.014 241.522 275.014 254.304C275.014 267.024 279.839 275.922 290.303 275.922Z" fill="#F8006B"/>
<path d="M314.102 275.17L320.869 257.813V275.17H331.96V233.376H320.869L314.853 249.668V233.376H303.825V275.17H314.102Z" fill="#F8006B"/>
<path d="M363.429 275.17V233.376H352.401V248.853H346.386V233.376H335.295V275.17H346.386V258.503H352.401V275.17H363.429Z" fill="#F8006B"/>
<path d="M387.818 275.17V265.52H377.855V258.816H387.379V249.166H377.855V243.026H387.818V233.376H366.764V275.17H387.818Z" fill="#F8006B"/>
<path d="M401.37 275.17V261.26H404.252C413.588 261.26 417.849 254.68 417.849 247.349C417.849 240.018 413.588 233.376 404.252 233.376H390.279V275.17H401.37ZM402.999 251.61H401.37V243.026H402.999C405.192 243.026 406.633 244.592 406.633 247.286C406.633 250.043 405.192 251.61 402.999 251.61Z" fill="#F8006B"/>
<path d="M430.575 275.17V243.026H440.538V233.376H419.484V275.17H430.575Z" fill="#F8006B"/>
<path d="M452.969 275.17L459.737 257.813V275.17H470.827V233.376H459.737L453.721 249.668V233.376H442.693V275.17H452.969Z" fill="#F8006B"/>
<path d="M484.439 275.17L491.206 257.813V275.17H502.297V233.376H491.206L485.191 249.668V233.376H474.163V275.17H484.439Z" fill="#F8006B"/>
<path d="M525.953 275.922C534.412 275.922 540.678 271.097 540.678 263.515C540.678 258.691 537.482 254.492 532.594 253.615C536.855 252.863 540.051 248.54 540.051 244.216C540.051 236.446 533.973 232.749 525.953 232.749C520.438 232.749 515.426 234.942 512.105 239.642L518.935 245.657C520.313 243.464 522.757 242.524 524.887 242.524C527.394 242.524 528.835 243.652 528.835 245.845C528.835 248.101 527.08 249.229 524.198 249.229H519.812V258.941H524.825C526.955 258.941 529.399 259.818 529.399 262.575C529.399 264.393 528.334 266.147 525.201 266.147C522.318 266.147 520.376 264.769 518.747 262.638L511.603 269.28C514.298 273.165 519.499 275.922 525.953 275.922Z" fill="#F8006B"/>
<path d="M570.393 275.17L561.182 233.376H548.462L539.314 275.17H550.655L551.47 269.343H558.174L559.052 275.17H570.393ZM556.921 259.693H552.786L554.853 245.407L556.921 259.693Z" fill="#F8006B"/>
<path d="M591.113 275.922C600.387 275.922 606.026 269.969 606.026 261.197C606.026 252.362 601.64 247.474 595.499 247.474C592.805 247.474 590.361 248.79 589.171 250.733V243.026H603.708V233.376H578.08V258.189L586.226 260.006C587.416 258.064 588.857 256.936 590.925 256.936C593.431 256.936 594.81 258.753 594.81 261.51C594.81 264.079 593.181 266.147 590.361 266.147C587.917 266.147 585.662 264.769 583.907 262.513L577.015 269.28C580.273 273.917 585.035 275.922 591.113 275.922Z" fill="#F8006B"/>
<path d="M613.755 275.922C621.713 275.922 628.104 273.102 628.981 256.184L629.671 243.026H632.678V275.17H643.769V233.376H619.52L617.953 256.184C617.326 265.207 615.885 266.147 613.755 266.147V275.922Z" fill="#F8006B"/>
<path d="M668.158 275.17V265.52H658.195V258.816H667.719V249.166H658.195V243.026H668.158V233.376H647.104V275.17H668.158Z" fill="#F8006B"/>
<path d="M686.346 275.17V243.026H692.362V233.376H669.178V243.026H675.256V275.17H686.346Z" fill="#F8006B"/>
</svg>
