<svg width="202" height="47" viewBox="0 0 202 47" fill="none" xmlns="http://www.w3.org/2000/svg">
<path d="M4.77059 3.36687H19.107V0.577434H2.04603L0.878354 24.8391H3.66779V24.0606C4.57598 20.6873 6.84645 18.871 10.1549 18.871C15.1499 18.871 17.096 22.5686 17.096 27.4339V35.0886C17.096 39.9539 15.1499 43.6515 10.1549 43.6515C5.22469 43.6515 3.27857 39.9539 3.27857 35.0886V32.4938H0.42426V34.9589C0.42426 41.5108 3.34344 46.441 10.2197 46.441C17.1609 46.441 20.0801 41.5108 20.0801 34.9589V27.1744C20.0801 20.8819 17.5501 16.0815 11.2577 16.0815C7.88438 16.0815 5.48417 17.1195 3.92727 19.5845L4.77059 3.36687ZM24.2272 34.9589C24.2272 41.5757 27.2761 46.441 34.2173 46.441C41.1585 46.441 44.2074 41.5757 44.2074 34.9589V11.7352C44.2074 5.05351 41.1585 0.253081 34.2173 0.253081C27.2761 0.253081 24.2272 5.05351 24.2272 11.7352V34.9589ZM27.2113 11.5406C27.2113 6.6104 29.2223 2.97765 34.2173 2.97765C39.2123 2.97765 41.2233 6.6104 41.2233 11.5406V35.0886C41.2233 40.0837 39.2123 43.7164 34.2173 43.7164C29.2223 43.7164 27.2113 40.0837 27.2113 35.0886V11.5406ZM68.8491 24.4498V22.2442H59.5726V12.9029H57.367V22.2442H48.1554V24.4498H57.367V33.9209H59.5726V24.4498H68.8491ZM99.3363 46.0518H102.32V0.642304H99.3363V20.1035C98.3632 23.9309 95.963 26.0067 92.2005 26.0067C87.3352 26.0067 85.1945 22.1145 85.1945 17.4438V0.642304H82.2104V17.6384C82.2104 23.7363 84.935 28.7313 91.3572 28.7313C94.8602 28.7313 97.6496 27.1744 99.3363 24.2552V46.0518ZM125.331 35.9968L127.602 46.0518H130.586L120.466 0.577434H116.12L106.194 46.0518H108.919L111.189 35.9968H125.331ZM118.195 4.01558L124.877 33.402H111.643L118.195 4.01558ZM144.049 0.253081C137.108 0.253081 134.254 5.18325 134.254 11.7352V34.9589C134.254 41.5108 137.108 46.441 144.049 46.441C150.991 46.441 153.845 41.5108 153.845 34.9589V29.7692H150.991V35.1535C150.991 40.0188 149.109 43.6515 144.114 43.6515C139.119 43.6515 137.238 40.0188 137.238 35.1535V11.5406C137.238 6.67527 139.119 2.97765 144.114 2.97765C149.109 2.97765 150.991 6.67527 150.991 11.5406V15.4977H153.845V11.7352C153.845 5.18325 150.991 0.253081 144.049 0.253081ZM157.868 34.9589C157.868 41.5757 160.917 46.441 167.794 46.441C174.8 46.441 177.849 41.5757 177.849 34.9589V11.7352C177.849 5.11838 174.8 0.253081 167.794 0.253081C160.917 0.253081 157.868 5.11838 157.868 11.7352V34.9589ZM160.852 11.5406C160.852 6.6104 162.799 2.97765 167.794 2.97765C172.853 2.97765 174.864 6.6104 174.864 11.5406V35.1535C174.864 40.0837 172.853 43.7164 167.794 43.7164C162.799 43.7164 160.852 40.0837 160.852 35.1535V11.5406ZM182.121 0.642304V46.0518H191.851C198.793 46.0518 201.777 42.0946 201.777 35.5427V31.5856C201.777 26.4608 199.895 22.8281 194.965 21.855C199.571 20.8819 200.933 17.833 200.933 12.9029V10.308C200.933 4.01558 198.468 0.642304 191.657 0.642304H182.121ZM185.105 20.6873V3.36687H191.592C196.457 3.36687 197.949 5.83196 197.949 10.5675V13.4867C197.949 19.2602 195.484 20.6873 190.165 20.6873H185.105ZM185.105 43.3272V23.4119H190.749C196.133 23.4119 198.793 25.4878 198.793 31.391V35.4778C198.793 40.5378 196.846 43.3272 191.851 43.3272H185.105Z" fill="#F8006B"/>
</svg>
