<svg width="199" height="47" viewBox="0 0 199 47" fill="none" xmlns="http://www.w3.org/2000/svg">
<path d="M4.44937 3.36687H18.7858V0.577434H1.72481L0.557134 24.8391H3.34657V24.0606C4.25476 20.6873 6.52523 18.871 9.83364 18.871C14.8287 18.871 16.7748 22.5686 16.7748 27.4339V35.0886C16.7748 39.9539 14.8287 43.6515 9.83364 43.6515C4.90347 43.6515 2.95735 39.9539 2.95735 35.0886V32.4938H0.103039V34.9589C0.103039 41.5108 3.02222 46.441 9.89851 46.441C16.8397 46.441 19.7588 41.5108 19.7588 34.9589V27.1744C19.7588 20.8819 17.2289 16.0815 10.9364 16.0815C7.56316 16.0815 5.16295 17.1195 3.60605 19.5845L4.44937 3.36687ZM23.906 34.9589C23.906 41.5757 26.9549 46.441 33.8961 46.441C40.8372 46.441 43.8862 41.5757 43.8862 34.9589V11.7352C43.8862 5.05351 40.8372 0.253081 33.8961 0.253081C26.9549 0.253081 23.906 5.05351 23.906 11.7352V34.9589ZM26.8901 11.5406C26.8901 6.6104 28.901 2.97765 33.8961 2.97765C38.8911 2.97765 40.9021 6.6104 40.9021 11.5406V35.0886C40.9021 40.0837 38.8911 43.7164 33.8961 43.7164C28.901 43.7164 26.8901 40.0837 26.8901 35.0886V11.5406ZM68.5279 24.4498V22.2442H59.2514V12.9029H57.0458V22.2442H47.8341V24.4498H57.0458V33.9209H59.2514V24.4498H68.5279ZM99.2097 24.7093V46.0518H102.259V0.642304H99.2097V21.9847H85.0679V0.642304H82.0838V46.0518H85.0679V24.7093H99.2097ZM106.581 34.9589C106.581 41.5757 109.63 46.441 116.506 46.441C123.512 46.441 126.561 41.5757 126.561 34.9589V11.7352C126.561 5.11838 123.512 0.253081 116.506 0.253081C109.63 0.253081 106.581 5.11838 106.581 11.7352V34.9589ZM109.565 11.5406C109.565 6.6104 111.511 2.97765 116.506 2.97765C121.566 2.97765 123.577 6.6104 123.577 11.5406V35.1535C123.577 40.0837 121.566 43.7164 116.506 43.7164C111.511 43.7164 109.565 40.0837 109.565 35.1535V11.5406ZM133.687 0.642304H130.703V34.9589C130.703 41.4459 133.493 46.441 140.434 46.441C147.375 46.441 150.1 41.4459 150.1 34.9589V0.642304H147.31V35.0886C147.31 39.9539 145.494 43.7164 140.499 43.7164C135.504 43.7164 133.687 39.9539 133.687 35.0886V0.642304ZM154.574 0.642304V46.0518H157.558V25.7472H162.294C167.483 25.7472 170.792 27.4339 170.792 33.4669V40.6026C170.792 43.0677 170.987 44.6895 171.765 46.0518H174.879C173.906 44.5597 173.776 42.4839 173.776 40.6026V33.5317C173.776 28.6016 171.895 25.2932 167.224 24.2552C171.7 23.2173 173.776 20.1684 173.776 14.849V10.8919C173.776 4.46967 170.987 0.642304 164.045 0.642304H154.574ZM157.558 23.0227V3.36687H163.98C168.911 3.36687 170.792 6.28605 170.792 11.1513V15.4328C170.792 21.5307 167.678 23.0227 162.359 23.0227H157.558ZM188.42 0.253081C181.738 0.317951 178.754 4.72916 178.754 11.5406C178.754 24.1904 195.167 24.385 195.167 35.2832C195.167 40.1485 193.285 43.6515 188.29 43.6515C183.295 43.6515 181.414 40.1485 181.414 35.2832V32.7533H178.56V35.0886C178.56 41.6406 181.414 46.441 188.355 46.441C195.296 46.441 198.151 41.6406 198.151 35.0886C198.151 22.5686 181.738 22.374 181.738 11.346C181.738 6.54553 183.555 2.97765 188.485 2.97765C193.415 2.97765 195.231 6.6104 195.231 11.4108V12.5785H198.086V11.6054C198.086 5.05351 195.296 0.253081 188.42 0.253081Z" fill="#F8006B"/>
</svg>
