<svg width="76" height="59" viewBox="0 0 76 59" fill="none" xmlns="http://www.w3.org/2000/svg">
<path d="M69.6875 0.96875H6.3125C4.69683 0.970363 3.1478 1.6129 2.00535 2.75535C0.8629 3.8978 0.220363 5.44683 0.21875 7.0625V41.1875C0.220363 42.8032 0.8629 44.3522 2.00535 45.4947C3.1478 46.6371 4.69683 47.2796 6.3125 47.2812H30.1817L28.4557 52.1562H23.375C23.0518 52.1562 22.7418 52.2847 22.5132 52.5132C22.2847 52.7418 22.1562 53.0518 22.1562 53.375V57.0312C22.1562 57.3545 22.2847 57.6645 22.5132 57.893C22.7418 58.1216 23.0518 58.25 23.375 58.25H68.4688C69.438 58.2487 70.3673 57.8631 71.0527 57.1777C71.7381 56.4923 72.1237 55.5631 72.125 54.5938V46.7739C73.2119 46.2996 74.1368 45.5183 74.7863 44.526C75.4357 43.5337 75.7815 42.3734 75.7812 41.1875V7.0625C75.7796 5.44683 75.1371 3.8978 73.9947 2.75535C72.8522 1.6129 71.3032 0.970363 69.6875 0.96875ZM6.3125 44.8438C5.3432 44.8425 4.41397 44.4568 3.72857 43.7714C3.04316 43.086 2.65754 42.1568 2.65625 41.1875V39.9688H47.75V44.8438H6.3125ZM47.75 47.2812V52.1562H47.392L45.6659 47.2812H47.75ZM44.8067 52.1562H31.0409L32.767 47.2812H43.0807L44.8067 52.1562ZM24.5938 55.8125V54.5938H47.75C47.7499 55.009 47.821 55.4213 47.9602 55.8125H24.5938ZM69.6875 54.5938C69.6871 54.9168 69.5585 55.2266 69.33 55.455C69.1016 55.6835 68.7918 55.8121 68.4688 55.8125H51.4062C51.0832 55.8121 50.7734 55.6835 50.545 55.455C50.3165 55.2266 50.1879 54.9168 50.1875 54.5938V26.5625C50.1879 26.2394 50.3165 25.9297 50.545 25.7012C50.7734 25.4727 51.0832 25.3442 51.4062 25.3438H54.1835L55.125 28.1667C55.2059 28.4094 55.3611 28.6204 55.5686 28.77C55.7761 28.9195 56.0254 29 56.2812 29H63.5938C63.8496 29 64.0989 28.9195 64.3064 28.77C64.5139 28.6204 64.6691 28.4094 64.75 28.1667L65.6915 25.3438H68.4688C68.7918 25.3442 69.1016 25.4727 69.33 25.7012C69.5585 25.9297 69.6871 26.2394 69.6875 26.5625V54.5938ZM56.7535 25.3438H63.1215L62.7147 26.5625H57.1603L56.7535 25.3438ZM73.3438 41.1875C73.3437 41.7019 73.2351 42.2106 73.0251 42.6802C72.8151 43.1498 72.5084 43.5699 72.125 43.9129V26.5625C72.1237 25.5932 71.7381 24.664 71.0527 23.9786C70.3673 23.2932 69.438 22.9075 68.4688 22.9062H51.4062C50.4369 22.9075 49.5077 23.2932 48.8223 23.9786C48.1369 24.664 47.7513 25.5932 47.75 26.5625V37.5312H2.65625V7.0625C2.65754 6.0932 3.04316 5.16397 3.72857 4.47857C4.41397 3.79316 5.3432 3.40754 6.3125 3.40625H69.6875C70.6568 3.40754 71.586 3.79316 72.2714 4.47857C72.9568 5.16397 73.3425 6.0932 73.3438 7.0625V41.1875Z" fill="#F8006B"/>
<path d="M14.8438 41.1875H6.3125C5.98927 41.1875 5.67927 41.3159 5.45071 41.5445C5.22215 41.773 5.09375 42.083 5.09375 42.4062C5.09375 42.7295 5.22215 43.0395 5.45071 43.268C5.67927 43.4966 5.98927 43.625 6.3125 43.625H14.8438C15.167 43.625 15.477 43.4966 15.7055 43.268C15.9341 43.0395 16.0625 42.7295 16.0625 42.4062C16.0625 42.083 15.9341 41.773 15.7055 41.5445C15.477 41.3159 15.167 41.1875 14.8438 41.1875Z" fill="#F8006B"/>
<path d="M19.7188 41.1875H18.5C18.1768 41.1875 17.8668 41.3159 17.6382 41.5445C17.4097 41.773 17.2812 42.083 17.2812 42.4062C17.2812 42.7295 17.4097 43.0395 17.6382 43.268C17.8668 43.4966 18.1768 43.625 18.5 43.625H19.7188C20.042 43.625 20.352 43.4966 20.5805 43.268C20.8091 43.0395 20.9375 42.7295 20.9375 42.4062C20.9375 42.083 20.8091 41.773 20.5805 41.5445C20.352 41.3159 20.042 41.1875 19.7188 41.1875Z" fill="#F8006B"/>
</svg>
