<svg width="205" height="38" viewBox="0 0 205 38" fill="none" xmlns="http://www.w3.org/2000/svg">
<path d="M23.4072 31.3813V24.6935L17.5553 18.8416L23.4072 12.9898V6.30198L10.9318 18.8416L23.4072 31.3813Z" fill="#ED1C24"/>
<path d="M0 37.6833H37.7476V0H0V37.6833ZM4.69433 4.69433H32.9889V32.9889H4.69433V4.69433Z" fill="#ED1C24"/>
<path d="M58.3894 4.11557C60.1257 4.11557 62.0549 4.75863 64.0483 5.98044C64.177 5.72322 64.3056 5.08016 64.2413 3.85835C64.2413 2.70084 64.177 1.92917 64.0483 1.60764C62.4407 0.643049 60.4472 0.128601 58.1322 0.128601C54.7883 0.128601 52.1518 1.09319 50.1583 3.08667C48.1648 5.01585 47.2002 7.45948 47.2002 10.3532C47.2002 13.247 48.1648 15.6263 50.1583 17.6198C52.1518 19.549 54.8526 20.5779 58.1322 20.5779C60.4472 20.5779 62.4407 20.0634 64.0483 19.0989C64.177 18.7773 64.2413 18.0057 64.2413 16.8481C64.2413 15.6906 64.177 14.9833 64.0483 14.7261C62.0549 15.9479 60.19 16.5909 58.3894 16.5909C56.5889 16.5909 55.0455 16.0122 53.8237 14.919C52.6019 13.7615 52.0231 12.2824 52.0231 10.4176C52.0231 8.55268 52.6019 7.00934 53.8237 5.91614C55.0455 4.69432 56.5889 4.11557 58.3894 4.11557Z" fill="white"/>
<path d="M86.0409 19.9992V0.578782C84.7548 0.385864 83.5329 0.385864 82.3111 0.578782L73.244 11.9609V0.578782C71.6363 0.321558 70.0287 0.321558 68.4854 0.578782V19.9992C69.7715 20.1921 70.9933 20.1921 72.2151 19.9992L81.2822 8.61703V19.9992C82.8899 20.3207 84.4975 20.3207 86.0409 19.9992Z" fill="white"/>
<path d="M108.291 19.9992V0.578782C106.683 0.321558 105.076 0.321558 103.532 0.578782V8.23119H95.494V0.578782C93.8863 0.321558 92.2787 0.321558 90.7354 0.578782V19.9992C92.343 20.2564 93.9506 20.2564 95.494 19.9992V12.2182H103.532V20.0635C105.076 20.3207 106.683 20.3207 108.291 19.9992Z" fill="white"/>
<path d="M126.489 4.56576C126.747 3.27965 126.747 1.92922 126.489 0.578796H112.921V19.9992H126.489C126.747 18.6488 126.747 17.3626 126.489 16.0122H117.68V12.1539H125.396C125.653 10.8677 125.653 9.51732 125.396 8.1669H117.68V4.50146H126.489V4.56576Z" fill="white"/>
<path d="M143.402 2.37936C142.052 1.15755 140.315 0.578796 138.129 0.578796H130.477V19.9992C132.084 20.2564 133.692 20.2564 135.235 19.9992V13.6329H138.065C140.251 13.6329 141.987 13.0541 143.338 11.8323C144.688 10.6105 145.396 9.06718 145.396 7.138C145.46 5.14452 144.752 3.60118 143.402 2.37936ZM138.129 9.64593H135.3V4.56576H138.129C139.544 4.56576 140.573 5.40174 140.573 7.138C140.573 8.80996 139.544 9.64593 138.129 9.64593Z" fill="white"/>
<path d="M148.997 19.9992C150.605 20.2564 152.212 20.2564 153.756 19.9992V4.56576H161.794C162.051 3.27965 162.051 1.92922 161.794 0.578796H148.997V19.9992Z" fill="white"/>
<path d="M165.266 0.578782V19.9992C166.552 20.1921 167.774 20.1921 168.995 19.9992L178.062 8.61703V19.9992C179.67 20.2564 181.278 20.2564 182.821 19.9992V0.578782C181.535 0.385864 180.313 0.385864 179.091 0.578782L170.024 11.9609V0.578782C168.481 0.321558 166.873 0.321558 165.266 0.578782Z" fill="white"/>
<path d="M187.194 7.00939C187.194 9.58163 188.609 11.7037 190.924 12.7326L186.229 19.9992C186.937 20.1278 187.773 20.1921 188.802 20.1921C189.831 20.1921 190.731 20.1278 191.438 19.9992L195.297 14.083L195.747 13.44H197.612V19.9992C199.219 20.2564 200.827 20.2564 202.37 19.9992V0.578796H194.525C192.339 0.578796 190.602 1.15755 189.252 2.37936C187.837 3.53687 187.194 5.08021 187.194 7.00939ZM194.525 4.56576H197.483V9.45302H194.461C193.046 9.45302 192.017 8.61704 192.017 7.00939C192.017 5.46605 193.11 4.56576 194.525 4.56576Z" fill="white"/>
<path d="M60.4479 25.7867V34.9825H57.2326V25.7867C56.268 25.6581 55.3034 25.6581 54.4032 25.7867V34.9825H51.1879V25.7867C50.2233 25.6581 49.2587 25.6581 48.3584 25.7867V37.3618H63.3417V25.7867C62.3771 25.6581 61.4125 25.6581 60.4479 25.7867Z" fill="white"/>
<path d="M76.2026 25.7867C75.8168 25.7224 75.238 25.6581 74.5307 25.6581C73.8233 25.6581 73.2446 25.7224 72.8587 25.7867L69.0004 31.0598V25.7867C68.0358 25.6581 67.0712 25.6581 66.1709 25.7867V37.3618C67.1355 37.4904 68.1001 37.4904 69.0004 37.3618V31.7671L72.9873 37.3618C73.3732 37.4261 73.9519 37.4904 74.6593 37.4904C75.3666 37.4904 75.9454 37.4261 76.3312 37.3618L72.0227 31.3813L76.2026 25.7867Z" fill="white"/>
<path d="M83.2759 25.5295C81.4753 25.5295 79.9963 26.1082 78.8388 27.2657C77.6813 28.4232 77.1025 29.838 77.1025 31.5742C77.1025 33.2462 77.6813 34.7252 78.8388 35.8827C79.9963 37.0402 81.4753 37.619 83.2759 37.619C85.0765 37.619 86.5555 37.0402 87.713 35.8827C88.8705 34.7252 89.4493 33.2462 89.4493 31.5742C89.4493 29.9023 88.8705 28.4232 87.713 27.2657C86.5555 26.1082 85.0765 25.5295 83.2759 25.5295ZM85.5909 34.2751C84.9479 34.9181 84.1762 35.304 83.2759 35.304C82.3756 35.304 81.604 34.9825 80.9609 34.2751C80.3178 33.5677 79.9963 32.7317 79.9963 31.5742C79.9963 30.481 80.3178 29.5808 80.9609 28.8734C81.604 28.166 82.3756 27.8445 83.2759 27.8445C84.1762 27.8445 84.9479 28.166 85.5909 28.8734C86.234 29.5164 86.5555 30.4167 86.5555 31.5742C86.5555 32.7317 86.234 33.632 85.5909 34.2751Z" fill="white"/>
<path d="M92.6004 33.825C92.5361 34.661 92.086 35.1111 91.4429 35.1111C91.25 35.1111 91.1214 35.1111 90.9285 35.0468C90.7999 35.8185 90.7999 36.6544 90.9285 37.4261C91.3143 37.5547 91.7645 37.619 92.2789 37.619C94.1438 37.619 95.237 36.4615 95.4942 34.0822L96.073 28.1661H99.031V37.3618C99.9956 37.4904 100.96 37.4904 101.861 37.3618V25.7867H93.4364L92.6004 33.825Z" fill="white"/>
<path d="M108.612 25.7867L103.918 37.3618C104.883 37.4904 105.911 37.4904 106.876 37.3618L107.712 35.1754H111.956L112.792 37.3618C113.757 37.4904 114.721 37.4904 115.75 37.3618L111.056 25.7867C110.22 25.6581 109.448 25.6581 108.612 25.7867ZM108.612 32.7961L109.834 29.4521L111.056 32.7961H108.612Z" fill="white"/>
<path d="M130.412 30.9955C129.641 30.2882 128.547 29.9666 127.261 29.9666H125.589V28.1661H130.541C130.669 27.3944 130.669 26.6227 130.541 25.7867H122.76V37.3618H127.325C128.612 37.3618 129.641 36.976 130.476 36.3329C131.312 35.6256 131.698 34.7253 131.698 33.6321C131.634 32.5389 131.184 31.6386 130.412 30.9955ZM127.261 35.0468H125.589V32.2816H127.261C128.097 32.2816 128.74 32.7961 128.74 33.6321C128.676 34.5323 128.097 35.0468 127.261 35.0468Z" fill="white"/>
<path d="M141.987 25.7867L136.585 32.6031V25.7867C135.621 25.6581 134.656 25.6581 133.756 25.7867V37.3618C134.528 37.4904 135.235 37.4904 136.007 37.3618L141.408 30.5453V37.3618C142.373 37.4904 143.337 37.4904 144.238 37.3618V25.7867C143.466 25.6581 142.759 25.6581 141.987 25.7867Z" fill="white"/>
<path d="M153.177 31.4456C154.141 30.9311 154.784 29.9022 154.784 28.7447C154.784 26.8156 153.177 25.5938 150.605 25.5938C149.19 25.5938 148.032 25.9153 147.068 26.494C147.003 26.687 146.939 27.1371 146.939 27.8445C146.939 28.5518 147.003 28.9377 147.068 29.0663C148.29 28.3589 149.383 27.9731 150.412 27.9731C151.312 27.9731 151.891 28.4232 151.891 29.2592C151.891 30.0309 151.441 30.5453 150.669 30.5453H148.997C148.868 31.317 148.868 32.0243 148.997 32.796H150.733C151.633 32.796 152.084 33.1819 152.084 34.0178C152.084 34.9181 151.248 35.3683 150.347 35.3683C149.254 35.3683 148.097 34.9824 146.939 34.2751C146.875 34.4037 146.811 34.8538 146.811 35.4969C146.811 36.2042 146.875 36.6544 146.939 36.8473C147.904 37.426 149.126 37.7476 150.54 37.7476C151.891 37.7476 152.92 37.426 153.756 36.8473C154.592 36.2685 155.042 35.4326 155.042 34.3394C154.977 32.9889 154.27 31.96 153.177 31.4456Z" fill="white"/>
<path d="M167.774 37.3618V25.7867C166.809 25.6581 165.845 25.6581 164.944 25.7867V30.3524H160.121V25.7867C159.157 25.6581 158.192 25.6581 157.292 25.7867V37.3618C158.257 37.4904 159.221 37.4904 160.121 37.3618V32.6674H164.944V37.3618C165.845 37.5547 166.809 37.5547 167.774 37.3618Z" fill="white"/>
<path d="M178.642 28.1661C178.77 27.3944 178.77 26.6227 178.642 25.7867H170.539V37.3618H178.642C178.77 36.5901 178.77 35.7542 178.642 34.9825H173.433V32.6675H178.063C178.191 31.8958 178.191 31.1241 178.063 30.2882H173.433V28.1661H178.642Z" fill="white"/>
<path d="M187.066 27.9088C188.094 27.9088 189.252 28.2946 190.41 29.002C190.474 28.8734 190.538 28.4232 190.538 27.7802C190.538 27.0728 190.474 26.6227 190.41 26.4298C189.445 25.851 188.287 25.5295 186.873 25.5295C184.879 25.5295 183.336 26.1082 182.114 27.2657C180.892 28.4232 180.313 29.838 180.313 31.5742C180.313 33.3105 180.892 34.7252 182.114 35.8827C183.336 37.0402 184.879 37.619 186.873 37.619C188.287 37.619 189.445 37.2975 190.41 36.7187C190.474 36.5258 190.538 36.0757 190.538 35.3683C190.538 34.6609 190.474 34.2751 190.41 34.1465C189.188 34.8538 188.094 35.2397 187.066 35.2397C185.972 35.2397 185.072 34.9181 184.365 34.2108C183.657 33.5034 183.272 32.6674 183.272 31.5099C183.272 30.4167 183.657 29.5164 184.365 28.8091C185.072 28.2303 185.972 27.9088 187.066 27.9088Z" fill="white"/>
<path d="M197.162 25.7867L192.468 37.3618C193.432 37.4904 194.461 37.4904 195.426 37.3618L196.262 35.1754H200.506L201.342 37.3618C202.307 37.4904 203.271 37.4904 204.3 37.3618L199.606 25.7867C198.77 25.6581 197.934 25.6581 197.162 25.7867ZM199.606 32.7961H197.162L198.384 29.4521L199.606 32.7961Z" fill="white"/>
</svg>
