<svg width="75" height="64" viewBox="0 0 75 64" fill="none" xmlns="http://www.w3.org/2000/svg">
<rect x="28.2142" y="16.1376" width="18.4728" height="11.9909" rx="2.67447" fill="#F8006B" stroke="#F0F0F0" stroke-width="1.78298"/>
<rect x="28.2141" y="30.3602" width="18.4728" height="11.9909" rx="2.67447" fill="#F8006B" stroke="#F0F0F0" stroke-width="1.78298"/>
<rect x="28.2141" y="45.2225" width="18.4728" height="11.9909" rx="2.67447" fill="#F8006B" stroke="#F0F0F0" stroke-width="1.78298"/>
<path d="M39.8958 21.4289C40.4901 21.772 40.4901 22.6298 39.8958 22.973L36.8797 24.7143C36.2854 25.0574 35.5425 24.6285 35.5425 23.9423L35.5425 20.4596C35.5425 19.7733 36.2854 19.3444 36.8797 19.6875L39.8958 21.4289Z" fill="#F0F0F0"/>
<path d="M39.8958 35.6515C40.4901 35.9947 40.4901 36.8525 39.8958 37.1956L36.8797 38.937C36.2854 39.2801 35.5425 38.8512 35.5425 38.1649L35.5425 34.6822C35.5425 33.996 36.2854 33.5671 36.8797 33.9102L39.8958 35.6515Z" fill="#F0F0F0"/>
<path d="M39.8958 50.5138C40.4901 50.857 40.4901 51.7148 39.8958 52.0579L36.8797 53.7993C36.2854 54.1424 35.5425 53.7135 35.5425 53.0272L35.5425 49.5446C35.5425 48.8583 36.2854 48.4294 36.8797 48.7725L39.8958 50.5138Z" fill="#F0F0F0"/>
<rect x="6.32643" y="30.6806" width="18.4728" height="11.9909" rx="2.67447" fill="#F8006B" stroke="#F0F0F0" stroke-width="1.78298"/>
<rect x="6.32716" y="16.1376" width="18.4728" height="11.9909" rx="2.67447" fill="#F8006B" stroke="#F0F0F0" stroke-width="1.78298"/>
<rect x="6.32643" y="45.2225" width="18.4728" height="11.9909" rx="2.67447" fill="#F8006B" stroke="#F0F0F0" stroke-width="1.78298"/>
<path d="M18.0081 35.9718C18.6024 36.315 18.6024 37.1728 18.0081 37.5159L14.992 39.2573C14.3977 39.6004 13.6548 39.1715 13.6548 38.4852L13.6548 35.0026C13.6548 34.3163 14.3977 33.8874 14.992 34.2305L18.0081 35.9718Z" fill="#F0F0F0"/>
<path d="M18.0081 21.4289C18.6024 21.772 18.6024 22.6298 18.0081 22.973L14.992 24.7143C14.3977 25.0574 13.6548 24.6285 13.6548 23.9423L13.6548 20.4596C13.6548 19.7733 14.3977 19.3444 14.992 19.6875L18.0081 21.4289Z" fill="#F0F0F0"/>
<path d="M18.0081 50.5138C18.6024 50.857 18.6024 51.7148 18.0081 52.0579L14.992 53.7993C14.3977 54.1424 13.6548 53.7135 13.6548 53.0272L13.6548 49.5446C13.6548 48.8583 14.3977 48.4294 14.992 48.7725L18.0081 50.5138Z" fill="#F0F0F0"/>
<rect x="49.8827" y="30.6806" width="18.4728" height="11.9909" rx="2.67447" fill="#F8006B" stroke="#F0F0F0" stroke-width="1.78298"/>
<rect x="49.8826" y="16.1376" width="18.4728" height="11.9909" rx="2.67447" fill="#F8006B" stroke="#F0F0F0" stroke-width="1.78298"/>
<rect x="49.8827" y="45.2225" width="18.4728" height="11.9909" rx="2.67447" fill="#F8006B" stroke="#F0F0F0" stroke-width="1.78298"/>
<path d="M61.5644 35.9718C62.1587 36.315 62.1587 37.1728 61.5644 37.5159L58.5483 39.2573C57.954 39.6004 57.2111 39.1715 57.2111 38.4852L57.2111 35.0026C57.2111 34.3163 57.954 33.8874 58.5483 34.2305L61.5644 35.9718Z" fill="#F0F0F0"/>
<path d="M61.5644 21.4289C62.1587 21.772 62.1587 22.6298 61.5644 22.973L58.5483 24.7143C57.954 25.0574 57.2111 24.6285 57.2111 23.9423L57.2111 20.4596C57.2111 19.7733 57.954 19.3444 58.5483 19.6875L61.5644 21.4289Z" fill="#F0F0F0"/>
<path d="M61.5644 50.5138C62.1587 50.857 62.1587 51.7148 61.5644 52.0579L58.5483 53.7993C57.954 54.1424 57.2111 53.7135 57.2111 53.0272L57.2111 49.5446C57.2111 48.8583 57.954 48.4294 58.5483 48.7725L61.5644 50.5138Z" fill="#F0F0F0"/>
<mask id="path-19-inside-1" fill="white">
<rect y="9.69043" width="74.8852" height="53.7638" rx="3.56596"/>
</mask>
<rect y="9.69043" width="74.8852" height="53.7638" rx="3.56596" stroke="black" stroke-width="8.91491" mask="url(#path-19-inside-1)"/>
<mask id="path-20-inside-2" fill="white">
<rect x="23.0413" y="0.0898438" width="29.7621" height="13.4409" rx="2.67447"/>
</mask>
<rect x="23.0413" y="0.0898438" width="29.7621" height="13.4409" rx="2.67447" stroke="black" stroke-width="8.91491" mask="url(#path-20-inside-2)"/>
</svg>
