<svg width="1922" height="499" viewBox="0 0 1922 499" fill="none" xmlns="http://www.w3.org/2000/svg">
<mask id="mask0" mask-type="alpha" maskUnits="userSpaceOnUse" x="1643" y="0" width="279" height="499">
<rect width="279" height="499" transform="matrix(1 -8.74228e-08 -8.74228e-08 -1 1643 499)" fill="#00002F"/>
</mask>
<g mask="url(#mask0)">
<mask id="path-2-inside-1" fill="white">
<path d="M1863.03 461.406C1838.18 435.732 1819.32 404.879 1807.8 371.058C1796.27 337.238 1792.38 301.288 1796.38 265.784L1811.1 267.444C1807.33 300.777 1810.99 334.53 1821.81 366.283C1832.63 398.036 1850.34 427.003 1873.67 451.108L1863.03 461.406Z"/>
</mask>
<path d="M1863.03 461.406C1838.18 435.732 1819.32 404.879 1807.8 371.058C1796.27 337.238 1792.38 301.288 1796.38 265.784L1811.1 267.444C1807.33 300.777 1810.99 334.53 1821.81 366.283C1832.63 398.036 1850.34 427.003 1873.67 451.108L1863.03 461.406Z" stroke="#5503E5" stroke-width="28" mask="url(#path-2-inside-1)"/>
<mask id="path-3-inside-2" fill="white">
<path d="M1737.87 330.388C1725 271.968 1733.02 210.884 1760.53 157.762C1788.03 104.64 1833.29 62.8413 1888.43 39.6369L1898.61 63.8156C1849.12 84.6399 1808.51 122.151 1783.82 169.824C1759.13 217.497 1751.94 272.316 1763.49 324.745L1737.87 330.388Z"/>
</mask>
<path d="M1737.87 330.388C1725 271.968 1733.02 210.884 1760.53 157.762C1788.03 104.64 1833.29 62.8413 1888.43 39.6369L1898.61 63.8156C1849.12 84.6399 1808.51 122.151 1783.82 169.824C1759.13 217.497 1751.94 272.316 1763.49 324.745L1737.87 330.388Z" stroke="#F8006B" stroke-width="28" mask="url(#path-3-inside-2)"/>
</g>
<mask id="mask1" mask-type="alpha" maskUnits="userSpaceOnUse" x="0" y="0" width="280" height="499">
<rect width="280" height="499" transform="matrix(-1 0 0 1 280 0)" fill="#00002F"/>
</mask>
<g mask="url(#mask1)">
<mask id="path-5-inside-3" fill="white">
<path d="M65.0087 161.123C99.0313 204.498 117.242 258.18 116.633 313.304C116.025 368.427 96.6332 421.694 61.6612 464.308L50.2149 454.914C83.0492 414.905 101.256 364.894 101.827 313.14C102.398 261.386 85.3007 210.985 53.3578 170.261L65.0087 161.123Z"/>
</mask>
<path d="M65.0087 161.123C99.0313 204.498 117.242 258.18 116.633 313.304C116.025 368.427 96.6332 421.694 61.6612 464.308L50.2149 454.914C83.0492 414.905 101.256 364.894 101.827 313.14C102.398 261.386 85.3007 210.985 53.3578 170.261L65.0087 161.123Z" stroke="#5503E5" stroke-width="28" mask="url(#path-5-inside-3)"/>
<mask id="path-6-inside-4" fill="white">
<path d="M-98.0248 30.5235C-62.0013 27.6216 -25.7719 32.3873 8.27569 44.5066C42.3232 56.6258 73.4156 75.8234 99.5036 100.834C125.592 125.845 146.083 156.1 159.626 189.607C173.17 223.113 179.458 259.11 178.077 295.223L151.864 294.221C153.103 261.811 147.46 229.507 135.305 199.437C123.151 169.368 104.762 142.215 81.3495 119.77C57.9374 97.3249 30.0341 80.0964 -0.521168 69.2202C-31.0764 58.344 -63.5899 54.0671 -95.9184 56.6714L-98.0248 30.5235Z"/>
</mask>
<path d="M-98.0248 30.5235C-62.0013 27.6216 -25.7719 32.3873 8.27569 44.5066C42.3232 56.6258 73.4156 75.8234 99.5036 100.834C125.592 125.845 146.083 156.1 159.626 189.607C173.17 223.113 179.458 259.11 178.077 295.223L151.864 294.221C153.103 261.811 147.46 229.507 135.305 199.437C123.151 169.368 104.762 142.215 81.3495 119.77C57.9374 97.3249 30.0341 80.0964 -0.521168 69.2202C-31.0764 58.344 -63.5899 54.0671 -95.9184 56.6714L-98.0248 30.5235Z" stroke="#F8006B" stroke-width="28" mask="url(#path-6-inside-4)"/>
</g>
</svg>
