<svg width="196" height="39" viewBox="0 0 196 39" fill="none" xmlns="http://www.w3.org/2000/svg">
<path d="M0 38.952H38.3763V0.575684H0V38.952ZM4.77252 5.34821H33.5384V34.1141H4.77252V5.34821Z" fill="#ED1C24"/>
<path d="M23.7974 32.4795V25.6802L17.8481 19.7309L23.7974 13.7816V6.98242L11.1143 19.7309L23.7974 32.4795Z" fill="#ED1C24"/>
<path d="M55.6356 22.9344C57.9238 22.9344 59.8198 22.346 61.3234 21.1692C62.8271 19.9924 63.6116 18.2926 63.6116 16.0698C63.6116 13.9123 62.8271 12.2779 61.4542 11.2972C60.1467 10.2512 59.1006 9.85896 57.4662 9.33594C55.9625 8.8783 54.9165 8.48604 54.3935 8.15915C53.8705 7.83227 53.609 7.37463 53.609 6.72086C53.609 5.4787 54.5896 4.69417 56.0933 4.69417C57.4662 4.69417 59.4275 5.4787 62.0426 6.98237C62.2387 6.72086 62.3041 5.93633 62.3041 4.56342C62.2387 3.1905 62.1733 2.3406 62.0426 1.88296C60.1467 0.771551 58.1854 0.248535 56.0933 0.248535C53.6743 0.248535 51.713 0.902305 50.3401 2.20985C48.9672 3.51739 48.248 5.21719 48.248 7.1785C48.248 9.13981 48.9672 10.7089 50.2747 11.7549C51.5823 12.8009 52.6937 13.2586 54.1974 13.7816C55.8318 14.3046 56.9432 14.7622 57.4008 15.0237C57.9238 15.3506 58.1854 15.8083 58.1854 16.3967C58.1854 17.6388 57.2701 18.4233 55.4395 18.4233C53.8051 18.4233 51.713 17.6388 49.0979 16.1351C48.9018 16.3967 48.8364 17.2466 48.8364 18.6195C48.9018 19.9924 48.9672 20.8423 49.0979 21.2346C50.9285 22.346 53.1513 22.9344 55.6356 22.9344Z" fill="white"/>
<path d="M83.4863 0.641113C82.3749 0.641113 81.3942 0.70649 80.6097 0.837244L75.7718 9.99003L70.9339 0.837244C70.1494 0.70649 69.2341 0.641113 68.1227 0.641113C67.0113 0.641113 66.0306 0.70649 65.2461 0.837244L73.0913 14.9587V22.4117C74.8565 22.7385 76.6217 22.7385 78.3869 22.4117V14.9587L86.2975 0.837244C85.513 0.70649 84.5977 0.641113 83.4863 0.641113Z" fill="white"/>
<path d="M108.788 0.834031C107.023 0.507146 105.258 0.507146 103.492 0.834031V13.5172L93.4244 0.834031C92.0514 0.572523 90.6785 0.572523 89.2402 0.834031V22.4084C91.0054 22.7353 92.7706 22.7353 94.5358 22.4084V9.79068L104.669 22.4084C106.042 22.67 107.415 22.67 108.853 22.4084V0.834031H108.788Z" fill="white"/>
<path d="M128.793 5.28255C129.054 3.84426 129.054 2.34059 128.793 0.836914H113.756V22.4113H128.793C129.054 20.9077 129.054 19.4694 128.793 17.9657H119.051V13.6508H127.681C127.943 12.2125 127.943 10.7088 127.681 9.20517H119.051V5.1518H128.793V5.28255Z" fill="white"/>
<path d="M145.726 14.3046C148.276 13.1278 149.845 10.8396 149.845 7.96301C149.845 5.80557 149.06 4.10576 147.557 2.79822C146.053 1.49068 144.092 0.836914 141.673 0.836914H133.043V22.4113C134.808 22.7382 136.573 22.7382 138.339 22.4113V15.1545H140.431L145.203 22.4767C145.988 22.6075 146.903 22.6728 148.08 22.6728C149.256 22.6728 150.237 22.6075 151.022 22.4767L145.726 14.3046ZM141.738 10.7088H138.404V5.28255H141.738C143.307 5.28255 144.484 6.26321 144.484 8.02839C144.484 9.72819 143.307 10.7088 141.738 10.7088Z" fill="white"/>
<path d="M165.469 4.75965C167.431 4.75965 169.523 5.4788 171.746 6.85172C171.942 6.59021 172.007 5.80569 172.007 4.49815C171.942 3.19061 171.876 2.34071 171.746 2.01382C169.98 0.90241 167.758 0.379395 165.142 0.379395C161.481 0.379395 158.474 1.4908 156.251 3.64825C154.028 5.80569 152.917 8.48614 152.917 11.6896C152.917 14.8931 154.028 17.5735 156.251 19.731C158.474 21.8884 161.416 22.9998 165.142 22.9998C166.581 22.9998 167.954 22.8037 169.327 22.4768C170.7 22.1499 171.746 21.7577 172.399 21.3V11.8857C170.634 11.5589 168.934 11.5589 167.169 11.8857V18.4234C166.515 18.5542 165.927 18.6196 165.404 18.6196C163.377 18.6196 161.743 17.9658 160.37 16.7236C158.997 15.4815 158.343 13.7817 158.343 11.6242C158.343 9.53218 158.997 7.89775 160.37 6.65559C161.808 5.41343 163.443 4.75965 165.469 4.75965Z" fill="white"/>
<path d="M188.089 14.9587L192.469 7.11344L196 0.837244C195.215 0.70649 194.3 0.641113 193.188 0.641113C192.077 0.641113 191.096 0.70649 190.312 0.837244L187.566 6.06741L186.128 8.74786L185.474 10.0554L180.636 0.902621C179.852 0.771867 178.936 0.706489 177.825 0.706489C176.713 0.706489 175.733 0.771867 174.948 0.902621L182.793 15.0241V22.4117C183.905 22.6078 185.016 22.6732 186.128 22.6078C186.781 22.6078 187.435 22.5424 188.089 22.4117V14.9587Z" fill="white"/>
<path d="M55.5046 33.264C56.4198 32.8064 56.9428 32.0218 56.9428 30.9758C56.9428 30.1913 56.616 29.5375 56.0276 29.0145C55.3738 28.4915 54.5893 28.23 53.5432 28.23H49.0322V38.6249H53.5432C55.7007 38.6249 57.139 37.5135 57.139 35.683C57.139 34.5715 56.4852 33.7216 55.5046 33.264ZM51.5819 30.3874H53.2164C54.0009 30.3874 54.3278 30.7143 54.3278 31.4335C54.3278 32.1526 53.8701 32.4795 53.2164 32.4795H51.5819V30.3874ZM53.3471 36.5329H51.5819V34.31H53.2817C54.1316 34.31 54.5239 34.7023 54.5239 35.4215C54.5239 36.206 54.1316 36.5329 53.3471 36.5329Z" fill="white"/>
<path d="M65.5731 28.2299V34.7022C65.5731 35.9444 64.9193 36.7943 63.7425 36.7943C62.5657 36.7943 61.912 35.9444 61.912 34.7022V28.2299C61.0621 28.0991 60.1468 28.0991 59.2969 28.2299V34.31C59.2969 37.3827 60.8005 38.9517 63.7425 38.9517C66.6845 38.9517 68.1882 37.3827 68.1882 34.31V28.2299C67.2729 28.0991 66.423 28.0991 65.5731 28.2299Z" fill="white"/>
<path d="M76.8181 33.3291C76.1644 32.8061 75.7067 32.61 74.9222 32.3485C74.2031 32.1523 73.68 31.9562 73.4185 31.7601C73.157 31.6293 73.0263 31.3678 73.0263 31.0409C73.0263 30.4525 73.4839 30.0603 74.2031 30.0603C74.8568 30.0603 75.8375 30.4525 77.0796 31.1717C77.145 31.0409 77.2104 30.6487 77.2104 29.9949C77.2104 29.3411 77.145 28.9489 77.0796 28.6874C76.1644 28.1643 75.1837 27.9028 74.2031 27.9028C73.0263 27.9028 72.111 28.2297 71.4572 28.8835C70.8034 29.5373 70.4766 30.3218 70.4766 31.3024C70.4766 32.2177 70.8034 33.0022 71.4572 33.5253C72.111 34.0483 72.634 34.2444 73.3531 34.5059C74.1377 34.7674 74.6607 34.9635 74.9222 35.0943C75.1837 35.2251 75.3145 35.4866 75.3145 35.7481C75.3145 36.3365 74.8568 36.7287 74.0069 36.7287C73.2224 36.7287 72.2417 36.3365 70.9342 35.6173C70.8688 35.7481 70.8034 36.1403 70.8034 36.7941C70.8034 37.4479 70.8688 37.8401 70.9342 38.0363C71.7841 38.5593 72.8955 38.8208 74.0723 38.8208C75.1837 38.8208 76.099 38.5593 76.8181 37.9709C77.5373 37.3825 77.9295 36.598 77.9295 35.4866C77.8642 34.5713 77.4719 33.7868 76.8181 33.3291Z" fill="white"/>
<path d="M80.1523 28.2299V38.6248C81.0022 38.7556 81.8521 38.7556 82.702 38.6248V28.2299C81.9175 28.0991 81.0022 28.0991 80.1523 28.2299Z" fill="white"/>
<path d="M92.3128 28.2299V34.31L87.4749 28.2299C86.8212 28.0991 86.1674 28.0991 85.4482 28.2299V38.6248C86.2981 38.7556 87.1481 38.7556 87.998 38.6248V32.5448L92.8358 38.6248C93.4896 38.7556 94.1434 38.7556 94.8625 38.6248V28.2299C94.078 28.0991 93.1627 28.0991 92.3128 28.2299Z" fill="white"/>
<path d="M104.93 30.3874C105.06 29.6683 105.06 28.9491 104.93 28.23H97.6729V38.6249H104.93C105.06 37.9058 105.06 37.1866 104.93 36.4675H100.223V34.3754H104.407C104.537 33.6563 104.537 32.9371 104.407 32.218H100.223V30.2567H104.93V30.3874Z" fill="white"/>
<path d="M113.298 33.3291C112.644 32.8061 112.186 32.61 111.402 32.3485C110.683 32.1523 110.16 31.9562 109.898 31.7601C109.637 31.6293 109.506 31.3678 109.506 31.0409C109.506 30.4525 109.963 30.0603 110.683 30.0603C111.336 30.0603 112.317 30.4525 113.559 31.1717C113.625 31.0409 113.69 30.6487 113.69 29.9949C113.69 29.3411 113.625 28.9489 113.559 28.6874C112.644 28.1643 111.663 27.9028 110.683 27.9028C109.506 27.9028 108.59 28.2297 107.937 28.8835C107.283 29.5373 106.956 30.3218 106.956 31.3024C106.956 32.2177 107.283 33.0022 107.937 33.5253C108.59 34.0483 109.113 34.2444 109.833 34.5059C110.617 34.7674 111.14 34.9635 111.402 35.0943C111.663 35.2251 111.794 35.4866 111.794 35.7481C111.794 36.3365 111.336 36.7287 110.486 36.7287C109.702 36.7287 108.721 36.3365 107.414 35.6173C107.348 35.7481 107.283 36.1403 107.283 36.7941C107.283 37.4479 107.348 37.8401 107.414 38.0363C108.264 38.5593 109.375 38.8208 110.552 38.8208C111.663 38.8208 112.578 38.5593 113.298 37.9709C114.017 37.3825 114.409 36.598 114.409 35.4866C114.278 34.5713 113.951 33.7868 113.298 33.3291Z" fill="white"/>
<path d="M122.516 33.3291C121.863 32.8061 121.405 32.61 120.62 32.3485C119.901 32.1523 119.378 31.9562 119.117 31.7601C118.855 31.6293 118.725 31.3678 118.725 31.0409C118.725 30.4525 119.182 30.0603 119.901 30.0603C120.555 30.0603 121.536 30.4525 122.778 31.1717C122.843 31.0409 122.909 30.6487 122.909 29.9949C122.909 29.3411 122.843 28.9489 122.778 28.6874C121.863 28.1643 120.882 27.9028 119.901 27.9028C118.725 27.9028 117.809 28.2297 117.155 28.8835C116.502 29.5373 116.175 30.3218 116.175 31.3024C116.175 32.2177 116.502 33.0022 117.155 33.5253C117.809 34.0483 118.332 34.2444 119.051 34.5059C119.836 34.7674 120.359 34.9635 120.62 35.0943C120.882 35.2251 121.013 35.4866 121.013 35.7481C121.013 36.3365 120.555 36.7287 119.705 36.7287C118.921 36.7287 117.94 36.3365 116.632 35.6173C116.567 35.7481 116.502 36.1403 116.502 36.7941C116.502 37.4479 116.567 37.8401 116.632 38.0363C117.482 38.5593 118.594 38.8208 119.771 38.8208C120.882 38.8208 121.797 38.5593 122.516 37.9709C123.236 37.3825 123.628 36.598 123.628 35.4866C123.562 34.5713 123.17 33.7868 122.516 33.3291Z" fill="white"/>
<path d="M136.05 33.3291C135.396 32.8061 134.938 32.61 134.154 32.3485C133.435 32.1523 132.911 31.9562 132.65 31.7601C132.388 31.6293 132.258 31.3678 132.258 31.0409C132.258 30.4525 132.715 30.0603 133.435 30.0603C134.088 30.0603 135.069 30.4525 136.311 31.1717C136.376 31.0409 136.442 30.6487 136.442 29.9949C136.442 29.3411 136.376 28.9489 136.311 28.6874C135.396 28.1643 134.415 27.9028 133.435 27.9028C132.258 27.9028 131.342 28.2297 130.689 28.8835C130.035 29.5373 129.708 30.3218 129.708 31.3024C129.708 32.2177 130.035 33.0022 130.689 33.5253C131.342 34.0483 131.865 34.2444 132.585 34.5059C133.369 34.7674 133.892 34.9635 134.154 35.0943C134.415 35.2251 134.546 35.4866 134.546 35.7481C134.546 36.3365 134.088 36.7287 133.238 36.7287C132.454 36.7287 131.473 36.3365 130.166 35.6173C130.1 35.7481 130.035 36.1403 130.035 36.7941C130.035 37.4479 130.1 37.8401 130.166 38.0363C131.016 38.5593 132.127 38.8208 133.304 38.8208C134.415 38.8208 135.33 38.5593 136.05 37.9709C136.769 37.3825 137.161 36.598 137.161 35.4866C137.03 34.5713 136.703 33.7868 136.05 33.3291Z" fill="white"/>
<path d="M144.745 30.1258C145.66 30.1258 146.706 30.4526 147.752 31.1064C147.818 30.9757 147.883 30.5834 147.883 29.995C147.883 29.3412 147.818 28.949 147.752 28.8182C146.902 28.2952 145.856 28.0337 144.549 28.0337C142.784 28.0337 141.345 28.5567 140.234 29.6027C139.188 30.6488 138.6 31.9563 138.6 33.46C138.6 35.029 139.123 36.2712 140.234 37.3172C141.28 38.3633 142.718 38.8863 144.549 38.8863C145.791 38.8863 146.837 38.6248 147.752 38.1018C147.818 37.9056 147.818 37.5134 147.883 36.925C147.883 36.2712 147.818 35.9443 147.752 35.8136C146.706 36.4673 145.66 36.7942 144.745 36.7942C143.764 36.7942 142.98 36.4673 142.326 35.8789C141.672 35.2905 141.345 34.4406 141.345 33.46C141.345 32.4793 141.672 31.6294 142.326 31.041C142.98 30.4526 143.764 30.1258 144.745 30.1258Z" fill="white"/>
<path d="M157.363 28.2299V32.3487H153.048V28.2299C152.198 28.0991 151.348 28.0991 150.498 28.2299V38.6248C151.348 38.7556 152.198 38.7556 153.048 38.6248V34.4407H157.363V38.6248C158.213 38.7556 159.062 38.7556 159.912 38.6248V28.2299C159.128 28.0991 158.213 28.0991 157.363 28.2299Z" fill="white"/>
<path d="M167.757 28.0337C166.123 28.0337 164.815 28.5567 163.769 29.6027C162.723 30.6488 162.2 31.9563 162.2 33.46C162.2 34.9637 162.723 36.2712 163.769 37.3172C164.815 38.3633 166.123 38.8863 167.757 38.8863C169.392 38.8863 170.699 38.3633 171.745 37.3172C172.791 36.2712 173.314 34.9637 173.314 33.46C173.314 31.9563 172.791 30.6488 171.745 29.6027C170.699 28.5567 169.392 28.0337 167.757 28.0337ZM169.849 35.8789C169.261 36.4673 168.607 36.7942 167.757 36.7942C166.907 36.7942 166.254 36.4673 165.665 35.8789C165.077 35.2905 164.815 34.4406 164.815 33.46C164.815 32.4793 165.077 31.6294 165.665 31.041C166.254 30.4526 166.907 30.1258 167.757 30.1258C168.607 30.1258 169.261 30.4526 169.849 31.041C170.438 31.6294 170.699 32.414 170.699 33.46C170.699 34.506 170.372 35.2905 169.849 35.8789Z" fill="white"/>
<path d="M180.572 28.0337C178.937 28.0337 177.63 28.5567 176.584 29.6027C175.538 30.6488 175.015 31.9563 175.015 33.46C175.015 34.9637 175.538 36.2712 176.584 37.3172C177.63 38.3633 178.937 38.8863 180.572 38.8863C182.206 38.8863 183.514 38.3633 184.56 37.3172C185.606 36.2712 186.129 34.9637 186.129 33.46C186.129 31.9563 185.606 30.6488 184.56 29.6027C183.579 28.5567 182.206 28.0337 180.572 28.0337ZM182.664 35.8789C182.075 36.4673 181.422 36.7942 180.572 36.7942C179.722 36.7942 179.068 36.4673 178.48 35.8789C177.891 35.2905 177.63 34.4406 177.63 33.46C177.63 32.4793 177.891 31.6294 178.48 31.041C179.068 30.4526 179.722 30.1258 180.572 30.1258C181.422 30.1258 182.075 30.4526 182.664 31.041C183.252 31.6294 183.514 32.414 183.514 33.46C183.514 34.506 183.252 35.2905 182.664 35.8789Z" fill="white"/>
<path d="M190.967 36.5328V28.2299C190.117 28.0991 189.267 28.0991 188.417 28.2299V38.6248H195.282C195.412 37.9057 195.412 37.1866 195.282 36.4674H190.967V36.5328Z" fill="white"/>
</svg>
