<svg width="163" height="33" viewBox="0 0 163 33" fill="none" xmlns="http://www.w3.org/2000/svg">
<path d="M113.881 6.56122H116.853V7.37651H114.859V13.2H113.92V6.56122H113.881Z" fill="black"/>
<path d="M116.619 10.793C116.619 9.04591 117.401 8.30826 118.535 8.30826C119.63 8.30826 120.334 9.04591 120.334 10.793V11.0647H117.557C117.596 12.1518 117.948 12.54 118.809 12.54C119.434 12.54 119.865 12.3071 120.06 12.1906V13.0059C119.786 13.1224 119.356 13.2777 118.73 13.2777C117.401 13.2777 116.619 12.54 116.619 10.793ZM117.557 10.3271H119.434C119.434 9.35649 119.043 9.04591 118.535 9.04591C118.027 9.04591 117.635 9.35649 117.557 10.3271Z" fill="black"/>
<path d="M121.312 8.38589H122.211V10.3659H124.049V8.38589H124.949V13.2H124.049V11.0647H122.211V13.2H121.312V8.38589Z" fill="black"/>
<path d="M125.887 10.793C125.887 9.04591 126.669 8.30826 127.803 8.30826C128.898 8.30826 129.602 9.04591 129.602 10.793V11.0647H126.825C126.864 12.1518 127.216 12.54 128.077 12.54C128.702 12.54 129.133 12.3071 129.328 12.1906V13.0059C129.054 13.1224 128.624 13.2777 127.999 13.2777C126.669 13.2777 125.887 12.54 125.887 10.793ZM126.786 10.3271H128.663C128.663 9.35649 128.272 9.04591 127.764 9.04591C127.295 9.04591 126.864 9.35649 126.786 10.3271Z" fill="black"/>
<path d="M130.541 8.38591H131.401V9.0459C131.714 8.58002 132.144 8.30826 132.653 8.30826C133.709 8.30826 134.413 9.00708 134.413 10.793C134.413 12.54 133.631 13.2777 132.614 13.2777C132.105 13.2777 131.675 13.0059 131.44 12.5788V15.18H130.541V8.38591ZM133.513 10.793C133.513 9.47296 133.083 9.0459 132.535 9.0459C131.988 9.0459 131.44 9.55061 131.44 10.793C131.44 12.0353 131.949 12.54 132.457 12.54C133.044 12.54 133.513 12.0741 133.513 10.793Z" fill="black"/>
<path d="M135.117 11.88C135.117 10.793 135.782 10.2106 137.58 10.2106H137.815V10.0165C137.815 9.27884 137.58 9.0459 137.033 9.0459C136.446 9.0459 136.133 9.20119 135.547 9.55061V8.73531C135.86 8.58002 136.368 8.34708 137.033 8.34708C138.206 8.34708 138.715 8.81296 138.715 10.0165V13.2H137.854V12.54C137.58 12.9671 137.189 13.2777 136.525 13.2777C135.664 13.2777 135.117 12.773 135.117 11.88ZM137.854 11.2977V10.8706H137.62C136.485 10.8706 136.094 11.2588 136.094 11.88C136.094 12.3071 136.329 12.54 136.759 12.54C137.385 12.54 137.854 12.0741 137.854 11.2977Z" fill="black"/>
<path d="M139.34 13.2388V12.5012C139.418 12.54 139.535 12.54 139.614 12.54C139.966 12.54 140.161 12.3459 140.161 9.90001V8.38589H143.172V13.2H142.273V9.08472H141.021V9.86119C141.021 12.8506 140.63 13.2388 139.848 13.2388C139.614 13.2777 139.496 13.2777 139.34 13.2388Z" fill="black"/>
<path d="M144.307 8.38589H145.206V10.1718H145.91C147.083 10.1718 147.631 10.7541 147.631 11.6859C147.631 12.6177 147.044 13.2 145.91 13.2H144.307V8.38589ZM145.91 10.9094H145.206V12.5012H145.91C146.418 12.5012 146.692 12.2294 146.692 11.7247C146.692 11.1812 146.379 10.9094 145.91 10.9094Z" fill="black"/>
<path d="M148.413 8.38589H149.313V10.3659H151.151V8.38589H152.05V13.2H151.151V11.0647H149.313V13.2H148.413V8.38589Z" fill="black"/>
<path d="M153.184 8.38589H154.084V10.1718H154.787C155.961 10.1718 156.508 10.7541 156.508 11.6859C156.508 12.6177 155.922 13.2 154.787 13.2H153.184V8.38589ZM154.787 10.9094H154.084V12.5012H154.787C155.296 12.5012 155.57 12.2294 155.57 11.7247C155.57 11.1812 155.257 10.9094 154.787 10.9094ZM157.251 8.38589H158.151V13.2H157.251V8.38589Z" fill="black"/>
<path d="M159.285 8.38591H160.184V12.0741L161.748 8.38591H163V13.2H162.1V9.51179L160.536 13.2H159.285V8.38591ZM159.832 6.52238L160.575 6.44473C160.614 6.87179 160.81 6.98826 161.123 6.98826C161.475 6.98826 161.631 6.87179 161.67 6.44473L162.413 6.52238C162.374 7.3765 161.709 7.60944 161.123 7.60944C160.536 7.64826 159.91 7.41532 159.832 6.52238Z" fill="black"/>
<path d="M113.686 19.4118H117.323V24.2259H116.423V20.1106H114.585V24.2259H113.686V19.4118Z" fill="black"/>
<path d="M118.183 22.9059C118.183 21.8189 118.848 21.2365 120.647 21.2365H120.882V21.0424C120.882 20.3047 120.647 20.0718 120.099 20.0718C119.513 20.0718 119.2 20.2271 118.613 20.5765V19.7612C118.926 19.6059 119.435 19.373 120.099 19.373C121.273 19.373 121.781 19.8389 121.781 21.0424V24.2647H120.921V23.6047C120.647 24.0318 120.256 24.3424 119.591 24.3424C118.691 24.3036 118.183 23.7989 118.183 22.9059ZM120.882 22.3236V21.8965H120.647C119.513 21.8965 119.122 22.2847 119.122 22.9059C119.122 23.333 119.356 23.5659 119.787 23.5659C120.412 23.5659 120.882 23.1 120.882 22.3236Z" fill="black"/>
<path d="M122.954 19.4118H123.814V20.0718C124.127 19.6059 124.558 19.3341 125.066 19.3341C126.122 19.3341 126.826 20.033 126.826 21.8188C126.826 23.5659 126.044 24.3036 125.027 24.3036C124.518 24.3036 124.088 24.0318 123.854 23.6047V26.2059H122.954V19.4118ZM125.887 21.8188C125.887 20.4988 125.457 20.0718 124.909 20.0718C124.362 20.0718 123.814 20.5765 123.814 21.8188C123.814 23.0612 124.323 23.5659 124.831 23.5659C125.418 23.5659 125.887 23.1 125.887 21.8188Z" fill="black"/>
<path d="M128.507 20.1106H127.256V19.4118H130.697V20.1494H129.446V24.2647H128.546V20.1106H128.507Z" fill="black"/>
<path d="M131.362 19.4118H132.261V21.353H134.099V19.4118H134.999V24.2259H134.099V22.0906H132.261V24.2259H131.362V19.4118Z" fill="black"/>
<path d="M135.938 21.8189C135.938 20.0718 136.72 19.3341 137.854 19.3341C138.949 19.3341 139.653 20.0718 139.653 21.8189V22.0906H136.877C136.916 23.1777 137.268 23.5659 138.128 23.5659C138.754 23.5659 139.184 23.333 139.379 23.2165V24.0318C139.106 24.1483 138.676 24.3036 138.05 24.3036C136.72 24.3036 135.938 23.5659 135.938 21.8189ZM136.564 17.6259H137.502V18.5189H136.564V17.6259ZM136.877 21.353H138.754C138.754 20.3824 138.363 20.0718 137.854 20.0718C137.346 20.0718 136.955 20.3824 136.877 21.353ZM138.089 17.6259H139.027V18.5189H138.089V17.6259Z" fill="black"/>
<path d="M140.631 19.4118H141.491V20.0718C141.804 19.6059 142.234 19.3341 142.743 19.3341C143.799 19.3341 144.503 20.033 144.503 21.8188C144.503 23.5659 143.72 24.3036 142.704 24.3036C142.195 24.3036 141.765 24.0318 141.53 23.6047V26.2059H140.631V19.4118ZM143.603 21.8188C143.603 20.4988 143.173 20.0718 142.625 20.0718C142.078 20.0718 141.53 20.5765 141.53 21.8188C141.53 23.0612 142.039 23.5659 142.547 23.5659C143.095 23.5659 143.603 23.1 143.603 21.8188Z" fill="black"/>
<path d="M27.2188 4.38706H4.84933L6.45274 0H28.8222L27.2188 4.38706ZM26.3976 6.6H4.02807L2.42466 10.9871H24.7941L26.3976 6.6ZM23.9729 13.2H1.60341L0 17.6259H22.3695L23.9729 13.2Z" fill="black"/>
<path d="M80.5221 28.5741H84.5111C86.0363 28.5741 86.9357 28.2247 87.6006 27.3706C87.9134 26.9435 88.3827 26.2447 88.3827 24.8471C88.3827 23.4882 87.9134 22.5177 87.014 21.8188C86.4665 21.3918 85.7234 21.1977 84.472 21.1977H80.5221V28.5741ZM75.2035 33V6.60001H92.5281L91.0029 11.0259H80.5221V16.8882H84.7848C88.2263 16.8882 90.0252 17.7035 91.2767 18.7518C92.2544 19.5671 93.8969 21.3918 93.8969 25.0024C93.8969 28.5741 92.1762 30.5153 90.7683 31.5247C89.1258 32.6506 87.3659 33 83.8072 33H75.2035ZM59.8734 33V11.0259H52.1692V6.60001H73.5219L71.9967 11.0259H65.192V33H59.8734ZM38.5598 17.16H41.5711C42.5096 17.16 42.9398 17.16 43.4091 17.0047C44.6606 16.6553 45.4427 15.5294 45.4427 14.0153C45.4427 12.2294 44.6214 11.4529 43.4091 11.1035C42.9007 10.9482 42.3923 10.9094 41.3755 10.9094H38.5598V17.16ZM38.5989 21.7412V28.6906H42.275C43.37 28.6906 44.3868 28.6129 45.1298 27.9141C45.8729 27.2153 46.1857 26.3612 46.1857 25.2353C46.1857 24.3812 45.9511 23.5271 45.4818 22.9447C44.6997 21.9741 43.722 21.7412 42.0795 21.7412H38.5989ZM47.1243 18.9459V19.0235C48.1411 19.3729 49.1188 20.0329 49.6272 20.4212C51.1915 21.7024 51.8954 23.4106 51.8954 25.5847C51.8954 29.1953 49.9792 31.7965 46.7724 32.6118C45.7947 32.8835 44.7779 32.9612 42.9007 32.9612H33.2803V6.60001H41.8057C43.5655 6.60001 44.7388 6.67765 45.7947 6.94942C48.8842 7.76471 50.9178 9.86118 50.9178 13.2C50.9178 14.9859 50.292 16.5 49.197 17.5094C48.7277 17.9753 48.102 18.5188 47.1243 18.9459Z" fill="black"/>
</svg>
