<svg width="63" height="22" viewBox="0 0 63 22" fill="none" xmlns="http://www.w3.org/2000/svg">
<g clip-path="url(#clip0)">
<path d="M18.0141 2.92471H3.20941L4.27059 0H19.0753L18.0141 2.92471ZM17.4706 4.4H2.66588L1.60471 7.32471H16.4094L17.4706 4.4ZM15.8659 8.8H1.06118L0 11.7506H14.8047L15.8659 8.8Z" fill="#009FE3"/>
<path d="M53.2913 19.0493H55.9313C56.9407 19.0493 57.536 18.8164 57.976 18.247C58.183 17.9623 58.4936 17.4964 58.4936 16.5646C58.4936 15.6587 58.183 15.0117 57.5878 14.5458C57.2254 14.2611 56.7336 14.1317 55.9054 14.1317H53.2913V19.0493ZM49.7713 21.9999V4.3999H61.2372L60.2278 7.35049H53.2913V11.2587H56.1125C58.3901 11.2587 59.5807 11.8023 60.4089 12.5011C61.056 13.0446 62.143 14.2611 62.143 16.6681C62.143 19.0493 61.0042 20.3434 60.0725 21.0164C58.9854 21.767 57.8207 21.9999 55.4654 21.9999H49.7713ZM39.6254 21.9999V7.35049H34.5266V4.3999H48.6583L47.6489 7.35049H43.1454V21.9999H39.6254ZM25.5195 11.4399H27.5125C28.1336 11.4399 28.4183 11.4399 28.7289 11.3364C29.5572 11.1034 30.0748 10.3528 30.0748 9.34343C30.0748 8.15284 29.5313 7.6352 28.7289 7.40226C28.3925 7.29873 28.056 7.27284 27.383 7.27284H25.5195V11.4399ZM25.5454 14.494V19.127H27.9783C28.703 19.127 29.376 19.0752 29.8677 18.6093C30.3595 18.1434 30.5666 17.574 30.5666 16.8234C30.5666 16.254 30.4113 15.6846 30.1007 15.2964C29.583 14.6493 28.936 14.494 27.8489 14.494H25.5454ZM31.1877 12.6305V12.6823C31.8607 12.9152 32.5077 13.3552 32.8442 13.614C33.8795 14.4681 34.3454 15.607 34.3454 17.0564C34.3454 19.4634 33.0772 21.1975 30.9548 21.7411C30.3077 21.9223 29.6348 21.974 28.3925 21.974H22.0254V4.3999H27.6677C28.8325 4.3999 29.6089 4.45167 30.3077 4.63284C32.3525 5.17637 33.6983 6.57402 33.6983 8.7999C33.6983 9.99049 33.2842 10.9999 32.5595 11.6728C32.2489 11.9834 31.8348 12.3458 31.1877 12.6305Z" fill="#123274"/>
</g>
<defs>
<clipPath id="clip0">
<rect width="62.1176" height="22" fill="white"/>
</clipPath>
</defs>
</svg>
