<svg width="64" height="64" viewBox="0 0 64 64" fill="none" xmlns="http://www.w3.org/2000/svg">
<path d="M32.0113 0.00683628C19.2073 0.00497 7.63534 7.63711 2.59572 19.4076L2.19687 19.5398L2.35151 20.0037C-4.28391 36.3691 3.60365 55.015 19.969 61.6504C23.7913 63.2002 27.8773 63.9958 32.0019 63.9935C49.6712 63.9962 63.9973 49.6743 64 32.005C64.0027 14.3356 49.6808 0.00936908 32.0113 0.00683628ZM57.1065 48.1307L55.4636 46.4889V42.6646C55.4655 42.4996 55.429 42.3364 55.357 42.1879L51.1979 33.8814V29.8673C51.1979 29.5108 51.0199 29.1778 50.7233 28.98L47.524 26.8471C47.2732 26.6797 46.9633 26.6262 46.6708 26.6999L42.7527 27.6789L36.1717 24.855L35.2663 18.5118L37.7756 16.0035H43.1622L44.9752 18.7283C45.1389 18.9733 45.3968 19.1398 45.6875 19.1879L52.0862 20.2543C52.2576 20.2831 52.4333 20.2691 52.5981 20.2138L58.4913 18.2494C63.4341 27.7348 62.9054 39.1432 57.1065 48.1307ZM52.708 10.5156L50.9739 11.6716L46.1397 10.7043L43.0033 9.66029C42.8113 9.5951 42.6047 9.58684 42.4082 9.63683L38.4432 10.6276L36.7049 10.0485L37.9931 7.47195H41.5999C41.7653 7.47208 41.9285 7.43382 42.0766 7.35997L45.7665 5.51502C48.3075 6.84141 50.6452 8.52533 52.708 10.5156ZM20.3211 4.52109L22.8806 6.22741C23.0064 6.31112 23.1485 6.36711 23.2975 6.39164L28.4655 7.25332L27.9611 8.76234L25.2683 9.66136C25.0272 9.74161 24.8226 9.90531 24.6914 10.1231L21.6286 15.2271L16.7091 18.179L9.45723 19.2146C8.9316 19.2888 8.54075 19.7385 8.54009 20.2693V23.4686C8.54009 23.7515 8.6526 24.0226 8.85255 24.2226L10.673 26.043V27.8752L6.23657 24.9168L4.6273 20.089C7.68906 13.0932 13.3008 7.52633 20.3211 4.52109ZM17.2849 39.4866L12.4646 38.5215L10.673 34.9478V32.4417L14.6465 28.4681L16.1172 31.4104C16.2978 31.7719 16.6675 32.0003 17.0716 32.0002H23.9331L26.8221 36.8152C27.0149 37.136 27.3618 37.3323 27.7361 37.3324H30.7008L29.9543 41.0724L25.9167 45.11C25.7164 45.3098 25.6036 45.5809 25.6032 45.8639V48.5301L21.764 51.4095C21.4955 51.6109 21.3374 51.9269 21.3374 52.2626V56.1146L20.0108 55.6752L18.1381 50.9914V40.5317C18.1382 40.0249 17.7815 39.5879 17.2849 39.4866ZM14.0792 55.8807C4.02409 48.337 -0.228221 35.3029 3.44355 23.2809L4.32976 25.9385C4.40441 26.1634 4.55185 26.3571 4.74888 26.4888L10.0651 30.0326L8.85255 31.2462C8.6526 31.4461 8.54009 31.7173 8.54009 32.0002V35.1995C8.53995 35.3649 8.57821 35.5281 8.65206 35.6762L10.785 39.942C10.9327 40.2366 11.2082 40.4464 11.5315 40.5104L16.0105 41.4051V51.1962C16.0104 51.3316 16.0361 51.466 16.0862 51.5918L18.2191 56.924C18.3359 57.2153 18.5751 57.4405 18.8729 57.5394L22.0722 58.6058C22.1791 58.6421 22.2911 58.6607 22.4039 58.6613C22.9928 58.6613 23.4703 58.1838 23.4703 57.5948V52.7958L27.3095 49.9164C27.578 49.715 27.7361 49.3989 27.7361 49.0633V46.3055L31.6894 42.3521C31.838 42.2032 31.9393 42.0135 31.9805 41.8072L33.047 36.475C33.1624 35.8974 32.7878 35.3356 32.2102 35.2202C32.1416 35.2064 32.0718 35.1995 32.0019 35.1995H28.3397L25.4507 30.3845C25.2579 30.0636 24.9111 29.8674 24.5368 29.8673H17.7307L15.8986 26.1912C15.7451 25.8844 15.4534 25.67 15.1147 25.6154C14.7761 25.5568 14.4305 25.6686 14.1901 25.914L12.8059 27.2929V25.6015C12.8059 25.3186 12.6934 25.0475 12.4934 24.8475L10.673 23.0271V21.1939L17.2231 20.2586C17.3637 20.2382 17.499 20.19 17.6209 20.1168L22.9531 16.9174C23.1027 16.8276 23.228 16.7023 23.3178 16.5527L26.3145 11.5586L29.1395 10.6158C29.4585 10.5112 29.7089 10.261 29.8135 9.94183L30.88 6.7425C31.0647 6.18328 30.7612 5.58007 30.202 5.39531C30.1504 5.37825 30.0975 5.36519 30.0439 5.35612L23.8713 4.327L22.7867 3.60395C29.4977 1.41961 36.7663 1.68995 43.2966 4.36646L41.3482 5.33906H37.3341C36.9279 5.33679 36.5559 5.56554 36.3743 5.9288L34.2414 10.1946C33.9787 10.7217 34.1929 11.3621 34.72 11.6248C34.7649 11.6472 34.8113 11.6664 34.8589 11.6823L38.0582 12.7487C38.2502 12.8139 38.4568 12.8222 38.6533 12.7722L42.6183 11.7814L45.5233 12.7487C45.5649 12.7636 45.6077 12.7751 45.6513 12.7828L50.9835 13.8493C51.2608 13.9058 51.5493 13.849 51.7844 13.6915L54.2116 12.0726C55.4062 13.4031 56.4797 14.8375 57.4195 16.3586L52.1726 18.1076L46.4916 17.1606L44.6147 14.3452C44.4179 14.0502 44.0873 13.8723 43.7328 13.8706H37.3341C37.0512 13.8706 36.7801 13.9831 36.5801 14.1831L33.3808 17.3824C33.1432 17.6198 33.0314 17.9554 33.079 18.2878L34.1454 25.7529C34.1991 26.1221 34.4418 26.4363 34.7853 26.5816L42.2504 29.7809C42.4642 29.8735 42.7028 29.8926 42.9287 29.8353L46.7369 28.8829L49.065 30.4378V34.133C49.0631 34.2981 49.0996 34.4613 49.1716 34.6098L53.3308 42.9163V46.9304C53.3308 47.2133 53.4433 47.4844 53.6432 47.6844L55.8742 49.9164C45.9799 63.1047 27.2675 65.7751 14.0792 55.8807Z" fill="#F8006B"/>
</svg>
