<svg width="619" height="54" viewBox="0 0 619 54" fill="none" xmlns="http://www.w3.org/2000/svg">
<path d="M86.5998 52.7248C81.4395 52.7248 77.1634 51.6293 73.7717 49.4384C70.3794 47.2474 68.0157 44.271 66.6589 40.5505L77.3284 34.3083C79.1371 38.649 82.3444 40.8192 86.9492 40.8192C90.7521 40.8192 92.6639 39.7237 92.6639 37.5328C92.6639 36.0859 91.5746 34.9078 89.3953 34.0397C88.4703 33.6676 86.4148 33.0269 83.2693 32.1381C78.8083 30.8359 75.2723 28.9963 72.6818 26.64C70.0712 24.2837 68.7763 20.9973 68.7763 16.8014C68.7763 12.2748 70.4 8.59562 73.6279 5.80524C76.8553 2.99423 80.8845 1.60938 85.7155 1.60938C89.8065 1.60938 93.4245 2.56017 96.5906 4.48243C99.7567 6.4047 102.162 9.1744 103.848 12.8122L93.4044 18.9717C91.8626 15.3338 89.334 13.515 85.798 13.515C84.3175 13.515 83.1869 13.825 82.4263 14.4244C81.6657 15.0238 81.2751 15.8093 81.2751 16.7394C81.2751 17.8142 81.8507 18.7236 82.9813 19.4677C84.1124 20.2118 86.3323 21.0799 89.6422 22.0514C92.0064 22.7541 93.9182 23.4156 95.3569 24.015C96.7962 24.6144 98.3792 25.5032 100.085 26.64C101.792 27.7769 103.087 29.265 103.909 31.0633C104.752 32.8615 105.163 34.9698 105.163 37.4088C105.163 42.2247 103.457 45.9866 100.085 48.6943C96.6524 51.3813 92.1708 52.7248 86.5998 52.7248Z" fill="#141825"/>
<path d="M149.095 2.64258L132.649 32.8406V51.6911H120.17V32.9853L103.724 2.64258H117.724L126.358 20.7903L135.074 2.64258H149.095Z" fill="#141825"/>
<path d="M179.828 2.64258H192.224V51.6911H182.603L165.396 27.0324V51.6911H152.918V2.64258H162.621L179.828 27.3012V2.64258Z" fill="#141825"/>
<path d="M212.432 39.9095H231.324V51.6704H199.974V2.64258H230.975V14.3415H212.432V21.1417H229.227V32.6959H212.432V39.9095Z" fill="#141825"/>
<path d="M262.675 51.6704L254.164 35.8377H249.703V51.6704H237.224V2.64258H256.733C261.709 2.64258 265.882 4.23412 269.233 7.43786C272.604 10.6416 274.29 14.6928 274.29 19.5915C274.29 22.5266 273.55 25.2342 272.07 27.6732C270.59 30.1329 268.554 32.0758 266.005 33.5226L276.037 51.6704H262.675ZM249.723 14.1968V25.1929H256.631C258.173 25.2342 259.426 24.7588 260.393 23.7254C261.359 22.6919 261.853 21.369 261.853 19.7362C261.853 18.1033 261.359 16.7805 260.393 15.747C259.426 14.7135 258.173 14.1968 256.631 14.1968H249.723Z" fill="#141825"/>
<path d="M328.172 23.5809V28.5623C328.172 35.7552 325.932 41.584 321.45 46.0486C316.969 50.5132 311.151 52.7455 303.997 52.7455C296.37 52.7455 290.12 50.2858 285.228 45.3872C280.335 40.4885 277.868 34.4324 277.868 27.2394C277.868 20.0465 280.314 13.9697 285.186 9.0297C290.059 4.06904 296.103 1.60938 303.298 1.60938C307.841 1.60938 312.014 2.64285 315.797 4.68912C319.58 6.7354 322.54 9.48444 324.678 12.8949L314.091 18.9924C313.124 17.4421 311.685 16.2227 309.815 15.2719C307.923 14.3417 305.806 13.8664 303.442 13.8664C299.577 13.8664 296.431 15.1272 293.965 17.6489C291.498 20.1705 290.264 23.3949 290.264 27.3221C290.264 31.1046 291.477 34.3083 293.923 36.9127C296.37 39.5377 299.782 40.8399 304.202 40.8399C309.876 40.8399 313.617 38.6903 315.427 34.391H303.585V23.6016H328.172V23.5809Z" fill="#141825"/>
<path d="M371.302 2.64258L354.856 32.8406V51.6911H342.378V32.9853L325.932 2.64258H339.931L348.566 20.7903L357.282 2.64258H371.302Z" fill="#141825"/>
<path d="M373.051 52.6626C370.995 52.6626 369.268 51.9598 367.849 50.5336C366.431 49.1074 365.732 47.3919 365.732 45.3869C365.732 43.382 366.452 41.6664 367.89 40.2402C369.33 38.8141 371.056 38.1113 373.051 38.1113C375.044 38.1113 376.751 38.8141 378.169 40.2402C379.588 41.6664 380.287 43.382 380.287 45.3869C380.287 47.3919 379.588 49.1074 378.169 50.5336C376.751 51.9598 375.044 52.6626 373.051 52.6626Z" fill="#F8006B"/>
<path d="M428.76 45.2013C423.867 50.1206 417.885 52.601 410.813 52.601C403.762 52.601 397.78 50.1413 392.866 45.2013C387.973 40.282 385.507 34.2672 385.507 27.1569C385.507 20.0466 387.953 14.0525 392.866 9.11252C397.759 4.19322 403.741 1.71289 410.813 1.71289C417.885 1.71289 423.847 4.17255 428.76 9.11252C433.653 14.0319 436.12 20.0466 436.12 27.1569C436.12 34.2672 433.653 40.2614 428.76 45.2013ZM398.52 39.7239C401.85 43.0724 405.941 44.7259 410.813 44.7259C415.685 44.7259 419.797 43.0517 423.107 39.7239C426.437 36.3755 428.081 32.2002 428.081 27.1569C428.081 22.1136 426.416 17.9177 423.107 14.5899C419.776 11.2415 415.685 9.58793 410.813 9.58793C405.941 9.58793 401.83 11.2622 398.52 14.5899C395.189 17.9384 393.545 22.1136 393.545 27.1569C393.524 32.2002 395.189 36.3962 398.52 39.7239Z" fill="#141825"/>
<path d="M472.692 2.64258H480.71V51.6911H474.439L451.436 18.4133V51.6911H443.418V2.64258H449.688L472.692 35.9203V2.64258Z" fill="#141825"/>
<path d="M498.473 43.9607H518.332V51.6704H490.455V2.64258H498.473V43.9607Z" fill="#141825"/>
<path d="M524.251 2.64258H532.269V51.6911H524.251V2.64258Z" fill="#141825"/>
<path d="M571.287 2.64258H579.305V51.6911H573.034L550.031 18.4133V51.6911H542.015V2.64258H548.284L571.287 35.9203V2.64258Z" fill="#141825"/>
<path d="M597.066 43.9607H618.674V51.6704H589.07V2.64258H618.344V10.3523H597.088V23.1053H616.597V30.7323H597.088V43.9607H597.066Z" fill="#141825"/>
<path d="M0.215637 0.389648V53.634H53.1723V0.389648H0.215637ZM8.41814 45.3869V8.63675H44.9697V45.3869H8.41814Z" fill="#F8006B"/>
<path d="M32.2249 44.0638V32.4063L26.8593 27.0116L32.2454 21.5755V9.91797L15.2648 27.0116L32.2249 44.0638Z" fill="#F8006B"/>
</svg>
