<svg width="72" height="75" viewBox="0 0 72 75" fill="none" xmlns="http://www.w3.org/2000/svg">
<path d="M3.00214 13.3335C15.0388 17.1208 30.0075 8.20482 35.9873 3.27344C41.9671 8.20482 56.9358 17.1208 68.9725 13.3335C66.6577 31.0864 66.079 55.3488 35.9873 71.9182C5.89557 55.3488 5.31688 31.0864 3.00214 13.3335Z" fill="#F0F0F0" stroke="black" stroke-width="4.45746"/>
<path d="M3.00214 13.3335C15.0388 17.1208 30.0075 8.20482 35.9873 3.27344C41.9671 8.20482 56.9358 17.1208 68.9725 13.3335C66.6577 31.0864 66.079 55.3488 35.9873 71.9182C5.89557 55.3488 5.31688 31.0864 3.00214 13.3335Z" stroke="black" stroke-width="4.45746"/>
<path d="M11.9172 21.5491C20.1236 21.5491 31.6239 15.839 35.9875 12.1885C40.3511 15.839 50.6971 21.5491 60.0578 21.5491C58.3686 34.6909 57.9463 50.7378 35.9875 63.0035C14.0287 50.7378 13.6064 34.6909 11.9172 21.5491Z" fill="#F8006B" stroke="#F0F0F0" stroke-width="1.78298"/>
<path d="M28.8556 29.127L21.7236 36.2589L28.8556 43.3908" stroke="#F0F0F0" stroke-width="1.78298" stroke-linecap="round"/>
<path d="M42.2279 29.127L49.3599 36.2589L42.2279 43.3908" stroke="#F0F0F0" stroke-width="1.78298" stroke-linecap="round"/>
<path d="M33.313 47.8478L38.2162 25.5605" stroke="#F0F0F0" stroke-width="1.78298" stroke-linecap="round"/>
</svg>
