<svg width="278" height="34" viewBox="0 0 278 34" fill="none" xmlns="http://www.w3.org/2000/svg">
<path d="M166.875 20.3377C166.369 19.8571 166.112 19.2522 166.112 18.5396C166.112 17.827 166.369 17.2304 166.875 16.7415C167.38 16.2609 168.018 16.0123 168.78 16.0123C169.543 16.0123 170.181 16.2526 170.686 16.7415C171.192 17.2221 171.449 17.827 171.449 18.5396C171.449 19.2522 171.192 19.8488 170.686 20.3377C170.181 20.8183 169.543 21.0669 168.78 21.0669C168.018 21.0586 167.38 20.8183 166.875 20.3377Z" fill="#FF0040"/>
<path d="M18.619 25.2513L9.59537 16.2277L18.6356 7.18748V13.6921L16.1 16.2277L18.619 18.7467V25.2513ZM31.2388 0.608276V31.8388H0V0.608276H31.2388ZM25.5545 6.28429H5.67602V26.1545H25.5462V6.28429H25.5545Z" fill="#FF0040"/>
<path d="M46.6511 14.7535C46.6511 14.3972 46.4854 14.0906 46.1456 13.8171C45.8059 13.552 45.375 13.3365 44.8364 13.1625C44.2978 12.9885 43.7095 12.8062 43.0549 12.6074C42.4003 12.4085 41.754 12.1599 41.1077 11.8616C40.4613 11.5633 39.873 11.1987 39.3427 10.7761C38.8124 10.3535 38.3732 9.79007 38.0335 9.07746C37.6938 8.36485 37.528 7.54452 37.528 6.60818C37.528 5.00067 38.2241 3.59202 39.6162 2.37396C41.0082 1.15589 42.7815 0.55929 44.9607 0.55929C45.8556 0.55929 46.7008 0.658724 47.4963 0.857592C48.2918 1.05646 48.9464 1.28847 49.4518 1.56192C49.9573 1.83536 50.4047 2.1088 50.7859 2.37396C51.1671 2.6474 51.4322 2.8877 51.5814 3.09485L51.8382 3.3683L48.7475 6.60818C48.6563 6.50046 48.5238 6.3596 48.3415 6.19388C48.1592 6.02815 47.7946 5.78785 47.2311 5.49784C46.6677 5.20782 46.0959 5.05867 45.5242 5.05867C44.9193 5.05867 44.4138 5.2244 44.0161 5.56413C43.6184 5.90386 43.4112 6.29331 43.4112 6.74076C43.4112 7.09707 43.5769 7.40365 43.9167 7.66881C44.2564 7.93397 44.6873 8.14941 45.2259 8.32342C45.7645 8.49743 46.3528 8.68801 46.9908 8.88688C47.6371 9.08574 48.2835 9.33433 48.9381 9.63263C49.5927 9.93093 50.1893 10.2955 50.7196 10.7181C51.2499 11.1407 51.6891 11.7042 52.0288 12.4168C52.3685 13.1294 52.5343 13.9497 52.5343 14.8861C52.5343 16.709 51.8134 18.2337 50.3799 19.4766C48.9464 20.7195 47.0405 21.341 44.6624 21.341C43.6929 21.341 42.7566 21.225 41.8617 20.9929C40.9668 20.7609 40.221 20.4792 39.641 20.1478C39.061 19.8163 38.5472 19.4932 38.0998 19.1617C37.6523 18.8303 37.3209 18.5485 37.1137 18.3082L36.8154 17.9685L39.8979 14.7452C39.931 14.8032 39.9973 14.8778 40.0967 14.9689C40.1962 15.0601 40.3785 15.2258 40.6602 15.4744C40.9419 15.723 41.2319 15.9384 41.5468 16.129C41.8617 16.3196 42.2429 16.4853 42.7152 16.6261C43.1792 16.7753 43.6515 16.8499 44.1155 16.8499C44.8613 16.8499 45.4745 16.6427 45.9468 16.2284C46.4191 15.8141 46.6511 15.3252 46.6511 14.7535Z" fill="white"/>
<path d="M65.3112 1.12199H71.0701L64.0517 13.7667V20.785H58.7154V13.7667L51.697 1.12199H57.4559L61.3918 8.70382L65.3112 1.12199Z" fill="white"/>
<path d="M90.5924 1.12199V20.785H85.9853L77.5335 9.83074V20.785H72.1972V1.12199H76.8291L85.2479 12.0763V1.12199H90.5924Z" fill="white"/>
<path d="M109.41 16.2857V20.785H93.9645V1.12199H109.128V5.62137H99.2925V8.70382H106.874V12.9298H99.2925V16.2857H109.41Z" fill="white"/>
<path d="M111.656 1.12199H120.928C123 1.12199 124.715 1.76831 126.066 3.06095C127.416 4.35359 128.087 5.95282 128.087 7.86692C128.087 8.6541 127.971 9.38329 127.739 10.071C127.507 10.7505 127.226 11.3057 126.894 11.7283C126.563 12.1509 126.24 12.5155 125.908 12.8138C125.577 13.1121 125.303 13.3192 125.088 13.4269L124.715 13.6341L128.792 20.7933H123.182L119.81 14.6118H117.001V20.7933H111.656V1.12199ZM122.163 9.26728C122.552 8.8944 122.751 8.42209 122.751 7.85863C122.751 7.29518 122.552 6.83115 122.163 6.45827C121.773 6.0854 121.26 5.9031 120.638 5.9031H116.992V9.82245H120.638C121.26 9.83074 121.765 9.64016 122.163 9.26728Z" fill="white"/>
<path d="M140.575 21.3485C137.525 21.3485 134.932 20.3293 132.802 18.2827C130.673 16.2443 129.612 13.7999 129.612 10.9494C129.612 8.10727 130.673 5.66285 132.802 3.61617C134.923 1.56949 137.517 0.550293 140.575 0.550293C141.627 0.550293 142.63 0.691158 143.582 0.964601C144.535 1.23804 145.314 1.56949 145.936 1.95065C146.557 2.33182 147.096 2.72127 147.552 3.10243C148.016 3.48359 148.347 3.81504 148.546 4.08848L148.861 4.48622L145.621 7.85868C145.563 7.78411 145.488 7.69296 145.405 7.57695C145.314 7.46095 145.107 7.26208 144.776 6.97206C144.444 6.68205 144.104 6.42518 143.748 6.20145C143.392 5.97773 142.92 5.77886 142.34 5.59656C141.759 5.41427 141.171 5.33141 140.575 5.33141C138.967 5.33141 137.625 5.86172 136.556 6.93063C135.487 7.99955 134.948 9.33362 134.948 10.9411C134.948 12.5486 135.487 13.891 136.556 14.9599C137.625 16.0288 138.967 16.5674 140.575 16.5674C141.254 16.5674 141.867 16.468 142.422 16.2608C142.978 16.0537 143.375 15.8383 143.599 15.6062L143.93 15.3079V13.195H140.848V9.8225H149.283V17.4043C149.209 17.5121 149.084 17.6612 148.91 17.8352C148.736 18.0092 148.372 18.3324 147.825 18.7798C147.278 19.2356 146.69 19.6333 146.06 19.9813C145.43 20.3293 144.618 20.6442 143.632 20.9177C142.646 21.2077 141.627 21.3485 140.575 21.3485Z" fill="white"/>
<path d="M163.162 1.12199H168.921L161.903 13.7667V20.785H156.566V13.7667L149.548 1.12199H155.307L159.243 8.70382L163.162 1.12199Z" fill="white"/>
<path d="M176.114 18.1252C174.117 16.1697 173.122 13.775 173.122 10.9494C173.122 8.12382 174.117 5.73741 176.114 3.77359C178.111 1.81805 180.572 0.840288 183.513 0.840288C186.455 0.840288 188.916 1.81805 190.913 3.77359C192.91 5.72912 193.904 8.12382 193.904 10.9494C193.904 13.775 192.91 16.1614 190.913 18.1252C188.916 20.089 186.455 21.0585 183.513 21.0585C180.572 21.0585 178.102 20.0807 176.114 18.1252ZM178.326 5.77884C176.917 7.18748 176.205 8.91929 176.205 10.9577C176.205 12.9961 176.909 14.7279 178.326 16.1448C179.743 17.5618 181.467 18.2744 183.513 18.2744C185.56 18.2744 187.283 17.57 188.7 16.1448C190.117 14.7279 190.822 13.0044 190.822 10.9577C190.822 8.91929 190.117 7.19577 188.7 5.77884C187.292 4.37019 185.56 3.65758 183.513 3.65758C181.467 3.65758 179.743 4.3619 178.326 5.77884Z" fill="white"/>
<path d="M210.891 1.12199H213.973V20.785H211.314L200.359 6.60742V20.785H197.277V1.12199H199.937L210.891 15.3162V1.12199Z" fill="white"/>
<path d="M231.109 20.785H218.481V1.12199H221.563V17.976H231.109V20.785Z" fill="white"/>
<path d="M233.628 20.785V1.12199H236.71V20.785H233.628Z" fill="white"/>
<path d="M254.816 1.12199H257.898V20.785H255.238L244.284 6.60742V20.785H241.202V1.12199H243.861L254.816 15.3162V1.12199Z" fill="white"/>
<path d="M265.488 17.976H276.583V20.785H262.406V1.12199H276.31V3.931H265.488V9.12642H274.056V11.9354H265.488V17.976Z" fill="white"/>
<path d="M38.2984 24.6218H39.8479V30.4469H42.7812V24.6218H44.3224V30.4469H45.2008V33.3305H43.6595V31.839H38.2984V24.6218Z" fill="white"/>
<path d="M58.9965 31.8305H57.4553V27.2483L53.9088 31.8305H52.5665V24.6216H54.116V29.2038L57.6625 24.6216H58.9965V31.8305Z" fill="white"/>
<path d="M71.3432 31.1096V32.0376H69.8019V31.1096C68.8407 31.0847 68.0536 30.7781 67.4321 30.2064C66.8106 29.6346 66.504 28.9303 66.504 28.1266C66.504 27.3145 66.8106 26.6268 67.4321 26.0467C68.0536 25.4667 68.8407 25.1684 69.7937 25.1435V24.3729H71.3349V25.1435C72.2961 25.1684 73.0833 25.475 73.7047 26.0467C74.3262 26.6268 74.6328 27.3145 74.6328 28.1266C74.6328 28.9386 74.3262 29.6264 73.7047 30.2064C73.0998 30.7864 72.3126 31.0847 71.3432 31.1096ZM68.5259 26.9748C68.211 27.2731 68.0536 27.6625 68.0536 28.1266C68.0536 28.5906 68.211 28.98 68.5259 29.2783C68.8407 29.5766 69.2716 29.7424 69.8019 29.7672V26.4776C69.2633 26.5025 68.8407 26.6682 68.5259 26.9748ZM72.6275 29.2783C72.9424 28.98 73.0998 28.5906 73.0998 28.1266C73.0998 27.6625 72.9424 27.2731 72.6275 26.9748C72.3126 26.6765 71.8818 26.5108 71.3514 26.4859V29.7755C71.8818 29.7424 72.3126 29.5766 72.6275 29.2783Z" fill="white"/>
<path d="M85.1975 24.6216C85.935 24.6216 86.5564 24.8536 87.037 25.3176C87.5259 25.7816 87.7662 26.3534 87.7662 27.0411C87.7662 27.7289 87.5259 28.3006 87.037 28.7646C86.5482 29.2287 85.935 29.4607 85.1892 29.4607H83.6977V31.8305H82.1482V24.6216H85.1975ZM85.1395 26.0136H83.6977V28.0686H85.1395C85.4461 28.0686 85.703 27.9692 85.9101 27.7703C86.1173 27.5714 86.2167 27.3311 86.2167 27.0411C86.2167 26.7511 86.109 26.5108 85.9101 26.3119C85.7113 26.1131 85.4461 26.0136 85.1395 26.0136Z" fill="white"/>
<path d="M96.0525 30.8858C95.2985 30.1484 94.9173 29.2618 94.9173 28.226C94.9173 27.1902 95.2985 26.3036 96.0525 25.5744C96.8065 24.837 97.7346 24.4724 98.8367 24.4724C99.9304 24.4724 100.858 24.837 101.621 25.5744C102.375 26.3119 102.756 27.1902 102.756 28.226C102.756 29.2618 102.375 30.1484 101.621 30.8858C100.867 31.6233 99.9387 31.9879 98.8367 31.9879C97.7346 31.9879 96.8065 31.6233 96.0525 30.8858ZM97.196 26.5439C96.7486 26.9996 96.5248 27.5631 96.5248 28.226C96.5248 28.8889 96.7486 29.4523 97.196 29.9081C97.6435 30.3638 98.1903 30.5958 98.8367 30.5958C99.483 30.5958 100.03 30.3638 100.477 29.9081C100.925 29.4523 101.148 28.8889 101.148 28.226C101.148 27.5631 100.925 26.9996 100.477 26.5439C100.03 26.0882 99.483 25.8561 98.8367 25.8561C98.1903 25.8561 97.6435 26.0882 97.196 26.5439Z" fill="white"/>
<path d="M113.636 31.8305H110.371V24.6216H113.462C114.117 24.6216 114.655 24.8121 115.086 25.1933C115.517 25.5745 115.724 26.0219 115.724 26.5274C115.724 26.718 115.699 26.9002 115.641 27.0743C115.583 27.2483 115.517 27.3891 115.434 27.5051C115.351 27.6211 115.268 27.7206 115.186 27.8034C115.103 27.8863 115.036 27.9443 114.978 27.9774L114.896 28.0272C114.929 28.0437 114.97 28.0603 115.02 28.0852C115.07 28.11 115.169 28.168 115.302 28.2675C115.442 28.3669 115.558 28.4746 115.666 28.5906C115.774 28.7066 115.865 28.8641 115.948 29.0712C116.031 29.2701 116.08 29.4938 116.08 29.7258C116.08 30.3059 115.848 30.7947 115.393 31.2173C114.937 31.6234 114.349 31.8305 113.636 31.8305ZM113.354 25.9059H111.913V27.4554H113.354C113.611 27.4554 113.81 27.3891 113.959 27.2483C114.108 27.1074 114.183 26.9168 114.183 26.6848C114.183 26.4528 114.108 26.2622 113.959 26.1214C113.81 25.9805 113.603 25.9059 113.354 25.9059ZM111.913 30.5462H113.553C113.835 30.5462 114.067 30.455 114.258 30.281C114.44 30.107 114.539 29.8833 114.539 29.6264C114.539 29.3695 114.448 29.1458 114.258 28.9635C114.075 28.7812 113.835 28.6983 113.553 28.6983H111.913V30.5462Z" fill="white"/>
<path d="M127.713 30.1318H124.929L124.308 31.8305H122.659L125.493 24.6216H127.133L129.967 31.8305H128.318L127.713 30.1318ZM127.2 28.7978L126.321 26.4279L125.443 28.7978H127.2Z" fill="white"/>
<path d="M142.538 24.6216V31.8305H140.996V29.3115H139.662L138.27 31.8388H136.63L138.171 29.1127C138.138 29.0961 138.088 29.0795 138.03 29.0464C137.972 29.0132 137.864 28.9386 137.723 28.8144C137.574 28.6901 137.442 28.5575 137.334 28.4083C137.218 28.2675 137.119 28.0686 137.027 27.8117C136.936 27.5549 136.887 27.2897 136.887 26.9997C136.887 26.3285 137.119 25.7733 137.583 25.3176C138.047 24.8619 138.635 24.6298 139.356 24.6298H142.538V24.6216ZM138.419 26.9914C138.419 27.2566 138.511 27.472 138.701 27.6543C138.884 27.8366 139.124 27.9194 139.406 27.9194H140.996V26.0136H139.406C139.124 26.0136 138.892 26.1048 138.701 26.2871C138.519 26.4777 138.419 26.7097 138.419 26.9914Z" fill="white"/>
<path d="M164.985 24.6216V31.8305H163.444V26.0136H160.403V31.8305H158.853V24.6216H164.985Z" fill="white"/>
<path d="M179.038 24.6216V31.8305H177.497V26.0136H175.384V26.8422C175.384 27.8614 175.326 28.7066 175.218 29.4027C175.102 30.0904 174.936 30.6207 174.721 30.9853C174.506 31.3582 174.257 31.6151 173.984 31.7642C173.71 31.9134 173.387 31.9879 173.014 31.9879C172.865 31.9879 172.707 31.9714 172.558 31.9382C172.401 31.9051 172.293 31.8802 172.219 31.8471L172.094 31.8057V30.3307C172.268 30.397 172.434 30.4302 172.608 30.4384C172.873 30.4384 173.089 30.3556 173.263 30.1981C173.437 30.0407 173.569 29.6844 173.677 29.1375C173.785 28.5906 173.843 27.8283 173.843 26.8505V24.6216H179.038Z" fill="white"/>
<path d="M191.285 30.1318H188.501L187.88 31.8305H186.231L189.065 24.6216H190.705L193.539 31.8305H191.89L191.285 30.1318ZM190.772 28.7978L189.893 26.4279L189.015 28.7978H190.772Z" fill="white"/>
<path d="M199.422 24.6216H205.082V26.0136H203.027V31.8305H201.486V26.0136H199.422V24.6216Z" fill="white"/>
<path d="M216.509 31.1096V32.0376H214.967V31.1096C214.006 31.0847 213.219 30.7781 212.598 30.2064C211.976 29.6346 211.67 28.9303 211.67 28.1266C211.67 27.3145 211.976 26.6268 212.598 26.0467C213.219 25.4667 214.006 25.1684 214.959 25.1435V24.3729H216.5V25.1435C217.462 25.1684 218.249 25.475 218.87 26.0467C219.492 26.6268 219.798 27.3145 219.798 28.1266C219.798 28.9386 219.492 29.6264 218.87 30.2064C218.257 30.7864 217.47 31.0847 216.509 31.1096ZM213.691 26.9748C213.377 27.2731 213.219 27.6625 213.219 28.1266C213.219 28.5906 213.377 28.98 213.691 29.2783C214.006 29.5766 214.437 29.7424 214.967 29.7672V26.4776C214.429 26.5025 214.006 26.6682 213.691 26.9748ZM217.785 29.2783C218.1 28.98 218.257 28.5906 218.257 28.1266C218.257 27.6625 218.1 27.2731 217.785 26.9748C217.47 26.6765 217.039 26.5108 216.509 26.4859V29.7755C217.047 29.7424 217.47 29.5766 217.785 29.2783Z" fill="white"/>
<path d="M228.043 30.8858C227.289 30.1484 226.908 29.2618 226.908 28.226C226.908 27.1902 227.289 26.3036 228.043 25.5744C228.797 24.837 229.725 24.4724 230.827 24.4724C231.921 24.4724 232.849 24.837 233.611 25.5744C234.365 26.3119 234.746 27.1902 234.746 28.226C234.746 29.2618 234.365 30.1484 233.611 30.8858C232.857 31.6233 231.929 31.9879 230.827 31.9879C229.725 31.9879 228.797 31.6233 228.043 30.8858ZM229.178 26.5439C228.73 26.9996 228.507 27.5631 228.507 28.226C228.507 28.8889 228.73 29.4523 229.178 29.9081C229.625 30.3638 230.172 30.5958 230.819 30.5958C231.465 30.5958 232.012 30.3638 232.459 29.9081C232.907 29.4523 233.13 28.8889 233.13 28.226C233.13 27.5631 232.907 26.9996 232.459 26.5439C232.012 26.0882 231.465 25.8561 230.819 25.8561C230.172 25.8561 229.625 26.0882 229.178 26.5439Z" fill="white"/>
<path d="M245.394 24.6216C246.131 24.6216 246.753 24.8536 247.233 25.3176C247.722 25.7816 247.963 26.3534 247.963 27.0411C247.963 27.7289 247.722 28.3006 247.233 28.7646C246.744 29.2287 246.131 29.4607 245.386 29.4607H243.894V31.8305H242.345V24.6216H245.394ZM245.336 26.0136H243.894V28.0686H245.336C245.642 28.0686 245.899 27.9692 246.106 27.7703C246.314 27.5714 246.413 27.3311 246.413 27.0411C246.413 26.7511 246.305 26.5108 246.106 26.3119C245.899 26.1131 245.642 26.0136 245.336 26.0136Z" fill="white"/>
<path d="M259.389 27.762L261.883 24.6216H263.251V31.8305H261.709V27.0245L259.389 29.9744L257.077 27.0411V31.8305H255.528V24.6216H256.92L259.389 27.762Z" fill="white"/>
<path d="M275.498 30.1318H272.713L272.092 31.8305H270.443L273.277 24.6216H274.918L277.751 31.8305H276.102L275.498 30.1318ZM274.992 28.7978L274.114 26.4279L273.235 28.7978H274.992Z" fill="white"/>
</svg>
