<svg width="243" height="27" viewBox="0 0 243 27" fill="none" xmlns="http://www.w3.org/2000/svg">
<path fill-rule="evenodd" clip-rule="evenodd" d="M135.219 45.6591C132.161 44.3639 128.943 41.9354 127.817 38.3735C125.725 39.9925 123.15 42.0973 121.38 44.0401L120.575 43.8782C122.828 41.2878 125.403 39.183 127.656 37.4021C127.656 37.0783 127.495 36.7545 127.495 36.4307C125.886 20.5644 145.517 13.7645 156.781 13.1169C154.528 -0.320907 174.482 0.488602 180.918 2.10762C195.079 5.99325 214.228 17.1645 227.906 14.8978C232.894 14.0883 238.848 10.5265 241.744 7.93607L242.549 8.74558C226.779 23.6405 207.308 12.7931 190.091 6.15515C181.884 3.56473 161.77 -2.74943 157.908 10.0408C157.586 11.0122 157.747 11.9836 158.069 13.1169C161.126 13.1169 164.183 13.2788 167.08 13.7645C169.815 14.2502 173.999 15.2216 175.447 18.4597C177.057 21.6977 172.229 23.6405 170.137 23.4786C166.114 22.9929 162.252 20.8882 159.195 17.8121C158.39 17.0025 157.747 16.0311 157.264 14.8978C151.471 15.2216 145.517 16.3549 140.368 19.2692C135.058 22.1834 128.138 28.8213 128.943 36.2688C141.494 26.3928 152.437 28.8213 155.494 30.7642C162.574 34.9736 160.643 40.964 159.517 42.9068C156.138 47.9257 144.552 49.8685 135.219 45.6591ZM129.104 37.4021C130.23 41.9354 135.38 44.3639 139.081 45.1734C146.965 47.1162 154.689 46.1448 157.586 42.583C158.873 40.802 161.77 35.7831 155.011 31.5737C152.115 29.7928 141.816 28.0118 129.104 37.4021ZM158.712 14.7359C158.873 14.8978 159.034 15.2216 159.195 15.3835C161.931 19.1073 169.011 23.4786 173.034 21.0501C173.677 20.7263 174.643 19.7549 174.16 18.7835C172.873 16.3549 168.689 15.5454 166.919 15.2216C164.183 14.8978 161.448 14.7359 158.712 14.7359Z" fill="#B38759"/>
<path fill-rule="evenodd" clip-rule="evenodd" d="M108.024 45.1737C111.081 43.8785 114.139 41.6119 115.265 38.05C117.518 39.831 119.288 41.6119 121.541 44.0404L122.667 43.8785C120.415 41.1262 118.001 38.8595 115.748 36.9167C115.748 36.5929 115.909 36.2691 115.909 35.9453C117.518 20.079 97.8865 13.2791 86.6224 12.6315C88.8752 -0.806301 68.9218 0.00320466 62.4852 1.62222C48.3247 5.50785 29.1759 16.679 15.4981 14.4124C10.3488 13.6029 4.39499 10.0411 1.49852 7.45066L0.693939 8.09827C16.4636 22.9932 35.9343 12.1458 53.1522 5.50785C61.3588 2.91743 81.4732 -3.39672 85.3351 9.39349C85.657 10.3649 85.496 11.3363 85.1742 12.4696C82.1168 12.4696 79.0594 12.6315 76.163 13.1172C73.4274 13.6029 69.2436 14.5743 67.7954 17.8124C66.1863 21.0504 71.0137 22.9932 73.1056 22.8313C77.1284 22.3456 80.9904 20.2409 84.0478 17.1648C84.8524 16.1933 85.496 15.2219 85.9788 14.2505C91.7717 14.5743 97.7255 15.7076 102.875 18.6219C108.185 21.5361 115.104 28.1741 114.3 35.6215C101.748 25.7455 90.8062 28.1741 87.7488 30.1169C80.6686 34.3263 82.5996 40.3167 83.726 42.2595C87.1052 47.4403 98.691 49.2212 108.024 45.1737ZM114.139 36.9167C113.012 41.45 107.863 43.7166 104.162 44.688C96.2773 46.6308 88.5534 45.6594 85.6569 42.0976C84.3696 40.3167 81.4732 35.2977 88.2316 31.0883C91.128 29.1455 101.427 27.5264 114.139 36.9167ZM84.5305 14.0886C84.3696 14.2505 84.2087 14.5743 84.0478 14.7362C81.3122 18.46 74.232 22.8313 70.2091 20.4028C69.5655 20.079 68.6 19.1076 69.0827 18.1362C70.37 15.7076 74.5538 14.8981 76.3239 14.5743C79.0594 14.2505 81.795 14.0886 84.5305 14.0886Z" fill="#B38759"/>
<path d="M120.736 51.488C118.162 53.4308 107.541 61.2021 99.9783 60.0688C88.0706 59.2593 86.9441 43.0691 100.3 42.4215C107.058 42.0977 114.943 47.9262 120.414 51.1642L120.736 51.488ZM99.8173 61.2021C108.668 62.3354 121.219 52.4594 121.863 51.9737L122.024 51.8118C122.184 51.6499 122.024 51.3261 121.863 51.1642C121.541 51.0023 121.219 50.8404 120.897 50.5166C113.334 45.8215 105.932 41.2882 100.3 41.612C84.3695 42.2596 84.8523 59.5831 99.8173 61.2021Z" fill="#B38759"/>
<path d="M122.024 43.3925C121.863 43.0687 121.702 42.9068 121.541 43.0687C120.254 43.8782 118.966 45.1734 117.357 46.4686C115.587 47.9257 113.656 49.5448 111.564 51.0019C107.058 48.4114 102.392 46.4686 99.6564 47.6019C95.9554 48.4114 93.0589 52.459 97.5645 55.3732C101.909 57.9636 106.898 55.5351 111.564 52.2971C116.07 54.8875 120.093 58.1255 121.541 59.2588C121.702 59.4207 122.024 59.4207 122.184 59.0969C122.345 58.935 122.345 58.6112 122.024 58.4493C120.575 57.316 116.713 54.2399 112.208 51.6495C114.139 50.1924 115.909 48.7352 117.679 47.2781C119.288 45.9829 120.575 44.8496 121.863 44.0401C122.345 43.7163 122.184 43.5544 122.024 43.3925ZM110.599 51.4876C107.219 53.7542 103.518 55.0494 100.461 54.5637C99.3346 54.4018 98.6909 53.9161 98.2082 53.2685C97.5645 52.2971 97.5645 51.1638 98.2082 50.1924C98.53 49.5447 99.1737 48.8971 100.139 48.5733C102.392 47.9257 106.415 49.2209 110.599 51.4876Z" fill="#B38759"/>
<path d="M122.989 51.488C125.564 53.4308 136.184 61.2021 143.747 60.0688C155.655 59.2593 156.781 43.0691 143.425 42.4215C136.667 42.0977 128.782 47.9262 123.311 51.1642L122.989 51.488ZM143.908 61.2021C135.058 62.3354 122.185 52.4594 121.541 51.9737C121.541 51.9737 121.38 51.8118 121.38 51.6499C121.38 51.488 121.702 51.1642 121.863 51.1642C122.184 51.0023 122.506 50.8404 122.828 50.5166C130.391 45.8215 137.793 41.2882 143.425 41.612C159.356 42.2596 158.873 59.5831 143.908 61.2021Z" fill="#B38759"/>
<path d="M121.702 43.5545C121.863 43.2307 121.863 42.9069 122.024 43.0688C123.311 43.8783 125.081 45.4973 126.69 46.7925C128.46 48.2496 130.391 49.8687 132.483 51.3258C136.989 48.7353 141.655 46.7925 144.391 47.9258C148.092 48.7353 150.988 52.7829 146.483 55.6971C142.138 58.2875 137.15 55.859 132.483 52.621C127.977 55.2114 123.955 58.4494 122.506 59.5827C122.345 59.7446 122.345 59.2588 122.184 59.0969C122.024 58.935 121.702 58.9351 121.863 58.7732C123.311 57.6399 127.173 54.5638 131.678 51.9734C129.747 50.5163 127.977 49.0591 126.207 47.602C124.598 46.3068 123.15 44.8497 122.024 44.0402C120.736 43.2307 121.541 43.5545 121.702 43.5545ZM133.288 51.9734C136.667 54.24 140.368 55.5352 143.425 55.0495C147.126 54.5638 146.965 50.3544 143.908 49.2211C141.494 48.4115 137.471 49.7068 133.288 51.9734Z" fill="#B38759"/>
<path d="M122.184 59.4214C122.989 60.5547 125.564 64.9261 125.081 68.1641C124.92 70.4307 123.15 71.564 121.541 71.4021C120.093 71.2402 118.805 70.1069 118.805 67.8403C118.805 64.9261 120.736 61.688 122.184 59.4214ZM126.207 68.326C126.851 64.4404 122.667 58.9357 122.345 58.6119C122.184 58.6119 122.184 58.6119 122.024 58.6119C122.024 58.7738 121.863 58.9357 121.863 58.9357C119.771 62.1737 117.84 65.4118 117.84 67.8403C117.84 70.1069 118.805 71.564 119.932 72.3735C121.058 73.183 122.345 73.183 123.633 72.5354C124.759 72.0497 125.886 70.5926 126.207 68.326Z" fill="#B38759"/>
<path d="M129.587 61.5258C133.449 66.0591 135.862 71.4018 134.736 76.5827C133.61 82.4111 128.782 87.7538 122.024 87.7538C116.07 87.7538 108.346 81.9254 108.024 76.2588C107.863 71.2399 109.472 66.3829 113.656 61.6877L112.691 62.3353C101.266 74.1541 108.346 90.5062 121.702 90.5062C136.667 90.5062 140.207 72.697 131.196 62.6591L129.587 61.5258Z" fill="#B38759"/>
<path d="M127.012 62.3353C129.265 65.0876 130.552 68.1638 129.908 71.2399C129.265 74.6398 126.046 78.0398 122.024 78.0398C118.483 78.0398 114.139 74.6398 113.978 71.2399C113.817 68.1638 115.104 65.2496 117.679 62.4972L117.035 62.821C110.277 69.9447 114.139 79.6588 122.024 79.6588C130.552 79.8207 132.644 69.1352 127.977 62.9829L127.012 62.3353Z" fill="#B38759"/>
<path fill-rule="evenodd" clip-rule="evenodd" d="M113.817 61.6883C113.334 61.8502 113.173 62.336 112.852 62.4979C92.0935 73.0214 78.2549 66.8692 76.6457 62.6598C74.5538 57.6408 76.9675 50.841 80.3468 46.3077C83.8869 41.4507 91.7717 33.8413 107.38 36.2698C107.38 36.2698 107.541 37.4031 107.541 37.7269C88.7143 34.8127 80.3468 46.9553 78.2549 54.2409C75.3584 64.7645 84.0478 66.8692 93.3809 66.8692C99.1738 66.8692 108.507 64.2788 113.817 61.6883Z" fill="#B38759"/>
<path fill-rule="evenodd" clip-rule="evenodd" d="M107.541 37.8885C107.863 31.5744 102.553 24.7745 95.6337 22.346C90.0017 20.2413 82.7605 19.4318 78.4158 19.9175C84.8524 20.0794 95.6337 21.8603 100.3 25.7459C104.484 29.1459 106.898 33.841 106.898 37.8885C107.059 37.8885 107.38 37.7266 107.541 37.8885Z" fill="#B38759"/>
<path fill-rule="evenodd" clip-rule="evenodd" d="M129.748 61.6882C130.07 61.8501 130.23 62.3358 130.713 62.4977C150.667 73.0213 163.862 66.8691 165.632 62.6596C167.563 57.6407 165.31 50.8408 162.092 46.3076C158.712 41.6124 150.988 33.8412 136.023 36.2697C136.023 36.2697 135.862 37.403 135.862 37.7268C153.885 34.8126 162.092 47.1171 164.023 54.4027C166.919 64.9262 158.391 67.031 149.379 67.031C143.908 66.8691 134.897 64.2786 129.748 61.6882Z" fill="#B38759"/>
<path fill-rule="evenodd" clip-rule="evenodd" d="M135.862 37.7268C135.541 31.4126 140.69 24.6125 147.287 22.1839C152.759 20.0792 159.678 19.2697 163.862 19.7554C157.747 19.9173 147.287 21.6982 142.782 25.5839C138.759 28.9838 136.506 33.6789 136.506 37.7265C136.345 37.7265 136.023 37.7268 135.862 37.7268Z" fill="#B38759"/>
</svg>
