<svg width="83" height="26" viewBox="0 0 83 26" fill="none" xmlns="http://www.w3.org/2000/svg">
<path d="M14.914 2.41799C14.1972 0.874526 12.003 0.874533 11.2862 2.418L8.99521 7.35108L3.59562 8.0055C1.90619 8.21026 1.22813 10.2971 2.47455 11.4558L6.45825 15.159L5.41207 20.4966C5.08474 22.1666 6.85996 23.4564 8.34708 22.629L13.1001 19.9846L17.8531 22.629C19.3402 23.4564 21.1155 22.1666 20.7881 20.4966L19.742 15.159L23.7257 11.4558C24.9721 10.2971 24.294 8.21026 22.6046 8.0055L17.205 7.35108L14.914 2.41799Z" fill="white" stroke="#0C0F5E" stroke-width="2"/>
<path d="M34.6201 2.41799C33.9033 0.874526 31.709 0.874533 30.9922 2.418L28.7013 7.35108L23.3017 8.0055C21.6122 8.21026 20.9342 10.2971 22.1806 11.4558L26.1643 15.159L25.1181 20.4966C24.7908 22.1666 26.566 23.4564 28.0531 22.629L32.8062 19.9846L37.5592 22.629C39.0463 23.4564 40.8215 22.1666 40.4942 20.4966L39.448 15.159L43.4317 11.4558C44.6781 10.2971 44.0001 8.21026 42.3106 8.0055L36.911 7.35108L34.6201 2.41799Z" fill="white" stroke="#0C0F5E" stroke-width="2"/>
<path d="M53.6269 2.41799C52.9101 0.874526 50.7158 0.874533 49.9991 2.418L47.7081 7.35108L42.3085 8.0055C40.6191 8.21026 39.941 10.2971 41.1874 11.4558L45.1711 15.159L44.125 20.4966C43.7976 22.1666 45.5729 23.4564 47.06 22.629L51.813 19.9846L56.566 22.629C58.0531 23.4564 59.8283 22.1666 59.501 20.4966L58.4548 15.159L62.4385 11.4558C63.685 10.2971 63.0069 8.21026 61.3175 8.0055L55.9179 7.35108L53.6269 2.41799Z" fill="white" stroke="#0C0F5E" stroke-width="2"/>
<path d="M71.6992 2.41799C70.9824 0.874526 68.7881 0.874533 68.0713 2.418L65.7804 7.35108L60.3808 8.0055C58.6913 8.21026 58.0133 10.2971 59.2597 11.4558L63.2434 15.159L62.1972 20.4966C61.8699 22.1666 63.6451 23.4564 65.1322 22.629L69.8853 19.9846L74.6383 22.629C76.1254 23.4564 77.9006 22.1666 77.5733 20.4966L76.5271 15.159L80.5108 11.4558C81.7572 10.2971 81.0792 8.21026 79.3897 8.0055L73.9901 7.35108L71.6992 2.41799Z" fill="white" stroke="#0C0F5E" stroke-width="2"/>
</svg>
