<svg width="50" height="44" viewBox="0 0 50 44" fill="none" xmlns="http://www.w3.org/2000/svg">
<g filter="url(#filter0_d)">
<path d="M8.27602 21.4058C13.1958 18.2748 18.1156 15.1668 23.0353 12.0587C23.5207 11.8976 23.8075 12.0587 23.984 12.6573C23.984 13.5091 23.984 14.361 23.984 15.2128H24.006H32.5439C33.4705 17.2618 34 19.564 34 21.9813C34 24.4217 33.4705 26.7239 32.5439 28.7959H24.006H23.984C23.984 29.6478 23.984 30.4766 23.984 31.3284C23.984 31.8118 23.4324 32.1572 23.0353 31.927C18.1156 28.7959 13.1958 25.6879 8.27602 22.5799C7.98922 22.2346 7.83478 21.7741 8.27602 21.4058Z" fill="#00009F"/>
</g>
<defs>
<filter id="filter0_d" x="0.307692" y="0.461538" width="49.0769" height="43.0769" filterUnits="userSpaceOnUse" color-interpolation-filters="sRGB">
<feFlood flood-opacity="0" result="BackgroundImageFix"/>
<feColorMatrix in="SourceAlpha" type="matrix" values="0 0 0 0 0 0 0 0 0 0 0 0 0 0 0 0 0 0 127 0"/>
<feOffset dx="3.84615"/>
<feGaussianBlur stdDeviation="5.76923"/>
<feColorMatrix type="matrix" values="0 0 0 0 0.133333 0 0 0 0 0.223529 0 0 0 0 0.623529 0 0 0 0.3 0"/>
<feBlend mode="normal" in2="BackgroundImageFix" result="effect1_dropShadow"/>
<feBlend mode="normal" in="SourceGraphic" in2="effect1_dropShadow" result="shape"/>
</filter>
</defs>
</svg>
