<svg width="141" height="28" viewBox="0 0 141 28" fill="none" xmlns="http://www.w3.org/2000/svg">
<g clip-path="url(#clip0)">
<path d="M0 0V27.7957H27.7957V0H0ZM24.2661 24.3396H3.45608V3.45608H24.2661V24.3396ZM17.2804 23.0896L8.01516 13.8979L17.2804 4.63262V9.55937L12.9419 13.8979L17.2804 18.2363V23.0896Z" fill="white"/>
<path d="M40.1009 13.8489C38.7095 13.8489 37.4571 13.558 36.344 12.9761C35.2434 12.3816 34.3769 11.5593 33.7444 10.5094C33.112 9.45947 32.7957 8.2704 32.7957 6.94217C32.7957 5.61395 33.112 4.42488 33.7444 3.37495C34.3769 2.32503 35.2434 1.50912 36.344 0.927225C37.4571 0.332689 38.7095 0.0354214 40.1009 0.0354214C41.3153 0.0354214 42.4095 0.250466 43.3835 0.680555C44.3576 1.11065 45.1671 1.73049 45.8123 2.54007L43.4215 4.70317C42.5613 3.6659 41.5177 3.14726 40.2907 3.14726C39.5696 3.14726 38.9245 3.30538 38.3553 3.62162C37.7987 3.93787 37.3623 4.38693 37.046 4.96882C36.7424 5.53806 36.5906 6.19584 36.5906 6.94217C36.5906 7.68851 36.7424 8.35262 37.046 8.93451C37.3623 9.50374 37.7987 9.94648 38.3553 10.2627C38.9245 10.579 39.5696 10.7371 40.2907 10.7371C41.5177 10.7371 42.5613 10.2185 43.4215 9.18118L45.8123 11.3443C45.1671 12.1539 44.3576 12.7737 43.3835 13.2038C42.4095 13.6339 41.3153 13.8489 40.1009 13.8489ZM47.13 0.301065H50.83V8.09962L56.3137 0.301065H59.8429V13.5833H56.1429V5.8037L50.6782 13.5833H47.13V0.301065ZM74.9526 0.301065V13.5833H71.1957V8.40322H66.0725V13.5833H62.3156V0.301065H66.0725V5.29139H71.1957V0.301065H74.9526ZM88.0908 10.6802V13.5833H77.427V0.301065H87.8441V3.20418H81.1461V5.44318H87.0472V8.25142H81.1461V10.6802H88.0908ZM95.9236 0.301065C97.1253 0.301065 98.1689 0.50346 99.0544 0.908255C99.9398 1.3004 100.622 1.86964 101.103 2.61597C101.584 3.34965 101.824 4.21616 101.824 5.21549C101.824 6.21482 101.584 7.08132 101.103 7.81501C100.622 8.54869 99.9398 9.11793 99.0544 9.52272C98.1689 9.91488 97.1253 10.111 95.9236 10.111H93.6087V13.5833H89.8517V0.301065H95.9236ZM95.6959 7.1509C96.4675 7.1509 97.0494 6.98645 97.4415 6.65756C97.8337 6.31601 98.0296 5.83532 98.0296 5.21549C98.0296 4.59565 97.8337 4.11496 97.4415 3.77342C97.0494 3.43188 96.4675 3.26111 95.6959 3.26111H93.6087V7.1509H95.6959ZM112.862 3.28008H106.847V13.5833H103.147V0.301065H112.881L112.862 3.28008ZM114.182 0.301065H117.882V8.09962L123.365 0.301065H126.895V13.5833H123.195V5.8037L117.73 13.5833H114.182V0.301065ZM140.486 0.301065V13.5833H136.786V10.2438H134.737L132.555 13.5833H128.608L131.303 9.69348C130.417 9.30135 129.74 8.73844 129.272 8.00475C128.804 7.25841 128.57 6.37294 128.57 5.34831C128.57 4.31103 128.811 3.4129 129.291 2.65392C129.772 1.89494 130.461 1.31305 131.36 0.908255C132.258 0.50346 133.308 0.301065 134.509 0.301065H140.486ZM134.585 3.26111C133.105 3.26111 132.365 3.93787 132.365 5.29139C132.365 5.96182 132.549 6.47414 132.915 6.82833C133.295 7.16987 133.839 7.34064 134.547 7.34064H136.786V3.26111H134.585ZM44.2907 19.3233V27.5833H33.0925V19.3233H35.3935V25.7307H37.5529V19.3233H39.8539V25.7307H41.9897V19.3233H44.2907ZM48.8058 24.4209H47.7438V27.5833H45.4192V19.3233H47.7438V22.5329H48.8648L50.8354 19.3233H53.2898L50.7056 23.3117L53.3134 27.5833H50.682L48.8058 24.4209ZM57.486 27.7485C56.6128 27.7485 55.8261 27.5636 55.126 27.1939C54.4337 26.8242 53.887 26.3128 53.4858 25.6599C53.0924 25.007 52.8958 24.2714 52.8958 23.4533C52.8958 22.6352 53.0924 21.8996 53.4858 21.2467C53.887 20.5938 54.4337 20.0824 55.126 19.7127C55.8261 19.343 56.6128 19.1581 57.486 19.1581C58.3592 19.1581 59.1419 19.343 59.8342 19.7127C60.5343 20.0824 61.081 20.5938 61.4744 21.2467C61.8756 21.8996 62.0762 22.6352 62.0762 23.4533C62.0762 24.2714 61.8756 25.007 61.4744 25.6599C61.081 26.3128 60.5343 26.8242 59.8342 27.1939C59.1419 27.5636 58.3592 27.7485 57.486 27.7485ZM57.486 25.8133C57.9029 25.8133 58.2805 25.715 58.6188 25.5183C58.957 25.3216 59.2245 25.0463 59.4212 24.6923C59.6178 24.3304 59.7162 23.9174 59.7162 23.4533C59.7162 22.9892 59.6178 22.5801 59.4212 22.2261C59.2245 21.8642 58.957 21.585 58.6188 21.3883C58.2805 21.1916 57.9029 21.0933 57.486 21.0933C57.069 21.0933 56.6914 21.1916 56.3532 21.3883C56.0149 21.585 55.7474 21.8642 55.5508 22.2261C55.3541 22.5801 55.2558 22.9892 55.2558 23.4533C55.2558 23.9174 55.3541 24.3304 55.5508 24.6923C55.7474 25.0463 56.0149 25.3216 56.3532 25.5183C56.6914 25.715 57.069 25.8133 57.486 25.8133ZM70.2103 19.3233V27.5833H67.9093V21.1759H65.5375L65.4903 22.5211C65.451 23.7011 65.3527 24.6608 65.1953 25.4003C65.0459 26.1398 64.7863 26.714 64.4165 27.1231C64.0468 27.5243 63.5237 27.7249 62.8471 27.7249C62.5325 27.7249 62.1785 27.6777 61.7851 27.5833L61.9149 25.6717C62.0172 25.6953 62.1234 25.7071 62.2335 25.7071C62.5403 25.7071 62.7763 25.5852 62.9415 25.3413C63.1067 25.0974 63.2247 24.7592 63.2955 24.3265C63.3663 23.886 63.4135 23.3156 63.4371 22.6155L63.5551 19.3233H70.2103ZM77.0866 25.9785H73.5938L72.9448 27.5833H70.5612L74.2074 19.3233H76.5084L80.1664 27.5833H77.7356L77.0866 25.9785ZM76.4022 24.2557L75.3402 21.6125L74.2782 24.2557H76.4022ZM83.367 19.3233H90.27V21.1287H85.668V22.4621H87.8038C88.8028 22.4621 89.5698 22.6745 90.1048 23.0993C90.6397 23.5241 90.9072 24.1338 90.9072 24.9283C90.9072 25.7622 90.6082 26.4151 90.0104 26.8871C89.4125 27.3512 88.5747 27.5833 87.497 27.5833H83.367V19.3233ZM87.3436 25.9077C87.7369 25.9077 88.0358 25.829 88.2404 25.6717C88.4449 25.5144 88.5472 25.2902 88.5472 24.9991C88.5472 24.417 88.146 24.1259 87.3436 24.1259H85.668V25.9077H87.3436ZM91.5232 19.3233H93.8242V24.1731L97.2344 19.3233H99.4292V27.5833H97.1282V22.7453L93.7298 27.5833H91.5232V19.3233ZM105.722 23.2881C106.178 23.4612 106.536 23.7208 106.796 24.0669C107.055 24.413 107.185 24.8103 107.185 25.2587C107.185 25.77 107.012 26.2145 106.666 26.5921C106.32 26.9697 105.852 27.2608 105.262 27.4653C104.672 27.662 104.023 27.7603 103.315 27.7603C102.756 27.7603 102.186 27.6934 101.604 27.5597C101.029 27.426 100.479 27.2254 99.9521 26.9579L100.648 25.3295C101.018 25.5183 101.411 25.6638 101.828 25.7661C102.253 25.8605 102.662 25.9077 103.055 25.9077C103.574 25.9077 103.999 25.8251 104.329 25.6599C104.66 25.4868 104.825 25.2469 104.825 24.9401C104.825 24.6962 104.723 24.5153 104.518 24.3973C104.314 24.2793 104.038 24.2203 103.692 24.2203H101.58V22.5093H103.503C103.818 22.5093 104.062 22.4464 104.235 22.3205C104.408 22.1946 104.495 22.0255 104.495 21.8131C104.495 21.5456 104.361 21.3411 104.093 21.1995C103.826 21.05 103.48 20.9753 103.055 20.9753C102.709 20.9753 102.343 21.0264 101.958 21.1287C101.572 21.2231 101.206 21.3608 100.86 21.5417L100.176 19.7717C101.057 19.3469 102.024 19.1345 103.079 19.1345C103.755 19.1345 104.381 19.2328 104.955 19.4295C105.537 19.6183 105.997 19.8936 106.335 20.2555C106.682 20.6174 106.855 21.0461 106.855 21.5417C106.855 21.9272 106.752 22.2733 106.548 22.5801C106.351 22.879 106.076 23.115 105.722 23.2881ZM115.717 19.3233V27.5833H113.381V24.3619H110.195V27.5833H107.858V19.3233H110.195V22.4267H113.381V19.3233H115.717ZM123.534 25.7779V27.5833H116.902V19.3233H123.38V21.1287H119.215V22.5211H122.885V24.2675H119.215V25.7779H123.534ZM128.287 27.7485C127.422 27.7485 126.643 27.5676 125.951 27.2057C125.266 26.836 124.727 26.3246 124.334 25.6717C123.941 25.0188 123.744 24.2793 123.744 23.4533C123.744 22.6273 123.941 21.8878 124.334 21.2349C124.727 20.582 125.266 20.0746 125.951 19.7127C126.643 19.343 127.422 19.1581 128.287 19.1581C129.042 19.1581 129.723 19.2918 130.328 19.5593C130.934 19.8268 131.438 20.2122 131.839 20.7157L130.352 22.0609C129.817 21.4158 129.168 21.0933 128.405 21.0933C127.957 21.0933 127.555 21.1916 127.201 21.3883C126.855 21.585 126.584 21.8642 126.387 22.2261C126.198 22.5801 126.104 22.9892 126.104 23.4533C126.104 23.9174 126.198 24.3304 126.387 24.6923C126.584 25.0463 126.855 25.3216 127.201 25.5183C127.555 25.715 127.957 25.8133 128.405 25.8133C129.168 25.8133 129.817 25.4908 130.352 24.8457L131.839 26.1909C131.438 26.6944 130.934 27.0798 130.328 27.3473C129.723 27.6148 129.042 27.7485 128.287 27.7485ZM137.865 25.9785H134.373L133.724 27.5833H131.34L134.986 19.3233H137.287L140.945 27.5833H138.514L137.865 25.9785ZM137.181 24.2557L136.119 21.6125L135.057 24.2557H137.181Z" fill="white"/>
</g>
<defs>
<clipPath id="clip0">
<rect width="140.946" height="27.7957" fill="white"/>
</clipPath>
</defs>
</svg>
