<svg width="264" height="99" viewBox="0 0 264 99" fill="none" xmlns="http://www.w3.org/2000/svg">
<path d="M17.7873 44.0264C13.3354 44.0264 9.64628 43.0864 6.71979 41.2064C3.79329 39.3263 1.75361 36.7723 0.583008 33.5797L9.78817 28.2233C11.349 31.948 14.1158 33.8103 18.0888 33.8103C21.37 33.8103 23.0195 32.8703 23.0195 30.9902C23.0195 29.7487 22.0795 28.7377 20.1994 27.9928C19.4013 27.6735 17.6276 27.1237 14.914 26.361C11.0652 25.2436 8.01454 23.6651 5.77976 21.6432C3.52724 19.6212 2.40985 16.8011 2.40985 13.2006C2.40985 9.31639 3.81102 6.15932 6.59563 3.76491C9.38024 1.35276 12.8566 0.164429 17.0246 0.164429C20.5541 0.164429 23.6757 0.980301 26.4071 2.62978C29.1385 4.27926 31.2137 6.65593 32.6681 9.77753L23.658 15.063C22.3278 11.9414 20.1462 10.3806 17.0956 10.3806C15.8185 10.3806 14.843 10.6466 14.1868 11.161C13.5306 11.6753 13.1936 12.3493 13.1936 13.1474C13.1936 14.0697 13.6902 14.8501 14.6657 15.4886C15.6412 16.1271 17.5567 16.8721 20.4123 17.7057C22.4519 18.3087 24.1014 18.8763 25.343 19.3906C26.5845 19.905 27.9502 20.6677 29.4223 21.6432C30.8944 22.6187 32.0118 23.8957 32.7213 25.4387C33.4485 26.9818 33.8032 28.7909 33.8032 30.8838C33.8032 35.0164 32.3311 38.2444 29.4223 40.5678C26.4604 42.8736 22.5938 44.0264 17.7873 44.0264Z" fill="white"/>
<path d="M71.7047 1.05127L57.5156 26.9641V43.1396H46.7496V27.0882L32.5605 1.05127H44.639L52.0883 16.6238L59.6085 1.05127H71.7047Z" fill="white"/>
<path d="M98.2208 1.05127H108.916V43.1396H100.615L85.7699 21.9802V43.1396H75.0039V1.05127H83.3755L98.2208 22.2107V1.05127Z" fill="white"/>
<path d="M126.35 33.0299H142.649V43.1219H115.602V1.05127H142.348V11.09H126.35V16.9253H140.84V26.8399H126.35V33.0299Z" fill="white"/>
<path d="M169.698 43.1219L162.355 29.5359H158.506V43.1219H147.74V1.05127H164.572C168.864 1.05127 172.465 2.41697 175.356 5.1661C178.264 7.91524 179.719 11.3916 179.719 15.5951C179.719 18.1136 179.08 20.4371 177.803 22.53C176.526 24.6406 174.77 26.3078 172.571 27.5494L181.226 43.1219H169.698ZM158.524 10.9659V20.4016H164.483C165.814 20.4371 166.895 20.0292 167.729 19.1424C168.563 18.2555 168.988 17.1204 168.988 15.7192C168.988 14.3181 168.563 13.1829 167.729 12.2961C166.895 11.4093 165.814 10.9659 164.483 10.9659H158.524Z" fill="white"/>
<path d="M226.207 19.0182V23.2926C226.207 29.4649 224.273 34.4665 220.407 38.2976C216.54 42.1286 211.521 44.0442 205.349 44.0442C198.768 44.0442 193.377 41.9335 189.155 37.73C184.934 33.5265 182.806 28.3298 182.806 22.1575C182.806 15.9853 184.916 10.7708 189.12 6.53178C193.323 2.27505 198.538 0.164429 204.746 0.164429C208.665 0.164429 212.266 1.05125 215.529 2.80715C218.793 4.56304 221.347 6.92198 223.191 9.84848L214.057 15.0807C213.224 13.7505 211.982 12.704 210.368 11.8882C208.736 11.09 206.909 10.6821 204.87 10.6821C201.535 10.6821 198.822 11.764 196.693 13.9278C194.565 16.0917 193.501 18.8585 193.501 22.2284C193.501 25.4742 194.547 28.2233 196.658 30.4581C198.768 32.7106 201.713 33.828 205.526 33.828C210.421 33.828 213.649 31.9834 215.21 28.2943H204.994V19.0359H226.207V19.0182Z" fill="white"/>
<path d="M263.418 1.05127L249.228 26.9641V43.1396H238.463V27.0882L224.273 1.05127H236.352L243.801 16.6238L251.321 1.05127H263.418Z" fill="white"/>
<path d="M39.4706 92.2672C35.0862 96.6516 29.7254 98.8623 23.3883 98.8623C17.0696 98.8623 11.7088 96.6701 7.30598 92.2672C2.92157 87.8828 0.710938 82.5221 0.710938 76.1849C0.710938 69.8478 2.90315 64.5054 7.30598 60.1026C11.6904 55.7182 17.0512 53.5076 23.3883 53.5076C29.7254 53.5076 35.0678 55.6998 39.4706 60.1026C43.855 64.487 46.0656 69.8478 46.0656 76.1849C46.0656 82.5221 43.855 87.8644 39.4706 92.2672ZM12.372 87.3854C15.3564 90.3698 19.0223 91.8435 23.3883 91.8435C27.7543 91.8435 31.4387 90.3514 34.4046 87.3854C37.389 84.4011 38.8627 80.6799 38.8627 76.1849C38.8627 71.69 37.3705 67.9503 34.4046 64.9844C31.4203 62.0001 27.7543 60.5263 23.3883 60.5263C19.0223 60.5263 15.3379 62.0185 12.372 64.9844C9.38766 67.9688 7.91391 71.69 7.91391 76.1849C7.89548 80.6799 9.38766 84.4195 12.372 87.3854Z" fill="white"/>
<path d="M78.8373 54.3365H86.0218V98.0517H80.4031L59.789 68.3925V98.0517H52.6045V54.3365H58.2232L78.8373 83.9958V54.3365Z" fill="white"/>
<path d="M101.939 91.1619H119.735V98.0333H94.7549V54.3365H101.939V91.1619Z" fill="white"/>
<path d="M125.04 54.3365H132.225V98.0517H125.04V54.3365Z" fill="white"/>
<path d="M167.19 54.3365H174.374V98.0517H168.756L148.142 68.3925V98.0517H140.957V54.3365H146.576L167.19 83.9958V54.3365Z" fill="white"/>
<path d="M190.29 91.1619H209.652V98.0333H183.124V54.3365H209.357V61.2079H190.309V72.5742H207.791V79.3719H190.309V91.1619H190.29Z" fill="white"/>
<path d="M216.874 54.3365V97.9836H260.521V54.3365H216.874ZM223.635 91.2231V61.0971H253.761V91.2231H223.635Z" fill="#F8006B"/>
<path d="M243.256 90.1389V80.5826L238.834 76.1603L243.273 71.7041V62.1478L229.277 76.1603L243.256 90.1389Z" fill="#F8006B"/>
</svg>
