<svg width="123" height="39" viewBox="0 0 123 39" fill="none" xmlns="http://www.w3.org/2000/svg">
<path d="M50.0261 0.000732422C51.0784 0.000732422 52.1307 0.280154 53.0616 0.838997C53.1425 1.03858 53.183 1.47767 53.183 2.15627C53.183 2.83486 53.183 3.23404 53.0616 3.35379C51.726 2.59536 50.7141 2.19619 50.0261 2.19619C49.6213 2.19619 49.338 2.27602 49.0952 2.47561C48.8523 2.67519 48.7714 2.9147 48.7714 3.23404C48.7714 3.55338 48.8928 3.79288 49.1761 3.95255C49.4594 4.11222 49.9856 4.31181 50.7546 4.55131C51.1593 4.67106 51.5236 4.83073 51.8474 4.95048C52.1712 5.07024 52.495 5.26982 52.8188 5.54924C53.1425 5.78875 53.4259 6.148 53.6282 6.54718C53.8306 6.94635 53.9115 7.42536 53.9115 7.94429C53.9115 9.06197 53.5473 9.90024 52.7783 10.499C52.0093 11.0978 51.0379 11.4171 49.8642 11.4171C48.6095 11.4171 47.4762 11.1377 46.5453 10.5788C46.4644 10.3792 46.4239 9.94015 46.4239 9.26156C46.4239 8.58296 46.4239 8.14387 46.5453 8.02412C47.8809 8.78255 48.9333 9.18172 49.7832 9.18172C50.2284 9.18172 50.5927 9.06197 50.8355 8.9023C51.0784 8.74263 51.1998 8.46321 51.1998 8.14387C51.1998 7.82453 51.0784 7.62495 50.7951 7.46528C50.5117 7.30561 49.9856 7.10602 49.1761 6.8266C48.7714 6.70685 48.4476 6.54718 48.1238 6.42743C47.8 6.26776 47.4762 6.06817 47.1524 5.82867C46.8286 5.58916 46.5453 5.26982 46.3834 4.87065C46.181 4.47148 46.1001 4.03238 46.1001 3.55338C46.1001 2.55544 46.4644 1.71718 47.1524 1.0785C47.8809 0.399906 48.8523 0.0805671 50.107 0.0805671L50.0261 0.000732422Z" fill="#0062FE"/>
<path d="M61.4399 11.177C60.5494 11.3366 59.659 11.3366 58.7281 11.177V7.42475L54.7212 0.319459C55.1259 0.239624 55.6116 0.199707 56.1783 0.199707C56.7449 0.199707 57.2306 0.239624 57.6353 0.319459L60.1042 4.94987L62.5731 0.319459C62.9779 0.239624 63.4635 0.199707 64.0302 0.199707C64.5968 0.199707 65.0825 0.239624 65.4872 0.319459L61.4803 7.42475L61.4399 11.177Z" fill="#0062FE"/>
<path d="M76.8604 11.1769C76.1318 11.2966 75.4438 11.2966 74.7557 11.1769L69.6156 4.79008V11.1769C68.7251 11.3365 67.8347 11.3365 66.9038 11.1769V0.27942C67.6323 0.159668 68.3204 0.159668 69.0084 0.27942L74.1486 6.6662V0.27942C75.039 0.119751 75.9295 0.119751 76.8604 0.27942V11.1769Z" fill="#0062FE"/>
<path d="M87.0191 8.94161C87.1406 9.66012 87.1406 10.4185 87.0191 11.177H79.3291V0.279541H87.0191C87.1406 1.03797 87.1406 1.75648 87.0191 2.51491H82.0408V4.5507H86.4525C86.5739 5.30913 86.5739 6.02764 86.4525 6.78607H82.0408V8.94161H87.0191Z" fill="#0062FE"/>
<path d="M93.5352 0.319458C94.7899 0.319458 95.7613 0.638797 96.5303 1.31739C97.2993 1.99599 97.704 2.87417 97.704 3.91202C97.704 4.63053 97.5017 5.26921 97.1374 5.82805C96.7731 6.3869 96.247 6.78607 95.5994 7.06549L98.2707 11.1371C97.8659 11.2169 97.3803 11.2568 96.8136 11.2568C96.2065 11.2568 95.7208 11.2169 95.3566 11.1371L92.9281 7.46466H91.8758V11.177C90.9854 11.3366 90.095 11.3366 89.1641 11.177V0.279541L93.5352 0.319458ZM91.8353 5.26921H93.5352C93.94 5.26921 94.2638 5.14946 94.5471 4.90995C94.8304 4.67045 94.9518 4.35111 94.9518 3.8721C94.9518 3.43301 94.8304 3.07376 94.5471 2.83425C94.2638 2.59475 93.94 2.475 93.5757 2.475H91.8758L91.8353 5.26921Z" fill="#0062FE"/>
<path d="M106.487 5.82793C107.377 5.66826 108.268 5.66826 109.158 5.82793V10.5382C108.794 10.7378 108.268 10.9374 107.58 11.1369C106.892 11.2966 106.163 11.3764 105.435 11.3764C103.532 11.3764 102.035 10.8176 100.902 9.73983C99.7683 8.66207 99.2017 7.30488 99.2017 5.70818C99.2017 4.11149 99.7683 2.7543 100.902 1.67653C102.035 0.59876 103.573 0 105.475 0C106.811 0 107.904 0.279421 108.834 0.838264C108.915 1.03785 108.956 1.43702 108.956 2.0757C108.956 2.71438 108.956 3.11355 108.834 3.23331C107.701 2.55471 106.608 2.19545 105.637 2.19545C104.585 2.19545 103.735 2.51479 103.047 3.15347C102.359 3.79215 101.994 4.63041 101.994 5.66826C101.994 6.74603 102.318 7.5843 103.047 8.22297C103.735 8.86165 104.625 9.18099 105.637 9.18099C105.88 9.18099 106.204 9.14107 106.527 9.10116L106.487 5.82793Z" fill="#0062FE"/>
<path d="M117.091 11.177C116.201 11.3366 115.31 11.3366 114.379 11.177V7.42475L110.373 0.319459C110.777 0.239624 111.263 0.199707 111.83 0.199707C112.396 0.199707 112.882 0.239624 113.287 0.319459L115.756 4.94987L118.224 0.319459C118.629 0.239624 119.115 0.199707 119.682 0.199707C120.248 0.199707 120.734 0.239624 121.139 0.319459L117.132 7.42475L117.091 11.177Z" fill="#0062FE"/>
<path d="M58.3232 33.2911C60.4683 33.2911 62.7349 32.5326 65.1633 31.0557C65.3252 31.3351 65.4061 32.1734 65.3657 33.5705C65.3252 34.9676 65.2442 35.8458 65.1228 36.245C63.1801 37.4425 60.7921 38.0412 57.959 38.0412C53.952 38.0412 50.7141 36.8437 48.2857 34.5285C45.8573 32.2133 44.6431 29.2993 44.6431 25.8664C44.6431 22.4336 45.8573 19.5595 48.2857 17.2044C50.7141 14.8892 53.952 13.6917 57.959 13.6917C60.7921 13.6917 63.1801 14.2904 65.1228 15.4879C65.2847 15.8871 65.3252 16.7653 65.3657 18.1624C65.4061 19.5595 65.3252 20.3978 65.1633 20.6772C62.7349 19.2002 60.4683 18.4418 58.3232 18.4418C56.0972 18.4418 54.2758 19.1204 52.7783 20.4776C51.2808 21.8348 50.5927 23.7109 50.5927 25.9463C50.5927 28.1817 51.3213 29.9779 52.8188 31.3351C54.3163 32.6923 56.1376 33.3709 58.3637 33.3709L58.3232 33.2911Z" fill="#0062FE"/>
<path d="M79.3289 14.41C81.9597 14.41 84.1048 15.1285 85.7238 16.5656C87.3427 18.0026 88.1927 19.8388 88.1927 22.154C88.1927 23.7108 87.7879 25.068 86.9785 26.2256C86.169 27.4231 85.0762 28.3013 83.7001 28.9L89.4474 37.602C88.5974 37.7617 87.5451 37.8016 86.2904 37.8016C85.0357 37.8016 83.9834 37.7218 83.1334 37.602L77.9528 29.7383H75.6863V37.602C73.784 37.9214 71.8412 37.9214 69.939 37.602V14.3701L79.3289 14.41ZM75.6863 25.0281H79.3289C80.1788 25.0281 80.9074 24.7885 81.474 24.2696C82.0406 23.7507 82.324 23.0721 82.324 22.0742C82.324 21.0762 82.0406 20.3976 81.474 19.8787C80.9074 19.3598 80.2193 19.1203 79.3694 19.1203H75.7267L75.6863 25.0281Z" fill="#0062FE"/>
<path d="M123.001 37.6021C121.098 37.9214 119.236 37.9214 117.334 37.6021L114.42 24.5491L109.644 37.6021C108.106 37.8416 106.528 37.8416 104.99 37.6021L100.214 24.5491L97.2996 37.6021C95.3974 37.9214 93.5356 37.9214 91.6333 37.6021L97.2187 14.3702C98.8376 14.0908 100.497 14.0908 102.116 14.3702L107.337 28.5808L112.558 14.3702C114.177 14.0908 115.837 14.0908 117.456 14.3702L123.001 37.6021Z" fill="#0062FE"/>
<path d="M0 0.159912V37.6024H37.9645V0.159912H0ZM33.229 32.9321H4.73544V4.83024H33.229V32.9321ZM23.5962 31.2954L10.9684 18.8811L23.5962 6.42694V13.0532L17.6871 18.8811L23.5962 24.7091V31.2954Z" fill="#0CB0FF"/>
</svg>
