<svg width="144" height="27" viewBox="0 0 144 27" fill="none" xmlns="http://www.w3.org/2000/svg">
<path d="M16.4586 17.4779L12.3428 13.3364L16.4586 9.19499V4.46191L7.68436 13.3364L16.4586 22.2109V17.4779Z" fill="#ED1C24"/>
<path d="M26.5488 3.47216e-07H0V26.7146H26.5488V3.47216e-07ZM23.202 23.3468H3.30164V3.32226H23.202V23.3468Z" fill="#ED1C24"/>
<path d="M40.888 14.475C42.5162 14.475 43.9182 14.1109 45.0489 13.4283C45.1394 13.2007 45.1846 12.6546 45.1846 11.8354C45.1846 11.0162 45.1394 10.5156 45.0489 10.3336C43.6469 11.1983 42.3353 11.6534 41.0689 11.6534C39.8025 11.6534 38.717 11.2438 37.8577 10.4701C36.9984 9.65092 36.5913 8.60419 36.5913 7.28439C36.5913 5.96459 36.9984 4.87234 37.8577 4.09866C38.717 3.27947 39.7573 2.91539 41.0689 2.91539C42.29 2.91539 43.6469 3.3705 45.0489 4.23519C45.1394 4.05315 45.2299 3.59805 45.1846 2.73335C45.1846 1.91416 45.1394 1.36804 45.0489 1.14049C43.9182 0.457833 42.5162 0.0937498 40.888 0.0937498C38.5361 0.0937498 36.6818 0.776405 35.2797 2.18723C33.8776 3.55254 33.1992 5.28193 33.1992 7.3299C33.1992 9.37786 33.8776 11.0617 35.2797 12.4726C36.6818 13.7924 38.5361 14.475 40.888 14.475Z" fill="#333333"/>
<path d="M48.1713 0.414852V14.159C49.0758 14.2955 49.9352 14.2955 50.7945 14.159L57.1716 6.10364V14.159C58.3023 14.341 59.433 14.341 60.5185 14.159V0.414852C59.6139 0.27832 58.7546 0.27832 57.8953 0.414852L51.5181 8.47018V0.414852C50.4327 0.23281 49.302 0.23281 48.1713 0.414852Z" fill="#333333"/>
<path d="M63.7656 14.158C64.8963 14.34 66.027 14.34 67.1125 14.158V8.65125H72.766V14.2035C73.8967 14.3856 75.0274 14.3856 76.1129 14.2035V0.413875C74.9822 0.231834 73.8515 0.231834 72.766 0.413875V5.82961H67.1125V0.413875C65.9818 0.231834 64.8511 0.231834 63.7656 0.413875V14.158Z" fill="#333333"/>
<path d="M79.4163 14.1568H88.9594C89.1403 13.2011 89.1403 12.2909 88.9594 11.3352H82.7632V8.60456H88.1905C88.3715 7.69435 88.3715 6.73864 88.1905 5.78292H82.7632V3.18883H88.9142C89.0951 2.27862 89.0951 1.3229 88.9142 0.367188H79.3711V14.1568H79.4163Z" fill="#333333"/>
<path d="M100.86 1.68445C99.9106 0.819749 98.6894 0.410156 97.1517 0.410156H91.7695V14.1543C92.9002 14.3363 94.0309 14.3363 95.1164 14.1543V9.64876H97.1064C98.6442 9.64876 99.8653 9.23916 100.815 8.37447C101.765 7.50977 102.262 6.41752 102.262 5.05221C102.308 3.64139 101.81 2.54914 100.86 1.68445ZM97.1517 6.82712H95.1616V3.2318H97.1517C98.1467 3.2318 98.8703 3.82343 98.8703 5.05221C98.8703 6.23548 98.1467 6.82712 97.1517 6.82712Z" fill="#333333"/>
<path d="M104.797 14.1543C105.928 14.3363 107.058 14.3363 108.144 14.1543V3.2318H113.797C113.978 2.32159 113.978 1.36587 113.797 0.410156H104.797V14.1543Z" fill="#333333"/>
<path d="M125.231 14.158C126.362 14.34 127.492 14.34 128.578 14.158V0.413875C127.673 0.277344 126.814 0.277344 125.954 0.413875L119.577 8.46921V0.413875C118.447 0.231834 117.316 0.231834 116.23 0.413875V14.158C117.135 14.2945 117.994 14.2945 118.854 14.158L125.231 6.10267V14.158Z" fill="#333333"/>
<path d="M138.894 9.51223V14.1543C140.024 14.3363 141.155 14.3363 142.241 14.1543V4.5516V0.410156H136.723C135.185 0.410156 133.964 0.819749 133.014 1.68445C132.11 2.50363 131.612 3.59588 131.612 4.96119C131.612 6.7816 132.607 8.28345 134.235 9.01161L130.934 14.1543C131.431 14.2453 132.019 14.2908 132.743 14.2908C133.466 14.2908 134.1 14.2453 134.597 14.1543L137.311 9.96733L137.627 9.51223H138.894ZM136.813 6.69058C135.818 6.69058 135.095 6.09895 135.095 4.96119C135.095 3.82343 135.818 3.2318 136.813 3.2318H138.894V3.77792V6.69058H137.266H136.813Z" fill="#333333"/>
<path d="M33.9694 18.2489V26.4408H44.5075V18.2489C43.8291 18.1579 43.1506 18.1579 42.5174 18.2489V24.7569H40.256V18.2489C39.5776 18.1579 38.8992 18.1579 38.266 18.2489V24.7569H36.0046V18.2489C35.3262 18.1579 34.6478 18.1579 33.9694 18.2489Z" fill="#333333"/>
<path d="M46.5352 26.4417C47.2136 26.5327 47.892 26.5327 48.5252 26.4417V22.4823L51.3293 26.4417C51.6007 26.4872 52.0077 26.5327 52.5052 26.5327C53.0028 26.5327 53.4098 26.4872 53.6812 26.4417L50.6509 22.2092L53.5907 18.2043C53.3194 18.1588 52.9123 18.1133 52.4148 18.1133C51.9173 18.1133 51.5102 18.1588 51.2389 18.2043L48.5252 21.9362V18.2043C47.8468 18.1133 47.1683 18.1133 46.5352 18.2043V26.4417Z" fill="#333333"/>
<path d="M58.5763 26.6692C59.8426 26.6692 60.8829 26.2596 61.697 25.4404C62.5111 24.6213 62.9181 23.5745 62.9181 22.3913C62.9181 21.208 62.5111 20.1612 61.697 19.3421C60.8829 18.5229 59.8426 18.1133 58.5763 18.1133C57.3099 18.1133 56.2696 18.5229 55.4555 19.3421C54.6414 20.1612 54.2344 21.1625 54.2344 22.3913C54.2344 23.5745 54.6414 24.6213 55.4555 25.4404C56.2696 26.2141 57.3099 26.6692 58.5763 26.6692ZM56.9481 20.4798C57.4003 19.9792 57.9431 19.7517 58.5763 19.7517C59.2095 19.7517 59.7522 19.9792 60.2045 20.4798C60.6567 20.9349 60.8829 21.5721 60.8829 22.3913C60.8829 23.1649 60.6567 23.8021 60.2045 24.3027C59.7522 24.7578 59.2095 25.0309 58.5763 25.0309C57.9431 25.0309 57.4003 24.8033 56.9481 24.3027C56.4958 23.8021 56.2696 23.2104 56.2696 22.3913C56.3149 21.5721 56.541 20.9349 56.9481 20.4798Z" fill="#333333"/>
<path d="M69.6533 26.4419C70.3317 26.5329 71.0101 26.5329 71.6433 26.4419V18.25H65.7185L65.1305 23.9388C65.0853 24.5304 64.7687 24.849 64.3164 24.849C64.1807 24.849 64.0902 24.849 63.9546 24.8035C63.8641 25.3496 63.8641 25.9412 63.9546 26.4874C64.2259 26.5784 64.5425 26.6239 64.9043 26.6239C66.216 26.6239 66.9848 25.8047 67.1657 24.1208L67.5728 19.9339H69.6533V26.4419Z" fill="#333333"/>
<path d="M76.3909 18.2489L73.0893 26.4408C73.7677 26.5318 74.4913 26.5318 75.1697 26.4408L75.7577 24.8934H78.7428L79.3307 26.4408C80.0091 26.5318 80.6876 26.5318 81.4112 26.4408L78.1096 18.2489C77.5216 18.1579 76.9789 18.1579 76.3909 18.2489ZM76.3909 23.2096L77.2502 20.843L78.1096 23.2096H76.3909Z" fill="#333333"/>
<path d="M91.7616 19.9339C91.8521 19.3878 91.8521 18.8416 91.7616 18.25H86.2891V26.4419H89.5002C90.4048 26.4419 91.1285 26.1688 91.7164 25.7137C92.3044 25.2131 92.5757 24.5759 92.5757 23.8023C92.5757 23.0286 92.3044 22.3914 91.7164 21.8908C91.1737 21.3902 90.4048 21.1627 89.5002 21.1627H88.3243V19.9339H91.7616ZM89.5002 22.8465C90.0882 22.8465 90.5405 23.2106 90.5405 23.8023C90.5405 24.4394 90.0882 24.758 89.5002 24.758H88.3243V22.801H89.5002V22.8465Z" fill="#333333"/>
<path d="M101.446 26.4398V18.248C100.904 18.1569 100.406 18.1569 99.8634 18.248L96.0642 23.0721V18.248C95.3858 18.1569 94.7074 18.1569 94.0742 18.248V26.4398C94.617 26.5308 95.1145 26.5308 95.6572 26.4398L99.4563 21.6157V26.4398C100.09 26.5763 100.768 26.5763 101.446 26.4398Z" fill="#333333"/>
<path d="M107.728 22.2547C108.406 21.8906 108.858 21.1625 108.858 20.3433C108.858 18.978 107.728 18.1133 105.918 18.1133C104.923 18.1133 104.109 18.3408 103.431 18.7504C103.386 18.887 103.34 19.2055 103.34 19.7061C103.34 20.2068 103.386 20.4798 103.431 20.5708C104.29 20.0702 105.059 19.7972 105.783 19.7972C106.416 19.7972 106.823 20.1157 106.823 20.7074C106.823 21.2535 106.506 21.6176 105.964 21.6176H104.788C104.697 22.1637 104.697 22.6643 104.788 23.2104H106.009C106.642 23.2104 106.959 23.4835 106.959 24.0751C106.959 24.7123 106.371 25.0309 105.738 25.0309C104.969 25.0309 104.155 24.7578 103.34 24.2572C103.295 24.3482 103.25 24.6668 103.25 25.1219C103.25 25.6225 103.295 25.9411 103.34 26.0776C104.019 26.4872 104.878 26.7147 105.873 26.7147C106.823 26.7147 107.547 26.4872 108.135 26.0776C108.723 25.668 109.039 25.0764 109.039 24.3027C108.994 23.347 108.496 22.6188 107.728 22.2547Z" fill="#333333"/>
<path d="M115.969 18.2489V21.4802H112.622V18.2489C111.944 18.1579 111.265 18.1579 110.632 18.2489V26.4408C111.311 26.5318 111.989 26.5318 112.622 26.4408V23.1185H116.014V26.4408C116.693 26.5318 117.371 26.5318 118.004 26.4408V18.2489C117.326 18.1579 116.648 18.1579 115.969 18.2489Z" fill="#333333"/>
<path d="M125.64 19.9339C125.731 19.3878 125.731 18.8416 125.64 18.25H119.941V26.4419H125.64C125.731 25.8957 125.731 25.3041 125.64 24.758H121.977V23.1196H125.233C125.324 22.5735 125.324 22.0274 125.233 21.4357H121.977V19.9339H125.64Z" fill="#333333"/>
<path d="M131.565 19.7581C132.289 19.7581 133.103 20.0312 133.917 20.5318C133.962 20.4408 134.008 20.1222 134.008 19.6671C134.008 19.1665 133.962 18.8479 133.917 18.7114C133.239 18.3018 132.425 18.0742 131.43 18.0742C130.028 18.0742 128.942 18.4838 128.083 19.303C127.223 20.1222 126.816 21.1234 126.816 22.3522C126.816 23.581 127.223 24.5822 128.083 25.4014C128.942 26.2206 130.028 26.6302 131.43 26.6302C132.425 26.6302 133.239 26.4026 133.917 25.993C133.962 25.8565 134.008 25.5379 134.008 25.0373C134.008 24.5367 133.962 24.2636 133.917 24.1726C133.058 24.6732 132.289 24.9463 131.565 24.9463C130.796 24.9463 130.163 24.7187 129.666 24.2181C129.168 23.7175 128.897 23.1259 128.897 22.3067C128.897 21.533 129.168 20.8959 129.666 20.3952C130.163 19.9857 130.796 19.7581 131.565 19.7581Z" fill="#333333"/>
<path d="M138.665 18.248L135.363 26.4398C136.042 26.5308 136.765 26.5308 137.444 26.4398L138.032 24.8925H141.017L141.605 26.4398C142.283 26.5308 142.962 26.5308 143.685 26.4398L140.384 18.248C139.796 18.1569 139.208 18.1569 138.665 18.248ZM138.62 23.2086L139.479 20.842L140.338 23.2086H138.62Z" fill="#333333"/>
</svg>
