<svg width="223" height="55" viewBox="0 0 223 55" fill="none" xmlns="http://www.w3.org/2000/svg">
<path d="M216.92 24.4211C216.31 23.8411 216 23.1112 216 22.2512C216 21.3912 216.31 20.6712 216.92 20.0812C217.53 19.5012 218.3 19.2012 219.22 19.2012C220.14 19.2012 220.91 19.4912 221.52 20.0812C222.13 20.6612 222.44 21.3912 222.44 22.2512C222.44 23.1112 222.13 23.8311 221.52 24.4211C220.91 25.0011 220.14 25.3011 219.22 25.3011C218.3 25.3011 217.54 25.0111 216.92 24.4211Z" fill="#0AAEFD"/>
<path d="M32.13 32.6104L26.78 27.2605L32.13 21.9104V11.2105L16.08 27.2605L32.13 43.3105V32.6104Z" fill="#0AAEFD"/>
<path d="M0 0.480469V54.0305H53.55V0.480469H0ZM45.9 46.3805H7.65V8.13046H45.9V46.3805Z" fill="#0AAEFD"/>
<path d="M71.83 17.6888C71.83 17.2588 71.63 16.8788 71.22 16.5588C70.81 16.2388 70.29 15.9789 69.64 15.7689C68.99 15.5589 68.28 15.3388 67.49 15.0988C66.7 14.8588 65.92 14.5589 65.14 14.1989C64.36 13.8389 63.65 13.3989 63.01 12.8889C62.36 12.3789 61.84 11.6989 61.43 10.8389C61.02 9.97887 60.82 8.98886 60.82 7.85886C60.82 5.91886 61.66 4.21884 63.34 2.74884C65.02 1.27884 67.18 0.558838 69.8 0.558838C70.88 0.558838 71.9 0.678854 72.86 0.918854C73.82 1.15885 74.61 1.43883 75.22 1.76883C75.83 2.09883 76.37 2.42884 76.83 2.74884C77.29 3.07884 77.61 3.36884 77.79 3.61884L78.1 3.94885L74.36 7.85886C74.25 7.72886 74.09 7.55886 73.87 7.35886C73.66 7.15886 73.21 6.87883 72.53 6.51883C71.85 6.16883 71.16 5.98883 70.47 5.98883C69.74 5.98883 69.13 6.18885 68.65 6.59885C68.16 7.00885 67.92 7.47883 67.92 8.01883C67.92 8.44883 68.12 8.81885 68.53 9.13885C68.94 9.45885 69.46 9.71883 70.11 9.92883C70.76 10.1388 71.47 10.3688 72.24 10.6088C73.02 10.8488 73.8 11.1489 74.59 11.5089C75.38 11.8689 76.1 12.3088 76.74 12.8188C77.39 13.3288 77.91 14.0088 78.32 14.8688C78.73 15.7288 78.93 16.7188 78.93 17.8488C78.93 20.0488 78.06 21.8889 76.33 23.3889C74.6 24.8889 72.3 25.6389 69.43 25.6389C68.26 25.6389 67.13 25.4989 66.05 25.2189C64.96 24.9389 64.07 24.5989 63.37 24.1989C62.67 23.7989 62.05 23.4089 61.51 23.0089C60.97 22.6089 60.57 22.2688 60.32 21.9788L59.96 21.5688L63.68 17.6788C63.72 17.7488 63.8 17.8289 63.92 17.9489C64.04 18.0689 64.26 18.2588 64.6 18.5588C64.94 18.8588 65.29 19.1188 65.67 19.3488C66.05 19.5788 66.51 19.7789 67.08 19.9489C67.64 20.1289 68.21 20.2089 68.77 20.2089C69.67 20.2089 70.41 19.9589 70.98 19.4689C71.55 18.9789 71.83 18.3788 71.83 17.6888Z" fill="#0054D9"/>
<path d="M94.36 1.23883H101.31L92.84 16.4988V24.9689H86.4V16.4988L77.93 1.23883H84.88L89.63 10.3889L94.36 1.23883Z" fill="#0054D9"/>
<path d="M118.42 1.23883H124.86V24.9689H119.3L109.11 11.7488V24.9689H102.67V1.23883H108.26L118.42 14.4589V1.23883Z" fill="#0054D9"/>
<path d="M147.57 19.5388V24.9689H128.93V1.23883H147.23V6.66885H135.36V10.3889H144.51V15.4888H135.36V19.5388H147.57Z" fill="#0054D9"/>
<path d="M150.28 1.23883H161.47C163.97 1.23883 166.04 2.01886 167.67 3.57886C169.3 5.13886 170.11 7.06885 170.11 9.37885C170.11 10.3288 169.97 11.2088 169.69 12.0388C169.41 12.8688 169.07 13.5288 168.67 14.0388C168.27 14.5488 167.88 14.9888 167.48 15.3488C167.08 15.7088 166.75 15.9489 166.49 16.0889L166.04 16.3389L170.96 24.9788H164.19L160.12 17.5189H156.73V24.9788H150.28V1.23883ZM162.96 11.0688C163.43 10.6188 163.67 10.0488 163.67 9.36884C163.67 8.68884 163.43 8.12883 162.96 7.67883C162.49 7.22883 161.87 7.00885 161.12 7.00885H156.72V11.7388H161.12C161.87 11.7488 162.49 11.5188 162.96 11.0688Z" fill="#0054D9"/>
<path d="M185.19 25.6489C181.51 25.6489 178.38 24.4189 175.81 21.9489C173.24 19.4789 171.96 16.5388 171.96 13.0988C171.96 9.66882 173.24 6.71884 175.81 4.24884C178.37 1.77884 181.5 0.548828 185.19 0.548828C186.46 0.548828 187.67 0.718828 188.82 1.04883C189.97 1.37883 190.91 1.77883 191.66 2.23883C192.41 2.69883 193.06 3.16885 193.61 3.62885C194.17 4.08885 194.57 4.48885 194.81 4.81885L195.19 5.29883L191.28 9.36884C191.21 9.27884 191.12 9.16884 191.02 9.02884C190.91 8.88884 190.66 8.64883 190.26 8.29883C189.86 7.94883 189.45 7.63884 189.02 7.36884C188.59 7.09884 188.02 6.85885 187.32 6.63885C186.62 6.41885 185.91 6.31885 185.19 6.31885C183.25 6.31885 181.63 6.95884 180.34 8.24884C179.05 9.53884 178.4 11.1489 178.4 13.0889C178.4 15.0289 179.05 16.6488 180.34 17.9388C181.63 19.2288 183.25 19.8788 185.19 19.8788C186.01 19.8788 186.75 19.7589 187.42 19.5089C188.09 19.2589 188.57 18.9989 188.84 18.7189L189.24 18.3588V15.8088H185.52V11.7388H195.7V20.8889C195.61 21.0189 195.46 21.1988 195.25 21.4088C195.04 21.6188 194.6 22.0088 193.94 22.5488C193.28 23.0988 192.57 23.5788 191.81 23.9988C191.05 24.4188 190.07 24.7988 188.88 25.1288C187.69 25.4788 186.46 25.6489 185.19 25.6489Z" fill="#0054D9"/>
<path d="M212.45 1.23883H219.4L210.93 16.4988V24.9689H204.49V16.4988L196.02 1.23883H202.97L207.72 10.3889L212.45 1.23883Z" fill="#0054D9"/>
<path d="M73.37 29.7383C74.57 29.7383 75.73 29.8984 76.83 30.2084C77.93 30.5184 78.85 30.9083 79.57 31.3583C80.29 31.8083 80.93 32.2584 81.47 32.6984C82.01 33.1384 82.41 33.5184 82.66 33.8384L83.02 34.2983L80.65 36.6783C80.58 36.5883 80.49 36.4683 80.36 36.3083C80.23 36.1483 79.94 35.8584 79.49 35.4384C79.04 35.0184 78.55 34.6583 78.03 34.3583C77.51 34.0583 76.84 33.7784 76 33.5184C75.17 33.2584 74.29 33.1284 73.36 33.1284C70.9 33.1284 68.81 33.9784 67.1 35.6884C65.39 37.3884 64.53 39.4784 64.53 41.9384C64.53 44.3984 65.38 46.4884 67.09 48.1984C68.79 49.9084 70.88 50.7584 73.35 50.7584C74.28 50.7584 75.16 50.6283 76.01 50.3683C76.86 50.1083 77.55 49.7983 78.11 49.4283C78.67 49.0583 79.16 48.6983 79.58 48.3483C80.01 47.9883 80.32 47.6883 80.53 47.4283L80.79 47.0184L83.17 49.3984C83.08 49.5284 82.95 49.7083 82.77 49.9183C82.59 50.1283 82.18 50.5083 81.56 51.0483C80.94 51.5883 80.27 52.0683 79.57 52.4883C78.87 52.9083 77.95 53.2883 76.82 53.6183C75.69 53.9583 74.53 54.1183 73.34 54.1183C69.79 54.1183 66.81 52.9384 64.4 50.5784C62 48.2184 60.79 45.3283 60.79 41.9183C60.79 38.5083 61.99 35.6284 64.4 33.2584C66.83 30.9184 69.81 29.7383 73.37 29.7383Z" fill="#0054D9"/>
<path d="M86.57 53.7983V30.0684H96.57C98.77 30.0684 100.59 30.7683 102.03 32.1683C103.48 33.5683 104.2 35.2983 104.2 37.3683C104.2 38.3383 104.03 39.2484 103.7 40.0884C103.37 40.9284 102.97 41.5984 102.51 42.0784C102.05 42.5684 101.58 42.9883 101.12 43.3483C100.66 43.7083 100.26 43.9584 99.93 44.0884L99.45 44.3083L104.88 53.7883H100.81L95.73 44.6384H90.3V53.7883H86.57V53.7983ZM99.34 40.1384C100.08 39.3984 100.46 38.4683 100.46 37.3583C100.46 36.2483 100.09 35.3184 99.34 34.5784C98.6 33.8284 97.67 33.4584 96.57 33.4584H90.3V41.2484H96.57C97.67 41.2484 98.6 40.8784 99.34 40.1384Z" fill="#0054D9"/>
<path d="M121.3 41.5983L130.45 30.0583H133.68V53.7883H129.96V36.5084L121.3 47.3483L112.66 36.5084V53.7883H108.94V30.0583H112.15L121.3 41.5983Z" fill="#0054D9"/>
</svg>
