<svg width="20" height="20" viewBox="0 0 20 20" fill="none" xmlns="http://www.w3.org/2000/svg">
<circle cx="10" cy="10" r="10" fill="white"/>
<path d="M7.5 9.33333C8.27778 10.8889 9.61111 12.1667 11.1667 13L12.3889 11.7778C12.5556 11.6111 12.7778 11.5556 12.9444 11.6667C13.5556 11.8889 14.2222 12 14.9444 12C15.2222 12 15.5 12.2222 15.5 12.5556V14.4444C15.5 14.7222 15.2222 15 14.9444 15C9.72222 15 5.5 10.7778 5.5 5.55556C5.5 5.27778 5.77778 5 6.05556 5H8C8.33333 5 8.55556 5.27778 8.55556 5.55556C8.55556 6.27778 8.66667 6.88889 8.88889 7.55556C8.94444 7.72222 8.88889 7.94444 8.72222 8.11111L7.5 9.33333Z" fill="#20096A"/>
</svg>
