<svg width="33" height="26" viewBox="0 0 33 26" fill="none" xmlns="http://www.w3.org/2000/svg">
<path d="M0.350334 12.2275C6.59465 8.15719 12.839 4.11678 19.0833 0.0763692C19.6993 -0.133133 20.0633 0.0763692 20.2873 0.854522C20.2873 1.96189 20.2873 3.06926 20.2873 4.17663H20.3154H31.1519C32.328 6.84031 33 9.83321 33 12.9757C33 16.1482 32.328 19.1411 31.1519 21.8347H20.3154H20.2873C20.2873 22.9421 20.2873 24.0195 20.2873 25.1269C20.2873 25.7554 19.5873 26.2043 19.0833 25.9051C12.839 21.8347 6.59465 17.7943 0.350334 13.7539C-0.0136871 13.305 -0.209698 12.7064 0.350334 12.2275Z" fill="#000051"/>
</svg>
