<svg width="484" height="67" viewBox="0 0 484 67" fill="none" xmlns="http://www.w3.org/2000/svg">
<path d="M122.199 32.4C118.599 29.7 115.899 28.5 111.599 27.1C107.599 25.9 104.899 24.8 103.399 24C101.999 23.1 101.299 21.9 101.299 20.2C101.299 16.9 103.899 14.9 107.899 14.9C111.499 14.9 116.899 16.9 123.799 21C124.199 20.3 124.499 18.2 124.399 14.6C124.299 11 124.099 8.7 123.799 7.5C118.699 4.6 113.399 3.1 107.799 3.1C101.299 3.1 96.199 4.9 92.499 8.4C88.899 11.9 86.999 16.4 86.999 21.6C86.999 26.8 88.999 31 92.399 33.8C95.899 36.6 98.799 37.8 102.999 39.2C107.299 40.6 110.299 41.8 111.599 42.6C112.899 43.4 113.599 44.6 113.599 46.2C113.599 49.5 111.099 51.6 106.199 51.6C101.899 51.6 96.299 49.6 89.299 45.5C88.899 46.2 88.599 48.4 88.699 52.1C88.799 55.7 88.999 58 89.299 59C94.199 61.9 99.999 63.4 106.699 63.4C112.799 63.4 117.899 61.8 121.899 58.7C125.899 55.5 127.899 51 127.899 45.1C127.899 39.4 125.799 35 122.199 32.4Z" fill="white"/>
<path d="M181.699 3.9C178.699 3.9 176.099 4.1 174.099 4.4L161.099 28.9L148.099 4.4C146.099 4 143.599 3.9 140.599 3.9C137.599 3.9 134.999 4.1 132.999 4.4L153.999 42.1V62.1C158.699 62.9 163.499 62.9 168.199 62.1V42.1L189.199 4.4C187.199 4 184.699 3.9 181.699 3.9Z" fill="white"/>
<path d="M235.999 4.4V38.2L209.099 4.4C205.499 3.8 201.699 3.8 197.999 4.4V62.1C202.699 62.9 207.499 62.9 212.199 62.1V28.3L239.099 62.1C242.699 62.7 246.499 62.7 250.199 62.1V4.4C245.499 3.6 240.699 3.6 235.999 4.4Z" fill="white"/>
<path d="M302.499 50.3H276.499V38.8H299.499C300.199 34.9 300.199 31 299.499 27H276.499V16.2H302.499C303.199 12.3 303.199 8.4 302.499 4.4H262.299V62.1H302.499C303.199 58.1 303.199 54.2 302.499 50.3Z" fill="white"/>
<path d="M326.599 62.1V42.6H332.099L344.799 62.1C346.799 62.5 349.299 62.6 352.399 62.6C355.499 62.6 358.199 62.4 360.199 62.1L346.199 40.5C352.999 37.4 357.199 31.3 357.199 23.6C357.199 17.9 355.199 13.3 351.199 9.8C347.199 6.2 341.999 4.5 335.499 4.5H312.399V62.2C317.099 62.9 321.899 62.9 326.599 62.1ZM326.599 16.2H335.499C339.699 16.2 342.799 18.8 342.799 23.5C342.799 28.2 339.699 30.8 335.499 30.8H326.599V16.2Z" fill="white"/>
<path d="M399.599 63.4C403.399 63.4 407.099 63 410.799 62.1C414.399 61.2 417.199 60.1 419.099 59V34C414.399 33.2 409.799 33.2 405.199 34V51.5C403.399 51.8 401.799 51.9 400.499 51.9C395.099 51.9 390.699 50.2 386.999 46.8C383.399 43.4 381.599 38.9 381.599 33.2C381.599 27.6 383.399 23.2 386.999 19.9C390.599 16.5 395.099 14.8 400.499 14.8C405.699 14.8 411.299 16.7 417.299 20.3C417.699 19.6 417.999 17.5 417.899 14.1C417.799 10.6 417.599 8.4 417.299 7.4C412.499 4.5 406.699 3 399.699 3C389.899 3 381.999 5.9 375.999 11.7C370.099 17.5 367.099 24.7 367.099 33.2C367.099 41.7 369.999 48.9 375.999 54.7C381.799 60.5 389.699 63.4 399.599 63.4Z" fill="white"/>
<path d="M448.799 62.1C453.499 62.9 458.299 62.9 462.999 62.1V42.1L483.999 4.4C481.999 4 479.499 3.9 476.499 3.9C473.499 3.9 470.899 4.1 468.899 4.4L455.899 28.9L442.899 4.4C440.899 4 438.399 3.9 435.399 3.9C432.399 3.9 429.799 4 427.799 4.4L448.799 42.1V62.1Z" fill="white"/>
<path d="M0 0.379883V66.2048H65.6699V0.379883H0ZM10.1726 56.0374V10.5765H55.5265V56.0374H10.1726Z" fill="#F8006B"/>
<path d="M39.6994 54.4008V39.9971L33.0537 33.3065L39.7286 26.5867V12.1829L18.6547 33.3065L39.6994 54.4008Z" fill="#F8006B"/>
</svg>
