<svg width="100" height="100" viewBox="0 0 100 100" fill="none" xmlns="http://www.w3.org/2000/svg">
<circle cx="50" cy="50" r="22" fill="#F8006B"/>
<path d="M87.6548 54.2924C87.0912 59.2373 85.559 64.0228 83.1459 68.3756C80.7328 72.7284 77.486 76.5633 73.5908 79.6613C69.6957 82.7593 65.2284 85.0598 60.4442 86.4314C55.66 87.8029 50.6525 88.2188 45.7076 87.6551L46.6192 79.6573C50.5139 80.1013 54.4578 79.7738 58.2259 78.6935C61.994 77.6133 65.5124 75.8014 68.5802 73.3614C71.6481 70.9214 74.2053 67.901 76.1059 64.4727C78.0064 61.0445 79.2131 57.2754 79.6571 53.3808L87.6548 54.2924Z" fill="#D0D0D0"/>
<path d="M18.4091 40.2599C20.6179 33.0957 25.1964 26.8951 31.3931 22.6754C37.5899 18.4558 45.0369 16.4677 52.5122 17.0375L52.2865 19.9992C45.4828 19.4806 38.7049 21.29 33.0649 25.1305C27.425 28.9711 23.2579 34.6146 21.2475 41.1351L18.4091 40.2599Z" fill="#D0D0D0"/>
</svg>
