<svg width="100" height="100" viewBox="0 0 100 100" fill="none" xmlns="http://www.w3.org/2000/svg">
<circle cx="49.999" cy="49.9999" r="22" fill="#F8006B"/>
<path d="M81.6759 70.8076C76.9036 78.0726 69.7791 83.4764 61.4964 86.1131C53.2138 88.7499 44.2765 88.4594 36.1826 85.2904C28.0886 82.1213 21.33 76.2663 17.0396 68.7068C12.7492 61.1472 11.1877 52.3426 12.6169 43.7687L20.5569 45.0922C19.4312 51.8451 20.6611 58.7796 24.0402 64.7336C27.4194 70.6875 32.7425 75.2989 39.1173 77.7949C45.4921 80.2908 52.5312 80.5196 59.0546 78.4429C65.578 76.3662 71.1894 72.1101 74.948 66.3882L81.6759 70.8076Z" fill="#D0D0D0"/>
<path d="M63.2944 19.733C70.1585 22.748 75.7938 28.0066 79.2759 34.6459C82.7579 41.2852 83.8798 48.911 82.4575 56.2718L79.5412 55.7083C80.8357 49.0088 79.8146 42.0683 76.6454 36.0255C73.4762 29.9827 68.3472 25.1966 62.0999 22.4525L63.2944 19.733Z" fill="#D0D0D0"/>
</svg>
