<svg width="100" height="100" viewBox="0 0 100 100" fill="none" xmlns="http://www.w3.org/2000/svg">
<circle cx="50" cy="49.9999" r="22" fill="#F8006B"/>
<path d="M84.7018 65.2415C82.3358 70.6281 78.7482 75.3898 74.2231 79.1497C69.698 82.9095 64.3598 85.5643 58.631 86.9037C52.9022 88.2431 46.9403 88.2304 41.2172 86.8665C35.4942 85.5027 30.1673 82.8252 25.6583 79.0461C21.1493 75.2669 17.5821 70.4899 15.2391 65.0933C12.8961 59.6967 11.8417 53.8287 12.1593 47.954C12.4769 42.0793 14.1579 36.3593 17.0691 31.2468C19.9803 26.1342 24.0418 21.7697 28.932 18.4987L33.4073 25.1895C29.5558 27.7657 26.3569 31.2032 24.0641 35.2299C21.7712 39.2565 20.4472 43.7617 20.1971 48.3886C19.9469 53.0156 20.7774 57.6372 22.6228 61.8876C24.4681 66.138 27.2777 69.9003 30.829 72.8768C34.3803 75.8533 38.5758 77.9621 43.0833 79.0363C47.5907 80.1104 52.2864 80.1205 56.7984 79.0655C61.3104 78.0106 65.5149 75.9197 69.0788 72.9584C72.6428 69.9971 75.4684 66.2468 77.3319 62.0043L84.7018 65.2415Z" fill="#D0D0D0"/>
<path d="M63.2944 19.733C69.6513 22.5252 74.9677 27.2481 78.4895 33.2318C82.0113 39.2154 83.5597 46.1561 82.9151 53.0692L79.9577 52.7935C80.5444 46.5014 79.1351 40.1844 75.9297 34.7384C72.7244 29.2924 67.8856 24.9938 62.0999 22.4525L63.2944 19.733Z" fill="#D0D0D0"/>
</svg>
