<svg width="94" height="94" viewBox="0 0 94 94" fill="none" xmlns="http://www.w3.org/2000/svg">
<circle cx="46.999" cy="47" r="22" fill="#F8006B"/>
<path d="M23.9937 19.2604C27.6365 16.2393 31.8387 13.9652 36.3604 12.5681C40.8821 11.171 45.6347 10.6782 50.3468 11.1178C55.0589 11.5574 59.6383 12.9208 63.8236 15.1302C68.0088 17.3396 71.7178 20.3517 74.739 23.9945L68.8472 28.8808C66.4677 26.0117 63.5465 23.6394 60.2502 21.8992C56.9539 20.1591 53.3471 19.0853 49.6358 18.739C45.9245 18.3928 42.1813 18.781 38.62 19.8813C35.0588 20.9817 31.7491 22.7728 28.88 25.1522L23.9937 19.2604Z" fill="#D0D0D0"/>
<path d="M40.8565 79.4826C35.7119 78.5098 30.872 76.3289 26.7352 73.1196C22.5984 69.9102 19.283 65.7642 17.0621 61.0228L19.7519 59.7629C21.7733 64.0782 24.7907 67.8518 28.5559 70.7727C32.321 73.6937 36.726 75.6786 41.4084 76.564L40.8565 79.4826Z" fill="#D0D0D0"/>
</svg>
