<svg width="44" height="26" viewBox="0 0 44 26" fill="none" xmlns="http://www.w3.org/2000/svg">
<path d="M14.9316 2.77297C14.2148 1.22951 12.0205 1.22951 11.3037 2.77298L9.01279 7.70606L3.6132 8.36048C1.92377 8.56524 1.24571 10.6521 2.49213 11.8108L6.47583 15.514L5.42965 20.8516C5.10232 22.5216 6.87754 23.8113 8.36466 22.984L13.1177 20.3396L17.8707 22.984C19.3578 23.8114 21.133 22.5216 20.8057 20.8516L19.7595 15.514L23.7432 11.8108C24.9897 10.6521 24.3116 8.56524 22.6222 8.36048L17.2226 7.70606L14.9316 2.77297Z" fill="white" stroke="#121566" stroke-width="2"/>
<path d="M33.5468 2.772C32.8301 1.22853 30.6358 1.22854 29.919 2.772L27.628 7.70509L22.2284 8.35951C20.539 8.56426 19.8609 10.6512 21.1074 11.8098L25.0911 15.5131L24.0449 20.8506C23.7176 22.5206 25.4928 23.8104 26.9799 22.983L31.7329 20.3386L36.4859 22.983C37.9731 23.8104 39.7483 22.5206 39.4209 20.8506L38.3748 15.5131L42.3585 11.8098C43.6049 10.6511 42.9268 8.56426 41.2374 8.35951L35.8378 7.70509L33.5468 2.772Z" fill="white" stroke="#121566" stroke-width="2"/>
</svg>
