<svg width="70" height="70" viewBox="0 0 70 70" fill="none" xmlns="http://www.w3.org/2000/svg">
<rect x="2.75802" y="7.09982" width="64.1873" height="59.7299" rx="4.9032" stroke="black" stroke-width="4.45746"/>
<rect x="13.0102" y="0.414062" width="9.8064" height="8.91491" rx="4.45746" fill="black"/>
<rect x="29.9485" y="0.414062" width="9.8064" height="8.91491" rx="4.45746" fill="black"/>
<rect x="46.8868" y="0.414062" width="9.8064" height="8.91491" rx="4.45746" fill="black"/>
<rect x="15.6846" y="3.08876" width="4.45746" height="10.6979" rx="2.22873" fill="#F0F0F0" stroke="black" stroke-width="1.78298"/>
<rect x="32.623" y="3.08876" width="4.45746" height="10.6979" rx="2.22873" fill="#F0F0F0" stroke="black" stroke-width="1.78298"/>
<rect x="49.5613" y="3.08876" width="4.45746" height="10.6979" rx="2.22873" fill="#F0F0F0" stroke="black" stroke-width="1.78298"/>
<rect x="2.31229" y="20.0273" width="64.1874" height="1.78298" fill="black"/>
<rect x="13.0102" y="41.4227" width="3.56596" height="3.56596" stroke="black" stroke-width="1.78298"/>
<rect x="23.708" y="41.4227" width="3.56596" height="3.56596" stroke="black" stroke-width="1.78298"/>
<rect x="23.708" y="30.7245" width="3.56596" height="3.56596" stroke="black" stroke-width="1.78298"/>
<rect x="55.8017" y="30.7245" width="3.56596" height="3.56596" stroke="black" stroke-width="1.78298"/>
<rect x="55.8017" y="41.4227" width="3.56596" height="3.56596" stroke="black" stroke-width="1.78298"/>
<rect x="13.0102" y="52.121" width="3.56596" height="3.56596" stroke="black" stroke-width="1.78298"/>
<rect x="23.708" y="52.121" width="3.56596" height="3.56596" stroke="black" stroke-width="1.78298"/>
<rect x="34.406" y="52.121" width="3.56596" height="3.56596" stroke="black" stroke-width="1.78298"/>
<rect x="45.1038" y="52.121" width="3.56596" height="3.56596" stroke="black" stroke-width="1.78298"/>
<rect x="55.8017" y="52.121" width="3.56596" height="3.56596" stroke="black" stroke-width="1.78298"/>
<path d="M41.1717 28.0583C41.4881 27.3605 42.4792 27.3605 42.7955 28.0583L45.1343 33.2167C45.2641 33.5028 45.5348 33.6996 45.8471 33.7345L51.4757 34.3648C52.2371 34.4501 52.5434 35.3927 51.9775 35.9092L47.7943 39.7276C47.5623 39.9394 47.4589 40.2577 47.5221 40.5654L48.662 46.1133C48.8162 46.8638 48.0144 47.4464 47.3482 47.0678L42.4241 44.2693C42.151 44.1141 41.8163 44.1141 41.5431 44.2693L36.619 47.0678C35.9529 47.4464 35.1511 46.8638 35.3053 46.1133L36.4451 40.5654C36.5084 40.2577 36.405 39.9394 36.1729 39.7276L31.9897 35.9092C31.4239 35.3927 31.7301 34.4501 32.4916 34.3648L38.1202 33.7345C38.4324 33.6996 38.7032 33.5028 38.8329 33.2167L41.1717 28.0583Z" fill="#F8006B"/>
</svg>
