<svg width="222" height="107" viewBox="0 0 222 107" fill="none" xmlns="http://www.w3.org/2000/svg">
<path d="M0.984 82.992V99H6.336C9.912 99 11.544 96.456 11.544 93.648C11.544 90.84 9.912 88.32 6.336 88.32H5.232V86.688H10.608V82.992H0.984ZM5.856 92.016C6.696 92.016 7.248 92.616 7.248 93.672C7.248 94.704 6.696 95.304 5.856 95.304H5.232V92.016H5.856ZM17.9303 99.288C21.9143 99.288 23.7623 95.856 23.7623 91.008C23.7623 86.16 21.9143 82.728 17.9303 82.728C13.9463 82.728 12.0983 86.16 12.0983 91.008C12.0983 95.856 13.9463 99.288 17.9303 99.288ZM17.9303 95.544C16.8023 95.544 16.4183 93.72 16.4183 91.008C16.4183 88.272 16.8023 86.472 17.9303 86.472C19.0583 86.472 19.4423 88.272 19.4423 91.008C19.4423 93.72 19.0583 95.544 17.9303 95.544ZM23.9246 99.288C26.9726 99.288 29.4206 98.208 29.7566 91.728L30.0206 86.688H31.1726V99H35.4206V82.992H26.1326L25.5326 91.728C25.2926 95.184 24.7406 95.544 23.9246 95.544V99.288ZM37.1781 82.992V99H42.5301C46.1061 99 47.7381 96.456 47.7381 93.648C47.7381 90.84 46.1061 88.32 42.5301 88.32H41.4261V82.992H37.1781ZM42.0501 92.016C42.8901 92.016 43.4421 92.616 43.4421 93.672C43.4421 94.704 42.8901 95.304 42.0501 95.304H41.4261V92.016H42.0501ZM61.2043 82.992V95.304H59.2843V82.992H55.0363V95.304H53.1163V82.992H48.8683V99H65.4523V82.992H61.2043ZM75.2777 99V95.304H71.4617V92.736H75.1097V89.04H71.4617V86.688H75.2777V82.992H67.2137V99H75.2777ZM84.1474 82.992H79.8994V88.344C79.8994 91.152 81.5314 93.672 84.7234 93.672C85.5394 93.672 85.9954 93.576 86.4274 93.432V99H90.6754V82.992H86.4274V89.856C86.1394 89.928 85.9234 89.976 85.5394 89.976C84.6994 89.976 84.1474 89.376 84.1474 88.32V82.992ZM100.456 99V95.304H96.6401V92.736H100.288V89.04H96.6401V86.688H100.456V82.992H92.3921V99H100.456ZM116.087 99V82.992H110.927L108.983 89.424L107.135 82.992H101.879V99H106.127V91.296L108.335 99H109.655L111.911 91.296V99H116.087Z" fill="#F8006B"/>
<path d="M131.137 99V97.32C135.337 96.72 137.305 94.272 137.305 91.008C137.305 87.744 135.337 85.296 131.137 84.696V82.992H126.913V84.696C122.713 85.296 120.745 87.744 120.745 91.008C120.745 94.272 122.713 96.72 126.913 97.32V99H131.137ZM133.009 91.008C133.009 92.16 132.481 93.048 131.137 93.456V88.56C132.481 88.992 133.009 89.88 133.009 91.008ZM125.065 91.008C125.065 89.88 125.569 88.992 126.913 88.56V93.456C125.569 93.048 125.065 92.16 125.065 91.008ZM143.751 99.288C147.735 99.288 149.583 95.856 149.583 91.008C149.583 86.16 147.735 82.728 143.751 82.728C139.767 82.728 137.919 86.16 137.919 91.008C137.919 95.856 139.767 99.288 143.751 99.288ZM143.751 95.544C142.623 95.544 142.239 93.72 142.239 91.008C142.239 88.272 142.623 86.472 143.751 86.472C144.879 86.472 145.263 88.272 145.263 91.008C145.263 93.72 144.879 95.544 143.751 95.544ZM155.018 99V93.672H156.122C159.698 93.672 161.33 91.152 161.33 88.344C161.33 85.536 159.698 82.992 156.122 82.992H150.77V99H155.018ZM155.642 89.976H155.018V86.688H155.642C156.482 86.688 157.034 87.288 157.034 88.32C157.034 89.376 156.482 89.976 155.642 89.976ZM163.152 99.288C166.2 99.288 167.112 97.608 168.312 94.392L172.536 82.992L168.024 82.968L166.488 88.44L164.928 82.992H160.464L164.232 93.216L163.848 94.248C163.656 94.752 163.296 95.544 162.528 95.544C162.216 95.544 161.736 95.424 161.424 95.16L160.464 98.64C161.232 99.144 162.24 99.288 163.152 99.288ZM187.326 99V82.992H182.166L180.222 89.424L178.374 82.992H173.118V99H177.366V91.296L179.574 99H180.894L183.15 91.296V99H187.326Z" fill="white"/>
<path d="M182.801 38.376V70.001H214.351V38.376H182.801ZM187.688 65.1162V43.2748H209.478V65.1162H187.688Z" fill="#F8006B"/>
<path d="M201.873 64.3301V57.4099L198.68 54.1954L201.887 50.967V44.0468L191.762 54.1954L201.873 64.3301Z" fill="#F8006B"/>
<path d="M14.7514 32.8337C23.2691 32.8337 28.4559 28.789 28.4559 21.794C28.4559 9.99287 10.8018 12.5625 10.8018 9.5646C10.8018 8.75566 11.3252 8.13705 13.2287 8.13705C16.2265 8.13705 19.7954 9.18392 22.5553 11.2777L27.6945 4.473C24.0781 1.52272 19.4147 0.0475845 14.2279 0.0475845C5.51987 0.0475845 1.04687 5.18678 1.04687 10.5639C1.04687 23.0788 18.7485 19.9857 18.7485 23.0312C18.7485 24.2684 17.0355 24.7442 15.2272 24.7442C10.9446 24.7442 7.37569 22.936 4.99643 20.6519L0 27.7897C3.37854 30.8351 7.99429 32.8337 14.7514 32.8337Z" fill="white"/>
<path d="M49.2275 32.2627V19.6526L61.0286 0.523435H50.2268L44.4214 11.2301L38.5209 0.523435H27.7191L39.6153 19.6526V32.2627H49.2275Z" fill="white"/>
<path d="M93.2943 32.2627V0.523435H83.6821V15.5603L72.6423 0.523435H62.7446V32.2627H72.3568V16.1789L84.0628 32.2627H93.2943Z" fill="white"/>
<path d="M122.511 32.2627V23.8877H108.046V20.414H122.178V12.039H108.046V8.89841H122.511V0.523435H98.4334V32.2627H122.511Z" fill="white"/>
<path d="M155.188 32.2627L149.431 21.0326C151.953 19.7954 155.141 16.8927 155.141 11.4204C155.141 5.47229 151.144 0.523435 143.72 0.523435H126.78V32.2627H136.392V22.2698H139.866L144.244 32.2627H155.188ZM142.245 13.8948H136.392V8.89841H142.245C143.863 8.89841 145.386 9.65977 145.386 11.3728C145.386 13.1335 143.863 13.8948 142.245 13.8948Z" fill="white"/>
<path d="M174.781 32.8337C181.014 32.8337 185.773 30.3117 189.294 26.4097V13.419H173.829V21.794H179.73V22.936C178.73 23.6974 176.589 24.3636 174.781 24.3636C170.165 24.3636 167.072 20.8423 167.072 16.4169C167.072 11.9914 170.165 8.47015 174.781 8.47015C177.636 8.47015 179.73 10.4687 180.634 12.4197L188.723 8.27981C186.725 4.18749 182.347 0 174.781 0C165.169 0 157.317 6.23365 157.317 16.4169C157.317 26.5525 165.169 32.8337 174.781 32.8337Z" fill="white"/>
<path d="M210.199 32.2627V19.6526L222 0.523435H211.198L205.393 11.2301L199.492 0.523435H188.69L200.587 19.6526V32.2627H210.199Z" fill="white"/>
<path d="M18.0823 70.5647C27.8849 70.5647 35.4509 63.9028 35.4509 54.1479C35.4509 44.3929 27.8849 37.731 18.0823 37.731C8.2798 37.731 0.713776 44.3929 0.713776 54.1479C0.713776 63.9028 8.2798 70.5647 18.0823 70.5647ZM18.0823 62.0946C13.4666 62.0946 10.4687 58.5733 10.4687 54.1479C10.4687 49.7225 13.4666 46.2012 18.0823 46.2012C22.6981 46.2012 25.6959 49.7225 25.6959 54.1479C25.6959 58.5733 22.6981 62.0946 18.0823 62.0946Z" fill="white"/>
<path d="M69.4088 69.9937V38.2545H59.7966V53.2914L48.7569 38.2545H38.8592V69.9937H48.4713V53.91L60.1773 69.9937H69.4088Z" fill="white"/>
<path d="M96.1992 69.9937V61.6187H84.1602V38.2545H74.548V69.9937H96.1992Z" fill="white"/>
<path d="M109.672 69.9937V38.2545H100.06V69.9937H109.672Z" fill="white"/>
<path d="M145.34 69.9937V38.2545H135.728V53.2914L124.689 38.2545H114.791V69.9937H124.403V53.91L136.109 69.9937H145.34Z" fill="white"/>
<path d="M174.558 69.9937V61.6187H160.092V58.145H174.225V49.7701H160.092V46.6294H174.558V38.2545H150.48V69.9937H174.558Z" fill="white"/>
</svg>
