<svg width="307" height="27" viewBox="0 0 307 27" fill="none" xmlns="http://www.w3.org/2000/svg">
    <path d="M42.881 25.8384C40.3196 25.8384 38.1971 25.2976 36.5133 24.2159C34.8295 23.1341 33.6559 21.6647 32.9824 19.8278L38.2787 16.746C39.1767 18.889 40.7686 19.9605 43.0545 19.9605C44.9424 19.9605 45.8914 19.4196 45.8914 18.3379C45.8914 17.6236 45.3506 17.0419 44.2689 16.6133C43.8097 16.4296 42.7892 16.1133 41.2279 15.6745C39.0134 15.0316 37.2582 14.1233 35.9724 12.96C34.6764 11.7967 34.0335 10.1741 34.0335 8.10254C34.0335 5.8677 34.8397 4.05126 36.4418 2.67362C38.044 1.28577 40.0441 0.602051 42.4422 0.602051C44.473 0.602051 46.269 1.07147 47.8405 2.02051C49.4121 2.96955 50.606 4.33699 51.4428 6.13303L46.2588 9.17404C45.4935 7.37801 44.2383 6.47999 42.483 6.47999C41.7483 6.47999 41.187 6.63306 40.8095 6.929C40.4319 7.22494 40.238 7.61272 40.238 8.07193C40.238 8.60258 40.5237 9.05159 41.085 9.41896C41.6463 9.78633 42.7484 10.2149 44.3913 10.6946C45.5649 11.0415 46.5139 11.3681 47.2283 11.664C47.9426 11.9599 48.7284 12.3987 49.5754 12.96C50.4223 13.5213 51.0652 14.256 51.4734 15.1438C51.8918 16.0316 52.0959 17.0725 52.0959 18.2767C52.0959 20.6544 51.2489 22.5117 49.5754 23.8485C47.8712 25.1751 45.6465 25.8384 42.881 25.8384Z" fill="#171717"/>
    <path d="M73.9037 1.1123L65.7399 16.0214V25.3282H59.5456V16.0929L51.3818 1.1123H58.3313L62.6173 10.0721L66.9441 1.1123H73.9037Z" fill="#171717"/>
    <path d="M89.1588 1.1123H95.3123V25.3282H90.5364L81.9951 13.1539V25.3282H75.8008V1.1123H80.6174L89.1588 13.2866V1.1123Z" fill="#171717"/>
    <path d="M105.343 19.5115H114.721V25.318H99.1592V1.1123H114.548V6.88819H105.343V10.2456H113.681V15.95H105.343V19.5115Z" fill="#171717"/>
    <path d="M130.284 25.318L126.059 17.5011H123.845V25.318H117.65V1.1123H127.335C129.804 1.1123 131.876 1.89807 133.539 3.47981C135.213 5.06154 136.05 7.06168 136.05 9.4802C136.05 10.9293 135.682 12.2661 134.947 13.4703C134.213 14.6846 133.202 15.6439 131.937 16.3582L136.917 25.318H130.284ZM123.855 6.81676V12.2457H127.284C128.049 12.2661 128.672 12.0314 129.151 11.5212C129.631 11.0109 129.876 10.3578 129.876 9.55163C129.876 8.74546 129.631 8.09236 129.151 7.58212C128.672 7.07188 128.049 6.81676 127.284 6.81676H123.855Z" fill="#171717"/>
    <path d="M162.797 11.4497V13.909C162.797 17.4603 161.685 20.338 159.46 22.5423C157.236 24.7465 154.348 25.8486 150.796 25.8486C147.01 25.8486 143.908 24.6342 141.479 22.2157C139.051 19.7972 137.826 16.8072 137.826 13.2559C137.826 9.70469 139.041 6.70449 141.459 4.26556C143.878 1.81642 146.878 0.602051 150.449 0.602051C152.705 0.602051 154.776 1.11229 156.654 2.12256C158.532 3.13283 160.001 4.49006 161.062 6.17385L155.807 9.18425C155.327 8.41889 154.613 7.81681 153.684 7.34739C152.746 6.88818 151.694 6.65347 150.521 6.65347C148.602 6.65347 147.041 7.27596 145.816 8.52094C144.592 9.76592 143.98 11.3579 143.98 13.2968C143.98 15.1642 144.582 16.746 145.796 18.0318C147.01 19.3278 148.704 19.9707 150.898 19.9707C153.715 19.9707 155.572 18.9094 156.47 16.7868H150.592V11.4599H162.797V11.4497Z" fill="#171717"/>
    <path d="M184.206 1.1123L176.043 16.0214V25.3282H169.848V16.0929L161.685 1.1123H168.634L172.92 10.0721L177.247 1.1123H184.206Z" fill="#171717"/>
    <path d="M185.074 25.8077C184.054 25.8077 183.197 25.4607 182.492 24.7566C181.788 24.0525 181.441 23.2055 181.441 22.2156C181.441 21.2257 181.799 20.3788 182.513 19.6746C183.227 18.9705 184.084 18.6235 185.074 18.6235C186.064 18.6235 186.911 18.9705 187.615 19.6746C188.319 20.3788 188.666 21.2257 188.666 22.2156C188.666 23.2055 188.319 24.0525 187.615 24.7566C186.911 25.4607 186.064 25.8077 185.074 25.8077Z" fill="#00A3FF"/>
    <path d="M212.729 22.1241C210.3 24.5529 207.33 25.7774 203.82 25.7774C200.32 25.7774 197.35 24.5631 194.911 22.1241C192.482 19.6954 191.258 16.7258 191.258 13.2154C191.258 9.70494 192.472 6.74556 194.911 4.30662C197.34 1.87789 200.309 0.65332 203.82 0.65332C207.33 0.65332 210.29 1.86769 212.729 4.30662C215.157 6.73535 216.382 9.70494 216.382 13.2154C216.382 16.7258 215.157 19.6852 212.729 22.1241ZM197.717 19.4199C199.371 21.073 201.401 21.8894 203.82 21.8894C206.238 21.8894 208.279 21.0628 209.922 19.4199C211.575 17.7667 212.392 15.7053 212.392 13.2154C212.392 10.7254 211.565 8.65385 209.922 7.01088C208.269 5.35771 206.238 4.54133 203.82 4.54133C201.401 4.54133 199.36 5.36792 197.717 7.01088C196.064 8.66405 195.248 10.7254 195.248 13.2154C195.238 15.7053 196.064 17.7769 197.717 19.4199Z" fill="#171717"/>
    <path d="M234.535 1.1123H238.515V25.3282H235.403L223.984 8.89853V25.3282H220.004V1.1123H223.116L234.535 17.542V1.1123Z" fill="#171717"/>
    <path d="M247.333 21.5116H257.191V25.318H243.354V1.1123H247.333V21.5116Z" fill="#171717"/>
    <path d="M260.13 1.1123H264.11V25.3282H260.13V1.1123Z" fill="#171717"/>
    <path d="M283.479 1.1123H287.459V25.3282H284.346L272.927 8.89853V25.3282H268.947V1.1123H272.06L283.479 17.542V1.1123Z" fill="#171717"/>
    <path d="M296.275 21.5116H307.001V25.318H292.306V1.1123H306.837V4.91868H296.286V11.215H305.97V14.9806H296.286V21.5116H296.275Z" fill="#171717"/>
    <path d="M0 0V26.2874H26.2874V0H0ZM4.0717 22.2157V4.0717H22.2157V22.2157H4.0717Z" fill="#00A3FF"/>
    <path d="M15.8896 21.5624V15.8069L13.2262 13.1434L15.8998 10.4596V4.7041L7.4707 13.1434L15.8896 21.5624Z" fill="#00A3FF"/>
</svg>
