<svg width="1920" height="1077" viewBox="0 0 1920 1077" fill="none" xmlns="http://www.w3.org/2000/svg">
<path d="M1915.58 165.37C1885.33 165.126 1855.34 170.983 1827.41 182.591C1799.48 194.199 1774.18 211.32 1753.01 232.93C1731.85 254.54 1715.26 280.196 1704.23 308.364C1693.21 336.531 1687.98 366.632 1688.85 396.867C1689.73 427.103 1696.69 456.851 1709.32 484.334C1721.96 511.818 1740 536.472 1762.38 556.822C1784.76 577.173 1811.01 592.803 1839.56 602.777C1868.12 612.752 1898.39 616.866 1928.58 614.874L1924.17 548.104C1902.96 549.504 1881.69 546.613 1861.63 539.605C1841.57 532.597 1823.12 521.616 1807.4 507.317C1791.68 493.019 1779 475.697 1770.12 456.387C1761.25 437.077 1756.36 416.176 1755.74 394.933C1755.13 373.69 1758.8 352.541 1766.55 332.75C1774.29 312.96 1785.95 294.934 1800.82 279.751C1815.69 264.568 1833.47 252.538 1853.09 244.383C1872.72 236.227 1893.78 232.112 1915.04 232.283L1915.58 165.37Z" fill="url(#paint0_linear)"/>
<path d="M1675.77 228.24C1651.88 263.315 1636.03 303.237 1629.37 345.15C1622.7 387.063 1625.39 429.93 1637.23 470.685C1649.06 511.44 1669.76 549.075 1697.84 580.896C1725.92 612.717 1760.69 637.938 1799.66 654.754L1809.53 631.888C1773.93 616.526 1742.17 593.486 1716.52 564.417C1690.87 535.348 1671.96 500.969 1661.14 463.738C1650.33 426.508 1647.88 387.348 1653.96 349.06C1660.05 310.772 1674.53 274.303 1696.35 242.262L1675.77 228.24Z" fill="url(#paint1_linear)"/>
<path d="M77.9913 938.802C99.2425 932.257 118.956 921.494 135.953 907.156C152.95 892.819 166.881 875.202 176.914 855.358C186.948 835.514 192.877 813.851 194.348 791.663C195.818 769.475 192.8 747.219 185.473 726.224C178.147 705.23 166.662 685.928 151.706 669.473C136.75 653.018 118.63 639.747 98.4281 630.455C78.2266 621.162 56.3589 616.038 34.1321 615.389C11.9053 614.74 -10.2242 618.579 -30.9335 626.677L-20.4121 653.584C-3.32001 646.9 14.9442 643.732 33.2887 644.267C51.6333 644.803 69.6815 649.032 86.3544 656.702C103.027 664.371 117.983 675.324 130.326 688.905C142.67 702.486 152.149 718.416 158.196 735.744C164.243 753.071 166.734 771.44 165.52 789.752C164.306 808.065 159.413 825.944 151.132 842.322C142.851 858.7 131.353 873.24 117.325 885.073C103.297 896.906 87.0265 905.789 69.4872 911.191L77.9913 938.802Z" fill="url(#paint2_linear)"/>
<path d="M273.748 787.354C275.28 730.89 257.216 675.637 222.627 630.981C188.038 586.325 139.056 555.021 84.0021 542.386C28.9482 529.751 -28.7819 536.565 -79.3812 561.67C-129.981 586.776 -170.328 628.624 -193.57 680.105L-159.214 695.616C-139.555 652.07 -105.427 616.673 -62.6276 595.437C-19.8281 574.202 29.003 568.438 75.5704 579.125C122.138 589.813 163.569 616.291 192.827 654.064C222.084 691.836 237.363 738.572 236.067 786.332L273.748 787.354Z" fill="url(#paint3_linear)"/>
<defs>
<linearGradient id="paint0_linear" x1="1700.71" y1="284.31" x2="1781.71" y2="560.31" gradientUnits="userSpaceOnUse">
<stop stop-color="#5503E5"/>
<stop offset="1" stop-color="#5503E5" stop-opacity="0"/>
</linearGradient>
<linearGradient id="paint1_linear" x1="1654.71" y1="268.809" x2="1751.21" y2="654.809" gradientUnits="userSpaceOnUse">
<stop stop-color="#F8006B"/>
<stop offset="1" stop-color="#F8006B" stop-opacity="0"/>
</linearGradient>
<linearGradient id="paint2_linear" x1="200.77" y1="815.494" x2="90.7386" y2="634.921" gradientUnits="userSpaceOnUse">
<stop stop-color="#5503E5"/>
<stop offset="1" stop-color="#5503E5" stop-opacity="0"/>
</linearGradient>
<linearGradient id="paint3_linear" x1="268.509" y1="823.492" x2="104.517" y2="528.084" gradientUnits="userSpaceOnUse">
<stop stop-color="#F8006B"/>
<stop offset="1" stop-color="#F8006B" stop-opacity="0"/>
</linearGradient>
</defs>
</svg>
