<svg width="165" height="31" viewBox="0 0 165 31" fill="none" xmlns="http://www.w3.org/2000/svg">
<path d="M18.904 25.3162V19.9209L14.1778 15.2L18.904 10.4792V5.13574L8.82843 15.2L18.904 25.3162Z" fill="#1D1E22"/>
<path d="M0 30.4523H30.4863V0H0V30.4523ZM3.79131 3.78708H26.6431V26.6133H3.79131V3.78708Z" fill="#1D1E22"/>
<path d="M46.9506 16.5496C48.8203 16.5496 50.4303 16.1346 51.7287 15.3565C51.8326 15.0971 51.8845 14.4745 51.8845 13.5407C51.8845 12.6069 51.8326 12.0363 51.7287 11.8288C50.1187 12.8144 48.6125 13.3332 47.1583 13.3332C45.7041 13.3332 44.4577 12.8663 43.4709 11.9844C42.4841 11.0506 42.0167 9.8574 42.0167 8.35295C42.0167 6.84849 42.4841 5.60342 43.4709 4.7215C44.4577 3.7877 45.6522 3.37267 47.1583 3.37267C48.5606 3.37267 50.1187 3.89145 51.7287 4.87713C51.8326 4.66962 51.9364 4.15084 51.8845 3.16516C51.8845 2.23136 51.8326 1.60883 51.7287 1.34944C50.4303 0.519395 48.8203 0.15625 46.9506 0.15625C44.2499 0.15625 42.1206 0.934417 40.5106 2.54263C38.9006 4.09896 38.1215 6.07032 38.1215 8.40482C38.1215 10.7393 38.9006 12.6588 40.5106 14.267C42.1206 15.7196 44.2499 16.5496 46.9506 16.5496Z" fill="#1D1E22"/>
<path d="M55.3124 0.519737V16.1868C56.3511 16.3425 57.3379 16.3425 58.3247 16.1868L65.6476 7.00447V16.1868C66.946 16.3944 68.2444 16.3944 69.4909 16.1868V0.519737C68.4521 0.364104 67.4654 0.364104 66.4786 0.519737L59.1556 9.70211V0.519737C57.9092 0.260348 56.6108 0.260348 55.3124 0.519737Z" fill="#1D1E22"/>
<path d="M73.2286 0.519737V16.1868C74.527 16.3944 75.8254 16.3944 77.0719 16.1868V9.85775H83.5639V16.1868C84.8623 16.3944 86.1607 16.3944 87.4071 16.1868V0.519737C86.1087 0.312226 84.8103 0.312226 83.5639 0.519737V6.6932H77.0719V0.519737C75.8254 0.260348 74.527 0.260348 73.2286 0.519737Z" fill="#1D1E22"/>
<path d="M102.157 12.9701H95.0418V9.85741H101.274C101.482 8.81986 101.482 7.73042 101.274 6.64099H95.0418V3.68395H102.105C102.313 2.6464 102.313 1.55696 102.105 0.467529H91.1466V16.1346H102.105C102.313 15.0971 102.313 14.0076 102.157 12.9701Z" fill="#1D1E22"/>
<path d="M105.378 0.519775V16.1869C106.676 16.3944 107.974 16.3944 109.221 16.1869V11.051H111.506C113.272 11.051 114.674 10.5841 115.765 9.59839C116.855 8.61271 117.427 7.36765 117.427 5.81131C117.427 4.25498 116.855 2.95803 115.765 2.02423C114.674 1.03855 113.272 0.571653 111.506 0.571653H105.378V0.519775ZM113.531 5.75943C113.531 7.10826 112.701 7.83455 111.558 7.83455H109.273V3.68432H111.558C112.701 3.68432 113.531 4.41061 113.531 5.75943Z" fill="#1D1E22"/>
<path d="M124.179 16.1869V3.7362H130.671C130.879 2.69864 130.879 1.60921 130.671 0.519775H120.336V16.1869C121.634 16.3944 122.932 16.3944 124.179 16.1869Z" fill="#1D1E22"/>
<path d="M137.317 0.519403C136.019 0.311892 134.721 0.311892 133.474 0.519403V16.1865C134.513 16.3421 135.5 16.3421 136.486 16.1865L143.809 7.00413V16.1865C145.108 16.394 146.406 16.394 147.653 16.1865V0.519403C146.614 0.36377 145.627 0.36377 144.64 0.519403L137.317 9.70178V0.519403Z" fill="#1D1E22"/>
<path d="M152.432 16.3425C153.263 16.3425 153.99 16.2906 154.561 16.1869L157.989 10.8953H159.495V16.1869C160.793 16.3944 162.092 16.3944 163.338 16.1869V0.519775H157.002C155.236 0.519775 153.834 0.986676 152.743 1.97235C151.705 2.90615 151.133 4.15122 151.133 5.70756C151.133 7.78267 152.276 9.49464 154.146 10.3247L150.354 16.1869C150.926 16.2906 151.601 16.3425 152.432 16.3425ZM157.106 3.68432H159.495V7.62704H157.106C155.963 7.62704 155.132 6.95262 155.132 5.65568C155.08 4.41061 155.963 3.68432 157.106 3.68432Z" fill="#1D1E22"/>
<path d="M39.004 20.855V30.193H51.1051V20.855C50.326 20.7513 49.547 20.7513 48.8199 20.855V28.2735H46.2231V20.855C45.4441 20.7513 44.665 20.7513 43.9379 20.855V28.2735H41.3411V20.855C40.5621 20.6994 39.7831 20.6994 39.004 20.855Z" fill="#1D1E22"/>
<path d="M53.4415 20.8549V30.1929C54.2206 30.2966 54.9996 30.2966 55.7267 30.1929V25.6795L58.9467 30.1929C59.2583 30.2447 59.7258 30.2966 60.2971 30.2966C60.8684 30.2966 61.3358 30.2447 61.6474 30.1929L58.1677 25.3682L61.5435 20.803C61.2319 20.7511 60.7645 20.6992 60.1932 20.6992C59.6219 20.6992 59.1545 20.7511 58.8429 20.803L55.7267 25.057V20.803C54.9477 20.6992 54.1686 20.6992 53.4415 20.8549Z" fill="#1D1E22"/>
<path d="M70.841 22.0482C69.9062 21.1144 68.7116 20.6475 67.2574 20.6475C65.8032 20.6475 64.6087 21.1144 63.6739 22.0482C62.739 22.982 62.2716 24.1233 62.2716 25.524C62.2716 26.8728 62.739 28.066 63.6739 28.9998C64.6087 29.9336 65.8032 30.4005 67.2574 30.4005C68.7116 30.4005 69.9062 29.9336 70.841 28.9998C71.7759 28.066 72.2433 26.8728 72.2433 25.524C72.2433 24.1233 71.7759 22.982 70.841 22.0482ZM69.1271 27.7028C68.6078 28.2216 67.9845 28.5329 67.2574 28.5329C66.5303 28.5329 65.9071 28.2735 65.3878 27.7028C64.8684 27.1322 64.6087 26.4578 64.6087 25.524C64.6087 24.6421 64.8684 23.9158 65.3878 23.3451C65.9071 22.7745 66.5303 22.5151 67.2574 22.5151C67.9845 22.5151 68.6078 22.7745 69.1271 23.3451C69.6465 23.8639 69.9062 24.5902 69.9062 25.524C69.9062 26.4059 69.6465 27.1322 69.1271 27.7028Z" fill="#1D1E22"/>
<path d="M82.2662 30.193V20.855H75.4627L74.7875 27.3397C74.7356 28.0141 74.372 28.3773 73.8526 28.3773C73.6968 28.3773 73.593 28.3773 73.4372 28.3254C73.3333 28.9479 73.3333 29.6223 73.4372 30.2449C73.7488 30.3486 74.1123 30.4005 74.5278 30.4005C76.0339 30.4005 76.9169 29.4667 77.1246 27.5472L77.592 22.7745H79.9811V30.193C80.7601 30.2967 81.5391 30.2967 82.2662 30.193Z" fill="#1D1E22"/>
<path d="M83.9279 30.1932C84.7069 30.2969 85.5379 30.2969 86.3169 30.1932L86.9921 28.4293H90.4198L91.095 30.1932C91.874 30.2969 92.6531 30.2969 93.484 30.1932L89.6927 20.8552C89.0695 20.7514 88.4463 20.7514 87.7711 20.8552L83.9279 30.1932ZM89.6927 26.458H87.7192L88.7059 23.7603L89.6927 26.458Z" fill="#1D1E22"/>
<path d="M105.378 22.7225C105.482 22.0999 105.482 21.4774 105.378 20.803H99.0942V30.141H102.782C103.82 30.141 104.651 29.8297 105.327 29.3109C106.002 28.7403 106.313 28.014 106.313 27.1321C106.313 26.2502 106.002 25.5239 105.327 24.9532C104.703 24.3825 103.82 24.1232 102.782 24.1232H101.431V22.7225H105.378ZM102.782 26.0426C103.457 26.0426 103.976 26.4577 103.976 27.1321C103.976 27.8584 103.457 28.2215 102.782 28.2215H101.431V25.9908H102.782V26.0426Z" fill="#1D1E22"/>
<path d="M108.027 20.855V30.193C108.65 30.2968 109.221 30.2968 109.844 30.193L114.207 24.694V30.193C114.986 30.2968 115.765 30.2968 116.492 30.193V20.855C115.869 20.7513 115.298 20.7513 114.675 20.855L110.312 26.3541V20.855C109.585 20.6994 108.806 20.6994 108.027 20.855Z" fill="#1D1E22"/>
<path d="M118.621 29.6742C119.4 30.1411 120.387 30.4005 121.529 30.4005C122.62 30.4005 123.451 30.1411 124.126 29.6742C124.801 29.2073 125.165 28.5329 125.165 27.651C125.165 26.6134 124.594 25.7834 123.711 25.3683C124.49 24.9533 125.009 24.1233 125.009 23.1895C125.009 21.6331 123.711 20.6475 121.633 20.6475C120.491 20.6475 119.556 20.9069 118.777 21.3738C118.725 21.5294 118.673 21.8925 118.673 22.4632C118.673 23.0338 118.725 23.3451 118.777 23.4489C119.764 22.8782 120.646 22.5669 121.477 22.5669C122.205 22.5669 122.672 22.9301 122.672 23.6045C122.672 24.227 122.308 24.6421 121.685 24.6421H120.335C120.231 25.2646 120.231 25.8352 120.335 26.4578H121.737C122.464 26.4578 122.828 26.769 122.828 27.4435C122.828 28.1697 122.153 28.5329 121.425 28.5329C120.543 28.5329 119.608 28.2216 118.673 27.651C118.621 27.7547 118.569 28.1179 118.569 28.6366C118.517 29.1554 118.569 29.5186 118.621 29.6742Z" fill="#1D1E22"/>
<path d="M135.501 30.1932V20.8552C134.722 20.7514 133.943 20.7514 133.216 20.8552V24.5385H129.321V20.8552C128.542 20.7514 127.763 20.7514 127.035 20.8552V30.1932C127.814 30.2969 128.593 30.2969 129.321 30.1932V26.4061H133.216V30.1932C133.943 30.2969 134.722 30.2969 135.501 30.1932Z" fill="#1D1E22"/>
<path d="M144.277 22.7225C144.381 22.0999 144.381 21.4774 144.277 20.803H137.733V30.141H144.277C144.381 29.5185 144.381 28.844 144.277 28.2215H140.07V26.3539H143.81C143.913 25.7314 143.913 25.1088 143.81 24.4344H140.07V22.6706H144.277V22.7225Z" fill="#1D1E22"/>
<path d="M151.081 22.5149C151.912 22.5149 152.847 22.8262 153.782 23.3969C153.834 23.2931 153.885 22.93 153.885 22.4112C153.885 21.8405 153.834 21.4774 153.782 21.3217C153.003 20.8548 152.068 20.5955 150.925 20.5955C149.315 20.5955 148.069 21.0624 147.082 21.9962C146.095 22.93 145.628 24.0713 145.628 25.472C145.628 26.8727 146.095 28.014 147.082 28.9478C148.069 29.8816 149.315 30.3485 150.925 30.3485C152.068 30.3485 153.003 30.0891 153.782 29.6222C153.834 29.4666 153.885 29.1034 153.885 28.5328C153.885 27.9621 153.834 27.6508 153.782 27.5471C152.795 28.1177 151.912 28.429 151.081 28.429C150.198 28.429 149.471 28.1696 148.9 27.599C148.328 27.0283 148.017 26.3539 148.017 25.4201C148.017 24.5382 148.328 23.8119 148.9 23.2412C149.471 22.8262 150.198 22.5149 151.081 22.5149Z" fill="#1D1E22"/>
<path d="M159.236 20.8552L155.444 30.1932C156.223 30.2969 157.054 30.2969 157.834 30.1932L158.509 28.4293H161.936L162.612 30.1932C163.391 30.2969 164.17 30.2969 165.001 30.1932L161.209 20.8552C160.534 20.7514 159.859 20.7514 159.236 20.8552ZM159.184 26.458L160.171 23.7603L161.157 26.458H159.184Z" fill="#1D1E22"/>
</svg>
