<svg width="1292" height="11" viewBox="0 0 1292 11" fill="none" xmlns="http://www.w3.org/2000/svg">
<path d="M0 5.5H646H1292" stroke="url(#paint0_linear)" stroke-width="2"/>
<path d="M632.202 0.885741C631.113 0.885741 630.205 1.15986 629.388 1.70809C632.202 3.99239 631.93 10.1143 636.65 10.1143C637.74 10.1143 638.647 9.8402 639.464 9.29196C636.56 7.00766 636.832 0.885741 632.202 0.885741Z" fill="#AF804E"/>
<path d="M647.18 9.29196C644.275 7.00766 644.548 0.885741 639.918 0.885741C638.829 0.885741 637.921 1.15986 637.104 1.70809C639.918 3.99239 639.646 10.1143 644.366 10.1143C645.364 10.1143 646.363 9.8402 647.18 9.29196Z" fill="#AF804E"/>
<path d="M654.896 9.29197C652.082 7.00767 652.354 0.885742 647.634 0.885742C646.545 0.885741 645.637 1.15986 644.82 1.70809C647.634 3.99239 647.361 10.1143 652.082 10.1143C653.171 10.1143 654.079 9.8402 654.896 9.29197Z" fill="#AF804E"/>
<path d="M662.611 9.29197C659.797 7.00767 660.07 0.885742 655.35 0.885742C654.26 0.885742 653.352 1.15986 652.536 1.70809C655.35 3.99239 655.077 10.1143 659.797 10.1143C660.887 10.1143 661.794 9.8402 662.611 9.29197Z" fill="#AF804E"/>
<defs>
<linearGradient id="paint0_linear" x1="1292" y1="5.5" x2="7.07607" y2="5.5" gradientUnits="userSpaceOnUse">
<stop stop-color="#C8AB91"/>
<stop offset="0.328125" stop-color="#AF804E"/>
<stop offset="0.765625" stop-color="#AF804E"/>
<stop offset="1" stop-color="#C8AB91"/>
</linearGradient>
</defs>
</svg>
