<svg width="214" height="72" viewBox="0 0 214 72" fill="none" xmlns="http://www.w3.org/2000/svg">
<path d="M43.542 57.5639L22.1941 36.2159L43.542 14.8682V29.1001L36.4261 36.2159L43.542 43.332V57.5639ZM72.0459 0.609375V71.8357H0.81958V0.609375H72.0459ZM61.8574 10.7848H10.9815V61.6607H61.8574V10.7848Z" fill="#CF2EE5"/>
<path d="M199.032 46.3236C198.256 46.3236 197.608 46.0593 197.071 45.5221C196.533 44.985 196.269 44.3455 196.269 43.5867C196.269 42.8363 196.542 42.1883 197.088 41.6511C197.633 41.1139 198.281 40.8496 199.04 40.8496C199.799 40.8496 200.439 41.1139 200.976 41.6511C201.513 42.1883 201.777 42.8278 201.777 43.5867C201.777 44.3455 201.513 44.985 200.976 45.5221C200.43 46.0508 199.782 46.3236 199.032 46.3236Z" fill="#CF2EE5"/>
<path d="M87.6232 15.276C87.6232 14.9094 87.4527 14.5938 87.1031 14.3124C86.7535 14.0396 86.3101 13.8178 85.7559 13.6388C85.2017 13.4597 84.5963 13.2722 83.9227 13.0676C83.2491 12.8629 82.584 12.6072 81.919 12.3003C81.2539 11.9933 80.6485 11.6181 80.1028 11.1832C79.5571 10.7484 79.1052 10.1685 78.7556 9.43525C78.406 8.70196 78.2355 7.85785 78.2355 6.89435C78.2355 5.2402 78.9517 3.79059 80.3842 2.53719C81.8166 1.28378 83.6584 0.669922 85.8923 0.669922C86.8132 0.669922 87.6829 0.772332 88.5015 0.976969C89.32 1.18161 89.9936 1.42023 90.5137 1.7016C91.0338 1.98298 91.4943 2.26435 91.8865 2.54572C92.2787 2.8271 92.5516 3.07447 92.705 3.28763L92.9694 3.56908L89.7804 6.90288C89.6867 6.79204 89.5502 6.64709 89.3626 6.47656C89.1751 6.30603 88.7999 6.06721 88.2201 5.76025C87.6403 5.46182 87.0519 5.30832 86.4636 5.30832C85.8412 5.30832 85.3211 5.47894 84.9118 5.82853C84.5025 6.17812 84.2893 6.5788 84.2893 7.03923C84.2893 7.40588 84.4599 7.72146 84.8095 7.99431C85.159 8.26716 85.6024 8.48888 86.1567 8.66794C86.7109 8.847 87.3163 9.04305 87.9728 9.24769C88.6379 9.45232 89.303 9.70804 89.9766 10.015C90.6501 10.3219 91.2641 10.6972 91.8098 11.132C92.3555 11.5669 92.8074 12.1467 93.157 12.88C93.5065 13.6133 93.6771 14.4574 93.6771 15.4209C93.6771 17.2967 92.9353 18.8657 91.4602 20.1446C89.9851 21.4236 88.024 22.0631 85.5768 22.0631C84.5792 22.0631 83.6157 21.9436 82.6949 21.7049C81.774 21.4661 81.0066 21.1764 80.4098 20.8354C79.8129 20.4943 79.2842 20.1616 78.8238 19.8205C78.3634 19.4795 78.0223 19.1895 77.8092 18.9423L77.5022 18.5928L80.6741 15.276C80.7082 15.3357 80.7764 15.4125 80.8787 15.5063C80.981 15.6 81.1686 15.7705 81.4585 16.0263C81.7484 16.2821 82.0469 16.5038 82.3709 16.6999C82.6949 16.896 83.0871 17.0666 83.5731 17.2116C84.0506 17.365 84.5366 17.4331 85.0141 17.4331C85.7815 17.4331 86.4125 17.2199 86.8985 16.8021C87.3845 16.3843 87.6232 15.8729 87.6232 15.276Z" fill="#6200AD"/>
<path d="M106.834 1.24971H112.76L105.538 14.2612V21.4832H100.046V14.2612L92.8244 1.24971H98.7504L102.801 9.05163L106.834 1.24971Z" fill="#6200AD"/>
<path d="M127.348 1.24971H132.84V21.4832H128.099L119.41 10.2111V21.4832H113.919V1.24971H118.685L127.348 12.522V1.24971Z" fill="#6200AD"/>
<path d="M152.203 16.8619V21.4917H136.31V1.25824H151.914V5.88831H141.793V9.06016H149.594V13.4086H141.793V16.8619H152.203Z" fill="#6200AD"/>
<path d="M154.514 1.25824H164.055C166.187 1.25824 167.952 1.92339 169.342 3.25353C170.732 4.58367 171.422 6.23786 171.422 8.19897C171.422 9.009 171.303 9.75926 171.064 10.467C170.825 11.1661 170.535 11.7374 170.194 12.1723C169.853 12.6071 169.521 12.9823 169.18 13.2893C168.839 13.5963 168.557 13.8009 168.336 13.9203L167.952 14.1334L172.147 21.5003H166.374L162.904 15.1395H160.014V21.5003H154.514V1.25824ZM165.326 9.63991C165.726 9.25621 165.931 8.77024 165.931 8.19044C165.931 7.61063 165.726 7.13319 165.326 6.7495C164.925 6.3658 164.396 6.17808 163.757 6.17808H160.005V10.2111H163.757C164.396 10.2111 164.925 10.0236 165.326 9.63991Z" fill="#6200AD"/>
<path d="M184.28 22.0717C181.143 22.0717 178.474 21.0229 176.282 18.9169C174.091 16.8108 173 14.3039 173 11.3708C173 8.44619 174.091 5.93078 176.282 3.82472C178.465 1.71866 181.134 0.669933 184.28 0.669933C185.363 0.669933 186.395 0.814884 187.375 1.09626C188.356 1.37764 189.157 1.71865 189.797 2.11087C190.436 2.50309 190.991 2.90396 191.46 3.29618C191.937 3.6884 192.278 4.02941 192.483 4.31079L192.807 4.72005L189.473 8.19041C189.413 8.11367 189.337 8.01981 189.251 7.90043C189.158 7.78106 188.944 7.57644 188.603 7.27801C188.262 6.97958 187.913 6.71532 187.546 6.4851C187.179 6.25488 186.693 6.05026 186.096 5.86268C185.5 5.68362 184.894 5.58977 184.28 5.58977C182.626 5.58977 181.245 6.13541 180.145 7.23534C179.045 8.33526 178.491 9.70811 178.491 11.3623C178.491 13.0164 179.045 14.3978 180.145 15.4977C181.245 16.5977 182.626 17.1518 184.28 17.1518C184.979 17.1518 185.61 17.0494 186.182 16.8362C186.753 16.6231 187.162 16.4014 187.392 16.1626L187.734 15.8558V13.6815H184.562V10.2111H193.242V18.013C193.165 18.1239 193.037 18.2774 192.858 18.4564C192.679 18.6355 192.304 18.9679 191.741 19.4284C191.178 19.8973 190.573 20.3065 189.925 20.6647C189.277 21.0228 188.441 21.3469 187.427 21.6283C186.412 21.9267 185.363 22.0717 184.28 22.0717Z" fill="#6200AD"/>
<path d="M207.524 1.24971H213.45L206.228 14.2612V21.4832H200.737V14.2612L193.515 1.24971H199.441L203.491 9.05163L207.524 1.24971Z" fill="#6200AD"/>
<path d="M88.9545 46.9031C85.8167 46.9031 83.1479 45.8544 80.9566 43.7483C78.7652 41.6423 77.6738 39.1354 77.6738 36.2022C77.6738 33.2776 78.7652 30.7622 80.9566 28.6562C83.1394 26.5501 85.8082 25.5014 88.9545 25.5014C90.0374 25.5014 91.0691 25.6463 92.0496 25.9277C93.0302 26.2091 93.8317 26.5501 94.4712 26.9423C95.1021 27.3345 95.6564 27.7354 96.1339 28.1276C96.6113 28.5198 96.9524 28.8609 97.157 29.1422L97.481 29.5515L94.1472 33.0219C94.0875 32.9451 94.0107 32.8512 93.9255 32.7319C93.8317 32.6125 93.6185 32.4079 93.2775 32.1095C92.9364 31.811 92.5868 31.5468 92.2202 31.3165C91.8535 31.0863 91.3675 30.8817 90.7706 30.6941C90.1738 30.5151 89.5684 30.4212 88.9545 30.4212C87.3003 30.4212 85.919 30.9669 84.8191 32.0668C83.7192 33.1667 83.1649 34.5396 83.1649 36.1937C83.1649 37.8479 83.7192 39.2292 84.8191 40.3292C85.919 41.4291 87.3003 41.9833 88.9545 41.9833C89.6537 41.9833 90.2846 41.8809 90.8559 41.6677C91.4272 41.4545 91.8365 41.2328 92.0667 40.9941L92.4078 40.6872V38.5129H89.2359V35.0425H97.9159V42.8445C97.8392 42.9553 97.7113 43.1088 97.5322 43.2879C97.3531 43.4669 96.978 43.7994 96.4152 44.2598C95.8525 44.7288 95.2386 45.138 94.5905 45.4961C93.9425 45.8542 93.1069 46.1783 92.0922 46.4597C91.0861 46.7581 90.0374 46.9031 88.9545 46.9031Z" fill="#6200AD"/>
<path d="M115.532 46.3231H101.079V26.0896H106.57V41.4118H115.532V46.3231Z" fill="#6200AD"/>
<path d="M134.196 28.6647C136.388 30.7707 137.479 33.2862 137.479 36.2108C137.479 39.1354 136.388 41.6506 134.196 43.7566C132.005 45.8627 129.345 46.9116 126.207 46.9116C123.069 46.9116 120.409 45.8627 118.218 43.7566C116.026 41.6506 114.935 39.1439 114.935 36.2108C114.935 33.2862 116.026 30.7707 118.218 28.6647C120.409 26.5586 123.069 25.5099 126.207 25.5099C129.345 25.5099 132.005 26.5586 134.196 28.6647ZM122.191 32.0753C121.108 33.1752 120.571 34.5481 120.571 36.2022C120.571 37.8564 121.108 39.2378 122.191 40.3377C123.274 41.4376 124.613 41.9918 126.216 41.9918C127.819 41.9918 129.157 41.4461 130.232 40.3377C131.306 39.2378 131.843 37.8564 131.843 36.2022C131.843 34.5481 131.306 33.1667 130.232 32.0753C129.157 30.9754 127.819 30.4297 126.216 30.4297C124.613 30.4297 123.274 30.9754 122.191 32.0753Z" fill="#6200AD"/>
<path d="M149.467 46.3231H139.789V26.0896H148.887C150.968 26.0896 152.639 26.6184 153.909 27.6842C155.18 28.75 155.811 29.9948 155.811 31.4358C155.811 31.99 155.726 32.5188 155.547 33.0218C155.367 33.5249 155.154 33.9256 154.898 34.2325C154.643 34.531 154.395 34.7952 154.14 35.0169C153.892 35.2386 153.671 35.3921 153.483 35.4859L153.219 35.631C153.313 35.6651 153.44 35.7247 153.611 35.7929C153.782 35.8612 154.063 36.0318 154.481 36.2876C154.898 36.5434 155.265 36.8416 155.581 37.1741C155.905 37.5067 156.186 37.9587 156.45 38.5299C156.706 39.1012 156.843 39.7321 156.843 40.4057C156.843 41.9832 156.152 43.3731 154.779 44.5583C153.389 45.7264 151.624 46.3231 149.467 46.3231ZM148.316 30.4297H145.281V33.883H148.316C148.887 33.883 149.348 33.7295 149.689 33.414C150.03 33.0985 150.2 32.6807 150.2 32.1606C150.2 31.6405 150.03 31.2227 149.689 30.9073C149.348 30.5918 148.887 30.4297 148.316 30.4297ZM145.281 41.9918H149.032C149.672 41.9918 150.192 41.7955 150.601 41.4118C151.01 41.0281 151.206 40.5421 151.206 39.9623C151.206 39.3825 151.002 38.9051 150.601 38.5129C150.2 38.1292 149.672 37.9331 149.032 37.9331H145.281V41.9918Z" fill="#6200AD"/>
<path d="M170.272 41.9918H163.622L162.181 46.3231H156.255L163.92 26.0896H169.991L177.656 46.3231H171.73L170.272 41.9918ZM168.831 37.6602L166.956 31.7343L165.08 37.6602H168.831Z" fill="#6200AD"/>
<path d="M193.243 46.3231H178.79V26.0896H184.281V41.4118H193.243V46.3231Z" fill="#6200AD"/>
<path d="M78.2246 51.5894H93.5383V54.48H87.4673V71.8229H84.2955V54.48H78.2246V51.5894Z" fill="#6200AD"/>
<path d="M95.8575 71.8315V51.5979H104.384C106.26 51.5979 107.812 52.1949 109.04 53.3886C110.276 54.5823 110.89 56.0574 110.89 57.8224C110.89 58.6495 110.745 59.4253 110.463 60.1416C110.182 60.8578 109.841 61.4291 109.449 61.8383C109.057 62.2476 108.656 62.6143 108.264 62.9212C107.871 63.2282 107.53 63.4414 107.249 63.5607L106.84 63.7483L111.47 71.8315H107.999L103.668 64.0297H99.0379V71.8315H95.8575ZM106.746 60.1757C107.377 59.5447 107.701 58.7518 107.701 57.8053C107.701 56.8589 107.385 56.0659 106.746 55.4349C106.106 54.7954 105.322 54.48 104.384 54.48H99.0379V61.122H104.384C105.322 61.1306 106.106 60.8152 106.746 60.1757Z" fill="#6200AD"/>
<path d="M112.604 71.8315L120.985 51.5979H124.157L132.539 71.8315H129.222L127.048 66.4853H118.086L115.912 71.8315H112.604ZM122.58 55.2047L119.246 63.5863H125.888L122.58 55.2047Z" fill="#6200AD"/>
<path d="M134.858 51.5894H141.944C144.757 51.5894 147.17 52.587 149.183 54.5823C151.195 56.5775 152.201 58.9565 152.201 61.7105C152.201 64.4646 151.195 66.8434 149.183 68.8386C147.17 70.8338 144.757 71.8315 141.944 71.8315H134.858V51.5894ZM141.944 54.4884H138.038V68.941H141.944C143.913 68.941 145.576 68.2419 146.957 66.8436C148.33 65.4452 149.021 63.7399 149.021 61.7105C149.021 59.6812 148.33 57.9759 146.957 56.5775C145.584 55.1792 143.913 54.4884 141.944 54.4884Z" fill="#6200AD"/>
<path d="M158.835 68.9325H170.252V71.8229H155.663V51.5894H169.97V54.48H158.835V59.826H167.651V62.7166H158.835V68.9325Z" fill="#6200AD"/>
</svg>
