<svg width="223" height="54" viewBox="0 0 223 54" fill="none" xmlns="http://www.w3.org/2000/svg">
<path d="M32.1298 42.8301L16.0798 26.78L32.1298 10.73V21.4301L26.7798 26.78L32.1298 32.13V42.8301ZM53.5598 0V53.55H0.00976562V0H53.5598ZM45.8998 7.65002H7.64977V45.9H45.8998V7.65002Z" fill="#FF2BA9"/>
<path d="M71.83 17.2103C71.83 16.7803 71.63 16.4103 71.22 16.0803C70.81 15.7603 70.29 15.5003 69.64 15.2903C68.99 15.0803 68.28 14.8602 67.49 14.6202C66.7 14.3802 65.92 14.0802 65.14 13.7202C64.36 13.3602 63.65 12.9203 63.01 12.4103C62.37 11.9003 61.84 11.2202 61.43 10.3602C61.02 9.50023 60.82 8.51025 60.82 7.38025C60.82 5.44025 61.66 3.74026 63.34 2.27026C65.02 0.800264 67.18 0.0803223 69.8 0.0803223C70.88 0.0803223 71.9 0.200308 72.86 0.440308C73.82 0.680308 74.61 0.960283 75.22 1.29028C75.83 1.62028 76.37 1.95027 76.83 2.28027C77.29 2.61027 77.61 2.90027 77.79 3.15027L78.1 3.48022L74.36 7.39026C74.25 7.26026 74.09 7.09026 73.87 6.89026C73.65 6.69026 73.21 6.41029 72.53 6.05029C71.85 5.70029 71.16 5.52026 70.47 5.52026C69.74 5.52026 69.13 5.72025 68.65 6.13025C68.17 6.54025 67.92 7.01029 67.92 7.55029C67.92 7.98029 68.12 8.35029 68.53 8.67029C68.94 8.99029 69.46 9.25033 70.11 9.46033C70.76 9.67033 71.47 9.90026 72.24 10.1403C73.02 10.3803 73.8 10.6803 74.59 11.0403C75.38 11.4003 76.1 11.8402 76.74 12.3502C77.38 12.8602 77.91 13.5403 78.32 14.4003C78.73 15.2603 78.93 16.2502 78.93 17.3802C78.93 19.5802 78.06 21.4203 76.33 22.9203C74.6 24.4203 72.3 25.1703 69.43 25.1703C68.26 25.1703 67.13 25.0302 66.05 24.7502C64.97 24.4702 64.07 24.1302 63.37 23.7302C62.67 23.3302 62.05 22.9403 61.51 22.5403C60.97 22.1403 60.57 21.8003 60.32 21.5103L59.96 21.1002L63.68 17.2103C63.72 17.2803 63.8 17.3702 63.92 17.4802C64.04 17.5902 64.26 17.7902 64.6 18.0902C64.94 18.3902 65.29 18.6502 65.67 18.8802C66.05 19.1102 66.51 19.3102 67.08 19.4802C67.64 19.6602 68.21 19.7402 68.77 19.7402C69.67 19.7402 70.41 19.4902 70.98 19.0002C71.55 18.5002 71.83 17.9103 71.83 17.2103Z" fill="#002196"/>
<path d="M94.36 0.760254H101.31L92.84 16.0203V24.4902H86.4V16.0203L77.93 0.760254H84.88L89.63 9.91028L94.36 0.760254Z" fill="#002196"/>
<path d="M118.42 0.760254H124.86V24.4902H119.3L109.11 11.2703V24.4902H102.67V0.760254H108.26L118.42 13.9802V0.760254Z" fill="#002196"/>
<path d="M147.57 19.0703V24.5002H128.93V0.770264H147.23V6.20032H135.36V9.92029H144.51V15.0203H135.36V19.0703H147.57Z" fill="#002196"/>
<path d="M150.28 0.760254H161.47C163.97 0.760254 166.04 1.54022 167.67 3.10022C169.3 4.66022 170.11 6.60027 170.11 8.90027C170.11 9.85027 169.97 10.7303 169.69 11.5603C169.41 12.3803 169.07 13.0503 168.67 13.5603C168.27 14.0703 167.88 14.5102 167.48 14.8702C167.08 15.2302 166.75 15.4702 166.49 15.6102L166.04 15.8602L170.96 24.5002H164.19L160.12 17.0403H156.73V24.5002H150.28V0.760254ZM162.96 10.5902C163.43 10.1402 163.67 9.57026 163.67 8.89026C163.67 8.21026 163.43 7.65032 162.96 7.20032C162.49 6.75032 161.87 6.53027 161.12 6.53027H156.72V11.2603H161.12C161.87 11.2703 162.49 11.0402 162.96 10.5902Z" fill="#002196"/>
<path d="M185.19 25.1703C181.51 25.1703 178.38 23.9402 175.81 21.4702C173.24 19.0002 171.96 16.0602 171.96 12.6202C171.96 9.19024 173.24 6.24026 175.81 3.77026C178.37 1.30026 181.5 0.0703125 185.19 0.0703125C186.46 0.0703125 187.67 0.240312 188.82 0.570312C189.97 0.900313 190.91 1.30025 191.66 1.76025C192.41 2.22025 193.06 2.69027 193.61 3.15027C194.17 3.61027 194.57 4.01021 194.81 4.34021L195.19 4.82031L191.28 8.89026C191.21 8.80026 191.12 8.69029 191.02 8.55029C190.91 8.41029 190.66 8.17031 190.26 7.82031C189.86 7.47031 189.45 7.16026 189.02 6.89026C188.59 6.62026 188.02 6.38028 187.32 6.16028C186.62 5.95028 185.91 5.84021 185.19 5.84021C183.25 5.84021 181.63 6.48026 180.34 7.77026C179.05 9.06026 178.4 10.6702 178.4 12.6102C178.4 14.5502 179.05 16.1703 180.34 17.4603C181.63 18.7503 183.25 19.4003 185.19 19.4003C186.01 19.4003 186.75 19.2803 187.42 19.0303C188.09 18.7803 188.57 18.5202 188.84 18.2402L189.24 17.8802V15.3303H185.52V11.2603H195.7V20.4103C195.61 20.5403 195.46 20.7203 195.25 20.9303C195.04 21.1403 194.6 21.5303 193.94 22.0703C193.28 22.6203 192.57 23.1003 191.81 23.5203C191.05 23.9403 190.07 24.3203 188.88 24.6503C187.69 25.0003 186.46 25.1703 185.19 25.1703Z" fill="#002196"/>
<path d="M212.45 0.760254H219.4L210.93 16.0203V24.4902H204.49V16.0203L196.02 0.760254H202.97L207.72 9.91028L212.45 0.760254Z" fill="#002196"/>
<path d="M216.92 23.9503C216.31 23.3703 216 22.6403 216 21.7803C216 20.9203 216.31 20.2002 216.92 19.6102C217.53 19.0202 218.3 18.7302 219.22 18.7302C220.14 18.7302 220.91 19.0202 221.52 19.6102C222.13 20.2002 222.44 20.9203 222.44 21.7803C222.44 22.6403 222.13 23.3603 221.52 23.9503C220.91 24.5403 220.14 24.8303 219.22 24.8303C218.3 24.8303 217.54 24.5303 216.92 23.9503Z" fill="#002196"/>
<path d="M62.18 29.5902H70.49C73.79 29.5902 76.62 30.7602 78.98 33.1002C81.34 35.4402 82.52 38.2303 82.52 41.4603C82.52 44.6903 81.34 47.4803 78.98 49.8203C76.62 52.1603 73.79 53.3303 70.49 53.3303H62.18V29.5902ZM70.49 32.9802H65.91V49.9303H70.49C72.8 49.9303 74.75 49.1102 76.37 47.4702C77.98 45.8302 78.79 43.8303 78.79 41.4503C78.79 39.0703 77.98 37.0703 76.37 35.4303C74.75 33.8003 72.79 32.9802 70.49 32.9802Z" fill="#002196"/>
<path d="M86.57 53.3203V29.5902H90.29V53.3203H86.57Z" fill="#002196"/>
<path d="M117.06 40.7803V49.2502C116.97 49.3602 116.84 49.5202 116.65 49.7202C116.46 49.9202 116.06 50.2803 115.43 50.8003C114.8 51.3103 114.12 51.7603 113.39 52.1403C112.67 52.5203 111.72 52.8703 110.54 53.1803C109.37 53.4903 108.15 53.6503 106.89 53.6503C103.34 53.6503 100.36 52.4702 97.95 50.1102C95.54 47.7502 94.34 44.8603 94.34 41.4503C94.34 38.0403 95.54 35.1603 97.95 32.7903C100.36 30.4203 103.33 29.2502 106.89 29.2502C108.09 29.2502 109.25 29.4102 110.35 29.7202C111.45 30.0302 112.37 30.4202 113.09 30.8702C113.81 31.3202 114.44 31.7703 114.98 32.2103C115.52 32.6503 115.92 33.0302 116.17 33.3502L116.53 33.8103L114.16 36.1903C114.09 36.1003 114 35.9803 113.87 35.8203C113.74 35.6603 113.45 35.3703 113 34.9503C112.55 34.5303 112.06 34.1702 111.54 33.8702C111.02 33.5702 110.35 33.2903 109.51 33.0303C108.68 32.7703 107.8 32.6403 106.87 32.6403C104.41 32.6403 102.32 33.4903 100.61 35.2003C98.9 36.9003 98.04 38.9903 98.04 41.4503C98.04 43.9103 98.89 46.0003 100.6 47.7103C102.3 49.4203 104.39 50.2803 106.86 50.2803C107.68 50.2803 108.46 50.2003 109.2 50.0403C109.94 49.8803 110.55 49.6803 111.03 49.4403C111.51 49.2003 111.92 48.9702 112.28 48.7302C112.64 48.4902 112.9 48.3003 113.05 48.1403L113.3 47.8903V44.1703H108.72V40.7803H117.06Z" fill="#002196"/>
<path d="M121.8 53.3203V29.5902H125.52V53.3203H121.8Z" fill="#002196"/>
<path d="M128.22 29.5902H146.18V32.9802H139.06V53.3203H135.34V32.9802H128.22V29.5902Z" fill="#002196"/>
<path d="M144.14 53.3203L153.97 29.5902H157.69L167.52 53.3203H163.63L161.08 47.0503H150.57L148.02 53.3203H144.14ZM155.84 33.8303L151.93 43.6603H159.72L155.84 33.8303Z" fill="#002196"/>
<path d="M185.48 53.3203H170.24V29.5902H173.96V49.9303H185.48V53.3203Z" fill="#002196"/>
</svg>
