<svg width="517" height="227" viewBox="0 0 517 227" fill="none" xmlns="http://www.w3.org/2000/svg">
<path d="M30.8 71C43.6 71 48.4 62.5 48.4 52.9C48.4 44.5 43.5 37.7 36.6 36.6C42.9 35.1 47.5 29.6 47.5 21.3C47.5 13 42.8 4.29999 29.9 4.29999H4.1V71H30.8ZM24.9 29.5H21.8V19.7H24.9C28.1 19.7 29.5 21.4 29.5 24.6C29.5 28 28.1 29.5 24.9 29.5ZM25.3 55.6H21.8V44.9H25.3C28.4 44.9 30.4 46.7 30.4 50.2C30.4 54 28.4 55.6 25.3 55.6ZM71.9953 71V4.29999H54.2953V71H71.9953ZM102.174 72.2C118.774 72.2 126.474 57.9 126.474 37.7C126.474 17.5 118.774 3.2 102.174 3.2C85.5742 3.2 77.8742 17.5 77.8742 37.7C77.8742 57.9 85.5742 72.2 102.174 72.2ZM102.174 56.6C97.4742 56.6 95.8742 49 95.8742 37.7C95.8742 26.3 97.4742 18.8 102.174 18.8C106.874 18.8 108.474 26.3 108.474 37.7C108.474 49 106.874 56.6 102.174 56.6ZM177.32 71V4.29999H159.72V29H150.12V4.29999H132.42V71H150.12V44.4H159.72V71H177.32ZM230.543 71L215.843 4.29999H195.543L180.943 71H199.043L200.343 61.7H211.043L212.443 71H230.543ZM209.043 46.3H202.443L205.743 23.5L209.043 46.3ZM254.911 72.2C268.511 72.2 272.711 60.4 274.611 52.3L260.811 47.3C260.211 52.6 258.511 56.6 254.911 56.6C250.011 56.6 248.511 49.2 248.511 37.7C248.511 26.2 250.011 18.8 254.911 18.8C258.311 18.8 259.711 21.8 260.711 26.9L274.611 21.8C272.311 13.8 268.111 3.2 254.911 3.2C238.211 3.2 230.511 17.3 230.511 37.7C230.511 58 238.211 72.2 254.911 72.2ZM328.291 71L311.591 35.4L327.191 4.29999H307.991L297.191 31.3V4.29999H279.491V71H297.191V57.3L300.991 49L308.491 71H328.291ZM349.632 71V4.29999H331.932V71H349.632ZM402.711 71V4.29999H385.111V30.3L375.511 4.29999H357.811V71H375.511V43.3L386.311 71H402.711ZM433.134 72.2C442.234 72.2 448.134 68.5 453.434 62.6V32.5H431.934V48H438.034V54.7C436.934 56 435.434 56.6 433.134 56.6C429.834 56.6 426.734 53 426.734 37.7C426.734 22.3 429.834 18.8 433.134 18.8C436.734 18.8 438.234 22.6 438.934 26.9L452.834 21.8C450.434 11.6 443.934 3.2 433.134 3.2C416.534 3.2 408.734 17.2 408.734 37.7C408.734 58.1 416.434 72.2 433.134 72.2ZM50.7 151L41.5 137.8C44.4 133.1 46.6 127.6 48.4 121.7L36.1 115.9C35.4 118.7 34.5 122 33.5 125.2L31.1 121.2L28.5 116.7C34.6 112.5 40.9 108 40.9 98.8C40.9 90.2 33.8 83.3 25.1 83.3C16.1 83.3 8.9 90.4 8.9 100.2C8.9 103.9 10.4 108.5 12.5 113.4C6.8 117.5 1.6 122.9 1.6 132.6C1.6 145.2 9.2 152.2 19 152.2C24.2 152.2 28.6 150.7 32.4 148L34.4 151H50.7ZM22.7 140C19.5 140 17 135.6 17 131.5C17 129.2 17.6 127.2 18.6 125.5L22 131.4C23.3 133.8 24.8 136.2 26.3 138.6C25.2 139.5 24 140 22.7 140ZM22.4 100.2C22.4 96.4 23.1 94.4 25.1 94.4C26.5 94.4 27.6 96.1 27.6 99.3C27.6 102.1 26 104.2 23.6 106.2C22.9 104 22.4 101.9 22.4 100.2ZM113.941 151L99.2414 84.3H78.9414L64.3414 151H82.4414L83.7414 141.7H94.4414L95.8414 151H113.941ZM92.4414 126.3H85.8414L89.1414 103.5L92.4414 126.3ZM162.379 151V84.3H144.779V110.3L135.179 84.3H117.479V151H135.179V123.3L145.979 151H162.379ZM195.802 151V99.7H205.402V84.3H168.402V99.7H178.102V151H195.802ZM229.027 151V84.3H211.327V151H229.027ZM254.805 133.4V120.2H236.105V133.4H254.805ZM306.813 151L292.113 84.3H271.813L257.212 151H275.313L276.613 141.7H287.313L288.713 151H306.813ZM285.313 126.3H278.713L282.013 103.5L285.313 126.3ZM331.18 152.2C340.28 152.2 346.18 148.5 351.48 142.6V112.5H329.98V128H336.08V134.7C334.98 136 333.48 136.6 331.18 136.6C327.88 136.6 324.78 133 324.78 117.7C324.78 102.3 327.88 98.8 331.18 98.8C334.78 98.8 336.28 102.6 336.98 106.9L350.88 101.8C348.48 91.6 341.98 83.2 331.18 83.2C314.58 83.2 306.78 97.2 306.78 117.7C306.78 138.1 314.48 152.2 331.18 152.2ZM376.292 151V84.3H358.592V151H376.292ZM429.371 151V84.3H411.771V110.3L402.171 84.3H384.471V151H402.171V123.3L412.971 151H429.371ZM459.794 152.2C468.894 152.2 474.794 148.5 480.094 142.6V112.5H458.594V128H464.694V134.7C463.594 136 462.094 136.6 459.794 136.6C456.494 136.6 453.394 133 453.394 117.7C453.394 102.3 456.494 98.8 459.794 98.8C463.394 98.8 464.894 102.6 465.594 106.9L479.494 101.8C477.094 91.6 470.594 83.2 459.794 83.2C443.194 83.2 435.394 97.2 435.394 117.7C435.394 138.1 443.094 152.2 459.794 152.2Z" fill="white"/>
<rect x="1" y="180" width="398" height="47" fill="#190543"/>
<path d="M359.091 189.132V216.104H386V189.132H359.091ZM363.26 211.938V193.31H381.844V211.938H363.26Z" fill="#F8006B"/>
<path d="M375.358 211.267V205.365L372.635 202.623L375.37 199.87V193.968L366.735 202.623L375.358 211.267Z" fill="#F8006B"/>
<path d="M16.9943 216.468C22.1029 216.468 25.3396 213.075 25.3396 208.201C25.3396 200.323 16.9163 200.284 16.9163 197.243C16.9163 196.346 17.5403 195.644 18.6712 195.644C20.114 195.644 21.4399 196.112 22.5708 197.243L25.0666 191.939C23.4288 190.418 21.011 189.56 18.3982 189.56C12.7437 189.56 9.89692 193.577 9.89692 197.633C9.89692 205.9 18.3592 205.432 18.3592 208.708C18.3592 209.644 17.7352 210.384 16.5263 210.384C14.9275 210.384 13.1336 209.722 11.9247 208.318L9.15599 213.699C11.1058 215.532 13.5626 216.468 16.9943 216.468ZM38.2761 216V205.51L44.6326 189.989H37.3792L34.8054 199.036L32.2706 189.989H25.0173L31.3737 205.51V216H38.2761ZM63.088 216V189.989H56.2246V200.128L52.4809 189.989H45.5785V216H52.4809V205.198L56.6926 216H63.088ZM79.0465 216V209.995H72.846V205.822H78.7735V199.816H72.846V195.995H79.0465V189.989H65.9436V216H79.0465ZM98.7504 216L95.4357 205.666C96.7616 204.691 98.5164 202.663 98.5164 198.413C98.5164 193.655 95.1237 189.989 90.4051 189.989H81.3579V216H88.2603V207.343H89.1573L91.3801 216H98.7504ZM89.2742 201.337H88.2603V195.995H89.2742C90.6391 195.995 91.5361 196.97 91.5361 198.685C91.5361 200.362 90.6391 201.337 89.2742 201.337ZM109.465 216.468C113.014 216.468 115.315 215.025 117.382 212.724V200.986H108.997V207.031H111.376V209.644C110.947 210.151 110.362 210.384 109.465 210.384C108.178 210.384 106.97 208.981 106.97 203.014C106.97 197.009 108.178 195.644 109.465 195.644C110.869 195.644 111.454 197.126 111.727 198.802L117.148 196.814C116.212 192.836 113.677 189.56 109.465 189.56C102.992 189.56 99.9502 195.02 99.9502 203.014C99.9502 210.969 102.953 216.468 109.465 216.468ZM130.124 216V205.51L136.48 189.989H129.227L126.653 199.036L124.118 189.989H116.865L123.221 205.51V216H130.124ZM151.633 216.468C158.106 216.468 161.109 210.891 161.109 203.014C161.109 195.137 158.106 189.56 151.633 189.56C145.159 189.56 142.156 195.137 142.156 203.014C142.156 210.891 145.159 216.468 151.633 216.468ZM151.633 210.384C149.8 210.384 149.176 207.421 149.176 203.014C149.176 198.569 149.8 195.644 151.633 195.644C153.465 195.644 154.089 198.569 154.089 203.014C154.089 207.421 153.465 210.384 151.633 210.384ZM180.547 216V189.989H173.684V200.128L169.94 189.989H163.038V216H169.94V205.198L174.152 216H180.547ZM196.506 216V209.995H190.305V189.989H183.403V216H196.506ZM205.377 216V189.989H198.474V216H205.377ZM225.686 216V189.989H218.822V200.128L215.079 189.989H208.176V216H215.079V205.198L219.29 216H225.686ZM241.644 216V209.995H235.444V205.822H241.371V199.816H235.444V195.995H241.644V189.989H228.541V216H241.644ZM256.485 216V205.822H262.413V199.816H256.485V195.995H262.686V189.989H249.583V216H256.485ZM273.386 216.468C279.859 216.468 282.862 210.891 282.862 203.014C282.862 195.137 279.859 189.56 273.386 189.56C266.912 189.56 263.91 195.137 263.91 203.014C263.91 210.891 266.912 216.468 273.386 216.468ZM273.386 210.384C271.553 210.384 270.929 207.421 270.929 203.014C270.929 198.569 271.553 195.644 273.386 195.644C275.219 195.644 275.843 198.569 275.843 203.014C275.843 207.421 275.219 210.384 273.386 210.384ZM302.183 216L298.869 205.666C300.194 204.691 301.949 202.663 301.949 198.413C301.949 193.655 298.557 189.989 293.838 189.989H284.791V216H291.693V207.343H292.59L294.813 216H302.183ZM292.707 201.337H291.693V195.995H292.707C294.072 195.995 294.969 196.97 294.969 198.685C294.969 200.362 294.072 201.337 292.707 201.337ZM313.054 216.468C317.344 216.468 321.828 213.816 321.828 207.655V189.989H314.926V208.045C314.926 209.8 314.185 210.462 313.054 210.462C311.884 210.462 311.182 209.8 311.182 208.045V189.989H304.28V207.694C304.28 213.816 308.765 216.468 313.054 216.468ZM347.731 216V189.989H339.347L336.188 200.44L333.185 189.989H324.645V216H331.547V203.482L335.135 216H337.28L340.946 203.482V216H347.731Z" fill="white"/>
</svg>
