<svg width="1026" height="152" viewBox="0 0 1026 152" fill="none" xmlns="http://www.w3.org/2000/svg">
<path d="M0.0821251 79.368C14.5601 79.368 26.1881 74.238 27.7841 43.458L29.0381 19.518H34.5101V78H54.6881V1.96199H10.5701L7.72013 43.458C6.58013 59.874 3.95813 61.584 0.0821251 61.584V79.368ZM71.472 79.368C85.95 79.368 90.282 71.388 95.982 56.112L116.046 1.96199L94.614 1.848L87.318 27.84L79.908 1.96199H58.704L76.602 50.526L74.778 55.428C73.866 57.822 72.156 61.584 68.508 61.584C67.026 61.584 64.746 61.014 63.264 59.76L58.704 76.29C62.352 78.684 67.14 79.368 71.472 79.368ZM138.875 1.96199H118.697V27.384C118.697 40.722 126.449 52.692 141.611 52.692C145.487 52.692 147.653 52.236 149.705 51.552V78H169.883V1.96199H149.705V34.566C148.337 34.908 147.311 35.136 145.487 35.136C141.497 35.136 138.875 32.286 138.875 27.27V1.96199ZM237.888 1.96199V60.444H228.768V1.96199H208.59V60.444H199.47V1.96199H179.292V78H258.066V1.96199H237.888ZM286.268 78L298.58 46.422V78H318.758V1.96199H298.58L287.636 31.602V1.96199H267.572V78H286.268ZM366.55 78V60.444H348.424V48.246H365.752V30.69H348.424V19.518H366.55V1.96199H328.246V78H366.55ZM422.475 78C437.067 78 442.539 68.31 442.539 57.366C442.539 47.79 436.953 40.038 429.087 38.784C436.269 37.074 441.513 30.804 441.513 21.342C441.513 11.88 436.155 1.96199 421.449 1.96199H392.037V78H422.475ZM415.749 30.69H412.215V19.518H415.749C419.397 19.518 420.993 21.456 420.993 25.104C420.993 28.98 419.397 30.69 415.749 30.69ZM416.205 60.444H412.215V48.246H416.205C419.739 48.246 422.019 50.298 422.019 54.288C422.019 58.62 419.739 60.444 416.205 60.444ZM449.26 1.96199V78H474.682C491.668 78 499.42 65.916 499.42 52.578C499.42 39.24 491.668 27.27 474.682 27.27H469.438V1.96199H449.26ZM472.402 44.826C476.392 44.826 479.014 47.676 479.014 52.692C479.014 57.594 476.392 60.444 472.402 60.444H469.438V44.826H472.402ZM523.132 78V1.96199H502.954V78H523.132ZM557.727 79.368C573.231 79.368 578.019 65.916 580.185 56.682L564.453 50.982C563.769 57.024 561.831 61.584 557.727 61.584C552.141 61.584 550.431 53.148 550.431 40.038C550.431 26.928 552.141 18.492 557.727 18.492C561.603 18.492 563.199 21.912 564.339 27.726L580.185 21.912C577.563 12.792 572.775 0.707996 557.727 0.707996C538.689 0.707996 529.911 16.782 529.911 40.038C529.911 63.18 538.689 79.368 557.727 79.368ZM614.362 78V19.518H625.306V1.96199H583.126V19.518H594.184V78H614.362ZM639.357 79.368C653.835 79.368 658.167 71.388 663.867 56.112L683.931 1.96199L662.499 1.848L655.203 27.84L647.793 1.96199H626.589L644.487 50.526L642.663 55.428C641.751 57.822 640.041 61.584 636.393 61.584C634.911 61.584 632.631 61.014 631.149 59.76L626.589 76.29C630.237 78.684 635.025 79.368 639.357 79.368ZM739.022 78V1.96199H687.836V78H708.014V19.518H718.958V78H739.022ZM745.09 79.368C759.568 79.368 771.196 74.238 772.792 43.458L774.046 19.518H779.518V78H799.696V1.96199H755.578L752.728 43.458C751.588 59.874 748.966 61.584 745.09 61.584V79.368ZM847.488 78V60.444H829.362V48.246H846.69V30.69H829.362V19.518H847.488V1.96199H809.184V78H847.488ZM906.571 78V1.96199H886.507V30.12H875.563V1.96199H855.385V78H875.563V47.676H886.507V78H906.571ZM934.755 78L947.067 46.422V78H967.245V1.96199H947.067L936.123 31.602V1.96199H916.059V78H934.755ZM996.227 78L1002.72 52.692H1005.35V78H1025.52V1.96199H999.077C985.283 1.96199 975.365 12.678 975.365 26.586C975.365 39.012 980.495 44.94 984.371 47.79L974.681 78H996.227ZM1002.38 35.136C998.393 35.136 995.771 32.286 995.771 27.384C995.771 22.368 998.393 19.518 1002.38 19.518H1005.35V35.136H1002.38ZM305.366 151V106.978H293.75V123.28H287.414V106.978H275.732V151H287.414V133.444H293.75V151H305.366ZM340.493 151L330.791 106.978H317.393L307.757 151H319.703L320.561 144.862H327.623L328.547 151H340.493ZM326.303 134.698H321.947L324.125 119.65L326.303 134.698ZM363.836 151.792C372.482 151.792 377.96 146.05 377.96 137.8C377.96 124.468 363.704 124.402 363.704 119.254C363.704 117.736 364.76 116.548 366.674 116.548C369.116 116.548 371.36 117.34 373.274 119.254L377.498 110.278C374.726 107.704 370.634 106.252 366.212 106.252C356.642 106.252 351.824 113.05 351.824 119.914C351.824 133.906 366.146 133.114 366.146 138.658C366.146 140.242 365.09 141.496 363.044 141.496C360.338 141.496 357.302 140.374 355.256 137.998L350.57 147.106C353.87 150.208 358.028 151.792 363.836 151.792ZM400.514 151V133.246L411.272 106.978H398.996L394.64 122.29L390.35 106.978H378.074L388.832 133.246V151H400.514ZM443.167 151V106.978H431.551V124.138L425.215 106.978H413.533V151H425.215V132.718L432.343 151H443.167ZM470.836 151V140.836H460.342V133.774H470.374V123.61H460.342V117.142H470.836V106.978H448.66V151H470.836ZM504.844 151L499.234 133.51C501.478 131.86 504.448 128.428 504.448 121.234C504.448 113.182 498.706 106.978 490.72 106.978H475.408V151H487.09V136.348H488.608L492.37 151H504.844ZM488.806 126.184H487.09V117.142H488.806C491.116 117.142 492.634 118.792 492.634 121.696C492.634 124.534 491.116 126.184 488.806 126.184ZM523.639 151.792C529.645 151.792 533.539 149.35 537.037 145.456V125.59H522.847V135.82H526.873V140.242C526.147 141.1 525.157 141.496 523.639 141.496C521.461 141.496 519.415 139.12 519.415 129.022C519.415 118.858 521.461 116.548 523.639 116.548C526.015 116.548 527.005 119.056 527.467 121.894L536.641 118.528C535.057 111.796 530.767 106.252 523.639 106.252C512.683 106.252 507.535 115.492 507.535 129.022C507.535 142.486 512.617 151.792 523.639 151.792ZM559.262 151V133.246L570.02 106.978H557.744L553.388 122.29L549.098 106.978H536.822L547.58 133.246V151H559.262ZM572.296 151.792C575.728 151.792 578.632 148.888 578.632 145.456C578.632 142.024 575.728 139.12 572.296 139.12C568.864 139.12 566.026 142.024 566.026 145.456C566.026 148.888 568.864 151.792 572.296 151.792ZM598.467 151.792C609.423 151.792 614.505 142.354 614.505 129.022C614.505 115.69 609.423 106.252 598.467 106.252C587.511 106.252 582.429 115.69 582.429 129.022C582.429 142.354 587.511 151.792 598.467 151.792ZM598.467 141.496C595.365 141.496 594.309 136.48 594.309 129.022C594.309 121.498 595.365 116.548 598.467 116.548C601.569 116.548 602.625 121.498 602.625 129.022C602.625 136.48 601.569 141.496 598.467 141.496ZM648.064 151V106.978H636.448V124.138L630.112 106.978H618.43V151H630.112V132.718L637.24 151H648.064ZM675.733 151V140.836H665.239V106.978H653.557V151H675.733ZM691.407 151V106.978H679.725V151H691.407ZM726.439 151V106.978H714.823V124.138L708.487 106.978H696.805V151H708.487V132.718L715.615 151H726.439ZM754.108 151V140.836H743.614V133.774H753.646V123.61H743.614V117.142H754.108V106.978H731.932V151H754.108Z" fill="white"/>
</svg>
