<svg width="533" height="249" viewBox="0 0 533 249" fill="none" xmlns="http://www.w3.org/2000/svg">
<path d="M40.3701 78.3548C60.5984 78.3548 72.9162 68.7492 72.9162 52.1372C72.9162 24.1114 30.9905 30.2138 30.9905 23.0943C30.9905 21.1732 32.2336 19.7041 36.7539 19.7041C43.8733 19.7041 52.3489 22.1903 58.9033 27.1626L71.1081 11.0026C62.5195 3.99611 51.4448 0.492889 39.127 0.492889C18.4467 0.492889 7.82405 12.6977 7.82405 25.4675C7.82405 55.1884 49.8627 47.8429 49.8627 55.0754C49.8627 58.0135 45.7945 59.1436 41.5002 59.1436C31.3295 59.1436 22.854 54.8493 17.2036 49.425L5.33789 66.3761C13.3614 73.6085 24.3231 78.3548 40.3701 78.3548Z" fill="white"/>
<path d="M122.246 76.9987V47.0518L150.271 1.62296H124.619L110.832 27.0496L96.819 1.62296H71.1663L99.4181 47.0518V76.9987H122.246Z" fill="white"/>
<path d="M226.897 76.9987V1.62296H204.07V37.3332L177.852 1.62296H154.347V76.9987H177.174V38.8023L204.974 76.9987H226.897Z" fill="white"/>
<path d="M296.284 76.9987V57.1095H261.93V48.86H295.493V28.9707H261.93V21.5122H296.284V1.62296H239.102V76.9987H296.284Z" fill="white"/>
<path d="M373.886 76.9987L360.212 50.3291C366.202 47.3909 373.773 40.4974 373.773 27.5016C373.773 13.3757 364.28 1.62296 346.651 1.62296H306.421V76.9987H329.248V53.2672H337.498L347.894 76.9987H373.886ZM343.148 33.378H329.248V21.5122H343.148C346.99 21.5122 350.607 23.3203 350.607 27.3886C350.607 31.5699 346.99 33.378 343.148 33.378Z" fill="white"/>
<path d="M420.415 78.3548C435.219 78.3548 446.52 72.3654 454.882 63.0989V32.2479H418.155V52.1372H432.168V54.8493C429.795 56.6575 424.709 58.2396 420.415 58.2396C409.453 58.2396 402.108 49.877 402.108 39.3674C402.108 28.8577 409.453 20.4952 420.415 20.4952C427.195 20.4952 432.168 25.2415 434.315 29.8748L453.526 20.0431C448.78 10.3245 438.383 0.379883 420.415 0.379883C397.587 0.379883 378.941 15.1838 378.941 39.3674C378.941 63.4379 397.587 78.3548 420.415 78.3548Z" fill="white"/>
<path d="M504.528 76.9987V47.0518L532.553 1.62296H506.901L493.114 27.0496L479.101 1.62296H453.448L481.7 47.0518V76.9987H504.528Z" fill="white"/>
<path d="M48.2806 168.355C71.5601 168.355 89.5282 152.534 89.5282 129.367C89.5282 106.201 71.5601 90.3799 48.2806 90.3799C25.0011 90.3799 7.033 106.201 7.033 129.367C7.033 152.534 25.0011 168.355 48.2806 168.355ZM48.2806 148.24C37.3189 148.24 30.1995 139.877 30.1995 129.367C30.1995 118.858 37.3189 110.495 48.2806 110.495C59.2423 110.495 66.3618 118.858 66.3618 129.367C66.3618 139.877 59.2423 148.24 48.2806 148.24Z" fill="white"/>
<path d="M170.173 166.999V91.623H147.346V127.333L121.128 91.623H97.6224V166.999H120.45V128.802L148.25 166.999H170.173Z" fill="white"/>
<path d="M233.796 166.999V147.109H205.205V91.623H182.378V166.999H233.796Z" fill="white"/>
<path d="M265.792 166.999V91.623H242.965V166.999H265.792Z" fill="white"/>
<path d="M350.499 166.999V91.623H327.671V127.333L301.454 91.623H277.948V166.999H300.776V128.802L328.575 166.999H350.499Z" fill="white"/>
<path d="M419.885 166.999V147.109H385.531V138.86H419.094V118.971H385.531V111.512H419.885V91.623H362.704V166.999H419.885Z" fill="white"/>
<path d="M429.719 91.7891V166.894H504.647V91.7891H429.719ZM441.325 155.293V103.423H493.073V155.293H441.325Z" fill="#F8006B"/>
<path d="M475.014 153.426V136.992L467.431 129.358L475.047 121.691V105.256L451.002 129.358L475.014 153.426Z" fill="#F8006B"/>
<rect y="176.804" width="497" height="72" fill="#190543"/>
<path d="M48.98 231.804V191.784H36.08L31.22 207.864L26.6 191.784H13.46V231.804H24.08V212.544L29.6 231.804H32.9L38.54 212.544V231.804H48.98ZM66.5483 232.524C76.5083 232.524 81.1283 223.944 81.1283 211.824C81.1283 199.704 76.5083 191.124 66.5483 191.124C56.5883 191.124 51.9683 199.704 51.9683 211.824C51.9683 223.944 56.5883 232.524 66.5483 232.524ZM66.5483 223.164C63.7283 223.164 62.7683 218.604 62.7683 211.824C62.7683 204.984 63.7283 200.484 66.5483 200.484C69.3683 200.484 70.3283 204.984 70.3283 211.824C70.3283 218.604 69.3683 223.164 66.5483 223.164ZM110.856 231.804L105.756 215.904C107.796 214.404 110.496 211.284 110.496 204.744C110.496 197.424 105.276 191.784 98.0159 191.784H84.0959V231.804H94.7159V218.484H96.0959L99.5159 231.804H110.856ZM96.2759 209.244H94.7159V201.024H96.2759C98.3759 201.024 99.7559 202.524 99.7559 205.164C99.7559 207.744 98.3759 209.244 96.2759 209.244ZM134.242 231.804V222.564H124.702V216.144H133.822V206.904H124.702V201.024H134.242V191.784H114.082V231.804H134.242ZM161.516 231.804V201.024H167.276V191.784H145.076V201.024H150.896V231.804H161.516ZM197.171 231.804V191.784H186.611V206.604H180.851V191.784H170.231V231.804H180.851V215.844H186.611V231.804H197.171ZM228.505 231.804L219.685 191.784H207.505L198.745 231.804H209.605L210.385 226.224H216.805L217.645 231.804H228.505ZM215.605 216.984H211.645L213.625 203.304L215.605 216.984ZM256.967 231.804V191.784H246.407V207.384L240.647 191.784H230.027V231.804H240.647V215.184L247.127 231.804H256.967ZM296.959 231.804L288.139 191.784H275.959L267.199 231.804H278.059L278.839 226.224H285.259L286.099 231.804H296.959ZM284.059 216.984H280.099L282.079 203.304L284.059 216.984Z" fill="#F8006B"/>
<path d="M317.759 231.804V216.144H326.879V206.904H317.759V201.024H327.299V191.784H307.139V231.804H317.759ZM343.762 232.524C353.722 232.524 358.342 223.944 358.342 211.824C358.342 199.704 353.722 191.124 343.762 191.124C333.802 191.124 329.182 199.704 329.182 211.824C329.182 223.944 333.802 232.524 343.762 232.524ZM343.762 223.164C340.942 223.164 339.982 218.604 339.982 211.824C339.982 204.984 340.942 200.484 343.762 200.484C346.582 200.484 347.542 204.984 347.542 211.824C347.542 218.604 346.582 223.164 343.762 223.164ZM388.07 231.804L382.97 215.904C385.01 214.404 387.71 211.284 387.71 204.744C387.71 197.424 382.49 191.784 375.23 191.784H361.31V231.804H371.93V218.484H373.31L376.73 231.804H388.07ZM373.49 209.244H371.93V201.024H373.49C375.59 201.024 376.97 202.524 376.97 205.164C376.97 207.744 375.59 209.244 373.49 209.244ZM404.796 232.524C411.396 232.524 418.296 228.444 418.296 218.964V191.784H407.676V219.564C407.676 222.264 406.536 223.284 404.796 223.284C402.996 223.284 401.916 222.264 401.916 219.564V191.784H391.296V219.024C391.296 228.444 398.196 232.524 404.796 232.524ZM458.15 231.804V191.784H445.25L440.39 207.864L435.77 191.784H422.63V231.804H433.25V212.544L438.77 231.804H442.07L447.71 212.544V231.804H458.15Z" fill="white"/>
</svg>
