<svg width="600" height="271" viewBox="0 0 600 271" fill="none" xmlns="http://www.w3.org/2000/svg">
<path d="M39.87 89.2041C62.8872 89.2041 76.9033 78.2741 76.9033 59.3717C76.9033 27.4819 29.1972 34.4257 29.1972 26.3247C29.1972 24.1387 30.6117 22.467 35.7552 22.467C43.8562 22.467 53.5003 25.296 60.9584 30.9538L74.8459 12.5658C65.0732 4.59332 52.4716 0.607102 38.4556 0.607102C14.924 0.607102 2.83674 14.4946 2.83674 29.025C2.83674 62.8436 50.6714 54.4854 50.6714 62.715C50.6714 66.0583 46.0422 67.3442 41.1559 67.3442C29.583 67.3442 19.9389 62.4578 13.5095 56.2856L0.0078125 75.5738C9.13754 83.8034 21.6106 89.2041 39.87 89.2041Z" fill="white"/>
<path d="M133.034 87.661V53.5853L164.924 1.89298H135.734L120.046 30.8252L104.102 1.89298H74.9122L107.059 53.5853V87.661H133.034Z" fill="white"/>
<path d="M252.114 87.661V1.89298H226.139V42.5267L196.307 1.89298H169.561V87.661H195.536V44.1984L227.168 87.661H252.114Z" fill="white"/>
<path d="M331.067 87.661V65.0296H291.976V55.6427H330.167V33.0112H291.976V24.5244H331.067V1.89298H266.002V87.661H331.067Z" fill="white"/>
<path d="M419.369 87.661L403.81 57.3143C410.625 53.971 419.24 46.1272 419.24 31.3396C419.24 15.2661 408.439 1.89298 388.379 1.89298H342.602V87.661H368.576V60.6576H377.963L389.793 87.661H419.369ZM384.393 38.0261H368.576V24.5244H384.393C388.765 24.5244 392.88 26.5818 392.88 31.211C392.88 35.9687 388.765 38.0261 384.393 38.0261Z" fill="white"/>
<path d="M472.313 89.2041C489.158 89.2041 502.016 82.3889 511.532 71.8447V36.7403H469.741V59.3717H485.686V62.4578C482.985 64.5152 477.199 66.3154 472.313 66.3154C459.84 66.3154 451.481 56.8 451.481 44.8413C451.481 32.8826 459.84 23.3671 472.313 23.3671C480.028 23.3671 485.686 28.7678 488.129 34.0399L509.989 22.8528C504.588 11.7942 492.758 0.478516 472.313 0.478516C446.338 0.478516 425.121 17.3235 425.121 44.8413C425.121 72.2305 446.338 89.2041 472.313 89.2041Z" fill="white"/>
<path d="M568.022 87.661V53.5853L599.912 1.89298H570.722L555.035 30.8252L539.09 1.89298H509.9L542.047 53.5853V87.661H568.022Z" fill="white"/>
<path d="M48.8712 191.204C75.3602 191.204 95.8057 173.202 95.8057 146.841C95.8057 120.481 75.3602 102.479 48.8712 102.479C22.3821 102.479 1.93663 120.481 1.93663 146.841C1.93663 173.202 22.3821 191.204 48.8712 191.204ZM48.8712 168.315C36.3982 168.315 28.2971 158.8 28.2971 146.841C28.2971 134.883 36.3982 125.367 48.8712 125.367C61.3442 125.367 69.4452 134.883 69.4452 146.841C69.4452 158.8 61.3442 168.315 48.8712 168.315Z" fill="white"/>
<path d="M187.569 189.661V103.893H161.594V144.527L131.762 103.893H105.016V189.661H130.991V146.198L162.623 189.661H187.569Z" fill="white"/>
<path d="M259.964 189.661V167.03H227.431V103.893H201.457V189.661H259.964Z" fill="white"/>
<path d="M296.371 189.661V103.893H270.397V189.661H296.371Z" fill="white"/>
<path d="M392.757 189.661V103.893H366.782V144.527L336.95 103.893H310.204V189.661H336.178V146.198L367.811 189.661H392.757Z" fill="white"/>
<path d="M471.71 189.661V167.03H432.619V157.643H470.81V135.011H432.619V126.524H471.71V103.893H406.644V189.661H471.71Z" fill="white"/>
<path d="M482.897 104.518V189.977H568.156V104.518H482.897ZM496.104 176.777V117.756H554.987V176.777H496.104Z" fill="#F8006B"/>
<path d="M534.437 174.653V155.953L525.809 147.266L534.475 138.542V119.842L507.115 147.266L534.437 174.653Z" fill="#F8006B"/>
<path d="M2.6806 225.393V269.002H17.2605C27.0022 269.002 31.448 262.072 31.448 254.422C31.448 246.773 27.0022 239.908 17.2605 239.908H14.253V235.462H28.8982V225.393H2.6806ZM15.9528 249.976C18.2412 249.976 19.7449 251.611 19.7449 254.487C19.7449 257.299 18.2412 258.933 15.9528 258.933H14.253V249.976H15.9528ZM48.8454 269.787C59.6985 269.787 64.7328 260.437 64.7328 247.23C64.7328 234.023 59.6985 224.674 48.8454 224.674C37.9922 224.674 32.9579 234.023 32.9579 247.23C32.9579 260.437 37.9922 269.787 48.8454 269.787ZM48.8454 259.587C45.7725 259.587 44.7264 254.618 44.7264 247.23C44.7264 239.777 45.7725 234.873 48.8454 234.873C51.9183 234.873 52.9644 239.777 52.9644 247.23C52.9644 254.618 51.9183 259.587 48.8454 259.587ZM65.1752 269.787C73.4785 269.787 80.1473 266.844 81.0627 249.192L81.7818 235.462H84.9201V269.002H96.4925V225.393H71.1902L69.5557 249.192C68.9019 258.606 67.3981 259.587 65.1752 259.587V269.787ZM101.28 225.393V269.002H115.86C125.602 269.002 130.047 262.072 130.047 254.422C130.047 246.773 125.602 239.908 115.86 239.908H112.852V225.393H101.28ZM114.552 249.976C116.841 249.976 118.344 251.611 118.344 254.487C118.344 257.299 116.841 258.933 114.552 258.933H112.852V249.976H114.552ZM166.732 225.393V258.933H161.502V225.393H149.929V258.933H144.699V225.393H133.126V269.002H178.304V225.393H166.732ZM205.071 269.002V258.933H194.675V251.938H204.613V241.869H194.675V235.462H205.071V225.393H183.103V269.002H205.071ZM229.233 225.393H217.661V239.973C217.661 247.623 222.107 254.487 230.802 254.487C233.025 254.487 234.268 254.226 235.444 253.834V269.002H247.017V225.393H235.444V244.092C234.66 244.288 234.071 244.419 233.025 244.419C230.737 244.419 229.233 242.784 229.233 239.908V225.393ZM273.661 269.002V258.933H263.266V251.938H273.204V241.869H263.266V235.462H273.661V225.393H251.694V269.002H273.661ZM316.242 269.002V225.393H302.185L296.889 242.915L291.855 225.393H277.537V269.002H289.109V248.015L295.124 269.002H298.72L304.866 248.015V269.002H316.242Z" fill="#F8006B"/>
<path d="M368.884 269.002V263.056C383.748 260.933 390.713 252.269 390.713 240.718C390.713 229.166 383.748 220.503 368.884 218.379V212.349H353.935V218.379C339.071 220.503 332.107 229.166 332.107 240.718C332.107 252.269 339.071 260.933 353.935 263.056V269.002H368.884ZM375.51 240.718C375.51 244.795 373.641 247.937 368.884 249.381V232.054C373.641 233.583 375.51 236.726 375.51 240.718ZM347.395 240.718C347.395 236.726 349.179 233.583 353.935 232.054V249.381C349.179 247.937 347.395 244.795 347.395 240.718ZM413.526 270.021C427.626 270.021 434.166 257.875 434.166 240.718C434.166 223.56 427.626 211.414 413.526 211.414C399.427 211.414 392.886 223.56 392.886 240.718C392.886 257.875 399.427 270.021 413.526 270.021ZM413.526 256.771C409.534 256.771 408.175 250.316 408.175 240.718C408.175 231.035 409.534 224.665 413.526 224.665C417.518 224.665 418.877 231.035 418.877 240.718C418.877 250.316 417.518 256.771 413.526 256.771ZM453.401 269.002V250.146H457.308C469.964 250.146 475.74 241.227 475.74 231.29C475.74 221.352 469.964 212.349 457.308 212.349H438.367V269.002H453.401ZM455.609 237.065H453.401V225.429H455.609C458.582 225.429 460.536 227.553 460.536 231.205C460.536 234.942 458.582 237.065 455.609 237.065ZM482.188 270.021C492.975 270.021 496.202 264.076 500.449 252.694L515.398 212.349L499.43 212.264L493.994 231.63L488.473 212.349H472.675L486.01 248.532L484.651 252.184C483.971 253.968 482.697 256.771 479.979 256.771C478.875 256.771 477.176 256.346 476.072 255.412L472.675 267.728C475.393 269.512 478.96 270.021 482.188 270.021ZM567.741 269.002V212.349H549.48L542.6 235.112L536.06 212.349H517.458V269.002H532.492V241.737L540.307 269.002H544.978L552.962 241.737V269.002H567.741Z" fill="white"/>
</svg>
