<svg width="713" height="383" viewBox="0 0 713 383" fill="none" xmlns="http://www.w3.org/2000/svg">
<path d="M586.722 205.108V306.527H687.902V205.108H586.722ZM602.395 290.862V220.819H672.273V290.862H602.395Z" fill="#F8006B"/>
<path d="M647.886 288.341V266.148L637.647 255.84L647.931 245.487V223.294L615.462 255.84L647.886 288.341Z" fill="#F8006B"/>
<path d="M47.8034 187.336C75.119 187.336 91.7525 174.365 91.7525 151.933C91.7525 114.087 35.1375 122.328 35.1375 112.714C35.1375 110.12 36.8161 108.136 42.9202 108.136C52.534 108.136 63.9791 111.493 72.83 118.208L89.3109 96.3858C77.7132 86.9245 62.7583 82.1939 46.1248 82.1939C18.1988 82.1939 3.85429 98.6748 3.85429 115.919C3.85429 156.053 60.6219 146.134 60.6219 155.9C60.6219 159.868 55.1283 161.394 49.3294 161.394C35.5953 161.394 24.1502 155.595 16.5202 148.27L0.49707 171.16C11.3317 180.927 26.1341 187.336 47.8034 187.336Z" fill="white"/>
<path d="M158.365 185.505V145.066L196.21 83.7199H161.57L142.953 118.055L124.03 83.7199H89.3896L127.54 145.066V185.505H158.365Z" fill="white"/>
<path d="M299.683 185.505V83.7199H268.858V131.942L233.455 83.7199H201.714V185.505H232.539V133.926L270.079 185.505H299.683Z" fill="white"/>
<path d="M393.38 185.505V158.647H346.99V147.507H392.312V120.649H346.99V110.578H393.38V83.7199H316.164V185.505H393.38Z" fill="white"/>
<path d="M498.172 185.505L479.707 149.491C487.795 145.523 498.02 136.215 498.02 118.666C498.02 99.5904 485.201 83.7199 461.395 83.7199H407.069V185.505H437.895V153.459H449.035L463.074 185.505H498.172ZM456.665 126.601H437.895V110.578H456.665C461.853 110.578 466.736 113.019 466.736 118.513C466.736 124.159 461.853 126.601 456.665 126.601Z" fill="white"/>
<path d="M561.003 187.336C580.994 187.336 596.254 179.248 607.547 166.735V125.075H557.951V151.933H576.874V155.595C573.669 158.037 566.802 160.173 561.003 160.173C546.201 160.173 536.282 148.881 536.282 134.689C536.282 120.497 546.201 109.204 561.003 109.204C570.159 109.204 576.874 115.613 579.773 121.87L605.715 108.594C599.306 95.4702 585.267 82.0413 561.003 82.0413C530.178 82.0413 504.999 102.032 504.999 134.689C504.999 167.193 530.178 187.336 561.003 187.336Z" fill="white"/>
<path d="M674.586 185.505V145.066L712.431 83.7199H677.791L659.173 118.055L640.251 83.7199H605.61L643.761 145.066V185.505H674.586Z" fill="white"/>
<path d="M58.4855 308.336C89.9213 308.336 114.185 286.972 114.185 255.689C114.185 224.405 89.9213 203.041 58.4855 203.041C27.0497 203.041 2.78609 224.405 2.78609 255.689C2.78609 286.972 27.0497 308.336 58.4855 308.336ZM58.4855 281.173C43.6832 281.173 34.0693 269.881 34.0693 255.689C34.0693 241.497 43.6832 230.204 58.4855 230.204C73.2878 230.204 82.9017 241.497 82.9017 255.689C82.9017 269.881 73.2878 281.173 58.4855 281.173Z" fill="white"/>
<path d="M223.085 306.505V204.72H192.259V252.942L156.856 204.72H125.115V306.505H155.94V254.926L193.48 306.505H223.085Z" fill="white"/>
<path d="M308.999 306.505V279.647H270.391V204.72H239.566V306.505H308.999Z" fill="white"/>
<path d="M352.206 306.505V204.72H321.38V306.505H352.206Z" fill="white"/>
<path d="M466.591 306.505V204.72H435.765V252.942L400.362 204.72H368.621V306.505H399.446V254.926L436.986 306.505H466.591Z" fill="white"/>
<path d="M560.288 306.505V279.647H513.897V268.507H559.22V241.649H513.897V231.578H560.288V204.72H483.072V306.505H560.288Z" fill="white"/>
<path d="M20.3281 380.904C28.7761 380.904 31.9441 375.294 31.9441 368.958C31.9441 363.414 28.7101 358.926 24.1561 358.2C28.3141 357.21 31.3501 353.58 31.3501 348.102C31.3501 342.624 28.2481 336.882 19.7341 336.882H2.70605V380.904H20.3281ZM16.4341 353.514H14.3881V347.046H16.4341C18.5461 347.046 19.4701 348.168 19.4701 350.28C19.4701 352.524 18.5461 353.514 16.4341 353.514ZM16.6981 370.74H14.3881V363.678H16.6981C18.7441 363.678 20.0641 364.866 20.0641 367.176C20.0641 369.684 18.7441 370.74 16.6981 370.74Z" fill="#F8006B"/>
<path d="M46.857 380.904V336.882H35.175V380.904H46.857ZM41.049 334.506C43.953 334.506 46.329 332.196 46.329 329.292C46.329 326.388 43.953 324.012 41.049 324.012C38.211 324.012 35.769 326.388 35.769 329.292C35.769 332.196 38.211 334.506 41.049 334.506Z" fill="#F8006B"/>
<path d="M81.031 380.904L75.421 363.414C77.665 361.764 80.635 358.332 80.635 351.138C80.635 343.086 74.893 336.882 66.907 336.882H51.595V380.904H63.277V366.252H64.795L68.557 380.904H81.031ZM64.993 356.088H63.277V347.046H64.993C67.303 347.046 68.821 348.696 68.821 351.6C68.821 354.438 67.303 356.088 64.993 356.088Z" fill="#F8006B"/>
<path d="M387.095 380.904C399.173 380.904 404.123 371.4 404.123 358.926C404.123 346.584 399.041 336.882 387.029 336.882H373.433V380.904H387.095ZM387.029 370.74H385.115V347.046H387.029C390.131 347.046 392.243 349.95 392.243 358.926C392.243 367.308 390.197 370.74 387.029 370.74Z" fill="#F8006B"/>
<path d="M436.18 380.904L426.478 336.882H413.08L403.444 380.904H415.39L416.248 374.766H423.31L424.234 380.904H436.18ZM421.99 364.602H417.634L419.812 349.554L421.99 364.602Z" fill="#F8006B"/>
<path d="M467.489 380.904V336.882H455.873V353.184H449.537V336.882H437.855V380.904H449.537V363.348H455.873V380.904H467.489Z" fill="#F8006B"/>
<path d="M501.956 380.904L492.254 336.882H478.856L469.22 380.904H481.166L482.024 374.766H489.086L490.01 380.904H501.956ZM487.766 364.602H483.41L485.588 349.554L487.766 364.602Z" fill="#F8006B"/>
<path d="M524.836 380.904V363.678H534.868V353.514H524.836V347.046H535.33V336.882H513.154V380.904H524.836Z" fill="#F8006B"/>
<path d="M567.072 380.904L557.37 336.882H543.972L534.336 380.904H546.282L547.14 374.766H554.202L555.126 380.904H567.072ZM552.882 364.602H548.526L550.704 349.554L552.882 364.602Z" fill="#F8006B"/>
<path d="M591.516 380.904V370.74H580.692L591.054 346.188V336.882H567.756V347.046H577.854L567.756 371.202V380.904H591.516Z" fill="#F8006B"/>
<path d="M617.462 380.904V370.74H606.968V336.882H595.286V380.904H617.462Z" fill="#F8006B"/>
<path d="M650.427 380.904L640.725 336.882H627.327L617.691 380.904H629.637L630.495 374.766H637.557L638.481 380.904H650.427ZM636.237 364.602H631.881L634.059 349.554L636.237 364.602Z" fill="#F8006B"/>
<path d="M662.926 381.696C671.572 381.696 677.05 375.954 677.05 367.704C677.05 354.372 662.794 354.306 662.794 349.158C662.794 347.64 663.85 346.452 665.764 346.452C668.206 346.452 670.45 347.244 672.364 349.158L676.588 340.182C673.816 337.608 669.724 336.156 665.302 336.156C655.732 336.156 650.914 342.954 650.914 349.818C650.914 363.81 665.236 363.018 665.236 368.562C665.236 370.146 664.18 371.4 662.134 371.4C659.428 371.4 656.392 370.278 654.346 367.902L649.66 377.01C652.96 380.112 657.118 381.696 662.926 381.696Z" fill="#F8006B"/>
<path d="M691.935 380.904V336.882H680.253V380.904H691.935Z" fill="#F8006B"/>
<path d="M106.682 381.63V364.404H116.714V354.24H106.682V347.772H117.176V337.608H95V381.63H106.682Z" fill="white"/>
<path d="M135.286 382.422C146.242 382.422 151.324 372.984 151.324 359.652C151.324 346.32 146.242 336.882 135.286 336.882C124.33 336.882 119.248 346.32 119.248 359.652C119.248 372.984 124.33 382.422 135.286 382.422ZM135.286 372.126C132.184 372.126 131.128 367.11 131.128 359.652C131.128 352.128 132.184 347.178 135.286 347.178C138.388 347.178 139.444 352.128 139.444 359.652C139.444 367.11 138.388 372.126 135.286 372.126Z" fill="white"/>
<path d="M184.024 381.63L178.414 364.14C180.658 362.49 183.628 359.058 183.628 351.864C183.628 343.812 177.886 337.608 169.9 337.608H154.588V381.63H166.27V366.978H167.788L171.55 381.63H184.024ZM167.986 356.814H166.27V347.772H167.986C170.296 347.772 171.814 349.422 171.814 352.326C171.814 355.164 170.296 356.814 167.986 356.814Z" fill="white"/>
<path d="M202.423 382.422C209.683 382.422 217.273 377.934 217.273 367.506V337.608H205.591V368.166C205.591 371.136 204.337 372.258 202.423 372.258C200.443 372.258 199.255 371.136 199.255 368.166V337.608H187.573V367.572C187.573 377.934 195.163 382.422 202.423 382.422Z" fill="white"/>
<path d="M261.112 381.63V337.608H246.922L241.576 355.296L236.494 337.608H222.04V381.63H233.722V360.444L239.794 381.63H243.424L249.628 360.444V381.63H261.112Z" fill="white"/>
<path d="M279.579 381.63C291.657 381.63 296.607 372.126 296.607 359.652C296.607 347.31 291.525 337.608 279.513 337.608H265.917V381.63H279.579ZM279.513 371.466H277.599V347.772H279.513C282.615 347.772 284.727 350.676 284.727 359.652C284.727 368.034 282.681 371.466 279.513 371.466Z" fill="white"/>
<path d="M328.664 381.63L318.962 337.608H305.564L295.928 381.63H307.874L308.732 375.492H315.794L316.718 381.63H328.664ZM314.474 365.328H310.118L312.296 350.28L314.474 365.328Z" fill="white"/>
<path d="M359.973 381.63V337.608H348.357V354.768L342.021 337.608H330.339V381.63H342.021V363.348L349.149 381.63H359.973Z" fill="white"/>
</svg>
