<svg width="264" height="99" viewBox="0 0 264 99" fill="none" xmlns="http://www.w3.org/2000/svg">
<path d="M18.0072 44.0264C13.5554 44.0264 9.86625 43.0863 6.93976 41.2063C4.01326 39.3262 1.97358 36.7722 0.802979 33.5797L10.0081 28.2233C11.5689 31.9479 14.3358 33.8102 18.3088 33.8102C21.59 33.8102 23.2395 32.8702 23.2395 30.9901C23.2395 29.7486 22.2994 28.7376 20.4194 27.9927C19.6213 27.6735 17.8476 27.1236 15.134 26.361C11.2852 25.2436 8.23451 23.665 5.99973 21.6431C3.74721 19.6211 2.62982 16.8011 2.62982 13.2006C2.62982 9.31633 4.03099 6.15926 6.8156 3.76485C9.60021 1.3527 13.0765 0.164368 17.2446 0.164368C20.7741 0.164368 23.8957 0.98024 26.6271 2.62972C29.3585 4.2792 31.4337 6.65587 32.888 9.77747L23.878 15.0629C22.5478 11.9413 20.3662 10.3805 17.3155 10.3805C16.0385 10.3805 15.063 10.6466 14.4068 11.1609C13.7505 11.6753 13.4135 12.3492 13.4135 13.1474C13.4135 14.0697 13.9101 14.8501 14.8856 15.4886C15.8611 16.1271 17.7767 16.872 20.6322 17.7056C22.6719 18.3087 24.3214 18.8762 25.5629 19.3906C26.8045 19.9049 28.1702 20.6676 29.6423 21.6431C31.1144 22.6186 32.2318 23.8956 32.9413 25.4387C33.6684 26.9817 34.0232 28.7908 34.0232 30.8837C34.0232 35.0163 32.5511 38.2443 29.6423 40.5678C26.6803 42.8735 22.8138 44.0264 18.0072 44.0264Z" fill="white"/>
<path d="M71.9251 1.05115L57.7361 26.964V43.1395H46.9701V27.0881L32.781 1.05115H44.8595L52.3087 16.6237L59.8289 1.05115H71.9251Z" fill="white"/>
<path d="M98.4403 1.05115H109.135V43.1395H100.835L85.9894 21.98V43.1395H75.2234V1.05115H83.595L98.4403 22.2106V1.05115Z" fill="white"/>
<path d="M126.57 33.0298H142.869V43.1218H115.822V1.05115H142.568V11.0899H126.57V16.9252H141.06V26.8398H126.57V33.0298Z" fill="white"/>
<path d="M169.918 43.1218L162.575 29.5357H158.726V43.1218H147.96V1.05115H164.792C169.084 1.05115 172.684 2.41685 175.575 5.16598C178.484 7.91512 179.939 11.3914 179.939 15.595C179.939 18.1135 179.3 20.437 178.023 22.5299C176.746 24.6405 174.99 26.3077 172.791 27.5493L181.446 43.1218H169.918ZM158.744 10.9658V20.4015H164.703C166.033 20.437 167.115 20.029 167.949 19.1422C168.782 18.2554 169.208 17.1203 169.208 15.7191C169.208 14.3179 168.782 13.1828 167.949 12.296C167.115 11.4092 166.033 10.9658 164.703 10.9658H158.744Z" fill="white"/>
<path d="M226.426 19.0181V23.2926C226.426 29.4648 224.493 34.4665 220.627 38.2975C216.76 42.1286 211.741 44.0441 205.569 44.0441C198.988 44.0441 193.597 41.9335 189.375 37.73C185.154 33.5264 183.026 28.3297 183.026 22.1574C183.026 15.9852 185.136 10.7707 189.34 6.53172C193.543 2.27499 198.758 0.164368 204.965 0.164368C208.885 0.164368 212.486 1.05119 215.749 2.80708C219.013 4.56298 221.567 6.92192 223.411 9.84842L214.277 15.0806C213.443 13.7504 212.202 12.704 210.588 11.8881C208.956 11.09 207.129 10.682 205.09 10.682C201.755 10.682 199.042 11.7639 196.913 13.9278C194.785 16.0916 193.721 18.8585 193.721 22.2284C193.721 25.4741 194.767 28.2233 196.878 30.4581C198.988 32.7106 201.933 33.828 205.746 33.828C210.641 33.828 213.869 31.9834 215.43 28.2942H205.214V19.0358H226.426V19.0181Z" fill="white"/>
<path d="M263.637 1.05115L249.448 26.964V43.1395H238.682V27.0881L224.493 1.05115H236.572L244.021 16.6237L251.541 1.05115H263.637Z" fill="white"/>
<path d="M39.6901 92.2672C35.3057 96.6516 29.9449 98.8622 23.6078 98.8622C17.2891 98.8622 11.9283 96.67 7.52546 92.2672C3.14105 87.8828 0.93042 82.522 0.93042 76.1849C0.93042 69.8477 3.12263 64.5054 7.52546 60.1025C11.9099 55.7181 17.2706 53.5075 23.6078 53.5075C29.9449 53.5075 35.2873 55.6997 39.6901 60.1025C44.0745 64.487 46.2851 69.8477 46.2851 76.1849C46.2851 82.522 44.0745 87.8643 39.6901 92.2672ZM12.5915 87.3854C15.5758 90.3697 19.2418 91.8435 23.6078 91.8435C27.9738 91.8435 31.6582 90.3513 34.6241 87.3854C37.6084 84.401 39.0822 80.6798 39.0822 76.1849C39.0822 71.6899 37.59 67.9503 34.6241 64.9843C31.6397 62 27.9738 60.5262 23.6078 60.5262C19.2418 60.5262 15.5574 62.0184 12.5915 64.9843C9.60714 67.9687 8.13339 71.6899 8.13339 76.1849C8.11497 80.6798 9.60714 84.4195 12.5915 87.3854Z" fill="white"/>
<path d="M79.0568 54.3365H86.2413V98.0517H80.6226L60.0085 68.3925V98.0517H52.824V54.3365H58.4427L79.0568 83.9958V54.3365Z" fill="white"/>
<path d="M102.159 91.1619H119.955V98.0333H94.9749V54.3365H102.159V91.1619Z" fill="white"/>
<path d="M125.26 54.3365H132.445V98.0517H125.26V54.3365Z" fill="white"/>
<path d="M167.41 54.3365H174.595V98.0517H168.976L148.362 68.3925V98.0517H141.177V54.3365H146.796L167.41 83.9958V54.3365Z" fill="white"/>
<path d="M190.511 91.1619H209.872V98.0333H183.344V54.3365H209.577V61.2079H190.529V72.5742H208.011V79.3719H190.529V91.1619H190.511Z" fill="white"/>
<path d="M217.094 54.3365V97.9836H260.741V54.3365H217.094ZM223.855 91.2231V61.0971H253.981V91.2231H223.855Z" fill="#F8006B"/>
<path d="M243.476 90.1389V80.5827L239.054 76.1604L243.493 71.7042V62.1479L229.498 76.1604L243.476 90.1389Z" fill="#F8006B"/>
</svg>
