<svg width="328" height="115" viewBox="0 0 328 115" fill="none" xmlns="http://www.w3.org/2000/svg">
<path d="M142.511 29.3654C150.128 29.3654 154.763 25.7514 154.763 19.4958C154.763 8.9455 138.978 11.2468 138.978 8.57275C138.978 7.84347 139.448 7.29245 141.15 7.29245C143.824 7.29245 147.016 8.23242 149.48 10.0961L154.066 4.01879C150.841 1.37716 146.66 0.0644531 142.025 0.0644531C134.246 0.0644531 130.243 4.65083 130.243 9.4641C130.243 20.6464 146.06 17.8914 146.06 20.614C146.06 21.716 144.537 22.1374 142.916 22.1374C139.091 22.1374 135.899 20.5168 133.776 18.4748L129.303 24.8601C132.35 27.5827 136.482 29.3654 142.511 29.3654Z" fill="white"/>
<path d="M173.334 28.8454V17.582L183.884 0.484375H174.225L169.039 10.0461L163.772 0.484375H154.113L164.745 17.582V28.8454H173.334Z" fill="white"/>
<path d="M212.717 28.8454V0.484375H204.127V13.9194L194.258 0.484375H185.409V28.8454H193.999V14.4704L204.468 28.8454H212.717Z" fill="white"/>
<path d="M238.824 28.8454V21.3581H225.891V18.2465H238.516V10.7754H225.891V7.97168H238.824V0.484375H217.302V28.8454H238.824Z" fill="white"/>
<path d="M268.027 28.8454L262.873 18.8137C265.126 17.7117 267.978 15.1186 267.978 10.2244C267.978 4.90869 264.413 0.484375 257.768 0.484375H242.632V28.8454H251.221V19.9157H254.333L258.238 28.8454H268.027ZM256.472 12.4284H251.237V7.97168H256.472C257.914 7.97168 259.276 8.65234 259.276 10.1757C259.276 11.7477 257.914 12.4284 256.472 12.4284Z" fill="white"/>
<path d="M285.547 29.3646C291.122 29.3646 295.368 27.1119 298.512 23.6276V12.0077H284.688V19.495H289.955V20.516C289.063 21.1967 287.151 21.7963 285.53 21.7963C281.398 21.7963 278.643 18.6523 278.643 14.6979C278.643 10.7436 281.414 7.59958 285.53 7.59958C288.075 7.59958 289.955 9.38228 290.765 11.1326L297.993 7.43752C296.21 3.7749 292.289 0.03125 285.53 0.03125C276.941 0.03125 269.924 5.60621 269.924 14.6979C269.94 23.741 276.957 29.3646 285.547 29.3646Z" fill="white"/>
<path d="M317.199 28.8454V17.582L327.749 0.484375H318.091L312.905 10.0461L307.637 0.484375H297.979L308.61 17.582V28.8454H317.199Z" fill="white"/>
<path d="M148.459 72.0028C159.464 72.0028 167.939 64.5317 167.939 53.5925C167.939 42.6532 159.447 35.1821 148.459 35.1821C137.455 35.1821 128.979 42.6532 128.979 53.5925C128.979 64.5317 137.455 72.0028 148.459 72.0028ZM148.459 62.5059C143.273 62.5059 139.919 58.5516 139.919 53.5925C139.919 48.6333 143.29 44.679 148.459 44.679C153.645 44.679 157 48.6333 157 53.5925C157 58.5516 153.629 62.5059 148.459 62.5059Z" fill="white"/>
<path d="M206.041 71.3547V35.7495H195.264V52.6203L182.883 35.7495H171.781V71.3547H182.558V53.3171L195.686 71.3547H206.041Z" fill="white"/>
<path d="M236.088 71.3547V61.9551H222.588V35.7495H211.811V71.3547H236.088Z" fill="white"/>
<path d="M251.208 71.3547V35.7495H240.431V71.3547H251.208Z" fill="white"/>
<path d="M291.221 71.3547V35.7495H280.444V52.6203L268.062 35.7495H256.961V71.3547H267.738V53.3171L280.865 71.3547H291.221Z" fill="white"/>
<path d="M324.006 71.3547V61.9551H307.784V58.0656H323.633V48.6659H307.784V45.1492H324.006V35.7495H296.99V71.3547H324.006Z" fill="white"/>
<path d="M141.846 113.896V100.51H157.81V91.0454H141.846V87.4962H158.182V78.0317H130.988V113.88H141.846V113.896Z" fill="white"/>
<path d="M180.466 114.544C191.535 114.544 200.076 107.025 200.076 96.0043C200.076 84.9841 191.535 77.4644 180.466 77.4644C169.397 77.4644 160.856 84.9841 160.856 96.0043C160.856 107.025 169.397 114.544 180.466 114.544ZM180.466 104.983C175.248 104.983 171.861 101.012 171.861 96.0043C171.861 91.0128 175.248 87.0261 180.466 87.0261C185.684 87.0261 189.072 90.9966 189.072 96.0043C189.072 100.996 185.684 104.983 180.466 104.983Z" fill="white"/>
<path d="M236.02 113.896L229.522 101.206C232.374 99.8124 235.972 96.5387 235.972 90.3479C235.972 83.6385 231.45 78.0474 223.072 78.0474H203.948V113.896H214.806V102.616H218.728L223.671 113.896H236.02ZM221.402 93.1516H214.79V87.5118H221.402C223.234 87.5118 224.952 88.3708 224.952 90.2993C224.952 92.2927 223.218 93.1516 221.402 93.1516Z" fill="white"/>
<path d="M258.094 114.544C270.184 114.544 275.775 108.045 275.775 99.1155V78.0474H264.755V98.7914C264.755 102.227 262.502 104.966 258.094 104.966C253.637 104.966 251.385 102.227 251.385 98.7914V78.0474H240.364V99.1641C240.348 108.045 245.988 114.544 258.094 114.544Z" fill="white"/>
<path d="M324.103 113.896V78.0474H309.112L302.824 95.2422L296.536 78.0474H281.545V113.896H292.403V92.3413L300.409 113.896H305.238L313.244 92.3413V113.896H324.103Z" fill="white"/>
<path d="M113.745 0.646973H0.366211V114.026H113.745V0.646973ZM15.276 15.5568H98.8356V99.1164H15.276V15.5568Z" fill="#F8006B"/>
<path d="M71.2677 95.7293L32.875 57.3366L70.2629 19.9487V42.0541L54.9642 57.3366L71.2677 73.6239V95.7293Z" fill="#F8006B"/>
</svg>
