<svg width="70" height="70" viewBox="0 0 70 70" fill="none" xmlns="http://www.w3.org/2000/svg">
<rect x="2.75802" y="7.1008" width="64.1873" height="59.7299" rx="4.9032" stroke="#5503E5" stroke-width="4.45746"/>
<rect x="13.0098" y="0.414551" width="9.8064" height="8.91491" rx="4.45746" fill="#5503E5"/>
<rect x="29.9482" y="0.414551" width="9.8064" height="8.91491" rx="4.45746" fill="#5503E5"/>
<rect x="46.8867" y="0.414551" width="9.8064" height="8.91491" rx="4.45746" fill="#5503E5"/>
<rect x="15.6845" y="3.089" width="4.45746" height="10.6979" rx="2.22873" fill="#F0F0F0" stroke="#5503E5" stroke-width="1.78298"/>
<rect x="32.6229" y="3.089" width="4.45746" height="10.6979" rx="2.22873" fill="#F0F0F0" stroke="#5503E5" stroke-width="1.78298"/>
<rect x="49.5614" y="3.089" width="4.45746" height="10.6979" rx="2.22873" fill="#F0F0F0" stroke="#5503E5" stroke-width="1.78298"/>
<rect x="2.3125" y="20.0273" width="64.1874" height="1.78298" fill="#5503E5"/>
<rect x="13.0106" y="41.4232" width="3.56596" height="3.56596" stroke="#5503E5" stroke-width="1.78298"/>
<rect x="23.7079" y="41.4232" width="3.56596" height="3.56596" stroke="#5503E5" stroke-width="1.78298"/>
<rect x="23.7079" y="30.7252" width="3.56596" height="3.56596" stroke="#5503E5" stroke-width="1.78298"/>
<rect x="55.8016" y="30.7252" width="3.56596" height="3.56596" stroke="#5503E5" stroke-width="1.78298"/>
<rect x="55.8016" y="41.4232" width="3.56596" height="3.56596" stroke="#5503E5" stroke-width="1.78298"/>
<rect x="13.0106" y="52.121" width="3.56596" height="3.56596" stroke="#5503E5" stroke-width="1.78298"/>
<rect x="23.7079" y="52.121" width="3.56596" height="3.56596" stroke="#5503E5" stroke-width="1.78298"/>
<rect x="34.4061" y="52.121" width="3.56596" height="3.56596" stroke="#5503E5" stroke-width="1.78298"/>
<rect x="45.1034" y="52.121" width="3.56596" height="3.56596" stroke="#5503E5" stroke-width="1.78298"/>
<rect x="55.8016" y="52.121" width="3.56596" height="3.56596" stroke="#5503E5" stroke-width="1.78298"/>
<path d="M41.1714 28.0586C41.4878 27.3608 42.4789 27.3608 42.7953 28.0586L45.1341 33.2169C45.2638 33.5031 45.5346 33.6998 45.8468 33.7348L51.4754 34.3651C52.2369 34.4503 52.5431 35.3929 51.9772 35.9095L47.7941 39.7278C47.562 39.9396 47.4586 40.2579 47.5218 40.5657L48.6617 46.1136C48.8159 46.8641 48.0141 47.4466 47.348 47.0681L42.4239 44.2696C42.1507 44.1143 41.816 44.1143 41.5429 44.2696L36.6188 47.0681C35.9526 47.4466 35.1508 46.8641 35.305 46.1136L36.4449 40.5657C36.5081 40.2579 36.4047 39.9396 36.1727 39.7278L31.9895 35.9095C31.4236 35.3929 31.7299 34.4503 32.4913 34.3651L38.1199 33.7348C38.4321 33.6998 38.7029 33.5031 38.8326 33.2169L41.1714 28.0586Z" fill="#F8006B"/>
</svg>
