<svg width="76" height="64" viewBox="0 0 76 64" fill="none" xmlns="http://www.w3.org/2000/svg">
<rect x="28.3876" y="16.1371" width="18.4728" height="11.9909" rx="2.67447" fill="#F8006B" stroke="#F0F0F0" stroke-width="1.78298"/>
<rect x="28.3876" y="30.3595" width="18.4728" height="11.9909" rx="2.67447" fill="#F8006B" stroke="#F0F0F0" stroke-width="1.78298"/>
<rect x="28.3876" y="45.2221" width="18.4728" height="11.9909" rx="2.67447" fill="#F8006B" stroke="#F0F0F0" stroke-width="1.78298"/>
<path d="M40.069 21.4286C40.6633 21.7718 40.6633 22.6296 40.069 22.9727L37.0529 24.7141C36.4586 25.0572 35.7157 24.6283 35.7157 23.942L35.7157 20.4593C35.7157 19.7731 36.4586 19.3442 37.0529 19.6873L40.069 21.4286Z" fill="#F0F0F0"/>
<path d="M40.069 35.651C40.6633 35.9942 40.6633 36.852 40.069 37.1951L37.0529 38.9365C36.4586 39.2796 35.7157 38.8507 35.7157 38.1644L35.7157 34.6818C35.7157 33.9955 36.4586 33.5666 37.0529 33.9097L40.069 35.651Z" fill="#F0F0F0"/>
<path d="M40.069 50.5138C40.6633 50.857 40.6633 51.7148 40.069 52.0579L37.0529 53.7993C36.4586 54.1424 35.7157 53.7135 35.7157 53.0272L35.7157 49.5446C35.7157 48.8583 36.4586 48.4294 37.0529 48.7725L40.069 50.5138Z" fill="#F0F0F0"/>
<rect x="6.49989" y="30.6796" width="18.4728" height="11.9909" rx="2.67447" fill="#F8006B" stroke="#F0F0F0" stroke-width="1.78298"/>
<rect x="6.50087" y="16.1371" width="18.4728" height="11.9909" rx="2.67447" fill="#F8006B" stroke="#F0F0F0" stroke-width="1.78298"/>
<rect x="6.49989" y="45.2221" width="18.4728" height="11.9909" rx="2.67447" fill="#F8006B" stroke="#F0F0F0" stroke-width="1.78298"/>
<path d="M18.1813 35.9713C18.7756 36.3145 18.7756 37.1723 18.1813 37.5155L15.1652 39.2568C14.5709 39.5999 13.828 39.171 13.828 38.4847L13.828 35.0021C13.828 34.3158 14.5709 33.8869 15.1652 34.23L18.1813 35.9713Z" fill="#F0F0F0"/>
<path d="M18.1813 21.4286C18.7756 21.7718 18.7756 22.6296 18.1813 22.9727L15.1652 24.7141C14.5709 25.0572 13.828 24.6283 13.828 23.942L13.828 20.4593C13.828 19.7731 14.5709 19.3442 15.1652 19.6873L18.1813 21.4286Z" fill="#F0F0F0"/>
<path d="M18.1813 50.5138C18.7756 50.857 18.7756 51.7148 18.1813 52.0579L15.1652 53.7993C14.5709 54.1424 13.828 53.7135 13.828 53.0272L13.828 49.5446C13.828 48.8583 14.5709 48.4294 15.1652 48.7725L18.1813 50.5138Z" fill="#F0F0F0"/>
<rect x="50.0565" y="30.6796" width="18.4728" height="11.9909" rx="2.67447" fill="#F8006B" stroke="#F0F0F0" stroke-width="1.78298"/>
<rect x="50.0565" y="16.1371" width="18.4728" height="11.9909" rx="2.67447" fill="#F8006B" stroke="#F0F0F0" stroke-width="1.78298"/>
<rect x="50.0565" y="45.2221" width="18.4728" height="11.9909" rx="2.67447" fill="#F8006B" stroke="#F0F0F0" stroke-width="1.78298"/>
<path d="M61.738 35.9713C62.3323 36.3145 62.3323 37.1723 61.738 37.5155L58.7219 39.2568C58.1276 39.5999 57.3847 39.171 57.3847 38.4847L57.3847 35.0021C57.3847 34.3158 58.1276 33.8869 58.7219 34.23L61.738 35.9713Z" fill="#F0F0F0"/>
<path d="M61.738 21.4286C62.3323 21.7718 62.3323 22.6296 61.738 22.9727L58.7219 24.7141C58.1276 25.0572 57.3847 24.6283 57.3847 23.942L57.3847 20.4593C57.3847 19.7731 58.1276 19.3442 58.7219 19.6873L61.738 21.4286Z" fill="#F0F0F0"/>
<path d="M61.738 50.5138C62.3323 50.857 62.3323 51.7148 61.738 52.0579L58.7219 53.7993C58.1276 54.1424 57.3847 53.7135 57.3847 53.0272L57.3847 49.5446C57.3847 48.8583 58.1276 48.4294 58.7219 48.7725L61.738 50.5138Z" fill="#F0F0F0"/>
<mask id="path-19-inside-1" fill="white">
<rect x="0.173828" y="9.6897" width="74.8852" height="53.7638" rx="3.56596"/>
</mask>
<rect x="0.173828" y="9.6897" width="74.8852" height="53.7638" rx="3.56596" stroke="#5503E5" stroke-width="8.91491" mask="url(#path-19-inside-1)"/>
<mask id="path-20-inside-2" fill="white">
<rect x="23.2148" y="0.0888672" width="29.7621" height="13.4409" rx="2.67447"/>
</mask>
<rect x="23.2148" y="0.0888672" width="29.7621" height="13.4409" rx="2.67447" stroke="#5503E5" stroke-width="8.91491" mask="url(#path-20-inside-2)"/>
</svg>
