<svg width="121" height="75" viewBox="0 0 121 75" fill="none" xmlns="http://www.w3.org/2000/svg">
<path d="M2.71582 31.8H50.4106" stroke="#5503E5" stroke-width="4.45746" stroke-linecap="round"/>
<path d="M20.5459 40.7151H68.2407" stroke="#5503E5" stroke-width="4.45746" stroke-linecap="round"/>
<path d="M20.5459 47.8469H68.2407" stroke="#5503E5" stroke-width="4.45746" stroke-linecap="round"/>
<path d="M20.5459 54.979H68.2407" stroke="#5503E5" stroke-width="4.45746" stroke-linecap="round"/>
<path d="M20.5459 62.1108H68.2407" stroke="#5503E5" stroke-width="4.45746" stroke-linecap="round"/>
<path d="M15.1968 37.5947L11.6309 41.1607L15.1968 44.7267" stroke="#5503E5" stroke-width="1.78298" stroke-linecap="round"/>
<path d="M57.9883 62.1108H105.683" stroke="#5503E5" stroke-width="4.45746" stroke-linecap="round"/>
<path d="M48.1816 32.6917H95.8764" stroke="#5503E5" stroke-width="4.45746" stroke-linecap="round"/>
<path d="M48.1816 39.8235H95.8764" stroke="#5503E5" stroke-width="4.45746" stroke-linecap="round"/>
<path d="M48.1816 46.9556H95.8764" stroke="#5503E5" stroke-width="4.45746" stroke-linecap="round"/>
<path d="M48.1816 54.0874H95.8764" stroke="#5503E5" stroke-width="4.45746" stroke-linecap="round"/>
<path d="M115.935 58.5449L119.501 62.1109L115.935 65.6768" stroke="#5503E5" stroke-width="1.78298" stroke-linecap="round"/>
<path d="M113.26 55.8704L109.694 68.797" stroke="#5503E5" stroke-width="1.78298" stroke-linecap="round"/>
<path d="M25.0029 13.3325C37.0396 17.1198 52.0083 8.20384 57.9881 3.27246C63.9679 8.20384 78.9366 17.1198 90.9733 13.3325C88.6585 31.0854 88.0798 55.3478 57.9881 71.9173C27.8964 55.3478 27.3177 31.0854 25.0029 13.3325Z" fill="#F0F0F0" stroke="#5503E5" stroke-width="4.45746"/>
<path d="M25.0029 13.3325C37.0396 17.1198 52.0083 8.20384 57.9881 3.27246C63.9679 8.20384 78.9366 17.1198 90.9733 13.3325C88.6585 31.0854 88.0798 55.3478 57.9881 71.9173C27.8964 55.3478 27.3177 31.0854 25.0029 13.3325Z" stroke="#5503E5" stroke-width="4.45746"/>
<path d="M33.918 21.5479C42.1244 21.5479 53.6246 15.8378 57.9882 12.1873C62.3518 15.8378 72.6978 21.5479 82.0585 21.5479C80.3693 34.6897 79.9471 50.7366 57.9882 63.0022C36.0294 50.7366 35.6071 34.6897 33.918 21.5479Z" fill="#F8006B" stroke="#F0F0F0" stroke-width="1.78298"/>
<path d="M50.8565 29.1257L43.7246 36.2577L50.8565 43.3896" stroke="#F0F0F0" stroke-width="1.78298" stroke-linecap="round"/>
<path d="M64.2284 29.1257L71.3604 36.2577L64.2284 43.3896" stroke="#F0F0F0" stroke-width="1.78298" stroke-linecap="round"/>
<path d="M55.3135 47.8471L60.2167 25.5598" stroke="#F0F0F0" stroke-width="1.78298" stroke-linecap="round"/>
</svg>
