<svg width="104" height="82" viewBox="0 0 104 82" fill="none" xmlns="http://www.w3.org/2000/svg">
<mask id="path-1-inside-1" fill="white">
<path d="M84.4751 17.5379C80.1682 14.7047 74.9521 13.5979 69.8658 14.4378C64.7795 15.2777 60.1962 18.0027 57.0288 22.0701C53.8614 26.1375 52.3424 31.2487 52.7742 36.3858C53.2061 41.5229 55.5572 46.3088 59.3592 49.7903C63.1612 53.2717 68.1351 55.1933 73.2903 55.1722C78.4454 55.1512 83.4035 53.189 87.1769 49.6765C90.9503 46.1641 93.2622 41.3591 93.652 36.2187C94.0419 31.0783 92.4811 25.9796 89.2805 21.9382L73.2064 34.6681L84.4751 17.5379Z"/>
</mask>
<path d="M84.4751 17.5379C80.1682 14.7047 74.9521 13.5979 69.8658 14.4378C64.7795 15.2777 60.1962 18.0027 57.0288 22.0701C53.8614 26.1375 52.3424 31.2487 52.7742 36.3858C53.2061 41.5229 55.5572 46.3088 59.3592 49.7903C63.1612 53.2717 68.1351 55.1933 73.2903 55.1722C78.4454 55.1512 83.4035 53.189 87.1769 49.6765C90.9503 46.1641 93.2622 41.3591 93.652 36.2187C94.0419 31.0783 92.4811 25.9796 89.2805 21.9382L73.2064 34.6681L84.4751 17.5379Z" fill="#F0F0F0" stroke="#5503E5" stroke-width="3.56596" mask="url(#path-1-inside-1)"/>
<mask id="path-2-inside-2" fill="white">
<path d="M87.414 13.0692C82.5842 9.89207 76.8289 8.4254 71.0676 8.90351C65.3064 9.38162 59.8715 11.7769 55.6315 15.7067C51.3915 19.6365 48.591 24.8741 47.6774 30.5825C46.7638 36.291 47.7899 42.1409 50.5916 47.1977C53.3934 52.2545 57.8092 56.2264 63.1335 58.4786C68.4578 60.7309 74.3833 61.1337 79.9634 59.6226C85.5436 58.1115 90.4562 54.7738 93.9165 50.1426C97.3767 45.5114 99.1849 39.8541 99.0522 34.0746L73.2058 34.6682L87.414 13.0692Z"/>
</mask>
<path d="M87.414 13.0692C82.5842 9.89207 76.8289 8.4254 71.0676 8.90351C65.3064 9.38162 59.8715 11.7769 55.6315 15.7067C51.3915 19.6365 48.591 24.8741 47.6774 30.5825C46.7638 36.291 47.7899 42.1409 50.5916 47.1977C53.3934 52.2545 57.8092 56.2264 63.1335 58.4786C68.4578 60.7309 74.3833 61.1337 79.9634 59.6226C85.5436 58.1115 90.4562 54.7738 93.9165 50.1426C97.3767 45.5114 99.1849 39.8541 99.0522 34.0746L73.2058 34.6682L87.414 13.0692Z" fill="#F0F0F0" stroke="#5503E5" stroke-width="3.56596" mask="url(#path-2-inside-2)"/>
<mask id="path-3-inside-3" fill="white">
<path d="M89.8642 9.34518C85.364 6.38492 80.1564 4.67732 74.7771 4.39816C69.3979 4.11899 64.0414 5.27834 59.2591 7.75687C54.4767 10.2354 50.4412 13.9436 47.5679 18.4997C44.6947 23.0559 43.0874 28.2954 42.9117 33.679C42.7359 39.0626 43.9979 44.3958 46.5679 49.1297C49.1378 53.8635 52.9228 57.8271 57.5333 60.6123C62.1438 63.3975 67.4133 64.9038 72.7992 64.9761C78.1852 65.0484 83.4932 63.6841 88.1768 61.0237L73.2062 34.6681L89.8642 9.34518Z"/>
</mask>
<path d="M89.8642 9.34518C85.364 6.38492 80.1564 4.67732 74.7771 4.39816C69.3979 4.11899 64.0414 5.27834 59.2591 7.75687C54.4767 10.2354 50.4412 13.9436 47.5679 18.4997C44.6947 23.0559 43.0874 28.2954 42.9117 33.679C42.7359 39.0626 43.9979 44.3958 46.5679 49.1297C49.1378 53.8635 52.9228 57.8271 57.5333 60.6123C62.1438 63.3975 67.4133 64.9038 72.7992 64.9761C78.1852 65.0484 83.4932 63.6841 88.1768 61.0237L73.2062 34.6681L89.8642 9.34518Z" fill="#F0F0F0" stroke="#5503E5" stroke-width="3.56596" mask="url(#path-3-inside-3)"/>
<mask id="path-4-inside-4" fill="white">
<path d="M8.47698 26.4192C8.47698 21.4961 12.7408 16.3472 14.2269 14.7021C14.5452 14.3498 14.9975 14.1638 15.4723 14.1638H63.2944C64.7827 14.1638 65.6548 15.9069 64.827 17.1437C63.016 19.8496 60.7121 23.8056 60.7121 26.4192C60.7121 30.7252 60.7121 64.5434 60.7121 70.1412C60.7121 75.7389 56.2564 78.3512 53.785 78.3512C51.7269 78.3512 17.1039 78.3512 5.58226 78.3512C4.08585 78.3512 3.27713 76.619 4.21386 75.4521L8.08443 70.6302C8.3385 70.3137 8.47698 69.9426 8.47698 69.5367C8.47698 64.6713 8.47698 31.9354 8.47698 26.4192Z"/>
</mask>
<path d="M8.47698 26.4192C8.47698 21.4961 12.7408 16.3472 14.2269 14.7021C14.5452 14.3498 14.9975 14.1638 15.4723 14.1638H63.2944C64.7827 14.1638 65.6548 15.9069 64.827 17.1437C63.016 19.8496 60.7121 23.8056 60.7121 26.4192C60.7121 30.7252 60.7121 64.5434 60.7121 70.1412C60.7121 75.7389 56.2564 78.3512 53.785 78.3512C51.7269 78.3512 17.1039 78.3512 5.58226 78.3512C4.08585 78.3512 3.27713 76.619 4.21386 75.4521L8.08443 70.6302C8.3385 70.3137 8.47698 69.9426 8.47698 69.5367C8.47698 64.6713 8.47698 31.9354 8.47698 26.4192Z" fill="#F0F0F0"/>
<path d="M4.21386 75.4521L2.82342 74.336L4.21386 75.4521ZM5.58226 78.3512V76.5682V78.3512ZM64.827 17.1437L66.3087 18.1355L64.827 17.1437ZM14.2269 14.7021L15.55 15.8973L14.2269 14.7021ZM8.08443 70.6302L9.47487 71.7463L8.08443 70.6302ZM58.9291 26.4192C58.9291 30.814 58.9291 64.4546 58.9291 70.1412H62.495C62.495 64.4546 62.495 30.814 62.495 26.4192H58.9291ZM10.26 69.5367C10.26 69.5272 10.26 69.5176 10.26 69.5079C10.26 69.4982 10.26 69.4884 10.26 69.4784C10.26 69.4685 10.26 69.4585 10.26 69.4483C10.26 69.4382 10.26 69.428 10.26 69.4176C10.26 69.4073 10.26 69.3968 10.26 69.3863C10.26 69.3757 10.26 69.365 10.26 69.3543C10.26 69.3435 10.26 69.3326 10.26 69.3217C10.26 69.3107 10.26 69.2996 10.26 69.2885C10.26 69.2773 10.26 69.266 10.26 69.2546C10.26 69.2432 10.26 69.2317 10.26 69.2202C10.26 69.2086 10.26 69.1969 10.26 69.1851C10.26 69.1733 10.26 69.1614 10.26 69.1494C10.26 69.1374 10.26 69.1253 10.26 69.1131C10.26 69.1009 10.26 69.0886 10.26 69.0762C10.26 69.0638 10.26 69.0513 10.26 69.0387C10.26 69.0261 10.26 69.0134 10.26 69.0006C10.26 68.9878 10.26 68.9749 10.26 68.9619C10.26 68.9489 10.26 68.9358 10.26 68.9226C10.26 68.9094 10.26 68.8961 10.26 68.8827C10.26 68.8693 10.26 68.8559 10.26 68.8423C10.26 68.8287 10.26 68.815 10.26 68.8012C10.26 68.7874 10.26 68.7735 10.26 68.7595C10.26 68.7456 10.26 68.7315 10.26 68.7173C10.26 68.7031 10.26 68.6889 10.26 68.6745C10.26 68.6601 10.26 68.6456 10.26 68.6311C10.26 68.6165 10.26 68.6019 10.26 68.5871C10.26 68.5724 10.26 68.5575 10.26 68.5426C10.26 68.5276 10.26 68.5126 10.26 68.4974C10.26 68.4823 10.26 68.4671 10.26 68.4518C10.26 68.4364 10.26 68.421 10.26 68.4055C10.26 68.39 10.26 68.3744 10.26 68.3587C10.26 68.343 10.26 68.3272 10.26 68.3113C10.26 68.2954 10.26 68.2794 10.26 68.2634C10.26 68.2473 10.26 68.2311 10.26 68.2149C10.26 68.1986 10.26 68.1823 10.26 68.1658C10.26 68.1494 10.26 68.1328 10.26 68.1162C10.26 68.0996 10.26 68.0829 10.26 68.0661C10.26 68.0493 10.26 68.0324 10.26 68.0154C10.26 67.9984 10.26 67.9813 10.26 67.9641C10.26 67.9469 10.26 67.9297 10.26 67.9123C10.26 67.895 10.26 67.8775 10.26 67.86C10.26 67.8425 10.26 67.8249 10.26 67.8072C10.26 67.7894 10.26 67.7716 10.26 67.7538C10.26 67.7359 10.26 67.7179 10.26 67.6998C10.26 67.6818 10.26 67.6636 10.26 67.6454C10.26 67.6271 10.26 67.6088 10.26 67.5904C10.26 67.572 10.26 67.5535 10.26 67.5349C10.26 67.5163 10.26 67.4976 10.26 67.4789C10.26 67.4601 10.26 67.4412 10.26 67.4223C10.26 67.4034 10.26 67.3843 10.26 67.3652C10.26 67.3461 10.26 67.3269 10.26 67.3077C10.26 67.2884 10.26 67.269 10.26 67.2496C10.26 67.2301 10.26 67.2106 10.26 67.191C10.26 67.1713 10.26 67.1516 10.26 67.1318C10.26 67.1121 10.26 67.0922 10.26 67.0722C10.26 67.0523 10.26 67.0322 10.26 67.0121C10.26 66.992 10.26 66.9718 10.26 66.9515C10.26 66.9312 10.26 66.9108 10.26 66.8904C10.26 66.8699 10.26 66.8494 10.26 66.8288C10.26 66.8081 10.26 66.7874 10.26 66.7667C10.26 66.7459 10.26 66.725 10.26 66.7041C10.26 66.6831 10.26 66.6621 10.26 66.641C10.26 66.6199 10.26 66.5987 10.26 66.5774C10.26 66.5561 10.26 66.5348 10.26 66.5134C10.26 66.4919 10.26 66.4704 10.26 66.4488C10.26 66.4272 10.26 66.4056 10.26 66.3838C10.26 66.3621 10.26 66.3403 10.26 66.3183C10.26 66.2964 10.26 66.2745 10.26 66.2524C10.26 66.2303 10.26 66.2082 10.26 66.186C10.26 66.1637 10.26 66.1414 10.26 66.1191C10.26 66.0967 10.26 66.0742 10.26 66.0517C10.26 66.0292 10.26 66.0066 10.26 65.9839C10.26 65.9612 10.26 65.9384 10.26 65.9156C10.26 65.8928 10.26 65.8698 10.26 65.8469C10.26 65.8239 10.26 65.8008 10.26 65.7777C10.26 65.7545 10.26 65.7313 10.26 65.708C10.26 65.6847 10.26 65.6614 10.26 65.6379C10.26 65.6145 10.26 65.5909 10.26 65.5674C10.26 65.5438 10.26 65.5201 10.26 65.4964C10.26 65.4726 10.26 65.4488 10.26 65.4249C10.26 65.401 10.26 65.3771 10.26 65.353C10.26 65.329 10.26 65.3049 10.26 65.2807C10.26 65.2565 10.26 65.2323 10.26 65.208C10.26 65.1836 10.26 65.1592 10.26 65.1348C10.26 65.1103 10.26 65.0858 10.26 65.0612C10.26 65.0366 10.26 65.0119 10.26 64.9871C10.26 64.9624 10.26 64.9375 10.26 64.9126C10.26 64.8877 10.26 64.8628 10.26 64.8377C10.26 64.8127 10.26 64.7876 10.26 64.7624C10.26 64.7373 10.26 64.712 10.26 64.6867C10.26 64.6614 10.26 64.636 10.26 64.6105C10.26 64.5851 10.26 64.5596 10.26 64.534C10.26 64.5084 10.26 64.4827 10.26 64.457C10.26 64.4313 10.26 64.4055 10.26 64.3796C10.26 64.3537 10.26 64.3278 10.26 64.3018C10.26 64.2758 10.26 64.2497 10.26 64.2236C10.26 64.1975 10.26 64.1713 10.26 64.145C10.26 64.1187 10.26 64.0924 10.26 64.066C10.26 64.0396 10.26 64.0131 10.26 63.9866C10.26 63.9601 10.26 63.9335 10.26 63.9068C10.26 63.8802 10.26 63.8534 10.26 63.8266C10.26 63.7999 10.26 63.773 10.26 63.7461C10.26 63.7192 10.26 63.6922 10.26 63.6651C10.26 63.6381 10.26 63.611 10.26 63.5838C10.26 63.5566 10.26 63.5294 10.26 63.5021C10.26 63.4748 10.26 63.4474 10.26 63.42C10.26 63.3925 10.26 63.365 10.26 63.3375C10.26 63.3099 10.26 63.2823 10.26 63.2546C10.26 63.2269 10.26 63.1992 10.26 63.1714C10.26 63.1436 10.26 63.1157 10.26 63.0878C10.26 63.0599 10.26 63.0319 10.26 63.0038C10.26 62.9758 10.26 62.9477 10.26 62.9195C10.26 62.8914 10.26 62.8631 10.26 62.8348C10.26 62.8065 10.26 62.7782 10.26 62.7498C10.26 62.7214 10.26 62.6929 10.26 62.6644C10.26 62.6359 10.26 62.6073 10.26 62.5786C10.26 62.55 10.26 62.5213 10.26 62.4925C10.26 62.4637 10.26 62.4349 10.26 62.406C10.26 62.3772 10.26 62.3482 10.26 62.3192C10.26 62.2902 10.26 62.2612 10.26 62.2321C10.26 62.203 10.26 62.1738 10.26 62.1446C10.26 62.1154 10.26 62.0861 10.26 62.0568C10.26 62.0274 10.26 61.998 10.26 61.9686C10.26 61.9391 10.26 61.9096 10.26 61.8801C10.26 61.8505 10.26 61.8209 10.26 61.7912C10.26 61.7616 10.26 61.7318 10.26 61.7021C10.26 61.6723 10.26 61.6424 10.26 61.6126C10.26 61.5827 10.26 61.5527 10.26 61.5227C10.26 61.4927 10.26 61.4627 10.26 61.4326C10.26 61.4025 10.26 61.3723 10.26 61.3421C10.26 61.3119 10.26 61.2817 10.26 61.2513C10.26 61.221 10.26 61.1907 10.26 61.1602C10.26 61.1298 10.26 61.0994 10.26 61.0688C10.26 61.0383 10.26 61.0077 10.26 60.9771C10.26 60.9465 10.26 60.9158 10.26 60.8851C10.26 60.8543 10.26 60.8236 10.26 60.7927C10.26 60.7619 10.26 60.731 10.26 60.7001C10.26 60.6692 10.26 60.6382 10.26 60.6072C10.26 60.5761 10.26 60.5451 10.26 60.5139C10.26 60.4828 10.26 60.4516 10.26 60.4204C10.26 60.3892 10.26 60.3579 10.26 60.3266C10.26 60.2952 10.26 60.2639 10.26 60.2324C10.26 60.201 10.26 60.1696 10.26 60.138C10.26 60.1065 10.26 60.075 10.26 60.0434C10.26 60.0117 10.26 59.9801 10.26 59.9484C10.26 59.9167 10.26 59.8849 10.26 59.8531C10.26 59.8213 10.26 59.7895 10.26 59.7576C10.26 59.7257 10.26 59.6938 10.26 59.6618C10.26 59.6298 10.26 59.5978 10.26 59.5657C10.26 59.5336 10.26 59.5015 10.26 59.4693C10.26 59.4372 10.26 59.405 10.26 59.3727C10.26 59.3405 10.26 59.3082 10.26 59.2758C10.26 59.2435 10.26 59.2111 10.26 59.1787C10.26 59.1463 10.26 59.1138 10.26 59.0813C10.26 59.0488 10.26 59.0162 10.26 58.9836C10.26 58.951 10.26 58.9184 10.26 58.8857C10.26 58.853 10.26 58.8203 10.26 58.7875C10.26 58.7547 10.26 58.7219 10.26 58.6891C10.26 58.6562 10.26 58.6233 10.26 58.5904C10.26 58.5574 10.26 58.5245 10.26 58.4914C10.26 58.4584 10.26 58.4254 10.26 58.3923C10.26 58.3592 10.26 58.326 10.26 58.2929C10.26 58.2597 10.26 58.2265 10.26 58.1932C10.26 58.16 10.26 58.1267 10.26 58.0933C10.26 58.06 10.26 58.0266 10.26 57.9932C10.26 57.9598 10.26 57.9263 10.26 57.8928C10.26 57.8594 10.26 57.8258 10.26 57.7923C10.26 57.7587 10.26 57.7251 10.26 57.6915C10.26 57.6578 10.26 57.6241 10.26 57.5904C10.26 57.5567 10.26 57.5229 10.26 57.4892C10.26 57.4554 10.26 57.4215 10.26 57.3877C10.26 57.3538 10.26 57.3199 10.26 57.286C10.26 57.2521 10.26 57.2181 10.26 57.1841C10.26 57.1501 10.26 57.116 10.26 57.082C10.26 57.0479 10.26 57.0138 10.26 56.9796C10.26 56.9455 10.26 56.9113 10.26 56.8771C10.26 56.8429 10.26 56.8087 10.26 56.7744C10.26 56.7401 10.26 56.7058 10.26 56.6714C10.26 56.6371 10.26 56.6027 10.26 56.5683C10.26 56.5339 10.26 56.4994 10.26 56.465C10.26 56.4305 10.26 56.396 10.26 56.3614C10.26 56.3269 10.26 56.2923 10.26 56.2577C10.26 56.2231 10.26 56.1884 10.26 56.1538C10.26 56.1191 10.26 56.0844 10.26 56.0497C10.26 56.0149 10.26 55.9802 10.26 55.9454C10.26 55.9106 10.26 55.8758 10.26 55.8409C10.26 55.8061 10.26 55.7712 10.26 55.7363C10.26 55.7014 10.26 55.6664 10.26 55.6315C10.26 55.5965 10.26 55.5615 10.26 55.5265C10.26 55.4914 10.26 55.4564 10.26 55.4213C10.26 55.3862 10.26 55.3511 10.26 55.3159C10.26 55.2808 10.26 55.2456 10.26 55.2104C10.26 55.1752 10.26 55.14 10.26 55.1048C10.26 55.0695 10.26 55.0342 10.26 54.9989C10.26 54.9636 10.26 54.9283 10.26 54.8929C10.26 54.8576 10.26 54.8222 10.26 54.7868C10.26 54.7514 10.26 54.7159 10.26 54.6805C10.26 54.645 10.26 54.6095 10.26 54.574C10.26 54.5385 10.26 54.5029 10.26 54.4674C10.26 54.4318 10.26 54.3962 10.26 54.3606C10.26 54.325 10.26 54.2894 10.26 54.2537C10.26 54.218 10.26 54.1824 10.26 54.1467C10.26 54.111 10.26 54.0752 10.26 54.0395C10.26 54.0037 10.26 53.9679 10.26 53.9321C10.26 53.8963 10.26 53.8605 10.26 53.8247C10.26 53.7888 10.26 53.753 10.26 53.7171C10.26 53.6812 10.26 53.6453 10.26 53.6093C10.26 53.5734 10.26 53.5375 10.26 53.5015C10.26 53.4655 10.26 53.4295 10.26 53.3935C10.26 53.3575 10.26 53.3215 10.26 53.2854C10.26 53.2494 10.26 53.2133 10.26 53.1772C10.26 53.1411 10.26 53.105 10.26 53.0688C10.26 53.0327 10.26 52.9966 10.26 52.9604C10.26 52.9242 10.26 52.888 10.26 52.8518C10.26 52.8156 10.26 52.7794 10.26 52.7431C10.26 52.7069 10.26 52.6706 10.26 52.6343C10.26 52.598 10.26 52.5618 10.26 52.5254C10.26 52.4891 10.26 52.4528 10.26 52.4164C10.26 52.3801 10.26 52.3437 10.26 52.3073C10.26 52.2709 10.26 52.2345 10.26 52.1981C10.26 52.1617 10.26 52.1253 10.26 52.0888C10.26 52.0524 10.26 52.0159 10.26 51.9794C10.26 51.943 10.26 51.9065 10.26 51.87C10.26 51.8335 10.26 51.7969 10.26 51.7604C10.26 51.7239 10.26 51.6873 10.26 51.6507C10.26 51.6142 10.26 51.5776 10.26 51.541C10.26 51.5044 10.26 51.4678 10.26 51.4312C10.26 51.3946 10.26 51.3579 10.26 51.3213C10.26 51.2846 10.26 51.248 10.26 51.2113C10.26 51.1746 10.26 51.1379 10.26 51.1012C10.26 51.0645 10.26 51.0278 10.26 50.9911C10.26 50.9544 10.26 50.9177 10.26 50.8809C10.26 50.8442 10.26 50.8074 10.26 50.7707C10.26 50.7339 10.26 50.6971 10.26 50.6603C10.26 50.6236 10.26 50.5868 10.26 50.55C10.26 50.5132 10.26 50.4763 10.26 50.4395C10.26 50.4027 10.26 50.3659 10.26 50.329C10.26 50.2922 10.26 50.2553 10.26 50.2185C10.26 50.1816 10.26 50.1447 10.26 50.1079C10.26 50.071 10.26 50.0341 10.26 49.9972C10.26 49.9603 10.26 49.9234 10.26 49.8865C10.26 49.8496 10.26 49.8127 10.26 49.7758C10.26 49.7388 10.26 49.7019 10.26 49.665C10.26 49.628 10.26 49.5911 10.26 49.5541C10.26 49.5172 10.26 49.4802 10.26 49.4433C10.26 49.4063 10.26 49.3693 10.26 49.3324C10.26 49.2954 10.26 49.2584 10.26 49.2214C10.26 49.1845 10.26 49.1475 10.26 49.1105C10.26 49.0735 10.26 49.0365 10.26 48.9995C10.26 48.9625 10.26 48.9255 10.26 48.8885C10.26 48.8515 10.26 48.8145 10.26 48.7774C10.26 48.7404 10.26 48.7034 10.26 48.6664C10.26 48.6294 10.26 48.5923 10.26 48.5553C10.26 48.5183 10.26 48.4813 10.26 48.4442C10.26 48.4072 10.26 48.3702 10.26 48.3331C10.26 48.2961 10.26 48.2591 10.26 48.222C10.26 48.185 10.26 48.1479 10.26 48.1109C10.26 48.0739 10.26 48.0368 10.26 47.9998C10.26 47.9627 10.26 47.9257 10.26 47.8887C10.26 47.8516 10.26 47.8146 10.26 47.7775C10.26 47.7405 10.26 47.7035 10.26 47.6664C10.26 47.6294 10.26 47.5923 10.26 47.5553C10.26 47.5183 10.26 47.4812 10.26 47.4442C10.26 47.4072 10.26 47.3701 10.26 47.3331C10.26 47.2961 10.26 47.259 10.26 47.222C10.26 47.185 10.26 47.1479 10.26 47.1109C10.26 47.0739 10.26 47.0369 10.26 46.9999C10.26 46.9629 10.26 46.9258 10.26 46.8888C10.26 46.8518 10.26 46.8148 10.26 46.7778C10.26 46.7408 10.26 46.7038 10.26 46.6668C10.26 46.6298 10.26 46.5929 10.26 46.5559C10.26 46.5189 10.26 46.4819 10.26 46.4449C10.26 46.408 10.26 46.371 10.26 46.334C10.26 46.2971 10.26 46.2601 10.26 46.2232C10.26 46.1862 10.26 46.1493 10.26 46.1123C10.26 46.0754 10.26 46.0385 10.26 46.0016C10.26 45.9646 10.26 45.9277 10.26 45.8908C10.26 45.8539 10.26 45.817 10.26 45.7801C10.26 45.7432 10.26 45.7063 10.26 45.6694C10.26 45.6326 10.26 45.5957 10.26 45.5588C10.26 45.522 10.26 45.4851 10.26 45.4483C10.26 45.4114 10.26 45.3746 10.26 45.3378C10.26 45.3009 10.26 45.2641 10.26 45.2273C10.26 45.1905 10.26 45.1537 10.26 45.1169C10.26 45.0802 10.26 45.0434 10.26 45.0066C10.26 44.9699 10.26 44.9331 10.26 44.8964C10.26 44.8596 10.26 44.8229 10.26 44.7862C10.26 44.7494 10.26 44.7127 10.26 44.676C10.26 44.6393 10.26 44.6026 10.26 44.566C10.26 44.5293 10.26 44.4926 10.26 44.456C10.26 44.4193 10.26 44.3827 10.26 44.3461C10.26 44.3095 10.26 44.2729 10.26 44.2363C10.26 44.1997 10.26 44.1631 10.26 44.1265C10.26 44.09 10.26 44.0534 10.26 44.0169C10.26 43.9803 10.26 43.9438 10.26 43.9073C10.26 43.8708 10.26 43.8343 10.26 43.7978C10.26 43.7613 10.26 43.7249 10.26 43.6884C10.26 43.652 10.26 43.6155 10.26 43.5791C10.26 43.5427 10.26 43.5063 10.26 43.4699C10.26 43.4335 10.26 43.3971 10.26 43.3608C10.26 43.3244 10.26 43.2881 10.26 43.2518C10.26 43.2155 10.26 43.1792 10.26 43.1429C10.26 43.1066 10.26 43.0703 10.26 43.0341C10.26 42.9978 10.26 42.9616 10.26 42.9254C10.26 42.8892 10.26 42.853 10.26 42.8168C10.26 42.7806 10.26 42.7445 10.26 42.7084C10.26 42.6722 10.26 42.6361 10.26 42.6C10.26 42.5639 10.26 42.5278 10.26 42.4918C10.26 42.4557 10.26 42.4197 10.26 42.3837C10.26 42.3476 10.26 42.3116 10.26 42.2757C10.26 42.2397 10.26 42.2037 10.26 42.1678C10.26 42.1319 10.26 42.096 10.26 42.0601C10.26 42.0242 10.26 41.9883 10.26 41.9525C10.26 41.9166 10.26 41.8808 10.26 41.845C10.26 41.8092 10.26 41.7734 10.26 41.7377C10.26 41.7019 10.26 41.6662 10.26 41.6305C10.26 41.5948 10.26 41.5591 10.26 41.5234C10.26 41.4878 10.26 41.4521 10.26 41.4165C10.26 41.3809 10.26 41.3453 10.26 41.3097C10.26 41.2742 10.26 41.2386 10.26 41.2031C10.26 41.1676 10.26 41.1321 10.26 41.0966C10.26 41.0612 10.26 41.0257 10.26 40.9903C10.26 40.9549 10.26 40.9195 10.26 40.8842C10.26 40.8488 10.26 40.8135 10.26 40.7782C10.26 40.7428 10.26 40.7076 10.26 40.6723C10.26 40.6371 10.26 40.6018 10.26 40.5666C10.26 40.5314 10.26 40.4963 10.26 40.4611C10.26 40.426 10.26 40.3908 10.26 40.3558C10.26 40.3207 10.26 40.2856 10.26 40.2506C10.26 40.2155 10.26 40.1805 10.26 40.1456C10.26 40.1106 10.26 40.0756 10.26 40.0407C10.26 40.0058 10.26 39.9709 10.26 39.9361C10.26 39.9012 10.26 39.8664 10.26 39.8316C10.26 39.7968 10.26 39.762 10.26 39.7273C10.26 39.6926 10.26 39.6579 10.26 39.6232C10.26 39.5885 10.26 39.5539 10.26 39.5193C10.26 39.4847 10.26 39.4501 10.26 39.4155C10.26 39.381 10.26 39.3465 10.26 39.312C10.26 39.2775 10.26 39.2431 10.26 39.2087C10.26 39.1742 10.26 39.1399 10.26 39.1055C10.26 39.0711 10.26 39.0368 10.26 39.0026C10.26 38.9683 10.26 38.934 10.26 38.8998C10.26 38.8656 10.26 38.8314 10.26 38.7973C10.26 38.7631 10.26 38.729 10.26 38.6949C10.26 38.6608 10.26 38.6268 10.26 38.5928C10.26 38.5588 10.26 38.5248 10.26 38.4909C10.26 38.4569 10.26 38.423 10.26 38.3892C10.26 38.3553 10.26 38.3215 10.26 38.2877C10.26 38.2539 10.26 38.2201 10.26 38.1864C10.26 38.1527 10.26 38.119 10.26 38.0854C10.26 38.0517 10.26 38.0181 10.26 37.9846C10.26 37.951 10.26 37.9175 10.26 37.884C10.26 37.8505 10.26 37.817 10.26 37.7836C10.26 37.7502 10.26 37.7168 10.26 37.6835C10.26 37.6501 10.26 37.6168 10.26 37.5836C10.26 37.5503 10.26 37.5171 10.26 37.4839C10.26 37.4507 10.26 37.4176 10.26 37.3845C10.26 37.3514 10.26 37.3183 10.26 37.2853C10.26 37.2523 10.26 37.2193 10.26 37.1864C10.26 37.1534 10.26 37.1205 10.26 37.0877C10.26 37.0548 10.26 37.022 10.26 36.9892C10.26 36.9564 10.26 36.9237 10.26 36.891C10.26 36.8583 10.26 36.8257 10.26 36.7931C10.26 36.7605 10.26 36.7279 10.26 36.6954C10.26 36.6629 10.26 36.6304 10.26 36.598C10.26 36.5655 10.26 36.5331 10.26 36.5008C10.26 36.4685 10.26 36.4362 10.26 36.4039C10.26 36.3716 10.26 36.3394 10.26 36.3073C10.26 36.2751 10.26 36.243 10.26 36.2109C10.26 36.1788 10.26 36.1468 10.26 36.1148C10.26 36.0828 10.26 36.0509 10.26 36.019C10.26 35.9871 10.26 35.9552 10.26 35.9234C10.26 35.8916 10.26 35.8599 10.26 35.8282C10.26 35.7965 10.26 35.7648 10.26 35.7332C10.26 35.7016 10.26 35.67 10.26 35.6385C10.26 35.607 10.26 35.5755 10.26 35.5441C10.26 35.5126 10.26 35.4813 10.26 35.4499C10.26 35.4186 10.26 35.3873 10.26 35.3561C10.26 35.3249 10.26 35.2937 10.26 35.2625C10.26 35.2314 10.26 35.2003 10.26 35.1693C10.26 35.1383 10.26 35.1073 10.26 35.0763C10.26 35.0454 10.26 35.0145 10.26 34.9837C10.26 34.9528 10.26 34.9221 10.26 34.8913C10.26 34.8606 10.26 34.8299 10.26 34.7993C10.26 34.7687 10.26 34.7381 10.26 34.7075C10.26 34.677 10.26 34.6465 10.26 34.6161C10.26 34.5857 10.26 34.5553 10.26 34.525C10.26 34.4947 10.26 34.4644 10.26 34.4342C10.26 34.404 10.26 34.3738 10.26 34.3437C10.26 34.3136 10.26 34.2836 10.26 34.2536C10.26 34.2236 10.26 34.1936 10.26 34.1637C10.26 34.1338 10.26 34.104 10.26 34.0742C10.26 34.0444 10.26 34.0147 10.26 33.985C10.26 33.9553 10.26 33.9257 10.26 33.8962C10.26 33.8666 10.26 33.8371 10.26 33.8076C10.26 33.7782 10.26 33.7488 10.26 33.7194C10.26 33.6901 10.26 33.6608 10.26 33.6316C10.26 33.6024 10.26 33.5732 10.26 33.5441C10.26 33.515 10.26 33.4859 10.26 33.4569C10.26 33.4279 10.26 33.399 10.26 33.3701C10.26 33.3412 10.26 33.3124 10.26 33.2836C10.26 33.2548 10.26 33.2261 10.26 33.1975C10.26 33.1688 10.26 33.1402 10.26 33.1117C10.26 33.0832 10.26 33.0547 10.26 33.0263C10.26 32.9979 10.26 32.9695 10.26 32.9412C10.26 32.9129 10.26 32.8847 10.26 32.8565C10.26 32.8283 10.26 32.8002 10.26 32.7722C10.26 32.7441 10.26 32.7161 10.26 32.6882C10.26 32.6603 10.26 32.6324 10.26 32.6046C10.26 32.5768 10.26 32.549 10.26 32.5213C10.26 32.4936 10.26 32.466 10.26 32.4385C10.26 32.4109 10.26 32.3834 10.26 32.356C10.26 32.3285 10.26 32.3012 10.26 32.2738C10.26 32.2465 10.26 32.2193 10.26 32.1921C10.26 32.1649 10.26 32.1378 10.26 32.1107C10.26 32.0837 10.26 32.0567 10.26 32.0298C10.26 32.0028 10.26 31.976 10.26 31.9492C10.26 31.9224 10.26 31.8956 10.26 31.869C10.26 31.8423 10.26 31.8157 10.26 31.7892C10.26 31.7626 10.26 31.7362 10.26 31.7098C10.26 31.6834 10.26 31.657 10.26 31.6307C10.26 31.6045 10.26 31.5783 10.26 31.5521C10.26 31.526 10.26 31.4999 10.26 31.4739C10.26 31.4479 10.26 31.422 10.26 31.3961C10.26 31.3702 10.26 31.3444 10.26 31.3187C10.26 31.2929 10.26 31.2673 10.26 31.2417C10.26 31.2161 10.26 31.1906 10.26 31.1651C10.26 31.1396 10.26 31.1142 10.26 31.0889C10.26 31.0636 10.26 31.0383 10.26 31.0132C10.26 30.988 10.26 30.9629 10.26 30.9378C10.26 30.9128 10.26 30.8878 10.26 30.8629C10.26 30.838 10.26 30.8132 10.26 30.7884C10.26 30.7637 10.26 30.739 10.26 30.7143C10.26 30.6897 10.26 30.6652 10.26 30.6407C10.26 30.6162 10.26 30.5918 10.26 30.5675C10.26 30.5432 10.26 30.5189 10.26 30.4947C10.26 30.4705 10.26 30.4464 10.26 30.4224C10.26 30.3983 10.26 30.3744 10.26 30.3505C10.26 30.3266 10.26 30.3028 10.26 30.279C10.26 30.2553 10.26 30.2316 10.26 30.208C10.26 30.1844 10.26 30.1609 10.26 30.1374C10.26 30.114 10.26 30.0906 10.26 30.0673C10.26 30.044 10.26 30.0208 10.26 29.9976C10.26 29.9745 10.26 29.9514 10.26 29.9284C10.26 29.9054 10.26 29.8825 10.26 29.8597C10.26 29.8368 10.26 29.814 10.26 29.7913C10.26 29.7687 10.26 29.746 10.26 29.7235C10.26 29.701 10.26 29.6785 10.26 29.6561C10.26 29.6337 10.26 29.6114 10.26 29.5892C10.26 29.567 10.26 29.5448 10.26 29.5228C10.26 29.5007 10.26 29.4787 10.26 29.4568C10.26 29.4349 10.26 29.413 10.26 29.3913C10.26 29.3695 10.26 29.3478 10.26 29.3262C10.26 29.3046 10.26 29.2831 10.26 29.2617C10.26 29.2402 10.26 29.2189 10.26 29.1976C10.26 29.1763 10.26 29.1551 10.26 29.134C10.26 29.1129 10.26 29.0919 10.26 29.0709C10.26 29.05 10.26 29.0291 10.26 29.0083C10.26 28.9875 10.26 28.9668 10.26 28.9462C10.26 28.9255 10.26 28.905 10.26 28.8845C10.26 28.8641 10.26 28.8437 10.26 28.8234C10.26 28.8031 10.26 28.7829 10.26 28.7627C10.26 28.7426 10.26 28.7226 10.26 28.7026C10.26 28.6826 10.26 28.6628 10.26 28.643C10.26 28.6232 10.26 28.6035 10.26 28.5838C10.26 28.5642 10.26 28.5447 10.26 28.5252C10.26 28.5057 10.26 28.4864 10.26 28.4671C10.26 28.4478 10.26 28.4286 10.26 28.4095C10.26 28.3904 10.26 28.3713 10.26 28.3524C10.26 28.3334 10.26 28.3146 10.26 28.2958C10.26 28.277 10.26 28.2583 10.26 28.2397C10.26 28.2211 10.26 28.2026 10.26 28.1842C10.26 28.1658 10.26 28.1475 10.26 28.1292C10.26 28.111 10.26 28.0928 10.26 28.0747C10.26 28.0567 10.26 28.0387 10.26 28.0208C10.26 28.0029 10.26 27.9851 10.26 27.9673C10.26 27.9496 10.26 27.932 10.26 27.9145C10.26 27.8969 10.26 27.8795 10.26 27.8621C10.26 27.8448 10.26 27.8275 10.26 27.8103C10.26 27.7931 10.26 27.776 10.26 27.759C10.26 27.742 10.26 27.7251 10.26 27.7083C10.26 27.6915 10.26 27.6748 10.26 27.6581C10.26 27.6415 10.26 27.625 10.26 27.6085C10.26 27.5921 10.26 27.5757 10.26 27.5594C10.26 27.5432 10.26 27.527 10.26 27.5109C10.26 27.4948 10.26 27.4788 10.26 27.4629C10.26 27.447 10.26 27.4312 10.26 27.4155C10.26 27.3998 10.26 27.3842 10.26 27.3687C10.26 27.3532 10.26 27.3377 10.26 27.3224C10.26 27.3071 10.26 27.2918 10.26 27.2767C10.26 27.2615 10.26 27.2465 10.26 27.2315C10.26 27.2166 10.26 27.2017 10.26 27.187C10.26 27.1722 10.26 27.1575 10.26 27.143C10.26 27.1284 10.26 27.1139 10.26 27.0995C10.26 27.0852 10.26 27.0709 10.26 27.0567C10.26 27.0425 10.26 27.0284 10.26 27.0144C10.26 27.0004 10.26 26.9865 10.26 26.9727C10.26 26.9589 10.26 26.9452 10.26 26.9316C10.26 26.918 10.26 26.9045 10.26 26.8911C10.26 26.8777 10.26 26.8644 10.26 26.8512C10.26 26.838 10.26 26.8249 10.26 26.8119C10.26 26.7989 10.26 26.786 10.26 26.7732C10.26 26.7604 10.26 26.7476 10.26 26.735C10.26 26.7224 10.26 26.7099 10.26 26.6975C10.26 26.6851 10.26 26.6728 10.26 26.6606C10.26 26.6484 10.26 26.6363 10.26 26.6243C10.26 26.6123 10.26 26.6004 10.26 26.5886C10.26 26.5768 10.26 26.5651 10.26 26.5535C10.26 26.5419 10.26 26.5304 10.26 26.519C10.26 26.5076 10.26 26.4963 10.26 26.4851C10.26 26.4739 10.26 26.4628 10.26 26.4518C10.26 26.4409 10.26 26.43 10.26 26.4192H6.694C6.694 26.43 6.694 26.4409 6.694 26.4518C6.694 26.4628 6.694 26.4739 6.694 26.4851C6.694 26.4963 6.694 26.5076 6.694 26.519C6.694 26.5304 6.694 26.5419 6.694 26.5535C6.694 26.5651 6.694 26.5768 6.694 26.5886C6.694 26.6004 6.694 26.6123 6.694 26.6243C6.694 26.6363 6.694 26.6484 6.694 26.6606C6.694 26.6728 6.694 26.6851 6.694 26.6975C6.694 26.7099 6.694 26.7224 6.694 26.735C6.694 26.7476 6.694 26.7604 6.694 26.7732C6.694 26.786 6.694 26.7989 6.694 26.8119C6.694 26.8249 6.694 26.838 6.694 26.8512C6.694 26.8644 6.694 26.8777 6.694 26.8911C6.694 26.9045 6.694 26.918 6.694 26.9316C6.694 26.9452 6.694 26.9589 6.694 26.9727C6.694 26.9865 6.694 27.0004 6.694 27.0144C6.694 27.0284 6.694 27.0425 6.694 27.0567C6.694 27.0709 6.694 27.0852 6.694 27.0995C6.694 27.1139 6.694 27.1284 6.694 27.143C6.694 27.1575 6.694 27.1722 6.694 27.187C6.694 27.2017 6.694 27.2166 6.694 27.2315C6.694 27.2465 6.694 27.2615 6.694 27.2767C6.694 27.2918 6.694 27.3071 6.694 27.3224C6.694 27.3377 6.694 27.3532 6.694 27.3687C6.694 27.3842 6.694 27.3998 6.694 27.4155C6.694 27.4312 6.694 27.447 6.694 27.4629C6.694 27.4788 6.694 27.4948 6.694 27.5109C6.694 27.527 6.694 27.5432 6.694 27.5594C6.694 27.5757 6.694 27.5921 6.694 27.6085C6.694 27.625 6.694 27.6415 6.694 27.6581C6.694 27.6748 6.694 27.6915 6.694 27.7083C6.694 27.7251 6.694 27.742 6.694 27.759C6.694 27.776 6.694 27.7931 6.694 27.8103C6.694 27.8275 6.694 27.8448 6.694 27.8621C6.694 27.8795 6.694 27.8969 6.694 27.9145C6.694 27.932 6.694 27.9496 6.694 27.9673C6.694 27.9851 6.694 28.0029 6.694 28.0208C6.694 28.0387 6.694 28.0567 6.694 28.0747C6.694 28.0928 6.694 28.111 6.694 28.1292C6.694 28.1475 6.694 28.1658 6.694 28.1842C6.694 28.2026 6.694 28.2211 6.694 28.2397C6.694 28.2583 6.694 28.277 6.694 28.2958C6.694 28.3146 6.694 28.3334 6.694 28.3524C6.694 28.3713 6.694 28.3904 6.694 28.4095C6.694 28.4286 6.694 28.4478 6.694 28.4671C6.694 28.4864 6.694 28.5057 6.694 28.5252C6.694 28.5447 6.694 28.5642 6.694 28.5838C6.694 28.6035 6.694 28.6232 6.694 28.643C6.694 28.6628 6.694 28.6826 6.694 28.7026C6.694 28.7226 6.694 28.7426 6.694 28.7627C6.694 28.7829 6.694 28.8031 6.694 28.8234C6.694 28.8437 6.694 28.8641 6.694 28.8845C6.694 28.905 6.694 28.9255 6.694 28.9462C6.694 28.9668 6.694 28.9875 6.694 29.0083C6.694 29.0291 6.694 29.05 6.694 29.0709C6.694 29.0919 6.694 29.1129 6.694 29.134C6.694 29.1551 6.694 29.1763 6.694 29.1976C6.694 29.2189 6.694 29.2402 6.694 29.2617C6.694 29.2831 6.694 29.3046 6.694 29.3262C6.694 29.3478 6.694 29.3695 6.694 29.3913C6.694 29.413 6.694 29.4349 6.694 29.4568C6.694 29.4787 6.694 29.5007 6.694 29.5228C6.694 29.5448 6.694 29.567 6.694 29.5892C6.694 29.6114 6.694 29.6337 6.694 29.6561C6.694 29.6785 6.694 29.701 6.694 29.7235C6.694 29.746 6.694 29.7687 6.694 29.7913C6.694 29.814 6.694 29.8368 6.694 29.8597C6.694 29.8825 6.694 29.9054 6.694 29.9284C6.694 29.9514 6.694 29.9745 6.694 29.9976C6.694 30.0208 6.694 30.044 6.694 30.0673C6.694 30.0906 6.694 30.114 6.694 30.1374C6.694 30.1609 6.694 30.1844 6.694 30.208C6.694 30.2316 6.694 30.2553 6.694 30.279C6.694 30.3028 6.694 30.3266 6.694 30.3505C6.694 30.3744 6.694 30.3983 6.694 30.4224C6.694 30.4464 6.694 30.4705 6.694 30.4947C6.694 30.5189 6.694 30.5432 6.694 30.5675C6.694 30.5918 6.694 30.6162 6.694 30.6407C6.694 30.6652 6.694 30.6897 6.694 30.7143C6.694 30.739 6.694 30.7637 6.694 30.7884C6.694 30.8132 6.694 30.838 6.694 30.8629C6.694 30.8878 6.694 30.9128 6.694 30.9378C6.694 30.9629 6.694 30.988 6.694 31.0132C6.694 31.0383 6.694 31.0636 6.694 31.0889C6.694 31.1142 6.694 31.1396 6.694 31.1651C6.694 31.1906 6.694 31.2161 6.694 31.2417C6.694 31.2673 6.694 31.2929 6.694 31.3187C6.694 31.3444 6.694 31.3702 6.694 31.3961C6.694 31.422 6.694 31.4479 6.694 31.4739C6.694 31.4999 6.694 31.526 6.694 31.5521C6.694 31.5783 6.694 31.6045 6.694 31.6307C6.694 31.657 6.694 31.6834 6.694 31.7098C6.694 31.7362 6.694 31.7626 6.694 31.7892C6.694 31.8157 6.694 31.8423 6.694 31.869C6.694 31.8956 6.694 31.9224 6.694 31.9492C6.694 31.976 6.694 32.0028 6.694 32.0298C6.694 32.0567 6.694 32.0837 6.694 32.1107C6.694 32.1378 6.694 32.1649 6.694 32.1921C6.694 32.2193 6.694 32.2465 6.694 32.2738C6.694 32.3012 6.694 32.3285 6.694 32.356C6.694 32.3834 6.694 32.4109 6.694 32.4385C6.694 32.466 6.694 32.4936 6.694 32.5213C6.694 32.549 6.694 32.5768 6.694 32.6046C6.694 32.6324 6.694 32.6603 6.694 32.6882C6.694 32.7161 6.694 32.7441 6.694 32.7722C6.694 32.8002 6.694 32.8283 6.694 32.8565C6.694 32.8847 6.694 32.9129 6.694 32.9412C6.694 32.9695 6.694 32.9979 6.694 33.0263C6.694 33.0547 6.694 33.0832 6.694 33.1117C6.694 33.1402 6.694 33.1688 6.694 33.1975C6.694 33.2261 6.694 33.2548 6.694 33.2836C6.694 33.3124 6.694 33.3412 6.694 33.3701C6.694 33.399 6.694 33.4279 6.694 33.4569C6.694 33.4859 6.694 33.515 6.694 33.5441C6.694 33.5732 6.694 33.6024 6.694 33.6316C6.694 33.6608 6.694 33.6901 6.694 33.7194C6.694 33.7488 6.694 33.7782 6.694 33.8076C6.694 33.8371 6.694 33.8666 6.694 33.8962C6.694 33.9257 6.694 33.9553 6.694 33.985C6.694 34.0147 6.694 34.0444 6.694 34.0742C6.694 34.104 6.694 34.1338 6.694 34.1637C6.694 34.1936 6.694 34.2236 6.694 34.2536C6.694 34.2836 6.694 34.3136 6.694 34.3437C6.694 34.3738 6.694 34.404 6.694 34.4342C6.694 34.4644 6.694 34.4947 6.694 34.525C6.694 34.5553 6.694 34.5857 6.694 34.6161C6.694 34.6465 6.694 34.677 6.694 34.7075C6.694 34.7381 6.694 34.7687 6.694 34.7993C6.694 34.8299 6.694 34.8606 6.694 34.8913C6.694 34.9221 6.694 34.9528 6.694 34.9837C6.694 35.0145 6.694 35.0454 6.694 35.0763C6.694 35.1073 6.694 35.1383 6.694 35.1693C6.694 35.2003 6.694 35.2314 6.694 35.2625C6.694 35.2937 6.694 35.3249 6.694 35.3561C6.694 35.3873 6.694 35.4186 6.694 35.4499C6.694 35.4813 6.694 35.5126 6.694 35.5441C6.694 35.5755 6.694 35.607 6.694 35.6385C6.694 35.67 6.694 35.7016 6.694 35.7332C6.694 35.7648 6.694 35.7965 6.694 35.8282C6.694 35.8599 6.694 35.8916 6.694 35.9234C6.694 35.9552 6.694 35.9871 6.694 36.019C6.694 36.0509 6.694 36.0828 6.694 36.1148C6.694 36.1468 6.694 36.1788 6.694 36.2109C6.694 36.243 6.694 36.2751 6.694 36.3073C6.694 36.3394 6.694 36.3716 6.694 36.4039C6.694 36.4362 6.694 36.4685 6.694 36.5008C6.694 36.5331 6.694 36.5655 6.694 36.598C6.694 36.6304 6.694 36.6629 6.694 36.6954C6.694 36.7279 6.694 36.7605 6.694 36.7931C6.694 36.8257 6.694 36.8583 6.694 36.891C6.694 36.9237 6.694 36.9564 6.694 36.9892C6.694 37.022 6.694 37.0548 6.694 37.0877C6.694 37.1205 6.694 37.1534 6.694 37.1864C6.694 37.2193 6.694 37.2523 6.694 37.2853C6.694 37.3183 6.694 37.3514 6.694 37.3845C6.694 37.4176 6.694 37.4507 6.694 37.4839C6.694 37.5171 6.694 37.5503 6.694 37.5836C6.694 37.6168 6.694 37.6501 6.694 37.6835C6.694 37.7168 6.694 37.7502 6.694 37.7836C6.694 37.817 6.694 37.8505 6.694 37.884C6.694 37.9175 6.694 37.951 6.694 37.9846C6.694 38.0181 6.694 38.0517 6.694 38.0854C6.694 38.119 6.694 38.1527 6.694 38.1864C6.694 38.2201 6.694 38.2539 6.694 38.2877C6.694 38.3215 6.694 38.3553 6.694 38.3892C6.694 38.423 6.694 38.4569 6.694 38.4909C6.694 38.5248 6.694 38.5588 6.694 38.5928C6.694 38.6268 6.694 38.6608 6.694 38.6949C6.694 38.729 6.694 38.7631 6.694 38.7973C6.694 38.8314 6.694 38.8656 6.694 38.8998C6.694 38.934 6.694 38.9683 6.694 39.0026C6.694 39.0368 6.694 39.0711 6.694 39.1055C6.694 39.1399 6.694 39.1742 6.694 39.2087C6.694 39.2431 6.694 39.2775 6.694 39.312C6.694 39.3465 6.694 39.381 6.694 39.4155C6.694 39.4501 6.694 39.4847 6.694 39.5193C6.694 39.5539 6.694 39.5885 6.694 39.6232C6.694 39.6579 6.694 39.6926 6.694 39.7273C6.694 39.762 6.694 39.7968 6.694 39.8316C6.694 39.8664 6.694 39.9012 6.694 39.9361C6.694 39.9709 6.694 40.0058 6.694 40.0407C6.694 40.0756 6.694 40.1106 6.694 40.1456C6.694 40.1805 6.694 40.2155 6.694 40.2506C6.694 40.2856 6.694 40.3207 6.694 40.3558C6.694 40.3908 6.694 40.426 6.694 40.4611C6.694 40.4963 6.694 40.5314 6.694 40.5666C6.694 40.6018 6.694 40.6371 6.694 40.6723C6.694 40.7076 6.694 40.7428 6.694 40.7782C6.694 40.8135 6.694 40.8488 6.694 40.8842C6.694 40.9195 6.694 40.9549 6.694 40.9903C6.694 41.0257 6.694 41.0612 6.694 41.0966C6.694 41.1321 6.694 41.1676 6.694 41.2031C6.694 41.2386 6.694 41.2742 6.694 41.3097C6.694 41.3453 6.694 41.3809 6.694 41.4165C6.694 41.4521 6.694 41.4878 6.694 41.5234C6.694 41.5591 6.694 41.5948 6.694 41.6305C6.694 41.6662 6.694 41.7019 6.694 41.7377C6.694 41.7734 6.694 41.8092 6.694 41.845C6.694 41.8808 6.694 41.9166 6.694 41.9525C6.694 41.9883 6.694 42.0242 6.694 42.0601C6.694 42.096 6.694 42.1319 6.694 42.1678C6.694 42.2037 6.694 42.2397 6.694 42.2757C6.694 42.3116 6.694 42.3476 6.694 42.3837C6.694 42.4197 6.694 42.4557 6.694 42.4918C6.694 42.5278 6.694 42.5639 6.694 42.6C6.694 42.6361 6.694 42.6722 6.694 42.7084C6.694 42.7445 6.694 42.7806 6.694 42.8168C6.694 42.853 6.694 42.8892 6.694 42.9254C6.694 42.9616 6.694 42.9978 6.694 43.0341C6.694 43.0703 6.694 43.1066 6.694 43.1429C6.694 43.1792 6.694 43.2155 6.694 43.2518C6.694 43.2881 6.694 43.3244 6.694 43.3608C6.694 43.3971 6.694 43.4335 6.694 43.4699C6.694 43.5063 6.694 43.5427 6.694 43.5791C6.694 43.6155 6.694 43.652 6.694 43.6884C6.694 43.7249 6.694 43.7613 6.694 43.7978C6.694 43.8343 6.694 43.8708 6.694 43.9073C6.694 43.9438 6.694 43.9803 6.694 44.0169C6.694 44.0534 6.694 44.09 6.694 44.1265C6.694 44.1631 6.694 44.1997 6.694 44.2363C6.694 44.2729 6.694 44.3095 6.694 44.3461C6.694 44.3827 6.694 44.4193 6.694 44.456C6.694 44.4926 6.694 44.5293 6.694 44.566C6.694 44.6026 6.694 44.6393 6.694 44.676C6.694 44.7127 6.694 44.7494 6.694 44.7862C6.694 44.8229 6.694 44.8596 6.694 44.8964C6.694 44.9331 6.694 44.9699 6.694 45.0066C6.694 45.0434 6.694 45.0802 6.694 45.1169C6.694 45.1537 6.694 45.1905 6.694 45.2273C6.694 45.2641 6.694 45.3009 6.694 45.3378C6.694 45.3746 6.694 45.4114 6.694 45.4483C6.694 45.4851 6.694 45.522 6.694 45.5588C6.694 45.5957 6.694 45.6326 6.694 45.6694C6.694 45.7063 6.694 45.7432 6.694 45.7801C6.694 45.817 6.694 45.8539 6.694 45.8908C6.694 45.9277 6.694 45.9646 6.694 46.0016C6.694 46.0385 6.694 46.0754 6.694 46.1123C6.694 46.1493 6.694 46.1862 6.694 46.2232C6.694 46.2601 6.694 46.2971 6.694 46.334C6.694 46.371 6.694 46.408 6.694 46.4449C6.694 46.4819 6.694 46.5189 6.694 46.5559C6.694 46.5929 6.694 46.6298 6.694 46.6668C6.694 46.7038 6.694 46.7408 6.694 46.7778C6.694 46.8148 6.694 46.8518 6.694 46.8888C6.694 46.9258 6.694 46.9629 6.694 46.9999C6.694 47.0369 6.694 47.0739 6.694 47.1109C6.694 47.1479 6.694 47.185 6.694 47.222C6.694 47.259 6.694 47.2961 6.694 47.3331C6.694 47.3701 6.694 47.4072 6.694 47.4442C6.694 47.4812 6.694 47.5183 6.694 47.5553C6.694 47.5923 6.694 47.6294 6.694 47.6664C6.694 47.7035 6.694 47.7405 6.694 47.7775C6.694 47.8146 6.694 47.8516 6.694 47.8887C6.694 47.9257 6.694 47.9627 6.694 47.9998C6.694 48.0368 6.694 48.0739 6.694 48.1109C6.694 48.1479 6.694 48.185 6.694 48.222C6.694 48.2591 6.694 48.2961 6.694 48.3331C6.694 48.3702 6.694 48.4072 6.694 48.4442C6.694 48.4813 6.694 48.5183 6.694 48.5553C6.694 48.5923 6.694 48.6294 6.694 48.6664C6.694 48.7034 6.694 48.7404 6.694 48.7774C6.694 48.8145 6.694 48.8515 6.694 48.8885C6.694 48.9255 6.694 48.9625 6.694 48.9995C6.694 49.0365 6.694 49.0735 6.694 49.1105C6.694 49.1475 6.694 49.1845 6.694 49.2214C6.694 49.2584 6.694 49.2954 6.694 49.3324C6.694 49.3693 6.694 49.4063 6.694 49.4433C6.694 49.4802 6.694 49.5172 6.694 49.5541C6.694 49.5911 6.694 49.628 6.694 49.665C6.694 49.7019 6.694 49.7388 6.694 49.7758C6.694 49.8127 6.694 49.8496 6.694 49.8865C6.694 49.9234 6.694 49.9603 6.694 49.9972C6.694 50.0341 6.694 50.071 6.694 50.1079C6.694 50.1447 6.694 50.1816 6.694 50.2185C6.694 50.2553 6.694 50.2922 6.694 50.329C6.694 50.3659 6.694 50.4027 6.694 50.4395C6.694 50.4763 6.694 50.5132 6.694 50.55C6.694 50.5868 6.694 50.6236 6.694 50.6603C6.694 50.6971 6.694 50.7339 6.694 50.7707C6.694 50.8074 6.694 50.8442 6.694 50.8809C6.694 50.9177 6.694 50.9544 6.694 50.9911C6.694 51.0278 6.694 51.0645 6.694 51.1012C6.694 51.1379 6.694 51.1746 6.694 51.2113C6.694 51.248 6.694 51.2846 6.694 51.3213C6.694 51.3579 6.694 51.3946 6.694 51.4312C6.694 51.4678 6.694 51.5044 6.694 51.541C6.694 51.5776 6.694 51.6142 6.694 51.6507C6.694 51.6873 6.694 51.7239 6.694 51.7604C6.694 51.7969 6.694 51.8335 6.694 51.87C6.694 51.9065 6.694 51.943 6.694 51.9794C6.694 52.0159 6.694 52.0524 6.694 52.0888C6.694 52.1253 6.694 52.1617 6.694 52.1981C6.694 52.2345 6.694 52.2709 6.694 52.3073C6.694 52.3437 6.694 52.3801 6.694 52.4164C6.694 52.4528 6.694 52.4891 6.694 52.5254C6.694 52.5618 6.694 52.598 6.694 52.6343C6.694 52.6706 6.694 52.7069 6.694 52.7431C6.694 52.7794 6.694 52.8156 6.694 52.8518C6.694 52.888 6.694 52.9242 6.694 52.9604C6.694 52.9966 6.694 53.0327 6.694 53.0688C6.694 53.105 6.694 53.1411 6.694 53.1772C6.694 53.2133 6.694 53.2494 6.694 53.2854C6.694 53.3215 6.694 53.3575 6.694 53.3935C6.694 53.4295 6.694 53.4655 6.694 53.5015C6.694 53.5375 6.694 53.5734 6.694 53.6093C6.694 53.6453 6.694 53.6812 6.694 53.7171C6.694 53.753 6.694 53.7888 6.694 53.8247C6.694 53.8605 6.694 53.8963 6.694 53.9321C6.694 53.9679 6.694 54.0037 6.694 54.0395C6.694 54.0752 6.694 54.111 6.694 54.1467C6.694 54.1824 6.694 54.218 6.694 54.2537C6.694 54.2894 6.694 54.325 6.694 54.3606C6.694 54.3962 6.694 54.4318 6.694 54.4674C6.694 54.5029 6.694 54.5385 6.694 54.574C6.694 54.6095 6.694 54.645 6.694 54.6805C6.694 54.7159 6.694 54.7514 6.694 54.7868C6.694 54.8222 6.694 54.8576 6.694 54.8929C6.694 54.9283 6.694 54.9636 6.694 54.9989C6.694 55.0342 6.694 55.0695 6.694 55.1048C6.694 55.14 6.694 55.1752 6.694 55.2104C6.694 55.2456 6.694 55.2808 6.694 55.3159C6.694 55.3511 6.694 55.3862 6.694 55.4213C6.694 55.4564 6.694 55.4914 6.694 55.5265C6.694 55.5615 6.694 55.5965 6.694 55.6315C6.694 55.6664 6.694 55.7014 6.694 55.7363C6.694 55.7712 6.694 55.8061 6.694 55.8409C6.694 55.8758 6.694 55.9106 6.694 55.9454C6.694 55.9802 6.694 56.0149 6.694 56.0497C6.694 56.0844 6.694 56.1191 6.694 56.1538C6.694 56.1884 6.694 56.2231 6.694 56.2577C6.694 56.2923 6.694 56.3269 6.694 56.3614C6.694 56.396 6.694 56.4305 6.694 56.465C6.694 56.4994 6.694 56.5339 6.694 56.5683C6.694 56.6027 6.694 56.6371 6.694 56.6714C6.694 56.7058 6.694 56.7401 6.694 56.7744C6.694 56.8087 6.694 56.8429 6.694 56.8771C6.694 56.9113 6.694 56.9455 6.694 56.9796C6.694 57.0138 6.694 57.0479 6.694 57.082C6.694 57.116 6.694 57.1501 6.694 57.1841C6.694 57.2181 6.694 57.2521 6.694 57.286C6.694 57.3199 6.694 57.3538 6.694 57.3877C6.694 57.4215 6.694 57.4554 6.694 57.4892C6.694 57.5229 6.694 57.5567 6.694 57.5904C6.694 57.6241 6.694 57.6578 6.694 57.6915C6.694 57.7251 6.694 57.7587 6.694 57.7923C6.694 57.8258 6.694 57.8594 6.694 57.8928C6.694 57.9263 6.694 57.9598 6.694 57.9932C6.694 58.0266 6.694 58.06 6.694 58.0933C6.694 58.1267 6.694 58.16 6.694 58.1932C6.694 58.2265 6.694 58.2597 6.694 58.2929C6.694 58.326 6.694 58.3592 6.694 58.3923C6.694 58.4254 6.694 58.4584 6.694 58.4914C6.694 58.5245 6.694 58.5574 6.694 58.5904C6.694 58.6233 6.694 58.6562 6.694 58.6891C6.694 58.7219 6.694 58.7547 6.694 58.7875C6.694 58.8203 6.694 58.853 6.694 58.8857C6.694 58.9184 6.694 58.951 6.694 58.9836C6.694 59.0162 6.694 59.0488 6.694 59.0813C6.694 59.1138 6.694 59.1463 6.694 59.1787C6.694 59.2111 6.694 59.2435 6.694 59.2758C6.694 59.3082 6.694 59.3405 6.694 59.3727C6.694 59.405 6.694 59.4372 6.694 59.4693C6.694 59.5015 6.694 59.5336 6.694 59.5657C6.694 59.5978 6.694 59.6298 6.694 59.6618C6.694 59.6938 6.694 59.7257 6.694 59.7576C6.694 59.7895 6.694 59.8213 6.694 59.8531C6.694 59.8849 6.694 59.9167 6.694 59.9484C6.694 59.9801 6.694 60.0117 6.694 60.0434C6.694 60.075 6.694 60.1065 6.694 60.138C6.694 60.1696 6.694 60.201 6.694 60.2324C6.694 60.2639 6.694 60.2952 6.694 60.3266C6.694 60.3579 6.694 60.3892 6.694 60.4204C6.694 60.4516 6.694 60.4828 6.694 60.5139C6.694 60.5451 6.694 60.5761 6.694 60.6072C6.694 60.6382 6.694 60.6692 6.694 60.7001C6.694 60.731 6.694 60.7619 6.694 60.7927C6.694 60.8236 6.694 60.8543 6.694 60.8851C6.694 60.9158 6.694 60.9465 6.694 60.9771C6.694 61.0077 6.694 61.0383 6.694 61.0688C6.694 61.0994 6.694 61.1298 6.694 61.1602C6.694 61.1907 6.694 61.221 6.694 61.2513C6.694 61.2817 6.694 61.3119 6.694 61.3421C6.694 61.3723 6.694 61.4025 6.694 61.4326C6.694 61.4627 6.694 61.4927 6.694 61.5227C6.694 61.5527 6.694 61.5827 6.694 61.6126C6.694 61.6424 6.694 61.6723 6.694 61.7021C6.694 61.7318 6.694 61.7616 6.694 61.7912C6.694 61.8209 6.694 61.8505 6.694 61.8801C6.694 61.9096 6.694 61.9391 6.694 61.9686C6.694 61.998 6.694 62.0274 6.694 62.0568C6.694 62.0861 6.694 62.1154 6.694 62.1446C6.694 62.1738 6.694 62.203 6.694 62.2321C6.694 62.2612 6.694 62.2902 6.694 62.3192C6.694 62.3482 6.694 62.3772 6.694 62.406C6.694 62.4349 6.694 62.4637 6.694 62.4925C6.694 62.5213 6.694 62.55 6.694 62.5786C6.694 62.6073 6.694 62.6359 6.694 62.6644C6.694 62.6929 6.694 62.7214 6.694 62.7498C6.694 62.7782 6.694 62.8065 6.694 62.8348C6.694 62.8631 6.694 62.8914 6.694 62.9195C6.694 62.9477 6.694 62.9758 6.694 63.0038C6.694 63.0319 6.694 63.0599 6.694 63.0878C6.694 63.1157 6.694 63.1436 6.694 63.1714C6.694 63.1992 6.694 63.2269 6.694 63.2546C6.694 63.2823 6.694 63.3099 6.694 63.3375C6.694 63.365 6.694 63.3925 6.694 63.42C6.694 63.4474 6.694 63.4748 6.694 63.5021C6.694 63.5294 6.694 63.5566 6.694 63.5838C6.694 63.611 6.694 63.6381 6.694 63.6651C6.694 63.6922 6.694 63.7192 6.694 63.7461C6.694 63.773 6.694 63.7999 6.694 63.8266C6.694 63.8534 6.694 63.8802 6.694 63.9068C6.694 63.9335 6.694 63.9601 6.694 63.9866C6.694 64.0131 6.694 64.0396 6.694 64.066C6.694 64.0924 6.694 64.1187 6.694 64.145C6.694 64.1713 6.694 64.1975 6.694 64.2236C6.694 64.2497 6.694 64.2758 6.694 64.3018C6.694 64.3278 6.694 64.3537 6.694 64.3796C6.694 64.4055 6.694 64.4313 6.694 64.457C6.694 64.4827 6.694 64.5084 6.694 64.534C6.694 64.5596 6.694 64.5851 6.694 64.6105C6.694 64.636 6.694 64.6614 6.694 64.6867C6.694 64.712 6.694 64.7373 6.694 64.7624C6.694 64.7876 6.694 64.8127 6.694 64.8377C6.694 64.8628 6.694 64.8877 6.694 64.9126C6.694 64.9375 6.694 64.9624 6.694 64.9871C6.694 65.0119 6.694 65.0366 6.694 65.0612C6.694 65.0858 6.694 65.1103 6.694 65.1348C6.694 65.1592 6.694 65.1836 6.694 65.208C6.694 65.2323 6.694 65.2565 6.694 65.2807C6.694 65.3049 6.694 65.329 6.694 65.353C6.694 65.3771 6.694 65.401 6.694 65.4249C6.694 65.4488 6.694 65.4726 6.694 65.4964C6.694 65.5201 6.694 65.5438 6.694 65.5674C6.694 65.5909 6.694 65.6145 6.694 65.6379C6.694 65.6614 6.694 65.6847 6.694 65.708C6.694 65.7313 6.694 65.7545 6.694 65.7777C6.694 65.8008 6.694 65.8239 6.694 65.8469C6.694 65.8698 6.694 65.8928 6.694 65.9156C6.694 65.9384 6.694 65.9612 6.694 65.9839C6.694 66.0066 6.694 66.0292 6.694 66.0517C6.694 66.0742 6.694 66.0967 6.694 66.1191C6.694 66.1414 6.694 66.1637 6.694 66.186C6.694 66.2082 6.694 66.2303 6.694 66.2524C6.694 66.2745 6.694 66.2964 6.694 66.3183C6.694 66.3403 6.694 66.3621 6.694 66.3838C6.694 66.4056 6.694 66.4272 6.694 66.4488C6.694 66.4704 6.694 66.4919 6.694 66.5134C6.694 66.5348 6.694 66.5561 6.694 66.5774C6.694 66.5987 6.694 66.6199 6.694 66.641C6.694 66.6621 6.694 66.6831 6.694 66.7041C6.694 66.725 6.694 66.7459 6.694 66.7667C6.694 66.7874 6.694 66.8081 6.694 66.8288C6.694 66.8494 6.694 66.8699 6.694 66.8904C6.694 66.9108 6.694 66.9312 6.694 66.9515C6.694 66.9718 6.694 66.992 6.694 67.0121C6.694 67.0322 6.694 67.0523 6.694 67.0722C6.694 67.0922 6.694 67.1121 6.694 67.1318C6.694 67.1516 6.694 67.1713 6.694 67.191C6.694 67.2106 6.694 67.2301 6.694 67.2496C6.694 67.269 6.694 67.2884 6.694 67.3077C6.694 67.3269 6.694 67.3461 6.694 67.3652C6.694 67.3843 6.694 67.4034 6.694 67.4223C6.694 67.4412 6.694 67.4601 6.694 67.4789C6.694 67.4976 6.694 67.5163 6.694 67.5349C6.694 67.5535 6.694 67.572 6.694 67.5904C6.694 67.6088 6.694 67.6271 6.694 67.6454C6.694 67.6636 6.694 67.6818 6.694 67.6998C6.694 67.7179 6.694 67.7359 6.694 67.7538C6.694 67.7716 6.694 67.7894 6.694 67.8072C6.694 67.8249 6.694 67.8425 6.694 67.86C6.694 67.8775 6.694 67.895 6.694 67.9123C6.694 67.9297 6.694 67.9469 6.694 67.9641C6.694 67.9813 6.694 67.9984 6.694 68.0154C6.694 68.0324 6.694 68.0493 6.694 68.0661C6.694 68.0829 6.694 68.0996 6.694 68.1162C6.694 68.1328 6.694 68.1494 6.694 68.1658C6.694 68.1823 6.694 68.1986 6.694 68.2149C6.694 68.2311 6.694 68.2473 6.694 68.2634C6.694 68.2794 6.694 68.2954 6.694 68.3113C6.694 68.3272 6.694 68.343 6.694 68.3587C6.694 68.3744 6.694 68.39 6.694 68.4055C6.694 68.421 6.694 68.4364 6.694 68.4518C6.694 68.4671 6.694 68.4823 6.694 68.4974C6.694 68.5126 6.694 68.5276 6.694 68.5426C6.694 68.5575 6.694 68.5724 6.694 68.5871C6.694 68.6019 6.694 68.6165 6.694 68.6311C6.694 68.6456 6.694 68.6601 6.694 68.6745C6.694 68.6889 6.694 68.7031 6.694 68.7173C6.694 68.7315 6.694 68.7456 6.694 68.7595C6.694 68.7735 6.694 68.7874 6.694 68.8012C6.694 68.815 6.694 68.8287 6.694 68.8423C6.694 68.8559 6.694 68.8693 6.694 68.8827C6.694 68.8961 6.694 68.9094 6.694 68.9226C6.694 68.9358 6.694 68.9489 6.694 68.9619C6.694 68.9749 6.694 68.9878 6.694 69.0006C6.694 69.0134 6.694 69.0261 6.694 69.0387C6.694 69.0513 6.694 69.0638 6.694 69.0762C6.694 69.0886 6.694 69.1009 6.694 69.1131C6.694 69.1253 6.694 69.1374 6.694 69.1494C6.694 69.1614 6.694 69.1733 6.694 69.1851C6.694 69.1969 6.694 69.2086 6.694 69.2202C6.694 69.2317 6.694 69.2432 6.694 69.2546C6.694 69.266 6.694 69.2773 6.694 69.2885C6.694 69.2996 6.694 69.3107 6.694 69.3217C6.694 69.3326 6.694 69.3435 6.694 69.3543C6.694 69.365 6.694 69.3757 6.694 69.3863C6.694 69.3968 6.694 69.4073 6.694 69.4176C6.694 69.428 6.694 69.4382 6.694 69.4483C6.694 69.4585 6.694 69.4685 6.694 69.4784C6.694 69.4884 6.694 69.4982 6.694 69.5079C6.694 69.5176 6.694 69.5272 6.694 69.5367H10.26ZM10.26 26.4192C10.26 24.4299 11.1391 22.2437 12.3278 20.2417C13.4965 18.2732 14.8497 16.6726 15.55 15.8973L12.9039 13.5069C12.1181 14.3768 10.5963 16.1731 9.26155 18.4212C7.94676 20.6356 6.694 23.4855 6.694 26.4192H10.26ZM15.4723 15.9468H63.2944V12.3808H15.4723V15.9468ZM63.3453 16.152C62.4167 17.5395 61.3386 19.2808 60.4862 21.0378C59.6624 22.736 58.9291 24.6859 58.9291 26.4192H62.495C62.495 25.5389 62.9137 24.204 63.6946 22.5943C64.4469 21.0435 65.4264 19.4538 66.3087 18.1355L63.3453 16.152ZM5.60429 76.5682L9.47487 71.7463L6.694 69.5141L2.82342 74.336L5.60429 76.5682ZM58.9291 70.1412C58.9291 72.4235 58.0364 74.0171 56.9468 75.0532C55.7983 76.1451 54.4903 76.5682 53.785 76.5682V80.1342C55.5511 80.1342 57.7066 79.2511 59.4039 77.6375C61.1598 75.968 62.495 73.4566 62.495 70.1412H58.9291ZM53.785 76.5682C51.7269 76.5682 17.1039 76.5682 5.58226 76.5682V80.1342C17.1039 80.1342 51.7269 80.1342 53.785 80.1342V76.5682ZM2.82342 74.336C0.976727 76.6365 2.54685 80.1342 5.58226 80.1342V76.5682C5.57491 76.5682 5.57109 76.5677 5.57031 76.5676C5.56953 76.5674 5.57072 76.5676 5.57343 76.5684C5.57611 76.5692 5.57941 76.5704 5.58301 76.5721C5.58658 76.5738 5.58986 76.5757 5.59272 76.5776C5.59851 76.5815 5.60121 76.5845 5.60167 76.585C5.60197 76.5854 5.60074 76.5839 5.59921 76.5807C5.59769 76.5774 5.59684 76.5744 5.5965 76.5725C5.59619 76.5708 5.59653 76.5713 5.59625 76.5741C5.59593 76.5774 5.59504 76.5807 5.59421 76.5828C5.5939 76.5835 5.59406 76.5829 5.59525 76.5809C5.59644 76.5789 5.59915 76.5746 5.60429 76.5682L2.82342 74.336ZM63.2944 15.9468C63.3049 15.9468 63.3064 15.9481 63.3027 15.947C63.2995 15.946 63.298 15.9449 63.299 15.9456C63.3028 15.948 63.322 15.963 63.3403 15.999C63.3587 16.035 63.3649 16.0707 63.3641 16.0962C63.3634 16.1153 63.3594 16.1309 63.3453 16.152L66.3087 18.1355C67.8742 15.7964 66.3064 12.3808 63.2944 12.3808V15.9468ZM15.55 15.8973C15.5304 15.919 15.5081 15.9333 15.4906 15.9408C15.4743 15.9478 15.4673 15.9468 15.4723 15.9468V12.3808C14.5324 12.3808 13.5856 12.7522 12.9039 13.5069L15.55 15.8973ZM6.694 69.5367C6.694 69.5367 6.694 69.5365 6.69402 69.536C6.69404 69.5355 6.69408 69.5348 6.69416 69.5339C6.69432 69.5321 6.69461 69.5296 6.69511 69.5268C6.69617 69.5207 6.69782 69.5146 6.69978 69.5092C6.70172 69.5038 6.70325 69.5012 6.70313 69.5014C6.70296 69.5017 6.70047 69.506 6.694 69.5141L9.47487 71.7463C9.96758 71.1325 10.26 70.3724 10.26 69.5367H6.694Z" fill="#5503E5" mask="url(#path-4-inside-4)"/>
<rect x="16.1503" y="27.5363" width="38.3341" height="12.4809" fill="#F8006B" stroke="#F8006B" stroke-width="1.78298"/>
<path d="M16.1504 47.1489H27.7398" stroke="#5503E5" stroke-width="1.78298" stroke-linecap="round" stroke-linejoin="round"/>
<path d="M32.1973 47.1489H54.4845" stroke="#5503E5" stroke-width="1.78298" stroke-linecap="round" stroke-linejoin="round"/>
<path d="M16.1504 50.7148H27.7398" stroke="#5503E5" stroke-width="1.78298" stroke-linecap="round" stroke-linejoin="round"/>
<path d="M32.1973 50.7148H54.4845" stroke="#5503E5" stroke-width="1.78298" stroke-linecap="round" stroke-linejoin="round"/>
<path d="M16.1504 54.281H27.7398" stroke="#5503E5" stroke-width="1.78298" stroke-linecap="round" stroke-linejoin="round"/>
<path d="M32.1973 54.281H54.4845" stroke="#5503E5" stroke-width="1.78298" stroke-linecap="round" stroke-linejoin="round"/>
<path d="M16.1504 57.8469H27.7398" stroke="#5503E5" stroke-width="1.78298" stroke-linecap="round" stroke-linejoin="round"/>
<path d="M32.1973 57.8469H54.4845" stroke="#5503E5" stroke-width="1.78298" stroke-linecap="round" stroke-linejoin="round"/>
<path d="M16.1504 61.4128H27.7398" stroke="#5503E5" stroke-width="1.78298" stroke-linecap="round" stroke-linejoin="round"/>
<path d="M32.1973 61.4128H54.4845" stroke="#5503E5" stroke-width="1.78298" stroke-linecap="round" stroke-linejoin="round"/>
<path d="M16.1504 64.9788H27.7398" stroke="#5503E5" stroke-width="1.78298" stroke-linecap="round" stroke-linejoin="round"/>
<path d="M32.1973 64.9788H54.4845" stroke="#5503E5" stroke-width="1.78298" stroke-linecap="round" stroke-linejoin="round"/>
<path d="M19.7168 36.2654V31.2884L25.279 36.2654V31.2884M33.3111 36.2654H28.2469V33.7769M33.3111 31.2884H28.2469V33.7769M28.2469 33.7769H33.3111M36.1653 31.2883L38.0194 36.2653L39.8734 33.9546L41.3567 36.2653L43.5816 31.2883M50.5863 31.9102C49.76 30.9768 48.1072 30.9771 47.2808 31.2882C46.4544 31.5992 45.628 33.4655 47.2808 33.7765C48.9336 34.0876 49.76 33.4655 50.5863 34.0876C51.4127 34.7097 50.5863 35.954 49.3468 36.265C48.1072 36.5761 46.8676 36.5758 46.0412 35.6429" stroke="#F0F0F0" stroke-width="1.78298" stroke-linecap="round" stroke-linejoin="round"/>
<path d="M76.3262 41.3543L81.2294 35.5596" stroke="#5503E5" stroke-width="1.78298" stroke-linecap="round"/>
<path d="M78.1094 44.9202L86.1328 35.5596" stroke="#5503E5" stroke-width="1.78298" stroke-linecap="round"/>
<path d="M80.3379 48.0404L91.0358 35.5596" stroke="#5503E5" stroke-width="1.78298" stroke-linecap="round"/>
<path d="M82.1211 51.6064L95.9392 35.5596" stroke="#5503E5" stroke-width="1.78298" stroke-linecap="round"/>
<path d="M83.9043 55.1723L97.7224 39.1255" stroke="#5503E5" stroke-width="1.78298" stroke-linecap="round"/>
<path d="M87.8493 20.4562L81.0329 25.983L90.2783 10.3978C90.8961 9.3565 90.5694 8.01247 89.5427 7.37077C86.8207 5.66949 79.487 2.64522 70.4389 3.02222C65.6661 3.22109 61.1462 5.07064 57.5083 7.19013C54.3274 9.04342 51.6932 11.1776 49.9919 12.8267H16.5965C14.8341 12.8267 13.3742 13.4937 12.6223 14.5404L11.4545 15.7081L11.4544 15.7082C6.69034 20.4723 6.28777 26.3045 6.78991 29.0892V70.6007C6.76129 70.671 6.67994 70.8554 6.47302 71.1543C6.09905 71.6945 5.38811 72.4936 4.11556 73.4481C3.66955 73.7826 3.23852 74.1663 2.90504 74.612C2.57977 75.0467 2.2055 75.7337 2.24589 76.6059C2.28966 77.5511 2.79274 78.2279 3.27594 78.6295C3.72107 78.9996 4.21619 79.2033 4.58714 79.3235C5.94785 79.7647 7.87692 79.7598 9.08617 79.6885H51.3646C56.0241 79.6885 59.0534 77.6849 60.7619 74.9691C62.346 72.4511 62.6677 69.5359 62.5083 67.5584V64.7108C66.9382 66.6403 71.6206 66.9902 75.8002 66.596C81.0794 66.0981 85.7514 64.3988 88.5128 62.9369C89.5828 62.3704 90.0049 61.0534 89.4634 59.9705L88.1215 57.2867C98.5256 50.0153 101.003 39.4549 100.841 34.594C100.801 33.3926 99.8156 32.4395 98.6136 32.4395H95.3855C94.8448 26.8477 92.4018 22.5163 90.9779 20.776C90.2009 19.8263 88.8024 19.6834 87.8493 20.4562Z" stroke="#5503E5" stroke-width="4.45746" stroke-linecap="round" stroke-linejoin="round"/>
</svg>
