<svg width="142" height="28" viewBox="0 0 142 28" fill="none" xmlns="http://www.w3.org/2000/svg">
<path d="M38.3 5.31039L41.7 10.0129C41.4 10.113 40.9 10.113 40.4 10.113C39.8 10.113 39.4 10.113 39.1 10.0129L35.8 5.61055V10.0129C35.1 10.113 34.3 10.113 33.5 10.0129V0.80794C34.2 0.707886 35 0.707886 35.8 0.80794V4.91017L38.8 0.80794C39.1 0.707886 39.6 0.707886 40.1 0.707886C40.7 0.707886 41.1 0.707886 41.4 0.80794L38.3 5.31039Z" fill="white"/>
<path d="M48.5992 0.609497C49.9992 0.609497 51.1992 1.10977 52.0992 2.01026C52.9992 2.91075 53.4992 4.1114 53.4992 5.41211C53.4992 6.71281 52.9992 7.91347 52.0992 8.81395C51.1992 9.71444 49.9992 10.2147 48.5992 10.2147C47.1992 10.2147 45.9992 9.71444 45.0992 8.81395C44.1992 7.91347 43.6992 6.71281 43.6992 5.41211C43.6992 4.1114 44.1992 2.91075 45.0992 2.01026C45.9992 1.10977 47.1992 0.609497 48.5992 0.609497ZM48.5992 2.51053C47.8992 2.51053 47.2992 2.81069 46.7992 3.31096C46.2992 3.81124 45.9992 4.51162 45.9992 5.41211C45.9992 6.3126 46.2992 7.01298 46.6992 7.51325C47.1992 8.01352 47.7992 8.31368 48.4992 8.31368C49.1992 8.31368 49.7992 8.01352 50.2992 7.51325C50.7992 7.01298 50.9992 6.3126 50.9992 5.41211C50.9992 4.51162 50.6992 3.81124 50.2992 3.31096C49.8992 2.71064 49.2992 2.51053 48.5992 2.51053Z" fill="white"/>
<path d="M56.5 0.80957H60.1C61.1 0.80957 62 1.10973 62.6 1.61001C63.2 2.11028 63.6 2.91071 63.6 3.8112C63.6 4.71169 63.3 5.51213 62.6 6.0124C61.9 6.51267 61.1 6.81283 60.1 6.81283H58.8V9.81446C58.1 9.91452 57.3 9.91452 56.5 9.81446V0.80957ZM58.7 5.11191H60C60.7 5.11191 61.2 4.71169 61.2 3.91126C61.2 3.11082 60.7 2.7106 60 2.7106H58.7V5.11191Z" fill="white"/>
<path d="M74.8004 0.80957V10.0146C74.1004 10.1146 73.3004 10.1146 72.5004 10.0146V2.7106H68.7004V10.0146C68.0004 10.1146 67.2004 10.1146 66.4004 10.0146V0.80957H74.8004Z" fill="white"/>
<path d="M82.6988 0.609497C84.0988 0.609497 85.2988 1.10977 86.1988 2.01026C87.0988 2.91075 87.5988 4.1114 87.5988 5.41211C87.5988 6.71281 87.0988 7.91347 86.1988 8.81395C85.2988 9.71444 84.0988 10.2147 82.6988 10.2147C81.2988 10.2147 80.0988 9.71444 79.1988 8.81395C78.2988 7.91347 77.7988 6.71281 77.7988 5.41211C77.7988 4.1114 78.2988 2.91075 79.1988 2.01026C80.0988 1.10977 81.2988 0.609497 82.6988 0.609497ZM82.6988 2.51053C81.9988 2.51053 81.3988 2.81069 80.8988 3.31096C80.3988 3.81124 80.1988 4.51162 80.1988 5.41211C80.1988 6.3126 80.4988 7.01298 80.8988 7.51325C81.3988 8.01352 81.9988 8.31368 82.6988 8.31368C83.3988 8.31368 83.9988 8.01352 84.4988 7.51325C84.9988 7.01298 85.1988 6.3126 85.1988 5.41211C85.1988 4.51162 84.9988 3.81124 84.4988 3.31096C84.0988 2.71064 83.3988 2.51053 82.6988 2.51053Z" fill="white"/>
<path d="M90.5996 0.80957H94.1996C95.1996 0.80957 96.0996 1.10973 96.6996 1.61001C97.2996 2.11028 97.6996 2.91071 97.6996 3.8112C97.6996 4.71169 97.3996 5.51213 96.6996 6.0124C95.9996 6.51267 95.1996 6.81283 94.1996 6.81283H92.8996V9.81446C92.1996 9.91452 91.3996 9.91452 90.5996 9.81446V0.80957ZM92.8996 5.11191H94.1996C94.8996 5.11191 95.3996 4.71169 95.3996 3.91126C95.3996 3.11082 94.8996 2.7106 94.1996 2.7106H92.8996V5.11191Z" fill="white"/>
<path d="M108.499 10.0145C107.699 10.1146 106.999 10.1146 106.199 10.0145L105.599 8.31361H102.199L101.599 10.0145C100.799 10.1146 100.099 10.1146 99.2988 10.0145L102.999 0.809538C103.599 0.709483 104.199 0.709483 104.899 0.809538L108.499 10.0145ZM102.799 6.31253H104.699L103.699 3.71111L102.799 6.31253Z" fill="white"/>
<path d="M120.499 8.11351V11.4153C119.799 11.5154 118.999 11.5154 118.199 11.4153V10.0145H111.299V0.809538C111.999 0.709483 112.799 0.709483 113.599 0.809538V8.11351H117.099V0.809538C117.799 0.709483 118.599 0.709483 119.399 0.809538V8.11351H120.499Z" fill="white"/>
<path d="M131.599 10.0145C130.899 10.1146 130.099 10.1146 129.299 10.0145V4.6116L124.999 10.0145C124.399 10.1146 123.799 10.1146 123.199 10.0145V0.809538C123.899 0.709483 124.699 0.709483 125.499 0.809538V6.21247L129.799 0.809538C130.399 0.709483 130.999 0.709483 131.599 0.809538V10.0145Z" fill="white"/>
<path d="M142 0.80957V10.0146C141.3 10.1146 140.5 10.1146 139.7 10.0146V6.91289H138.8L136.8 10.0146C136.5 10.1146 136.1 10.1146 135.6 10.1146C135.1 10.1146 134.7 10.1146 134.4 10.0146L136.6 6.61272C135.5 6.11245 134.9 5.11191 134.9 3.91126C134.9 3.01077 135.2 2.31039 135.8 1.71006C136.4 1.10973 137.3 0.909625 138.3 0.909625H142V0.80957ZM139.7 2.7106H138.3C137.6 2.7106 137.1 3.11082 137.1 3.91126C137.1 4.71169 137.6 5.11191 138.3 5.11191H139.7V2.7106Z" fill="white"/>
<path d="M44.6992 23.4219C44.7992 23.622 44.8992 24.1223 44.7992 24.9227C44.7992 25.7231 44.6992 26.3235 44.6992 26.5236C43.4992 27.224 42.0992 27.6242 40.4992 27.6242C38.0992 27.6242 36.1992 26.9238 34.7992 25.523C33.3992 24.1223 32.6992 22.4213 32.6992 20.3202C32.6992 18.2191 33.3992 16.5181 34.7992 15.1174C36.1992 13.7166 38.0992 13.0162 40.4992 13.0162C42.1992 13.0162 43.5992 13.4165 44.6992 14.1168C44.7992 14.3169 44.7992 14.9173 44.7992 15.7177C44.7992 16.5181 44.7992 17.0184 44.6992 17.2185C43.2992 16.318 41.8992 15.9178 40.5992 15.9178C39.2992 15.9178 38.1992 16.318 37.2992 17.1185C36.3992 17.9189 35.9992 19.0195 35.9992 20.3202C35.9992 21.6209 36.3992 22.7215 37.2992 23.5219C38.1992 24.3224 39.2992 24.7226 40.5992 24.7226C41.8992 24.8227 43.2992 24.3224 44.6992 23.4219Z" fill="white"/>
<path d="M60.2992 27.324C59.1992 27.5241 57.9992 27.5241 56.8992 27.324V19.1195L50.3992 27.324C49.4992 27.5241 48.5992 27.5241 47.6992 27.324V13.4164C48.7992 13.2163 49.9992 13.2163 51.0992 13.4164V21.6209L57.5992 13.4164C58.4992 13.2163 59.3992 13.2163 60.2992 13.4164V27.324Z" fill="white"/>
<path d="M72.4988 18.8195V13.3165C73.5988 13.1164 74.7988 13.1164 75.8988 13.3165V27.224C74.7988 27.4241 73.5988 27.4241 72.4988 27.224V21.621H66.6988V27.224C65.5988 27.4241 64.3988 27.4241 63.2988 27.224V13.4165C64.3988 13.2164 65.5988 13.2164 66.6988 13.4165V18.9195H72.4988V18.8195Z" fill="white"/>
<path d="M82.4 24.5225H88.7C88.9 25.423 88.9 26.4236 88.7 27.4241H79V13.4165H88.7C88.9 14.417 88.9 15.3175 88.7 16.3181H82.4V18.9195H88C88.2 19.92 88.2 20.8205 88 21.8211H82.4V24.5225Z" fill="white"/>
<path d="M91 13.4165H96.5C98.1 13.4165 99.3 13.8167 100.3 14.7172C101.3 15.6177 101.8 16.7183 101.8 18.1191C101.8 19.5198 101.3 20.6204 100.3 21.5209C99.3 22.4214 98.1 22.8216 96.5 22.8216H94.5V27.4241C93.4 27.6242 92.2 27.6242 91.1 27.4241V13.4165H91ZM94.5 19.92H96.5C97.5 19.92 98.3 19.3197 98.3 18.1191C98.3 16.9184 97.5 16.3181 96.5 16.3181H94.5V19.92Z" fill="white"/>
<path d="M104.199 13.4165H113.399C113.599 14.417 113.599 15.3175 113.399 16.3181H107.699V27.4241C106.599 27.6242 105.399 27.6242 104.299 27.4241V13.4165H104.199Z" fill="white"/>
<path d="M128.299 27.324C127.199 27.5241 125.999 27.5241 124.899 27.324V19.1195L118.399 27.324C117.499 27.5241 116.599 27.5241 115.699 27.324V13.4164C116.799 13.2163 117.999 13.2163 119.099 13.4164V21.6209L125.599 13.4164C126.499 13.2163 127.399 13.2163 128.299 13.4164V27.324Z" fill="white"/>
<path d="M141.9 13.4165V27.3241C140.8 27.5242 139.6 27.5242 138.5 27.3241V22.6215H137.2L134.1 27.3241C133.6 27.4241 133 27.4241 132.2 27.4241C131.4 27.4241 130.8 27.4241 130.4 27.3241L133.8 22.1212C132.1 21.3208 131.1 19.92 131.1 18.019C131.1 16.6182 131.6 15.5176 132.5 14.7172C133.5 13.8167 134.7 13.4165 136.3 13.4165H141.9ZM138.5 16.218H136.4C135.4 16.218 134.6 16.8184 134.6 18.019C134.6 19.2197 135.4 19.82 136.4 19.82H138.5V16.218Z" fill="white"/>
<path d="M0 0.909668V27.4241H26.5V0.909668H0ZM23.1 24.0222H3.30001V4.21146H23.1V24.0222ZM16.4 22.9216L7.60001 14.1168L16.4 5.31206V10.0146L12.3 14.1168L16.4 18.2191V22.9216Z" fill="white"/>
</svg>
