<svg width="521" height="34" viewBox="0 0 521 34" fill="none" xmlns="http://www.w3.org/2000/svg">
<path fill-rule="evenodd" clip-rule="evenodd" d="M15.2654 28.1028C20.774 28.1028 25.2396 23.6373 25.2396 18.1287C25.2396 12.6201 20.774 8.15455 15.2654 8.15455C9.75684 8.15455 5.29127 12.6201 5.29127 18.1287C5.29127 23.6373 9.75684 28.1028 15.2654 28.1028ZM15.2654 32.5298C23.2189 32.5298 29.6666 26.0822 29.6666 18.1287C29.6666 10.1752 23.2189 3.72755 15.2654 3.72755C7.31187 3.72755 0.864258 10.1752 0.864258 18.1287C0.864258 26.0822 7.31187 32.5298 15.2654 32.5298Z" fill="#F8006B"/>
<path fill-rule="evenodd" clip-rule="evenodd" d="M14.7183 10.5634C15.6351 10.5634 16.3784 11.3067 16.3784 12.2235V17.2791H21.5801C22.4969 17.2791 23.2402 18.0223 23.2402 18.9392C23.2402 19.8561 22.4969 20.5993 21.5801 20.5993H13.0581V12.2235C13.0581 11.3067 13.8014 10.5634 14.7183 10.5634Z" fill="#F8006B"/>
<path fill-rule="evenodd" clip-rule="evenodd" d="M170.846 8.93335H145.613V27.0555H170.846V8.93335ZM141.186 4.50634V31.4825H175.273V4.50634H141.186Z" fill="#F8006B"/>
<path d="M163.106 12.2045H168.253V16.4149H163.106V12.2045Z" fill="#F8006B"/>
<path d="M156.012 12.2045H161.158V16.4149H156.012V12.2045Z" fill="#F8006B"/>
<path d="M148.916 12.2045H154.063V16.4149H148.916V12.2045Z" fill="#F8006B"/>
<path d="M156.012 19.5741H161.158V23.7845H156.012V19.5741Z" fill="#F8006B"/>
<path d="M148.916 19.5741H154.063V23.7845H148.916V19.5741Z" fill="#F8006B"/>
<path d="M145.433 2.69489C145.433 1.55253 146.359 0.626465 147.501 0.626465C148.643 0.626465 149.569 1.55253 149.569 2.69489V4.3338C149.569 5.47616 148.643 6.40222 147.501 6.40222C146.359 6.40222 145.433 5.47616 145.433 4.3338V2.69489Z" fill="#F8006B"/>
<path d="M166.824 2.69489C166.824 1.55253 167.75 0.626465 168.893 0.626465C170.035 0.626465 170.961 1.55253 170.961 2.69489V4.3338C170.961 5.47616 170.035 6.40222 168.893 6.40222C167.75 6.40222 166.824 5.47616 166.824 4.3338V2.69489Z" fill="#F8006B"/>
<path d="M327.581 2.09822C318.8 2.09822 311.656 9.24203 311.656 18.0228C311.656 26.8036 318.8 33.9474 327.581 33.9474C336.362 33.9474 343.505 26.8036 343.505 18.0228C343.505 9.24203 336.362 2.09822 327.581 2.09822ZM337.516 12.4443H334.66C334.196 10.8224 333.518 9.26466 332.65 7.81629C334.698 8.83845 336.395 10.4566 337.516 12.4443ZM338.979 18.0228C338.979 18.7696 338.904 19.5014 338.768 20.2067H335.234C335.362 19.2336 335.422 18.2454 335.4 17.2458C335.388 16.7743 335.354 16.3066 335.309 15.8389H338.772C338.907 16.548 338.979 17.276 338.979 18.0228ZM327.524 28.6933C326.102 27.2072 325.005 25.4797 324.265 23.6051H330.858C330.097 25.4835 328.973 27.211 327.524 28.6933ZM323.356 20.2067C323.209 19.2449 323.149 18.268 323.183 17.2722C323.198 16.7894 323.239 16.3104 323.303 15.8352H331.899C331.96 16.3255 331.994 16.8234 332.005 17.3213C332.028 18.2982 331.956 19.2637 331.805 20.2067H323.356ZM316.182 18.0228C316.182 17.276 316.258 16.5443 316.394 15.8389H319.882C319.837 16.2765 319.799 16.7178 319.784 17.1591C319.75 18.1888 319.799 19.2072 319.924 20.2105H316.39C316.258 19.5014 316.182 18.7696 316.182 18.0228ZM327.652 6.80921C329.188 8.42355 330.361 10.3547 331.096 12.4443H324.126C324.888 10.3509 326.087 8.41601 327.652 6.80921ZM322.651 7.74462C321.75 9.21186 321.037 10.7922 320.55 12.4443H317.642C318.792 10.4113 320.543 8.76301 322.651 7.74462ZM317.646 23.6013H320.663C321.206 25.3213 321.991 26.9545 322.998 28.4557C320.731 27.4561 318.853 25.7437 317.646 23.6013ZM332.058 28.5047C333.095 26.9922 333.91 25.3439 334.472 23.6013H337.516C336.29 25.7777 334.37 27.5127 332.058 28.5047Z" fill="#F8006B"/>
<path d="M56.1814 30.2064V25.3315H45.5735C52.3205 20.4175 55.9864 16.5565 55.9864 12.1105C55.9864 6.92356 51.5795 3.80357 46.0415 3.80357C42.4145 3.80357 38.5535 5.12957 36.0186 8.05455L39.1775 11.7205C40.9325 9.88754 43.1945 8.71755 46.1585 8.71755C48.3035 8.71755 50.3705 9.84854 50.3705 12.1105C50.3705 15.3085 47.2505 17.9995 36.6036 25.8774V30.2064H56.1814Z" fill="white"/>
<path d="M75.1591 30.2064V24.8245H78.5131V19.9495H75.1591V4.19357H67.5151L57.1802 20.4565V24.8245H69.6211V30.2064H75.1591ZM69.6211 19.9495H62.6012L69.6211 9.10754V19.9495Z" fill="white"/>
<path d="M89.142 30.9864L98.385 3.41357H94.797L85.5541 30.9864H89.142Z" fill="white"/>
<path d="M115.27 30.2064L124.942 8.05455V4.19357H105.403V9.06854H118.507L109.186 30.2064H115.27Z" fill="white"/>
<path d="M193.13 30.6741C199.37 30.6741 203.387 27.5151 203.387 23.0301C203.387 19.1301 199.955 17.0631 197.303 16.7902C200.189 16.2832 202.997 14.1382 202.997 10.8622C202.997 6.53321 199.253 3.80322 193.169 3.80322C188.606 3.80322 185.33 5.55821 183.224 7.9372L185.993 11.4082C187.826 9.65319 190.088 8.7172 192.584 8.7172C195.314 8.7172 197.42 9.73119 197.42 11.7982C197.42 13.7092 195.509 14.5672 192.623 14.5672C191.648 14.5672 189.854 14.5672 189.386 14.5282V19.5201C189.776 19.4811 191.531 19.4421 192.623 19.4421C196.25 19.4421 197.849 20.3781 197.849 22.4451C197.849 24.3951 196.094 25.7601 192.935 25.7601C190.4 25.7601 187.553 24.6681 185.759 22.7961L182.873 26.5011C184.784 28.8411 188.333 30.6741 193.13 30.6741Z" fill="white"/>
<path d="M215.591 30.6741C221.518 30.6741 225.535 26.8131 225.535 21.7431C225.535 16.2052 221.362 13.2802 216.682 13.2802C213.836 13.2802 211.223 14.8792 210.014 16.6342C209.975 16.4392 209.975 16.2832 209.975 16.0882C209.975 11.9542 212.666 8.7172 216.488 8.7172C218.788 8.7172 220.27 9.41919 221.674 10.7452L224.17 6.49421C222.298 4.89522 219.646 3.80322 216.488 3.80322C208.805 3.80322 204.359 9.38019 204.359 17.2581C204.359 24.5901 207.674 30.6741 215.591 30.6741ZM215.279 25.7601C211.652 25.7601 210.248 22.9911 210.014 20.4951C211.262 18.9351 213.134 18.0381 215.084 18.0381C217.579 18.0381 219.919 19.2081 219.919 21.9381C219.919 23.7711 218.281 25.7601 215.279 25.7601Z" fill="white"/>
<path d="M236.744 30.6741C243.023 30.6741 247.157 27.2031 247.157 21.6651C247.157 16.4002 243.218 13.2412 238.811 13.2412C236.432 13.2412 234.326 14.1772 233.078 15.4252V9.06819H245.402V4.19322H227.54V19.1301L231.401 20.1441C232.961 18.6621 234.716 18.0381 236.861 18.0381C239.825 18.0381 241.541 19.5981 241.541 21.8991C241.541 24.0051 239.786 25.7601 236.705 25.7601C233.975 25.7601 231.557 24.7461 229.802 22.9131L226.721 26.7741C228.944 29.1921 232.22 30.6741 236.744 30.6741Z" fill="white"/>
<path d="M377.524 30.206L384.934 4.19314H378.694L374.17 22.991L369.256 4.19314H364.927L359.974 22.991L355.411 4.19314H349.21L356.659 30.206H362.548L367.072 12.3441L371.635 30.206H377.524Z" fill="white"/>
<path d="M392.653 30.674C398.893 30.674 402.637 26.15 402.637 20.7681C402.637 15.4251 398.893 10.9011 392.653 10.9011C386.452 10.9011 382.708 15.4251 382.708 20.7681C382.708 26.15 386.452 30.674 392.653 30.674ZM392.653 26.267C389.572 26.267 387.856 23.732 387.856 20.7681C387.856 17.8431 389.572 15.3081 392.653 15.3081C395.734 15.3081 397.489 17.8431 397.489 20.7681C397.489 23.732 395.734 26.267 392.653 26.267Z" fill="white"/>
<path d="M409.314 30.206V17.7651C410.133 16.5561 412.317 15.6201 413.955 15.6201C414.501 15.6201 414.969 15.6591 415.32 15.7371V10.9011C412.98 10.9011 410.64 12.2661 409.314 13.9431V11.3691H404.361V30.206H409.314Z" fill="white"/>
<path d="M421.418 30.206V4.19314H416.465V30.206H421.418Z" fill="white"/>
<path d="M442.319 30.206V4.19314H437.327V13.7871C435.845 11.8761 433.739 10.9011 431.516 10.9011C426.719 10.9011 423.17 14.6451 423.17 20.8071C423.17 27.086 426.758 30.674 431.516 30.674C433.778 30.674 435.845 29.66 437.327 27.788V30.206H442.319ZM433.037 26.267C430.229 26.267 428.279 24.044 428.279 20.8071C428.279 17.5311 430.229 15.3081 433.037 15.3081C434.714 15.3081 436.508 16.2051 437.327 17.4531V24.122C436.508 25.37 434.714 26.267 433.037 26.267Z" fill="white"/>
<path d="M467.082 30.206L472.815 11.3691H467.667L464.157 24.044L460.023 11.3691H455.616L451.482 24.044L447.972 11.3691H442.824L448.557 30.206H453.861L457.839 17.3751L461.817 30.206H467.082Z" fill="white"/>
<path d="M475.761 9.34112C477.399 9.34112 478.725 8.01512 478.725 6.37713C478.725 4.73914 477.399 3.45215 475.761 3.45215C474.162 3.45215 472.797 4.73914 472.797 6.37713C472.797 8.01512 474.162 9.34112 475.761 9.34112ZM478.257 30.206V11.3691H473.304V30.206H478.257Z" fill="white"/>
<path d="M499.158 30.206V4.19314H494.166V13.7871C492.684 11.8761 490.578 10.9011 488.355 10.9011C483.558 10.9011 480.009 14.6451 480.009 20.8071C480.009 27.086 483.597 30.674 488.355 30.674C490.617 30.674 492.684 29.66 494.166 27.788V30.206H499.158ZM489.876 26.267C487.068 26.267 485.118 24.044 485.118 20.8071C485.118 17.5311 487.068 15.3081 489.876 15.3081C491.553 15.3081 493.347 16.2051 494.166 17.4531V24.122C493.347 25.37 491.553 26.267 489.876 26.267Z" fill="white"/>
<path d="M510.973 30.674C513.898 30.674 516.862 29.777 518.734 28.061L516.55 24.863C515.341 26.033 513.118 26.735 511.519 26.735C508.321 26.735 506.41 24.746 506.098 22.367H520.099V21.275C520.099 15.1131 516.277 10.9011 510.661 10.9011C504.928 10.9011 500.911 15.3081 500.911 20.7681C500.911 26.813 505.24 30.674 510.973 30.674ZM515.302 19.0131H506.02C506.254 17.1411 507.58 14.8401 510.661 14.8401C513.937 14.8401 515.185 17.2191 515.302 19.0131Z" fill="white"/>
</svg>
