<svg width="92" height="92" viewBox="0 0 92 92" fill="none" xmlns="http://www.w3.org/2000/svg">
<circle cx="46" cy="46" r="22" fill="#F8006B"/>
<path d="M10.7742 38.3878C12.3959 30.8842 16.3714 24.0946 22.1213 19.0083C27.8712 13.9219 35.0951 10.8045 42.7404 10.1103L43.4325 17.7333C37.411 18.2801 31.7215 20.7353 27.1928 24.7414C22.6641 28.7474 19.5331 34.0949 18.2558 40.0047L10.7742 38.3878Z" fill="#D0D0D0"/>
<path d="M72.5041 59.4469C70.4865 63.4238 67.5998 66.8957 64.058 69.6054C60.5161 72.315 56.4099 74.1929 52.0437 75.0999C47.6774 76.0068 43.163 75.9196 38.8351 74.8446C34.5071 73.7697 30.4765 71.7346 27.042 68.8902L28.7453 66.8335C31.8712 69.4224 35.5397 71.2746 39.4788 72.253C43.4179 73.2313 47.5266 73.3107 51.5006 72.4853C55.4745 71.6598 59.2118 69.9507 62.4354 67.4845C65.659 65.0183 68.2863 61.8583 70.1226 58.2387L72.5041 59.4469Z" fill="#D0D0D0"/>
</svg>
