<svg width="114" height="26" viewBox="0 0 114 26" fill="none" xmlns="http://www.w3.org/2000/svg">
<path d="M14.999 2.50247C14.2822 0.958998 12.0879 0.959006 11.3711 2.50247L9.08017 7.43556L3.68058 8.08998C1.99115 8.29473 1.31309 10.3816 2.55951 11.5403L6.54321 15.2435L5.49703 20.5811C5.16971 22.2511 6.94492 23.5408 8.43204 22.7135L13.1851 20.0691L17.9381 22.7135C19.4252 23.5408 21.2004 22.2511 20.8731 20.5811L19.8269 15.2435L23.8106 11.5403C25.057 10.3816 24.379 8.29473 22.6895 8.08997L17.29 7.43556L14.999 2.50247Z" fill="white" stroke="#0D1060" stroke-width="2"/>
<path d="M32.664 2.50247C31.9472 0.958998 29.753 0.959006 29.0362 2.50247L26.7452 7.43556L21.3456 8.08998C19.6562 8.29473 18.9781 10.3816 20.2245 11.5403L24.2082 15.2435L23.1621 20.5811C22.8347 22.2511 24.61 23.5408 26.0971 22.7135L30.8501 20.0691L35.6031 22.7135C37.0902 23.5408 38.8655 22.2511 38.5381 20.5811L37.492 15.2435L41.4757 11.5403C42.7221 10.3816 42.044 8.29473 40.3546 8.08997L34.955 7.43556L32.664 2.50247Z" fill="white" stroke="#0D1060" stroke-width="2"/>
<path d="M50.3291 2.50247C49.6123 0.958998 47.418 0.959006 46.7012 2.50247L44.4102 7.43556L39.0107 8.08998C37.3212 8.29473 36.6432 10.3816 37.8896 11.5403L41.8733 15.2435L40.8271 20.5811C40.4998 22.2511 42.275 23.5408 43.7621 22.7135L48.5151 20.0691L53.2682 22.7135C54.7553 23.5408 56.5305 22.2511 56.2032 20.5811L55.157 15.2435L59.1407 11.5403C60.3871 10.3816 59.709 8.29473 58.0196 8.08997L52.62 7.43556L50.3291 2.50247Z" fill="white" stroke="#0D1060" stroke-width="2"/>
<path d="M67.9941 2.50247C67.2773 0.958998 65.083 0.959006 64.3662 2.50247L62.0753 7.43556L56.6757 8.08998C54.9863 8.29473 54.3082 10.3816 55.5546 11.5403L59.5383 15.2435L58.4922 20.5811C58.1648 22.2511 59.94 23.5408 61.4272 22.7135L66.1802 20.0691L70.9332 22.7135C72.4203 23.5408 74.1955 22.2511 73.8682 20.5811L72.822 15.2435L76.8057 11.5403C78.0522 10.3816 77.3741 8.29473 75.6847 8.08997L70.2851 7.43556L67.9941 2.50247Z" fill="white" stroke="#0D1060" stroke-width="2"/>
<path d="M85.6592 2.50247C84.9424 0.958998 82.7481 0.959006 82.0313 2.50247L79.7403 7.43556L74.3407 8.08998C72.6513 8.29473 71.9732 10.3816 73.2197 11.5403L77.2034 15.2435L76.1572 20.5811C75.8299 22.2511 77.6051 23.5408 79.0922 22.7135L83.8452 20.0691L88.5982 22.7135C90.0854 23.5408 91.8606 22.2511 91.5332 20.5811L90.4871 15.2435L94.4708 11.5403C95.7172 10.3816 95.0391 8.29473 93.3497 8.08997L87.9501 7.43556L85.6592 2.50247Z" fill="white" stroke="#0D1060" stroke-width="2"/>
<path d="M103.324 2.50247C102.607 0.958998 100.413 0.959006 99.6963 2.50247L97.4054 7.43556L92.0058 8.08998C90.3163 8.29473 89.6383 10.3816 90.8847 11.5403L94.8684 15.2435L93.8222 20.5811C93.4949 22.2511 95.2701 23.5408 96.7572 22.7135L101.51 20.0691L106.263 22.7135C107.75 23.5408 109.526 22.2511 109.198 20.5811L108.152 15.2435L112.136 11.5403C113.382 10.3816 112.704 8.29473 111.015 8.08997L105.615 7.43556L103.324 2.50247Z" fill="white" stroke="#0D1060" stroke-width="2"/>
</svg>
