<svg width="623" height="59" viewBox="0 0 623 59" fill="none" xmlns="http://www.w3.org/2000/svg">
<path d="M95.8546 40.2719C95.8546 39.3058 95.4053 38.4748 94.4841 37.7334C93.563 37.0145 92.3723 36.4302 90.9344 35.9584C89.474 35.4866 87.8789 34.9925 86.104 34.4533C84.3291 33.9141 82.5767 33.2393 80.8243 32.4304C79.0719 31.6216 77.4768 30.6341 76.0164 29.4883C74.5561 28.3425 73.3878 26.8141 72.4667 24.8819C71.5455 22.9498 71.0962 20.7256 71.0962 18.1869C71.0962 13.8283 72.9834 10.0093 76.7578 6.70663C80.5323 3.40402 85.3851 1.78654 91.2714 1.78654C93.6978 1.78654 95.9894 2.05583 98.1462 2.59504C100.303 3.13424 102.078 3.76353 103.448 4.50493C104.819 5.24634 106.032 5.98717 107.066 6.72857C108.099 7.46998 108.818 8.12178 109.222 8.68345L109.919 9.42503L101.516 18.2099C101.269 17.9178 100.91 17.5359 100.415 17.0866C99.9211 16.6372 98.9325 16.0074 97.4048 15.1986C95.8771 14.4123 94.3269 14.0083 92.7766 14.0083C91.1366 14.0083 89.7886 14.4574 88.6877 15.3785C87.5868 16.2996 87.0476 17.3554 87.0476 18.5686C87.0476 19.5347 87.4969 20.3662 88.4181 21.0852C89.3392 21.8041 90.53 22.3883 91.9678 22.8601C93.4282 23.3319 95.0233 23.8491 96.7533 24.3883C98.5057 24.9275 100.258 25.6012 102.033 26.41C103.808 27.2189 105.425 28.2075 106.863 29.3533C108.324 30.4991 109.492 32.0264 110.413 33.9586C111.334 35.8907 111.784 38.1149 111.784 40.6536C111.784 45.5963 109.829 49.7303 105.942 53.1003C102.055 56.4703 96.8881 58.1554 90.4401 58.1554C87.8115 58.1554 85.2727 57.841 82.8463 57.2119C80.3974 56.5829 78.3979 55.8189 76.8252 54.9203C75.2526 54.0216 73.8596 53.1455 72.6464 52.2469C71.4332 51.3482 70.5345 50.5837 69.9729 49.9322L69.1641 49.0118L77.5217 40.2719C77.6116 40.4291 77.7913 40.6314 78.0609 40.8785C78.3305 41.1257 78.8248 41.5747 79.5886 42.2487C80.3525 42.9227 81.1388 43.5069 81.9926 44.0237C82.8463 44.5404 83.8798 44.99 85.1604 45.3719C86.4185 45.7763 87.6992 45.9555 88.9573 45.9555C91.0018 45.9555 92.6419 45.3944 93.9225 44.2935C95.2031 43.1702 95.8546 41.8446 95.8546 40.2719Z" fill="black"/>
<path d="M146.451 3.31331H162.065L143.036 37.5982V56.6269H128.567V37.5982L109.538 3.31331H125.152L135.824 23.8713L146.451 3.31331Z" fill="black"/>
<path d="M200.53 3.31331H214.998V56.6269H202.507L179.613 26.9265V56.6269H165.144V3.31331H177.703L200.53 33.0149V3.31331Z" fill="black"/>
<path d="M238.609 44.4501H266.018V56.6499H224.162V3.33627H265.277V15.535H238.609V23.8932H259.166V35.3514H238.609V44.4501Z" fill="black"/>
<path d="M272.108 3.31331H297.248C302.865 3.31331 307.515 5.06646 311.177 8.57128C314.839 12.0761 316.659 16.4342 316.659 21.6016C316.659 23.7359 316.345 25.7134 315.716 27.5781C315.087 29.4204 314.323 30.9256 313.424 32.0715C312.525 33.2173 311.649 34.2059 310.75 35.0147C309.852 35.8235 309.11 36.3622 308.526 36.6767L307.515 37.2384L318.569 56.65H303.359L294.215 39.8899H286.599V56.65H272.108V3.31331ZM300.595 25.3983C301.651 24.3873 302.191 23.1074 302.191 21.5796C302.191 20.0519 301.651 18.7928 300.595 17.7818C299.539 16.7708 298.147 16.2767 296.462 16.2767H286.576V26.9034H296.462C298.147 26.9259 299.517 26.4318 300.595 25.3983Z" fill="black"/>
<path d="M350.517 58.155C342.226 58.155 335.217 55.3912 329.443 49.8419C323.669 44.2926 320.793 37.6882 320.793 29.9597C320.793 22.2535 323.669 15.6256 329.443 10.0763C335.217 4.52704 342.226 1.76318 350.517 1.76318C353.37 1.76318 356.088 2.14512 358.65 2.88652C361.211 3.62793 363.345 4.52647 365.03 5.55994C366.693 6.59341 368.175 7.64966 369.411 8.68313C370.669 9.7166 371.568 10.6151 372.107 11.3565L372.961 12.4349L364.176 21.5796C364.019 21.3774 363.839 21.1295 363.592 20.815C363.345 20.5004 362.784 19.9613 361.885 19.1749C360.986 18.3886 360.065 17.6928 359.099 17.0862C358.133 16.4796 356.852 15.9405 355.28 15.4462C353.707 14.9744 352.112 14.7266 350.494 14.7266C346.136 14.7266 342.496 16.1648 339.598 19.063C336.7 21.9613 335.239 25.5781 335.239 29.9366C335.239 34.2952 336.7 37.935 339.598 40.8332C342.496 43.7314 346.136 45.1917 350.494 45.1917C352.336 45.1917 353.999 44.9218 355.504 44.3601C357.01 43.7985 358.088 43.2142 358.695 42.5852L359.593 41.7767V36.0481H351.236V26.9034H374.107V47.4614C373.905 47.7534 373.568 48.1579 373.096 48.6297C372.624 49.1015 371.635 49.9769 370.153 51.1901C368.67 52.4258 367.075 53.5046 365.367 54.4482C363.66 55.3918 361.458 56.2453 358.784 56.9867C356.133 57.7955 353.37 58.155 350.517 58.155Z" fill="black"/>
<path d="M411.761 3.31331H427.375L408.346 37.5982V56.6269H393.877V37.5982L374.848 3.31331H390.462L401.134 23.8713L411.761 3.31331Z" fill="black"/>
<path d="M464.644 56.6269H441.818V3.31331H463.499C467.812 3.31331 471.497 4.72959 474.552 7.58288C477.608 10.4362 479.135 13.7155 479.135 17.4C479.135 19.5344 478.686 21.4892 477.81 23.2866C476.934 25.0615 476.057 26.3194 475.181 26.9934L473.811 28.0718C474.013 28.1616 474.283 28.3418 474.642 28.5665C475.002 28.7912 475.653 29.3083 476.597 30.0946C477.54 30.881 478.349 31.7345 479.023 32.6781C479.697 33.6217 480.326 34.8346 480.91 36.3399C481.494 37.8452 481.786 39.3956 481.786 41.0132C481.786 45.2819 480.146 48.9437 476.889 52.0217C473.631 55.0996 469.52 56.6269 464.644 56.6269ZM463.499 10.57H450.198V25.0396H463.499C465.588 25.0396 467.318 24.3422 468.688 22.9717C470.059 21.6013 470.755 19.8718 470.755 17.8048C470.755 15.7379 470.059 14.0084 468.688 12.6379C467.318 11.2674 465.565 10.57 463.499 10.57ZM450.176 49.3933H464.644C467.116 49.3933 469.205 48.5617 470.89 46.8767C472.575 45.1917 473.429 43.1247 473.429 40.6534C473.429 38.182 472.598 36.0931 470.913 34.4081C469.228 32.7231 467.161 31.8685 464.644 31.8685H450.176V49.3933Z" fill="black"/>
<path d="M483.273 56.6269L505.358 3.31331H513.715L535.8 56.6269H527.061L521.332 42.5402H497.719L491.99 56.6269H483.273ZM509.559 12.8398L500.774 34.9248H518.276L509.559 12.8398Z" fill="black"/>
<path d="M567.052 41.3949C567.052 39.7549 566.535 38.3842 565.502 37.2833C564.468 36.1825 563.12 35.3059 561.458 34.6768C559.818 34.0478 557.975 33.4642 555.976 32.9699C553.976 32.4531 551.954 31.8464 549.955 31.105C547.955 30.3636 546.113 29.465 544.473 28.4316C542.833 27.3981 541.485 25.9153 540.429 23.9832C539.395 22.0735 538.879 19.7598 538.879 17.0413C538.879 12.9299 540.451 9.4917 543.597 6.72829C546.742 3.96487 551.011 2.57281 556.38 2.57281C558.357 2.57281 560.267 2.81955 562.087 3.29135C563.907 3.76315 565.412 4.34676 566.625 4.9983C567.816 5.64984 568.872 6.30221 569.793 6.97621C570.692 7.62775 571.366 8.18942 571.792 8.66122L572.377 9.4017L567.052 14.7496C566.962 14.6598 566.805 14.4795 566.625 14.2549C566.445 14.0302 566.018 13.6483 565.367 13.1315C564.715 12.6148 563.997 12.1658 563.255 11.7614C562.491 11.357 561.503 10.997 560.289 10.66C559.054 10.3454 557.773 10.1663 556.403 10.1663C553.662 10.1663 551.438 10.8396 549.775 12.21C548.09 13.5805 547.259 15.176 547.259 17.0182C547.259 18.6583 547.775 20.0284 548.809 21.1518C549.842 22.2751 551.19 23.1298 552.853 23.7813C554.493 24.4104 556.335 24.994 558.335 25.4883C560.334 26.005 562.356 26.6118 564.356 27.3532C566.355 28.0946 568.198 28.9712 569.838 30.0047C571.478 31.0381 572.826 32.5428 573.882 34.475C574.915 36.4071 575.455 38.7214 575.455 41.3949C575.455 46.113 573.77 49.9545 570.4 52.9201C567.03 55.8857 562.356 57.3915 556.425 57.3915C553.999 57.3915 551.685 57.0992 549.483 56.515C547.281 55.9309 545.484 55.234 544.068 54.4252C542.653 53.6164 541.44 52.8085 540.384 51.9997C539.35 51.1909 538.587 50.4941 538.115 49.9549L537.373 49.0334L542.698 43.7085C542.788 43.8658 542.968 44.0681 543.192 44.3602C543.417 44.6522 543.956 45.1468 544.787 45.8433C545.619 46.5398 546.517 47.169 547.483 47.7082C548.449 48.2474 549.73 48.719 551.325 49.1684C552.92 49.5952 554.605 49.82 556.403 49.82C559.705 49.82 562.311 49.011 564.221 47.3934C566.108 45.7758 567.052 43.7764 567.052 41.3949Z" fill="black"/>
<path d="M592.147 49.0115H622.23V56.6269H583.79V3.31331H621.489V10.9299H592.147V25.0166H615.378V32.6331H592.147V49.0115Z" fill="black"/>
<path d="M421.827 55.4141C420.456 54.111 419.76 52.4711 419.76 50.5389C419.76 48.6068 420.456 46.9894 421.827 45.6638C423.197 44.3608 424.927 43.687 426.994 43.687C429.061 43.687 430.791 44.3383 432.161 45.6638C433.532 46.9894 434.228 48.6068 434.228 50.5389C434.228 52.4711 433.532 54.0885 432.161 55.4141C430.791 56.7396 429.061 57.392 426.994 57.392C424.927 57.392 423.197 56.7171 421.827 55.4141Z" fill="#FF0040"/>
<path d="M19.4452 29.8251L34.8574 14.4121V24.9269L29.9597 29.8251L34.835 34.7002V45.215L19.4452 29.8251ZM58.6722 1H1V58.6501H58.6722V1ZM48.1578 48.1572H11.4695V11.4699H48.1578V48.1572Z" fill="#FF0040"/>
<path d="M421.827 55.4141C420.456 54.111 419.76 52.4711 419.76 50.5389C419.76 48.6068 420.456 46.9894 421.827 45.6638C423.197 44.3608 424.927 43.687 426.994 43.687C429.061 43.687 430.791 44.3383 432.161 45.6638C433.532 46.9894 434.228 48.6068 434.228 50.5389C434.228 52.4711 433.532 54.0885 432.161 55.4141C430.791 56.7396 429.061 57.392 426.994 57.392C424.927 57.392 423.197 56.7171 421.827 55.4141Z" stroke="#FF0040" stroke-width="0.4726" stroke-miterlimit="10"/>
<path d="M19.4452 29.8251L34.8574 14.4121V24.9269L29.9597 29.8251L34.835 34.7002V45.215L19.4452 29.8251ZM58.6722 1H1V58.6501H58.6722V1ZM48.1578 48.1572H11.4695V11.4699H48.1578V48.1572Z" stroke="#FF0040" stroke-width="0.4726" stroke-miterlimit="10"/>
</svg>
