<svg width="243" height="27" viewBox="0 0 243 27" fill="none" xmlns="http://www.w3.org/2000/svg">
<path fill-rule="evenodd" clip-rule="evenodd" d="M107.999 -18.6596C111.056 -17.3644 114.275 -14.9359 115.401 -11.374C117.493 -12.993 120.068 -15.0978 121.838 -17.0406L122.642 -16.8787C120.39 -14.2882 117.815 -12.1835 115.562 -10.4026C115.562 -10.0788 115.723 -9.75501 115.723 -9.43121C117.332 6.43513 97.7005 13.235 86.4365 13.8826C88.6893 27.3204 68.7359 26.5109 62.2993 24.8919C48.1388 21.0063 28.9899 9.83506 15.3122 12.1017C10.3238 12.9112 4.36998 16.473 1.47352 19.0634L0.668945 18.2539C16.4386 3.359 35.9093 14.2064 53.1272 20.8444C61.3338 23.4348 81.4482 29.7489 85.3101 16.9587C85.6319 15.9873 85.471 15.0159 85.1492 13.8826C82.0918 13.8826 79.0344 13.7207 76.138 13.235C73.4024 12.7493 69.2186 11.7779 67.7704 8.53985C66.1613 5.30182 70.9887 3.359 73.0806 3.5209C77.1035 4.00661 80.9654 6.11133 84.0228 9.18745C84.8274 9.99696 85.471 10.9684 85.9538 12.1017C91.7467 11.7779 97.7005 10.6446 102.85 7.73034C108.16 4.81612 115.079 -1.82184 114.275 -9.26931C101.723 0.606678 90.7812 -1.82184 87.7238 -3.76466C80.6436 -7.97409 82.5746 -13.9644 83.701 -15.9073C87.0802 -20.9262 98.666 -22.869 107.999 -18.6596ZM114.114 -10.4026C112.987 -14.9359 107.838 -17.3644 104.137 -18.1739C96.2523 -20.1167 88.5284 -19.1453 85.6319 -15.5835C84.3446 -13.8025 81.4482 -8.7836 88.2066 -4.57417C91.103 -2.79325 101.402 -1.01234 114.114 -10.4026ZM84.5055 12.2636C84.3446 12.1017 84.1837 11.7779 84.0228 11.616C81.2872 7.89224 74.207 3.5209 70.1841 5.94942C69.5405 6.27323 68.575 7.24464 69.0577 8.21605C70.345 10.6446 74.5288 11.4541 76.2989 11.7779C79.0344 12.1017 81.77 12.2636 84.5055 12.2636Z" fill="#B38759"/>
<path fill-rule="evenodd" clip-rule="evenodd" d="M135.194 -18.1742C132.136 -16.879 129.079 -14.6124 127.953 -11.0505C125.7 -12.8315 123.93 -14.6124 121.677 -17.0409L120.55 -16.879C122.803 -14.1267 125.217 -11.86 127.47 -9.91722C127.47 -9.59342 127.309 -9.26962 127.309 -8.94582C125.7 6.92052 145.331 13.7204 156.595 14.368C154.343 27.8058 174.296 26.9963 180.733 25.3773C194.893 21.4916 214.042 10.3204 227.72 12.5871C232.869 13.3966 238.823 16.9584 241.719 19.5488L242.524 18.9012C226.754 4.00629 207.283 14.8537 190.066 21.4916C181.859 24.0821 161.745 30.3962 157.883 17.606C157.561 16.6346 157.722 15.6632 158.044 14.5299C161.101 14.5299 164.158 14.368 167.055 13.8823C169.79 13.3966 173.974 12.4252 175.422 9.18714C177.032 5.94911 172.204 4.00629 170.112 4.1682C166.089 4.6539 162.227 6.75862 159.17 9.83474C158.365 10.8062 157.722 11.7776 157.239 12.749C151.446 12.4252 145.492 11.2919 140.343 8.37763C135.033 5.46341 128.113 -1.17455 128.918 -8.62202C141.469 1.25397 152.412 -1.17455 155.469 -3.11737C162.549 -7.32681 160.618 -13.3172 159.492 -15.26C156.113 -20.4408 144.527 -22.2217 135.194 -18.1742ZM129.079 -9.91722C130.205 -14.4505 135.355 -16.7171 139.056 -17.6885C146.94 -19.6313 154.664 -18.6599 157.561 -15.0981C158.848 -13.3172 161.745 -8.29821 154.986 -4.08878C152.09 -2.14596 141.791 -0.526945 129.079 -9.91722ZM158.687 12.9109C158.848 12.749 159.009 12.4252 159.17 12.2633C161.906 8.53953 168.986 4.1682 173.009 6.59672C173.652 6.92052 174.618 7.89193 174.135 8.86333C172.848 11.2919 168.664 12.1014 166.894 12.4252C164.158 12.749 161.423 12.9109 158.687 12.9109Z" fill="#B38759"/>
<path d="M122.482 -24.4885C125.056 -26.4313 135.677 -34.2026 143.24 -33.0693C155.147 -32.2598 156.274 -16.0696 142.918 -15.422C136.159 -15.0982 128.274 -20.9267 122.803 -24.1647L122.482 -24.4885ZM143.4 -34.2026C134.55 -35.3359 121.999 -25.4599 121.355 -24.9742L121.194 -24.8123C121.033 -24.6504 121.194 -24.3266 121.355 -24.1647C121.677 -24.0028 121.999 -23.8409 122.321 -23.5171C129.884 -18.822 137.286 -14.2887 142.918 -14.6125C158.848 -15.2601 158.365 -32.5836 143.4 -34.2026Z" fill="#B38759"/>
<path d="M121.194 -16.393C121.355 -16.0692 121.516 -15.9073 121.677 -16.0692C122.964 -16.8787 124.252 -18.1739 125.861 -19.4691C127.631 -20.9262 129.562 -22.5452 131.654 -24.0024C136.159 -21.4119 140.826 -19.4691 143.561 -20.6024C147.262 -21.4119 150.159 -25.4595 145.653 -28.3737C141.309 -30.9641 136.32 -28.5356 131.654 -25.2976C127.148 -27.888 123.125 -31.126 121.677 -32.2593C121.516 -32.4212 121.194 -32.4212 121.033 -32.0974C120.872 -31.9355 120.872 -31.6117 121.194 -31.4498C122.642 -30.3165 126.504 -27.2404 131.01 -24.65C129.079 -23.1929 127.309 -21.7357 125.539 -20.2786C123.93 -18.9834 122.642 -17.8501 121.355 -17.0406C120.872 -16.7168 121.033 -16.5549 121.194 -16.393ZM132.619 -24.4881C135.998 -26.7547 139.699 -28.0499 142.757 -27.5642C143.883 -27.4023 144.527 -26.9166 145.01 -26.269C145.653 -25.2976 145.653 -24.1643 145.01 -23.1929C144.688 -22.5452 144.044 -21.8976 143.079 -21.5738C140.826 -20.9262 136.803 -22.2214 132.619 -24.4881Z" fill="#B38759"/>
<path d="M120.229 -24.4885C117.654 -26.4313 107.034 -34.2026 99.4706 -33.0693C87.5629 -32.2598 86.4365 -16.0696 99.7924 -15.422C106.551 -15.0982 114.436 -20.9267 119.907 -24.1647L120.229 -24.4885ZM99.3097 -34.2026C108.16 -35.3359 121.033 -25.4599 121.677 -24.9742C121.677 -24.9742 121.838 -24.8123 121.838 -24.6504C121.838 -24.4885 121.516 -24.1647 121.355 -24.1647C121.033 -24.0028 120.711 -23.8409 120.39 -23.5171C112.827 -18.822 105.424 -14.2887 99.7924 -14.6125C83.8619 -15.2601 84.3446 -32.5836 99.3097 -34.2026Z" fill="#B38759"/>
<path d="M121.516 -16.555C121.355 -16.2312 121.355 -15.9074 121.194 -16.0693C119.907 -16.8788 118.137 -18.4978 116.528 -19.793C114.758 -21.2501 112.827 -22.8692 110.735 -24.3263C106.229 -21.7358 101.563 -19.793 98.8271 -20.9263C95.1261 -21.7358 92.2296 -25.7834 96.7352 -28.6976C101.08 -31.288 106.068 -28.8595 110.735 -25.6215C115.24 -28.2119 119.263 -31.4499 120.711 -32.5832C120.872 -32.7451 120.872 -32.2593 121.033 -32.0974C121.194 -31.9355 121.516 -31.9356 121.355 -31.7737C119.907 -30.6404 116.045 -27.5643 111.539 -24.9739C113.47 -23.5168 115.24 -22.0596 117.01 -20.6025C118.62 -19.3073 120.068 -17.8502 121.194 -17.0407C122.482 -16.2312 121.677 -16.555 121.516 -16.555ZM109.93 -24.9739C106.551 -27.2405 102.85 -28.5357 99.7926 -28.05C96.0915 -27.5643 96.2525 -23.3549 99.3098 -22.2215C101.724 -21.412 105.746 -22.7073 109.93 -24.9739Z" fill="#B38759"/>
<path d="M121.033 -32.4219C120.229 -33.5552 117.654 -37.9266 118.137 -41.1646C118.298 -43.4312 120.068 -44.5645 121.677 -44.4026C123.125 -44.2407 124.412 -43.1074 124.412 -40.8408C124.412 -37.9266 122.482 -34.6885 121.033 -32.4219ZM117.01 -41.3265C116.367 -37.4409 120.551 -31.9362 120.872 -31.6124C121.033 -31.6124 121.033 -31.6124 121.194 -31.6124C121.194 -31.7743 121.355 -31.9362 121.355 -31.9362C123.447 -35.1742 125.378 -38.4123 125.378 -40.8408C125.378 -43.1074 124.412 -44.5645 123.286 -45.374C122.16 -46.1835 120.872 -46.1835 119.585 -45.5359C118.459 -45.0502 117.332 -43.5931 117.01 -41.3265Z" fill="#B38759"/>
<path d="M113.631 -34.5263C109.769 -39.0596 107.355 -44.4023 108.482 -49.5832C109.608 -55.4116 114.436 -60.7543 121.194 -60.7543C127.148 -60.7543 134.872 -54.9259 135.194 -49.2593C135.355 -44.2404 133.745 -39.3834 129.562 -34.6882L130.527 -35.3358C141.952 -47.1546 134.872 -63.5067 121.516 -63.5067C106.551 -63.5067 103.011 -45.6975 112.022 -35.6596L113.631 -34.5263Z" fill="#B38759"/>
<path d="M116.206 -35.3358C113.953 -38.0881 112.666 -41.1643 113.309 -44.2404C113.953 -47.6403 117.171 -51.0403 121.194 -51.0403C124.734 -51.0403 129.079 -47.6403 129.24 -44.2404C129.401 -41.1643 128.114 -38.2501 125.539 -35.4977L126.183 -35.8215C132.941 -42.9452 129.079 -52.6593 121.194 -52.6593C112.666 -52.8212 110.574 -42.1357 115.24 -35.9834L116.206 -35.3358Z" fill="#B38759"/>
<path fill-rule="evenodd" clip-rule="evenodd" d="M129.401 -34.6888C129.883 -34.8507 130.044 -35.3365 130.366 -35.4984C151.124 -46.0219 164.963 -39.8697 166.572 -35.6603C168.664 -30.6413 166.25 -23.8415 162.871 -19.3082C159.331 -14.4512 151.446 -6.8418 135.837 -9.27032C135.837 -9.27032 135.676 -10.4036 135.676 -10.7274C154.503 -7.81321 162.871 -19.9558 164.963 -27.2414C167.859 -37.765 159.17 -39.8697 149.837 -39.8697C144.044 -39.8697 134.711 -37.2793 129.401 -34.6888Z" fill="#B38759"/>
<path fill-rule="evenodd" clip-rule="evenodd" d="M135.676 -10.889C135.355 -4.57487 140.665 2.22499 147.584 4.65351C153.216 6.75823 160.457 7.56773 164.802 7.08203C158.365 6.92013 147.584 5.13921 142.918 1.25358C138.734 -2.14635 136.32 -6.84149 136.32 -10.889C136.159 -10.889 135.837 -10.7271 135.676 -10.889Z" fill="#B38759"/>
<path fill-rule="evenodd" clip-rule="evenodd" d="M113.47 -34.6887C113.148 -34.8506 112.987 -35.3363 112.505 -35.4982C92.5512 -46.0218 79.3561 -39.8696 77.5861 -35.6601C75.6551 -30.6412 77.9079 -23.8413 81.1262 -19.3081C84.5054 -14.6129 92.2293 -6.84167 107.194 -9.27019C107.194 -9.27019 107.355 -10.4035 107.355 -10.7273C89.3329 -7.81308 81.1262 -20.1176 79.1952 -27.4032C76.2988 -37.9267 84.8273 -40.0315 93.8385 -40.0315C99.3096 -39.8696 108.321 -37.2791 113.47 -34.6887Z" fill="#B38759"/>
<path fill-rule="evenodd" clip-rule="evenodd" d="M107.355 -10.7273C107.677 -4.41315 102.528 2.38705 95.9303 4.81557C90.4592 6.92028 83.5399 7.72979 79.3561 7.24409C85.4709 7.08219 95.9303 5.30127 100.436 1.41564C104.459 -1.98429 106.712 -6.67943 106.712 -10.727C106.873 -10.727 107.194 -10.7273 107.355 -10.7273Z" fill="#B38759"/>
</svg>
