<svg width="98" height="26" viewBox="0 0 98 26" fill="none" xmlns="http://www.w3.org/2000/svg">
<path d="M14.4277 2.41799C13.7109 0.874526 11.5166 0.874533 10.7998 2.418L8.50888 7.35108L3.10929 8.0055C1.41987 8.21026 0.7418 10.2971 1.98822 11.4558L5.97192 15.159L4.92575 20.4966C4.59842 22.1666 6.37363 23.4564 7.86075 22.629L12.6138 19.9846L17.3668 22.629C18.8539 23.4564 20.6291 22.1666 20.3018 20.4966L19.2556 15.159L23.2393 11.4558C24.4858 10.2971 23.8077 8.21026 22.1183 8.0055L16.7187 7.35108L14.4277 2.41799Z" fill="white" stroke="#0A0C5C" stroke-width="2"/>
<path d="M32.6572 2.41799C31.9404 0.874526 29.7461 0.874533 29.0293 2.418L26.7384 7.35108L21.3388 8.0055C19.6494 8.21026 18.9713 10.2971 20.2177 11.4558L24.2014 15.159L23.1552 20.4966C22.8279 22.1666 24.6031 23.4564 26.0902 22.629L30.8433 19.9846L35.5963 22.629C37.0834 23.4564 38.8586 22.1666 38.5313 20.4966L37.4851 15.159L41.4688 11.4558C42.7152 10.2971 42.0372 8.21026 40.3477 8.0055L34.9482 7.35108L32.6572 2.41799Z" fill="white" stroke="#0A0C5C" stroke-width="2"/>
<path d="M50.8867 2.41799C50.1699 0.874526 47.9756 0.874533 47.2588 2.418L44.9679 7.35108L39.5683 8.0055C37.8788 8.21026 37.2008 10.2971 38.4472 11.4558L42.4309 15.159L41.3847 20.4966C41.0574 22.1666 42.8326 23.4564 44.3197 22.629L49.0728 19.9846L53.8258 22.629C55.3129 23.4564 57.0881 22.1666 56.7608 20.4966L55.7146 15.159L59.6983 11.4558C60.9447 10.2971 60.2667 8.21026 58.5772 8.0055L53.1776 7.35108L50.8867 2.41799Z" fill="white" stroke="#0A0C5C" stroke-width="2"/>
<path d="M69.1162 2.41799C68.3994 0.874526 66.2051 0.874533 65.4883 2.418L63.1974 7.35108L57.7978 8.0055C56.1083 8.21026 55.4303 10.2971 56.6767 11.4558L60.6604 15.159L59.6142 20.4966C59.2869 22.1666 61.0621 23.4564 62.5492 22.629L67.3022 19.9846L72.0553 22.629C73.5424 23.4564 75.3176 22.1666 74.9903 20.4966L73.9441 15.159L77.9278 11.4558C79.1742 10.2971 78.4961 8.21026 76.8067 8.0055L71.4071 7.35108L69.1162 2.41799Z" fill="white" stroke="#0A0C5C" stroke-width="2"/>
<path d="M87.3457 2.41799C86.6289 0.874526 84.4346 0.874533 83.7178 2.418L81.4269 7.35108L76.0273 8.0055C74.3378 8.21026 73.6598 10.2971 74.9062 11.4558L78.8899 15.159L77.8437 20.4966C77.5164 22.1666 79.2916 23.4564 80.7787 22.629L85.5317 19.9846L90.2848 22.629C91.7719 23.4564 93.5471 22.1666 93.2198 20.4966L92.1736 15.159L96.1573 11.4558C97.4037 10.2971 96.7256 8.21026 95.0362 8.0055L89.6366 7.35108L87.3457 2.41799Z" fill="white" stroke="#0A0C5C" stroke-width="2"/>
</svg>
