<svg width="990" height="194" viewBox="0 0 990 194" fill="none" xmlns="http://www.w3.org/2000/svg">
<path d="M40.69 90.5751C63.96 90.5751 78.13 79.5251 78.13 60.4151C78.13 28.1751 29.9 35.1951 29.9 27.0051C29.9 24.7951 31.33 23.1051 36.53 23.1051C44.72 23.1051 54.47 25.9651 62.01 31.6851L76.05 13.0951C66.17 5.03513 53.43 1.00513 39.26 1.00513C15.47 1.00513 3.25 15.0451 3.25 29.7351C3.25 63.9251 51.61 55.4751 51.61 63.7951C51.61 67.1751 46.93 68.4751 41.99 68.4751C30.29 68.4751 20.54 63.5351 14.04 57.2951L0.39 76.7951C9.62 85.1151 22.23 90.5751 40.69 90.5751ZM134.877 89.0151V54.5651L167.117 2.30513H137.607L121.747 31.5551L105.627 2.30513H76.117L108.617 54.5651V89.0151H134.877ZM255.265 89.0151V2.30513H229.005V43.3851L198.845 2.30513H171.805V89.0151H198.065V45.0751L230.045 89.0151H255.265ZM335.085 89.0151V66.1351H295.565V56.6451H334.175V33.7651H295.565V25.1851H335.085V2.30513H269.305V89.0151H335.085ZM424.357 89.0151L408.627 58.3351C415.517 54.9551 424.227 47.0251 424.227 32.0751C424.227 15.8251 413.307 2.30513 393.027 2.30513H346.747V89.0151H373.007V61.7151H382.497L394.457 89.0151H424.357ZM388.997 38.8351H373.007V25.1851H388.997C393.417 25.1851 397.577 27.2651 397.577 31.9451C397.577 36.7551 393.417 38.8351 388.997 38.8351ZM477.882 90.5751C494.912 90.5751 507.912 83.6851 517.532 73.0251V37.5351H475.282V60.4151H491.402V63.5351C488.672 65.6151 482.822 67.4351 477.882 67.4351C465.272 67.4351 456.822 57.8151 456.822 45.7251C456.822 33.6351 465.272 24.0151 477.882 24.0151C485.682 24.0151 491.402 29.4751 493.872 34.8051L515.972 23.4951C510.512 12.3151 498.552 0.875132 477.882 0.875132C451.622 0.875132 430.172 17.9051 430.172 45.7251C430.172 73.4151 451.622 90.5751 477.882 90.5751ZM574.643 89.0151V54.5651L606.883 2.30513H577.373L561.513 31.5551L545.393 2.30513H515.883L548.383 54.5651V89.0151H574.643ZM49.79 193.575C76.57 193.575 97.24 175.375 97.24 148.725C97.24 122.075 76.57 103.875 49.79 103.875C23.01 103.875 2.34 122.075 2.34 148.725C2.34 175.375 23.01 193.575 49.79 193.575ZM49.79 170.435C37.18 170.435 28.99 160.815 28.99 148.725C28.99 136.635 37.18 127.015 49.79 127.015C62.4 127.015 70.59 136.635 70.59 148.725C70.59 160.815 62.4 170.435 49.79 170.435ZM190.011 192.015V105.305H163.751V146.385L133.591 105.305H106.551V192.015H132.811V148.075L164.791 192.015H190.011ZM263.201 192.015V169.135H230.311V105.305H204.051V192.015H263.201ZM300.009 192.015V105.305H273.749V192.015H300.009ZM397.453 192.015V105.305H371.193V146.385L341.033 105.305H313.993V192.015H340.253V148.075L372.233 192.015H397.453ZM477.273 192.015V169.135H437.753V159.645H476.363V136.765H437.753V128.185H477.273V105.305H411.493V192.015H477.273ZM548.329 192.015V159.645H586.939V136.765H548.329V128.185H587.849V105.305H522.069V192.015H548.329ZM641.772 193.575C668.552 193.575 689.222 175.375 689.222 148.725C689.222 122.075 668.552 103.875 641.772 103.875C614.992 103.875 594.322 122.075 594.322 148.725C594.322 175.375 614.992 193.575 641.772 193.575ZM641.772 170.435C629.162 170.435 620.972 160.815 620.972 148.725C620.972 136.635 629.162 127.015 641.772 127.015C654.382 127.015 662.572 136.635 662.572 148.725C662.572 160.815 654.382 170.435 641.772 170.435ZM776.144 192.015L760.414 161.335C767.304 157.955 776.014 150.025 776.014 135.075C776.014 118.825 765.094 105.305 744.814 105.305H698.534V192.015H724.794V164.715H734.284L746.244 192.015H776.144ZM740.784 141.835H724.794V128.185H740.784C745.204 128.185 749.364 130.265 749.364 134.945C749.364 139.755 745.204 141.835 740.784 141.835ZM829.539 193.575C858.789 193.575 872.309 177.845 872.309 156.265V105.305H845.659V155.485C845.659 163.805 840.199 170.435 829.539 170.435C818.749 170.435 813.289 163.805 813.289 155.485V105.305H786.639V156.395C786.639 177.845 800.289 193.575 829.539 193.575ZM989.257 192.015V105.305H952.987L937.777 146.905L922.567 105.305H886.297V192.015H912.557V139.885L931.927 192.015H943.627L962.997 139.885V192.015H989.257Z" fill="white"/>
</svg>
