<svg width="33" height="26" viewBox="0 0 33 26" fill="none" xmlns="http://www.w3.org/2000/svg">
<path d="M32.6497 12.2275C26.4053 8.15719 20.161 4.11678 13.9167 0.0763692C13.3007 -0.133133 12.9367 0.0763692 12.7127 0.854522C12.7127 1.96189 12.7127 3.06926 12.7127 4.17663H12.6846H1.84809C0.672034 6.84031 0 9.83321 0 12.9757C0 16.1482 0.672034 19.1411 1.84809 21.8347H12.6846H12.7127C12.7127 22.9421 12.7127 24.0195 12.7127 25.1269C12.7127 25.7554 13.4127 26.2043 13.9167 25.9051C20.161 21.8347 26.4053 17.7943 32.6497 13.7539C33.0137 13.305 33.2097 12.7064 32.6497 12.2275Z" fill="#000051"/>
</svg>
