<?xml version="1.0" encoding="utf-8"?>
<!-- Generator: Adobe Illustrator 16.0.0, SVG Export Plug-In . SVG Version: 6.00 Build 0)  -->
<!DOCTYPE svg PUBLIC "-//W3C//DTD SVG 1.1//EN" "http://www.w3.org/Graphics/SVG/1.1/DTD/svg11.dtd">
<svg version="1.1" id="Layer_1" xmlns="http://www.w3.org/2000/svg" xmlns:xlink="http://www.w3.org/1999/xlink" x="0px" y="0px"
	 width="50px" height="38px" viewBox="10 15 50 38" enable-background="new 10 15 50 38" xml:space="preserve">
<path fill="#FFFFFF" d="M59.469,32.871c-9.461-5.949-18.922-11.854-28.383-17.759c-0.934-0.307-1.485,0-1.824,1.137
	c0,1.618,0,3.237,0,4.855h-0.042H12.8c-1.782,3.893-2.8,8.267-2.8,12.86c0,4.637,1.018,9.011,2.8,12.948h16.419h0.042
	c0,1.619,0,3.193,0,4.813c0,0.918,1.061,1.574,1.824,1.137c9.461-5.949,18.922-11.854,28.383-17.76
	C60.021,34.446,60.318,33.571,59.469,32.871z"/>
</svg>
