<svg width="348" height="30" viewBox="0 0 348 30" fill="none" xmlns="http://www.w3.org/2000/svg">
<path d="M48.6853 29.2915C45.7842 29.2915 43.3802 28.6829 41.4734 27.4657C39.5663 26.2485 38.2374 24.595 37.4746 22.528L43.473 19.0601C44.4898 21.4716 46.2929 22.6773 48.8817 22.6773C51.0198 22.6773 52.0946 22.0687 52.0946 20.8515C52.0946 20.0477 51.4821 19.3932 50.257 18.9109C49.737 18.7042 48.5813 18.3482 46.813 17.8544C44.305 17.131 42.317 16.109 40.8607 14.8C39.393 13.4909 38.665 11.6651 38.665 9.33405C38.665 6.81926 39.5779 4.77529 41.3926 3.22508C43.207 1.66341 45.4722 0.894043 48.1882 0.894043C50.4882 0.894043 52.5222 1.42226 54.3021 2.49018C56.0821 3.55811 57.4341 5.09684 58.3821 7.11784L52.5109 10.5398C51.6441 8.51875 50.2225 7.50826 48.2345 7.50826C47.4022 7.50826 46.7666 7.6805 46.339 8.0135C45.9114 8.3465 45.6918 8.78287 45.6918 9.29959C45.6918 9.89672 46.0154 10.402 46.651 10.8154C47.2869 11.2287 48.535 11.711 50.3957 12.2507C51.7249 12.6411 52.7997 13.0086 53.6086 13.3416C54.4177 13.6746 55.3077 14.1684 56.2669 14.8C57.2261 15.4315 57.9545 16.2583 58.4165 17.2573C58.8905 18.2564 59.1217 19.4276 59.1217 20.7826C59.1217 23.4581 58.1625 25.548 56.2669 27.0523C54.3369 28.5451 51.8173 29.2915 48.6853 29.2915Z" fill="#251B1D"/>
<path d="M83.8199 1.46826L74.574 18.2449V28.7174H67.5584V18.3253L58.3125 1.46826H66.1832L71.0372 11.5503L75.9376 1.46826H83.8199Z" fill="#251B1D"/>
<path d="M101.099 1.46826H108.069V28.7174H102.659L92.9859 15.0182V28.7174H85.9707V1.46826H91.4256L101.099 15.1675V1.46826Z" fill="#251B1D"/>
<path d="M119.428 22.1721H130.049V28.7059H112.424V1.46826H129.853V7.96764H119.428V11.7456H128.87V18.1646H119.428V22.1721Z" fill="#251B1D"/>
<path d="M147.675 28.7059L142.89 19.91H140.383V28.7059H133.367V1.46826H144.335C147.132 1.46826 149.478 2.35245 151.362 4.13231C153.257 5.91219 154.205 8.16286 154.205 10.8843C154.205 12.5149 153.789 14.0192 152.957 15.3742C152.125 16.7406 150.981 17.8201 149.548 18.6239L155.188 28.7059H147.675ZM140.394 7.88725V13.9962H144.277C145.144 14.0192 145.849 13.7551 146.392 13.1809C146.936 12.6068 147.213 11.8719 147.213 10.9647C147.213 10.0576 146.936 9.32264 146.392 8.74849C145.849 8.17434 145.144 7.88725 144.277 7.88725H140.394Z" fill="#251B1D"/>
<path d="M184.498 13.1005V15.8679C184.498 19.864 183.238 23.1022 180.719 25.5825C178.199 28.0628 174.928 29.303 170.906 29.303C166.618 29.303 163.105 27.9365 160.354 25.215C157.604 22.4936 156.217 19.129 156.217 15.133C156.217 11.1369 157.592 7.76087 160.331 5.01644C163.07 2.26052 166.468 0.894043 170.513 0.894043C173.068 0.894043 175.414 1.46819 177.54 2.60501C179.667 3.74184 181.331 5.26908 182.533 7.16378L176.581 10.5513C176.038 9.69002 175.229 9.01253 174.177 8.48432C173.114 7.96756 171.923 7.70347 170.594 7.70347C168.422 7.70347 166.653 8.40393 165.266 9.80487C163.88 11.2058 163.186 12.9971 163.186 15.1789C163.186 17.2803 163.868 19.0601 165.243 20.507C166.618 21.9654 168.537 22.6888 171.022 22.6888C174.212 22.6888 176.315 21.4946 177.332 19.1061H170.675V13.112H184.498V13.1005Z" fill="#251B1D"/>
<path d="M208.745 1.46826L199.499 18.2449V28.7174H192.484V18.3253L183.238 1.46826H191.109L195.963 11.5503L200.863 1.46826H208.745Z" fill="#251B1D"/>
<path d="M209.728 29.2574C208.572 29.2574 207.601 28.8669 206.804 28.0746C206.006 27.2823 205.613 26.3292 205.613 25.2153C205.613 24.1015 206.018 23.1484 206.827 22.3561C207.636 21.5638 208.607 21.1733 209.728 21.1733C210.849 21.1733 211.808 21.5638 212.606 22.3561C213.403 23.1484 213.796 24.1015 213.796 25.2153C213.796 26.3292 213.403 27.2823 212.606 28.0746C211.808 28.8669 210.849 29.2574 209.728 29.2574Z" fill="#FF0040"/>
<path d="M241.047 25.1119C238.297 27.8448 234.934 29.2228 230.958 29.2228C226.994 29.2228 223.63 27.8563 220.868 25.1119C218.117 22.3789 216.73 19.0374 216.73 15.0872C216.73 11.1371 218.106 7.80702 220.868 5.06256C223.619 2.32962 226.982 0.95166 230.958 0.95166C234.934 0.95166 238.285 2.31814 241.047 5.06256C243.798 7.79553 245.185 11.1371 245.185 15.0872C245.185 19.0374 243.798 22.3675 241.047 25.1119ZM224.046 22.0689C225.919 23.9291 228.219 24.8478 230.958 24.8478C233.697 24.8478 236.008 23.9177 237.869 22.0689C239.741 20.2087 240.666 17.8891 240.666 15.0872C240.666 12.2854 239.73 9.95432 237.869 8.10556C235.997 6.24532 233.697 5.32668 230.958 5.32668C228.219 5.32668 225.907 6.25681 224.046 8.10556C222.174 9.96581 221.25 12.2854 221.25 15.0872C221.238 17.8891 222.174 20.2201 224.046 22.0689Z" fill="#251B1D"/>
<path d="M265.745 1.46826H270.253V28.7174H266.727L253.795 10.2298V28.7174H249.287V1.46826H252.812L265.745 19.9559V1.46826Z" fill="#251B1D"/>
<path d="M280.24 24.4228H291.404V28.7059H275.732V1.46826H280.24V24.4228Z" fill="#251B1D"/>
<path d="M294.732 1.46826H299.24V28.7174H294.732V1.46826Z" fill="#251B1D"/>
<path d="M321.175 1.46826H325.683V28.7174H322.157L309.226 10.2298V28.7174H304.719V1.46826H308.244L321.175 19.9559V1.46826Z" fill="#251B1D"/>
<path d="M335.669 24.4228H347.817V28.7059H331.174V1.46826H347.631V5.75143H335.682V12.8364H346.649V17.0737H335.682V24.4228H335.669Z" fill="#251B1D"/>
<path d="M0.121094 0.216309V29.7965H29.8932V0.216309H0.121094ZM4.73252 25.2148V4.79803H25.2817V25.2148H4.73252Z" fill="#FF0040"/>
<path d="M18.117 24.4802V18.0038L15.1005 15.0067L18.1285 11.9867V5.51025L8.58203 15.0067L18.117 24.4802Z" fill="#FF0040"/>
</svg>
