<svg width="168" height="23" viewBox="0 0 168 23" fill="none" xmlns="http://www.w3.org/2000/svg">
<path d="M41.2384 11.2219C39.9868 10.2831 39.048 9.86593 37.553 9.37917C36.1623 8.96195 35.2235 8.5795 34.702 8.30136C34.2152 7.98844 33.9719 7.57123 33.9719 6.98017C33.9719 5.83282 34.8758 5.13745 36.2666 5.13745C37.5182 5.13745 39.3957 5.83282 41.7947 7.25831C41.9338 7.01493 42.0381 6.2848 42.0033 5.03315C41.9685 3.78149 41.899 2.98182 41.7947 2.5646C40.0215 1.55633 38.1788 1.0348 36.2318 1.0348C33.9719 1.0348 32.1987 1.66063 30.9123 2.87752C29.6606 4.0944 29 5.65897 29 7.46692C29 9.27487 29.6954 10.7351 30.8775 11.7086C32.0944 12.6822 33.1026 13.0994 34.5629 13.5861C36.0579 14.0729 37.101 14.4901 37.553 14.7682C38.005 15.0464 38.2483 15.4636 38.2483 16.0199C38.2483 17.1673 37.3791 17.8974 35.6755 17.8974C34.1805 17.8974 32.2334 17.202 29.7997 15.7765C29.6606 16.0199 29.5563 16.7848 29.5911 18.0712C29.6258 19.3229 29.6954 20.1225 29.7997 20.4702C31.5033 21.4785 33.5199 22 35.8493 22C37.9702 22 39.7434 21.4437 41.1341 20.3659C42.5248 19.2533 43.2202 17.6888 43.2202 15.6375C43.2202 13.6557 42.4901 12.1259 41.2384 11.2219Z" fill="white"/>
<path d="M61.9255 1.31288C60.8824 1.31288 59.9785 1.38242 59.2831 1.48672L54.7632 10.0049L50.2434 1.48672C49.548 1.34765 48.6788 1.31288 47.6358 1.31288C46.5927 1.31288 45.6887 1.38242 44.9934 1.48672L52.2947 14.5943V21.548C53.9288 21.8261 55.5977 21.8261 57.2318 21.548V14.5943L64.5331 1.48672C63.8377 1.34765 62.9685 1.31288 61.9255 1.31288Z" fill="white"/>
<path d="M80.8046 1.48669V13.2383L71.452 1.48669C70.2003 1.27808 68.8791 1.27808 67.5927 1.48669V21.5479C69.2268 21.8261 70.8957 21.8261 72.5298 21.5479V9.79629L81.8825 21.5479C83.1341 21.7566 84.4553 21.7566 85.7417 21.5479V1.48669C84.1076 1.20854 82.4387 1.20854 80.8046 1.48669Z" fill="white"/>
<path d="M103.925 17.4453H94.8857V13.447H102.882C103.126 12.091 103.126 10.7351 102.882 9.34434H94.8857V5.58937H103.925C104.169 4.23341 104.169 2.87745 103.925 1.48672H89.9486V21.548H103.925C104.169 20.1573 104.169 18.8013 103.925 17.4453Z" fill="white"/>
<path d="M112.305 21.548V14.7682H114.217L118.632 21.548C119.328 21.6871 120.197 21.7219 121.275 21.7219C122.353 21.7219 123.291 21.6523 123.987 21.548L119.119 14.0381C121.483 12.9603 122.944 10.8394 122.944 8.16225C122.944 6.18046 122.248 4.58113 120.858 3.36424C119.467 2.11258 117.659 1.52152 115.399 1.52152H107.368V21.5828C109.002 21.8262 110.67 21.8262 112.305 21.548ZM112.305 5.5894H115.399C116.859 5.5894 117.937 6.49338 117.937 8.12748C117.937 9.76159 116.859 10.6656 115.399 10.6656H112.305V5.5894Z" fill="white"/>
<path d="M137.685 22C139.007 22 140.293 21.8609 141.58 21.548C142.831 21.2351 143.805 20.8526 144.465 20.4702V11.7781C142.831 11.5 141.232 11.5 139.632 11.7781V17.8626C139.007 17.9669 138.45 18.0017 137.998 18.0017C136.121 18.0017 134.591 17.4106 133.305 16.2285C132.053 15.0464 131.427 13.4818 131.427 11.5C131.427 9.55298 132.053 8.02318 133.305 6.87583C134.556 5.69371 136.121 5.10265 137.998 5.10265C139.806 5.10265 141.753 5.76325 143.839 7.0149C143.979 6.77152 144.083 6.04139 144.048 4.85927C144.013 3.64238 143.944 2.87748 143.839 2.5298C142.171 1.52152 140.154 1 137.72 1C134.313 1 131.566 2.00828 129.48 4.02483C127.429 6.04139 126.386 8.5447 126.386 11.5C126.386 14.4553 127.394 16.9586 129.48 18.9752C131.497 20.9917 134.243 22 137.685 22Z" fill="white"/>
<path d="M154.791 21.548C156.425 21.8261 158.094 21.8261 159.728 21.548V14.5943L167.03 1.48672C166.334 1.34765 165.465 1.31288 164.422 1.31288C163.379 1.31288 162.475 1.38242 161.78 1.48672L157.26 10.0049L152.74 1.48672C152.045 1.34765 151.175 1.31288 150.132 1.31288C149.089 1.31288 148.185 1.34765 147.49 1.48672L154.791 14.5943V21.548Z" fill="white"/>
<path d="M0 0.512695V22.4431H21.8788V0.512695H0ZM3.38912 19.0557V3.90981H18.4994V19.0557H3.38912Z" fill="#F8006B"/>
<path d="M13.2263 18.5106V13.7118L11.0122 11.4828L13.236 9.24397V4.44517L6.21502 11.4828L13.2263 18.5106Z" fill="#F8006B"/>
</svg>
