<svg width="100" height="100" viewBox="0 0 100 100" fill="none" xmlns="http://www.w3.org/2000/svg">
<circle cx="50" cy="50.0002" r="22" fill="#F8006B"/>
<path d="M46.9371 11.9688C53.8976 11.408 60.8784 12.7683 67.1191 15.9012C73.3599 19.0342 78.6211 23.8198 82.3297 29.7365C86.0383 35.6533 88.0521 42.4744 88.1515 49.4567C88.251 56.439 86.4323 63.3147 82.8938 69.3347L75.9074 65.2281C78.6944 60.4867 80.1268 55.0714 80.0485 49.5721C79.9701 44.0729 78.3841 38.7005 75.4632 34.0404C72.5423 29.3804 68.3985 25.6112 63.4833 23.1437C58.568 20.6761 53.0699 19.6048 47.5878 20.0465L46.9371 11.9688Z" fill="#D0D0D0"/>
<path d="M62.002 80.8029C56.7726 82.8404 51.1105 83.513 45.5492 82.7572C39.988 82.0015 34.7107 79.8423 30.2146 76.4832C25.7185 73.1241 22.1517 68.6756 19.8501 63.5568C17.5486 58.4381 16.5881 52.8177 17.0592 47.2252L20.019 47.4745C19.5902 52.5645 20.4644 57.68 22.5592 62.3388C24.6539 66.9976 27.9003 71.0464 31.9924 74.1037C36.0845 77.161 40.8876 79.1262 45.9492 79.814C51.0108 80.5018 56.1641 79.8897 60.9237 78.0353L62.002 80.8029Z" fill="#D0D0D0"/>
</svg>
