<svg width="1922" height="820" viewBox="0 0 1922 820" fill="none" xmlns="http://www.w3.org/2000/svg">
<mask id="mask0" mask-type="alpha" maskUnits="userSpaceOnUse" x="0" y="0" width="390" height="820">
<rect width="390" height="820" transform="matrix(-1 0 0 1 390 0)" fill="#00002F"/>
</mask>
<g mask="url(#mask0)">
<path d="M203.543 393.886C214.074 472.413 197.506 552.183 156.576 620.021C115.646 687.86 52.8019 739.709 -21.5769 767.006L-28.9091 747.028C40.9232 721.399 99.9258 672.719 138.354 609.027C176.782 545.335 192.337 470.441 182.45 396.714L203.543 393.886Z" fill="#5503E5"/>
<path d="M-103.575 82.116C-41.2759 77.0974 21.2739 88.0471 78.1633 113.93C135.053 139.814 184.403 179.776 221.549 230.04C258.696 280.304 282.413 339.209 290.458 401.19C298.503 463.171 290.611 526.18 267.527 584.262L232.49 570.337C253.206 518.213 260.289 461.667 253.069 406.043C245.849 350.42 224.565 297.556 191.229 252.448C157.892 207.339 113.604 171.476 62.5498 148.248C11.4956 125.019 -44.6385 115.193 -100.547 119.696L-103.575 82.116Z" fill="#F8006B"/>
</g>
<mask id="mask1" mask-type="alpha" maskUnits="userSpaceOnUse" x="1533" y="0" width="389" height="820">
<rect x="1533" width="389" height="820" fill="#00002F"/>
</mask>
<g mask="url(#mask1)">
<path d="M1804.53 325.749C1781.09 368.988 1767.09 416.701 1763.43 465.744C1759.78 514.788 1766.55 564.05 1783.31 610.285C1800.07 656.521 1826.44 698.681 1860.67 733.989C1894.91 769.297 1936.23 796.951 1981.93 815.131L1989.8 795.356C1946.89 778.288 1908.09 752.324 1875.95 719.174C1843.81 686.025 1819.06 646.442 1803.32 603.032C1787.58 559.623 1781.22 513.372 1784.66 467.327C1788.09 421.281 1801.24 376.485 1823.24 335.889L1804.53 325.749Z" fill="#F8006B"/>
<path d="M2052.46 85.116C2002.89 81.1232 1953.03 87.2284 1905.9 103.062C1858.76 118.895 1815.33 144.128 1778.22 177.233C1741.12 210.338 1711.12 250.627 1690.04 295.661C1668.96 340.696 1657.23 389.539 1655.57 439.237L1693.25 440.495C1694.74 395.895 1705.26 352.061 1724.18 311.646C1743.1 271.231 1770.03 235.075 1803.32 205.365C1836.62 175.656 1875.6 153.011 1917.9 138.802C1960.2 124.592 2004.95 119.113 2049.43 122.696L2052.46 85.116Z" fill="#5503E5"/>
</g>
</svg>
