<svg width="278" height="34" viewBox="0 0 278 34" fill="none" xmlns="http://www.w3.org/2000/svg">
<path d="M46.6509 14.7535C46.6509 14.3972 46.4851 14.0906 46.1454 13.8171C45.8057 13.552 45.3748 13.3365 44.8362 13.1625C44.2976 12.9885 43.7093 12.8062 43.0547 12.6074C42.4001 12.4085 41.7537 12.1599 41.1074 11.8616C40.4611 11.5633 39.8728 11.1987 39.3425 10.7761C38.8121 10.3535 38.373 9.79007 38.0333 9.07746C37.6935 8.36485 37.5278 7.54452 37.5278 6.60818C37.5278 5.00067 38.2238 3.59202 39.6159 2.37396C41.008 1.15589 42.7812 0.55929 44.9605 0.55929C45.8554 0.55929 46.7006 0.658724 47.496 0.857592C48.2915 1.05646 48.9461 1.28847 49.4516 1.56192C49.957 1.83536 50.4045 2.1088 50.7856 2.37396C51.1668 2.6474 51.432 2.8877 51.5811 3.09485L51.838 3.3683L48.7473 6.60818C48.6561 6.50046 48.5235 6.3596 48.3412 6.19388C48.1589 6.02815 47.7943 5.78785 47.2309 5.49784C46.6674 5.20782 46.0957 5.05867 45.5239 5.05867C44.919 5.05867 44.4136 5.2244 44.0159 5.56413C43.6181 5.90386 43.411 6.29331 43.411 6.74076C43.411 7.09707 43.5767 7.40365 43.9164 7.66881C44.2562 7.93397 44.687 8.14941 45.2256 8.32342C45.7642 8.49743 46.3525 8.68801 46.9906 8.88688C47.6369 9.08574 48.2832 9.33433 48.9378 9.63263C49.5924 9.93093 50.189 10.2955 50.7194 10.7181C51.2497 11.1407 51.6888 11.7042 52.0286 12.4168C52.3683 13.1294 52.534 13.9497 52.534 14.8861C52.534 16.709 51.8131 18.2337 50.3796 19.4766C48.9461 20.7195 47.0403 21.341 44.6622 21.341C43.6927 21.341 42.7564 21.225 41.8615 20.9929C40.9665 20.7609 40.2208 20.4792 39.6408 20.1478C39.0607 19.8163 38.547 19.4932 38.0995 19.1617C37.6521 18.8303 37.3206 18.5485 37.1135 18.3082L36.8152 17.9685L39.8976 14.7452C39.9308 14.8032 39.9971 14.8778 40.0965 14.9689C40.1959 15.0601 40.3782 15.2258 40.66 15.4744C40.9417 15.723 41.2317 15.9384 41.5466 16.129C41.8615 16.3196 42.2426 16.4853 42.7149 16.6261C43.179 16.7753 43.6513 16.8499 44.1153 16.8499C44.861 16.8499 45.4742 16.6427 45.9465 16.2284C46.4188 15.8141 46.6509 15.3252 46.6509 14.7535Z" fill="black"/>
<path d="M65.3109 1.12199H71.0698L64.0514 13.7667V20.785H58.7152V13.7667L51.6968 1.12199H57.4557L61.3916 8.70382L65.3109 1.12199Z" fill="black"/>
<path d="M90.5922 1.12199V20.785H85.9851L77.5332 9.83074V20.785H72.1969V1.12199H76.8289L85.2476 12.0763V1.12199H90.5922Z" fill="black"/>
<path d="M109.41 16.2857V20.785H93.9643V1.12199H109.128V5.62137H99.2923V8.70382H106.874V12.9298H99.2923V16.2857H109.41Z" fill="black"/>
<path d="M111.656 1.12199H120.928C122.999 1.12199 124.715 1.76831 126.065 3.06095C127.416 4.35359 128.087 5.95282 128.087 7.86692C128.087 8.6541 127.971 9.38329 127.739 10.071C127.507 10.7505 127.225 11.3057 126.894 11.7283C126.562 12.1509 126.239 12.5155 125.908 12.8138C125.576 13.1121 125.303 13.3192 125.088 13.4269L124.715 13.6341L128.791 20.7933H123.182L119.809 14.6118H117V20.7933H111.656V1.12199ZM122.163 9.26728C122.552 8.8944 122.751 8.42209 122.751 7.85863C122.751 7.29518 122.552 6.83115 122.163 6.45827C121.773 6.0854 121.259 5.9031 120.638 5.9031H116.992V9.82245H120.638C121.259 9.83074 121.765 9.64016 122.163 9.26728Z" fill="black"/>
<path d="M140.574 21.3485C137.525 21.3485 134.931 20.3293 132.802 18.2827C130.672 16.2443 129.612 13.7999 129.612 10.9494C129.612 8.10727 130.672 5.66285 132.802 3.61617C134.923 1.56949 137.517 0.550293 140.574 0.550293C141.627 0.550293 142.629 0.691158 143.582 0.964601C144.535 1.23804 145.314 1.56949 145.935 1.95065C146.557 2.33182 147.096 2.72127 147.551 3.10243C148.015 3.48359 148.347 3.81504 148.546 4.08848L148.86 4.48622L145.621 7.85868C145.563 7.78411 145.488 7.69296 145.405 7.57695C145.314 7.46095 145.107 7.26208 144.775 6.97206C144.444 6.68205 144.104 6.42518 143.748 6.20145C143.392 5.97773 142.919 5.77886 142.339 5.59656C141.759 5.41427 141.171 5.33141 140.574 5.33141C138.967 5.33141 137.624 5.86172 136.556 6.93063C135.487 7.99955 134.948 9.33362 134.948 10.9411C134.948 12.5486 135.487 13.891 136.556 14.9599C137.624 16.0288 138.967 16.5674 140.574 16.5674C141.254 16.5674 141.867 16.468 142.422 16.2608C142.977 16.0537 143.375 15.8383 143.599 15.6062L143.93 15.3079V13.195H140.848V9.8225H149.283V17.4043C149.208 17.5121 149.084 17.6612 148.91 17.8352C148.736 18.0092 148.372 18.3324 147.825 18.7798C147.278 19.2356 146.69 19.6333 146.06 19.9813C145.43 20.3293 144.618 20.6442 143.632 20.9177C142.646 21.2077 141.627 21.3485 140.574 21.3485Z" fill="black"/>
<path d="M163.162 1.12199H168.921L161.903 13.7667V20.785H156.566V13.7667L149.548 1.12199H155.307L159.243 8.70382L163.162 1.12199Z" fill="black"/>
<path d="M176.113 18.1252C174.116 16.1697 173.122 13.775 173.122 10.9494C173.122 8.12382 174.116 5.73741 176.113 3.77359C178.11 1.81805 180.571 0.840288 183.513 0.840288C186.455 0.840288 188.916 1.81805 190.913 3.77359C192.909 5.72912 193.904 8.12382 193.904 10.9494C193.904 13.775 192.909 16.1614 190.913 18.1252C188.916 20.089 186.455 21.0585 183.513 21.0585C180.571 21.0585 178.102 20.0807 176.113 18.1252ZM178.326 5.77884C176.917 7.18748 176.205 8.91929 176.205 10.9577C176.205 12.9961 176.909 14.7279 178.326 16.1448C179.743 17.5618 181.466 18.2744 183.513 18.2744C185.56 18.2744 187.283 17.57 188.7 16.1448C190.117 14.7279 190.821 13.0044 190.821 10.9577C190.821 8.91929 190.117 7.19577 188.7 5.77884C187.291 4.37019 185.56 3.65758 183.513 3.65758C181.466 3.65758 179.743 4.3619 178.326 5.77884Z" fill="black"/>
<path d="M210.891 1.12199H213.973V20.785H211.313L200.359 6.60742V20.785H197.277V1.12199H199.936L210.891 15.3162V1.12199Z" fill="black"/>
<path d="M231.109 20.785H218.481V1.12199H221.563V17.976H231.109V20.785Z" fill="black"/>
<path d="M233.627 20.785V1.12199H236.71V20.785H233.627Z" fill="black"/>
<path d="M254.815 1.12199H257.898V20.785H255.238L244.284 6.60742V20.785H241.201V1.12199H243.861L254.815 15.3162V1.12199Z" fill="black"/>
<path d="M265.488 17.976H276.583V20.785H262.405V1.12199H276.31V3.931H265.488V9.12642H274.056V11.9354H265.488V17.976Z" fill="black"/>
<path d="M38.2984 24.6218H39.8479V30.447H42.7812V24.6218H44.3224V30.447H45.2008V33.3306H43.6595V31.8391H38.2984V24.6218Z" fill="black"/>
<path d="M58.9965 31.8306H57.4553V27.2483L53.9088 31.8306H52.5665V24.6216H54.116V29.2039L57.6625 24.6216H58.9965V31.8306Z" fill="black"/>
<path d="M71.3432 31.1096V32.0377H69.8019V31.1096C68.8408 31.0848 68.0536 30.7782 67.4321 30.2064C66.8106 29.6347 66.5041 28.9304 66.5041 28.1266C66.5041 27.3146 66.8106 26.6268 67.4321 26.0468C68.0536 25.4668 68.8408 25.1685 69.7937 25.1436V24.373H71.3349V25.1436C72.2961 25.1685 73.0833 25.4751 73.7047 26.0468C74.3262 26.6268 74.6328 27.3146 74.6328 28.1266C74.6328 28.9387 74.3262 29.6264 73.7047 30.2064C73.0998 30.7865 72.3127 31.0848 71.3432 31.1096ZM68.5259 26.9748C68.211 27.2731 68.0536 27.6626 68.0536 28.1266C68.0536 28.5906 68.211 28.9801 68.5259 29.2784C68.8408 29.5767 69.2716 29.7424 69.8019 29.7673V26.4777C69.2633 26.5025 68.8408 26.6683 68.5259 26.9748ZM72.6275 29.2784C72.9424 28.9801 73.0998 28.5906 73.0998 28.1266C73.0998 27.6626 72.9424 27.2731 72.6275 26.9748C72.3127 26.6765 71.8818 26.5108 71.3515 26.486V29.7756C71.8818 29.7424 72.3127 29.5767 72.6275 29.2784Z" fill="black"/>
<path d="M85.1975 24.6216C85.935 24.6216 86.5565 24.8536 87.0371 25.3177C87.5259 25.7817 87.7662 26.3534 87.7662 27.0412C87.7662 27.7289 87.5259 28.3007 87.0371 28.7647C86.5482 29.2287 85.935 29.4607 85.1892 29.4607H83.6977V31.8306H82.1482V24.6216H85.1975ZM85.1395 26.0137H83.6977V28.0687H85.1395C85.4461 28.0687 85.703 27.9692 85.9101 27.7704C86.1173 27.5715 86.2167 27.3312 86.2167 27.0412C86.2167 26.7512 86.109 26.5109 85.9101 26.312C85.7113 26.1131 85.4461 26.0137 85.1395 26.0137Z" fill="black"/>
<path d="M96.0525 30.8859C95.2985 30.1484 94.9173 29.2618 94.9173 28.226C94.9173 27.1903 95.2985 26.3037 96.0525 25.5745C96.8066 24.837 97.7346 24.4724 98.8367 24.4724C99.9304 24.4724 100.858 24.837 101.621 25.5745C102.375 26.3119 102.756 27.1903 102.756 28.226C102.756 29.2618 102.375 30.1484 101.621 30.8859C100.867 31.6234 99.9387 31.988 98.8367 31.988C97.7346 31.988 96.8066 31.6234 96.0525 30.8859ZM97.196 26.544C96.7486 26.9997 96.5248 27.5632 96.5248 28.226C96.5248 28.8889 96.7486 29.4524 97.196 29.9081C97.6435 30.3639 98.1903 30.5959 98.8367 30.5959C99.483 30.5959 100.03 30.3639 100.477 29.9081C100.925 29.4524 101.149 28.8889 101.149 28.226C101.149 27.5632 100.925 26.9997 100.477 26.544C100.03 26.0882 99.483 25.8562 98.8367 25.8562C98.1903 25.8562 97.6435 26.0882 97.196 26.544Z" fill="black"/>
<path d="M113.636 31.8306H110.371V24.6216H113.462C114.117 24.6216 114.655 24.8122 115.086 25.1934C115.517 25.5745 115.724 26.022 115.724 26.5274C115.724 26.718 115.699 26.9003 115.641 27.0743C115.583 27.2483 115.517 27.3892 115.434 27.5052C115.351 27.6212 115.268 27.7206 115.186 27.8035C115.103 27.8864 115.036 27.9444 114.978 27.9775L114.896 28.0272C114.929 28.0438 114.97 28.0604 115.02 28.0852C115.07 28.1101 115.169 28.1681 115.302 28.2675C115.442 28.367 115.558 28.4747 115.666 28.5907C115.774 28.7067 115.865 28.8641 115.948 29.0713C116.031 29.2701 116.08 29.4939 116.08 29.7259C116.08 30.3059 115.848 30.7948 115.393 31.2174C114.937 31.6234 114.349 31.8306 113.636 31.8306ZM113.354 25.906H111.913V27.4555H113.354C113.611 27.4555 113.81 27.3892 113.959 27.2483C114.108 27.1075 114.183 26.9169 114.183 26.6849C114.183 26.4529 114.108 26.2623 113.959 26.1214C113.81 25.9805 113.603 25.906 113.354 25.906ZM111.913 30.5462H113.553C113.835 30.5462 114.067 30.4551 114.258 30.2811C114.44 30.107 114.539 29.8833 114.539 29.6265C114.539 29.3696 114.448 29.1459 114.258 28.9636C114.075 28.7813 113.835 28.6984 113.553 28.6984H111.913V30.5462Z" fill="black"/>
<path d="M127.714 30.1319H124.929L124.308 31.8306H122.659L125.493 24.6216H127.133L129.967 31.8306H128.318L127.714 30.1319ZM127.2 28.7978L126.321 26.428L125.443 28.7978H127.2Z" fill="black"/>
<path d="M142.538 24.6216V31.8306H140.997V29.3116H139.662L138.27 31.8389H136.63L138.171 29.1127C138.138 29.0961 138.088 29.0796 138.03 29.0464C137.972 29.0133 137.864 28.9387 137.723 28.8144C137.574 28.6901 137.442 28.5575 137.334 28.4084C137.218 28.2675 137.119 28.0687 137.027 27.8118C136.936 27.5549 136.887 27.2898 136.887 26.9997C136.887 26.3286 137.119 25.7734 137.583 25.3177C138.047 24.8619 138.635 24.6299 139.356 24.6299H142.538V24.6216ZM138.42 26.9915C138.42 27.2566 138.511 27.4721 138.701 27.6543C138.884 27.8366 139.124 27.9195 139.406 27.9195H140.997V26.0137H139.406C139.124 26.0137 138.892 26.1048 138.701 26.2871C138.519 26.4777 138.42 26.7097 138.42 26.9915Z" fill="black"/>
<path d="M164.985 24.6216V31.8306H163.444V26.0137H160.403V31.8306H158.853V24.6216H164.985Z" fill="black"/>
<path d="M179.038 24.6216V31.8306H177.497V26.0137H175.384V26.8423C175.384 27.8615 175.326 28.7067 175.218 29.4027C175.102 30.0905 174.936 30.6208 174.721 30.9854C174.506 31.3583 174.257 31.6151 173.984 31.7643C173.71 31.9134 173.387 31.988 173.014 31.988C172.865 31.988 172.707 31.9714 172.558 31.9383C172.401 31.9051 172.293 31.8803 172.219 31.8471L172.094 31.8057V30.3308C172.268 30.3971 172.434 30.4302 172.608 30.4385C172.873 30.4385 173.089 30.3556 173.263 30.1982C173.437 30.0408 173.569 29.6845 173.677 29.1376C173.785 28.5907 173.843 27.8284 173.843 26.8506V24.6216H179.038Z" fill="black"/>
<path d="M191.285 30.1319H188.501L187.88 31.8306H186.231L189.065 24.6216H190.705L193.539 31.8306H191.89L191.285 30.1319ZM190.772 28.7978L189.893 26.428L189.015 28.7978H190.772Z" fill="black"/>
<path d="M199.422 24.6216H205.082V26.0137H203.027V31.8306H201.486V26.0137H199.422V24.6216Z" fill="black"/>
<path d="M216.509 31.1096V32.0377H214.967V31.1096C214.006 31.0848 213.219 30.7782 212.598 30.2064C211.976 29.6347 211.67 28.9304 211.67 28.1266C211.67 27.3146 211.976 26.6268 212.598 26.0468C213.219 25.4668 214.006 25.1685 214.959 25.1436V24.373H216.5V25.1436C217.462 25.1685 218.249 25.4751 218.87 26.0468C219.492 26.6268 219.798 27.3146 219.798 28.1266C219.798 28.9387 219.492 29.6264 218.87 30.2064C218.257 30.7865 217.47 31.0848 216.509 31.1096ZM213.691 26.9748C213.377 27.2731 213.219 27.6626 213.219 28.1266C213.219 28.5906 213.377 28.9801 213.691 29.2784C214.006 29.5767 214.437 29.7424 214.967 29.7673V26.4777C214.429 26.5025 214.006 26.6683 213.691 26.9748ZM217.785 29.2784C218.1 28.9801 218.257 28.5906 218.257 28.1266C218.257 27.6626 218.1 27.2731 217.785 26.9748C217.47 26.6765 217.039 26.5108 216.509 26.486V29.7756C217.047 29.7424 217.47 29.5767 217.785 29.2784Z" fill="black"/>
<path d="M228.043 30.8859C227.289 30.1484 226.908 29.2618 226.908 28.226C226.908 27.1903 227.289 26.3037 228.043 25.5745C228.797 24.837 229.725 24.4724 230.827 24.4724C231.921 24.4724 232.849 24.837 233.611 25.5745C234.365 26.3119 234.746 27.1903 234.746 28.226C234.746 29.2618 234.365 30.1484 233.611 30.8859C232.857 31.6234 231.929 31.988 230.827 31.988C229.725 31.988 228.797 31.6234 228.043 30.8859ZM229.178 26.544C228.73 26.9997 228.507 27.5632 228.507 28.226C228.507 28.8889 228.73 29.4524 229.178 29.9081C229.625 30.3639 230.172 30.5959 230.819 30.5959C231.465 30.5959 232.012 30.3639 232.459 29.9081C232.907 29.4524 233.13 28.8889 233.13 28.226C233.13 27.5632 232.907 26.9997 232.459 26.544C232.012 26.0882 231.465 25.8562 230.819 25.8562C230.172 25.8562 229.625 26.0882 229.178 26.544Z" fill="black"/>
<path d="M245.394 24.6216C246.131 24.6216 246.753 24.8536 247.233 25.3177C247.722 25.7817 247.963 26.3534 247.963 27.0412C247.963 27.7289 247.722 28.3007 247.233 28.7647C246.744 29.2287 246.131 29.4607 245.386 29.4607H243.894V31.8306H242.345V24.6216H245.394ZM245.336 26.0137H243.894V28.0687H245.336C245.642 28.0687 245.899 27.9692 246.106 27.7704C246.314 27.5715 246.413 27.3312 246.413 27.0412C246.413 26.7512 246.305 26.5109 246.106 26.312C245.899 26.1131 245.642 26.0137 245.336 26.0137Z" fill="black"/>
<path d="M259.389 27.7621L261.883 24.6216H263.251V31.8306H261.709V27.0246L259.389 29.9745L257.077 27.0412V31.8306H255.528V24.6216H256.92L259.389 27.7621Z" fill="black"/>
<path d="M275.498 30.1319H272.713L272.092 31.8306H270.443L273.277 24.6216H274.918L277.751 31.8306H276.102L275.498 30.1319ZM274.992 28.7978L274.114 26.428L273.235 28.7978H274.992Z" fill="black"/>
<path d="M166.874 20.3377C166.369 19.8571 166.112 19.2522 166.112 18.5396C166.112 17.827 166.369 17.2304 166.874 16.7415C167.38 16.2609 168.018 16.0123 168.78 16.0123C169.543 16.0123 170.181 16.2526 170.686 16.7415C171.191 17.2221 171.448 17.827 171.448 18.5396C171.448 19.2522 171.191 19.8488 170.686 20.3377C170.181 20.8183 169.543 21.0669 168.78 21.0669C168.018 21.0586 167.38 20.8183 166.874 20.3377Z" fill="#FF0040"/>
<path d="M18.619 25.2514L9.59537 16.2278L18.6356 7.18761V13.6922L16.1 16.2278L18.619 18.7468V25.2514ZM31.2388 0.608398V31.8389H0V0.608398H31.2388ZM25.5545 6.28441H5.67602V26.1546H25.5462V6.28441H25.5545Z" fill="#FF0040"/>
</svg>
