<svg width="517" height="305" viewBox="0 0 517 305" fill="none" xmlns="http://www.w3.org/2000/svg">
<path d="M35.1821 72.6622C53.2611 72.6622 64.2701 64.0772 64.2701 49.2302C64.2701 24.1822 26.7991 29.6362 26.7991 23.2732C26.7991 21.5562 27.9101 20.2432 31.9501 20.2432C38.3131 20.2432 45.8881 22.4652 51.7461 26.9092L62.6541 12.4662C54.9781 6.20419 45.0801 3.07319 34.0711 3.07319C15.5881 3.07319 6.09409 13.9812 6.09409 25.3942C6.09409 51.9572 43.6661 45.3922 43.6661 51.8562C43.6661 54.4822 40.0301 55.4922 36.1921 55.4922C27.1021 55.4922 19.5271 51.6542 14.4771 46.8062L3.87209 61.9562C11.0431 68.4202 20.8401 72.6622 35.1821 72.6622ZM108.358 71.4502V44.6852L133.406 4.08319H110.479L98.1572 26.8082L85.6332 4.08319H62.7062L87.9562 44.6852V71.4502H108.358ZM201.89 71.4502V4.08319H181.488V35.9992L158.056 4.08319H137.048V71.4502H157.45V37.3122L182.296 71.4502H201.89ZM263.904 71.4502V53.6742H233.2V46.3012H263.197V28.5252H233.2V21.8592H263.904V4.08319H212.798V71.4502H263.904ZM333.262 71.4502L321.041 47.6142C326.393 44.9882 333.161 38.8272 333.161 27.2122C333.161 14.5872 324.677 4.08319 308.921 4.08319H272.964V71.4502H293.366V50.2402H300.74L310.032 71.4502H333.262ZM305.789 32.4642H293.366V21.8592H305.789C309.223 21.8592 312.456 23.4752 312.456 27.1112C312.456 30.8482 309.223 32.4642 305.789 32.4642ZM374.847 72.6622C388.078 72.6622 398.178 67.3092 405.652 59.0272V31.4542H372.827V49.2302H385.351V51.6542C383.23 53.2702 378.685 54.6842 374.847 54.6842C365.05 54.6842 358.485 47.2102 358.485 37.8172C358.485 28.4242 365.05 20.9502 374.847 20.9502C380.907 20.9502 385.351 25.1922 387.27 29.3332L404.44 20.5462C400.198 11.8602 390.906 2.97219 374.847 2.97219C354.445 2.97219 337.78 16.2032 337.78 37.8172C337.78 59.3302 354.445 72.6622 374.847 72.6622ZM450.022 71.4502V44.6852L475.07 4.08319H452.143L439.821 26.8082L427.297 4.08319H404.37L429.62 44.6852V71.4502H450.022ZM42.2521 152.662C63.0581 152.662 79.1171 138.522 79.1171 117.817C79.1171 97.1122 63.0581 82.9722 42.2521 82.9722C21.4461 82.9722 5.38709 97.1122 5.38709 117.817C5.38709 138.522 21.4461 152.662 42.2521 152.662ZM42.2521 134.684C32.4551 134.684 26.0921 127.21 26.0921 117.817C26.0921 108.424 32.4551 100.95 42.2521 100.95C52.0491 100.95 58.4121 108.424 58.4121 117.817C58.4121 127.21 52.0491 134.684 42.2521 134.684ZM151.193 151.45V84.0832H130.791V115.999L107.359 84.0832H86.3512V151.45H106.753V117.312L131.599 151.45H151.193ZM208.056 151.45V133.674H182.503V84.0832H162.101V151.45H208.056ZM236.653 151.45V84.0832H216.251V151.45H236.653ZM312.359 151.45V84.0832H291.957V115.999L268.525 84.0832H247.517V151.45H267.919V117.312L292.765 151.45H312.359ZM374.373 151.45V133.674H343.669V126.301H373.666V108.525H343.669V101.859H374.373V84.0832H323.267V151.45H374.373ZM29.4251 231.45V206.301H59.4221V188.525H29.4251V181.859H60.1291V164.083H9.02309V231.45H29.4251ZM102.024 232.662C122.83 232.662 138.889 218.522 138.889 197.817C138.889 177.112 122.83 162.972 102.024 162.972C81.2176 162.972 65.1586 177.112 65.1586 197.817C65.1586 218.522 81.2176 232.662 102.024 232.662ZM102.024 214.684C92.2266 214.684 85.8636 207.21 85.8636 197.817C85.8636 188.424 92.2266 180.95 102.024 180.95C111.821 180.95 118.184 188.424 118.184 197.817C118.184 207.21 111.821 214.684 102.024 214.684ZM206.42 231.45L194.199 207.614C199.552 204.988 206.319 198.827 206.319 187.212C206.319 174.587 197.835 164.083 182.079 164.083H146.123V231.45H166.525V210.24H173.898L183.19 231.45H206.42ZM178.948 192.464H166.525V181.859H178.948C182.382 181.859 185.614 183.475 185.614 187.111C185.614 190.848 182.382 192.464 178.948 192.464ZM247.904 232.662C270.629 232.662 281.133 220.441 281.133 203.675V164.083H260.428V203.069C260.428 209.533 256.186 214.684 247.904 214.684C239.521 214.684 235.279 209.533 235.279 203.069V164.083H214.574V203.776C214.574 220.441 225.179 232.662 247.904 232.662ZM371.993 231.45V164.083H343.814L331.997 196.403L320.18 164.083H292.001V231.45H312.403V190.949L327.452 231.45H336.542L351.591 190.949V231.45H371.993Z" fill="white"/>
<path d="M385.525 83.9077V151.45H452.909V83.9077H385.525ZM395.963 141.018V94.3704H442.5V141.018H395.963Z" fill="#F8006B"/>
<path d="M426.259 139.339V124.559L419.44 117.694L426.289 110.799V96.019L404.666 117.694L426.259 139.339Z" fill="#F8006B"/>
<rect x="0.871094" y="256.159" width="455.318" height="48.8412" fill="#190543"/>
<path d="M16.7383 293.159L21.1663 281.802V293.159H28.4233V265.812H21.1663L17.2303 276.472V265.812H10.0143V293.159H16.7383ZM40.4865 293.651C46.0625 293.651 47.7845 288.813 48.5635 285.492L42.9055 283.442C42.6595 285.615 41.9625 287.255 40.4865 287.255C38.4775 287.255 37.8625 284.221 37.8625 279.506C37.8625 274.791 38.4775 271.757 40.4865 271.757C41.8805 271.757 42.4545 272.987 42.8645 275.078L48.5635 272.987C47.6205 269.707 45.8985 265.361 40.4865 265.361C33.6395 265.361 30.4825 271.142 30.4825 279.506C30.4825 287.829 33.6395 293.651 40.4865 293.651ZM70.1622 293.159L63.3152 278.563L69.7112 265.812H61.8392L57.4112 276.882V265.812H50.1542V293.159H57.4112V287.542L58.9692 284.139L62.0442 293.159H70.1622ZM73.8692 293.651C79.0762 293.651 80.6342 290.781 82.6842 285.287L89.9002 265.812L82.1922 265.771L79.5682 275.119L76.9032 265.812H69.2772L75.7142 283.278L75.0582 285.041C74.7302 285.902 74.1152 287.255 72.8032 287.255C72.2702 287.255 71.4502 287.05 70.9172 286.599L69.2772 292.544C70.5892 293.405 72.3112 293.651 73.8692 293.651ZM99.5954 293.651C105.171 293.651 106.893 288.813 107.672 285.492L102.014 283.442C101.768 285.615 101.071 287.255 99.5954 287.255C97.5864 287.255 96.9714 284.221 96.9714 279.506C96.9714 274.791 97.5864 271.757 99.5954 271.757C100.989 271.757 101.563 272.987 101.973 275.078L107.672 272.987C106.729 269.707 105.007 265.361 99.5954 265.361C92.7484 265.361 89.5914 271.142 89.5914 279.506C89.5914 287.829 92.7484 293.651 99.5954 293.651ZM118.324 293.651C123.9 293.651 125.622 288.813 126.401 285.492L120.743 283.442C120.497 285.615 119.8 287.255 118.324 287.255C116.315 287.255 115.7 284.221 115.7 279.506C115.7 274.791 116.315 271.757 118.324 271.757C119.718 271.757 120.292 272.987 120.702 275.078L126.401 272.987C125.458 269.707 123.736 265.361 118.324 265.361C111.477 265.361 108.32 271.142 108.32 279.506C108.32 287.829 111.477 293.651 118.324 293.651ZM138.283 293.159V272.126H142.219V265.812H127.049V272.126H131.026V293.159H138.283ZM155.185 293.159C160.433 293.159 162.401 289.674 162.401 285.738C162.401 282.294 160.392 279.506 157.563 279.055C160.146 278.44 162.032 276.185 162.032 272.782C162.032 269.379 160.105 265.812 154.816 265.812H144.238V293.159H155.185ZM152.766 276.144H151.495V272.126H152.766C154.078 272.126 154.652 272.823 154.652 274.135C154.652 275.529 154.078 276.144 152.766 276.144ZM152.93 286.845H151.495V282.458H152.93C154.201 282.458 155.021 283.196 155.021 284.631C155.021 286.189 154.201 286.845 152.93 286.845ZM178.184 293.159V286.845H171.665V282.458H177.897V276.144H171.665V272.126H178.184V265.812H164.408V293.159H178.184ZM199.023 293.159V265.812H191.807V275.939H187.871V265.812H180.614V293.159H187.871V282.253H191.807V293.159H199.023ZM220.435 293.159V265.812H213.219V275.939H209.283V265.812H202.026V293.159H209.283V282.253H213.219V293.159H220.435ZM223.437 265.812V293.159H232.58C238.689 293.159 241.477 288.813 241.477 284.016C241.477 279.219 238.689 274.914 232.58 274.914H230.694V265.812H223.437ZM231.76 281.228C233.195 281.228 234.138 282.253 234.138 284.057C234.138 285.82 233.195 286.845 231.76 286.845H230.694V281.228H231.76ZM250.005 293.159V265.812H242.748V293.159H250.005ZM259.7 293.159L264.128 281.802V293.159H271.385V265.812H264.128L260.192 276.472V265.812H252.976V293.159H259.7ZM267.49 261.589L264.62 259.457C264.087 260.236 263.185 260.728 262.201 260.728C261.217 260.728 260.315 260.236 259.782 259.457L256.912 261.589C258.142 263.27 260.069 264.254 262.201 264.254C264.374 264.254 266.301 263.27 267.49 261.589Z" fill="white"/>
<path d="M287.028 293.159L291.456 281.802V293.159H298.713V265.812H291.456L287.52 276.472V265.812H280.304V293.159H287.028ZM320.124 293.159V265.812H312.908V275.939H308.972V265.812H301.715V293.159H308.972V282.253H312.908V293.159H320.124ZM333.417 293.159V272.126H337.353V265.812H322.183V272.126H326.16V293.159H333.417ZM353.148 293.159V286.845H346.629V282.458H352.861V276.144H346.629V272.126H353.148V265.812H339.372V293.159H353.148ZM354.349 293.651C359.556 293.651 363.738 291.806 364.312 280.736L364.763 272.126H366.731V293.159H373.988V265.812H358.121L357.096 280.736C356.686 286.64 355.743 287.255 354.349 287.255V293.651ZM375.76 293.651C380.967 293.651 385.149 291.806 385.723 280.736L386.174 272.126H388.142V293.159H395.399V265.812H379.532L378.507 280.736C378.097 286.64 377.154 287.255 375.76 287.255V293.651ZM412.177 293.159V286.845H405.658V282.458H411.89V276.144H405.658V272.126H412.177V265.812H398.401V293.159H412.177ZM434.615 293.159L427.768 278.563L434.164 265.812H426.292L421.864 276.882V265.812H414.607V293.159H421.864V287.542L423.422 284.139L426.497 293.159H434.615ZM445.989 293.159V272.126H449.925V265.812H434.755V272.126H438.732V293.159H445.989Z" fill="#F8006B"/>
</svg>
