<svg width="30" height="30" viewBox="0 0 30 30" fill="none" xmlns="http://www.w3.org/2000/svg">
<path fill-rule="evenodd" clip-rule="evenodd" d="M15 30C23.2843 30 30 23.2843 30 15C30 6.71573 23.2843 0 15 0C6.71573 0 0 6.71573 0 15C0 23.2843 6.71573 30 15 30ZM15.575 19.65C13.3583 18.4625 11.4583 16.6417 10.35 14.425L12.0917 12.6833C12.3292 12.4458 12.4083 12.1292 12.3292 11.8917C12.0125 10.9417 11.8542 10.0708 11.8542 9.04167C11.8542 8.64583 11.5375 8.25 11.0625 8.25H8.29167C7.89583 8.25 7.5 8.64583 7.5 9.04167C7.5 16.4833 13.5167 22.5 20.9583 22.5C21.3542 22.5 21.75 22.1042 21.75 21.7083V19.0167C21.75 18.5417 21.3542 18.225 20.9583 18.225C19.9292 18.225 18.9792 18.0667 18.1083 17.75C17.8708 17.5917 17.5542 17.6708 17.3167 17.9083L15.575 19.65Z" fill="white"/>
</svg>
