<svg width="131" height="40" viewBox="0 0 131 40" fill="none" xmlns="http://www.w3.org/2000/svg">
<g clip-path="url(#clip0)">
<path d="M117.791 28.2208L111.575 20.6134L117.628 14.0695H113.047L108.057 19.55V14.0695H104.294V28.2208H108.057V22.0858L113.129 28.2208H117.791Z" fill="#009CAB"/>
<path d="M13.9058 28.2208H10.2248V26.2576C9.16145 27.8118 7.60726 28.6298 5.56227 28.6298C2.53569 28.6298 0.654297 26.9938 0.654297 23.5582V14.0695H4.58068V22.1676C4.58068 23.9672 4.74428 25.3578 6.95287 25.3578C9.40685 25.3578 10.0612 23.4764 10.0612 21.3496V14.0695H13.9058V28.2208Z" fill="#009CAB"/>
<path d="M24.9487 28.2208V22.2494H19.4681V28.2208H15.6235V14.0695H19.4681V19.2228H24.9487V14.0695H28.7933V28.2208H24.9487Z" fill="#009CAB"/>
<path d="M37.7097 17.096V28.2208H33.8651V17.096H29.8569V14.0695H41.7179V17.096H37.7097Z" fill="#009CAB"/>
<path d="M48.8341 28.6298C44.4987 28.6298 41.6357 25.685 41.6357 21.2679C41.6357 16.8507 44.6623 13.7423 48.7523 13.7423C53.0059 13.7423 55.7053 16.8507 55.7053 21.8405V22.2495H45.5621C45.6439 24.7035 46.7891 26.0122 48.9159 26.0122C50.3065 26.0122 51.2063 25.3579 51.7789 23.9673H55.5417C54.6419 26.912 52.0243 28.6298 48.8341 28.6298ZM48.7523 16.5235C47.0345 16.5235 45.8075 17.7505 45.5621 19.7137H51.7789C51.6153 17.9141 50.6337 16.5235 48.7523 16.5235Z" fill="#009CAB"/>
<path d="M60.2862 15.8691C61.3496 14.3967 62.9038 13.7423 64.7034 13.7423C68.548 13.7423 71.0019 16.7689 71.0019 21.2679C71.0019 25.685 68.548 28.6298 64.867 28.6298C63.0674 28.6298 61.5132 27.9754 60.5316 26.503V32.638H56.687V14.0695H60.368V15.8691H60.2862ZM60.368 21.1861C60.368 23.9673 61.595 25.5215 63.8036 25.5215C65.8486 25.5215 67.1574 23.8855 67.1574 21.1861C67.1574 18.4049 65.8486 16.7689 63.8036 16.7689C61.595 16.8507 60.368 18.4049 60.368 21.1861Z" fill="#009CAB"/>
<path d="M123.436 28.548C119.1 28.548 116.237 25.6033 116.237 21.2679C116.237 16.6871 119.1 13.6605 123.517 13.6605C127.28 13.6605 129.816 15.7055 130.143 18.9775H126.299C126.053 17.4233 124.99 16.5235 123.517 16.5235C121.391 16.5235 120.164 18.2413 120.164 21.1043C120.164 23.9673 121.391 25.5215 123.436 25.5215C125.072 25.5215 126.135 24.5399 126.462 22.6585H130.225C129.734 26.4213 127.198 28.548 123.436 28.548Z" fill="#009CAB"/>
<path d="M96.3599 13.7423C96.3599 13.7423 95.8691 13.7423 95.1329 13.7423H92.2699C91.5337 13.7423 91.6973 12.9243 91.7791 12.6789C93.5787 5.72594 95.1329 3.68095 97.6687 3.84455C98.8139 3.92635 99.2229 4.17175 99.8773 4.74435C100.368 5.23514 100.368 5.48054 101.186 4.08995C102.168 2.37216 102.249 2.29036 102.495 1.79956C102.658 1.47236 103.231 0.899766 102.249 0.899766C90.3067 0.654368 90.1431 5.23514 86.135 13.0061C85.726 13.7423 85.2352 13.7423 83.8446 13.7423C83.8446 13.7423 81.636 13.7423 80.8998 13.7423C79.2638 13.7423 77.0552 13.9877 75.2556 15.2147C73.865 16.1963 71.9018 18.1595 71.9018 21.4315C71.9018 23.3129 72.8016 25.276 73.6196 26.1758C74.6012 27.2392 75.1738 27.73 76.0736 28.139C76.319 28.2208 76.4008 28.2208 76.4826 28.2208C76.6462 28.2208 76.8098 28.0572 76.9734 27.9754C79.0184 26.1758 79.1002 26.094 79.9182 25.4396C80.2454 25.1124 80 24.9488 79.591 24.9488C78.0368 24.7852 77.0552 24.458 76.4008 23.7219C75.5828 22.9039 75.4192 22.1677 75.3374 21.3497C75.1738 19.3865 76.6462 17.7505 77.955 17.0143C78.773 16.6053 79.8364 16.3599 81.227 16.3599C83.272 16.3599 83.8446 16.4417 84.1718 16.6871C84.4172 16.9325 84.6626 17.1779 84.3354 18.0777C82.3722 22.9857 81.5542 25.6032 77.7914 32.0654C75.91 35.2556 72.5562 37.3006 67.8118 35.7464C66.7485 35.4192 66.5031 35.9918 66.2577 36.4826C66.0123 36.8916 65.0307 38.2822 64.9489 38.6094C64.7035 39.1002 65.3579 39.2638 65.6851 39.2638C73.2924 39.5092 77.3006 38.1186 81.7996 33.047C85.9714 27.73 86.7894 23.6401 89.4887 18.2413C89.8977 17.3415 90.5521 16.4417 91.6155 16.4417C94.3967 16.4417 96.2781 16.4417 96.2781 16.4417C97.9959 16.4417 98.8139 17.0143 98.8139 18.3231C97.7505 18.3231 97.1779 18.3231 96.7689 18.3231C96.0327 18.3231 91.5337 18.2413 89.5705 21.7587C89.2433 22.3313 88.6707 23.4765 88.8343 24.867C88.9979 26.7484 90.3885 28.0572 92.2699 28.548C92.5971 28.6298 92.8425 28.7116 93.0879 28.7116C93.4151 28.7934 93.8241 28.7934 94.2331 28.7934C95.9509 28.7934 97.5869 28.2208 98.8139 27.0756V28.3026H102.577V18.4867C102.577 14.3967 99.2229 13.7423 96.3599 13.7423ZM98.8139 23.2311C98.8139 24.0491 98.4049 24.867 97.9959 25.276C96.9325 26.2576 95.2965 26.3394 94.5603 26.1758C93.9059 26.0122 92.8425 25.3578 92.8425 24.2945C92.7607 22.9039 93.2515 22.2495 94.1513 21.5951C95.0511 21.0225 96.0327 20.8589 96.6871 20.8589C97.5051 20.8589 98.7321 20.8589 98.7321 20.8589C98.7321 20.8589 98.8139 22.4131 98.8139 23.2311Z" fill="#009CAB"/>
</g>
<defs>
<clipPath id="clip0">
<rect width="130.879" height="40" fill="white"/>
</clipPath>
</defs>
</svg>
