<svg width="1140" height="98" viewBox="0 0 1140 98" fill="none" xmlns="http://www.w3.org/2000/svg">
<path d="M159.86 95.7887C150.364 95.7887 142.496 93.7837 136.254 89.7736C130.011 85.7635 125.661 80.3159 123.164 73.5063L142.798 62.0814C146.127 70.0259 152.029 73.9981 160.503 73.9981C167.502 73.9981 171.02 71.9931 171.02 67.983C171.02 65.3348 169.015 63.1785 165.005 61.5896C163.303 60.9086 159.52 59.7359 153.731 58.1091C145.522 55.7258 139.015 52.3589 134.249 48.0461C129.444 43.7334 127.061 37.7183 127.061 30.0386C127.061 21.7537 130.049 15.0198 135.989 9.91261C141.928 4.76761 149.343 2.23294 158.233 2.23294C165.762 2.23294 172.42 3.97316 178.246 7.49143C184.072 11.0097 188.498 16.079 191.6 22.7373L172.382 34.0109C169.545 27.3526 164.892 24.0235 158.385 24.0235C155.661 24.0235 153.58 24.591 152.18 25.6881C150.781 26.7852 150.062 28.2228 150.062 29.9251C150.062 31.8923 151.121 33.5569 153.202 34.9188C155.282 36.2807 159.368 37.8696 165.459 39.6477C169.81 40.9339 173.328 42.1445 175.976 43.2416C178.624 44.3387 181.537 45.9654 184.677 48.0461C187.817 50.1268 190.2 52.8507 191.714 56.1419C193.265 59.4332 194.021 63.292 194.021 67.756C194.021 76.5706 190.881 83.4558 184.677 88.4117C178.359 93.3297 170.112 95.7887 159.86 95.7887Z" fill="white"/>
<path d="M274.86 4.12442L244.595 59.3953V93.8971H221.632V59.6602L191.367 4.12442H217.13L233.019 37.3399L249.059 4.12442H274.86Z" fill="white"/>
<path d="M331.415 4.12442H354.227V93.8971H336.522L304.858 48.7649V93.8971H281.895V4.12442H299.751L331.415 49.2567V4.12442Z" fill="white"/>
<path d="M391.41 72.3335H426.176V93.8593H368.484V4.12442H425.533V25.5367H391.41V37.9831H422.318V59.1305H391.41V72.3335Z" fill="white"/>
<path d="M483.881 93.8593L468.22 64.8808H460.01V93.8593H437.047V4.12442H472.948C482.103 4.12442 489.783 7.0374 495.95 12.9012C502.154 18.765 505.256 26.1798 505.256 35.1457C505.256 40.5177 503.894 45.4736 501.17 49.9376C498.446 54.4395 494.701 57.9956 490.01 60.6438L508.472 93.8593H483.881ZM460.048 25.2719V45.3979H472.759C475.597 45.4736 477.904 44.6035 479.682 42.7119C481.46 40.8204 482.368 38.3992 482.368 35.4106C482.368 32.4219 481.46 30.0007 479.682 28.1092C477.904 26.2177 475.597 25.2719 472.759 25.2719H460.048Z" fill="white"/>
<path d="M604.42 42.4472V51.5644C604.42 64.7296 600.296 75.3979 592.049 83.5693C583.802 91.7408 573.096 95.8265 559.931 95.8265C545.895 95.8265 534.395 91.3247 525.391 82.3587C516.387 73.3928 511.848 62.3084 511.848 49.1432C511.848 35.9781 516.35 24.8558 525.315 15.8142C534.281 6.73481 545.404 2.23294 558.644 2.23294C567.005 2.23294 574.685 4.12448 581.646 7.86974C588.606 11.615 594.054 16.6465 597.989 22.8886L578.506 34.0487C576.728 31.2114 574.079 28.9794 570.637 27.2392C567.156 25.5368 563.26 24.6667 558.909 24.6667C551.797 24.6667 546.009 26.9743 541.469 31.5897C536.93 36.2051 534.66 42.1067 534.66 49.2946C534.66 56.2176 536.892 62.0814 541.394 66.8481C545.895 71.6526 552.175 74.0359 560.309 74.0359C570.75 74.0359 577.636 70.1015 580.965 62.2327H559.174V42.485H604.42V42.4472Z" fill="white"/>
<path d="M683.774 4.12442L653.509 59.3953V93.8971H630.546V59.6602L600.281 4.12442H626.044L641.933 37.3399L657.973 4.12442H683.774Z" fill="white"/>
<path d="M686.987 95.6749C683.204 95.6749 680.026 94.3887 677.416 91.7784C674.806 89.168 673.52 86.0281 673.52 82.3585C673.52 78.6889 674.844 75.5489 677.492 72.9386C680.14 70.3282 683.318 69.042 686.987 69.042C690.657 69.042 693.797 70.3282 696.407 72.9386C699.018 75.5489 700.304 78.6889 700.304 82.3585C700.304 86.0281 699.018 89.168 696.407 91.7784C693.797 94.3887 690.657 95.6749 686.987 95.6749Z" fill="#FF0099"/>
<path d="M789.506 82.0185C780.503 91.0222 769.494 95.562 756.48 95.562C743.504 95.562 732.495 91.0601 723.454 82.0185C714.45 73.0147 709.91 62.006 709.91 48.9921C709.91 35.9783 714.412 25.0074 723.454 15.9658C732.457 6.96204 743.466 2.42233 756.48 2.42233C769.494 2.42233 780.465 6.92421 789.506 15.9658C798.51 24.9695 803.05 35.9783 803.05 48.9921C803.05 62.006 798.51 72.9769 789.506 82.0185ZM733.857 71.9933C739.986 78.1219 747.514 81.1484 756.48 81.1484C765.446 81.1484 773.012 78.0841 779.103 71.9933C785.231 65.8647 788.258 58.2229 788.258 48.9921C788.258 39.7614 785.194 32.0817 779.103 25.991C772.974 19.8624 765.446 16.8359 756.48 16.8359C747.514 16.8359 739.948 19.9002 733.857 25.991C727.729 32.1196 724.702 39.7614 724.702 48.9921C724.664 58.2229 727.729 65.9025 733.857 71.9933Z" fill="white"/>
<path d="M870.359 4.12442H885.113V93.8971H873.575L831.242 32.9894V93.8971H816.488V4.12442H828.027L870.359 65.0321V4.12442Z" fill="white"/>
<path d="M917.797 79.7483H954.342V93.8593H903.043V4.12442H917.797V79.7483Z" fill="white"/>
<path d="M965.238 4.12442H979.992V93.8971H965.238V4.12442Z" fill="white"/>
<path d="M1051.8 4.12442H1066.55V93.8971H1055.02L1012.68 32.9894V93.8971H997.93V4.12442H1009.47L1051.8 65.0321V4.12442Z" fill="white"/>
<path d="M1099.24 79.7483H1139V93.8593H1084.53V4.12442H1138.4V18.2353H1099.28V41.577H1135.18V55.5366H1099.28V79.7483H1099.24Z" fill="white"/>
<path d="M0.894531 0V97.4523H98.3469V0H0.894531ZM15.9891 82.3578V15.0945H83.2523V82.3578H15.9891Z" fill="#FF0099"/>
<path d="M59.7886 79.9371V58.6004L49.9147 48.7266L59.8264 38.7771V17.4405L28.5781 48.7266L59.7886 79.9371Z" fill="#FF0099"/>
</svg>
