<svg width="607" height="297" viewBox="0 0 607 297" fill="none" xmlns="http://www.w3.org/2000/svg">
<path d="M499.791 105.705V192.103H585.986V105.705H499.791ZM513.143 178.758V119.089H572.672V178.758H513.143Z" fill="#F8006B"/>
<path d="M551.897 176.61V157.705L543.174 148.923L551.935 140.103V121.197L524.275 148.923L551.897 176.61Z" fill="#F8006B"/>
<path d="M40.69 90.5601C63.96 90.5601 78.13 79.5101 78.13 60.4001C78.13 28.1601 29.9 35.1801 29.9 26.9901C29.9 24.7801 31.33 23.0901 36.53 23.0901C44.72 23.0901 54.47 25.9501 62.01 31.6701L76.05 13.0801C66.17 5.02011 53.43 0.990106 39.26 0.990106C15.47 0.990106 3.25001 15.0301 3.25001 29.7201C3.25001 63.9101 51.61 55.4601 51.61 63.7801C51.61 67.1601 46.93 68.4601 41.99 68.4601C30.29 68.4601 20.54 63.5201 14.04 57.2801L0.390015 76.7801C9.62002 85.1001 22.23 90.5601 40.69 90.5601Z" fill="white"/>
<path d="M134.877 89.0001V54.5501L167.117 2.2901H137.607L121.747 31.5401L105.627 2.2901H76.117L108.617 54.5501V89.0001H134.877Z" fill="white"/>
<path d="M255.265 89.0001V2.2901H229.005V43.3701L198.845 2.2901H171.805V89.0001H198.065V45.0601L230.045 89.0001H255.265Z" fill="white"/>
<path d="M335.085 89.0001V66.1201H295.565V56.6301H334.175V33.7501H295.565V25.1701H335.085V2.2901H269.305V89.0001H335.085Z" fill="white"/>
<path d="M424.357 89.0001L408.627 58.3201C415.517 54.9401 424.227 47.0101 424.227 32.0601C424.227 15.8101 413.307 2.2901 393.027 2.2901H346.747V89.0001H373.007V61.7001H382.497L394.457 89.0001H424.357ZM388.997 38.8201H373.007V25.1701H388.997C393.417 25.1701 397.577 27.2501 397.577 31.9301C397.577 36.7401 393.417 38.8201 388.997 38.8201Z" fill="white"/>
<path d="M477.882 90.5601C494.912 90.5601 507.912 83.6701 517.532 73.0101V37.5201H475.282V60.4001H491.402V63.5201C488.672 65.6001 482.822 67.4201 477.882 67.4201C465.272 67.4201 456.822 57.8001 456.822 45.7101C456.822 33.6201 465.272 24.0001 477.882 24.0001C485.682 24.0001 491.402 29.4601 493.872 34.7901L515.972 23.4801C510.512 12.3001 498.552 0.860107 477.882 0.860107C451.622 0.860107 430.172 17.8901 430.172 45.7101C430.172 73.4001 451.622 90.5601 477.882 90.5601Z" fill="white"/>
<path d="M574.643 89.0001V54.5501L606.883 2.2901H577.373L561.513 31.5401L545.393 2.2901H515.883L548.383 54.5501V89.0001H574.643Z" fill="white"/>
<path d="M49.79 193.56C76.57 193.56 97.24 175.36 97.24 148.71C97.24 122.06 76.57 103.86 49.79 103.86C23.01 103.86 2.34001 122.06 2.34001 148.71C2.34001 175.36 23.01 193.56 49.79 193.56ZM49.79 170.42C37.18 170.42 28.99 160.8 28.99 148.71C28.99 136.62 37.18 127 49.79 127C62.4 127 70.59 136.62 70.59 148.71C70.59 160.8 62.4 170.42 49.79 170.42Z" fill="white"/>
<path d="M190.011 192V105.29H163.751V146.37L133.591 105.29H106.551V192H132.811V148.06L164.791 192H190.011Z" fill="white"/>
<path d="M263.201 192V169.12H230.311V105.29H204.051V192H263.201Z" fill="white"/>
<path d="M300.009 192V105.29H273.749V192H300.009Z" fill="white"/>
<path d="M397.453 192V105.29H371.193V146.37L341.033 105.29H313.993V192H340.253V148.06L372.233 192H397.453Z" fill="white"/>
<path d="M477.273 192V169.12H437.753V159.63H476.363V136.75H437.753V128.17H477.273V105.29H411.493V192H477.273Z" fill="white"/>
<path d="M33.28 295V262.63H71.89V239.75H33.28V231.17H72.8V208.29H7.02001V295H33.28Z" fill="white"/>
<path d="M126.724 296.56C153.504 296.56 174.174 278.36 174.174 251.71C174.174 225.06 153.504 206.86 126.724 206.86C99.9436 206.86 79.2736 225.06 79.2736 251.71C79.2736 278.36 99.9436 296.56 126.724 296.56ZM126.724 273.42C114.114 273.42 105.924 263.8 105.924 251.71C105.924 239.62 114.114 230 126.724 230C139.334 230 147.524 239.62 147.524 251.71C147.524 263.8 139.334 273.42 126.724 273.42Z" fill="white"/>
<path d="M261.095 295L245.365 264.32C252.255 260.94 260.965 253.01 260.965 238.06C260.965 221.81 250.045 208.29 229.765 208.29H183.485V295H209.745V267.7H219.235L231.195 295H261.095ZM225.735 244.82H209.745V231.17H225.735C230.155 231.17 234.315 233.25 234.315 237.93C234.315 242.74 230.155 244.82 225.735 244.82Z" fill="white"/>
<path d="M314.49 296.56C343.74 296.56 357.26 280.83 357.26 259.25V208.29H330.61V258.47C330.61 266.79 325.15 273.42 314.49 273.42C303.7 273.42 298.24 266.79 298.24 258.47V208.29H271.59V259.38C271.59 280.83 285.24 296.56 314.49 296.56Z" fill="white"/>
<path d="M474.209 295V208.29H437.939L422.729 249.89L407.519 208.29H371.249V295H397.509V242.87L416.879 295H428.579L447.949 242.87V295H474.209Z" fill="white"/>
</svg>
