<svg width="216" height="26" viewBox="0 0 216 26" fill="none" xmlns="http://www.w3.org/2000/svg">
<path d="M66.2232 5.21582H52.7768C50.1386 5.21582 48 7.26148 48 9.78494V16.2145C48 18.7379 50.1386 20.7836 52.7768 20.7836H66.2232C68.8614 20.7836 71 18.7379 71 16.2145V9.78494C71 7.26148 68.8614 5.21582 66.2232 5.21582ZM62.9927 13.3125L56.7034 16.1817C56.5358 16.2582 56.3422 16.1413 56.3422 15.9637V10.046C56.3422 9.86588 56.5409 9.74915 56.7088 9.83056L62.9981 12.8791C63.1851 12.9697 63.1819 13.2262 62.9927 13.3125Z" fill="#F8006B"/>
<g clip-path="url(#clip0)">
<path d="M166.862 18.9799C166.831 18.912 166.801 18.8558 166.774 18.8107C166.323 17.9982 165.461 17.001 164.188 15.8187L164.162 15.7917L164.148 15.7784L164.135 15.7648H164.121C163.543 15.2143 163.178 14.8441 163.025 14.6546C162.744 14.2936 162.682 13.9281 162.835 13.5579C162.943 13.2781 163.349 12.6874 164.053 11.7847C164.423 11.3064 164.716 10.923 164.933 10.6341C166.494 8.55833 167.171 7.23187 166.963 6.65422L166.883 6.51923C166.829 6.43796 166.689 6.36362 166.463 6.29582C166.238 6.22816 165.949 6.21697 165.597 6.26206L161.698 6.28899C161.635 6.26661 161.545 6.2687 161.427 6.29582C161.31 6.32294 161.251 6.33655 161.251 6.33655L161.183 6.37045L161.13 6.41118C161.084 6.43811 161.035 6.48547 160.981 6.55318C160.927 6.62065 160.882 6.69983 160.846 6.79006C160.421 7.88206 159.939 8.89734 159.397 9.83586C159.063 10.3955 158.756 10.8805 158.476 11.2911C158.197 11.7017 157.962 12.0041 157.773 12.198C157.583 12.3921 157.412 12.5475 157.258 12.665C157.104 12.7825 156.987 12.8321 156.906 12.814C156.825 12.7958 156.748 12.7778 156.676 12.7598C156.55 12.6785 156.448 12.568 156.371 12.4281C156.295 12.2882 156.243 12.1122 156.216 11.9001C156.189 11.6879 156.173 11.5053 156.168 11.3518C156.164 11.1985 156.166 10.9817 156.175 10.702C156.185 10.4221 156.189 10.2327 156.189 10.1334C156.189 9.79044 156.195 9.41819 156.209 9.01659C156.222 8.61499 156.234 8.29679 156.243 8.06238C156.252 7.82772 156.256 7.57946 156.256 7.31774C156.256 7.05601 156.24 6.85075 156.209 6.70178C156.178 6.55299 156.13 6.40857 156.067 6.26855C156.004 6.12868 155.911 6.02048 155.79 5.94367C155.668 5.86695 155.516 5.80607 155.336 5.76084C154.858 5.65259 154.249 5.59404 153.508 5.58493C151.83 5.56692 150.751 5.67531 150.273 5.90996C150.084 6.0091 149.912 6.14456 149.759 6.31592C149.596 6.51454 149.574 6.62293 149.691 6.64076C150.232 6.72188 150.616 6.91595 150.841 7.22277L150.923 7.38535C150.986 7.50265 151.049 7.71033 151.112 8.00809C151.175 8.30585 151.216 8.63524 151.234 8.99606C151.279 9.65498 151.279 10.219 151.234 10.6882C151.189 11.1576 151.146 11.5231 151.106 11.7848C151.065 12.0465 151.004 12.2586 150.923 12.421C150.841 12.5834 150.787 12.6827 150.76 12.7187C150.733 12.7548 150.711 12.7775 150.693 12.7864C150.575 12.8314 150.453 12.8543 150.327 12.8543C150.201 12.8543 150.047 12.791 149.867 12.6646C149.686 12.5382 149.499 12.3646 149.305 12.1434C149.111 11.9222 148.892 11.6131 148.648 11.2161C148.405 10.819 148.152 10.3498 147.89 9.80831L147.674 9.41563C147.539 9.163 147.354 8.79516 147.119 8.31244C146.884 7.82953 146.677 7.3624 146.496 6.91116C146.424 6.72164 146.316 6.57736 146.171 6.47808L146.104 6.43735C146.059 6.40131 145.986 6.36305 145.887 6.32227C145.788 6.28154 145.684 6.25234 145.576 6.23437L141.867 6.2613C141.488 6.2613 141.23 6.34717 141.095 6.51866L141.041 6.59979C141.014 6.64497 141 6.71714 141 6.81647C141 6.91576 141.027 7.03761 141.081 7.18189C141.623 8.45449 142.212 9.68181 142.848 10.864C143.484 12.0463 144.037 12.9986 144.506 13.7201C144.975 14.4422 145.454 15.1237 145.941 15.7643C146.428 16.4051 146.751 16.8157 146.909 16.9961C147.067 17.1769 147.191 17.312 147.281 17.4022L147.62 17.7271C147.836 17.9437 148.154 18.2032 148.574 18.5054C148.994 18.8079 149.458 19.1056 149.968 19.3992C150.478 19.6922 151.072 19.9314 151.749 20.1164C152.425 20.3015 153.084 20.3758 153.725 20.34H155.282C155.597 20.3127 155.837 20.2134 155.999 20.0421L156.053 19.9742C156.089 19.9204 156.123 19.8367 156.155 19.7241C156.186 19.6113 156.202 19.487 156.202 19.3518C156.193 18.9638 156.222 18.6141 156.29 18.3028C156.357 17.9916 156.434 17.7569 156.52 17.5989C156.606 17.441 156.703 17.3078 156.811 17.1998C156.919 17.0915 156.996 17.026 157.042 17.0034C157.087 16.9807 157.122 16.9653 157.15 16.956C157.366 16.8839 157.621 16.9537 157.915 17.166C158.208 17.3781 158.483 17.64 158.74 17.9512C158.998 18.2627 159.307 18.6122 159.668 19.0002C160.029 19.3883 160.345 19.6768 160.615 19.8666L160.886 20.0291C161.067 20.1375 161.301 20.2368 161.59 20.327C161.878 20.4172 162.131 20.4397 162.348 20.3946L165.813 20.3406C166.156 20.3406 166.423 20.2838 166.612 20.1712C166.802 20.0584 166.914 19.9342 166.951 19.799C166.987 19.6637 166.989 19.5101 166.957 19.3385C166.925 19.1673 166.894 19.0476 166.862 18.9799Z" fill="#F8006B"/>
</g>
<path d="M110.75 1.00499L108.027 1C104.968 1 102.99 3.31828 102.99 6.90643V9.62969H100.252C100.016 9.62969 99.8242 9.84891 99.8242 10.1193V14.065C99.8242 14.3354 100.016 14.5544 100.252 14.5544H102.99V24.5106C102.99 24.781 103.182 25 103.419 25H106.991C107.228 25 107.419 24.7808 107.419 24.5106V14.5544H110.621C110.857 14.5544 111.049 14.3354 111.049 14.065L111.05 10.1193C111.05 9.98948 111.005 9.86514 110.925 9.77326C110.845 9.68138 110.735 9.62969 110.622 9.62969H107.419V7.32115C107.419 6.21157 107.651 5.64829 108.915 5.64829L110.75 5.64755C110.986 5.64755 111.178 5.42833 111.178 5.15817V1.49437C111.178 1.22446 110.986 1.00549 110.75 1.00499Z" fill="#F8006B"/>
<g clip-path="url(#clip1)">
<path d="M216 4.74844C215.07 5.15625 214.08 5.42656 213.047 5.55781C214.109 4.92344 214.92 3.92656 215.302 2.725C214.311 3.31562 213.217 3.73281 212.052 3.96563C211.111 2.96406 209.77 2.34375 208.308 2.34375C205.47 2.34375 203.186 4.64688 203.186 7.47031C203.186 7.87656 203.22 8.26719 203.305 8.63906C199.044 8.43125 195.273 6.38906 192.741 3.27813C192.298 4.04531 192.039 4.92344 192.039 5.86875C192.039 7.64375 192.953 9.21719 194.316 10.1281C193.492 10.1125 192.684 9.87344 192 9.49688C192 9.5125 192 9.53281 192 9.55312C192 12.0437 193.777 14.1125 196.106 14.5891C195.689 14.7031 195.234 14.7578 194.763 14.7578C194.434 14.7578 194.103 14.7391 193.792 14.6703C194.456 16.7 196.341 18.1922 198.581 18.2406C196.838 19.6047 194.623 20.4266 192.227 20.4266C191.806 20.4266 191.403 20.4078 191 20.3563C193.27 21.8203 195.961 22.6562 198.863 22.6562C208.294 22.6562 213.45 14.8438 213.45 8.07187C213.45 7.84531 213.442 7.62656 213.431 7.40938C214.448 6.6875 215.303 5.78594 216 4.74844Z" fill="#F8006B"/>
</g>
<path d="M16.5 0H7.5C3.3585 0 0 3.49844 0 7.8125V17.1875C0 21.5016 3.3585 25 7.5 25H16.5C20.6415 25 24 21.5016 24 17.1875V7.8125C24 3.49844 20.6415 0 16.5 0ZM21.75 17.1875C21.75 20.2031 19.395 22.6562 16.5 22.6562H7.5C4.605 22.6562 2.25 20.2031 2.25 17.1875V7.8125C2.25 4.79688 4.605 2.34375 7.5 2.34375H16.5C19.395 2.34375 21.75 4.79688 21.75 7.8125V17.1875Z" fill="#F8006B"/>
<path d="M12 6.25C8.6865 6.25 6 9.04844 6 12.5C6 15.9516 8.6865 18.75 12 18.75C15.3135 18.75 18 15.9516 18 12.5C18 9.04844 15.3135 6.25 12 6.25ZM12 16.4062C9.933 16.4062 8.25 14.6531 8.25 12.5C8.25 10.3453 9.933 8.59375 12 8.59375C14.067 8.59375 15.75 10.3453 15.75 12.5C15.75 14.6531 14.067 16.4062 12 16.4062Z" fill="#F8006B"/>
<path d="M18.4518 6.61386C18.8934 6.61386 19.2513 6.241 19.2513 5.78105C19.2513 5.3211 18.8934 4.94824 18.4518 4.94824C18.0103 4.94824 17.6523 5.3211 17.6523 5.78105C17.6523 6.241 18.0103 6.61386 18.4518 6.61386Z" fill="#F8006B"/>
<defs>
<clipPath id="clip0">
<rect width="26" height="26" fill="white" transform="translate(141)"/>
</clipPath>
<clipPath id="clip1">
<rect width="25" height="25" fill="white" transform="translate(191)"/>
</clipPath>
</defs>
</svg>
