<svg width="189" height="30" viewBox="0 0 189 30" fill="none" xmlns="http://www.w3.org/2000/svg">
<g clip-path="url(#clip0)">
<path d="M0 1.04063V28.8363H27.7957V1.04063H0ZM24.2661 25.3802H3.45608V4.49671H24.2661V25.3802ZM17.2804 24.1302L8.01516 14.9385L17.2804 5.67325V10.6L12.9419 14.9385L17.2804 19.2769V24.1302Z" fill="white"/>
<path d="M37.0137 13.877C36.0114 13.877 35.0385 13.7532 34.0952 13.5056C33.1518 13.2579 32.3853 12.9278 31.7957 12.515L32.9454 9.93256C33.4997 10.2981 34.1423 10.5929 34.8735 10.817C35.6046 11.041 36.3239 11.1531 37.0314 11.1531C38.3757 11.1531 39.0479 10.817 39.0479 10.1448C39.0479 9.79106 38.8533 9.5316 38.4642 9.36651C38.0868 9.18963 37.4736 9.00685 36.6246 8.81818C35.693 8.61771 34.9147 8.40545 34.2897 8.1814C33.6648 7.94556 33.1282 7.57411 32.6801 7.06705C32.232 6.55999 32.008 5.87604 32.008 5.01522C32.008 4.26053 32.2143 3.58248 32.6271 2.98108C33.0398 2.36789 33.653 1.88441 34.4666 1.53065C35.2921 1.17689 36.3003 1 37.4913 1C38.305 1 39.1068 1.09434 39.8969 1.28302C40.687 1.4599 41.3827 1.72522 41.9841 2.07898L40.9051 4.67914C39.7259 4.04237 38.5821 3.72398 37.4736 3.72398C36.7779 3.72398 36.2708 3.83011 35.9524 4.04237C35.634 4.24284 35.4749 4.50816 35.4749 4.83834C35.4749 5.16852 35.6635 5.41615 36.0409 5.58124C36.4182 5.74633 37.0255 5.91732 37.8628 6.0942C38.8061 6.29466 39.5844 6.51282 40.1976 6.74866C40.8226 6.97271 41.3591 7.33827 41.8072 7.84533C42.2671 8.3406 42.4971 9.01864 42.4971 9.87946C42.4971 10.6224 42.2907 11.2946 41.878 11.896C41.4652 12.4974 40.8462 12.9808 40.0207 13.3464C39.1953 13.7002 38.1929 13.877 37.0137 13.877ZM49.6044 9.18963V13.6294H46.1021V9.13656L41.3794 1.24764H45.0762L48.0125 6.16495L50.9487 1.24764H54.3448L49.6044 9.18963ZM66.0797 1.24764V13.6294H63.1965L57.7309 7.03167V13.6294H54.2994V1.24764H57.1825L62.6482 7.84533V1.24764H66.0797ZM77.6064 10.9231V13.6294H67.6657V1.24764H77.3765V3.95393H71.1326V6.04113H76.6336V8.65898H71.1326V10.9231H77.6064ZM84.0781 10.3394H82.1678V13.6294H78.6655V1.24764H84.3257C85.446 1.24764 86.4188 1.43631 87.2443 1.81366C88.0697 2.17922 88.7065 2.70986 89.1546 3.4056C89.6027 4.08954 89.8267 4.8973 89.8267 5.82888C89.8267 6.72508 89.6145 7.50925 89.19 8.1814C88.7772 8.84176 88.1817 9.36061 87.4035 9.73796L90.0744 13.6294H86.3245L84.0781 10.3394ZM86.2891 5.82888C86.2891 5.25106 86.1063 4.80296 85.7408 4.48458C85.3752 4.16619 84.8328 4.00699 84.1135 4.00699H82.1678V7.63307H84.1135C84.8328 7.63307 85.3752 7.47977 85.7408 7.17318C86.1063 6.85479 86.2891 6.40669 86.2891 5.82888ZM99.1702 7.17318H102.266V12.3028C101.558 12.8098 100.745 13.199 99.8247 13.4702C98.9049 13.7414 97.9851 13.877 97.0653 13.877C95.7682 13.877 94.6008 13.6058 93.5631 13.0634C92.5254 12.5091 91.7117 11.7427 91.1221 10.7639C90.5325 9.78516 90.2377 8.67667 90.2377 7.4385C90.2377 6.20033 90.5325 5.09187 91.1221 4.11312C91.7117 3.13438 92.5313 2.37379 93.5808 1.83135C94.6303 1.27712 95.8154 1 97.1361 1C98.2917 1 99.3294 1.19457 100.25 1.58371C101.169 1.97285 101.936 2.53298 102.549 3.26409L100.32 5.28054C99.4827 4.36076 98.4804 3.90087 97.313 3.90087C96.2517 3.90087 95.3968 4.22515 94.7482 4.87371C94.0996 5.51049 93.7753 6.36542 93.7753 7.4385C93.7753 8.12244 93.9227 8.73563 94.2175 9.27807C94.5123 9.80876 94.9251 10.2274 95.4557 10.534C95.9864 10.8288 96.5937 10.9762 97.2776 10.9762C97.9498 10.9762 98.5806 10.8406 99.1702 10.5693V7.17318ZM110.235 9.18963V13.6294H106.733V9.13656L102.01 1.24764H105.707L108.643 6.16495L111.579 1.24764H114.975L110.235 9.18963ZM119.245 1.24764H125.1C126.456 1.24764 127.659 1.50117 128.708 2.00823C129.758 2.51529 130.571 3.23461 131.149 4.16619C131.727 5.09776 132.016 6.18854 132.016 7.4385C132.016 8.68846 131.727 9.77926 131.149 10.7109C130.571 11.6424 129.758 12.3617 128.708 12.8688C127.659 13.3759 126.456 13.6294 125.1 13.6294H119.245V1.24764ZM124.958 10.8347C126.02 10.8347 126.869 10.534 127.505 9.93256C128.154 9.33113 128.478 8.49979 128.478 7.4385C128.478 6.37721 128.154 5.54587 127.505 4.94447C126.869 4.34307 126.02 4.04237 124.958 4.04237H122.747V10.8347H124.958ZM132.974 1.24764H136.476V13.6294H132.974V1.24764ZM146.379 7.17318H149.475V12.3028C148.767 12.8098 147.954 13.199 147.034 13.4702C146.114 13.7414 145.194 13.877 144.274 13.877C142.977 13.877 141.81 13.6058 140.772 13.0634C139.734 12.5091 138.921 11.7427 138.331 10.7639C137.742 9.78516 137.447 8.67667 137.447 7.4385C137.447 6.20033 137.742 5.09187 138.331 4.11312C138.921 3.13438 139.74 2.37379 140.79 1.83135C141.839 1.27712 143.024 1 144.345 1C145.501 1 146.538 1.19457 147.458 1.58371C148.378 1.97285 149.145 2.53298 149.758 3.26409L147.529 5.28054C146.692 4.36076 145.689 3.90087 144.522 3.90087C143.461 3.90087 142.606 4.22515 141.957 4.87371C141.309 5.51049 140.984 6.36542 140.984 7.4385C140.984 8.12244 141.132 8.73563 141.427 9.27807C141.721 9.80876 142.134 10.2274 142.665 10.534C143.195 10.8288 143.803 10.9762 144.487 10.9762C145.159 10.9762 145.79 10.8406 146.379 10.5693V7.17318ZM150.811 1.24764H154.313V13.6294H150.811V1.24764ZM158.556 4.02468H154.753V1.24764H165.843V4.02468H162.058V13.6294H158.556V4.02468ZM173.938 11.2238H168.702L167.729 13.6294H164.156L169.622 1.24764H173.071L178.554 13.6294H174.91L173.938 11.2238ZM172.912 8.6413L171.32 4.67914L169.728 8.6413H172.912ZM178.663 1.24764H182.165V10.8524H188.073V13.6294H178.663V1.24764ZM38.9064 28.877C37.5974 28.877 36.4182 28.5999 35.3687 28.0457C34.331 27.4915 33.5115 26.725 32.9101 25.7462C32.3205 24.7675 32.0257 23.6649 32.0257 22.4385C32.0257 21.2122 32.3205 20.1096 32.9101 19.1309C33.5115 18.1521 34.331 17.3856 35.3687 16.8314C36.4182 16.2772 37.5974 16 38.9064 16C40.2153 16 41.3886 16.2772 42.4263 16.8314C43.4758 17.3856 44.2954 18.1521 44.885 19.1309C45.4864 20.1096 45.7871 21.2122 45.7871 22.4385C45.7871 23.6649 45.4864 24.7675 44.885 25.7462C44.2954 26.725 43.4758 27.4915 42.4263 28.0457C41.3886 28.5999 40.2153 28.877 38.9064 28.877ZM38.9064 25.9762C39.5313 25.9762 40.0974 25.8288 40.6044 25.534C41.1115 25.2392 41.5124 24.8264 41.8072 24.2958C42.102 23.7534 42.2494 23.1343 42.2494 22.4385C42.2494 21.7428 42.102 21.1296 41.8072 20.599C41.5124 20.0565 41.1115 19.6379 40.6044 19.3431C40.0974 19.0483 39.5313 18.9009 38.9064 18.9009C38.2814 18.9009 37.7154 19.0483 37.2083 19.3431C36.7012 19.6379 36.3003 20.0565 36.0055 20.599C35.7107 21.1296 35.5633 21.7428 35.5633 22.4385C35.5633 23.1343 35.7107 23.7534 36.0055 24.2958C36.3003 24.8264 36.7012 25.2392 37.2083 25.534C37.7154 25.8288 38.2814 25.9762 38.9064 25.9762ZM58.5173 16.2477V28.6294H55.6341L50.1685 22.0317V28.6294H46.737V16.2477H49.6201L55.0858 22.8454V16.2477H58.5173ZM60.1033 16.2477H63.6055V25.8524H69.5134V28.6294H60.1033V16.2477ZM70.0149 16.2477H73.5171V28.6294H70.0149V16.2477ZM86.9047 16.2477V28.6294H84.0216L78.5559 22.0317V28.6294H75.1244V16.2477H78.0076L83.4732 22.8454V16.2477H86.9047ZM98.4315 25.9231V28.6294H88.4907V16.2477H98.2015V18.954H91.9576V21.0412H97.4586V23.659H91.9576V25.9231H98.4315ZM107.256 18.954V21.6779H112.722V24.3842H107.256V28.6294H103.754V16.2477H113.465V18.954H107.256ZM120.359 28.877C119.05 28.877 117.87 28.5999 116.821 28.0457C115.783 27.4915 114.964 26.725 114.362 25.7462C113.773 24.7675 113.478 23.6649 113.478 22.4385C113.478 21.2122 113.773 20.1096 114.362 19.1309C114.964 18.1521 115.783 17.3856 116.821 16.8314C117.87 16.2772 119.05 16 120.359 16C121.668 16 122.841 16.2772 123.879 16.8314C124.928 17.3856 125.748 18.1521 126.337 19.1309C126.939 20.1096 127.239 21.2122 127.239 22.4385C127.239 23.6649 126.939 24.7675 126.337 25.7462C125.748 26.725 124.928 27.4915 123.879 28.0457C122.841 28.5999 121.668 28.877 120.359 28.877ZM120.359 25.9762C120.984 25.9762 121.55 25.8288 122.057 25.534C122.564 25.2392 122.965 24.8264 123.259 24.2958C123.554 23.7534 123.702 23.1343 123.702 22.4385C123.702 21.7428 123.554 21.1296 123.259 20.599C122.965 20.0565 122.564 19.6379 122.057 19.3431C121.55 19.0483 120.984 18.9009 120.359 18.9009C119.734 18.9009 119.168 19.0483 118.661 19.3431C118.153 19.6379 117.753 20.0565 117.458 20.599C117.163 21.1296 117.016 21.7428 117.016 22.4385C117.016 23.1343 117.163 23.7534 117.458 24.2958C117.753 24.8264 118.153 25.2392 118.661 25.534C119.168 25.8288 119.734 25.9762 120.359 25.9762ZM133.602 25.3394H131.691V28.6294H128.189V16.2477H133.849C134.97 16.2477 135.943 16.4364 136.768 16.8137C137.593 17.1793 138.23 17.7099 138.678 18.4056C139.126 19.0896 139.35 19.8973 139.35 20.8289C139.35 21.7251 139.138 22.5093 138.714 23.1814C138.301 23.8418 137.705 24.3607 136.927 24.738L139.598 28.6294H135.848L133.602 25.3394ZM135.813 20.8289C135.813 20.2511 135.63 19.803 135.264 19.4846C134.899 19.1662 134.356 19.007 133.637 19.007H131.691V22.6331H133.637C134.356 22.6331 134.899 22.4798 135.264 22.1732C135.63 21.8548 135.813 21.4067 135.813 20.8289ZM146.111 28.877C144.272 28.877 142.839 28.3759 141.813 27.3735C140.799 26.3712 140.292 24.9503 140.292 23.1107V16.2477H143.794V23.0046C143.794 24.9856 144.579 25.9762 146.147 25.9762C147.703 25.9762 148.482 24.9856 148.482 23.0046V16.2477H151.931V23.1107C151.931 24.9503 151.418 26.3712 150.392 27.3735C149.378 28.3759 147.951 28.877 146.111 28.877ZM164.598 28.6294L164.563 22.0671L161.379 27.4089H159.822L156.656 22.244V28.6294H153.419V16.2477H156.302L160.654 23.3937L164.899 16.2477H167.782L167.817 28.6294H164.598Z" fill="white"/>
</g>
<defs>
<clipPath id="clip0">
<rect width="188.073" height="29.877" fill="white"/>
</clipPath>
</defs>
</svg>
