<svg width="1140" height="99" viewBox="0 0 1140 99" fill="none" xmlns="http://www.w3.org/2000/svg">
<path d="M159.232 96.6622C149.72 96.6622 141.838 94.6538 135.586 90.6371C129.333 86.6203 124.976 81.1636 122.475 74.3427L142.142 62.8987C145.476 70.8564 151.388 74.8353 159.876 74.8353C166.886 74.8353 170.41 72.8269 170.41 68.8102C170.41 66.1576 168.402 63.9977 164.385 62.4061C162.68 61.724 158.891 60.5493 153.093 58.9199C144.87 56.5325 138.352 53.16 133.578 48.8401C128.765 44.5202 126.378 38.495 126.378 30.8026C126.378 22.5038 129.371 15.7587 135.321 10.643C141.27 5.48945 148.697 2.95056 157.602 2.95056C165.143 2.95056 171.812 4.69368 177.648 8.21781C183.484 11.7419 187.917 16.8197 191.025 23.4891L171.775 34.7814C168.933 28.1121 164.272 24.7775 157.754 24.7775C155.025 24.7775 152.941 25.3459 151.539 26.4448C150.137 27.5437 149.417 28.9837 149.417 30.6889C149.417 32.6594 150.478 34.3267 152.562 35.6909C154.647 37.0551 158.739 38.6466 164.84 40.4276C169.198 41.716 172.722 42.9286 175.375 44.0276C178.027 45.1265 180.945 46.7559 184.09 48.8401C187.235 50.9242 189.623 53.6526 191.138 56.9494C192.692 60.2462 193.45 64.1113 193.45 68.5828C193.45 77.4121 190.305 84.3088 184.09 89.2729C177.762 94.1991 169.501 96.6622 159.232 96.6622Z" fill="white"/>
<path d="M274.429 4.84521L244.114 60.2082V94.7674H221.112V60.4735L190.797 4.84521H216.603L232.518 38.1161L248.585 4.84521H274.429Z" fill="white"/>
<path d="M331.079 4.84521H353.929V94.7674H336.194L304.477 49.56V94.7674H281.476V4.84521H299.362L331.079 50.0526V4.84521Z" fill="white"/>
<path d="M391.178 73.1679H426.002V94.7296H368.214V4.84521H425.358V26.2932H391.178V38.7603H422.137V59.943H391.178V73.1679Z" fill="white"/>
<path d="M483.791 94.7296L468.102 65.7028H459.88V94.7296H436.878V4.84521H472.839C482.01 4.84521 489.702 7.76305 495.879 13.6366C502.093 19.5102 505.201 26.9374 505.201 35.9182C505.201 41.2992 503.836 46.2633 501.108 50.7347C498.38 55.2441 494.628 58.8061 489.929 61.4587L508.422 94.7296H483.791ZM459.917 26.0279V46.1875H472.65C475.492 46.2633 477.803 45.3917 479.584 43.497C481.365 41.6023 482.275 39.1771 482.275 36.1835C482.275 33.1899 481.365 30.7647 479.584 28.87C477.803 26.9753 475.492 26.0279 472.65 26.0279H459.917Z" fill="white"/>
<path d="M604.522 43.2318V52.3642C604.522 65.5513 600.392 76.2374 592.131 84.4225C583.87 92.6076 573.146 96.7001 559.959 96.7001C545.9 96.7001 534.381 92.1907 525.362 83.2099C516.343 74.229 511.796 63.1261 511.796 49.939C511.796 36.7519 516.305 25.6111 525.286 16.5545C534.267 7.45994 545.408 2.95056 558.671 2.95056C567.045 2.95056 574.738 4.84526 581.71 8.59675C588.683 12.3483 594.139 17.3881 598.08 23.6406L578.565 34.8193C576.784 31.9773 574.131 29.7416 570.683 27.9984C567.197 26.2932 563.294 25.4216 558.936 25.4216C551.812 25.4216 546.014 27.7332 541.467 32.3562C536.92 36.9793 534.646 42.8907 534.646 50.0906C534.646 57.0252 536.882 62.8987 541.391 67.6734C545.9 72.4859 552.191 74.8732 560.338 74.8732C570.797 74.8732 577.693 70.9322 581.028 63.0503H559.201V43.2697H604.522V43.2318Z" fill="white"/>
<path d="M684.023 4.84521L653.708 60.2082V94.7674H630.707V60.4735L600.392 4.84521H626.197L642.113 38.1161L658.18 4.84521H684.023Z" fill="white"/>
<path d="M687.246 96.5482C683.456 96.5482 680.273 95.2598 677.658 92.6451C675.044 90.0304 673.755 86.8852 673.755 83.2095C673.755 79.5338 675.082 76.3886 677.734 73.7739C680.387 71.1592 683.57 69.8708 687.246 69.8708C690.921 69.8708 694.067 71.1592 696.681 73.7739C699.296 76.3886 700.584 79.5338 700.584 83.2095C700.584 86.8852 699.296 90.0304 696.681 92.6451C694.067 95.2598 690.921 96.5482 687.246 96.5482Z" fill="#F8006B"/>
<path d="M789.935 82.869C780.916 91.8877 769.889 96.435 756.853 96.435C743.856 96.435 732.829 91.9256 723.772 82.869C714.753 73.8502 710.206 62.8231 710.206 49.7876C710.206 36.7521 714.715 25.7629 723.772 16.7062C732.791 7.68747 743.818 3.1402 756.853 3.1402C769.889 3.1402 780.878 7.64957 789.935 16.7062C798.954 25.725 803.501 36.7521 803.501 49.7876C803.501 62.8231 798.954 73.8123 789.935 82.869ZM734.193 72.8271C740.332 78.9659 747.873 81.9974 756.853 81.9974C765.834 81.9974 773.413 78.928 779.514 72.8271C785.653 66.6883 788.684 59.0337 788.684 49.7876C788.684 40.5415 785.615 32.849 779.514 26.7481C773.375 20.6093 765.834 17.5778 756.853 17.5778C747.873 17.5778 740.294 20.6472 734.193 26.7481C728.054 32.8869 725.023 40.5415 725.023 49.7876C724.985 59.0337 728.054 66.7262 734.193 72.8271Z" fill="white"/>
<path d="M870.914 4.84521H885.693V94.7674H874.135L831.732 33.7583V94.7674H816.953V4.84521H828.511L870.914 65.8544V4.84521Z" fill="white"/>
<path d="M918.436 80.5951H955.041V94.7296H903.657V4.84521H918.436V80.5951Z" fill="white"/>
<path d="M965.953 4.84521H980.732V94.7674H965.953V4.84521Z" fill="white"/>
<path d="M1052.66 4.84521H1067.44V94.7674H1055.88L1013.47 33.7583V94.7674H998.696V4.84521H1010.25L1052.66 65.8544V4.84521Z" fill="white"/>
<path d="M1100.17 80.5951H1140V94.7296H1085.43V4.84521H1139.39V18.9796H1100.21V42.3602H1136.17V56.343H1100.21V80.5951H1100.17Z" fill="white"/>
<path d="M0 0.713989V98.3287H97.6147V0.713989H0ZM15.1197 83.209V15.8337H82.495V83.209H15.1197Z" fill="#F8006B"/>
<path d="M59.0017 80.7842V59.412L49.1114 49.5217L59.0396 39.5556V18.1835L27.7393 49.5217L59.0017 80.7842Z" fill="#F8006B"/>
</svg>
