<svg width="222" height="107" viewBox="0 0 222 107" fill="none" xmlns="http://www.w3.org/2000/svg">
<path d="M15.192 99V82.992H10.032L8.088 89.424L6.24 82.992H0.984V99H5.232V91.296L7.44 99H8.76L11.016 91.296V99H15.192ZM22.2193 99.288C26.2033 99.288 28.0513 95.856 28.0513 91.008C28.0513 86.16 26.2033 82.728 22.2193 82.728C18.2353 82.728 16.3873 86.16 16.3873 91.008C16.3873 95.856 18.2353 99.288 22.2193 99.288ZM22.2193 95.544C21.0913 95.544 20.7073 93.72 20.7073 91.008C20.7073 88.272 21.0913 86.472 22.2193 86.472C23.3473 86.472 23.7313 88.272 23.7313 91.008C23.7313 93.72 23.3473 95.544 22.2193 95.544ZM39.9424 99L37.9024 92.64C38.7184 92.04 39.7984 90.792 39.7984 88.176C39.7984 85.248 37.7104 82.992 34.8064 82.992H29.2384V99H33.4864V93.672H34.0384L35.4064 99H39.9424ZM34.1104 89.976H33.4864V86.688H34.1104C34.9504 86.688 35.5024 87.288 35.5024 88.344C35.5024 89.376 34.9504 89.976 34.1104 89.976ZM49.2967 99V95.304H45.4807V92.736H49.1287V89.04H45.4807V86.688H49.2967V82.992H41.2327V99H49.2967ZM60.2064 99V86.688H62.5104V82.992H53.6304V86.688H55.9584V99H60.2064ZM74.4684 99V82.992H70.2444V88.92H67.9404V82.992H63.6924V99H67.9404V92.616H70.2444V99H74.4684ZM87.0019 99L83.4739 82.992H78.6019L75.0979 99H79.4419L79.7539 96.768H82.3219L82.6579 99H87.0019ZM81.8419 93.072H80.2579L81.0499 87.6L81.8419 93.072ZM98.3869 99V82.992H94.1629V89.232L91.8589 82.992H87.6109V99H91.8589V92.352L94.4509 99H98.3869ZM114.383 99L110.855 82.992H105.983L102.479 99H106.823L107.135 96.768H109.703L110.039 99H114.383ZM109.223 93.072H107.639L108.431 87.6L109.223 93.072Z" fill="#F8006B"/>
<path d="M122.704 99V92.736H126.352V89.04H122.704V86.688H126.52V82.992H118.456V99H122.704ZM133.105 99.288C137.089 99.288 138.937 95.856 138.937 91.008C138.937 86.16 137.089 82.728 133.105 82.728C129.121 82.728 127.273 86.16 127.273 91.008C127.273 95.856 129.121 99.288 133.105 99.288ZM133.105 95.544C131.977 95.544 131.593 93.72 131.593 91.008C131.593 88.272 131.977 86.472 133.105 86.472C134.233 86.472 134.617 88.272 134.617 91.008C134.617 93.72 134.233 95.544 133.105 95.544ZM150.828 99L148.788 92.64C149.604 92.04 150.684 90.792 150.684 88.176C150.684 85.248 148.596 82.992 145.692 82.992H140.124V99H144.372V93.672H144.924L146.292 99H150.828ZM144.996 89.976H144.372V86.688H144.996C145.836 86.688 146.388 87.288 146.388 88.344C146.388 89.376 145.836 89.976 144.996 89.976ZM157.518 99.288C160.158 99.288 162.918 97.656 162.918 93.864V82.992H158.67V94.104C158.67 95.184 158.214 95.592 157.518 95.592C156.798 95.592 156.366 95.184 156.366 94.104V82.992H152.118V93.888C152.118 97.656 154.878 99.288 157.518 99.288ZM178.86 99V82.992H173.7L171.756 89.424L169.908 82.992H164.652V99H168.9V91.296L171.108 99H172.428L174.684 91.296V99H178.86Z" fill="white"/>
<path d="M182.801 38.376V70.001H214.351V38.376H182.801ZM187.688 65.1162V43.2748H209.478V65.1162H187.688Z" fill="#F8006B"/>
<path d="M201.873 64.3301V57.4099L198.68 54.1954L201.887 50.967V44.0468L191.762 54.1954L201.873 64.3301Z" fill="#F8006B"/>
<path d="M14.7514 32.8337C23.2691 32.8337 28.4559 28.789 28.4559 21.794C28.4559 9.99287 10.8018 12.5625 10.8018 9.5646C10.8018 8.75566 11.3252 8.13705 13.2287 8.13705C16.2265 8.13705 19.7954 9.18392 22.5553 11.2777L27.6945 4.473C24.0781 1.52272 19.4147 0.0475845 14.2279 0.0475845C5.51987 0.0475845 1.04687 5.18678 1.04687 10.5639C1.04687 23.0788 18.7485 19.9857 18.7485 23.0312C18.7485 24.2684 17.0355 24.7442 15.2272 24.7442C10.9446 24.7442 7.37569 22.936 4.99643 20.6519L0 27.7897C3.37854 30.8351 7.99429 32.8337 14.7514 32.8337Z" fill="white"/>
<path d="M49.2275 32.2627V19.6526L61.0286 0.523435H50.2268L44.4214 11.2301L38.5209 0.523435H27.7191L39.6153 19.6526V32.2627H49.2275Z" fill="white"/>
<path d="M93.2943 32.2627V0.523435H83.6821V15.5603L72.6423 0.523435H62.7446V32.2627H72.3568V16.1789L84.0628 32.2627H93.2943Z" fill="white"/>
<path d="M122.511 32.2627V23.8877H108.046V20.414H122.178V12.039H108.046V8.89841H122.511V0.523435H98.4334V32.2627H122.511Z" fill="white"/>
<path d="M155.188 32.2627L149.431 21.0326C151.953 19.7954 155.141 16.8927 155.141 11.4204C155.141 5.47229 151.144 0.523435 143.72 0.523435H126.78V32.2627H136.392V22.2698H139.866L144.244 32.2627H155.188ZM142.245 13.8948H136.392V8.89841H142.245C143.863 8.89841 145.386 9.65977 145.386 11.3728C145.386 13.1335 143.863 13.8948 142.245 13.8948Z" fill="white"/>
<path d="M174.781 32.8337C181.014 32.8337 185.773 30.3117 189.294 26.4097V13.419H173.829V21.794H179.73V22.936C178.73 23.6974 176.589 24.3636 174.781 24.3636C170.165 24.3636 167.072 20.8423 167.072 16.4169C167.072 11.9914 170.165 8.47015 174.781 8.47015C177.636 8.47015 179.73 10.4687 180.634 12.4197L188.723 8.27981C186.725 4.18749 182.347 0 174.781 0C165.169 0 157.317 6.23365 157.317 16.4169C157.317 26.5525 165.169 32.8337 174.781 32.8337Z" fill="white"/>
<path d="M210.199 32.2627V19.6526L222 0.523435H211.198L205.393 11.2301L199.492 0.523435H188.69L200.587 19.6526V32.2627H210.199Z" fill="white"/>
<path d="M18.0823 70.5647C27.8849 70.5647 35.4509 63.9028 35.4509 54.1479C35.4509 44.3929 27.8849 37.731 18.0823 37.731C8.2798 37.731 0.713776 44.3929 0.713776 54.1479C0.713776 63.9028 8.2798 70.5647 18.0823 70.5647ZM18.0823 62.0946C13.4666 62.0946 10.4687 58.5733 10.4687 54.1479C10.4687 49.7225 13.4666 46.2012 18.0823 46.2012C22.6981 46.2012 25.6959 49.7225 25.6959 54.1479C25.6959 58.5733 22.6981 62.0946 18.0823 62.0946Z" fill="white"/>
<path d="M69.4088 69.9937V38.2545H59.7966V53.2914L48.7569 38.2545H38.8592V69.9937H48.4713V53.91L60.1773 69.9937H69.4088Z" fill="white"/>
<path d="M96.1992 69.9937V61.6187H84.1602V38.2545H74.548V69.9937H96.1992Z" fill="white"/>
<path d="M109.672 69.9937V38.2545H100.06V69.9937H109.672Z" fill="white"/>
<path d="M145.34 69.9937V38.2545H135.728V53.2914L124.689 38.2545H114.791V69.9937H124.403V53.91L136.109 69.9937H145.34Z" fill="white"/>
<path d="M174.558 69.9937V61.6187H160.092V58.145H174.225V49.7701H160.092V46.6294H174.558V38.2545H150.48V69.9937H174.558Z" fill="white"/>
</svg>
