<svg width="1141" height="99" viewBox="0 0 1141 99" fill="none" xmlns="http://www.w3.org/2000/svg">
<path d="M159.629 96.6623C150.117 96.6623 142.235 94.6539 135.983 90.6372C129.73 86.6204 125.373 81.1637 122.872 74.3428L142.539 62.8988C145.873 70.8566 151.785 74.8354 160.273 74.8354C167.283 74.8354 170.807 72.827 170.807 68.8103C170.807 66.1577 168.799 63.9978 164.782 62.4062C163.077 61.7241 159.288 60.5494 153.49 58.92C145.267 56.5327 138.749 53.1601 133.974 48.8402C129.162 44.5203 126.775 38.4952 126.775 30.8027C126.775 22.5039 129.768 15.7588 135.718 10.6431C141.667 5.48958 149.094 2.95068 157.999 2.95068C165.54 2.95068 172.209 4.6938 178.045 8.21794C183.881 11.7421 188.314 16.8199 191.422 23.4892L172.172 34.7816C169.33 28.1122 164.669 24.7776 158.151 24.7776C155.422 24.7776 153.338 25.346 151.936 26.4449C150.534 27.5438 149.814 28.9838 149.814 30.689C149.814 32.6595 150.875 34.3268 152.959 35.691C155.044 37.0552 159.136 38.6467 165.237 40.4278C169.595 41.7161 173.119 42.9288 175.771 44.0277C178.424 45.1266 181.342 46.756 184.487 48.8402C187.632 50.9244 190.02 53.6527 191.535 56.9495C193.089 60.2463 193.847 64.1115 193.847 68.5829C193.847 77.4122 190.702 84.3089 184.487 89.273C178.159 94.1992 169.898 96.6623 159.629 96.6623Z" fill="white"/>
<path d="M274.826 4.84534L244.511 60.2083V94.7676H221.509V60.4736L191.194 4.84534H217L232.915 38.1162L248.982 4.84534H274.826Z" fill="white"/>
<path d="M331.476 4.84534H354.326V94.7676H336.591L304.874 49.5601V94.7676H281.873V4.84534H299.758L331.476 50.0528V4.84534Z" fill="white"/>
<path d="M391.575 73.1681H426.399V94.7297H368.611V4.84534H425.755V26.2933H391.575V38.7604H422.534V59.9431H391.575V73.1681Z" fill="white"/>
<path d="M484.188 94.7297L468.499 65.703H460.277V94.7297H437.275V4.84534H473.236C482.407 4.84534 490.099 7.76317 496.276 13.6367C502.49 19.5103 505.598 26.9375 505.598 35.9183C505.598 41.2993 504.233 46.2634 501.505 50.7349C498.777 55.2442 495.025 58.8063 490.326 61.4588L508.819 94.7297H484.188ZM460.314 26.028V46.1876H473.047C475.889 46.2634 478.2 45.3918 479.981 43.4971C481.762 41.6024 482.672 39.1772 482.672 36.1836C482.672 33.19 481.762 30.7648 479.981 28.8701C478.2 26.9754 475.889 26.028 473.047 26.028H460.314Z" fill="white"/>
<path d="M604.919 43.2319V52.3643C604.919 65.5514 600.789 76.2375 592.528 84.4226C584.267 92.6077 573.543 96.7002 560.356 96.7002C546.297 96.7002 534.778 92.1908 525.759 83.21C516.74 74.2291 512.193 63.1262 512.193 49.9391C512.193 36.752 516.702 25.6112 525.683 16.5546C534.664 7.46006 545.805 2.95068 559.068 2.95068C567.442 2.95068 575.135 4.84538 582.107 8.59688C589.08 12.3484 594.536 17.3883 598.477 23.6408L578.962 34.8195C577.181 31.9774 574.528 29.7417 571.08 27.9986C567.594 26.2933 563.691 25.4218 559.333 25.4218C552.209 25.4218 546.411 27.7333 541.864 32.3564C537.317 36.9794 535.043 42.8909 535.043 50.0907C535.043 57.0253 537.279 62.8988 541.788 67.6735C546.297 72.486 552.588 74.8733 560.735 74.8733C571.194 74.8733 578.09 70.9324 581.425 63.0504H559.598V43.2698H604.919V43.2319Z" fill="white"/>
<path d="M684.42 4.84534L654.105 60.2083V94.7676H631.104V60.4736L600.789 4.84534H626.594L642.51 38.1162L658.577 4.84534H684.42Z" fill="white"/>
<path d="M687.643 96.5483C683.853 96.5483 680.67 95.2599 678.055 92.6452C675.441 90.0305 674.152 86.8853 674.152 83.2096C674.152 79.5339 675.479 76.3887 678.131 73.774C680.784 71.1594 683.967 69.871 687.643 69.871C691.318 69.871 694.463 71.1594 697.078 73.774C699.693 76.3887 700.981 79.5339 700.981 83.2096C700.981 86.8853 699.693 90.0305 697.078 92.6452C694.463 95.2599 691.318 96.5483 687.643 96.5483Z" fill="#F8006B"/>
<path d="M790.332 82.8691C781.313 91.8878 770.286 96.4351 757.25 96.4351C744.253 96.4351 733.226 91.9257 724.169 82.8691C715.15 73.8503 710.603 62.8232 710.603 49.7877C710.603 36.7522 715.112 25.763 724.169 16.7063C733.188 7.68759 744.215 3.14032 757.25 3.14032C770.286 3.14032 781.275 7.64969 790.332 16.7063C799.351 25.7251 803.898 36.7522 803.898 49.7877C803.898 62.8232 799.351 73.8125 790.332 82.8691ZM734.59 72.8272C740.729 78.966 748.27 81.9975 757.25 81.9975C766.231 81.9975 773.81 78.9281 779.911 72.8272C786.05 66.6884 789.081 59.0338 789.081 49.7877C789.081 40.5416 786.012 32.8491 779.911 26.7482C773.772 20.6094 766.231 17.5779 757.25 17.5779C748.27 17.5779 740.691 20.6473 734.59 26.7482C728.451 32.887 725.42 40.5416 725.42 49.7877C725.382 59.0338 728.451 66.7263 734.59 72.8272Z" fill="white"/>
<path d="M871.311 4.84534H886.09V94.7676H874.532L832.129 33.7584V94.7676H817.35V4.84534H828.908L871.311 65.8545V4.84534Z" fill="white"/>
<path d="M918.833 80.5953H955.438V94.7297H904.054V4.84534H918.833V80.5953Z" fill="white"/>
<path d="M966.35 4.84534H981.129V94.7676H966.35V4.84534Z" fill="white"/>
<path d="M1053.05 4.84534H1067.83V94.7676H1056.27L1013.87 33.7584V94.7676H999.093V4.84534H1010.65L1053.05 65.8545V4.84534Z" fill="white"/>
<path d="M1100.57 80.5953H1140.4V94.7297H1085.83V4.84534H1139.79V18.9798H1100.61V42.3603H1136.57V56.3432H1100.61V80.5953H1100.57Z" fill="white"/>
<path d="M0.397461 0.714111V98.3288H98.0122V0.714111H0.397461ZM15.5171 83.2091V15.8338H82.8925V83.2091H15.5171Z" fill="#F8006B"/>
<path d="M59.3997 80.7843V59.4122L49.5094 49.5219L59.4376 39.5558V18.1836L28.1372 49.5219L59.3997 80.7843Z" fill="#F8006B"/>
</svg>
