<svg width="236" height="28" viewBox="0 0 236 28" fill="none" xmlns="http://www.w3.org/2000/svg">
<g clip-path="url(#clip0)">
<path d="M58.5011 19.5517C58.9263 20.1392 58.8114 24.3894 58.5011 25.2072C56.9843 26.1402 54.4103 27.1538 50.7906 27.1538C41.9539 27.1538 36.4956 21.1758 36.4956 13.8847C36.4956 6.59369 41.9539 0.615723 50.7906 0.615723C54.4103 0.615723 56.9843 1.62933 58.5011 2.56231C58.8114 3.3801 58.9263 7.64185 58.5011 8.21777C55.7777 6.5361 53.3991 5.79893 51.1353 5.79893C46.5848 5.79893 42.8387 8.83975 42.8387 13.8847C42.8387 18.9297 46.5733 21.9706 51.1353 21.9706C53.3991 21.9706 55.7777 21.2219 58.5011 19.5517Z" fill="black"/>
<path d="M86.896 26.5779C85.1034 26.8889 82.4604 26.8889 80.6678 26.5779V11.6963L68.8664 26.5779C67.0738 26.8889 65.7868 26.8889 63.9941 26.5779V1.20322C65.7868 0.892223 68.4297 0.892223 70.2223 1.20322V16.0733L82.0237 1.20322C83.8164 0.892223 85.1034 0.892223 86.896 1.20322V26.5779Z" fill="black"/>
<path d="M108.936 1.20322C110.728 0.892223 113.371 0.892223 115.164 1.20322V26.5779C113.371 26.8889 110.728 26.8889 108.936 26.5779V16.3497H98.4557V26.5779C96.6631 26.8889 94.0202 26.8889 92.2275 26.5779V1.20322C94.0202 0.892223 96.6631 0.892223 98.4557 1.20322V11.155H108.936V1.20322Z" fill="black"/>
<path d="M138.273 21.3831C138.583 23.1799 138.583 24.781 138.273 26.5778H120.634V1.20312H138.273C138.583 2.99997 138.583 4.60101 138.273 6.39786H126.862V11.1549H136.951C137.261 12.9517 137.261 14.5528 136.951 16.3496H126.862V21.3831H138.273Z" fill="black"/>
<path d="M152.522 1.20312C158.164 1.20312 162.059 4.60101 162.059 9.71511C162.059 14.8292 158.164 18.2271 152.522 18.2271H148.821V26.5778C147.029 26.8888 144.386 26.8888 142.593 26.5778V1.20312H152.522ZM152.522 13.0324C154.234 13.0324 155.716 12.0188 155.716 9.71511C155.716 7.41146 154.234 6.39786 152.522 6.39786H148.821V13.0324H152.522Z" fill="black"/>
<path d="M183.214 1.20312C183.525 2.99997 183.525 4.60101 183.214 6.39786H172.78V26.5778C170.988 26.8888 168.345 26.8888 166.552 26.5778V1.20312H183.214Z" fill="black"/>
<path d="M210.207 26.5779C208.414 26.8889 205.771 26.8889 203.979 26.5779V11.6963L192.177 26.5664C190.385 26.8774 189.098 26.8774 187.305 26.5664V1.20322C189.098 0.892223 191.741 0.892223 193.533 1.20322V16.0733L205.335 1.20322C207.127 0.892223 208.414 0.892223 210.207 1.20322V26.5779Z" fill="black"/>
<path d="M235.051 26.5778C233.258 26.8888 230.615 26.8888 228.823 26.5778V17.9852H226.41L220.836 26.5778C219.044 26.8888 215.849 26.8888 214.057 26.5778L220.204 17.0522C217.205 15.7276 215.378 13.0324 215.378 9.59993C215.378 4.60101 219.159 1.20312 224.801 1.20312H235.039V26.5778H235.051ZM224.927 6.39786C223.215 6.39786 221.733 7.41146 221.733 9.59993C221.733 11.7884 223.215 12.802 224.927 12.802H228.823V6.39786H224.927Z" fill="black"/>
</g>
<path d="M0 0V27.7138H27.6486V0H0ZM4.28289 23.4331V4.29299H23.3779V23.4331H4.28289Z" fill="#C83055"/>
<path d="M16.7143 22.7442V16.6799L13.9163 13.863L16.7266 11.0338V4.96948L7.854 13.863L16.7143 22.7442Z" fill="#C83055"/>
<defs>
<clipPath id="clip0">
<rect width="235.051" height="26.538" fill="white" transform="translate(0 0.615723)"/>
</clipPath>
</defs>
</svg>
