<svg xmlns="http://www.w3.org/2000/svg" width="91" height="23" viewBox="0 0 91 23" fill="none">
	<path d="M34.0166 7.36697C34.0166 7.02002 33.8921 6.74967 33.6431 6.55592C33.3986 6.36218 32.9663 6.16167 32.3461 5.9544C31.7259 5.74714 31.2189 5.54663 30.825 5.35288C29.5439 4.72657 28.9033 3.86597 28.9033 2.77106C28.9033 2.22586 29.0617 1.74599 29.3786 1.33146C29.7 0.912423 30.1527 0.588006 30.7367 0.35821C31.3207 0.123909 31.9771 0.00675869 32.706 0.00675869C33.4167 0.00675869 34.0528 0.132921 34.6141 0.385245C35.18 0.637569 35.6191 0.998032 35.9315 1.46663C36.2439 1.93073 36.4001 2.46241 36.4001 3.06168H34.0234C34.0234 2.66067 33.8989 2.34977 33.6499 2.12899C33.4054 1.9082 33.0727 1.79781 32.6517 1.79781C32.2261 1.79781 31.8889 1.89243 31.6399 2.08168C31.3954 2.26641 31.2732 2.50297 31.2732 2.79134C31.2732 3.04366 31.409 3.27346 31.6806 3.48072C31.9522 3.68348 32.4298 3.89526 33.1134 4.11604C33.797 4.33232 34.3584 4.56662 34.7975 4.81894C35.8659 5.43173 36.4001 6.27657 36.4001 7.35345C36.4001 8.21406 36.0741 8.88992 35.4222 9.38105C34.7703 9.87219 33.8762 10.1178 32.7399 10.1178C31.9387 10.1178 31.2121 9.97582 30.5602 9.69196C29.9128 9.40359 29.4239 9.01158 29.0934 8.51594C28.7675 8.0158 28.6045 7.44131 28.6045 6.79248H30.9948C30.9948 7.31966 31.1306 7.70941 31.4022 7.96173C31.6784 8.20955 32.1243 8.33346 32.7399 8.33346C33.1338 8.33346 33.4439 8.2501 33.6703 8.08339C33.9011 7.91217 34.0166 7.67336 34.0166 7.36697Z" fill="black" />
	<path d="M41.2417 4.41342L43.0616 0.141932H45.6352L42.4504 6.44779V9.98258H40.033V6.44779L36.855 0.141932H39.4151L41.2417 4.41342Z" fill="black" />
	<path d="M54.6123 9.98258H52.2424L48.7385 3.85921V9.98258H46.355V0.141932H48.7385L52.2356 6.2653V0.141932H54.6123V9.98258Z" fill="black" />
	<path d="M62.2517 5.81247H58.5033V8.15773H62.9308V9.98258H56.1198V0.141932H62.9444V1.97354H58.5033V4.04845H62.2517V5.81247Z" fill="black" />
	<path d="M67.5755 6.50861H66.2853V9.98258H63.9018V0.141932H67.7928C68.9653 0.141932 69.8821 0.401015 70.543 0.919181C71.2039 1.43735 71.5344 2.16954 71.5344 3.11575C71.5344 3.80063 71.3941 4.36836 71.1134 4.81894C70.8373 5.26952 70.4027 5.63449 69.8096 5.91385L71.874 9.8812V9.98258H69.3207L67.5755 6.50861ZM66.2853 4.67701H67.7928C68.2455 4.67701 68.5851 4.55986 68.8114 4.32556C69.0423 4.08675 69.1577 3.75558 69.1577 3.33203C69.1577 2.90849 69.0423 2.57731 68.8114 2.3385C68.5805 2.09519 68.241 1.97354 67.7928 1.97354H66.2853V4.67701Z" fill="black" />
	<path d="M81.0684 8.76602C80.7017 9.17154 80.1652 9.49821 79.459 9.74603C78.7528 9.99384 77.9787 10.1178 77.1366 10.1178C75.8419 10.1178 74.8075 9.7235 74.0334 8.93498C73.2592 8.14647 72.845 7.04931 72.7907 5.6435L72.7839 4.79191C72.7839 3.82316 72.9559 2.97833 73.3 2.2574C73.644 1.53197 74.1352 0.975504 74.7735 0.588006C75.4164 0.196002 76.1588 0 77.0008 0C78.2322 0 79.1874 0.281612 79.8664 0.844836C80.55 1.40355 80.9484 2.23938 81.0616 3.35231H78.7664C78.6849 2.8026 78.5083 2.4106 78.2367 2.1763C77.9651 1.942 77.5803 1.82485 77.0823 1.82485C76.4847 1.82485 76.023 2.07717 75.697 2.58182C75.3711 3.08647 75.2059 3.80739 75.2013 4.7446V5.33936C75.2013 6.32162 75.3688 7.06057 75.7038 7.55621C76.0434 8.04734 76.5753 8.29291 77.2996 8.29291C77.9198 8.29291 78.3816 8.15548 78.6849 7.88063V6.35316H77.028V4.72432H81.0684V8.76602Z" fill="black" />
	<path d="M86.073 4.41342L87.8929 0.141932H90.4665L87.2817 6.44779V9.98258H84.8643V6.44779L81.6863 0.141932H84.2464L86.073 4.41342Z" fill="black" />
	<path d="M28.9169 22.8648V13.0242H32.4683C33.7404 13.0242 34.7069 13.2562 35.3679 13.7203C36.0334 14.1844 36.3661 14.858 36.3661 15.7412C36.3661 16.2503 36.2484 16.6851 36.013 17.0456C35.7776 17.4061 35.4313 17.6719 34.974 17.8431C35.4901 17.9783 35.8862 18.2306 36.1624 18.6001C36.4385 18.9696 36.5766 19.4201 36.5766 19.9518C36.5766 20.9161 36.2688 21.6415 35.6531 22.1281C35.0419 22.6103 34.1343 22.8558 32.9301 22.8648H28.9169ZM31.3003 18.6812V21.04H32.8622C33.2922 21.04 33.6227 20.9431 33.8536 20.7494C34.0845 20.5511 34.1999 20.274 34.1999 19.918C34.1999 19.098 33.7902 18.6857 32.9708 18.6812H31.3003ZM31.3003 17.1267H32.543C33.0636 17.1222 33.4348 17.0276 33.6567 16.8428C33.8785 16.6581 33.9894 16.3855 33.9894 16.025C33.9894 15.6105 33.8694 15.3131 33.6295 15.1329C33.3896 14.9482 33.0025 14.8558 32.4683 14.8558H31.3003V17.1267Z" fill="black" />
	<path d="M43.5098 21.0265H40.2435L39.6731 22.8648H37.1266L40.7528 13.0242H42.9937L46.647 22.8648H44.087L43.5098 21.0265ZM40.8139 19.1949H42.9394L41.8733 15.7817L40.8139 19.1949Z" fill="black" />
	<path d="M52.4733 20.2492C52.4733 19.9023 52.3488 19.6319 52.0998 19.4382C51.8554 19.2444 51.423 19.0439 50.8028 18.8366C50.1826 18.6294 49.6756 18.4289 49.2818 18.2351C48.0006 17.6088 47.36 16.7482 47.36 15.6533C47.36 15.1081 47.5185 14.6282 47.8354 14.2137C48.1568 13.7947 48.6095 13.4703 49.1935 13.2405C49.7775 13.0062 50.4339 12.889 51.1627 12.889C51.8735 12.889 52.5095 13.0152 53.0709 13.2675C53.6368 13.5198 54.0759 13.8803 54.3883 14.3489C54.7006 14.813 54.8568 15.3447 54.8568 15.9439H52.4801C52.4801 15.5429 52.3556 15.232 52.1066 15.0112C51.8622 14.7905 51.5294 14.6801 51.1084 14.6801C50.6829 14.6801 50.3456 14.7747 50.0966 14.9639C49.8522 15.1487 49.7299 15.3852 49.7299 15.6736C49.7299 15.9259 49.8657 16.1557 50.1374 16.363C50.409 16.5657 50.8866 16.7775 51.5702 16.9983C52.2538 17.2146 52.8151 17.4489 53.2542 17.7012C54.3226 18.314 54.8568 19.1588 54.8568 20.2357C54.8568 21.0963 54.5309 21.7722 53.879 22.2633C53.2271 22.7544 52.333 23 51.1967 23C50.3954 23 49.6688 22.8581 49.0169 22.5742C48.3696 22.2858 47.8806 21.8938 47.5502 21.3982C47.2242 20.8981 47.0612 20.3236 47.0612 19.6747H49.4515C49.4515 20.2019 49.5873 20.5917 49.8589 20.844C50.1351 21.0918 50.581 21.2157 51.1967 21.2157C51.5905 21.2157 51.9006 21.1323 52.127 20.9656C52.3579 20.7944 52.4733 20.5556 52.4733 20.2492Z" fill="black" />
	<path d="M62.211 18.6947H58.4626V21.04H62.89V22.8648H56.0791V13.0242H62.9036V14.8558H58.4626V16.9307H62.211V18.6947Z" fill="black" />
	<path d="M0 0.131592V22.865H22.8406V0.131592H0ZM19.9402 19.9782H2.83997V2.95823H19.9402V19.9782ZM14.1998 19.0159L6.58631 11.4381L14.1998 3.92049V7.94995L10.6348 11.4983L14.1998 15.0466V19.0159Z" fill="#FA8213" />
</svg>