<svg xmlns="http://www.w3.org/2000/svg" width="75" height="23" viewBox="0 0 75 23" fill="none">
	<path d="M30.2467 0.000244141C30.883 0.000244141 31.5192 0.169186 32.0821 0.507069C32.131 0.627741 32.1555 0.893221 32.1555 1.30351C32.1555 1.71379 32.1555 1.95514 32.0821 2.02754C31.2745 1.56899 30.6627 1.32764 30.2467 1.32764C30.002 1.32764 29.8307 1.37591 29.6839 1.49658C29.5371 1.61726 29.4881 1.76206 29.4881 1.95514C29.4881 2.14822 29.5615 2.29302 29.7328 2.38956C29.9041 2.4861 30.2223 2.60677 30.6872 2.75158C30.9319 2.82398 31.1522 2.92052 31.3479 2.99292C31.5437 3.06533 31.7395 3.186 31.9352 3.35494C32.131 3.49975 32.3023 3.71696 32.4246 3.9583C32.547 4.19965 32.5959 4.48926 32.5959 4.80301C32.5959 5.47878 32.3757 5.9856 31.9108 6.34762C31.4458 6.70964 30.8585 6.90271 30.1488 6.90271C29.3902 6.90271 28.7051 6.73377 28.1422 6.39589C28.0933 6.27522 28.0688 6.00974 28.0688 5.59945C28.0688 5.18916 28.0688 4.92368 28.1422 4.85128C28.9498 5.30984 29.586 5.55118 30.0999 5.55118C30.3691 5.55118 30.5893 5.47878 30.7361 5.38224C30.883 5.2857 30.9564 5.11676 30.9564 4.92368C30.9564 4.73061 30.883 4.60993 30.7117 4.5134C30.5404 4.41686 30.2223 4.29619 29.7328 4.12724C29.4881 4.05484 29.2924 3.9583 29.0966 3.8859C28.9008 3.78936 28.7051 3.66869 28.5093 3.52388C28.3135 3.37908 28.1422 3.186 28.0443 2.94465C27.922 2.70331 27.873 2.43783 27.873 2.14822C27.873 1.54485 28.0933 1.03803 28.5093 0.651876C28.9498 0.241589 29.5371 0.0485132 30.2957 0.0485132L30.2467 0.000244141Z" fill="#0062FE" />
	<path d="M37.1481 6.75735C36.6098 6.85389 36.0714 6.85389 35.5086 6.75735V4.48871L33.0859 0.192765C33.3306 0.144496 33.6243 0.120361 33.9669 0.120361C34.3095 0.120361 34.6031 0.144496 34.8478 0.192765L36.3406 2.99237L37.8333 0.192765C38.078 0.144496 38.3717 0.120361 38.7143 0.120361C39.0569 0.120361 39.3505 0.144496 39.5952 0.192765L37.1726 4.48871L37.1481 6.75735Z" fill="#0062FE" />
	<path d="M46.472 6.75756C46.0315 6.82996 45.6155 6.82996 45.1995 6.75756L42.0917 2.89604V6.75756C41.5533 6.8541 41.015 6.8541 40.4521 6.75756V0.168839C40.8926 0.0964355 41.3086 0.0964355 41.7246 0.168839L44.8325 4.03036V0.168839C45.3708 0.072301 45.9092 0.072301 46.472 0.168839V6.75756Z" fill="#0062FE" />
	<path d="M52.6153 5.40638C52.6887 5.8408 52.6887 6.29935 52.6153 6.75791H47.9658V0.169189H52.6153C52.6887 0.627745 52.6887 1.06217 52.6153 1.52072H49.6054V2.75158H52.2727C52.3461 3.21014 52.3461 3.64456 52.2727 4.10311H49.6054V5.40638H52.6153Z" fill="#0062FE" />
	<path d="M56.554 0.193324C57.3126 0.193324 57.8999 0.3864 58.3648 0.796687C58.8298 1.20697 59.0745 1.73793 59.0745 2.36543C59.0745 2.79985 58.9522 3.186 58.7319 3.52389C58.5117 3.86177 58.1936 4.10311 57.802 4.27206L59.4171 6.73377C59.1724 6.78204 58.8787 6.80618 58.5361 6.80618C58.1691 6.80618 57.8754 6.78204 57.6552 6.73377L56.1869 4.5134H55.5507V6.75791C55.0123 6.85445 54.474 6.85445 53.9111 6.75791V0.169189L56.554 0.193324ZM55.5262 3.186H56.554C56.7987 3.186 56.9945 3.1136 57.1658 2.96879C57.3371 2.82399 57.4105 2.63091 57.4105 2.34129C57.4105 2.07582 57.3371 1.8586 57.1658 1.7138C56.9945 1.56899 56.7987 1.49659 56.5785 1.49659H55.5507L55.5262 3.186Z" fill="#0062FE" />
	<path d="M64.3843 3.52364C64.9226 3.4271 65.461 3.4271 65.9994 3.52364V6.37151C65.7791 6.49218 65.461 6.61285 65.045 6.73353C64.629 6.83006 64.1885 6.87833 63.748 6.87833C62.5979 6.87833 61.6925 6.54045 61.0073 5.88882C60.3221 5.23719 59.9795 4.41661 59.9795 3.45123C59.9795 2.48585 60.3221 1.66528 61.0073 1.01365C61.6925 0.362018 62.6224 0 63.7725 0C64.58 0 65.2407 0.168942 65.8036 0.506825C65.8525 0.627497 65.877 0.868842 65.877 1.25499C65.877 1.64115 65.877 1.88249 65.8036 1.9549C65.1184 1.54461 64.4577 1.3274 63.8704 1.3274C63.2341 1.3274 62.7202 1.52047 62.3042 1.90663C61.8882 2.29278 61.668 2.7996 61.668 3.4271C61.668 4.07873 61.8638 4.58556 62.3042 4.97171C62.7202 5.35786 63.2586 5.55094 63.8704 5.55094C64.0172 5.55094 64.213 5.5268 64.4087 5.50267L64.3843 3.52364Z" fill="#0062FE" />
	<path d="M70.7956 6.75735C70.2572 6.85389 69.7189 6.85389 69.156 6.75735V4.48871L66.7334 0.192765C66.9781 0.144496 67.2718 0.120361 67.6144 0.120361C67.9569 0.120361 68.2506 0.144496 68.4953 0.192765L69.988 2.99237L71.4808 0.192765C71.7255 0.144496 72.0191 0.120361 72.3617 0.120361C72.7043 0.120361 72.998 0.144496 73.2427 0.192765L70.82 4.48871L70.7956 6.75735Z" fill="#0062FE" />
	<path d="M35.2644 20.1279C36.5613 20.1279 37.9317 19.6693 39.3999 18.7763C39.4978 18.9453 39.5468 19.4521 39.5223 20.2968C39.4978 21.1415 39.4489 21.6725 39.3755 21.9138C38.2009 22.6379 36.7571 22.9999 35.0441 22.9999C32.6215 22.9999 30.6638 22.2758 29.1956 20.876C27.7273 19.4762 26.9932 17.7144 26.9932 15.6389C26.9932 13.5633 27.7273 11.8256 29.1956 10.4017C30.6638 9.00187 32.6215 8.27783 35.0441 8.27783C36.7571 8.27783 38.2009 8.63985 39.3755 9.36388C39.4734 9.60523 39.4978 10.1362 39.5223 10.9809C39.5468 11.8256 39.4978 12.3324 39.3999 12.5014C37.9317 11.6084 36.5613 11.1498 35.2644 11.1498C33.9184 11.1498 32.8173 11.5601 31.9118 12.3807C31.0064 13.2013 30.5904 14.3356 30.5904 15.6871C30.5904 17.0387 31.0309 18.1247 31.9363 18.9453C32.8417 19.7659 33.9429 20.1761 35.2888 20.1761L35.2644 20.1279Z" fill="#0062FE" />
	<path d="M47.9663 8.71237C49.5569 8.71237 50.8539 9.14679 51.8327 10.0156C52.8116 10.8845 53.3255 11.9947 53.3255 13.3945C53.3255 14.3357 53.0808 15.1563 52.5913 15.8562C52.1019 16.5802 51.4412 17.1112 50.6092 17.4732L54.0841 22.7345C53.5702 22.8311 52.9339 22.8552 52.1753 22.8552C51.4167 22.8552 50.7805 22.8069 50.2666 22.7345L47.1343 17.98H45.7639V22.7345C44.6138 22.9276 43.4392 22.9276 42.2891 22.7345V8.68823L47.9663 8.71237ZM45.7639 15.1321H47.9663C48.4802 15.1321 48.9207 14.9873 49.2633 14.6736C49.6059 14.3598 49.7772 13.9496 49.7772 13.3462C49.7772 12.7428 49.6059 12.3325 49.2633 12.0188C48.9207 11.705 48.5047 11.5602 47.9908 11.5602H45.7884L45.7639 15.1321Z" fill="#0062FE" />
	<path d="M74.3703 22.7348C73.2201 22.9278 72.0945 22.9278 70.9443 22.7348L69.1824 14.8428L66.2949 22.7348C65.365 22.8796 64.4106 22.8796 63.4807 22.7348L60.5931 14.8428L58.8312 22.7348C57.6811 22.9278 56.5554 22.9278 55.4053 22.7348L58.7823 8.68847C59.7611 8.51953 60.7644 8.51953 61.7433 8.68847L64.9 17.2804L68.0568 8.68847C69.0356 8.51953 70.0389 8.51953 71.0178 8.68847L74.3703 22.7348Z" fill="#0062FE" />
	<path d="M0 0.0964355V22.7346H22.9538V0.0964355H0ZM20.0907 19.9109H2.8631V2.92017H20.0907V19.9109ZM14.2666 18.9213L6.63163 11.4155L14.2666 3.88555V7.89188L10.6938 11.4155L14.2666 14.9392V18.9213Z" fill="#0CB0FF" />
</svg>