<svg width="53" height="53" viewBox="0 0 53 53" fill="none" xmlns="http://www.w3.org/2000/svg">
<path d="M26.1092 0.781738C11.7126 0.781738 0 12.4943 0 26.8909C0 41.2875 11.7126 53.0001 26.1092 53.0001C40.5058 53.0001 52.2184 41.2875 52.2184 26.8909C52.2184 12.4943 40.5058 0.781738 26.1092 0.781738ZM26.1092 47.7783C14.5924 47.7783 5.22184 38.4077 5.22184 26.8909C5.22184 15.3742 14.5924 6.00357 26.1092 6.00357C37.6259 6.00357 46.9965 15.3742 46.9965 26.8909C46.9965 38.4077 37.6259 47.7783 26.1092 47.7783Z" fill="#003ADC"/>
<path d="M28.7204 13.8364H23.4985V29.5019H39.164V24.2801H28.7204V13.8364Z" fill="#003ADC"/>
</svg>
