<svg width="77" height="76" viewBox="0 0 77 76" fill="none" xmlns="http://www.w3.org/2000/svg">
<path d="M52.8994 18.1911H73.4386V48.1572H64.8054H3.78602V43.4158V22.4204V18.1911H52.8994Z" stroke="#5503E5" stroke-width="1.78298" stroke-linecap="round" stroke-linejoin="bevel"/>
<path d="M31.8656 58.5735H8.24348C5.28934 58.5735 2.89453 56.1787 2.89453 53.2245V49.8425V17.2996V14.7113C2.89453 11.7571 5.28934 9.3623 8.24348 9.3623H68.9812C71.9353 9.3623 74.3301 11.7571 74.3301 14.7113V53.2245C74.3301 56.1787 71.9353 58.5735 68.9812 58.5735H45.359" stroke="#5503E5" stroke-width="4.45746" stroke-linecap="round"/>
<path d="M38.475 14.688L57.5222 22.927C58.2368 23.2361 58.2396 24.2484 57.5267 24.5615L38.4796 32.9254C38.2473 33.0274 37.9826 33.0256 37.7517 32.9204L19.3869 24.5565C18.6887 24.2385 18.6915 23.2458 19.3915 22.9318L37.7561 14.6929C37.9844 14.5905 38.2453 14.5887 38.475 14.688Z" fill="#F8006B" stroke="#F0F0F0" stroke-width="1.78298"/>
<path d="M37.8324 34.4216L38.2153 34.6037L38.5982 34.4216L48.0392 29.9314L48.0392 37.3234C48.0392 38.3291 47.2229 39.4675 45.3861 40.4076C43.5969 41.3233 41.063 41.9159 38.2153 41.9159C35.3677 41.9159 32.8338 41.3233 31.0446 40.4076C29.2078 39.4675 28.3915 38.3291 28.3915 37.3234L28.3915 29.9314L37.8324 34.4216Z" fill="#F8006B" stroke="#F8006B" stroke-width="1.78298"/>
<path d="M53.6934 26.9326V40.3176" stroke="#F8006B" stroke-width="1.78298"/>
<path d="M50.5186 50.9879L52.3132 43.4927C52.7658 43.9364 52.8416 44.1741 54.1078 44.5634C54.1078 46.8239 54.1796 51.4876 54.4667 52.0586C54.7538 52.6297 51.9542 51.5827 50.5186 50.9879Z" fill="#F0F0F0" stroke="#F8006B" stroke-width="1.78298"/>
<path d="M56.8679 48.822L54.4867 49.8425L54.0898 44.2864L55.167 42.699L56.8679 48.822Z" fill="#F0F0F0" stroke="#F8006B" stroke-width="1.78298"/>
<path d="M32.5446 58.5735L29.8809 64.9233M44.3832 58.5735L47.3429 64.9233" stroke="#5503E5" stroke-width="4.45746" stroke-linecap="round"/>
<path d="M29.8811 64.9233H25.3142C24.3295 64.9233 23.5312 65.7216 23.5312 66.7063V71.8714C23.5312 72.8561 24.3295 73.6544 25.3142 73.6544H51.91C52.8947 73.6544 53.6929 72.8561 53.6929 71.8714V66.7063C53.6929 65.7216 52.8947 64.9233 51.91 64.9233L47.74 64.9233" stroke="#5503E5" stroke-width="4.45746" stroke-linecap="round"/>
<circle cx="38.1086" cy="52.7837" r="1.33724" stroke="#5503E5" stroke-width="1.78298"/>
<circle cx="53.6927" cy="41.9054" r="1.48969" fill="#F0F0F0" stroke="#F8006B" stroke-width="1.78298"/>
<path d="M32.2627 57.78H44.5655" stroke="#5503E5" stroke-width="1.78298"/>
<path d="M29.8809 65.717H47.3429" stroke="#5503E5" stroke-width="1.78298"/>
</svg>
