<svg width="56" height="72" viewBox="0 0 56 72" fill="none" xmlns="http://www.w3.org/2000/svg">
<rect x="2.78244" y="3.12863" width="38.3341" height="65.9703" rx="4.9032" stroke="#5503E5" stroke-width="4.45746"/>
<path d="M40.6709 53.4981H50.4773C51.9544 53.4981 53.1518 52.3007 53.1518 50.8236V23.1874C53.1518 21.7103 51.9544 20.5129 50.4773 20.5129H40.6709" stroke="#5503E5" stroke-width="4.45746"/>
<rect x="9.02278" y="12.9351" width="25.8532" height="44.5746" stroke="#5503E5" stroke-width="2.67447"/>
<rect x="20.166" y="23.1873" width="31.2022" height="9.8064" rx="0.891491" fill="#F8006B" stroke="#F0F0F0" stroke-width="1.78298"/>
<rect x="20.166" y="32.9937" width="31.2022" height="9.8064" rx="0.891491" fill="#F8006B" stroke="#F0F0F0" stroke-width="1.78298"/>
<rect x="20.166" y="42.8" width="31.2022" height="9.8064" rx="0.891491" fill="#F8006B" stroke="#F0F0F0" stroke-width="1.78298"/>
<rect x="7.68555" y="16.0554" width="28.5277" height="1.78298" fill="#5503E5"/>
<rect x="12.1426" y="14.2725" width="1.78298" height="1.78298" fill="#5503E5"/>
<rect x="24.624" y="26.7534" width="10.6979" height="1.78298" fill="#F0F0F0"/>
<rect x="24.624" y="36.5598" width="10.6979" height="1.78298" fill="#F0F0F0"/>
<rect x="24.624" y="46.3662" width="10.6979" height="1.78298" fill="#F0F0F0"/>
<rect x="37.9961" y="26.7534" width="4.45746" height="1.78298" fill="#F0F0F0"/>
<rect x="37.9961" y="36.5598" width="4.45746" height="1.78298" fill="#F0F0F0"/>
<rect x="37.9961" y="46.3662" width="4.45746" height="1.78298" fill="#F0F0F0"/>
<rect x="44.2363" y="26.7534" width="2.67447" height="1.78298" fill="#F0F0F0"/>
<rect x="44.2363" y="36.5598" width="2.67447" height="1.78298" fill="#F0F0F0"/>
<rect x="44.2363" y="46.3662" width="2.67447" height="1.78298" fill="#F0F0F0"/>
<rect x="18.3828" y="7.14062" width="7.13193" height="1.78298" fill="#5503E5"/>
<circle cx="21.9489" cy="63.3044" r="1.78298" stroke="#5503E5" stroke-width="1.78298"/>
</svg>
