<svg width="619" height="54" viewBox="0 0 619 54" fill="none" xmlns="http://www.w3.org/2000/svg">
<path d="M86.6001 52.7248C81.4398 52.7248 77.1637 51.6293 73.772 49.4384C70.3797 47.2474 68.016 44.271 66.6592 40.5505L77.3287 34.3083C79.1374 38.649 82.3447 40.8192 86.9495 40.8192C90.7524 40.8192 92.6642 39.7237 92.6642 37.5328C92.6642 36.0859 91.5749 34.9078 89.3956 34.0397C88.4707 33.6676 86.4151 33.0269 83.2696 32.1381C78.8086 30.8359 75.2726 28.9963 72.6821 26.64C70.0715 24.2837 68.7766 20.9973 68.7766 16.8014C68.7766 12.2748 70.4003 8.59562 73.6282 5.80524C76.8556 2.99423 80.8848 1.60938 85.7158 1.60938C89.8068 1.60938 93.4248 2.56017 96.5909 4.48243C99.757 6.4047 102.162 9.1744 103.848 12.8122L93.4048 18.9717C91.8629 15.3338 89.3343 13.515 85.7983 13.515C84.3178 13.515 83.1872 13.825 82.4266 14.4244C81.666 15.0238 81.2754 15.8093 81.2754 16.7394C81.2754 17.8142 81.851 18.7236 82.9816 19.4677C84.1127 20.2118 86.3326 21.0799 89.6425 22.0514C92.0067 22.7541 93.9185 23.4156 95.3572 24.015C96.7965 24.6144 98.3795 25.5032 100.086 26.64C101.792 27.7769 103.087 29.265 103.909 31.0633C104.752 32.8615 105.164 34.9698 105.164 37.4088C105.164 42.2247 103.457 45.9866 100.086 48.6943C96.6527 51.3813 92.1711 52.7248 86.6001 52.7248Z" fill="#141825"/>
<path d="M149.095 2.64282L132.649 32.8408V51.6913H120.17V32.9855L103.724 2.64282H117.724L126.358 20.7906L135.075 2.64282H149.095Z" fill="#141825"/>
<path d="M179.828 2.64282H192.224V51.6913H182.603L165.396 27.0327V51.6913H152.918V2.64282H162.621L179.828 27.3014V2.64282Z" fill="#141825"/>
<path d="M212.432 39.9098H231.324V51.6707H199.974V2.64282H230.975V14.3417H212.432V21.1419H229.228V32.6961H212.432V39.9098Z" fill="#141825"/>
<path d="M262.675 51.6707L254.164 35.8379H249.703V51.6707H237.225V2.64282H256.734C261.709 2.64282 265.882 4.23437 269.233 7.43811C272.604 10.6419 274.29 14.6931 274.29 19.5917C274.29 22.5268 273.55 25.2345 272.07 27.6735C270.59 30.1331 268.554 32.0761 266.005 33.5229L276.038 51.6707H262.675ZM249.723 14.197V25.1931H256.631C258.173 25.2345 259.427 24.7591 260.393 23.7256C261.359 22.6921 261.853 21.3693 261.853 19.7364C261.853 18.1035 261.359 16.7807 260.393 15.7472C259.427 14.7138 258.173 14.197 256.631 14.197H249.723Z" fill="#141825"/>
<path d="M328.173 23.5809V28.5623C328.173 35.7552 325.932 41.584 321.451 46.0486C316.969 50.5132 311.151 52.7455 303.997 52.7455C296.37 52.7455 290.121 50.2858 285.228 45.3872C280.335 40.4885 277.868 34.4324 277.868 27.2394C277.868 20.0465 280.314 13.9697 285.187 9.0297C290.059 4.06904 296.103 1.60938 303.298 1.60938C307.841 1.60938 312.015 2.64285 315.797 4.68912C319.58 6.7354 322.54 9.48444 324.678 12.8949L314.091 18.9924C313.125 17.4421 311.685 16.2227 309.815 15.2719C307.924 14.3417 305.806 13.8664 303.442 13.8664C299.577 13.8664 296.432 15.1272 293.965 17.6489C291.498 20.1705 290.265 23.3949 290.265 27.3221C290.265 31.1046 291.478 34.3083 293.924 36.9127C296.37 39.5377 299.783 40.8399 304.203 40.8399C309.877 40.8399 313.618 38.6903 315.427 34.391H303.586V23.6016H328.173V23.5809Z" fill="#141825"/>
<path d="M371.303 2.64282L354.856 32.8408V51.6913H342.378V32.9855L325.932 2.64282H339.932L348.566 20.7906L357.283 2.64282H371.303Z" fill="#141825"/>
<path d="M428.76 45.2012C423.868 50.1205 417.885 52.6009 410.813 52.6009C403.762 52.6009 397.78 50.1412 392.867 45.2012C387.974 40.2819 385.507 34.2671 385.507 27.1568C385.507 20.0466 387.953 14.0525 392.867 9.11244C397.759 4.19315 403.742 1.71282 410.813 1.71282C417.885 1.71282 423.847 4.17247 428.76 9.11244C433.653 14.0318 436.12 20.0466 436.12 27.1568C436.12 34.2671 433.653 40.2613 428.76 45.2012ZM398.52 39.7238C401.85 43.0723 405.941 44.7258 410.813 44.7258C415.685 44.7258 419.797 43.0516 423.107 39.7238C426.437 36.3754 428.082 32.2002 428.082 27.1568C428.082 22.1135 426.417 17.9176 423.107 14.5898C419.776 11.2414 415.685 9.58786 410.813 9.58786C405.941 9.58786 401.83 11.2621 398.52 14.5898C395.19 17.9383 393.545 22.1135 393.545 27.1568C393.525 32.2002 395.19 36.3961 398.52 39.7238Z" fill="#141825"/>
<path d="M472.692 2.64282H480.71V51.6913H474.44L451.436 18.4136V51.6913H443.418V2.64282H449.688L472.692 35.9206V2.64282Z" fill="#141825"/>
<path d="M498.473 43.961H518.332V51.6707H490.456V2.64282H498.473V43.961Z" fill="#141825"/>
<path d="M524.252 2.64282H532.269V51.6913H524.252V2.64282Z" fill="#141825"/>
<path d="M571.287 2.64282H579.305V51.6913H573.034L550.032 18.4136V51.6913H542.015V2.64282H548.285L571.287 35.9206V2.64282Z" fill="#141825"/>
<path d="M597.067 43.961H618.675V51.6707H589.07V2.64282H618.344V10.3525H597.088V23.1055H616.597V30.7326H597.088V43.961H597.067Z" fill="#141825"/>
<path d="M373.051 52.6626C370.995 52.6626 369.268 51.9598 367.849 50.5336C366.431 49.1074 365.732 47.3919 365.732 45.387C365.732 43.382 366.452 41.6665 367.891 40.2403C369.33 38.8141 371.057 38.1114 373.051 38.1114C375.045 38.1114 376.751 38.8141 378.169 40.2403C379.588 41.6665 380.287 43.382 380.287 45.387C380.287 47.3919 379.588 49.1074 378.169 50.5336C376.751 51.9598 375.045 52.6626 373.051 52.6626Z" fill="#F8006B"/>
<path d="M0.21582 0.389404V53.6338H53.1725V0.389404H0.21582ZM8.41832 45.3867V8.63651H44.9699V45.3867H8.41832Z" fill="#F8006B"/>
<path d="M32.225 44.0641V32.4065L26.8595 27.0118L32.2456 21.5758V9.91822L15.2649 27.0118L32.225 44.0641Z" fill="#F8006B"/>
</svg>
