<svg width="141" height="32" viewBox="0 0 141 32" fill="none" xmlns="http://www.w3.org/2000/svg">
<path d="M42.0514 13.8722C44.7034 13.8722 47.4667 12.3514 47.4667 9.18011C47.4667 6.47244 44.9259 5.63788 43.0343 5.02588C42.1255 4.72915 41.7361 4.59933 41.7361 4.20987C41.7361 3.78332 42.1626 3.6164 42.8117 3.6164C43.4979 3.6164 44.4808 4.00586 45.0743 4.74769L47.8191 1.9473C46.4652 0.704735 44.5365 0 42.8117 0C40.2339 0 37.3037 1.24256 37.3037 4.5066C37.3037 6.80626 38.9171 7.75209 40.6975 8.34555C42.5521 8.95756 43.0157 9.14301 43.0157 9.6252C43.0157 10.0888 42.5335 10.2372 42.0328 10.2372C40.9572 10.2372 39.8259 9.6252 39.2139 8.95756L36.5247 11.8878C37.86 13.0747 39.9372 13.8722 42.0514 13.8722Z" fill="black"/>
<path d="M56.674 8.123L61.8854 0.370914H56.6926L54.7082 4.22841L52.6311 0.370914H47.3085L52.2602 8.123V13.5012H56.674V8.123Z" fill="black"/>
<path d="M62.6695 13.5012H66.8608L66.6754 7.23281H66.7495L70.3845 13.5012H74.8911V0.370914H70.6998L70.8852 7.02881H70.811L67.0648 0.370914H62.6695V13.5012Z" fill="black"/>
<path d="M77.3394 13.5012H86.6864V9.8292H81.4936V8.60519H86.0744V5.17424H81.4936V4.04295H86.3711V0.370914H77.3394V13.5012Z" fill="black"/>
<path d="M88.5139 13.5012H92.7794V8.80919H92.9092L95.4314 13.5012H100.513L97.1747 8.17864C98.6398 7.511 99.4744 6.23134 99.4744 4.63642C99.4744 1.2982 96.7667 0.370914 94.1703 0.370914H88.5139V13.5012ZM92.7423 3.80186H93.7994C94.3558 3.80186 95.1532 3.89459 95.1532 4.82187C95.1532 5.7677 94.226 5.91607 93.6139 5.91607H92.7423V3.80186Z" fill="black"/>
<path d="M108.429 13.8351C110.395 13.8351 112.454 13.2787 113.678 12.5554V5.37824H107.651V8.84628H109.765V9.84775C109.542 9.95902 109.097 10.0332 108.726 10.0332C106.631 10.0332 105.722 8.7721 105.722 6.93608C105.722 5.1186 107.094 3.91314 108.541 3.91314C109.616 3.91314 110.34 4.32114 110.877 4.97024L113.455 1.87311C112.306 0.723282 110.321 0 108.281 0C104.331 0 101.16 2.72621 101.16 6.93608C101.16 11.1459 104.294 13.8351 108.429 13.8351Z" fill="black"/>
<path d="M122.689 8.123L127.9 0.370914H122.707L120.723 4.22841L118.646 0.370914H113.323L118.275 8.123V13.5012H122.689V8.123Z" fill="black"/>
<path d="M45.5117 31.5012H49.9256V18.3709H45.4932V22.8219H41.8953V18.3709H37.5V31.5012H41.9139V26.5125H45.5117V31.5012Z" fill="black"/>
<path d="M52.3691 31.5012H56.6346V26.8092H56.7645L59.2867 31.5012H64.3682L61.03 26.1786C62.4951 25.511 63.3296 24.2313 63.3296 22.6364C63.3296 19.2982 60.622 18.3709 58.0256 18.3709H52.3691V31.5012ZM56.5975 21.8019H57.6546C58.211 21.8019 59.0085 21.8946 59.0085 22.8219C59.0085 23.7677 58.0812 23.9161 57.4692 23.9161H56.5975V21.8019Z" fill="black"/>
<path d="M74.5658 22.0615H79.1095V18.3709H70.2447V31.5012H74.5844V27.0503H78.5717V23.4524H74.5658V22.0615Z" fill="black"/>
<path d="M80.4273 24.8619C80.4273 29.0718 83.5615 31.8722 87.7157 31.8722C91.8699 31.8722 95.0227 29.0718 95.0227 24.8619C95.0227 20.652 91.8699 18 87.7157 18C83.5615 18 80.4273 20.652 80.4273 24.8619ZM85.1193 24.8619C85.1193 23.1557 86.2135 22.043 87.7157 22.043C89.1994 22.043 90.3121 23.1557 90.3121 24.8619C90.3121 26.5681 89.1994 27.7921 87.7157 27.7921C86.2135 27.7921 85.1193 26.5681 85.1193 24.8619Z" fill="black"/>
<path d="M96.886 31.5012H101.151V26.8092H101.281L103.803 31.5012H108.885L105.547 26.1786C107.012 25.511 107.846 24.2313 107.846 22.6364C107.846 19.2982 105.139 18.3709 102.542 18.3709H96.886V31.5012ZM101.114 21.8019H102.171C102.728 21.8019 103.525 21.8946 103.525 22.8219C103.525 23.7677 102.598 23.9161 101.986 23.9161H101.114V21.8019Z" fill="black"/>
<path d="M116.023 31.8722C120.121 31.8722 122.235 29.4612 122.235 26.3456V18.3709H117.84V25.8634C117.84 27.1059 117.21 27.8663 116.097 27.8663C114.984 27.8663 114.354 27.1059 114.354 25.8634V18.3709H109.94V26.3456C109.94 29.4612 111.924 31.8722 116.023 31.8722Z" fill="black"/>
<path d="M128.511 24.083L130.922 31.5012H134.038L136.486 24.1015L136.597 24.1201L136.467 31.5012H140.751V18.3709H134.798L132.74 25.4368H132.647L130.273 18.3709H124.505V31.5012H128.622L128.418 24.083H128.511Z" fill="black"/>
<path d="M0 0.300888V31.7577H31.4568V0.300888H0ZM27.4622 27.8464H3.91129V4.21218H27.4622V27.8464ZM19.5565 26.4316L9.07086 16.0293L19.5565 5.54368V11.1194L14.6465 16.0293L19.5565 20.9392V26.4316Z" fill="black"/>
</svg>
