<svg width="13" height="12" viewBox="0 0 13 12" fill="none" xmlns="http://www.w3.org/2000/svg">
<path fill-rule="evenodd" clip-rule="evenodd" d="M8.65807 0.619414C7.8569 0.222872 6.95448 0 6 0C4.87668 0 3.82546 0.308696 2.92655 0.845884L4.4094 2.32874C4.89689 2.11724 5.43475 2 6 2C6.38838 2 6.76382 2.05535 7.11889 2.15859L8.65807 0.619414ZM2.17131 7.16171C2.66905 8.8043 4.19489 10 6 10C8.0861 10 9.79922 8.40306 9.98357 6.36497L11.8186 4.52995C11.9371 5.00035 12 5.49282 12 6C12 9.31371 9.31371 12 6 12C2.68629 12 0 9.31371 0 6C0 5.68129 0.024849 5.36839 0.0727152 5.06312L2.17131 7.16171Z" fill="#B6B6B6"/>
<path d="M2.51855 3.97296L5.67902 7.13343L11.9999 0.8125" stroke="black" stroke-width="2"/>
</svg>
