<svg width="559" height="67" viewBox="0 0 559 67" fill="none" xmlns="http://www.w3.org/2000/svg">
<path d="M138.979 47.0902C139.988 48.4943 139.715 58.6528 138.979 60.6074C135.377 62.8374 129.264 65.26 120.668 65.26C99.6839 65.26 86.7222 50.972 86.7222 33.5455C86.7222 16.1191 99.6839 1.83105 120.668 1.83105C129.264 1.83105 135.377 4.25369 138.979 6.48361C139.715 8.43824 139.988 18.6243 138.979 20.0008C132.511 15.9814 126.863 14.2195 121.487 14.2195C110.681 14.2195 101.785 21.4874 101.785 33.5455C101.785 45.6036 110.654 52.8715 121.487 52.8715C126.863 52.8715 132.511 51.0821 138.979 47.0902Z" fill="white"/>
<path d="M206.407 63.8835C202.15 64.6268 195.874 64.6268 191.617 63.8835V28.3149L163.592 63.8835C159.335 64.6268 156.279 64.6268 152.022 63.8835V3.23509C156.279 2.49179 162.555 2.49179 166.812 3.23509V38.7762L194.837 3.23509C199.094 2.49179 202.15 2.49179 206.407 3.23509V63.8835Z" fill="white"/>
<path d="M258.745 3.23509C263.002 2.49179 269.278 2.49179 273.535 3.23509V63.8835C269.278 64.6268 263.002 64.6268 258.745 63.8835V39.437H233.859V63.8835C229.602 64.6268 223.326 64.6268 219.069 63.8835V3.23509C223.326 2.49179 229.602 2.49179 233.859 3.23509V27.021H258.745V3.23509Z" fill="white"/>
<path d="M328.411 51.4675C329.148 55.7622 329.148 59.5889 328.411 63.8835H286.524V3.23511H328.411C329.148 7.52978 329.148 11.3564 328.411 15.6511H301.314V27.021H325.273C326.01 31.3156 326.01 35.1423 325.273 39.437H301.314V51.4675H328.411Z" fill="white"/>
<path d="M362.248 3.23511C375.647 3.23511 384.897 11.3564 384.897 23.5797C384.897 35.803 375.647 43.9243 362.248 43.9243H353.462V63.8835C349.205 64.6268 342.929 64.6268 338.672 63.8835V3.23511H362.248ZM362.248 31.5083C366.314 31.5083 369.834 29.0857 369.834 23.5797C369.834 18.0737 366.314 15.6511 362.248 15.6511H353.462V31.5083H362.248Z" fill="white"/>
<path d="M435.135 3.23511C435.871 7.52978 435.871 11.3564 435.135 15.6511H410.357V63.8835C406.1 64.6268 399.824 64.6268 395.567 63.8835V3.23511H435.135Z" fill="white"/>
<path d="M499.234 63.8835C494.977 64.6268 488.701 64.6268 484.444 63.8835V28.3149L456.419 63.856C452.162 64.5993 449.106 64.5993 444.849 63.856V3.23509C449.106 2.49179 455.382 2.49179 459.639 3.23509V38.7762L487.664 3.23509C491.921 2.49179 494.977 2.49179 499.234 3.23509V63.8835Z" fill="white"/>
<path d="M558.23 63.8835C553.973 64.6268 547.697 64.6268 543.44 63.8835V43.3462H537.71L524.475 63.8835C520.218 64.6268 512.632 64.6268 508.375 63.8835L522.974 41.1163C515.852 37.9503 511.513 31.5083 511.513 23.3044C511.513 11.3564 520.491 3.23511 533.889 3.23511H558.203V63.8835H558.23ZM534.19 15.6511C530.124 15.6511 526.604 18.0737 526.604 23.3044C526.604 28.5351 530.124 30.9577 534.19 30.9577H543.44V15.6511H534.19Z" fill="white"/>
<path d="M0 0.379883V66.2048H65.6699V0.379883H0ZM10.1726 56.0374V10.5765H55.5265V56.0374H10.1726Z" fill="#F8006B"/>
<path d="M39.6994 54.4008V39.9971L33.0537 33.3065L39.7286 26.5867V12.1829L18.6547 33.3065L39.6994 54.4008Z" fill="#F8006B"/>
</svg>
