<svg width="416" height="68" viewBox="0 0 416 68" fill="none" xmlns="http://www.w3.org/2000/svg">
<path d="M91.0083 16.4319C87.7492 15.1098 83.7233 12.8434 83.7233 7.93271C83.7233 5.85512 84.4901 3.9664 86.0238 2.45543C87.7492 0.944452 89.858 0.188965 92.542 0.188965C95.9928 0.188965 98.6768 1.13332 100.402 3.02204L97.1431 7.74384C95.8011 6.42173 94.8425 5.85512 93.1171 5.85512C91.3917 5.85512 90.4332 6.61061 90.4332 7.74384C90.4332 12.0879 101.744 11.1435 101.744 19.8316C101.744 22.0981 100.786 23.9868 99.0602 25.4978C97.3348 27.0088 95.0343 27.7642 92.542 27.7642C90.6249 27.7642 88.7078 27.3865 86.9824 26.631C85.257 25.8755 83.915 24.7423 83.3398 23.4202L86.7906 19.265C88.1326 21.1537 90.6249 22.0981 92.542 22.0981C94.0757 22.0981 95.0342 21.3426 95.0342 20.0205C95.0342 18.5095 93.3088 17.3763 91.0083 16.4319Z" fill="white"/>
<path d="M127.817 0.56665L118.232 16.4319V27.1976H112.097V16.4319L102.511 0.56665H109.605L115.356 10.5769L121.107 0.56665H127.817Z" fill="white"/>
<path d="M154.463 27.1976H149.479L136.634 11.1435V27.1976H130.883V0.56665H135.867L148.712 16.6208V0.56665H154.463V27.1976Z" fill="white"/>
<path d="M160.792 27.1976V0.56665H176.895V6.2328H167.118V10.9546H175.745V16.6208H167.118V21.5314H177.279V27.1976H160.792Z" fill="white"/>
<path d="M188.781 27.1976H182.646V0.56665C183.221 0.56665 184.755 0.56665 187.439 0.56665C190.123 0.56665 191.656 0.56665 191.848 0.56665C198.75 0.56665 201.817 3.77747 201.817 9.06588C201.817 12.6544 200.283 15.2986 197.216 16.8096L205.076 27.3864H197.599L191.081 18.1317H188.781V27.1976ZM188.781 6.42168V12.2767H191.081C193.957 12.2767 195.299 11.3323 195.299 9.25475C195.299 7.36603 194.148 6.42168 191.464 6.42168C191.273 6.2328 190.506 6.2328 188.781 6.42168Z" fill="white"/>
<path d="M218.686 17.7539V12.0878H230.189V23.9867C229.038 25.1199 227.505 26.0643 225.588 26.6309C223.67 27.3864 221.753 27.5753 220.028 27.5753C215.427 27.5753 211.976 26.2532 209.292 23.7978C206.8 21.3425 205.458 17.9428 205.458 13.7876C205.458 9.82133 206.608 6.61051 209.292 3.96631C211.784 1.3221 215.043 -2.81441e-09 219.261 -2.81441e-09C222.712 -2.81441e-09 225.779 0.944359 228.08 2.83308L225.588 7.74374C224.437 6.61051 222.137 5.85503 220.028 5.85503C215.427 5.85503 212.168 8.6881 212.168 13.9765C212.168 18.8872 215.427 22.098 220.22 22.098C220.987 22.098 221.753 21.9091 222.712 21.7203C223.67 21.3425 224.246 21.1536 224.437 20.7759V17.7539H218.686Z" fill="white"/>
<path d="M256.263 0.56665L246.678 16.4319V27.1976H240.543V16.4319L230.957 0.56665H238.051L243.802 10.5769L249.553 0.56665H256.263Z" fill="white"/>
<path d="M279.693 17.7539V12.0878H291.196V23.9867C290.045 25.1199 288.512 26.0643 286.594 26.6309C284.677 27.3864 282.76 27.5753 281.035 27.5753C276.434 27.5753 272.983 26.2532 270.299 23.7978C267.807 21.3425 266.465 17.9428 266.465 13.7876C266.465 9.82133 267.615 6.61051 270.299 3.96631C272.791 1.3221 276.05 -1.44098e-06 280.268 -1.44098e-06C283.719 -1.44098e-06 286.786 0.944358 289.087 2.83308L286.594 7.74374C285.444 6.61051 283.144 5.85502 281.035 5.85502C276.434 5.85502 273.175 8.6881 273.175 13.9765C273.175 18.8872 276.434 22.098 281.227 22.098C281.993 22.098 282.76 21.9091 283.719 21.7203C284.677 21.3425 285.252 21.1536 285.444 20.7759V17.9428H279.693V17.7539Z" fill="white"/>
<path d="M296.563 27.1977V0.755617H302.698V21.7204H313.625V27.3865H296.563V27.1977Z" fill="white"/>
<path d="M319.185 4.15527C321.869 1.51107 325.32 0.188964 329.538 0.188964C333.755 0.188964 337.206 1.51107 339.89 3.9664C342.574 6.42173 343.916 9.82143 343.916 13.9766C343.916 17.9429 342.574 21.3426 339.89 23.7979C337.206 26.4421 333.755 27.7642 329.538 27.7642C325.32 27.7642 321.869 26.4421 319.185 23.9868C316.501 21.5315 315.159 18.1318 315.159 13.9766C315.159 10.0103 316.501 6.79948 319.185 4.15527ZM323.978 19.6428C325.512 21.1537 327.429 21.9092 329.538 21.9092C332.03 21.9092 333.947 21.1537 335.289 19.6428C336.631 18.1318 337.398 16.2431 337.398 13.7877C337.398 11.3324 336.631 9.44368 335.097 7.93271C333.564 6.42173 331.647 5.66624 329.538 5.66624C327.237 5.66624 325.32 6.42173 323.978 7.93271C322.444 9.44368 321.869 11.3324 321.869 13.7877C321.678 16.2431 322.444 18.1318 323.978 19.6428Z" fill="white"/>
<path d="M348.518 0.755524C351.585 0.566652 354.269 0.566651 356.761 0.566651C362.896 0.566651 365.772 3.21086 365.772 7.17716C365.772 9.82137 364.813 11.7101 362.704 13.0322C364.813 13.7877 366.538 15.8653 366.538 19.0761C366.538 21.7203 365.58 23.7979 363.663 25.12C361.746 26.4421 359.253 27.1976 356.186 27.1976C352.544 27.1976 350.051 27.1976 348.518 27.0087V0.755524ZM354.652 6.42168V11.3323H356.761C358.678 11.3323 359.637 10.388 359.637 8.68814C359.637 7.17716 358.295 6.2328 356.761 6.2328C356.186 6.2328 355.611 6.23281 354.652 6.42168ZM354.652 16.4319V21.3425C355.227 21.5314 355.994 21.5314 356.761 21.5314C359.062 21.5314 360.404 20.5871 360.404 18.6983C360.404 17.1874 359.253 16.243 357.145 16.243H354.652V16.4319Z" fill="white"/>
<path d="M367.881 27.1976L379.192 0.566651H384.751L396.062 27.1976H389.544L387.243 21.5314H376.508L374.207 27.1976H367.881ZM381.684 8.49926L378.616 16.0541H384.751L381.684 8.49926Z" fill="white"/>
<path d="M398.937 27.1977V0.755617H405.072V21.7204H415.999V27.3865H398.937V27.1977Z" fill="white"/>
<path d="M107.878 67.14H105.194L88.3235 46.1752V67.14H85.2561V40.509H87.9401L104.811 61.4738V40.509H107.878V67.14Z" fill="white"/>
<path d="M114.971 67.14V40.509H130.308V43.531H118.422V52.0302H129.158V55.0522H118.422V63.9291H130.692V67.14H114.971Z" fill="white"/>
<path d="M170.376 40.509L162.516 67.14H159.449L151.972 45.7974L144.879 67.14H141.811L133.568 40.509H137.21L143.537 61.6627L150.438 40.509H153.697L160.791 61.6627L166.925 40.509H170.376Z" fill="white"/>
<path d="M202.199 40.509L192.422 55.8076V67.14H189.163V55.8076L179.578 40.509H183.412L190.888 52.5968L198.557 40.509H202.199Z" fill="white"/>
<path d="M206.226 44.0974C208.718 41.4532 212.169 40.1311 216.195 40.1311C220.221 40.1311 223.48 41.4532 225.972 43.9085C228.656 46.3639 229.998 49.7636 229.998 53.7299C229.998 57.6962 228.656 60.907 225.972 63.5512C223.289 66.1954 220.029 67.5175 216.195 67.5175C212.169 67.5175 208.91 66.1954 206.226 63.7401C203.734 61.2847 202.392 57.8851 202.392 53.9187C202.392 49.9524 203.734 46.5527 206.226 44.0974ZM208.91 61.2847C210.827 63.3623 213.32 64.3067 216.195 64.3067C219.263 64.3067 221.755 63.3623 223.672 61.2847C225.589 59.2072 226.548 56.7518 226.548 53.7299C226.548 50.7079 225.589 48.0637 223.48 46.175C221.563 44.0974 219.071 43.1531 216.195 43.1531C213.32 43.1531 210.827 44.0974 208.91 46.175C206.993 48.2526 206.034 50.7079 206.034 53.7299C205.843 56.7518 206.801 59.396 208.91 61.2847Z" fill="white"/>
<path d="M238.626 67.14H235.367V40.509C235.942 40.509 237.284 40.509 239.201 40.509C241.31 40.509 242.46 40.509 242.652 40.509C248.978 40.509 252.237 43.1532 252.237 48.4416C252.237 50.3304 251.662 52.0302 250.512 53.3523C249.362 54.6744 248.02 55.4299 246.294 55.9965L255.305 67.3288H251.279L243.035 56.752H238.626V67.14ZM238.626 43.531V53.3523H242.652C244.377 53.3523 245.719 52.9746 246.87 52.0302C248.02 51.0859 248.787 49.9526 248.787 48.2528C248.787 45.042 246.678 43.3421 242.46 43.3421C241.693 43.3421 240.351 43.531 238.626 43.531Z" fill="white"/>
<path d="M259.523 67.14V40.509H262.782V67.14H259.523ZM279.269 40.509L267.191 52.9746L279.844 67.14H275.626L263.357 53.3523L275.243 40.6979H279.269V40.509Z" fill="white"/>
<path d="M0 1.11475V68H69.1247V1.11475H0ZM60.4201 59.5774H8.57659V9.53733H60.4201V59.5774ZM42.8829 56.7286L19.9694 34.5574L42.8829 12.3861V24.153L32.1302 34.5574L42.8829 44.9617V56.7286Z" fill="#ED1C24"/>
</svg>
