<svg width="20" height="20" viewBox="0 0 20 20" fill="none" xmlns="http://www.w3.org/2000/svg">
<g id="icon/communication/phone call">
<path id="phone (call)" d="M17.9601 14.5783C17.2419 14.1304 16.434 13.6825 15.7159 13.2347C14.6387 12.6076 14.1899 13.6825 13.5615 14.3991C12.9332 15.1157 12.1253 15.3844 11.3174 14.9366C10.5993 14.4887 8.6244 12.7868 7.63698 11.9806C6.73932 10.9953 5.48259 9.47246 5.03376 8.66628C4.58493 7.86011 4.85423 7.05393 5.57235 6.4269C6.29048 5.79987 7.36768 5.35202 6.73932 4.27712C6.29049 3.56052 5.84165 2.75434 5.39282 2.03773C4.94399 1.14198 4.76446 0.873219 3.77703 1.05237C2.96914 1.23152 2.25101 1.6794 1.80218 2.396C0.904522 3.65006 0.724989 5.53116 1.44312 6.78522C4.4054 11.8014 8.17557 15.5636 13.2025 18.5196C14.549 19.3258 16.3443 19.0571 17.601 18.1613C18.2294 17.7134 18.768 16.9968 18.9475 16.1906C19.127 15.1157 18.8577 15.0262 17.9601 14.5783Z" fill="white"/>
</g>
</svg>
