<svg width="104" height="82" viewBox="0 0 104 82" fill="none" xmlns="http://www.w3.org/2000/svg">
<mask id="path-1-inside-1" fill="white">
<path d="M84.4746 17.5381C80.1677 14.705 74.9516 13.5981 69.8653 14.438C64.779 15.2779 60.1957 18.003 57.0283 22.0703C53.8609 26.1377 52.3419 31.249 52.7737 36.3861C53.2056 41.5231 55.5567 46.309 59.3587 49.7905C63.1607 53.272 68.1346 55.1936 73.2898 55.1725C78.4449 55.1514 83.403 53.1892 87.1764 49.6768C90.9498 46.1643 93.2617 41.3594 93.6515 36.2189C94.0414 31.0785 92.4806 25.9798 89.28 21.9385L73.206 34.6684L84.4746 17.5381Z"/>
</mask>
<path d="M84.4746 17.5381C80.1677 14.705 74.9516 13.5981 69.8653 14.438C64.779 15.2779 60.1957 18.003 57.0283 22.0703C53.8609 26.1377 52.3419 31.249 52.7737 36.3861C53.2056 41.5231 55.5567 46.309 59.3587 49.7905C63.1607 53.272 68.1346 55.1936 73.2898 55.1725C78.4449 55.1514 83.403 53.1892 87.1764 49.6768C90.9498 46.1643 93.2617 41.3594 93.6515 36.2189C94.0414 31.0785 92.4806 25.9798 89.28 21.9385L73.206 34.6684L84.4746 17.5381Z" fill="#F0F0F0" stroke="black" stroke-width="3.56596" mask="url(#path-1-inside-1)"/>
<mask id="path-2-inside-2" fill="white">
<path d="M87.4143 13.0687C82.5845 9.89158 76.8292 8.42491 71.0679 8.90302C65.3066 9.38113 59.8718 11.7764 55.6318 15.7063C51.3918 19.6361 48.5913 24.8736 47.6777 30.582C46.7641 36.2905 47.7901 42.1404 50.5919 47.1972C53.3936 52.254 57.8094 56.2259 63.1337 58.4782C68.458 60.7304 74.3836 61.1332 79.9637 59.6221C85.5438 58.111 90.4564 54.7733 93.9167 50.1421C97.377 45.511 99.1852 39.8537 99.0524 34.0741L73.206 34.6677L87.4143 13.0687Z"/>
</mask>
<path d="M87.4143 13.0687C82.5845 9.89158 76.8292 8.42491 71.0679 8.90302C65.3066 9.38113 59.8718 11.7764 55.6318 15.7063C51.3918 19.6361 48.5913 24.8736 47.6777 30.582C46.7641 36.2905 47.7901 42.1404 50.5919 47.1972C53.3936 52.254 57.8094 56.2259 63.1337 58.4782C68.458 60.7304 74.3836 61.1332 79.9637 59.6221C85.5438 58.111 90.4564 54.7733 93.9167 50.1421C97.377 45.511 99.1852 39.8537 99.0524 34.0741L73.206 34.6677L87.4143 13.0687Z" fill="#F0F0F0" stroke="black" stroke-width="3.56596" mask="url(#path-2-inside-2)"/>
<mask id="path-3-inside-3" fill="white">
<path d="M89.8639 9.34518C85.3638 6.38492 80.1561 4.67732 74.7769 4.39816C69.3976 4.11899 64.0412 5.27834 59.2588 7.75687C54.4764 10.2354 50.441 13.9436 47.5677 18.4997C44.6944 23.0559 43.0872 28.2954 42.9114 33.679C42.7356 39.0626 43.9977 44.3958 46.5676 49.1297C49.1376 53.8635 52.9226 57.8271 57.5331 60.6123C62.1436 63.3975 67.413 64.9038 72.799 64.9761C78.185 65.0484 83.493 63.6841 88.1766 61.0237L73.206 34.6681L89.8639 9.34518Z"/>
</mask>
<path d="M89.8639 9.34518C85.3638 6.38492 80.1561 4.67732 74.7769 4.39816C69.3976 4.11899 64.0412 5.27834 59.2588 7.75687C54.4764 10.2354 50.441 13.9436 47.5677 18.4997C44.6944 23.0559 43.0872 28.2954 42.9114 33.679C42.7356 39.0626 43.9977 44.3958 46.5676 49.1297C49.1376 53.8635 52.9226 57.8271 57.5331 60.6123C62.1436 63.3975 67.413 64.9038 72.799 64.9761C78.185 65.0484 83.493 63.6841 88.1766 61.0237L73.206 34.6681L89.8639 9.34518Z" fill="#F0F0F0" stroke="black" stroke-width="3.56596" mask="url(#path-3-inside-3)"/>
<mask id="path-4-inside-4" fill="white">
<path d="M8.47698 26.4195C8.47698 21.4964 12.7408 16.3474 14.2269 14.7024C14.5452 14.35 14.9975 14.1641 15.4723 14.1641H63.2944C64.7827 14.1641 65.6548 15.9072 64.827 17.144C63.016 19.8498 60.7121 23.8058 60.7121 26.4195C60.7121 30.7254 60.7121 64.5437 60.7121 70.1414C60.7121 75.7391 56.2564 78.3514 53.785 78.3514C51.7269 78.3514 17.1039 78.3514 5.58226 78.3514C4.08585 78.3514 3.27713 76.6193 4.21386 75.4523L8.08443 70.6304C8.3385 70.3139 8.47698 69.9428 8.47698 69.537C8.47698 64.6716 8.47698 31.9357 8.47698 26.4195Z"/>
</mask>
<path d="M8.47698 26.4195C8.47698 21.4964 12.7408 16.3474 14.2269 14.7024C14.5452 14.35 14.9975 14.1641 15.4723 14.1641H63.2944C64.7827 14.1641 65.6548 15.9072 64.827 17.144C63.016 19.8498 60.7121 23.8058 60.7121 26.4195C60.7121 30.7254 60.7121 64.5437 60.7121 70.1414C60.7121 75.7391 56.2564 78.3514 53.785 78.3514C51.7269 78.3514 17.1039 78.3514 5.58226 78.3514C4.08585 78.3514 3.27713 76.6193 4.21386 75.4523L8.08443 70.6304C8.3385 70.3139 8.47698 69.9428 8.47698 69.537C8.47698 64.6716 8.47698 31.9357 8.47698 26.4195Z" fill="#F0F0F0"/>
<path d="M4.21386 75.4523L2.82342 74.3362L4.21386 75.4523ZM5.58226 78.3514V76.5684V78.3514ZM64.827 17.144L66.3087 18.1357L64.827 17.144ZM14.2269 14.7024L15.55 15.8976L14.2269 14.7024ZM8.08443 70.6304L9.47487 71.7465L8.08443 70.6304ZM58.9291 26.4195C58.9291 30.8143 58.9291 64.4548 58.9291 70.1414H62.495C62.495 64.4548 62.495 30.8143 62.495 26.4195H58.9291ZM10.26 69.537C10.26 69.5275 10.26 69.5179 10.26 69.5081C10.26 69.4984 10.26 69.4886 10.26 69.4787C10.26 69.4688 10.26 69.4587 10.26 69.4486C10.26 69.4384 10.26 69.4282 10.26 69.4179C10.26 69.4075 10.26 69.3971 10.26 69.3865C10.26 69.3759 10.26 69.3653 10.26 69.3545C10.26 69.3438 10.26 69.3329 10.26 69.3219C10.26 69.3109 10.26 69.2999 10.26 69.2887C10.26 69.2775 10.26 69.2662 10.26 69.2549C10.26 69.2435 10.26 69.232 10.26 69.2204C10.26 69.2088 10.26 69.1971 10.26 69.1853C10.26 69.1735 10.26 69.1616 10.26 69.1496C10.26 69.1376 10.26 69.1256 10.26 69.1134C10.26 69.1012 10.26 69.0889 10.26 69.0765C10.26 69.0641 10.26 69.0516 10.26 69.039C10.26 69.0264 10.26 69.0137 10.26 69.0009C10.26 68.9881 10.26 68.9752 10.26 68.9622C10.26 68.9492 10.26 68.9361 10.26 68.9229C10.26 68.9097 10.26 68.8964 10.26 68.883C10.26 68.8696 10.26 68.8561 10.26 68.8425C10.26 68.8289 10.26 68.8152 10.26 68.8014C10.26 68.7876 10.26 68.7738 10.26 68.7598C10.26 68.7458 10.26 68.7317 10.26 68.7175C10.26 68.7034 10.26 68.6891 10.26 68.6747C10.26 68.6604 10.26 68.6459 10.26 68.6313C10.26 68.6168 10.26 68.6021 10.26 68.5874C10.26 68.5726 10.26 68.5578 10.26 68.5428C10.26 68.5279 10.26 68.5128 10.26 68.4977C10.26 68.4826 10.26 68.4673 10.26 68.452C10.26 68.4367 10.26 68.4213 10.26 68.4057C10.26 68.3902 10.26 68.3746 10.26 68.3589C10.26 68.3432 10.26 68.3274 10.26 68.3115C10.26 68.2957 10.26 68.2797 10.26 68.2636C10.26 68.2475 10.26 68.2314 10.26 68.2151C10.26 68.1989 10.26 68.1825 10.26 68.1661C10.26 68.1496 10.26 68.1331 10.26 68.1165C10.26 68.0998 10.26 68.0831 10.26 68.0663C10.26 68.0495 10.26 68.0326 10.26 68.0156C10.26 67.9986 10.26 67.9815 10.26 67.9644C10.26 67.9472 10.26 67.9299 10.26 67.9126C10.26 67.8952 10.26 67.8778 10.26 67.8603C10.26 67.8427 10.26 67.8251 10.26 67.8074C10.26 67.7897 10.26 67.7719 10.26 67.754C10.26 67.7361 10.26 67.7181 10.26 67.7001C10.26 67.682 10.26 67.6639 10.26 67.6456C10.26 67.6274 10.26 67.6091 10.26 67.5906C10.26 67.5722 10.26 67.5537 10.26 67.5351C10.26 67.5165 10.26 67.4979 10.26 67.4791C10.26 67.4603 10.26 67.4415 10.26 67.4225C10.26 67.4036 10.26 67.3846 10.26 67.3655C10.26 67.3464 10.26 67.3272 10.26 67.3079C10.26 67.2886 10.26 67.2693 10.26 67.2498C10.26 67.2304 10.26 67.2108 10.26 67.1912C10.26 67.1716 10.26 67.1519 10.26 67.1321C10.26 67.1123 10.26 67.0924 10.26 67.0725C10.26 67.0525 10.26 67.0325 10.26 67.0124C10.26 66.9922 10.26 66.972 10.26 66.9517C10.26 66.9314 10.26 66.9111 10.26 66.8906C10.26 66.8702 10.26 66.8496 10.26 66.829C10.26 66.8084 10.26 66.7877 10.26 66.7669C10.26 66.7461 10.26 66.7253 10.26 66.7043C10.26 66.6834 10.26 66.6623 10.26 66.6412C10.26 66.6201 10.26 66.5989 10.26 66.5777C10.26 66.5564 10.26 66.535 10.26 66.5136C10.26 66.4922 10.26 66.4707 10.26 66.4491C10.26 66.4275 10.26 66.4058 10.26 66.3841C10.26 66.3623 10.26 66.3405 10.26 66.3186C10.26 66.2967 10.26 66.2747 10.26 66.2526C10.26 66.2306 10.26 66.2084 10.26 66.1862C10.26 66.164 10.26 66.1417 10.26 66.1193C10.26 66.0969 10.26 66.0745 10.26 66.0519C10.26 66.0294 10.26 66.0068 10.26 65.9841C10.26 65.9614 10.26 65.9387 10.26 65.9158C10.26 65.893 10.26 65.8701 10.26 65.8471C10.26 65.8241 10.26 65.801 10.26 65.7779C10.26 65.7548 10.26 65.7315 10.26 65.7083C10.26 65.685 10.26 65.6616 10.26 65.6381C10.26 65.6147 10.26 65.5912 10.26 65.5676C10.26 65.544 10.26 65.5203 10.26 65.4966C10.26 65.4729 10.26 65.4491 10.26 65.4252C10.26 65.4013 10.26 65.3773 10.26 65.3533C10.26 65.3293 10.26 65.3051 10.26 65.281C10.26 65.2568 10.26 65.2325 10.26 65.2082C10.26 65.1839 10.26 65.1595 10.26 65.135C10.26 65.1106 10.26 65.086 10.26 65.0614C10.26 65.0368 10.26 65.0121 10.26 64.9874C10.26 64.9626 10.26 64.9378 10.26 64.9129C10.26 64.888 10.26 64.863 10.26 64.838C10.26 64.813 10.26 64.7878 10.26 64.7627C10.26 64.7375 10.26 64.7122 10.26 64.6869C10.26 64.6616 10.26 64.6362 10.26 64.6108C10.26 64.5853 10.26 64.5598 10.26 64.5342C10.26 64.5086 10.26 64.483 10.26 64.4572C10.26 64.4315 10.26 64.4057 10.26 64.3798C10.26 64.354 10.26 64.3281 10.26 64.3021C10.26 64.2761 10.26 64.25 10.26 64.2239C10.26 64.1977 10.26 64.1715 10.26 64.1453C10.26 64.119 10.26 64.0927 10.26 64.0663C10.26 64.0399 10.26 64.0134 10.26 63.9869C10.26 63.9603 10.26 63.9337 10.26 63.9071C10.26 63.8804 10.26 63.8537 10.26 63.8269C10.26 63.8001 10.26 63.7732 10.26 63.7463C10.26 63.7194 10.26 63.6924 10.26 63.6654C10.26 63.6383 10.26 63.6112 10.26 63.584C10.26 63.5569 10.26 63.5296 10.26 63.5023C10.26 63.475 10.26 63.4476 10.26 63.4202C10.26 63.3928 10.26 63.3653 10.26 63.3377C10.26 63.3102 10.26 63.2826 10.26 63.2549C10.26 63.2272 10.26 63.1995 10.26 63.1716C10.26 63.1438 10.26 63.116 10.26 63.0881C10.26 63.0601 10.26 63.0321 10.26 63.0041C10.26 62.976 10.26 62.9479 10.26 62.9198C10.26 62.8916 10.26 62.8634 10.26 62.8351C10.26 62.8068 10.26 62.7784 10.26 62.75C10.26 62.7216 10.26 62.6932 10.26 62.6646C10.26 62.6361 10.26 62.6075 10.26 62.5789C10.26 62.5502 10.26 62.5215 10.26 62.4928C10.26 62.464 10.26 62.4352 10.26 62.4063C10.26 62.3774 10.26 62.3485 10.26 62.3195C10.26 62.2905 10.26 62.2614 10.26 62.2323C10.26 62.2032 10.26 62.1741 10.26 62.1448C10.26 62.1156 10.26 62.0863 10.26 62.057C10.26 62.0277 10.26 61.9983 10.26 61.9688C10.26 61.9394 10.26 61.9099 10.26 61.8803C10.26 61.8508 10.26 61.8211 10.26 61.7915C10.26 61.7618 10.26 61.7321 10.26 61.7023C10.26 61.6725 10.26 61.6427 10.26 61.6128C10.26 61.5829 10.26 61.553 10.26 61.523C10.26 61.493 10.26 61.4629 10.26 61.4328C10.26 61.4027 10.26 61.3726 10.26 61.3424C10.26 61.3122 10.26 61.2819 10.26 61.2516C10.26 61.2213 10.26 61.1909 10.26 61.1605C10.26 61.1301 10.26 61.0996 10.26 61.0691C10.26 61.0386 10.26 61.008 10.26 60.9774C10.26 60.9467 10.26 60.916 10.26 60.8853C10.26 60.8546 10.26 60.8238 10.26 60.793C10.26 60.7622 10.26 60.7313 10.26 60.7003C10.26 60.6694 10.26 60.6384 10.26 60.6074C10.26 60.5764 10.26 60.5453 10.26 60.5142C10.26 60.483 10.26 60.4519 10.26 60.4206C10.26 60.3894 10.26 60.3581 10.26 60.3268C10.26 60.2955 10.26 60.2641 10.26 60.2327C10.26 60.2013 10.26 60.1698 10.26 60.1383C10.26 60.1068 10.26 60.0752 10.26 60.0436C10.26 60.012 10.26 59.9803 10.26 59.9486C10.26 59.9169 10.26 59.8852 10.26 59.8534C10.26 59.8216 10.26 59.7897 10.26 59.7578C10.26 59.7259 10.26 59.694 10.26 59.662C10.26 59.63 10.26 59.598 10.26 59.5659C10.26 59.5339 10.26 59.5018 10.26 59.4696C10.26 59.4374 10.26 59.4052 10.26 59.373C10.26 59.3407 10.26 59.3084 10.26 59.2761C10.26 59.2437 10.26 59.2114 10.26 59.1789C10.26 59.1465 10.26 59.114 10.26 59.0815C10.26 59.049 10.26 59.0164 10.26 58.9838C10.26 58.9512 10.26 58.9186 10.26 58.8859C10.26 58.8532 10.26 58.8205 10.26 58.7877C10.26 58.755 10.26 58.7222 10.26 58.6893C10.26 58.6564 10.26 58.6236 10.26 58.5906C10.26 58.5577 10.26 58.5247 10.26 58.4917C10.26 58.4587 10.26 58.4256 10.26 58.3925C10.26 58.3594 10.26 58.3263 10.26 58.2931C10.26 58.2599 10.26 58.2267 10.26 58.1935C10.26 58.1602 10.26 58.1269 10.26 58.0936C10.26 58.0602 10.26 58.0269 10.26 57.9934C10.26 57.96 10.26 57.9266 10.26 57.8931C10.26 57.8596 10.26 57.8261 10.26 57.7925C10.26 57.7589 10.26 57.7253 10.26 57.6917C10.26 57.6581 10.26 57.6244 10.26 57.5907C10.26 57.5569 10.26 57.5232 10.26 57.4894C10.26 57.4556 10.26 57.4218 10.26 57.3879C10.26 57.3541 10.26 57.3202 10.26 57.2862C10.26 57.2523 10.26 57.2183 10.26 57.1843C10.26 57.1503 10.26 57.1163 10.26 57.0822C10.26 57.0481 10.26 57.014 10.26 56.9799C10.26 56.9457 10.26 56.9116 10.26 56.8774C10.26 56.8431 10.26 56.8089 10.26 56.7746C10.26 56.7403 10.26 56.706 10.26 56.6717C10.26 56.6373 10.26 56.6029 10.26 56.5685C10.26 56.5341 10.26 56.4997 10.26 56.4652C10.26 56.4307 10.26 56.3962 10.26 56.3617C10.26 56.3271 10.26 56.2925 10.26 56.2579C10.26 56.2233 10.26 56.1887 10.26 56.154C10.26 56.1194 10.26 56.0847 10.26 56.0499C10.26 56.0152 10.26 55.9804 10.26 55.9456C10.26 55.9108 10.26 55.876 10.26 55.8412C10.26 55.8063 10.26 55.7714 10.26 55.7365C10.26 55.7016 10.26 55.6667 10.26 55.6317C10.26 55.5967 10.26 55.5617 10.26 55.5267C10.26 55.4917 10.26 55.4566 10.26 55.4215C10.26 55.3864 10.26 55.3513 10.26 55.3162C10.26 55.281 10.26 55.2459 10.26 55.2107C10.26 55.1755 10.26 55.1403 10.26 55.105C10.26 55.0697 10.26 55.0345 10.26 54.9992C10.26 54.9639 10.26 54.9285 10.26 54.8932C10.26 54.8578 10.26 54.8224 10.26 54.787C10.26 54.7516 10.26 54.7162 10.26 54.6807C10.26 54.6452 10.26 54.6097 10.26 54.5742C10.26 54.5387 10.26 54.5032 10.26 54.4676C10.26 54.4321 10.26 54.3965 10.26 54.3609C10.26 54.3252 10.26 54.2896 10.26 54.2539C10.26 54.2183 10.26 54.1826 10.26 54.1469C10.26 54.1112 10.26 54.0755 10.26 54.0397C10.26 54.004 10.26 53.9682 10.26 53.9324C10.26 53.8966 10.26 53.8608 10.26 53.8249C10.26 53.7891 10.26 53.7532 10.26 53.7173C10.26 53.6814 10.26 53.6455 10.26 53.6096C10.26 53.5737 10.26 53.5377 10.26 53.5017C10.26 53.4658 10.26 53.4298 10.26 53.3938C10.26 53.3577 10.26 53.3217 10.26 53.2857C10.26 53.2496 10.26 53.2135 10.26 53.1774C10.26 53.1413 10.26 53.1052 10.26 53.0691C10.26 53.0329 10.26 52.9968 10.26 52.9606C10.26 52.9245 10.26 52.8883 10.26 52.8521C10.26 52.8158 10.26 52.7796 10.26 52.7434C10.26 52.7071 10.26 52.6709 10.26 52.6346C10.26 52.5983 10.26 52.562 10.26 52.5257C10.26 52.4894 10.26 52.453 10.26 52.4167C10.26 52.3803 10.26 52.344 10.26 52.3076C10.26 52.2712 10.26 52.2348 10.26 52.1984C10.26 52.162 10.26 52.1255 10.26 52.0891C10.26 52.0526 10.26 52.0162 10.26 51.9797C10.26 51.9432 10.26 51.9067 10.26 51.8702C10.26 51.8337 10.26 51.7972 10.26 51.7606C10.26 51.7241 10.26 51.6875 10.26 51.651C10.26 51.6144 10.26 51.5778 10.26 51.5412C10.26 51.5046 10.26 51.468 10.26 51.4314C10.26 51.3948 10.26 51.3582 10.26 51.3215C10.26 51.2849 10.26 51.2482 10.26 51.2115C10.26 51.1749 10.26 51.1382 10.26 51.1015C10.26 51.0648 10.26 51.0281 10.26 50.9914C10.26 50.9546 10.26 50.9179 10.26 50.8812C10.26 50.8444 10.26 50.8077 10.26 50.7709C10.26 50.7341 10.26 50.6974 10.26 50.6606C10.26 50.6238 10.26 50.587 10.26 50.5502C10.26 50.5134 10.26 50.4766 10.26 50.4398C10.26 50.4029 10.26 50.3661 10.26 50.3293C10.26 50.2924 10.26 50.2556 10.26 50.2187C10.26 50.1819 10.26 50.145 10.26 50.1081C10.26 50.0712 10.26 50.0343 10.26 49.9974C10.26 49.9606 10.26 49.9237 10.26 49.8867C10.26 49.8498 10.26 49.8129 10.26 49.776C10.26 49.7391 10.26 49.7021 10.26 49.6652C10.26 49.6283 10.26 49.5913 10.26 49.5544C10.26 49.5174 10.26 49.4805 10.26 49.4435C10.26 49.4066 10.26 49.3696 10.26 49.3326C10.26 49.2956 10.26 49.2587 10.26 49.2217C10.26 49.1847 10.26 49.1477 10.26 49.1107C10.26 49.0737 10.26 49.0367 10.26 48.9997C10.26 48.9627 10.26 48.9257 10.26 48.8887C10.26 48.8517 10.26 48.8147 10.26 48.7777C10.26 48.7407 10.26 48.7037 10.26 48.6666C10.26 48.6296 10.26 48.5926 10.26 48.5556C10.26 48.5185 10.26 48.4815 10.26 48.4445C10.26 48.4074 10.26 48.3704 10.26 48.3334C10.26 48.2963 10.26 48.2593 10.26 48.2223C10.26 48.1852 10.26 48.1482 10.26 48.1112C10.26 48.0741 10.26 48.0371 10.26 48C10.26 47.963 10.26 47.9259 10.26 47.8889C10.26 47.8519 10.26 47.8148 10.26 47.7778C10.26 47.7407 10.26 47.7037 10.26 47.6667C10.26 47.6296 10.26 47.5926 10.26 47.5555C10.26 47.5185 10.26 47.4815 10.26 47.4444C10.26 47.4074 10.26 47.3704 10.26 47.3333C10.26 47.2963 10.26 47.2593 10.26 47.2222C10.26 47.1852 10.26 47.1482 10.26 47.1112C10.26 47.0742 10.26 47.0371 10.26 47.0001C10.26 46.9631 10.26 46.9261 10.26 46.8891C10.26 46.8521 10.26 46.8151 10.26 46.7781C10.26 46.7411 10.26 46.7041 10.26 46.6671C10.26 46.6301 10.26 46.5931 10.26 46.5561C10.26 46.5191 10.26 46.4822 10.26 46.4452C10.26 46.4082 10.26 46.3712 10.26 46.3343C10.26 46.2973 10.26 46.2604 10.26 46.2234C10.26 46.1865 10.26 46.1495 10.26 46.1126C10.26 46.0756 10.26 46.0387 10.26 46.0018C10.26 45.9649 10.26 45.928 10.26 45.891C10.26 45.8541 10.26 45.8172 10.26 45.7803C10.26 45.7434 10.26 45.7066 10.26 45.6697C10.26 45.6328 10.26 45.5959 10.26 45.5591C10.26 45.5222 10.26 45.4854 10.26 45.4485C10.26 45.4117 10.26 45.3748 10.26 45.338C10.26 45.3012 10.26 45.2644 10.26 45.2276C10.26 45.1908 10.26 45.154 10.26 45.1172C10.26 45.0804 10.26 45.0436 10.26 45.0069C10.26 44.9701 10.26 44.9333 10.26 44.8966C10.26 44.8599 10.26 44.8231 10.26 44.7864C10.26 44.7497 10.26 44.713 10.26 44.6763C10.26 44.6396 10.26 44.6029 10.26 44.5662C10.26 44.5295 10.26 44.4929 10.26 44.4562C10.26 44.4196 10.26 44.383 10.26 44.3463C10.26 44.3097 10.26 44.2731 10.26 44.2365C10.26 44.1999 10.26 44.1633 10.26 44.1268C10.26 44.0902 10.26 44.0536 10.26 44.0171C10.26 43.9806 10.26 43.944 10.26 43.9075C10.26 43.871 10.26 43.8345 10.26 43.798C10.26 43.7616 10.26 43.7251 10.26 43.6886C10.26 43.6522 10.26 43.6158 10.26 43.5793C10.26 43.5429 10.26 43.5065 10.26 43.4701C10.26 43.4338 10.26 43.3974 10.26 43.361C10.26 43.3247 10.26 43.2883 10.26 43.252C10.26 43.2157 10.26 43.1794 10.26 43.1431C10.26 43.1068 10.26 43.0706 10.26 43.0343C10.26 42.9981 10.26 42.9618 10.26 42.9256C10.26 42.8894 10.26 42.8532 10.26 42.8171C10.26 42.7809 10.26 42.7447 10.26 42.7086C10.26 42.6725 10.26 42.6363 10.26 42.6002C10.26 42.5641 10.26 42.5281 10.26 42.492C10.26 42.456 10.26 42.4199 10.26 42.3839C10.26 42.3479 10.26 42.3119 10.26 42.2759C10.26 42.2399 10.26 42.204 10.26 42.1681C10.26 42.1321 10.26 42.0962 10.26 42.0603C10.26 42.0244 10.26 41.9886 10.26 41.9527C10.26 41.9169 10.26 41.8811 10.26 41.8452C10.26 41.8094 10.26 41.7737 10.26 41.7379C10.26 41.7022 10.26 41.6664 10.26 41.6307C10.26 41.595 10.26 41.5593 10.26 41.5237C10.26 41.488 10.26 41.4524 10.26 41.4167C10.26 41.3811 10.26 41.3455 10.26 41.31C10.26 41.2744 10.26 41.2389 10.26 41.2034C10.26 41.1678 10.26 41.1324 10.26 41.0969C10.26 41.0614 10.26 41.026 10.26 40.9906C10.26 40.9552 10.26 40.9198 10.26 40.8844C10.26 40.849 10.26 40.8137 10.26 40.7784C10.26 40.7431 10.26 40.7078 10.26 40.6726C10.26 40.6373 10.26 40.6021 10.26 40.5669C10.26 40.5317 10.26 40.4965 10.26 40.4614C10.26 40.4262 10.26 40.3911 10.26 40.356C10.26 40.3209 10.26 40.2859 10.26 40.2508C10.26 40.2158 10.26 40.1808 10.26 40.1458C10.26 40.1108 10.26 40.0759 10.26 40.041C10.26 40.0061 10.26 39.9712 10.26 39.9363C10.26 39.9015 10.26 39.8666 10.26 39.8318C10.26 39.797 10.26 39.7623 10.26 39.7275C10.26 39.6928 10.26 39.6581 10.26 39.6234C10.26 39.5888 10.26 39.5541 10.26 39.5195C10.26 39.4849 10.26 39.4503 10.26 39.4158C10.26 39.3812 10.26 39.3467 10.26 39.3122C10.26 39.2778 10.26 39.2433 10.26 39.2089C10.26 39.1745 10.26 39.1401 10.26 39.1057C10.26 39.0714 10.26 39.0371 10.26 39.0028C10.26 38.9685 10.26 38.9343 10.26 38.9C10.26 38.8658 10.26 38.8316 10.26 38.7975C10.26 38.7634 10.26 38.7292 10.26 38.6952C10.26 38.6611 10.26 38.627 10.26 38.593C10.26 38.559 10.26 38.5251 10.26 38.4911C10.26 38.4572 10.26 38.4233 10.26 38.3894C10.26 38.3556 10.26 38.3217 10.26 38.2879C10.26 38.2541 10.26 38.2204 10.26 38.1867C10.26 38.1529 10.26 38.1193 10.26 38.0856C10.26 38.052 10.26 38.0184 10.26 37.9848C10.26 37.9512 10.26 37.9177 10.26 37.8842C10.26 37.8507 10.26 37.8173 10.26 37.7838C10.26 37.7504 10.26 37.717 10.26 37.6837C10.26 37.6504 10.26 37.6171 10.26 37.5838C10.26 37.5505 10.26 37.5173 10.26 37.4841C10.26 37.451 10.26 37.4178 10.26 37.3847C10.26 37.3516 10.26 37.3186 10.26 37.2855C10.26 37.2525 10.26 37.2195 10.26 37.1866C10.26 37.1537 10.26 37.1208 10.26 37.0879C10.26 37.055 10.26 37.0222 10.26 36.9895C10.26 36.9567 10.26 36.924 10.26 36.8913C10.26 36.8586 10.26 36.8259 10.26 36.7933C10.26 36.7607 10.26 36.7282 10.26 36.6956C10.26 36.6631 10.26 36.6306 10.26 36.5982C10.26 36.5658 10.26 36.5334 10.26 36.501C10.26 36.4687 10.26 36.4364 10.26 36.4041C10.26 36.3719 10.26 36.3397 10.26 36.3075C10.26 36.2753 10.26 36.2432 10.26 36.2111C10.26 36.1791 10.26 36.147 10.26 36.1151C10.26 36.0831 10.26 36.0511 10.26 36.0192C10.26 35.9873 10.26 35.9555 10.26 35.9237C10.26 35.8919 10.26 35.8601 10.26 35.8284C10.26 35.7967 10.26 35.765 10.26 35.7334C10.26 35.7018 10.26 35.6702 10.26 35.6387C10.26 35.6072 10.26 35.5757 10.26 35.5443C10.26 35.5129 10.26 35.4815 10.26 35.4502C10.26 35.4188 10.26 35.3876 10.26 35.3563C10.26 35.3251 10.26 35.2939 10.26 35.2628C10.26 35.2316 10.26 35.2006 10.26 35.1695C10.26 35.1385 10.26 35.1075 10.26 35.0766C10.26 35.0456 10.26 35.0148 10.26 34.9839C10.26 34.9531 10.26 34.9223 10.26 34.8916C10.26 34.8608 10.26 34.8302 10.26 34.7995C10.26 34.7689 10.26 34.7383 10.26 34.7078C10.26 34.6773 10.26 34.6468 10.26 34.6164C10.26 34.5859 10.26 34.5556 10.26 34.5252C10.26 34.4949 10.26 34.4647 10.26 34.4344C10.26 34.4042 10.26 34.3741 10.26 34.344C10.26 34.3139 10.26 34.2838 10.26 34.2538C10.26 34.2238 10.26 34.1939 10.26 34.164C10.26 34.1341 10.26 34.1042 10.26 34.0744C10.26 34.0447 10.26 34.0149 10.26 33.9853C10.26 33.9556 10.26 33.926 10.26 33.8964C10.26 33.8668 10.26 33.8373 10.26 33.8079C10.26 33.7784 10.26 33.749 10.26 33.7197C10.26 33.6903 10.26 33.6611 10.26 33.6318C10.26 33.6026 10.26 33.5734 10.26 33.5443C10.26 33.5152 10.26 33.4862 10.26 33.4572C10.26 33.4282 10.26 33.3992 10.26 33.3703C10.26 33.3414 10.26 33.3126 10.26 33.2838C10.26 33.2551 10.26 33.2264 10.26 33.1977C10.26 33.1691 10.26 33.1405 10.26 33.1119C10.26 33.0834 10.26 33.0549 10.26 33.0265C10.26 32.9981 10.26 32.9698 10.26 32.9415C10.26 32.9132 10.26 32.8849 10.26 32.8568C10.26 32.8286 10.26 32.8005 10.26 32.7724C10.26 32.7444 10.26 32.7164 10.26 32.6884C10.26 32.6605 10.26 32.6326 10.26 32.6048C10.26 32.577 10.26 32.5493 10.26 32.5216C10.26 32.4939 10.26 32.4663 10.26 32.4387C10.26 32.4111 10.26 32.3836 10.26 32.3562C10.26 32.3288 10.26 32.3014 10.26 32.2741C10.26 32.2468 10.26 32.2195 10.26 32.1923C10.26 32.1652 10.26 32.138 10.26 32.111C10.26 32.0839 10.26 32.0569 10.26 32.03C10.26 32.0031 10.26 31.9762 10.26 31.9494C10.26 31.9226 10.26 31.8959 10.26 31.8692C10.26 31.8426 10.26 31.816 10.26 31.7894C10.26 31.7629 10.26 31.7364 10.26 31.71C10.26 31.6836 10.26 31.6573 10.26 31.631C10.26 31.6047 10.26 31.5785 10.26 31.5524C10.26 31.5262 10.26 31.5002 10.26 31.4741C10.26 31.4481 10.26 31.4222 10.26 31.3963C10.26 31.3705 10.26 31.3447 10.26 31.3189C10.26 31.2932 10.26 31.2675 10.26 31.2419C10.26 31.2163 10.26 31.1908 10.26 31.1653C10.26 31.1399 10.26 31.1145 10.26 31.0892C10.26 31.0638 10.26 31.0386 10.26 31.0134C10.26 30.9882 10.26 30.9631 10.26 30.9381C10.26 30.913 10.26 30.8881 10.26 30.8632C10.26 30.8383 10.26 30.8134 10.26 30.7887C10.26 30.7639 10.26 30.7392 10.26 30.7146C10.26 30.69 10.26 30.6654 10.26 30.641C10.26 30.6165 10.26 30.5921 10.26 30.5677C10.26 30.5434 10.26 30.5192 10.26 30.495C10.26 30.4708 10.26 30.4467 10.26 30.4226C10.26 30.3986 10.26 30.3746 10.26 30.3507C10.26 30.3268 10.26 30.303 10.26 30.2793C10.26 30.2555 10.26 30.2318 10.26 30.2082C10.26 30.1847 10.26 30.1611 10.26 30.1377C10.26 30.1142 10.26 30.0909 10.26 30.0676C10.26 30.0443 10.26 30.021 10.26 29.9979C10.26 29.9747 10.26 29.9517 10.26 29.9287C10.26 29.9057 10.26 29.8827 10.26 29.8599C10.26 29.8371 10.26 29.8143 10.26 29.7916C10.26 29.7689 10.26 29.7463 10.26 29.7237C10.26 29.7012 10.26 29.6787 10.26 29.6564C10.26 29.634 10.26 29.6117 10.26 29.5894C10.26 29.5672 10.26 29.5451 10.26 29.523C10.26 29.5009 10.26 29.4789 10.26 29.457C10.26 29.4351 10.26 29.4133 10.26 29.3915C10.26 29.3698 10.26 29.3481 10.26 29.3265C10.26 29.3049 10.26 29.2834 10.26 29.2619C10.26 29.2405 10.26 29.2191 10.26 29.1979C10.26 29.1766 10.26 29.1554 10.26 29.1343C10.26 29.1131 10.26 29.0921 10.26 29.0712C10.26 29.0502 10.26 29.0293 10.26 29.0085C10.26 28.9877 10.26 28.967 10.26 28.9464C10.26 28.9258 10.26 28.9052 10.26 28.8848C10.26 28.8643 10.26 28.8439 10.26 28.8236C10.26 28.8033 10.26 28.7831 10.26 28.763C10.26 28.7429 10.26 28.7228 10.26 28.7028C10.26 28.6829 10.26 28.663 10.26 28.6432C10.26 28.6234 10.26 28.6037 10.26 28.5841C10.26 28.5644 10.26 28.5449 10.26 28.5254C10.26 28.506 10.26 28.4866 10.26 28.4673C10.26 28.448 10.26 28.4288 10.26 28.4097C10.26 28.3906 10.26 28.3716 10.26 28.3526C10.26 28.3337 10.26 28.3148 10.26 28.296C10.26 28.2773 10.26 28.2586 10.26 28.24C10.26 28.2214 10.26 28.2029 10.26 28.1845C10.26 28.166 10.26 28.1477 10.26 28.1294C10.26 28.1112 10.26 28.093 10.26 28.075C10.26 28.0569 10.26 28.0389 10.26 28.021C10.26 28.0031 10.26 27.9853 10.26 27.9676C10.26 27.9499 10.26 27.9322 10.26 27.9147C10.26 27.8972 10.26 27.8797 10.26 27.8624C10.26 27.845 10.26 27.8277 10.26 27.8105C10.26 27.7934 10.26 27.7763 10.26 27.7593C10.26 27.7423 10.26 27.7254 10.26 27.7086C10.26 27.6917 10.26 27.675 10.26 27.6584C10.26 27.6417 10.26 27.6252 10.26 27.6087C10.26 27.5923 10.26 27.5759 10.26 27.5597C10.26 27.5434 10.26 27.5272 10.26 27.5111C10.26 27.4951 10.26 27.4791 10.26 27.4632C10.26 27.4473 10.26 27.4315 10.26 27.4158C10.26 27.4001 10.26 27.3844 10.26 27.3689C10.26 27.3534 10.26 27.338 10.26 27.3226C10.26 27.3073 10.26 27.2921 10.26 27.2769C10.26 27.2618 10.26 27.2467 10.26 27.2318C10.26 27.2168 10.26 27.202 10.26 27.1872C10.26 27.1724 10.26 27.1578 10.26 27.1432C10.26 27.1286 10.26 27.1142 10.26 27.0998C10.26 27.0854 10.26 27.0711 10.26 27.0569C10.26 27.0427 10.26 27.0287 10.26 27.0147C10.26 27.0007 10.26 26.9868 10.26 26.973C10.26 26.9592 10.26 26.9455 10.26 26.9319C10.26 26.9183 10.26 26.9048 10.26 26.8914C10.26 26.878 10.26 26.8647 10.26 26.8515C10.26 26.8383 10.26 26.8251 10.26 26.8121C10.26 26.7991 10.26 26.7862 10.26 26.7734C10.26 26.7606 10.26 26.7479 10.26 26.7353C10.26 26.7227 10.26 26.7102 10.26 26.6978C10.26 26.6853 10.26 26.673 10.26 26.6608C10.26 26.6486 10.26 26.6365 10.26 26.6245C10.26 26.6125 10.26 26.6006 10.26 26.5888C10.26 26.577 10.26 26.5653 10.26 26.5537C10.26 26.5421 10.26 26.5306 10.26 26.5192C10.26 26.5078 10.26 26.4965 10.26 26.4853C10.26 26.4742 10.26 26.4631 10.26 26.4521C10.26 26.4411 10.26 26.4302 10.26 26.4195H6.694C6.694 26.4302 6.694 26.4411 6.694 26.4521C6.694 26.4631 6.694 26.4742 6.694 26.4853C6.694 26.4965 6.694 26.5078 6.694 26.5192C6.694 26.5306 6.694 26.5421 6.694 26.5537C6.694 26.5653 6.694 26.577 6.694 26.5888C6.694 26.6006 6.694 26.6125 6.694 26.6245C6.694 26.6365 6.694 26.6486 6.694 26.6608C6.694 26.673 6.694 26.6853 6.694 26.6978C6.694 26.7102 6.694 26.7227 6.694 26.7353C6.694 26.7479 6.694 26.7606 6.694 26.7734C6.694 26.7862 6.694 26.7991 6.694 26.8121C6.694 26.8251 6.694 26.8383 6.694 26.8515C6.694 26.8647 6.694 26.878 6.694 26.8914C6.694 26.9048 6.694 26.9183 6.694 26.9319C6.694 26.9455 6.694 26.9592 6.694 26.973C6.694 26.9868 6.694 27.0007 6.694 27.0147C6.694 27.0287 6.694 27.0427 6.694 27.0569C6.694 27.0711 6.694 27.0854 6.694 27.0998C6.694 27.1142 6.694 27.1286 6.694 27.1432C6.694 27.1578 6.694 27.1724 6.694 27.1872C6.694 27.202 6.694 27.2168 6.694 27.2318C6.694 27.2467 6.694 27.2618 6.694 27.2769C6.694 27.2921 6.694 27.3073 6.694 27.3226C6.694 27.338 6.694 27.3534 6.694 27.3689C6.694 27.3844 6.694 27.4001 6.694 27.4158C6.694 27.4315 6.694 27.4473 6.694 27.4632C6.694 27.4791 6.694 27.4951 6.694 27.5111C6.694 27.5272 6.694 27.5434 6.694 27.5597C6.694 27.5759 6.694 27.5923 6.694 27.6087C6.694 27.6252 6.694 27.6417 6.694 27.6584C6.694 27.675 6.694 27.6917 6.694 27.7086C6.694 27.7254 6.694 27.7423 6.694 27.7593C6.694 27.7763 6.694 27.7934 6.694 27.8105C6.694 27.8277 6.694 27.845 6.694 27.8624C6.694 27.8797 6.694 27.8972 6.694 27.9147C6.694 27.9322 6.694 27.9499 6.694 27.9676C6.694 27.9853 6.694 28.0031 6.694 28.021C6.694 28.0389 6.694 28.0569 6.694 28.075C6.694 28.093 6.694 28.1112 6.694 28.1294C6.694 28.1477 6.694 28.166 6.694 28.1845C6.694 28.2029 6.694 28.2214 6.694 28.24C6.694 28.2586 6.694 28.2773 6.694 28.296C6.694 28.3148 6.694 28.3337 6.694 28.3526C6.694 28.3716 6.694 28.3906 6.694 28.4097C6.694 28.4288 6.694 28.448 6.694 28.4673C6.694 28.4866 6.694 28.506 6.694 28.5254C6.694 28.5449 6.694 28.5644 6.694 28.5841C6.694 28.6037 6.694 28.6234 6.694 28.6432C6.694 28.663 6.694 28.6829 6.694 28.7028C6.694 28.7228 6.694 28.7429 6.694 28.763C6.694 28.7831 6.694 28.8033 6.694 28.8236C6.694 28.8439 6.694 28.8643 6.694 28.8848C6.694 28.9052 6.694 28.9258 6.694 28.9464C6.694 28.967 6.694 28.9877 6.694 29.0085C6.694 29.0293 6.694 29.0502 6.694 29.0712C6.694 29.0921 6.694 29.1131 6.694 29.1343C6.694 29.1554 6.694 29.1766 6.694 29.1979C6.694 29.2191 6.694 29.2405 6.694 29.2619C6.694 29.2834 6.694 29.3049 6.694 29.3265C6.694 29.3481 6.694 29.3698 6.694 29.3915C6.694 29.4133 6.694 29.4351 6.694 29.457C6.694 29.4789 6.694 29.5009 6.694 29.523C6.694 29.5451 6.694 29.5672 6.694 29.5894C6.694 29.6117 6.694 29.634 6.694 29.6564C6.694 29.6787 6.694 29.7012 6.694 29.7237C6.694 29.7463 6.694 29.7689 6.694 29.7916C6.694 29.8143 6.694 29.8371 6.694 29.8599C6.694 29.8827 6.694 29.9057 6.694 29.9287C6.694 29.9517 6.694 29.9747 6.694 29.9979C6.694 30.021 6.694 30.0443 6.694 30.0676C6.694 30.0909 6.694 30.1142 6.694 30.1377C6.694 30.1611 6.694 30.1847 6.694 30.2082C6.694 30.2318 6.694 30.2555 6.694 30.2793C6.694 30.303 6.694 30.3268 6.694 30.3507C6.694 30.3746 6.694 30.3986 6.694 30.4226C6.694 30.4467 6.694 30.4708 6.694 30.495C6.694 30.5192 6.694 30.5434 6.694 30.5677C6.694 30.5921 6.694 30.6165 6.694 30.641C6.694 30.6654 6.694 30.69 6.694 30.7146C6.694 30.7392 6.694 30.7639 6.694 30.7887C6.694 30.8134 6.694 30.8383 6.694 30.8632C6.694 30.8881 6.694 30.913 6.694 30.9381C6.694 30.9631 6.694 30.9882 6.694 31.0134C6.694 31.0386 6.694 31.0638 6.694 31.0892C6.694 31.1145 6.694 31.1399 6.694 31.1653C6.694 31.1908 6.694 31.2163 6.694 31.2419C6.694 31.2675 6.694 31.2932 6.694 31.3189C6.694 31.3447 6.694 31.3705 6.694 31.3963C6.694 31.4222 6.694 31.4481 6.694 31.4741C6.694 31.5002 6.694 31.5262 6.694 31.5524C6.694 31.5785 6.694 31.6047 6.694 31.631C6.694 31.6573 6.694 31.6836 6.694 31.71C6.694 31.7364 6.694 31.7629 6.694 31.7894C6.694 31.816 6.694 31.8426 6.694 31.8692C6.694 31.8959 6.694 31.9226 6.694 31.9494C6.694 31.9762 6.694 32.0031 6.694 32.03C6.694 32.0569 6.694 32.0839 6.694 32.111C6.694 32.138 6.694 32.1652 6.694 32.1923C6.694 32.2195 6.694 32.2468 6.694 32.2741C6.694 32.3014 6.694 32.3288 6.694 32.3562C6.694 32.3836 6.694 32.4111 6.694 32.4387C6.694 32.4663 6.694 32.4939 6.694 32.5216C6.694 32.5493 6.694 32.577 6.694 32.6048C6.694 32.6326 6.694 32.6605 6.694 32.6884C6.694 32.7164 6.694 32.7444 6.694 32.7724C6.694 32.8005 6.694 32.8286 6.694 32.8568C6.694 32.8849 6.694 32.9132 6.694 32.9415C6.694 32.9698 6.694 32.9981 6.694 33.0265C6.694 33.0549 6.694 33.0834 6.694 33.1119C6.694 33.1405 6.694 33.1691 6.694 33.1977C6.694 33.2264 6.694 33.2551 6.694 33.2838C6.694 33.3126 6.694 33.3414 6.694 33.3703C6.694 33.3992 6.694 33.4282 6.694 33.4572C6.694 33.4862 6.694 33.5152 6.694 33.5443C6.694 33.5734 6.694 33.6026 6.694 33.6318C6.694 33.6611 6.694 33.6903 6.694 33.7197C6.694 33.749 6.694 33.7784 6.694 33.8079C6.694 33.8373 6.694 33.8668 6.694 33.8964C6.694 33.926 6.694 33.9556 6.694 33.9853C6.694 34.0149 6.694 34.0447 6.694 34.0744C6.694 34.1042 6.694 34.1341 6.694 34.164C6.694 34.1939 6.694 34.2238 6.694 34.2538C6.694 34.2838 6.694 34.3139 6.694 34.344C6.694 34.3741 6.694 34.4042 6.694 34.4344C6.694 34.4647 6.694 34.4949 6.694 34.5252C6.694 34.5556 6.694 34.5859 6.694 34.6164C6.694 34.6468 6.694 34.6773 6.694 34.7078C6.694 34.7383 6.694 34.7689 6.694 34.7995C6.694 34.8302 6.694 34.8608 6.694 34.8916C6.694 34.9223 6.694 34.9531 6.694 34.9839C6.694 35.0148 6.694 35.0456 6.694 35.0766C6.694 35.1075 6.694 35.1385 6.694 35.1695C6.694 35.2006 6.694 35.2316 6.694 35.2628C6.694 35.2939 6.694 35.3251 6.694 35.3563C6.694 35.3876 6.694 35.4188 6.694 35.4502C6.694 35.4815 6.694 35.5129 6.694 35.5443C6.694 35.5757 6.694 35.6072 6.694 35.6387C6.694 35.6702 6.694 35.7018 6.694 35.7334C6.694 35.765 6.694 35.7967 6.694 35.8284C6.694 35.8601 6.694 35.8919 6.694 35.9237C6.694 35.9555 6.694 35.9873 6.694 36.0192C6.694 36.0511 6.694 36.0831 6.694 36.1151C6.694 36.147 6.694 36.1791 6.694 36.2111C6.694 36.2432 6.694 36.2753 6.694 36.3075C6.694 36.3397 6.694 36.3719 6.694 36.4041C6.694 36.4364 6.694 36.4687 6.694 36.501C6.694 36.5334 6.694 36.5658 6.694 36.5982C6.694 36.6306 6.694 36.6631 6.694 36.6956C6.694 36.7282 6.694 36.7607 6.694 36.7933C6.694 36.8259 6.694 36.8586 6.694 36.8913C6.694 36.924 6.694 36.9567 6.694 36.9895C6.694 37.0222 6.694 37.055 6.694 37.0879C6.694 37.1208 6.694 37.1537 6.694 37.1866C6.694 37.2195 6.694 37.2525 6.694 37.2855C6.694 37.3186 6.694 37.3516 6.694 37.3847C6.694 37.4178 6.694 37.451 6.694 37.4841C6.694 37.5173 6.694 37.5505 6.694 37.5838C6.694 37.6171 6.694 37.6504 6.694 37.6837C6.694 37.717 6.694 37.7504 6.694 37.7838C6.694 37.8173 6.694 37.8507 6.694 37.8842C6.694 37.9177 6.694 37.9512 6.694 37.9848C6.694 38.0184 6.694 38.052 6.694 38.0856C6.694 38.1193 6.694 38.1529 6.694 38.1867C6.694 38.2204 6.694 38.2541 6.694 38.2879C6.694 38.3217 6.694 38.3556 6.694 38.3894C6.694 38.4233 6.694 38.4572 6.694 38.4911C6.694 38.5251 6.694 38.559 6.694 38.593C6.694 38.627 6.694 38.6611 6.694 38.6952C6.694 38.7292 6.694 38.7634 6.694 38.7975C6.694 38.8316 6.694 38.8658 6.694 38.9C6.694 38.9343 6.694 38.9685 6.694 39.0028C6.694 39.0371 6.694 39.0714 6.694 39.1057C6.694 39.1401 6.694 39.1745 6.694 39.2089C6.694 39.2433 6.694 39.2778 6.694 39.3122C6.694 39.3467 6.694 39.3812 6.694 39.4158C6.694 39.4503 6.694 39.4849 6.694 39.5195C6.694 39.5541 6.694 39.5888 6.694 39.6234C6.694 39.6581 6.694 39.6928 6.694 39.7275C6.694 39.7623 6.694 39.797 6.694 39.8318C6.694 39.8666 6.694 39.9015 6.694 39.9363C6.694 39.9712 6.694 40.0061 6.694 40.041C6.694 40.0759 6.694 40.1108 6.694 40.1458C6.694 40.1808 6.694 40.2158 6.694 40.2508C6.694 40.2859 6.694 40.3209 6.694 40.356C6.694 40.3911 6.694 40.4262 6.694 40.4614C6.694 40.4965 6.694 40.5317 6.694 40.5669C6.694 40.6021 6.694 40.6373 6.694 40.6726C6.694 40.7078 6.694 40.7431 6.694 40.7784C6.694 40.8137 6.694 40.849 6.694 40.8844C6.694 40.9198 6.694 40.9552 6.694 40.9906C6.694 41.026 6.694 41.0614 6.694 41.0969C6.694 41.1324 6.694 41.1678 6.694 41.2034C6.694 41.2389 6.694 41.2744 6.694 41.31C6.694 41.3455 6.694 41.3811 6.694 41.4167C6.694 41.4524 6.694 41.488 6.694 41.5237C6.694 41.5593 6.694 41.595 6.694 41.6307C6.694 41.6664 6.694 41.7022 6.694 41.7379C6.694 41.7737 6.694 41.8094 6.694 41.8452C6.694 41.8811 6.694 41.9169 6.694 41.9527C6.694 41.9886 6.694 42.0244 6.694 42.0603C6.694 42.0962 6.694 42.1321 6.694 42.1681C6.694 42.204 6.694 42.2399 6.694 42.2759C6.694 42.3119 6.694 42.3479 6.694 42.3839C6.694 42.4199 6.694 42.456 6.694 42.492C6.694 42.5281 6.694 42.5641 6.694 42.6002C6.694 42.6363 6.694 42.6725 6.694 42.7086C6.694 42.7447 6.694 42.7809 6.694 42.8171C6.694 42.8532 6.694 42.8894 6.694 42.9256C6.694 42.9618 6.694 42.9981 6.694 43.0343C6.694 43.0706 6.694 43.1068 6.694 43.1431C6.694 43.1794 6.694 43.2157 6.694 43.252C6.694 43.2883 6.694 43.3247 6.694 43.361C6.694 43.3974 6.694 43.4338 6.694 43.4701C6.694 43.5065 6.694 43.5429 6.694 43.5793C6.694 43.6158 6.694 43.6522 6.694 43.6886C6.694 43.7251 6.694 43.7616 6.694 43.798C6.694 43.8345 6.694 43.871 6.694 43.9075C6.694 43.944 6.694 43.9806 6.694 44.0171C6.694 44.0536 6.694 44.0902 6.694 44.1268C6.694 44.1633 6.694 44.1999 6.694 44.2365C6.694 44.2731 6.694 44.3097 6.694 44.3463C6.694 44.383 6.694 44.4196 6.694 44.4562C6.694 44.4929 6.694 44.5295 6.694 44.5662C6.694 44.6029 6.694 44.6396 6.694 44.6763C6.694 44.713 6.694 44.7497 6.694 44.7864C6.694 44.8231 6.694 44.8599 6.694 44.8966C6.694 44.9333 6.694 44.9701 6.694 45.0069C6.694 45.0436 6.694 45.0804 6.694 45.1172C6.694 45.154 6.694 45.1908 6.694 45.2276C6.694 45.2644 6.694 45.3012 6.694 45.338C6.694 45.3748 6.694 45.4117 6.694 45.4485C6.694 45.4854 6.694 45.5222 6.694 45.5591C6.694 45.5959 6.694 45.6328 6.694 45.6697C6.694 45.7066 6.694 45.7434 6.694 45.7803C6.694 45.8172 6.694 45.8541 6.694 45.891C6.694 45.928 6.694 45.9649 6.694 46.0018C6.694 46.0387 6.694 46.0756 6.694 46.1126C6.694 46.1495 6.694 46.1865 6.694 46.2234C6.694 46.2604 6.694 46.2973 6.694 46.3343C6.694 46.3712 6.694 46.4082 6.694 46.4452C6.694 46.4822 6.694 46.5191 6.694 46.5561C6.694 46.5931 6.694 46.6301 6.694 46.6671C6.694 46.7041 6.694 46.7411 6.694 46.7781C6.694 46.8151 6.694 46.8521 6.694 46.8891C6.694 46.9261 6.694 46.9631 6.694 47.0001C6.694 47.0371 6.694 47.0742 6.694 47.1112C6.694 47.1482 6.694 47.1852 6.694 47.2222C6.694 47.2593 6.694 47.2963 6.694 47.3333C6.694 47.3704 6.694 47.4074 6.694 47.4444C6.694 47.4815 6.694 47.5185 6.694 47.5555C6.694 47.5926 6.694 47.6296 6.694 47.6667C6.694 47.7037 6.694 47.7407 6.694 47.7778C6.694 47.8148 6.694 47.8519 6.694 47.8889C6.694 47.9259 6.694 47.963 6.694 48C6.694 48.0371 6.694 48.0741 6.694 48.1112C6.694 48.1482 6.694 48.1852 6.694 48.2223C6.694 48.2593 6.694 48.2963 6.694 48.3334C6.694 48.3704 6.694 48.4074 6.694 48.4445C6.694 48.4815 6.694 48.5185 6.694 48.5556C6.694 48.5926 6.694 48.6296 6.694 48.6666C6.694 48.7037 6.694 48.7407 6.694 48.7777C6.694 48.8147 6.694 48.8517 6.694 48.8887C6.694 48.9257 6.694 48.9627 6.694 48.9997C6.694 49.0367 6.694 49.0737 6.694 49.1107C6.694 49.1477 6.694 49.1847 6.694 49.2217C6.694 49.2587 6.694 49.2956 6.694 49.3326C6.694 49.3696 6.694 49.4066 6.694 49.4435C6.694 49.4805 6.694 49.5174 6.694 49.5544C6.694 49.5913 6.694 49.6283 6.694 49.6652C6.694 49.7021 6.694 49.7391 6.694 49.776C6.694 49.8129 6.694 49.8498 6.694 49.8867C6.694 49.9237 6.694 49.9606 6.694 49.9974C6.694 50.0343 6.694 50.0712 6.694 50.1081C6.694 50.145 6.694 50.1819 6.694 50.2187C6.694 50.2556 6.694 50.2924 6.694 50.3293C6.694 50.3661 6.694 50.4029 6.694 50.4398C6.694 50.4766 6.694 50.5134 6.694 50.5502C6.694 50.587 6.694 50.6238 6.694 50.6606C6.694 50.6974 6.694 50.7341 6.694 50.7709C6.694 50.8077 6.694 50.8444 6.694 50.8812C6.694 50.9179 6.694 50.9546 6.694 50.9914C6.694 51.0281 6.694 51.0648 6.694 51.1015C6.694 51.1382 6.694 51.1749 6.694 51.2115C6.694 51.2482 6.694 51.2849 6.694 51.3215C6.694 51.3582 6.694 51.3948 6.694 51.4314C6.694 51.468 6.694 51.5046 6.694 51.5412C6.694 51.5778 6.694 51.6144 6.694 51.651C6.694 51.6875 6.694 51.7241 6.694 51.7606C6.694 51.7972 6.694 51.8337 6.694 51.8702C6.694 51.9067 6.694 51.9432 6.694 51.9797C6.694 52.0162 6.694 52.0526 6.694 52.0891C6.694 52.1255 6.694 52.162 6.694 52.1984C6.694 52.2348 6.694 52.2712 6.694 52.3076C6.694 52.344 6.694 52.3803 6.694 52.4167C6.694 52.453 6.694 52.4894 6.694 52.5257C6.694 52.562 6.694 52.5983 6.694 52.6346C6.694 52.6709 6.694 52.7071 6.694 52.7434C6.694 52.7796 6.694 52.8158 6.694 52.8521C6.694 52.8883 6.694 52.9245 6.694 52.9606C6.694 52.9968 6.694 53.0329 6.694 53.0691C6.694 53.1052 6.694 53.1413 6.694 53.1774C6.694 53.2135 6.694 53.2496 6.694 53.2857C6.694 53.3217 6.694 53.3577 6.694 53.3938C6.694 53.4298 6.694 53.4658 6.694 53.5017C6.694 53.5377 6.694 53.5737 6.694 53.6096C6.694 53.6455 6.694 53.6814 6.694 53.7173C6.694 53.7532 6.694 53.7891 6.694 53.8249C6.694 53.8608 6.694 53.8966 6.694 53.9324C6.694 53.9682 6.694 54.004 6.694 54.0397C6.694 54.0755 6.694 54.1112 6.694 54.1469C6.694 54.1826 6.694 54.2183 6.694 54.2539C6.694 54.2896 6.694 54.3252 6.694 54.3609C6.694 54.3965 6.694 54.4321 6.694 54.4676C6.694 54.5032 6.694 54.5387 6.694 54.5742C6.694 54.6097 6.694 54.6452 6.694 54.6807C6.694 54.7162 6.694 54.7516 6.694 54.787C6.694 54.8224 6.694 54.8578 6.694 54.8932C6.694 54.9285 6.694 54.9639 6.694 54.9992C6.694 55.0345 6.694 55.0697 6.694 55.105C6.694 55.1403 6.694 55.1755 6.694 55.2107C6.694 55.2459 6.694 55.281 6.694 55.3162C6.694 55.3513 6.694 55.3864 6.694 55.4215C6.694 55.4566 6.694 55.4917 6.694 55.5267C6.694 55.5617 6.694 55.5967 6.694 55.6317C6.694 55.6667 6.694 55.7016 6.694 55.7365C6.694 55.7714 6.694 55.8063 6.694 55.8412C6.694 55.876 6.694 55.9108 6.694 55.9456C6.694 55.9804 6.694 56.0152 6.694 56.0499C6.694 56.0847 6.694 56.1194 6.694 56.154C6.694 56.1887 6.694 56.2233 6.694 56.2579C6.694 56.2925 6.694 56.3271 6.694 56.3617C6.694 56.3962 6.694 56.4307 6.694 56.4652C6.694 56.4997 6.694 56.5341 6.694 56.5685C6.694 56.6029 6.694 56.6373 6.694 56.6717C6.694 56.706 6.694 56.7403 6.694 56.7746C6.694 56.8089 6.694 56.8431 6.694 56.8774C6.694 56.9116 6.694 56.9457 6.694 56.9799C6.694 57.014 6.694 57.0481 6.694 57.0822C6.694 57.1163 6.694 57.1503 6.694 57.1843C6.694 57.2183 6.694 57.2523 6.694 57.2862C6.694 57.3202 6.694 57.3541 6.694 57.3879C6.694 57.4218 6.694 57.4556 6.694 57.4894C6.694 57.5232 6.694 57.5569 6.694 57.5907C6.694 57.6244 6.694 57.6581 6.694 57.6917C6.694 57.7253 6.694 57.7589 6.694 57.7925C6.694 57.8261 6.694 57.8596 6.694 57.8931C6.694 57.9266 6.694 57.96 6.694 57.9934C6.694 58.0269 6.694 58.0602 6.694 58.0936C6.694 58.1269 6.694 58.1602 6.694 58.1935C6.694 58.2267 6.694 58.2599 6.694 58.2931C6.694 58.3263 6.694 58.3594 6.694 58.3925C6.694 58.4256 6.694 58.4587 6.694 58.4917C6.694 58.5247 6.694 58.5577 6.694 58.5906C6.694 58.6236 6.694 58.6564 6.694 58.6893C6.694 58.7222 6.694 58.755 6.694 58.7877C6.694 58.8205 6.694 58.8532 6.694 58.8859C6.694 58.9186 6.694 58.9512 6.694 58.9838C6.694 59.0164 6.694 59.049 6.694 59.0815C6.694 59.114 6.694 59.1465 6.694 59.1789C6.694 59.2114 6.694 59.2437 6.694 59.2761C6.694 59.3084 6.694 59.3407 6.694 59.373C6.694 59.4052 6.694 59.4374 6.694 59.4696C6.694 59.5018 6.694 59.5339 6.694 59.5659C6.694 59.598 6.694 59.63 6.694 59.662C6.694 59.694 6.694 59.7259 6.694 59.7578C6.694 59.7897 6.694 59.8216 6.694 59.8534C6.694 59.8852 6.694 59.9169 6.694 59.9486C6.694 59.9803 6.694 60.012 6.694 60.0436C6.694 60.0752 6.694 60.1068 6.694 60.1383C6.694 60.1698 6.694 60.2013 6.694 60.2327C6.694 60.2641 6.694 60.2955 6.694 60.3268C6.694 60.3581 6.694 60.3894 6.694 60.4206C6.694 60.4519 6.694 60.483 6.694 60.5142C6.694 60.5453 6.694 60.5764 6.694 60.6074C6.694 60.6384 6.694 60.6694 6.694 60.7003C6.694 60.7313 6.694 60.7622 6.694 60.793C6.694 60.8238 6.694 60.8546 6.694 60.8853C6.694 60.916 6.694 60.9467 6.694 60.9774C6.694 61.008 6.694 61.0386 6.694 61.0691C6.694 61.0996 6.694 61.1301 6.694 61.1605C6.694 61.1909 6.694 61.2213 6.694 61.2516C6.694 61.2819 6.694 61.3122 6.694 61.3424C6.694 61.3726 6.694 61.4027 6.694 61.4328C6.694 61.4629 6.694 61.493 6.694 61.523C6.694 61.553 6.694 61.5829 6.694 61.6128C6.694 61.6427 6.694 61.6725 6.694 61.7023C6.694 61.7321 6.694 61.7618 6.694 61.7915C6.694 61.8211 6.694 61.8508 6.694 61.8803C6.694 61.9099 6.694 61.9394 6.694 61.9688C6.694 61.9983 6.694 62.0277 6.694 62.057C6.694 62.0863 6.694 62.1156 6.694 62.1448C6.694 62.1741 6.694 62.2032 6.694 62.2323C6.694 62.2614 6.694 62.2905 6.694 62.3195C6.694 62.3485 6.694 62.3774 6.694 62.4063C6.694 62.4352 6.694 62.464 6.694 62.4928C6.694 62.5215 6.694 62.5502 6.694 62.5789C6.694 62.6075 6.694 62.6361 6.694 62.6646C6.694 62.6932 6.694 62.7216 6.694 62.75C6.694 62.7784 6.694 62.8068 6.694 62.8351C6.694 62.8634 6.694 62.8916 6.694 62.9198C6.694 62.9479 6.694 62.976 6.694 63.0041C6.694 63.0321 6.694 63.0601 6.694 63.0881C6.694 63.116 6.694 63.1438 6.694 63.1716C6.694 63.1995 6.694 63.2272 6.694 63.2549C6.694 63.2826 6.694 63.3102 6.694 63.3377C6.694 63.3653 6.694 63.3928 6.694 63.4202C6.694 63.4476 6.694 63.475 6.694 63.5023C6.694 63.5296 6.694 63.5569 6.694 63.584C6.694 63.6112 6.694 63.6383 6.694 63.6654C6.694 63.6924 6.694 63.7194 6.694 63.7463C6.694 63.7732 6.694 63.8001 6.694 63.8269C6.694 63.8537 6.694 63.8804 6.694 63.9071C6.694 63.9337 6.694 63.9603 6.694 63.9869C6.694 64.0134 6.694 64.0399 6.694 64.0663C6.694 64.0927 6.694 64.119 6.694 64.1453C6.694 64.1715 6.694 64.1977 6.694 64.2239C6.694 64.25 6.694 64.2761 6.694 64.3021C6.694 64.3281 6.694 64.354 6.694 64.3798C6.694 64.4057 6.694 64.4315 6.694 64.4572C6.694 64.483 6.694 64.5086 6.694 64.5342C6.694 64.5598 6.694 64.5853 6.694 64.6108C6.694 64.6362 6.694 64.6616 6.694 64.6869C6.694 64.7122 6.694 64.7375 6.694 64.7627C6.694 64.7878 6.694 64.813 6.694 64.838C6.694 64.863 6.694 64.888 6.694 64.9129C6.694 64.9378 6.694 64.9626 6.694 64.9874C6.694 65.0121 6.694 65.0368 6.694 65.0614C6.694 65.086 6.694 65.1106 6.694 65.135C6.694 65.1595 6.694 65.1839 6.694 65.2082C6.694 65.2325 6.694 65.2568 6.694 65.281C6.694 65.3051 6.694 65.3293 6.694 65.3533C6.694 65.3773 6.694 65.4013 6.694 65.4252C6.694 65.4491 6.694 65.4729 6.694 65.4966C6.694 65.5203 6.694 65.544 6.694 65.5676C6.694 65.5912 6.694 65.6147 6.694 65.6381C6.694 65.6616 6.694 65.685 6.694 65.7083C6.694 65.7315 6.694 65.7548 6.694 65.7779C6.694 65.801 6.694 65.8241 6.694 65.8471C6.694 65.8701 6.694 65.893 6.694 65.9158C6.694 65.9387 6.694 65.9614 6.694 65.9841C6.694 66.0068 6.694 66.0294 6.694 66.0519C6.694 66.0745 6.694 66.0969 6.694 66.1193C6.694 66.1417 6.694 66.164 6.694 66.1862C6.694 66.2084 6.694 66.2306 6.694 66.2526C6.694 66.2747 6.694 66.2967 6.694 66.3186C6.694 66.3405 6.694 66.3623 6.694 66.3841C6.694 66.4058 6.694 66.4275 6.694 66.4491C6.694 66.4707 6.694 66.4922 6.694 66.5136C6.694 66.535 6.694 66.5564 6.694 66.5777C6.694 66.5989 6.694 66.6201 6.694 66.6412C6.694 66.6623 6.694 66.6834 6.694 66.7043C6.694 66.7253 6.694 66.7461 6.694 66.7669C6.694 66.7877 6.694 66.8084 6.694 66.829C6.694 66.8496 6.694 66.8702 6.694 66.8906C6.694 66.9111 6.694 66.9314 6.694 66.9517C6.694 66.972 6.694 66.9922 6.694 67.0124C6.694 67.0325 6.694 67.0525 6.694 67.0725C6.694 67.0924 6.694 67.1123 6.694 67.1321C6.694 67.1519 6.694 67.1716 6.694 67.1912C6.694 67.2108 6.694 67.2304 6.694 67.2498C6.694 67.2693 6.694 67.2886 6.694 67.3079C6.694 67.3272 6.694 67.3464 6.694 67.3655C6.694 67.3846 6.694 67.4036 6.694 67.4225C6.694 67.4415 6.694 67.4603 6.694 67.4791C6.694 67.4979 6.694 67.5165 6.694 67.5351C6.694 67.5537 6.694 67.5722 6.694 67.5906C6.694 67.6091 6.694 67.6274 6.694 67.6456C6.694 67.6639 6.694 67.682 6.694 67.7001C6.694 67.7181 6.694 67.7361 6.694 67.754C6.694 67.7719 6.694 67.7897 6.694 67.8074C6.694 67.8251 6.694 67.8427 6.694 67.8603C6.694 67.8778 6.694 67.8952 6.694 67.9126C6.694 67.9299 6.694 67.9472 6.694 67.9644C6.694 67.9815 6.694 67.9986 6.694 68.0156C6.694 68.0326 6.694 68.0495 6.694 68.0663C6.694 68.0831 6.694 68.0998 6.694 68.1165C6.694 68.1331 6.694 68.1496 6.694 68.1661C6.694 68.1825 6.694 68.1989 6.694 68.2151C6.694 68.2314 6.694 68.2475 6.694 68.2636C6.694 68.2797 6.694 68.2957 6.694 68.3115C6.694 68.3274 6.694 68.3432 6.694 68.3589C6.694 68.3746 6.694 68.3902 6.694 68.4057C6.694 68.4213 6.694 68.4367 6.694 68.452C6.694 68.4673 6.694 68.4826 6.694 68.4977C6.694 68.5128 6.694 68.5279 6.694 68.5428C6.694 68.5578 6.694 68.5726 6.694 68.5874C6.694 68.6021 6.694 68.6168 6.694 68.6313C6.694 68.6459 6.694 68.6604 6.694 68.6747C6.694 68.6891 6.694 68.7034 6.694 68.7175C6.694 68.7317 6.694 68.7458 6.694 68.7598C6.694 68.7738 6.694 68.7876 6.694 68.8014C6.694 68.8152 6.694 68.8289 6.694 68.8425C6.694 68.8561 6.694 68.8696 6.694 68.883C6.694 68.8964 6.694 68.9097 6.694 68.9229C6.694 68.9361 6.694 68.9492 6.694 68.9622C6.694 68.9752 6.694 68.9881 6.694 69.0009C6.694 69.0137 6.694 69.0264 6.694 69.039C6.694 69.0516 6.694 69.0641 6.694 69.0765C6.694 69.0889 6.694 69.1012 6.694 69.1134C6.694 69.1256 6.694 69.1376 6.694 69.1496C6.694 69.1616 6.694 69.1735 6.694 69.1853C6.694 69.1971 6.694 69.2088 6.694 69.2204C6.694 69.232 6.694 69.2435 6.694 69.2549C6.694 69.2662 6.694 69.2775 6.694 69.2887C6.694 69.2999 6.694 69.3109 6.694 69.3219C6.694 69.3329 6.694 69.3438 6.694 69.3545C6.694 69.3653 6.694 69.3759 6.694 69.3865C6.694 69.3971 6.694 69.4075 6.694 69.4179C6.694 69.4282 6.694 69.4384 6.694 69.4486C6.694 69.4587 6.694 69.4688 6.694 69.4787C6.694 69.4886 6.694 69.4984 6.694 69.5081C6.694 69.5179 6.694 69.5275 6.694 69.537H10.26ZM10.26 26.4195C10.26 24.4301 11.1391 22.244 12.3278 20.2419C13.4965 18.2735 14.8497 16.6728 15.55 15.8976L12.9039 13.5072C12.1181 14.377 10.5963 16.1733 9.26155 18.4214C7.94676 20.6359 6.694 23.4857 6.694 26.4195H10.26ZM15.4723 15.947H63.2944V12.3811H15.4723V15.947ZM63.3453 16.1523C62.4167 17.5397 61.3386 19.281 60.4862 21.0381C59.6624 22.7362 58.9291 24.6862 58.9291 26.4195H62.495C62.495 25.5391 62.9137 24.2043 63.6946 22.5945C64.4469 21.0437 65.4264 19.4541 66.3087 18.1357L63.3453 16.1523ZM5.60429 76.5684L9.47487 71.7465L6.694 69.5143L2.82342 74.3362L5.60429 76.5684ZM58.9291 70.1414C58.9291 72.4237 58.0364 74.0174 56.9468 75.0534C55.7983 76.1453 54.4903 76.5684 53.785 76.5684V80.1344C55.5511 80.1344 57.7066 79.2514 59.4039 77.6377C61.1598 75.9682 62.495 73.4568 62.495 70.1414H58.9291ZM53.785 76.5684C51.7269 76.5684 17.1039 76.5684 5.58226 76.5684V80.1344C17.1039 80.1344 51.7269 80.1344 53.785 80.1344V76.5684ZM2.82342 74.3362C0.976727 76.6368 2.54685 80.1344 5.58226 80.1344V76.5684C5.57491 76.5684 5.57109 76.5679 5.57031 76.5678C5.56953 76.5677 5.57072 76.5678 5.57343 76.5686C5.57611 76.5695 5.57941 76.5707 5.58301 76.5724C5.58658 76.5741 5.58986 76.576 5.59272 76.5779C5.59851 76.5817 5.60121 76.5847 5.60167 76.5853C5.60197 76.5856 5.60074 76.5842 5.59921 76.5809C5.59769 76.5777 5.59684 76.5747 5.5965 76.5727C5.59619 76.571 5.59653 76.5716 5.59625 76.5744C5.59593 76.5776 5.59504 76.581 5.59421 76.583C5.5939 76.5838 5.59406 76.5832 5.59525 76.5812C5.59644 76.5791 5.59915 76.5748 5.60429 76.5684L2.82342 74.3362ZM63.2944 15.947C63.3049 15.947 63.3064 15.9483 63.3027 15.9472C63.2995 15.9462 63.298 15.9451 63.299 15.9458C63.3028 15.9483 63.322 15.9633 63.3403 15.9992C63.3587 16.0352 63.3649 16.071 63.3641 16.0964C63.3634 16.1156 63.3594 16.1311 63.3453 16.1523L66.3087 18.1357C67.8742 15.7967 66.3064 12.3811 63.2944 12.3811V15.947ZM15.55 15.8976C15.5304 15.9193 15.5081 15.9336 15.4906 15.9411C15.4743 15.948 15.4673 15.947 15.4723 15.947V12.3811C14.5324 12.3811 13.5856 12.7525 12.9039 13.5072L15.55 15.8976ZM6.694 69.537C6.694 69.537 6.694 69.5367 6.69402 69.5362C6.69404 69.5357 6.69408 69.535 6.69416 69.5341C6.69432 69.5323 6.69461 69.5299 6.69511 69.527C6.69617 69.521 6.69782 69.5149 6.69978 69.5094C6.70172 69.5041 6.70325 69.5014 6.70313 69.5016C6.70296 69.5019 6.70047 69.5063 6.694 69.5143L9.47487 71.7465C9.96758 71.1327 10.26 70.3727 10.26 69.537H6.694Z" fill="black" mask="url(#path-4-inside-4)"/>
<rect x="16.1505" y="27.536" width="38.3341" height="12.4809" fill="#F8006B" stroke="#F8006B" stroke-width="1.78298"/>
<path d="M16.1506 47.1494H27.74" stroke="black" stroke-width="1.78298" stroke-linecap="round" stroke-linejoin="round"/>
<path d="M32.1974 47.1494H54.4847" stroke="black" stroke-width="1.78298" stroke-linecap="round" stroke-linejoin="round"/>
<path d="M16.1506 50.7148H27.74" stroke="black" stroke-width="1.78298" stroke-linecap="round" stroke-linejoin="round"/>
<path d="M32.1974 50.7148H54.4847" stroke="black" stroke-width="1.78298" stroke-linecap="round" stroke-linejoin="round"/>
<path d="M16.1506 54.2812H27.74" stroke="black" stroke-width="1.78298" stroke-linecap="round" stroke-linejoin="round"/>
<path d="M32.1974 54.2812H54.4847" stroke="black" stroke-width="1.78298" stroke-linecap="round" stroke-linejoin="round"/>
<path d="M16.1506 57.8467H27.74" stroke="black" stroke-width="1.78298" stroke-linecap="round" stroke-linejoin="round"/>
<path d="M32.1974 57.8467H54.4847" stroke="black" stroke-width="1.78298" stroke-linecap="round" stroke-linejoin="round"/>
<path d="M16.1506 61.4131H27.74" stroke="black" stroke-width="1.78298" stroke-linecap="round" stroke-linejoin="round"/>
<path d="M32.1974 61.4131H54.4847" stroke="black" stroke-width="1.78298" stroke-linecap="round" stroke-linejoin="round"/>
<path d="M16.1506 64.9785H27.74" stroke="black" stroke-width="1.78298" stroke-linecap="round" stroke-linejoin="round"/>
<path d="M32.1974 64.9785H54.4847" stroke="black" stroke-width="1.78298" stroke-linecap="round" stroke-linejoin="round"/>
<path d="M19.7166 36.2659V31.2889L25.2788 36.2659V31.2889M33.3109 36.2659H28.2466V33.7774M33.3109 31.2889H28.2466V33.7774M28.2466 33.7774H33.3109M36.1651 31.2888L38.0191 36.2658L39.8732 33.9551L41.3565 36.2658L43.5813 31.2888M50.5861 31.9107C49.7597 30.9773 48.1069 30.9776 47.2806 31.2886C46.4542 31.5997 45.6278 33.466 47.2806 33.777C48.9333 34.0881 49.7597 33.466 50.5861 34.0881C51.4125 34.7102 50.5861 35.9544 49.3465 36.2655C48.1069 36.5766 46.8674 36.5763 46.041 35.6434" stroke="#F0F0F0" stroke-width="1.78298" stroke-linecap="round" stroke-linejoin="round"/>
<path d="M76.3262 41.3543L81.2294 35.5596" stroke="black" stroke-width="1.78298" stroke-linecap="round"/>
<path d="M78.1093 44.9202L86.1327 35.5596" stroke="black" stroke-width="1.78298" stroke-linecap="round"/>
<path d="M80.3379 48.0404L91.0358 35.5596" stroke="black" stroke-width="1.78298" stroke-linecap="round"/>
<path d="M82.1208 51.6064L95.939 35.5596" stroke="black" stroke-width="1.78298" stroke-linecap="round"/>
<path d="M83.9039 55.1728L97.722 39.126" stroke="black" stroke-width="1.78298" stroke-linecap="round"/>
<path d="M87.8492 20.4562L81.0327 25.983L90.2782 10.3978C90.8959 9.3565 90.5693 8.01247 89.5426 7.37077C86.8206 5.66949 79.4869 2.64522 70.4388 3.02222C65.6659 3.22109 61.1461 5.07064 57.5082 7.19013C54.3272 9.04342 51.6931 11.1776 49.9918 12.8267H16.5963C14.834 12.8267 13.3741 13.4937 12.6222 14.5404L11.4543 15.7081L11.4543 15.7082C6.69022 20.4723 6.28765 26.3045 6.78979 29.0892V70.6007C6.76117 70.671 6.67982 70.8554 6.47289 71.1543C6.09892 71.6945 5.38799 72.4936 4.11544 73.4481C3.66943 73.7826 3.2384 74.1663 2.90492 74.612C2.57965 75.0467 2.20538 75.7337 2.24577 76.6059C2.28954 77.5511 2.79262 78.2279 3.27582 78.6295C3.72095 78.9996 4.21606 79.2033 4.58702 79.3235C5.94773 79.7647 7.8768 79.7598 9.08605 79.6885H51.3645C56.024 79.6885 59.0533 77.6849 60.7618 74.9691C62.3459 72.4511 62.6676 69.5359 62.5081 67.5584V64.7108C66.9381 66.6403 71.6205 66.9902 75.8 66.596C81.0793 66.0981 85.7513 64.3988 88.5127 62.9369C89.5827 62.3704 90.0048 61.0534 89.4633 59.9705L88.1214 57.2867C98.5255 50.0153 101.003 39.4549 100.841 34.594C100.801 33.3926 99.8155 32.4395 98.6135 32.4395H95.3853C94.8447 26.8477 92.4016 22.5163 90.9778 20.776C90.2008 19.8263 88.8023 19.6834 87.8492 20.4562Z" stroke="black" stroke-width="4.45746" stroke-linecap="round" stroke-linejoin="round"/>
</svg>
