<svg width="77" height="76" viewBox="0 0 77 76" fill="none" xmlns="http://www.w3.org/2000/svg">
<path d="M52.8994 18.1903H73.4386V48.1565H64.8054H3.78602V43.4151V22.4197V18.1903H52.8994Z" stroke="black" stroke-width="1.78298" stroke-linecap="round" stroke-linejoin="bevel"/>
<path d="M31.8656 58.5735H8.24348C5.28934 58.5735 2.89453 56.1787 2.89453 53.2245V49.8425V17.2996V14.7113C2.89453 11.7571 5.28934 9.3623 8.24348 9.3623H68.9812C71.9353 9.3623 74.3301 11.7571 74.3301 14.7113V53.2245C74.3301 56.1787 71.9353 58.5735 68.9812 58.5735H45.359" stroke="black" stroke-width="4.45746" stroke-linecap="round"/>
<path d="M38.4746 14.6876L57.5218 22.9265C58.2364 23.2356 58.2392 24.248 57.5263 24.561L38.4793 32.9249C38.247 33.0269 37.9822 33.0251 37.7513 32.9199L19.3865 24.556C18.6884 24.238 18.6912 23.2453 19.3911 22.9313L37.7558 14.6924C37.9841 14.59 38.2449 14.5882 38.4746 14.6876Z" fill="#F8006B" stroke="#F0F0F0" stroke-width="1.78298"/>
<path d="M37.8326 34.4209L38.2155 34.603L38.5984 34.4209L48.0394 29.9307L48.0394 37.3227C48.0394 38.3284 47.2231 39.4668 45.3863 40.4068C43.597 41.3225 41.0632 41.9152 38.2155 41.9152C35.3679 41.9152 32.834 41.3225 31.0448 40.4068C29.208 39.4668 28.3917 38.3284 28.3917 37.3227L28.3917 29.9307L37.8326 34.4209Z" fill="#F8006B" stroke="#F8006B" stroke-width="1.78298"/>
<path d="M53.693 26.9326V40.3176" stroke="#F8006B" stroke-width="1.78298"/>
<path d="M50.5188 50.9874L52.3134 43.4922C52.766 43.936 52.8419 44.1736 54.108 44.5629C54.108 46.8234 54.1798 51.4871 54.4669 52.0581C54.7541 52.6292 51.9545 51.5823 50.5188 50.9874Z" fill="#F0F0F0" stroke="#F8006B" stroke-width="1.78298"/>
<path d="M56.868 48.8213L54.4868 49.8418L54.09 44.2857L55.1672 42.6982L56.868 48.8213Z" fill="#F0F0F0" stroke="#F8006B" stroke-width="1.78298"/>
<path d="M32.545 58.5732L29.8813 64.9231M44.3837 58.5732L47.3433 64.9231" stroke="black" stroke-width="4.45746" stroke-linecap="round"/>
<path d="M29.881 64.9229H25.3141C24.3294 64.9229 23.5311 65.7211 23.5311 66.7058V71.8709C23.5311 72.8556 24.3294 73.6539 25.3141 73.6539H51.9098C52.8945 73.6539 53.6928 72.8556 53.6928 71.8709V66.7058C53.6928 65.7211 52.8945 64.9229 51.9098 64.9229L47.7398 64.9229" stroke="black" stroke-width="4.45746" stroke-linecap="round"/>
<circle cx="38.1084" cy="52.7834" r="1.33724" stroke="black" stroke-width="1.78298"/>
<circle cx="53.6931" cy="41.9046" r="1.48969" fill="#F0F0F0" stroke="#F8006B" stroke-width="1.78298"/>
<path d="M32.2624 57.7793H44.5652" stroke="black" stroke-width="1.78298"/>
<path d="M29.8813 65.7168H47.3433" stroke="black" stroke-width="1.78298"/>
</svg>
