<svg width="129" height="17" viewBox="0 0 129 17" fill="none" xmlns="http://www.w3.org/2000/svg">
<path d="M24.9245 16.2706C27.8772 16.2706 29.7481 14.3096 29.7481 11.4921C29.7481 6.93902 24.8794 6.91652 24.8794 5.15842C24.8794 4.63992 25.2401 4.23422 25.8937 4.23422C26.7277 4.23422 27.4941 4.50472 28.1477 5.15842L29.5903 2.09292C28.6436 1.21392 27.2461 0.718018 25.7359 0.718018C22.4676 0.718018 20.8222 3.03962 20.8222 5.38382C20.8222 10.1622 25.7134 9.89182 25.7134 11.7851C25.7134 12.3261 25.3528 12.7543 24.654 12.7543C23.7299 12.7543 22.693 12.3712 21.9943 11.5597L20.394 14.6702C21.521 15.7296 22.941 16.2706 24.9245 16.2706ZM37 16.0001V9.93682L40.674 0.965918H36.4815L34.9939 6.19522L33.5288 0.965918H29.3364L33.0104 9.93682V16.0001H37ZM51.1158 16.0001V0.965918H47.1488V6.82632L44.9849 0.965918H40.9953V16.0001H44.9849V9.75652L47.4192 16.0001H51.1158ZM60.1144 16.0001V12.5289H56.5305V10.1172H59.9566V6.64602H56.5305V4.43712H60.1144V0.965918H52.5409V16.0001H60.1144ZM71.2778 16.0001L69.3619 10.027C70.1283 9.46352 71.1426 8.29142 71.1426 5.83462C71.1426 3.08472 69.1816 0.965918 66.4543 0.965918H61.225V16.0001H65.2146V10.9962H65.733L67.0178 16.0001H71.2778ZM65.8006 7.52512H65.2146V4.43712H65.8006C66.5895 4.43712 67.1079 5.00062 67.1079 5.99232C67.1079 6.96162 66.5895 7.52512 65.8006 7.52512ZM77.2457 16.2706C79.2968 16.2706 80.6267 15.4366 81.8213 14.1067V7.32222H76.9752V10.8159H78.3501V12.3261C78.1022 12.6191 77.7641 12.7543 77.2457 12.7543C76.5018 12.7543 75.8031 11.9429 75.8031 8.49432C75.8031 5.02312 76.5018 4.23422 77.2457 4.23422C78.0571 4.23422 78.3952 5.09072 78.553 6.06002L81.686 4.91042C81.1451 2.61132 79.68 0.718018 77.2457 0.718018C73.504 0.718018 71.7459 3.87362 71.7459 8.49432C71.7459 13.0924 73.4815 16.2706 77.2457 16.2706ZM88.9608 16.0001V9.93682L92.6348 0.965918H88.4424L86.9548 6.19522L85.4897 0.965918H81.2972L84.9712 9.93682V16.0001H88.9608ZM92.9613 16.2706C94.1334 16.2706 95.1252 15.2788 95.1252 14.1067C95.1252 12.9347 94.1334 11.9429 92.9613 11.9429C91.7892 11.9429 90.82 12.9347 90.82 14.1067C90.82 15.2788 91.7892 16.2706 92.9613 16.2706ZM100.975 16.0001C103.432 16.0001 104.469 14.3096 104.469 11.9429C104.469 10.1172 103.545 8.47172 102.17 8.24632C103.432 7.84062 104.266 6.69112 104.266 4.79772C104.266 2.63392 103.162 0.965918 100.817 0.965918H96.8503V16.0001H100.975ZM100.254 7.29972H99.1944V3.03962H100.254C101.449 3.03962 101.854 3.94122 101.854 5.18092C101.854 6.42062 101.449 7.29972 100.254 7.29972ZM100.344 13.9264H99.1944V9.37332H100.344C101.539 9.37332 102.057 10.3876 102.057 11.6499C102.057 13.0924 101.539 13.9264 100.344 13.9264ZM113.725 16.0001L110.66 0.965918H107.955L104.89 16.0001H107.301L107.82 12.9347H110.795L111.313 16.0001H113.725ZM110.525 10.861H108.09L109.307 3.64822L110.525 10.861ZM117.296 16.2706C119.686 16.2706 121.241 14.5125 121.241 12.1007C121.241 7.61522 116.508 7.18702 116.508 4.59492C116.508 3.51292 117.184 2.81422 118.063 2.81422C118.829 2.81422 119.505 3.08472 120.069 3.67072L121.016 1.86752C120.249 1.12372 119.167 0.718018 117.995 0.718018C115.606 0.718018 114.118 2.49862 114.118 4.70762C114.118 9.14792 118.852 9.23812 118.852 12.2359C118.852 13.3855 118.13 14.1744 117.161 14.1744C116.305 14.1744 115.358 13.7461 114.772 12.9797L113.713 14.828C114.592 15.7747 115.786 16.2706 117.296 16.2706ZM128.858 16.0001V13.9264H125.049V9.37332H128.7V7.29972H125.049V3.03962H128.858V0.965918H122.704V16.0001H128.858Z" fill="white"/>
<path d="M0.498047 0.596191V16.4454H16.31V0.596191H0.498047ZM2.94739 13.9974V3.05129H13.8677V13.9974H2.94739Z" fill="white"/>
<path d="M10.0574 13.6034V10.1353L8.45721 8.52433L10.0644 6.90643V3.43823L4.99023 8.52433L10.0574 13.6034Z" fill="white"/>
</svg>
