<svg width="194" height="278" viewBox="0 0 194 278" fill="none" xmlns="http://www.w3.org/2000/svg">
<path d="M12.6089 229.221C9.42399 229.221 6.78473 228.548 4.69109 227.203C2.59744 225.858 1.13824 224.031 0.300781 221.747L6.88624 217.915C8.00285 220.58 9.98229 221.912 12.8246 221.912C15.172 221.912 16.352 221.24 16.352 219.895C16.352 219.006 15.6795 218.283 14.3345 217.75C13.7635 217.522 12.4947 217.128 10.5533 216.583C7.79983 215.783 5.61737 214.654 4.01858 213.208C2.40711 211.761 1.60772 209.744 1.60772 207.168C1.60772 204.389 2.61013 202.13 4.60227 200.417C6.5944 198.692 9.08139 197.842 12.0632 197.842C14.5883 197.842 16.8215 198.425 18.7756 199.605C20.7297 200.785 22.2142 202.486 23.2547 204.719L16.8088 208.5C15.8572 206.267 14.2965 205.15 12.114 205.15C11.2004 205.15 10.5025 205.341 10.0331 205.709C9.56357 206.077 9.32248 206.559 9.32248 207.13C9.32248 207.79 9.67776 208.348 10.3756 208.805C11.0735 209.261 12.4439 209.794 14.4868 210.391C15.946 210.822 17.1261 211.228 18.0143 211.596C18.9025 211.964 19.8795 212.51 20.9327 213.208C21.9859 213.906 22.7852 214.819 23.2928 215.923C23.813 217.027 24.0668 218.321 24.0668 219.818C24.0668 222.775 23.0136 225.084 20.9327 226.747C18.8137 228.396 16.0475 229.221 12.6089 229.221Z" fill="white"/>
<path d="M51.1759 198.476L41.0249 217.014V228.586H33.3229V217.103L23.1719 198.476H31.8129L37.1422 209.617L42.5222 198.476H51.1759Z" fill="white"/>
<path d="M70.1525 198.476H77.8039V228.586H71.8655L61.245 213.449V228.586H53.543V198.476H59.5321L70.1525 213.614V198.476Z" fill="white"/>
<path d="M90.2675 221.354H101.928V228.574H82.5781V198.476H101.713V205.658H90.2675V209.832H100.634V216.925H90.2675V221.354Z" fill="white"/>
<path d="M121.291 228.573L116.038 218.854H113.284V228.573H105.582V198.476H117.624C120.694 198.476 123.27 199.453 125.338 201.419C127.419 203.386 128.46 205.873 128.46 208.88C128.46 210.682 128.003 212.345 127.089 213.842C126.176 215.352 124.92 216.544 123.346 217.433L129.538 228.573H121.291ZM113.297 205.569V212.319H117.56C118.512 212.345 119.286 212.053 119.882 211.418C120.479 210.784 120.783 209.972 120.783 208.969C120.783 207.967 120.479 207.155 119.882 206.52C119.286 205.886 118.512 205.569 117.56 205.569H113.297Z" fill="white"/>
<path d="M161.71 211.33V214.388C161.71 218.803 160.326 222.382 157.56 225.122C154.794 227.863 151.203 229.233 146.788 229.233C142.08 229.233 138.223 227.724 135.203 224.716C132.183 221.709 130.66 217.991 130.66 213.576C130.66 209.16 132.17 205.429 135.177 202.397C138.185 199.351 141.915 197.842 146.356 197.842C149.16 197.842 151.736 198.476 154.071 199.732C156.406 200.988 158.233 202.676 159.552 204.77L153.018 208.513C152.421 207.561 151.533 206.812 150.378 206.229C149.211 205.658 147.904 205.366 146.445 205.366C144.059 205.366 142.118 206.14 140.595 207.688C139.073 209.236 138.311 211.215 138.311 213.626C138.311 215.948 139.06 217.915 140.57 219.514C142.08 221.125 144.186 221.925 146.914 221.925C150.417 221.925 152.726 220.605 153.843 217.966H146.534V211.342H161.71V211.33Z" fill="white"/>
<path d="M188.328 198.476L178.177 217.014V228.586H170.475V217.103L160.324 198.476H168.965L174.295 209.617L179.675 198.476H188.328Z" fill="white"/>
<path d="M189.412 229.182C188.143 229.182 187.077 228.751 186.201 227.875C185.326 227 184.895 225.947 184.895 224.716C184.895 223.485 185.339 222.432 186.227 221.556C187.115 220.681 188.181 220.249 189.412 220.249C190.643 220.249 191.696 220.681 192.571 221.556C193.447 222.432 193.878 223.485 193.878 224.716C193.878 225.947 193.447 227 192.571 227.875C191.696 228.751 190.643 229.182 189.412 229.182Z" fill="#FF0099"/>
<path d="M33.7574 271.554C29.9989 275.313 25.4034 277.208 19.971 277.208C14.5544 277.208 9.959 275.329 6.18474 271.554C2.42628 267.796 0.53125 263.201 0.53125 257.768C0.53125 252.336 2.41049 247.756 6.18474 243.982C9.94321 240.223 14.5386 238.328 19.971 238.328C25.4034 238.328 29.9831 240.208 33.7574 243.982C37.5158 247.74 39.4108 252.336 39.4108 257.768C39.4108 263.201 37.5158 267.78 33.7574 271.554ZM10.5275 267.37C13.0858 269.928 16.2284 271.191 19.971 271.191C23.7137 271.191 26.8721 269.912 29.4146 267.37C31.9729 264.811 33.2362 261.621 33.2362 257.768C33.2362 253.915 31.9571 250.709 29.4146 248.167C26.8563 245.608 23.7137 244.345 19.971 244.345C16.2284 244.345 13.07 245.624 10.5275 248.167C7.96922 250.725 6.70588 253.915 6.70588 257.768C6.69008 261.621 7.96922 264.827 10.5275 267.37Z" fill="white"/>
<path d="M67.4977 238.328H73.5768V276.03H68.8226L51.38 250.451V276.03H45.3008V238.328H50.055L67.4977 263.907V238.328Z" fill="white"/>
<path d="M87.0749 270.101H103.022V276.03H80.6367V238.328H87.0749V270.101Z" fill="white"/>
<path d="M106.566 238.328H113.635V276.03H106.566V238.328Z" fill="white"/>
<path d="M142.896 238.328H148.975V276.03H144.221L126.778 250.451V276.03H120.699V238.328H125.453L142.896 263.907V238.328Z" fill="white"/>
<path d="M163.27 270.101H179.608V276.03H157.223V238.328H179.359V244.257H163.285V254.064H178.038V259.929H163.285V270.101H163.27Z" fill="white"/>
<path d="M2.9375 0.125183V183.865H186.678V0.125183H2.9375ZM31.3972 155.405V28.5849H158.218V155.405H31.3972Z" fill="#FF0099"/>
<path d="M113.986 150.841V110.612L95.3694 91.9958L114.057 73.2367V33.0079L55.1406 91.9958L113.986 150.841Z" fill="#FF0099"/>
</svg>
