<svg width="150" height="47" viewBox="0 0 150 47" fill="none" xmlns="http://www.w3.org/2000/svg">
<path d="M61.0076 -0.000168633C62.2909 -0.000168633 63.5742 0.340589 64.7095 1.0221C64.8082 1.2655 64.8575 1.80098 64.8575 2.62854C64.8575 3.45609 64.8575 3.94289 64.7095 4.08893C63.0806 3.16401 61.8467 2.67721 61.0076 2.67721C60.514 2.67721 60.1685 2.77457 59.8723 3.01797C59.5762 3.26137 59.4775 3.55345 59.4775 3.94289C59.4775 4.33232 59.6256 4.6244 59.9711 4.81912C60.3166 5.01384 60.9582 5.25724 61.896 5.54932C62.3896 5.69536 62.8338 5.89007 63.2287 6.03611C63.6236 6.18215 64.0184 6.42555 64.4133 6.76631C64.8082 7.05839 65.1537 7.4965 65.4005 7.9833C65.6473 8.4701 65.746 9.05425 65.746 9.68709C65.746 11.0501 65.3018 12.0724 64.3639 12.8026C63.4261 13.5328 62.2415 13.9222 60.8102 13.9222C59.28 13.9222 57.898 13.5815 56.7628 12.9C56.6641 12.6566 56.6147 12.1211 56.6147 11.2935C56.6147 10.466 56.6147 9.93049 56.7628 9.78445C58.3916 10.7094 59.6749 11.1962 60.7114 11.1962C61.2544 11.1962 61.6986 11.0501 61.9948 10.8554C62.2909 10.6607 62.439 10.3199 62.439 9.93049C62.439 9.54105 62.2909 9.29765 61.9454 9.10293C61.5999 8.90822 60.9582 8.66482 59.9711 8.32406C59.4775 8.17802 59.0826 7.9833 58.6877 7.83726C58.2929 7.64254 57.898 7.39915 57.5031 7.10707C57.1083 6.81499 56.7628 6.42555 56.5653 5.93875C56.3185 5.45196 56.2198 4.91648 56.2198 4.33232C56.2198 3.11533 56.6641 2.09306 57.5031 1.31418C58.3916 0.486628 59.5762 0.0971908 61.1063 0.0971908L61.0076 -0.000168633Z" fill="#0062FE"/>
<path d="M74.927 13.6302C73.8412 13.8249 72.7553 13.8249 71.62 13.6302V9.05429L66.7335 0.389306C67.2271 0.291947 67.8194 0.243267 68.5105 0.243267C69.2015 0.243267 69.7938 0.291947 70.2873 0.389306L73.2982 6.03615L76.3091 0.389306C76.8027 0.291947 77.3949 0.243267 78.086 0.243267C78.777 0.243267 79.3693 0.291947 79.8629 0.389306L74.9764 9.05429L74.927 13.6302Z" fill="#0062FE"/>
<path d="M93.7325 13.6302C92.8441 13.7762 92.005 13.7762 91.1659 13.6302L84.8974 5.84141V13.6302C83.8115 13.8249 82.7256 13.8249 81.5904 13.6302V0.340604C82.4788 0.194565 83.3179 0.194565 84.157 0.340604L90.4255 8.12936V0.340604C91.5114 0.145885 92.5973 0.145885 93.7325 0.340604V13.6302Z" fill="#0062FE"/>
<path d="M106.121 10.9042C106.269 11.7804 106.269 12.7053 106.121 13.6302H96.7432V0.340672H106.121C106.269 1.26559 106.269 2.14182 106.121 3.06673H100.05V5.5494H105.43C105.578 6.47431 105.578 7.35055 105.43 8.27546H100.05V10.9042H106.121Z" fill="#0062FE"/>
<path d="M114.068 0.389352C115.598 0.389352 116.782 0.778789 117.72 1.60634C118.658 2.4339 119.151 3.50485 119.151 4.77052C119.151 5.64676 118.905 6.42563 118.46 7.10715C118.016 7.78867 117.375 8.27546 116.585 8.61622L119.842 13.5815C119.349 13.6789 118.757 13.7276 118.066 13.7276C117.325 13.7276 116.733 13.6789 116.289 13.5815L113.327 9.10302H112.044V13.6302C110.958 13.8249 109.872 13.8249 108.737 13.6302V0.340672L114.068 0.389352ZM111.994 6.42563H114.068C114.561 6.42563 114.956 6.2796 115.301 5.98752C115.647 5.69544 115.795 5.306 115.795 4.72184C115.795 4.18637 115.647 3.74825 115.301 3.45617C114.956 3.16409 114.561 3.01806 114.117 3.01806H112.044L111.994 6.42563Z" fill="#0062FE"/>
<path d="M129.863 7.10699C130.948 6.91227 132.034 6.91227 133.12 7.10699V12.8512C132.676 13.0946 132.034 13.338 131.195 13.5814C130.356 13.7761 129.468 13.8735 128.579 13.8735C126.259 13.8735 124.433 13.192 123.051 11.8776C121.669 10.5632 120.978 8.90814 120.978 6.96095C120.978 5.01376 121.669 3.35865 123.051 2.0443C124.433 0.729951 126.309 -0.000244141 128.629 -0.000244141C130.257 -0.000244141 131.59 0.340514 132.725 1.02203C132.824 1.26543 132.873 1.75222 132.873 2.5311C132.873 3.30998 132.873 3.79677 132.725 3.94281C131.343 3.11526 130.011 2.67714 128.826 2.67714C127.543 2.67714 126.506 3.06658 125.667 3.84545C124.828 4.62433 124.384 5.6466 124.384 6.91227C124.384 8.22662 124.779 9.2489 125.667 10.0278C126.506 10.8066 127.592 11.1961 128.826 11.1961C129.122 11.1961 129.517 11.1474 129.912 11.0987L129.863 7.10699Z" fill="#0062FE"/>
<path d="M142.795 13.6302C141.709 13.8249 140.623 13.8249 139.488 13.6302V9.05429L134.601 0.389306C135.095 0.291947 135.687 0.243267 136.378 0.243267C137.069 0.243267 137.661 0.291947 138.155 0.389306L141.166 6.03615L144.177 0.389306C144.67 0.291947 145.263 0.243267 145.954 0.243267C146.645 0.243267 147.237 0.291947 147.73 0.389306L142.844 9.05429L142.795 13.6302Z" fill="#0062FE"/>
<path d="M71.1255 40.5985C73.7415 40.5985 76.5056 39.6736 79.4671 37.8725C79.6645 38.2132 79.7632 39.2355 79.7139 40.9393C79.6645 42.6431 79.5658 43.714 79.4177 44.2008C77.0485 45.6612 74.1364 46.3914 70.6813 46.3914C65.7948 46.3914 61.8461 44.931 58.8846 42.1076C55.9231 39.2842 54.4424 35.7305 54.4424 31.5441C54.4424 27.3576 55.9231 23.8527 58.8846 20.9806C61.8461 18.1572 65.7948 16.6968 70.6813 16.6968C74.1364 16.6968 77.0485 17.427 79.4177 18.8874C79.6151 19.3742 79.6645 20.4451 79.7139 22.1489C79.7632 23.8527 79.6645 24.875 79.4671 25.2157C76.5056 23.4146 73.7415 22.4897 71.1255 22.4897C68.4108 22.4897 66.1897 23.3172 64.3634 24.9723C62.5371 26.6274 61.6981 28.9154 61.6981 31.6415C61.6981 34.3675 62.5865 36.5581 64.4128 38.2132C66.239 39.8683 68.4601 40.6959 71.1749 40.6959L71.1255 40.5985Z" fill="#0062FE"/>
<path d="M96.7428 17.5731C99.9511 17.5731 102.567 18.4494 104.541 20.2018C106.516 21.9543 107.552 24.1936 107.552 27.017C107.552 28.9155 107.059 30.5706 106.072 31.9823C105.084 33.4427 103.752 34.5137 102.073 35.2439L109.082 45.856C108.046 46.0507 106.763 46.0994 105.232 46.0994C103.702 46.0994 102.419 46.0021 101.382 45.856L95.0646 36.2661H92.3005V45.856C89.9807 46.2455 87.6115 46.2455 85.2917 45.856V17.5244L96.7428 17.5731ZM92.3005 30.5219H96.7428C97.7793 30.5219 98.6678 30.2298 99.3588 29.597C100.05 28.9642 100.395 28.1366 100.395 26.9196C100.395 25.7026 100.05 24.8751 99.3588 24.2422C98.6678 23.6094 97.8287 23.3173 96.7922 23.3173H92.3499L92.3005 30.5219Z" fill="#0062FE"/>
<path d="M150.001 45.856C147.681 46.2454 145.41 46.2454 143.09 45.856L139.537 29.9377L133.712 45.856C131.837 46.1481 129.912 46.1481 128.036 45.856L122.212 29.9377L118.658 45.856C116.338 46.2454 114.068 46.2454 111.748 45.856L118.559 17.5244C120.534 17.1837 122.557 17.1837 124.532 17.5244L130.899 34.8544L137.266 17.5244C139.241 17.1837 141.264 17.1837 143.239 17.5244L150.001 45.856Z" fill="#0062FE"/>
<path d="M0 0.194702V45.8563H46.2981V0.194702H0ZM40.5232 40.1607H5.77493V5.89023H40.5232V40.1607ZM28.7759 38.1649L13.3761 23.0255L28.7759 7.83741V15.9182L21.5696 23.0255L28.7759 30.1327V38.1649Z" fill="#0CB0FF"/>
</svg>
