<svg width="173" height="44" viewBox="0 0 173 44" fill="none" xmlns="http://www.w3.org/2000/svg">
<path d="M64.7999 14.0336C64.7999 13.3727 64.5628 12.8577 64.0885 12.4886C63.6228 12.1196 62.7992 11.7376 61.6178 11.3428C60.4363 10.948 59.4704 10.566 58.7202 10.1969C56.2797 9.00384 55.0594 7.36444 55.0594 5.27871C55.0594 4.24013 55.3612 3.32601 55.9649 2.53635C56.5772 1.73811 57.4396 1.12012 58.552 0.682369C59.6645 0.23604 60.9149 0.0128749 62.3033 0.0128749C63.6573 0.0128749 64.8689 0.253206 65.9383 0.733869C67.0162 1.21453 67.8527 1.90119 68.4478 2.79385C69.0428 3.67793 69.3403 4.69075 69.3403 5.83233H64.8129C64.8129 5.06842 64.5757 4.47617 64.1014 4.05559C63.6357 3.63501 63.0019 3.42472 62.1999 3.42472C61.3892 3.42472 60.7468 3.60497 60.2725 3.96547C59.8068 4.31738 59.5739 4.768 59.5739 5.31733C59.5739 5.79799 59.8326 6.23574 60.3501 6.63057C60.8675 7.01682 61.7773 7.42023 63.0795 7.84081C64.3817 8.25281 65.451 8.69914 66.2875 9.1798C68.3227 10.3471 69.3403 11.9565 69.3403 14.0079C69.3403 15.6473 68.7194 16.9348 67.4776 17.8704C66.2358 18.8059 64.5326 19.2737 62.368 19.2737C60.8416 19.2737 59.4575 19.0033 58.2157 18.4626C56.9825 17.9133 56.0511 17.1665 55.4216 16.2224C54.8007 15.2696 54.4902 14.1753 54.4902 12.9393H59.0436C59.0436 13.9435 59.3023 14.686 59.8197 15.1666C60.3458 15.6387 61.1952 15.8747 62.368 15.8747C63.1183 15.8747 63.709 15.716 64.1402 15.3984C64.58 15.0722 64.7999 14.6173 64.7999 14.0336Z" fill="black"/>
<path d="M78.5634 8.40731L82.0302 0.270373H86.9328L80.866 12.2826V19.0162H76.2609V12.2826L70.207 0.270373H75.0837L78.5634 8.40731Z" fill="black"/>
<path d="M104.034 19.0162H99.5191L92.8443 7.35157V19.0162H88.3039V0.270373H92.8443L99.5062 11.935V0.270373H104.034V19.0162Z" fill="black"/>
<path d="M118.586 11.0724H111.446V15.54H119.88V19.0162H106.905V0.270373H119.906V3.75947H111.446V7.71206H118.586V11.0724Z" fill="black"/>
<path d="M128.728 12.3985H126.27V19.0162H121.73V0.270373H129.142C131.375 0.270373 133.122 0.763911 134.381 1.75099C135.64 2.73806 136.269 4.13284 136.269 5.93533C136.269 7.23998 136.002 8.32147 135.467 9.1798C134.941 10.0381 134.113 10.7334 132.984 11.2655L136.916 18.8231V19.0162H132.052L128.728 12.3985ZM126.27 8.90943H129.142C130.004 8.90943 130.651 8.68626 131.082 8.23993C131.522 7.78502 131.742 7.15415 131.742 6.34732C131.742 5.5405 131.522 4.90963 131.082 4.45471C130.642 3.99122 129.995 3.75947 129.142 3.75947H126.27V8.90943Z" fill="black"/>
<path d="M154.431 16.6987C153.732 17.4712 152.71 18.0935 151.365 18.5656C150.02 19.0377 148.545 19.2737 146.941 19.2737C144.475 19.2737 142.504 18.5227 141.03 17.0206C139.555 15.5185 138.766 13.4285 138.662 10.7505L138.649 9.1283C138.649 7.2829 138.977 5.67354 139.632 4.30022C140.288 2.91831 141.224 1.85828 142.439 1.12012C143.664 0.373372 145.078 0 146.682 0C149.028 0 150.848 0.536454 152.141 1.60936C153.443 2.67369 154.202 4.26588 154.418 6.38595H150.046C149.89 5.33879 149.554 4.59205 149.037 4.14572C148.519 3.69939 147.786 3.47622 146.838 3.47622C145.699 3.47622 144.82 3.95688 144.199 4.91821C143.578 5.87954 143.263 7.25286 143.254 9.03818V10.1712C143.254 12.0423 143.574 13.45 144.212 14.3941C144.858 15.3297 145.872 15.7975 147.252 15.7975C148.433 15.7975 149.313 15.5357 149.89 15.0121V12.1024H146.734V8.99955H154.431V16.6987Z" fill="black"/>
<path d="M163.964 8.40731L167.431 0.270373H172.334L166.267 12.2826V19.0162H161.662V12.2826L155.608 0.270373H160.485L163.964 8.40731Z" fill="black"/>
<path d="M55.0853 43.5561V24.8103H61.8506C64.2739 24.8103 66.115 25.2523 67.3741 26.1364C68.6418 27.0205 69.2756 28.3037 69.2756 29.986C69.2756 30.9559 69.0514 31.7842 68.603 32.4709C68.1546 33.1575 67.4948 33.6639 66.6238 33.9901C67.607 34.2476 68.3615 34.7283 68.8876 35.4321C69.4136 36.1359 69.6766 36.9942 69.6766 38.0071C69.6766 39.8439 69.0902 41.2258 67.9174 42.1528C66.7532 43.0712 65.0241 43.539 62.7302 43.5561H55.0853ZM59.6257 35.5866V40.0799H62.6009C63.4201 40.0799 64.0497 39.8954 64.4895 39.5263C64.9293 39.1486 65.1492 38.6208 65.1492 37.9427C65.1492 36.3805 64.3687 35.5952 62.8078 35.5866H59.6257ZM59.6257 32.6254H61.9929C62.9846 32.6168 63.6918 32.4365 64.1143 32.0846C64.5369 31.7327 64.7482 31.2134 64.7482 30.5267C64.7482 29.7371 64.5196 29.1706 64.0626 28.8273C63.6055 28.4753 62.8682 28.2994 61.8506 28.2994H59.6257V32.6254Z" fill="black"/>
<path d="M82.8839 40.0542H76.6619L75.5753 43.5561H70.7244L77.6321 24.8103H81.9008L88.8602 43.5561H83.9834L82.8839 40.0542ZM77.7485 36.5651H81.7973L79.7664 30.0632L77.7485 36.5651Z" fill="black"/>
<path d="M99.9589 38.5736C99.9589 37.9126 99.7218 37.3976 99.2475 37.0286C98.7818 36.6595 97.9582 36.2775 96.7768 35.8827C95.5953 35.4879 94.6295 35.1059 93.8792 34.7368C91.4387 33.5438 90.2184 31.9044 90.2184 29.8186C90.2184 28.7801 90.5202 27.8659 91.1239 27.0763C91.7362 26.278 92.5986 25.66 93.711 25.2223C94.8235 24.776 96.0739 24.5528 97.4624 24.5528C98.8163 24.5528 100.028 24.7931 101.097 25.2738C102.175 25.7545 103.012 26.4411 103.607 27.3338C104.202 28.2178 104.499 29.2307 104.499 30.3722H99.9719C99.9719 29.6083 99.7347 29.0161 99.2604 28.5955C98.7947 28.1749 98.1609 27.9646 97.3589 27.9646C96.5482 27.9646 95.9058 28.1449 95.4315 28.5054C94.9658 28.8573 94.7329 29.3079 94.7329 29.8573C94.7329 30.3379 94.9916 30.7757 95.5091 31.1705C96.0265 31.5567 96.9363 31.9602 98.2385 32.3807C99.5407 32.7927 100.61 33.2391 101.447 33.7197C103.482 34.887 104.499 36.4964 104.499 38.5478C104.499 40.1872 103.878 41.4747 102.637 42.4103C101.395 43.3458 99.6916 43.8136 97.527 43.8136C96.0006 43.8136 94.6165 43.5433 93.3747 43.0025C92.1415 42.4532 91.2101 41.7064 90.5806 40.7623C89.9597 39.8095 89.6492 38.7152 89.6492 37.4792H94.2026C94.2026 38.4834 94.4613 39.2259 94.9787 39.7065C95.5048 40.1786 96.3542 40.4147 97.527 40.4147C98.2773 40.4147 98.868 40.2559 99.2992 39.9383C99.739 39.6121 99.9589 39.1572 99.9589 38.5736Z" fill="black"/>
<path d="M118.509 35.6123H111.368V40.0799H119.802V43.5561H106.828V24.8103H119.828V28.2994H111.368V32.252H118.509V35.6123Z" fill="black"/>
<path d="M0 0.250275V43.556H43.51V0.250275H0ZM37.9849 38.0569H5.40997V5.63485H37.9849V38.0569ZM27.0499 36.2238L12.5465 21.7886L27.0499 7.4679V15.1438L20.2586 21.9031L27.0499 28.6625V36.2238Z" fill="#FA8213"/>
</svg>
