<svg width="247" height="46" viewBox="0 0 247 46" fill="none" xmlns="http://www.w3.org/2000/svg">
<path d="M28.9195 37.8326V29.7699L21.8646 22.7151L28.9195 15.6602V7.59752L13.8794 22.7151L28.9195 37.8326Z" fill="#ED1C24"/>
<path d="M0.700195 45.4302H46.2079V0H0.700195V45.4302ZM6.35959 5.65939H40.471V39.7708H6.35959V5.65939Z" fill="#ED1C24"/>
<path d="M71.094 4.96155C73.1872 4.96155 75.513 5.73681 77.9163 7.2098C78.0713 6.8997 78.2264 6.12444 78.1489 4.65144C78.1489 3.25598 78.0713 2.32566 77.9163 1.93804C75.9781 0.775146 73.5748 0.154938 70.7839 0.154938C66.7526 0.154938 63.574 1.31783 61.1707 3.72113C58.7674 6.04691 57.6045 8.9929 57.6045 12.4816C57.6045 15.9702 58.7674 18.8387 61.1707 21.242C63.574 23.5678 66.8301 24.8082 70.7839 24.8082C73.5748 24.8082 75.9781 24.188 77.9163 23.0251C78.0713 22.6375 78.1489 21.7072 78.1489 20.3117C78.1489 18.9162 78.0713 18.0634 77.9163 17.7533C75.513 19.2263 73.2647 20.0016 71.094 20.0016C68.9233 20.0016 67.0627 19.3039 65.5897 17.9859C64.1167 16.5904 63.4189 14.8073 63.4189 12.5591C63.4189 10.3108 64.1167 8.45022 65.5897 7.13227C67.0627 5.65928 68.9233 4.96155 71.094 4.96155Z" fill="#1B3281"/>
<path d="M104.43 24.1106V0.697733C102.879 0.465155 101.406 0.465155 99.9334 0.697733L89.0022 14.4198V0.697733C87.0641 0.387629 85.1259 0.387629 83.2653 0.697733V24.1106C84.8158 24.3432 86.2888 24.3432 87.7618 24.1106L98.6929 10.3885V24.1106C100.631 24.4982 102.569 24.4982 104.43 24.1106Z" fill="#1B3281"/>
<path d="M131.254 24.1106V0.697733C129.315 0.387629 127.377 0.387629 125.517 0.697733V9.92332H115.826V0.697733C113.888 0.387629 111.95 0.387629 110.089 0.697733V24.1106C112.027 24.4207 113.965 24.4207 115.826 24.1106V14.7299H125.517V24.1881C127.377 24.4982 129.315 24.4982 131.254 24.1106Z" fill="#1B3281"/>
<path d="M153.193 5.50419C153.503 3.95367 153.503 2.32563 153.193 0.697582H136.835V24.1104H153.193C153.503 22.4824 153.503 20.9319 153.193 19.3038H142.572V14.6523H151.875C152.186 13.1017 152.186 11.4737 151.875 9.84564H142.572V5.42666H153.193V5.50419Z" fill="#1B3281"/>
<path d="M173.583 2.86831C171.955 1.39531 169.862 0.697582 167.226 0.697582H158.001V24.1104C159.939 24.4205 161.877 24.4205 163.738 24.1104V16.4354H167.149C169.785 16.4354 171.878 15.7376 173.506 14.2646C175.134 12.7916 175.987 10.931 175.987 8.60523C176.064 6.20192 175.211 4.3413 173.583 2.86831ZM167.226 11.6287H163.815V5.50419H167.226C168.932 5.50419 170.172 6.51203 170.172 8.60523C170.172 10.6209 168.932 11.6287 167.226 11.6287Z" fill="#1B3281"/>
<path d="M180.328 24.1104C182.266 24.4205 184.204 24.4205 186.065 24.1104V5.50419H195.756C196.066 3.95367 196.066 2.32563 195.756 0.697582H180.328V24.1104Z" fill="#1B3281"/>
<path d="M199.942 0.697733V24.1106C201.492 24.3431 202.965 24.3431 204.438 24.1106L215.37 10.3885V24.1106C217.308 24.4207 219.246 24.4207 221.106 24.1106V0.697733C219.556 0.465155 218.083 0.465155 216.61 0.697733L205.679 14.4198V0.697733C203.818 0.387629 201.88 0.387629 199.942 0.697733Z" fill="#1B3281"/>
<path d="M226.378 8.45018C226.378 11.5512 228.083 14.1096 230.874 15.35L225.215 24.1104C226.068 24.2655 227.076 24.343 228.316 24.343C229.556 24.343 230.642 24.2655 231.495 24.1104L236.146 16.978L236.689 16.2028H238.937V24.1104C240.875 24.4205 242.813 24.4205 244.674 24.1104V0.697582H235.216C232.58 0.697582 230.487 1.39531 228.859 2.86831C227.153 4.26378 226.378 6.1244 226.378 8.45018ZM235.216 5.50419H238.782V11.3962H235.138C233.433 11.3962 232.192 10.3883 232.192 8.45018C232.192 6.58955 233.51 5.50419 235.216 5.50419Z" fill="#1B3281"/>
<path d="M73.5747 31.0878V42.174H69.6984V31.0878C68.5355 30.9327 67.3726 30.9327 66.2873 31.0878V42.174H62.411V31.0878C61.2481 30.9327 60.0852 30.9327 58.9998 31.0878V45.0425H77.0634V31.0878C75.9005 30.9327 74.7376 30.9327 73.5747 31.0878Z" fill="#1B3281"/>
<path d="M92.5687 31.0878C92.1035 31.0102 91.4058 30.9327 90.553 30.9327C89.7002 30.9327 89.0025 31.0102 88.5373 31.0878L83.8858 37.4449V31.0878C82.7229 30.9327 81.56 30.9327 80.4746 31.0878V45.0424C81.6375 45.1975 82.8004 45.1975 83.8858 45.0424V38.2977L88.6924 45.0424C89.1576 45.12 89.8553 45.1975 90.7081 45.1975C91.5609 45.1975 92.2586 45.12 92.7237 45.0424L87.5295 37.8325L92.5687 31.0878Z" fill="#1B3281"/>
<path d="M101.097 30.7777C98.9258 30.7777 97.1427 31.4754 95.7473 32.8709C94.3518 34.2664 93.6541 35.9719 93.6541 38.0651C93.6541 40.0808 94.3518 41.8639 95.7473 43.2594C97.1427 44.6548 98.9258 45.3526 101.097 45.3526C103.267 45.3526 105.05 44.6548 106.446 43.2594C107.841 41.8639 108.539 40.0808 108.539 38.0651C108.539 36.0495 107.841 34.2664 106.446 32.8709C105.05 31.4754 103.267 30.7777 101.097 30.7777ZM103.887 41.3212C103.112 42.0965 102.182 42.5616 101.097 42.5616C100.011 42.5616 99.0809 42.174 98.3056 41.3212C97.5304 40.4684 97.1427 39.4606 97.1427 38.0651C97.1427 36.7472 97.5304 35.6618 98.3056 34.809C99.0809 33.9563 100.011 33.5686 101.097 33.5686C102.182 33.5686 103.112 33.9563 103.887 34.809C104.663 35.5843 105.05 36.6697 105.05 38.0651C105.05 39.4606 104.663 40.546 103.887 41.3212Z" fill="#1B3281"/>
<path d="M112.338 40.7787C112.26 41.7865 111.717 42.3292 110.942 42.3292C110.709 42.3292 110.554 42.3292 110.322 42.2516C110.167 43.182 110.167 44.1898 110.322 45.1201C110.787 45.2752 111.33 45.3527 111.95 45.3527C114.198 45.3527 115.516 43.9572 115.826 41.0888L116.524 33.9564H120.09V45.0426C121.253 45.1976 122.416 45.1976 123.501 45.0426V31.0879H113.345L112.338 40.7787Z" fill="#1B3281"/>
<path d="M131.641 31.0878L125.982 45.0425C127.145 45.1975 128.385 45.1975 129.548 45.0425L130.556 42.4066H135.673L136.68 45.0425C137.843 45.1975 139.006 45.1975 140.247 45.0425L134.587 31.0878C133.579 30.9327 132.649 30.9327 131.641 31.0878ZM131.641 39.5381L133.114 35.5068L134.587 39.5381H131.641Z" fill="#1B3281"/>
<path d="M157.923 37.3675C156.993 36.5147 155.675 36.1271 154.124 36.1271H152.109V33.9564H158.078C158.233 33.0261 158.233 32.0957 158.078 31.0879H148.697V45.0426H154.202C155.752 45.0426 156.993 44.5774 158.001 43.8022C159.008 42.9494 159.474 41.864 159.474 40.5461C159.396 39.2281 158.853 38.1428 157.923 37.3675ZM154.124 42.2516H152.109V38.918H154.124C155.132 38.918 155.907 39.5382 155.907 40.5461C155.83 41.6314 155.132 42.2516 154.124 42.2516Z" fill="#1B3281"/>
<path d="M171.877 31.0878L165.365 39.3055V31.0878C164.202 30.9327 163.039 30.9327 161.954 31.0878V45.0425C162.884 45.1975 163.737 45.1975 164.668 45.0425L171.18 36.8247V45.0425C172.343 45.1975 173.506 45.1975 174.591 45.0425V31.0878C173.661 30.9327 172.808 30.9327 171.877 31.0878Z" fill="#1B3281"/>
<path d="M185.367 37.9102C186.53 37.2899 187.305 36.0495 187.305 34.6541C187.305 32.3283 185.367 30.8553 182.266 30.8553C180.56 30.8553 179.165 31.2429 178.002 31.9407C177.924 32.1732 177.847 32.7159 177.847 33.5687C177.847 34.4215 177.924 34.8866 178.002 35.0417C179.475 34.1889 180.793 33.7238 182.033 33.7238C183.119 33.7238 183.816 34.2664 183.816 35.2743C183.816 36.2046 183.274 36.8248 182.343 36.8248H180.328C180.173 37.7551 180.173 38.6079 180.328 39.5382H182.421C183.506 39.5382 184.049 40.0034 184.049 41.0112C184.049 42.0966 183.041 42.6392 181.956 42.6392C180.638 42.6392 179.242 42.1741 177.847 41.3213C177.769 41.4764 177.692 42.019 177.692 42.7943C177.692 43.6471 177.769 44.1898 177.847 44.4223C179.01 45.1201 180.483 45.5077 182.188 45.5077C183.816 45.5077 185.057 45.1201 186.065 44.4223C187.072 43.7246 187.615 42.7168 187.615 41.3988C187.538 39.7708 186.685 38.5304 185.367 37.9102Z" fill="#1B3281"/>
<path d="M202.965 45.0425V31.0878C201.802 30.9327 200.639 30.9327 199.554 31.0878V36.5921H193.739V31.0878C192.577 30.9327 191.414 30.9327 190.328 31.0878V45.0425C191.491 45.1975 192.654 45.1975 193.739 45.0425V39.3831H199.554V45.0425C200.639 45.275 201.802 45.275 202.965 45.0425Z" fill="#1B3281"/>
<path d="M216.067 33.9564C216.222 33.0261 216.222 32.0957 216.067 31.0879H206.299V45.0426H216.067C216.222 44.1123 216.222 43.1044 216.067 42.1741H209.788V39.3832H215.37C215.525 38.4529 215.525 37.5226 215.37 36.5147H209.788V33.9564H216.067Z" fill="#1B3281"/>
<path d="M226.223 33.6462C227.464 33.6462 228.859 34.1113 230.255 34.9641C230.332 34.809 230.41 34.2664 230.41 33.4911C230.41 32.6383 230.332 32.0956 230.255 31.8631C229.092 31.1653 227.696 30.7777 225.991 30.7777C223.588 30.7777 221.727 31.4754 220.254 32.8709C218.781 34.2664 218.083 35.9719 218.083 38.0651C218.083 40.1583 218.781 41.8639 220.254 43.2594C221.727 44.6548 223.588 45.3526 225.991 45.3526C227.696 45.3526 229.092 44.9649 230.255 44.2672C230.332 44.0346 230.41 43.4919 230.41 42.6392C230.41 41.7864 230.332 41.3212 230.255 41.1662C228.782 42.019 227.464 42.4841 226.223 42.4841C224.906 42.4841 223.82 42.0965 222.967 41.2437C222.115 40.3909 221.649 39.3831 221.649 37.9876C221.649 36.6697 222.115 35.5843 222.967 34.7315C223.82 34.0338 224.906 33.6462 226.223 33.6462Z" fill="#1B3281"/>
<path d="M238.395 31.0878L232.735 45.0425C233.898 45.1975 235.138 45.1975 236.301 45.0425L237.309 42.4066H242.426L243.434 45.0425C244.597 45.1975 245.76 45.1975 247 45.0425L241.341 31.0878C240.333 30.9327 239.325 30.9327 238.395 31.0878ZM241.341 39.5381H238.395L239.868 35.5068L241.341 39.5381Z" fill="#1B3281"/>
</svg>
