<svg width="386" height="385" viewBox="0 0 386 385" fill="none" xmlns="http://www.w3.org/2000/svg">
<mask id="path-1-inside-1" fill="white">
<path d="M120.027 14.859C92.219 26.2734 67.4755 44.0509 47.7844 66.7633C28.0934 89.4757 14.0038 116.49 6.64754 145.636L25.7633 150.46C32.365 124.304 45.0094 100.061 62.6807 79.6779C80.3521 59.2951 102.558 43.3411 127.514 33.0975L120.027 14.859Z"/>
</mask>
<path d="M120.027 14.859C92.219 26.2734 67.4755 44.0509 47.7844 66.7633C28.0934 89.4757 14.0038 116.49 6.64754 145.636L25.7633 150.46C32.365 124.304 45.0094 100.061 62.6807 79.6779C80.3521 59.2951 102.558 43.3411 127.514 33.0975L120.027 14.859Z" stroke="#F8006B" stroke-width="33.6159" mask="url(#path-1-inside-1)"/>
<mask id="path-2-inside-2" fill="white">
<path d="M372.648 240.865C362.929 277.094 342.482 309.537 313.993 333.936L301.584 319.447C327.151 297.55 345.501 268.435 354.223 235.922L372.648 240.865Z"/>
</mask>
<path d="M372.648 240.865C362.929 277.094 342.482 309.537 313.993 333.936L301.584 319.447C327.151 297.55 345.501 268.435 354.223 235.922L372.648 240.865Z" stroke="#5503E5" stroke-width="32.527" mask="url(#path-2-inside-2)"/>
<mask id="path-3-inside-3" fill="white">
<path d="M363.278 117.935C378.561 152.654 382.833 191.223 375.518 228.445L366.785 226.729C373.748 191.293 369.681 154.574 355.131 121.522L363.278 117.935Z"/>
</mask>
<path d="M363.278 117.935C378.561 152.654 382.833 191.223 375.518 228.445L366.785 226.729C373.748 191.293 369.681 154.574 355.131 121.522L363.278 117.935Z" stroke="#F8006B" stroke-width="24.0776" mask="url(#path-3-inside-3)"/>
</svg>
