<svg width="124" height="23" viewBox="0 0 124 23" fill="none" xmlns="http://www.w3.org/2000/svg">
<path d="M32.285 7.57882C32.6675 7.57882 33.0118 7.54167 33.2796 7.50452L37.5257 0.111412C37.2579 0.0742609 36.9137 0.0371094 36.5311 0.0371094C36.1486 0.0371094 35.8043 0.0742609 35.5365 0.111412L33.8151 3.23212L32.0937 0.111412C31.8259 0.0742609 31.4816 0.0371094 31.0991 0.0371094C30.7166 0.0371094 30.3723 0.0742609 30.1045 0.111412L32.8205 4.82962L31.2904 7.50452C31.5581 7.57882 31.9024 7.57882 32.285 7.57882Z" fill="#1B3281"/>
<path d="M46.7841 7.54115V0.148043C46.1721 0.0365894 45.5218 0.0365894 44.9097 0.148043V3.04584H41.7729V0.148043C41.1608 0.0365894 40.5105 0.0365894 39.8984 0.148043V7.54115C40.5105 7.6526 41.1608 7.6526 41.7729 7.54115V4.56905H44.9097V7.54115C45.5218 7.61545 46.1721 7.61545 46.7841 7.54115Z" fill="#1B3281"/>
<path d="M56.4643 7.54114V0.148043C55.967 0.0737407 55.4697 0.0737407 55.0107 0.148043L51.4531 4.49474V0.148043C50.841 0.0365894 50.1907 0.0365894 49.5786 0.148043V7.54114C50.0759 7.61545 50.5732 7.61545 51.0323 7.54114L54.5899 3.19445V7.54114C55.2019 7.61545 55.814 7.61545 56.4643 7.54114Z" fill="#1B3281"/>
<path d="M64.9946 2.08079C64.9946 1.52352 64.7651 1.04056 64.306 0.706195C63.847 0.334682 63.2349 0.148925 62.5081 0.148925H59.2183V7.54203H62.5081C64.1148 7.54203 65.1094 6.76185 65.1094 5.46156C65.1094 4.64423 64.6503 4.04981 63.9235 3.71545C64.6121 3.38109 64.9946 2.82382 64.9946 2.08079ZM61.0927 1.63498H62.2786C62.8141 1.63498 63.0819 1.89504 63.0819 2.41515C63.0819 2.89812 62.7759 3.19533 62.2786 3.19533H61.0927V1.63498ZM62.3933 6.01883H61.0927V4.45848H62.3168C62.9289 4.45848 63.1967 4.71853 63.1967 5.23865C63.2349 5.75877 62.9672 6.01883 62.3933 6.01883Z" fill="#1B3281"/>
<path d="M72.8373 1.63453C72.9138 1.15156 72.9138 0.631446 72.8373 0.111328H67.52V7.50443H72.8373C72.9138 6.98431 72.9138 6.50134 72.8373 5.98123H69.3945V4.53233H72.4165C72.493 4.04936 72.493 3.52924 72.4165 3.00913H69.3945V1.63453H72.8373Z" fill="#1B3281"/>
<path d="M80.3722 4.4203C80.9078 3.97449 81.1756 3.38007 81.1756 2.63704C81.1756 1.89402 80.9078 1.2996 80.3722 0.853782C79.8367 0.407967 79.1481 0.185058 78.3065 0.185058H75.3228V7.57816C75.9348 7.68962 76.5851 7.68962 77.1972 7.57816V5.12618H78.3065C79.1481 5.08903 79.8367 4.86612 80.3722 4.4203ZM77.1972 1.63396H78.3065C78.8421 1.63396 79.2629 1.96832 79.2629 2.59989C79.2629 3.23146 78.8421 3.56582 78.3065 3.56582H77.1972V1.63396Z" fill="#1B3281"/>
<path d="M87.7915 1.48605C88.48 1.48605 89.2068 1.70896 90.0102 2.19192C90.0867 2.11762 90.0867 1.85756 90.0867 1.41175C90.0867 0.965933 90.0484 0.668722 90.0102 0.557269C89.3599 0.185756 88.5948 -1.41721e-07 87.6767 -1.41721e-07C86.3761 -1.41721e-07 85.3432 0.371512 84.5399 1.11454C83.7365 1.85756 83.354 2.78634 83.354 3.86373C83.354 4.94112 83.7365 5.8699 84.5399 6.61292C85.3432 7.35595 86.3761 7.72746 87.6767 7.72746C88.5948 7.72746 89.3599 7.5417 90.0102 7.17019C90.0484 7.05874 90.0867 6.76153 90.0867 6.31571C90.0867 5.8699 90.0484 5.60984 90.0102 5.53554C89.2068 6.0185 88.48 6.24141 87.7915 6.24141C87.0646 6.24141 86.4908 6.0185 85.9935 5.60984C85.4962 5.16402 85.2667 4.60676 85.2667 3.90088C85.2667 3.19501 85.4962 2.60059 85.9935 2.19192C86.4908 1.70896 87.0646 1.48605 87.7915 1.48605Z" fill="#1B3281"/>
<path d="M98.2363 0.148043L94.6786 4.49474V0.148043C94.0666 0.0365894 93.4163 0.0365894 92.8042 0.148043V7.54115C93.3015 7.61545 93.7988 7.61545 94.2578 7.54115L97.8155 3.19445V7.54115C98.4275 7.6526 99.0778 7.6526 99.6899 7.54115V0.148043C99.2309 0.0737407 98.7336 0.0737407 98.2363 0.148043Z" fill="#1B3281"/>
<path d="M106.04 7.54158V1.63453H108.105C108.182 1.15156 108.182 0.631446 108.105 0.111328H102.099C102.023 0.594295 102.023 1.11441 102.099 1.63453H104.165V7.50443C104.777 7.61588 105.427 7.61588 106.04 7.54158Z" fill="#1B3281"/>
<path d="M115.833 1.63453C115.91 1.15156 115.91 0.631446 115.833 0.111328H110.516V7.50443H115.833C115.91 6.98431 115.91 6.50135 115.833 5.98123H112.391V4.53233H115.413C115.489 4.04936 115.489 3.52924 115.413 3.00913H112.391V1.63453H115.833Z" fill="#1B3281"/>
<path d="M121.877 7.54158V3.04628V1.63453H123.943C124.019 1.15156 124.019 0.631446 123.943 0.111328H117.937C117.86 0.594295 117.86 1.11441 117.937 1.63453H120.003V7.50443C120.117 7.50443 120.232 7.54158 120.347 7.54158C120.844 7.61588 121.341 7.61588 121.877 7.54158Z" fill="#1B3281"/>
<path d="M36.6103 12.3342C37.6814 12.3342 38.8673 12.7057 40.0914 13.4488C40.1679 13.3002 40.2444 12.8915 40.2062 12.1856C40.2062 11.4797 40.1679 11.0339 40.0914 10.8482C39.0968 10.2538 37.8727 9.95654 36.4573 9.95654C34.4298 9.95654 32.7849 10.551 31.5608 11.7027C30.3367 12.8543 29.7246 14.3032 29.7246 16.0122C29.7246 17.7212 30.3367 19.1701 31.5608 20.3217C32.7849 21.4734 34.4298 22.0679 36.4573 22.0679C37.8727 22.0679 39.0968 21.7706 40.0914 21.1762C40.1679 20.9905 40.2062 20.5447 40.2062 19.8388C40.2062 19.1329 40.1679 18.7242 40.0914 18.5756C38.8673 19.3187 37.7197 19.6902 36.6103 19.6902C35.501 19.6902 34.5829 19.3558 33.8178 18.6871C33.0527 18.0184 32.7084 17.1267 32.7084 16.0122C32.7084 14.8977 33.091 14.006 33.8178 13.3373C34.5829 12.6686 35.501 12.3342 36.6103 12.3342Z" fill="#1B3281"/>
<path d="M53.4795 10.2164C52.7144 10.105 51.9493 10.105 51.1842 10.2164L45.6374 17.0151V10.2164C44.6811 10.0678 43.6865 10.0678 42.6919 10.2164V21.8076C43.457 21.9191 44.222 21.9191 44.9871 21.8076L50.5339 15.0089V21.8076C51.4903 21.9562 52.4849 21.9562 53.4795 21.8076V10.2164Z" fill="#1B3281"/>
<path d="M66.7887 21.8076V10.2164C65.8324 10.0678 64.8378 10.0678 63.8432 10.2164V14.7489H58.9084V10.2164C57.9521 10.0678 56.9575 10.0678 55.9629 10.2164V21.8076C56.9192 21.9562 57.9138 21.9562 58.9084 21.8076V17.1637H63.8432V21.8448C64.7995 21.9934 65.7941 21.9934 66.7887 21.8076Z" fill="#1B3281"/>
<path d="M77.6521 12.594C77.8051 11.8138 77.8051 11.0336 77.6521 10.2163H69.3511V21.8075H77.6521C77.8051 20.9902 77.8051 20.21 77.6521 19.4298H72.2966V17.1264H77.0401C77.1931 16.3463 77.1931 15.5661 77.0401 14.7488H72.2966V12.5568H77.6521V12.594Z" fill="#1B3281"/>
<path d="M87.6422 11.2937C86.8006 10.5878 85.7295 10.2163 84.3906 10.2163H79.7236V21.8075C80.68 21.9561 81.6746 21.9561 82.6692 21.8075V18.0181H84.4288C85.7677 18.0181 86.8388 17.6466 87.6804 16.9407C88.522 16.2348 88.9428 15.2689 88.9428 14.1172C88.8663 12.9655 88.4455 11.9996 87.6422 11.2937ZM84.3906 15.6404H82.6309V12.594H84.3906C85.2704 12.594 85.8825 13.1141 85.8825 14.1172C85.8825 15.1203 85.2322 15.6404 84.3906 15.6404Z" fill="#1B3281"/>
<path d="M90.9683 10.2163V21.8075C91.9246 21.9561 92.9192 21.9561 93.9138 21.8075V12.594H98.8485C99.0015 11.8138 99.0015 11.0336 98.8485 10.2163H90.9683Z" fill="#1B3281"/>
<path d="M109.254 10.2164L103.708 17.0151V10.2164C102.751 10.0678 101.757 10.0678 100.762 10.2164V21.8076C101.527 21.9191 102.292 21.9191 103.057 21.8076L108.604 15.009V21.8076C109.561 21.9562 110.555 21.9562 111.55 21.8076V10.2164C110.785 10.105 110.02 10.105 109.254 10.2164Z" fill="#1B3281"/>
<path d="M120.346 10.2163H118.433C117.094 10.2163 116.023 10.5878 115.22 11.2937C114.416 11.9996 113.996 12.9284 113.996 14.0429C113.996 15.6032 114.875 16.8292 116.253 17.4608L113.345 21.8075C113.766 21.8818 114.263 21.919 114.914 21.919C115.564 21.919 116.1 21.8818 116.52 21.8075L119.16 17.8695H120.307V21.8075C121.264 21.9561 122.258 21.9561 123.253 21.8075V12.1853V10.2163H120.346ZM120.307 15.5289H118.471C117.591 15.5289 116.979 15.0088 116.979 14.08C116.979 13.1513 117.63 12.6311 118.471 12.6311H120.307V15.5289Z" fill="#1B3281"/>
<path d="M13.9624 14.3772L10.4431 10.9964L13.9624 7.57853V3.75195L6.50293 10.9964L13.9624 18.2409V14.3772Z" fill="#ED1C24"/>
<path d="M22.455 0.0737306H0V21.8815H22.455V0.0737306ZM19.6625 19.1695H2.83078V2.82292H19.6625V19.1695Z" fill="#ED1C24"/>
</svg>
