<svg width="56" height="72" viewBox="0 0 56 72" fill="none" xmlns="http://www.w3.org/2000/svg">
<rect x="2.78342" y="3.12912" width="38.3341" height="65.9703" rx="4.9032" stroke="black" stroke-width="4.45746"/>
<path d="M40.6715 53.4988H50.4779C51.955 53.4988 53.1524 52.3014 53.1524 50.8244V23.1881C53.1524 21.7111 51.955 20.5137 50.4779 20.5137H40.6715" stroke="black" stroke-width="4.45746"/>
<rect x="9.02361" y="12.9359" width="25.8532" height="44.5746" stroke="black" stroke-width="2.67447"/>
<rect x="20.1673" y="23.1875" width="31.2022" height="9.8064" rx="0.891491" fill="#F8006B" stroke="#F0F0F0" stroke-width="1.78298"/>
<rect x="20.1673" y="32.9941" width="31.2022" height="9.8064" rx="0.891491" fill="#F8006B" stroke="#F0F0F0" stroke-width="1.78298"/>
<rect x="20.1673" y="42.8008" width="31.2022" height="9.8064" rx="0.891491" fill="#F8006B" stroke="#F0F0F0" stroke-width="1.78298"/>
<rect x="7.68637" y="16.0557" width="28.5277" height="1.78298" fill="black"/>
<rect x="12.1438" y="14.2725" width="1.78298" height="1.78298" fill="black"/>
<rect x="24.6247" y="26.7539" width="10.6979" height="1.78298" fill="#F0F0F0"/>
<rect x="24.6247" y="36.5605" width="10.6979" height="1.78298" fill="#F0F0F0"/>
<rect x="24.6247" y="46.3662" width="10.6979" height="1.78298" fill="#F0F0F0"/>
<rect x="37.9971" y="26.7539" width="4.45746" height="1.78298" fill="#F0F0F0"/>
<rect x="37.9971" y="36.5605" width="4.45746" height="1.78298" fill="#F0F0F0"/>
<rect x="37.9971" y="46.3662" width="4.45746" height="1.78298" fill="#F0F0F0"/>
<rect x="44.2375" y="26.7539" width="2.67447" height="1.78298" fill="#F0F0F0"/>
<rect x="44.2375" y="36.5605" width="2.67447" height="1.78298" fill="#F0F0F0"/>
<rect x="44.2375" y="46.3662" width="2.67447" height="1.78298" fill="#F0F0F0"/>
<rect x="18.3843" y="7.14062" width="7.13193" height="1.78298" fill="black"/>
<circle cx="21.9502" cy="63.3053" r="1.78298" stroke="black" stroke-width="1.78298"/>
</svg>
