<svg width="321" height="38" viewBox="0 0 321 38" fill="none" xmlns="http://www.w3.org/2000/svg">
<g clip-path="url(#clip0)">
<path d="M56.7 16.8004C56.7 16.4004 56.5 16.0004 56.1 15.7004C55.7 15.4004 55.2 15.1004 54.6 14.9004C54 14.7004 53.3 14.5004 52.6 14.3004C51.8 14.1004 51.1 13.8004 50.4 13.4004C49.7 13.1004 49 12.6004 48.4 12.2004C47.8 11.7004 47.3 11.1004 46.9 10.2004C46.5 9.40039 46.3 8.40039 46.3 7.40039C46.3 5.60039 47.1 3.90039 48.7 2.50039C50.3 1.10039 52.3 0.400391 54.8 0.400391C55.8 0.400391 56.8 0.500391 57.7 0.700391C58.6 0.900391 59.4 1.20039 59.9 1.50039C60.5 1.80039 61 2.10039 61.4 2.40039C61.8 2.70039 62.1 3.00039 62.3 3.20039L62.6 3.50039L59 7.20039C58.9 7.10039 58.7 6.90039 58.5 6.70039C58.3 6.50039 57.9 6.20039 57.2 5.90039C56.6 5.60039 55.9 5.40039 55.2 5.40039C54.5 5.40039 53.9 5.60039 53.5 6.00039C53.2 6.60039 53 7.10039 53 7.60039C53 8.00039 53.2 8.40039 53.6 8.70039C54 9.00039 54.5 9.30039 55.1 9.50039C55.7 9.70039 56.4 9.90039 57.1 10.1004C57.8 10.3004 58.6 10.6004 59.3 11.0004C60.1 11.3004 60.7 11.8004 61.3 12.2004C61.9 12.7004 62.4 13.3004 62.8 14.1004C63.2 14.9004 63.4 15.9004 63.4 16.9004C63.4 19.0004 62.6 20.7004 60.9 22.2004C59.3 23.6004 57.1 24.3004 54.3 24.3004C53.2 24.3004 52.1 24.2004 51.1 23.9004C50.1 23.6004 49.2 23.3004 48.6 22.9004C47.9 22.5004 47.3 22.1004 46.8 21.8004C46.3 21.4004 45.9 21.1004 45.7 20.8004L45.4 20.4004L48.9 16.7004C48.9 16.8004 49 16.8004 49.1 17.0004C49.2 17.1004 49.4 17.3004 49.7 17.6004C50 17.9004 50.4 18.1004 50.7 18.3004C51.1 18.5004 51.5 18.7004 52 18.9004C52.5 19.1004 53.1 19.2004 53.6 19.2004C54.5 19.2004 55.2 19.0004 55.7 18.5004C56.4 18.0004 56.7 17.4004 56.7 16.8004Z" fill="black"/>
<path d="M78.1 1.09961H84.7L76.6 15.5996V23.6996H70.5V15.5996L62.5 1.09961H69.1L73.6 9.79961L78.1 1.09961Z" fill="black"/>
<path d="M100.9 1.09961H107.1V23.6996H101.8L92.1 11.0996V23.6996H86V1.09961H91.3L100.9 13.6996V1.09961Z" fill="black"/>
<path d="M117.1 18.4996H128.6V23.6996H110.9V1.09961H128.3V6.29961H117.1V9.79961H125.8V14.6996H117.1V18.4996Z" fill="black"/>
<path d="M131.2 23.6996V1.09961H141.8C144.2 1.09961 146.1 1.79961 147.7 3.29961C149.2 4.79961 150 6.59961 150 8.79961C150 9.69961 149.9 10.4996 149.6 11.2996C149.3 12.0996 149 12.6996 148.6 13.1996C148.2 13.6996 147.8 14.0996 147.5 14.3996C147.1 14.6996 146.8 14.9996 146.6 15.0996L146.2 15.2996L150.9 23.4996H144.5L140.6 16.3996H137.4V23.4996H131.2V23.6996ZM143.3 10.4996C143.7 10.0996 144 9.49961 144 8.89961C144 8.29961 143.8 7.69961 143.3 7.29961C142.8 6.89961 142.3 6.69961 141.6 6.69961H137.4V11.1996H141.6C142.2 11.0996 142.8 10.8996 143.3 10.4996Z" fill="black"/>
<path d="M164.4 24.3C160.9 24.3 157.9 23.1 155.5 20.8C153.1 18.5 151.8 15.7 151.8 12.4C151.8 9.1 153 6.3 155.5 4C157.9 1.7 160.9 0.5 164.4 0.5C165.6 0.5 166.8 0.7 167.8 1C168.9 1.3 169.8 1.7 170.5 2.1C171.2 2.5 171.8 3 172.4 3.4C172.9 3.8 173.3 4.2 173.5 4.5L173.9 5L170.2 8.9C170.1 8.8 170.1 8.7 169.9 8.6C169.8 8.5 169.6 8.2 169.2 7.9C168.8 7.6 168.4 7.3 168 7C167.6 6.7 167.1 6.5 166.4 6.3C165.7 6.1 165.1 6 164.4 6C162.6 6 161 6.6 159.8 7.8C158.6 9 158 10.6 158 12.4C158 14.2 158.6 15.8 159.8 17C161 18.2 162.6 18.8 164.4 18.8C165.2 18.8 165.9 18.7 166.5 18.4C167.1 18.2 167.6 17.9 167.9 17.7L168.3 17.4V15H164.8V11.1H174.5V19.8C174.4 19.9 174.3 20.1 174.1 20.3C173.9 20.5 173.5 20.9 172.9 21.4C172.3 21.9 171.6 22.4 170.9 22.8C170.2 23.2 169.2 23.6 168.1 23.9C166.8 24.2 165.6 24.3 164.4 24.3Z" fill="black"/>
<path d="M190.3 1.09961H196.9L188.9 15.5996V23.6996H182.7V15.5996L174.7 1.09961H181.3L185.8 9.79961L190.3 1.09961Z" fill="black"/>
<path d="M194.6 23.2002C194 22.6002 193.7 22.0002 193.7 21.1002C193.7 20.3002 194 19.6002 194.6 19.0002C195.2 18.4002 195.9 18.2002 196.8 18.2002C197.7 18.2002 198.4 18.5002 199 19.0002C199.6 19.6002 199.9 20.2002 199.9 21.1002C199.9 21.9002 199.6 22.6002 199 23.2002C198.4 23.8002 197.7 24.0002 196.8 24.0002C195.9 24.0002 195.1 23.7002 194.6 23.2002Z" fill="#EE1D45"/>
<path d="M205.1 20.5998C202.8 18.3998 201.7 15.5998 201.7 12.3998C201.7 9.1998 202.8 6.3998 205.1 4.1998C207.4 1.9998 210.2 0.799805 213.6 0.799805C217 0.799805 219.8 1.8998 222.1 4.1998C224.4 6.3998 225.5 9.1998 225.5 12.3998C225.5 15.5998 224.4 18.3998 222.1 20.5998C219.8 22.7998 217 23.9998 213.6 23.9998C210.3 23.9998 207.4 22.8998 205.1 20.5998ZM207.7 6.4998C206.1 8.0998 205.3 10.0998 205.3 12.3998C205.3 14.6998 206.1 16.6998 207.7 18.2998C209.3 19.8998 211.3 20.6998 213.6 20.6998C215.9 20.6998 217.9 19.8998 219.5 18.2998C221.1 16.6998 221.9 14.6998 221.9 12.3998C221.9 10.0998 221.1 8.0998 219.5 6.4998C218 4.7998 216 3.9998 213.6 3.9998C211.3 3.9998 209.3 4.7998 207.7 6.4998Z" fill="black"/>
<path d="M245 1.09961H248.6V23.6996H245.5L233 7.39961V23.6996H229.4V1.09961H232.5L245 17.3996V1.09961Z" fill="black"/>
<path d="M268.2 23.6996H253.7V1.09961H257.3V20.3996H268.2V23.6996Z" fill="black"/>
<path d="M274.6 1.09961H271.1V23.6996H274.6V1.09961Z" fill="black"/>
<path d="M295.4 1.09961H298.9V23.6996H295.9L283.3 7.39961V23.6996H279.8V1.09961H282.8L295.4 17.3996V1.09961Z" fill="black"/>
<path d="M307.6 20.3996H320.4V23.6996H304.1V1.09961H320.1V4.29961H307.6V10.2996H317.5V13.4996H307.6V20.3996Z" fill="black"/>
<path d="M22.5 29.7L11.6 18.9L22.5 7.9V15.8L19.4 18.9L22.4 21.9V29.7H22.5ZM37.7 37.7H0V0H37.7V37.7ZM30.8 6.9H6.8V30.9H30.8V6.9Z" fill="#EE1D45"/>
<path d="M47.2 28.2002H50.6C51.9 28.2002 53 28.6002 53.9 29.5002C54.8 30.4002 55.2 31.4002 55.2 32.7002C55.2 34.0002 54.8 35.0002 53.9 35.9002C53 36.8002 51.9 37.2002 50.6 37.2002H47.2V28.2002ZM50.6 30.0002H49.2V35.6002H50.6C51.3 35.6002 52 35.3002 52.5 34.8002C53 34.3002 53.3 33.6002 53.3 32.8002C53.3 32.0002 53 31.4002 52.5 30.8002C52 30.3002 51.3 30.0002 50.6 30.0002Z" fill="black"/>
<path d="M68.8 28.2002H66.9V37.2002H68.8V28.2002Z" fill="black"/>
<path d="M85.8 32.3996H89.4V35.7996C89.4 35.7996 89.3 35.8996 89.2 35.9996C89.1 36.0996 89 36.1996 88.7 36.3996C88.4 36.5996 88.2 36.7996 87.9 36.8996C87.6 37.0996 87.3 37.1996 86.8 37.2996C86.3 37.3996 85.9 37.4996 85.4 37.4996C84 37.4996 82.9 36.9996 81.9 36.0996C81 35.1996 80.5 34.0996 80.5 32.7996C80.5 31.4996 81 30.3996 81.9 29.4996C82.8 28.5996 84 28.0996 85.4 28.0996C85.9 28.0996 86.3 28.1996 86.8 28.2996C87.2 28.3996 87.6 28.5996 87.9 28.7996C88.2 28.9996 88.4 29.1996 88.6 29.2996C88.8 29.4996 89 29.5996 89.1 29.6996L89.2 29.8996L88 31.0996L87.9 30.9996C87.9 30.8996 87.8 30.7996 87.6 30.6996C87.4 30.5996 87.3 30.3996 87.1 30.2996C86.9 30.1996 86.7 30.0996 86.4 29.9996C86.1 29.8996 85.8 29.8996 85.5 29.8996C84.7 29.8996 83.9 30.1996 83.4 30.7996C82.8 31.3996 82.5 32.0996 82.5 32.8996C82.5 33.6996 82.8 34.4996 83.4 34.9996C84 35.5996 84.7 35.8996 85.5 35.8996C85.9 35.8996 86.3 35.7996 86.6 35.6996C86.9 35.5996 87.2 35.4996 87.3 35.2996L87.5 35.0996V33.8996H85.9V32.3996H85.8Z" fill="black"/>
<path d="M103.2 28.2002H101.3V37.2002H103.2V28.2002Z" fill="black"/>
<path d="M114.4 28.2002H121.5V30.0002H118.9V37.3002H117V30.0002H114.4V28.2002Z" fill="black"/>
<path d="M137.2 35.1002H133.7L132.9 37.2002H130.8L134.4 28.2002H136.5L140.1 37.2002H138L137.2 35.1002ZM136.6 33.5002L135.5 30.5002L134.4 33.5002H136.6Z" fill="black"/>
<path d="M157.3 37.3002H151.1V28.2002H153.1V35.5002H157.3V37.3002Z" fill="black"/>
<path d="M181 28.2002H184.8C185.7 28.2002 186.5 28.5002 187.1 29.1002C187.7 29.7002 188 30.4002 188 31.3002C188 32.2002 187.7 32.9002 187.1 33.5002C186.5 34.1002 185.7 34.4002 184.8 34.4002H183V37.4002H181V28.2002ZM184.8 30.0002H183V32.6002H184.8C185.2 32.6002 185.5 32.5002 185.8 32.2002C186.1 32.0002 186.2 31.6002 186.2 31.3002C186.2 31.0002 186.1 30.6002 185.8 30.4002C185.5 30.1002 185.2 30.0002 184.8 30.0002Z" fill="black"/>
<path d="M205.6 37.3002H199.5V28.2002H201.4V35.5002H205.6V37.3002Z" fill="black"/>
<path d="M222.6 35.1002H219.1L218.3 37.2002H216.2L219.8 28.2002H221.9L225.5 37.2002H223.4L222.6 35.1002ZM222 33.5002L220.9 30.5002L219.8 33.5002H222Z" fill="black"/>
<path d="M234.8 28.2002H241.9V30.0002H239.3V37.3002H237.4V30.0002H234.8V28.2002Z" fill="black"/>
<path d="M253.1 28.2002H259.7V30.0002H255V32.0002H258.7V33.7002H255V37.3002H253.1V28.2002Z" fill="black"/>
<path d="M271.8 36.0996C270.9 35.1996 270.4 34.0996 270.4 32.7996C270.4 31.4996 270.9 30.3996 271.8 29.4996C272.7 28.5996 273.9 28.0996 275.3 28.0996C276.7 28.0996 277.8 28.5996 278.8 29.4996C279.7 30.3996 280.2 31.4996 280.2 32.7996C280.2 34.0996 279.7 35.1996 278.8 36.0996C277.9 36.9996 276.7 37.4996 275.3 37.4996C273.9 37.4996 272.7 36.9996 271.8 36.0996ZM273.2 30.5996C272.6 31.1996 272.4 31.8996 272.4 32.6996C272.4 33.4996 272.7 34.1996 273.2 34.7996C273.8 35.3996 274.5 35.6996 275.3 35.6996C276.1 35.6996 276.8 35.3996 277.4 34.7996C278 34.1996 278.2 33.4996 278.2 32.6996C278.2 31.8996 277.9 31.1996 277.4 30.5996C276.8 29.9996 276.2 29.6996 275.3 29.6996C274.4 29.7996 273.8 30.0996 273.2 30.5996Z" fill="black"/>
<path d="M291.8 37.2998V28.2998H295.8C296.7 28.2998 297.4 28.5998 298 29.1998C298.6 29.7998 298.9 30.4998 298.9 31.2998C298.9 31.6998 298.8 31.9998 298.7 32.2998C298.6 32.5998 298.5 32.8998 298.3 33.0998C298.1 33.2998 298 33.4998 297.8 33.5998C297.6 33.6998 297.5 33.7998 297.4 33.8998L297.2 33.9998L299.1 37.3998H297L295.3 34.1998H293.6V37.3998H291.8V37.2998ZM297 31.1998C297 30.7998 296.9 30.5998 296.6 30.2998C296.4 30.0998 296.1 29.9998 295.7 29.9998H293.7V32.3998H295.7C296.1 32.3998 296.3 32.2998 296.6 32.0998C296.9 31.7998 297 31.4998 297 31.1998Z" fill="black"/>
<path d="M315.6 32.2002L318.7 28.2002H320.5V37.3002H318.5V31.3002L315.6 35.0002L312.7 31.3002V37.3002H310.8V28.2002H312.5L315.6 32.2002Z" fill="black"/>
</g>
<defs>
<clipPath id="clip0">
<rect width="320.5" height="37.7" fill="white"/>
</clipPath>
</defs>
</svg>
