<svg width="119" height="28" viewBox="0 0 119 28" fill="none" xmlns="http://www.w3.org/2000/svg">
<path d="M38.8012 0.662739C38.8012 0.868028 38.8012 1.2786 38.8012 1.68918C38.8012 2.30504 38.8012 2.51033 38.8012 2.71562C37.7695 2.09976 36.9441 1.68918 36.325 1.68918C35.706 1.68918 35.2933 2.09976 35.2933 2.51033C35.2933 2.71562 35.4996 2.92091 35.706 3.1262C35.9123 3.33149 36.325 3.33149 36.9441 3.53677C37.5631 3.74206 37.9758 3.94735 38.5949 4.35793C39.2139 4.7685 39.4203 5.38437 39.4203 6.20552C39.4203 7.02667 39.0076 7.84782 38.3885 8.2584C37.7695 8.66898 36.9441 9.07955 36.1187 9.07955C35.0869 9.07955 34.2615 8.87426 33.4361 8.46369C33.4361 8.2584 33.4361 8.05311 33.4361 7.43725C33.4361 6.82138 33.4361 6.61609 33.4361 6.41081C34.4679 7.02667 35.2933 7.43725 36.1187 7.43725C36.9441 7.43725 37.1504 7.02667 37.1504 6.6161C37.1504 6.41081 36.9441 6.20552 36.7377 6.00023C36.5314 5.79494 36.1187 5.79494 35.4996 5.38437C34.8806 5.17908 34.4679 4.97379 33.8488 4.56321C33.2298 4.15264 33.0234 3.53677 33.0234 2.71562C33.0234 1.89447 33.2298 1.2786 33.8488 0.662739C34.6742 0.252163 35.4996 0.046875 36.5314 0.046875C37.3568 0.046875 38.1822 0.252163 38.8012 0.662739Z" fill="#333333"/>
<path d="M46.0246 6.00588V9.0852C45.1992 9.29049 44.5801 9.29049 43.7547 9.0852V6.00588L40.4531 0.257813C40.8658 0.257813 41.0722 0.257813 41.6912 0.257813C42.3103 0.257813 42.5166 0.257813 42.9293 0.257813L44.9928 3.953L47.0563 0.257813C47.469 0.257813 47.6754 0.257813 48.2944 0.257813C48.9135 0.257813 49.1198 0.257813 49.5325 0.257813L46.0246 6.00588Z" fill="#333333"/>
<path d="M59.0276 9.08194C58.4085 9.08194 57.7895 9.08194 57.3768 9.08194L53.2498 3.94974V9.08194C52.4244 9.28723 51.8054 9.28723 50.98 9.08194V0.254552C51.599 0.254552 52.218 0.254552 52.6307 0.254552L56.7577 5.38675V0.254552C57.5831 0.0492639 58.2022 0.0492639 59.0276 0.254552V9.08194Z" fill="#333333"/>
<path d="M63.5589 7.23761H67.4796C67.6859 7.85347 67.6859 8.46934 67.4796 9.0852H61.2891V0.257813H67.4796C67.6859 0.873677 67.6859 1.48954 67.4796 2.10541H63.5589V3.74771H67.0669C67.2732 4.36358 67.2732 4.97944 67.0669 5.5953H63.5589V7.23761Z" fill="#333333"/>
<path d="M69.5508 0.257813H73.0587C74.0905 0.257813 74.9159 0.463101 75.5349 1.07897C76.154 1.69483 76.5667 2.31069 76.5667 3.13185C76.5667 4.36358 75.9476 5.18473 74.9159 5.80059L76.9794 9.0852C76.5667 9.0852 76.154 9.0852 75.7413 9.0852C75.3286 9.0852 74.9159 9.0852 74.5032 9.0852L72.646 6.00588H71.8206V9.0852C70.9952 9.29049 70.3762 9.29049 69.5508 9.0852V0.257813ZM71.8206 2.10541V4.36357H73.2651C73.8841 4.36357 74.2968 3.953 74.2968 3.33713C74.2968 2.51598 73.8841 2.10541 73.2651 2.10541H71.8206Z" fill="#333333"/>
<path d="M83.9912 4.7685C84.6102 4.56321 85.4356 4.56321 86.0547 4.7685V8.66898C85.8483 8.87426 85.4356 9.07955 84.8166 9.07955C84.1975 9.07955 83.7848 9.28484 83.1658 9.28484C81.7213 9.28484 80.4832 8.87426 79.4515 8.05311C78.6261 7.23196 78.007 6.00023 78.007 4.7685C78.007 3.53677 78.4197 2.30504 79.4515 1.48389C80.4832 0.457451 81.7213 0.046875 83.1658 0.046875C84.1975 0.046875 85.2293 0.252163 85.8483 0.662739C85.8483 0.868028 85.8483 1.07332 85.8483 1.68918C85.8483 2.30504 85.8483 2.51033 85.8483 2.71562C85.0229 2.09976 83.9912 1.89447 83.1658 1.89447C82.3404 1.89447 81.7213 2.09976 81.1023 2.71562C80.4832 3.1262 80.2769 3.94735 80.2769 4.7685C80.2769 5.58965 80.4832 6.41081 81.1023 6.82138C81.7213 7.43725 82.3404 7.64254 83.1658 7.64254C83.3721 7.64254 83.5785 7.64254 83.9912 7.64254V4.7685Z" fill="#333333"/>
<path d="M93.0675 6.00588V9.0852C92.2421 9.29049 91.6231 9.29049 90.7977 9.0852V6.00588L87.4961 0.257813C87.9088 0.257813 88.1151 0.257813 88.7342 0.257813C89.1469 0.257813 89.5596 0.257813 89.9723 0.257813L92.0358 3.953L94.0993 0.257813C94.512 0.257813 94.7183 0.257813 95.3374 0.257813C95.9564 0.257813 96.1628 0.257813 96.5755 0.257813L93.0675 6.00588Z" fill="#333333"/>
<path d="M33.8477 12.3633H39.4191C41.6889 12.3633 43.5461 12.9791 45.1969 14.4162C46.8477 15.8532 47.4667 17.4955 47.4667 19.7537C47.4667 21.8065 46.6413 23.6541 45.1969 25.0911C43.7524 26.5282 41.8953 27.144 39.4191 27.144H33.8477V12.3633ZM37.3556 24.0647H39.4191C41.6889 24.0647 43.5461 22.4224 43.5461 19.7537C43.5461 16.8796 41.6889 15.4426 39.4191 15.4426H37.3556V24.0647Z" fill="#333333"/>
<path d="M53.6596 27.1417C52.4215 27.347 51.1834 27.347 49.9453 27.1417V12.361C51.1834 12.1557 52.4215 12.1557 53.6596 12.361V27.1417Z" fill="#333333"/>
<path d="M66.2375 19.9594C67.4756 19.7541 68.5073 19.7541 69.7454 19.9594V26.3233C69.3327 26.5286 68.5073 26.9392 67.682 27.1444C66.6502 27.3497 65.8248 27.555 64.7931 27.555C62.3169 27.555 60.2534 26.7339 58.8089 25.2969C57.3645 23.8598 56.5391 22.0122 56.5391 19.7541C56.5391 17.4959 57.3645 15.6483 58.8089 14.2113C60.2534 12.7743 62.3169 11.9531 64.7931 11.9531C66.6502 11.9531 68.0946 12.3637 69.3327 13.1849C69.3327 13.3901 69.5391 14.006 69.5391 14.8272C69.5391 15.6483 69.5391 16.2642 69.3327 16.4695C67.8883 15.443 66.4439 15.0324 64.9994 15.0324C63.555 15.0324 62.5232 15.443 61.4915 16.2642C60.4597 17.0853 60.047 18.3171 60.047 19.7541C60.047 21.1911 60.4597 22.4228 61.4915 23.244C62.5232 24.0651 63.555 24.4757 64.9994 24.4757C65.4121 24.4757 65.8248 24.4757 66.2375 24.2704V19.9594Z" fill="#333333"/>
<path d="M76.976 27.1417C75.7379 27.347 74.4998 27.347 73.2617 27.1417V12.361C74.4998 12.1557 75.7379 12.1557 76.976 12.361V27.1417Z" fill="#333333"/>
<path d="M91.0111 12.3633C91.2175 13.3897 91.2175 14.4162 91.0111 15.4426H87.0905V27.144C85.8524 27.3493 84.6143 27.3493 83.3762 27.144V15.4426H79.4555C79.2492 14.4162 79.2492 13.3897 79.4555 12.3633H91.0111Z" fill="#333333"/>
<path d="M106.075 27.1417C104.837 27.347 103.599 27.347 102.361 27.1417L101.123 24.2677H95.7578L94.726 27.1417C93.4879 27.347 92.2498 27.347 91.0117 27.1417L96.9959 12.361C98.0276 12.1557 99.0594 12.1557 100.091 12.361L106.075 27.1417ZM96.9959 21.3937H100.091L98.4403 17.0826L96.9959 21.3937Z" fill="#333333"/>
<path d="M111.844 24.0624H118.034C118.241 25.0889 118.241 26.1153 118.034 27.1417H108.336V12.361C109.574 12.1557 110.812 12.1557 112.05 12.361V24.0624H111.844Z" fill="#333333"/>
<path d="M0 0.257812V27.3558H27.2382V0.257812H0ZM23.9366 24.0712H3.50795V3.74771H23.9366V24.0712ZM16.9207 22.8395L7.84129 14.0121L16.9207 4.97944V9.70107L12.7937 14.0121L17.127 18.3232V22.8395H16.9207Z" fill="#FF00A8"/>
</svg>
