<svg width="280" height="71" viewBox="0 0 280 71" fill="none" xmlns="http://www.w3.org/2000/svg">
<path d="M105.009 22.7415C105.009 21.6705 104.624 20.8359 103.856 20.2379C103.101 19.6398 101.766 19.0208 99.8519 18.381C97.9374 17.7412 96.3722 17.1222 95.1564 16.5241C91.2015 14.5907 89.2241 11.9341 89.2241 8.55414C89.2241 6.87113 89.7132 5.38981 90.6914 4.11016C91.6837 2.81661 93.0811 1.81515 94.8839 1.10578C96.6866 0.382502 98.713 0.0208638 100.963 0.0208638C103.157 0.0208638 105.12 0.410321 106.853 1.18923C108.6 1.96815 109.956 3.08088 110.92 4.52744C111.884 5.96008 112.366 7.60137 112.366 9.45129H105.03C105.03 8.21337 104.645 7.25364 103.877 6.57209C103.122 5.89054 102.095 5.54976 100.795 5.54976C99.4816 5.54976 98.4405 5.84185 97.6718 6.42604C96.9172 6.99632 96.5399 7.72655 96.5399 8.61674C96.5399 9.39565 96.9591 10.105 97.7976 10.7448C98.6361 11.3708 100.11 12.0245 102.221 12.706C104.331 13.3737 106.064 14.097 107.419 14.8759C110.717 16.7675 112.366 19.3755 112.366 22.6998C112.366 25.3564 111.36 27.4428 109.348 28.9589C107.335 30.475 104.575 31.2331 101.068 31.2331C98.5942 31.2331 96.3512 30.7949 94.3389 29.9186C92.3405 29.0285 90.8312 27.8184 89.811 26.2883C88.8048 24.7444 88.3018 22.971 88.3018 20.9681H95.6804C95.6804 22.5955 96.0997 23.7986 96.9382 24.5775C97.7906 25.3425 99.1671 25.725 101.068 25.725C102.284 25.725 103.241 25.4677 103.94 24.9531C104.652 24.4245 105.009 23.6873 105.009 22.7415Z" fill="white"/>
<path d="M127.312 13.624L132.93 0.438139H140.875L131.044 19.904V30.8158H123.581V19.904L113.771 0.438139H121.674L127.312 13.624Z" fill="white"/>
<path d="M168.587 30.8158H161.271L150.455 11.9132V30.8158H143.097V0.438139H150.455L161.25 19.3407V0.438139H168.587V30.8158Z" fill="white"/>
<path d="M192.169 17.9428H180.598V25.1826H194.266V30.8158H173.24V0.438139H194.307V6.09222H180.598V12.4974H192.169V17.9428Z" fill="white"/>
<path d="M208.604 20.0918H204.621V30.8158H197.263V0.438139H209.274C212.894 0.438139 215.724 1.23792 217.764 2.83747C219.804 4.43703 220.825 6.69727 220.825 9.6182C220.825 11.7324 220.391 13.4849 219.525 14.8759C218.672 16.2668 217.331 17.3934 215.5 18.2558L221.873 30.5028V30.8158H213.991L208.604 20.0918ZM204.621 14.4377H209.274C210.672 14.4377 211.72 14.0761 212.419 13.3528C213.131 12.6156 213.488 11.5933 213.488 10.2858C213.488 8.97837 213.131 7.95605 212.419 7.21886C211.706 6.46777 210.658 6.09222 209.274 6.09222H204.621V14.4377Z" fill="white"/>
<path d="M250.255 27.0603C249.124 28.3121 247.467 29.3205 245.287 30.0856C243.107 30.8506 240.718 31.2331 238.118 31.2331C234.122 31.2331 230.928 30.016 228.539 27.5819C226.149 25.1478 224.87 21.7609 224.703 17.4212L224.682 14.7924C224.682 11.8019 225.213 9.19397 226.275 6.9685C227.337 4.72912 228.853 3.01134 230.824 1.81515C232.808 0.605049 235.1 0 237.699 0C241.5 0 244.449 0.869323 246.545 2.60797C248.655 4.33271 249.885 6.91286 250.235 10.3484H243.149C242.898 8.65151 242.353 7.44141 241.514 6.71813C240.676 5.99486 239.488 5.63322 237.951 5.63322C236.106 5.63322 234.681 6.41213 233.674 7.96996C232.668 9.52779 232.158 11.7533 232.144 14.6464V16.4824C232.144 19.5146 232.661 21.7957 233.695 23.3257C234.743 24.8418 236.385 25.5998 238.621 25.5998C240.536 25.5998 241.961 25.1756 242.898 24.3272V19.6119H237.783V14.5838H250.255V27.0603Z" fill="white"/>
<path d="M265.705 13.624L271.322 0.438139H279.267L269.436 19.904V30.8158H261.973V19.904L252.163 0.438139H260.066L265.705 13.624Z" fill="white"/>
<path d="M89.266 70.5827V40.2051H100.229C104.156 40.2051 107.14 40.9214 109.18 42.354C111.234 43.7867 112.262 45.8661 112.262 48.5923C112.262 50.164 111.898 51.5063 111.171 52.619C110.445 53.7318 109.376 54.5524 107.964 55.0809C109.557 55.4982 110.78 56.2771 111.633 57.4177C112.485 58.5582 112.911 59.9492 112.911 61.5904C112.911 64.567 111.961 66.8064 110.06 68.3086C108.174 69.7969 105.372 70.5549 101.655 70.5827H89.266ZM96.6237 57.6681V64.9495H101.445C102.773 64.9495 103.793 64.6505 104.506 64.0524C105.218 63.4404 105.575 62.5849 105.575 61.4861C105.575 58.9547 104.31 57.682 101.78 57.6681H96.6237ZM96.6237 52.8694H100.46C102.067 52.8555 103.213 52.5634 103.898 51.9931C104.582 51.4228 104.925 50.5813 104.925 49.4686C104.925 48.1889 104.554 47.2709 103.814 46.7146C103.073 46.1443 101.878 45.8592 100.229 45.8592H96.6237V52.8694Z" fill="white"/>
<path d="M134.314 64.9078H124.231L122.47 70.5827H114.609L125.803 40.2051H132.721L143.998 70.5827H136.096L134.314 64.9078ZM125.992 59.2537H132.553L129.262 48.7175L125.992 59.2537Z" fill="white"/>
<path d="M161.984 62.5084C161.984 61.4374 161.599 60.6029 160.831 60.0048C160.076 59.4067 158.742 58.7877 156.827 58.1479C154.913 57.5081 153.347 56.8891 152.132 56.291C148.177 54.3577 146.199 51.701 146.199 48.3211C146.199 46.6381 146.688 45.1567 147.667 43.8771C148.659 42.5835 150.056 41.5821 151.859 40.8727C153.662 40.1494 155.688 39.7878 157.938 39.7878C160.132 39.7878 162.096 40.1773 163.828 40.9562C165.575 41.7351 166.931 42.8478 167.895 44.2944C168.859 45.727 169.341 47.3683 169.341 49.2182H162.005C162.005 47.9803 161.62 47.0206 160.852 46.339C160.097 45.6575 159.07 45.3167 157.77 45.3167C156.457 45.3167 155.416 45.6088 154.647 46.193C153.892 46.7633 153.515 47.4935 153.515 48.3837C153.515 49.1626 153.934 49.872 154.773 50.5118C155.611 51.1377 157.086 51.7914 159.196 52.473C161.306 53.1406 163.039 53.8639 164.394 54.6428C167.692 56.5345 169.341 59.1424 169.341 62.4667C169.341 65.1234 168.335 67.2097 166.323 68.7258C164.311 70.2419 161.551 71 158.043 71C155.569 71 153.326 70.5619 151.314 69.6856C149.316 68.7954 147.806 67.5853 146.786 66.0553C145.78 64.5114 145.277 62.7379 145.277 60.735H152.656C152.656 62.3624 153.075 63.5655 153.913 64.3445C154.766 65.1095 156.142 65.492 158.043 65.492C159.259 65.492 160.216 65.2346 160.915 64.72C161.627 64.1915 161.984 63.4543 161.984 62.5084Z" fill="white"/>
<path d="M192.044 57.7098H180.472V64.9495H194.14V70.5827H173.115V40.2051H194.182V45.8592H180.472V52.2643H192.044V57.7098Z" fill="white"/>
<path d="M0 0.405624V70.5826H70.5079V0.405624H0ZM61.5545 61.6712H8.76686V9.13133H61.5545V61.6712ZM43.8343 58.7008L20.3316 35.3084L43.8343 12.1018V24.5406L32.8291 35.4941L43.8343 46.4476V58.7008Z" fill="#DCAE0B"/>
</svg>
