<svg width="260" height="68" viewBox="0 0 260 68" fill="none" xmlns="http://www.w3.org/2000/svg">
<path d="M154.083 23.957H149.225V20.2437H154.083V23.957ZM149.225 25.8024H154.083V40.6109H149.225V25.8024Z" fill="#6D6E71"/>
<path d="M156.938 25.8025H161.651V27.8269H161.707C162.591 26.317 164.595 25.3774 166.363 25.3774C171.3 25.3774 171.703 28.9677 171.703 31.1152V40.6109H166.856V33.4527C166.856 31.4283 167.08 29.3704 164.427 29.3704C162.602 29.3704 161.796 30.9138 161.796 32.5356V40.6109H156.938V25.8025Z" fill="#6D6E71"/>
<path d="M183.288 28.9453H180.288V35.6785C180.288 36.8417 180.971 37.0989 182.034 37.0989C182.437 37.0989 182.863 37.043 183.288 37.043V40.6109C182.404 40.6445 181.519 40.7563 180.635 40.7563C176.493 40.7563 175.441 39.5596 175.441 35.5331V28.9453H172.99V25.8025H175.441V21.3286H180.288V25.8025H183.288V28.9453Z" fill="#6D6E71"/>
<path d="M189.031 34.3923C189.121 36.4167 190.285 37.7589 192.344 37.7589C193.52 37.7589 194.662 37.222 195.109 36.1371H199.643C198.758 39.5596 195.591 41.0472 192.277 41.0472C187.453 41.0472 184.173 38.1392 184.173 33.1732C184.173 28.6322 187.8 25.3887 192.165 25.3887C197.471 25.3887 200.135 29.3816 199.9 34.4035H189.031V34.3923ZM195.053 31.6856C194.964 30.0303 193.8 28.6658 192.165 28.6658C190.453 28.6658 189.311 29.8961 189.031 31.6856H195.053Z" fill="#6D6E71"/>
<path d="M201.948 20.2437H206.806V40.6109H201.948V20.2437Z" fill="#6D6E71"/>
<path d="M209.829 20.2437H214.687V40.6109H209.829V20.2437Z" fill="#6D6E71"/>
<path d="M221.672 34.3923C221.762 36.4167 222.926 37.7589 224.986 37.7589C226.161 37.7589 227.303 37.222 227.762 36.1371H232.295C231.411 39.5596 228.243 41.0472 224.93 41.0472C220.105 41.0472 216.825 38.1392 216.825 33.1732C216.825 28.6322 220.452 25.3887 224.818 25.3887C230.124 25.3887 232.788 29.3816 232.553 34.4035H221.672V34.3923ZM227.694 31.6856C227.605 30.0303 226.441 28.6658 224.806 28.6658C223.094 28.6658 221.952 29.8961 221.661 31.6856H227.694Z" fill="#6D6E71"/>
<path d="M244.059 31.2271C244.026 29.9744 242.918 29.0908 241.686 29.0908C238.977 29.0908 238.541 31.406 238.541 33.4528C238.541 35.3654 239.369 37.3339 241.429 37.3339C243.108 37.3339 243.97 36.3608 244.194 34.795H248.906C248.481 38.7543 245.391 41.0472 241.451 41.0472C236.996 41.0472 233.683 37.9938 233.683 33.464C233.683 28.7552 236.683 25.3887 241.451 25.3887C245.134 25.3887 248.414 27.3236 248.761 31.2382H244.059V31.2271Z" fill="#6D6E71"/>
<path d="M259.709 28.9453H256.709V35.6785C256.709 36.8417 257.391 37.0989 258.455 37.0989C258.858 37.0989 259.283 37.043 259.709 37.043V40.6109C258.824 40.6445 257.94 40.7563 257.056 40.7563C252.914 40.7563 251.862 39.5596 251.862 35.5331V28.9453H249.41V25.8025H251.862V21.3286H256.709V25.8025H259.709V28.9453Z" fill="#6D6E71"/>
<path d="M149.371 47.0753H151.655V49.2451H151.711C152.796 47.5898 154.453 46.7397 156.479 46.7397C158.281 46.7397 159.938 47.4556 160.531 49.2451C161.528 47.6793 163.274 46.7397 165.154 46.7397C168.098 46.7397 170.069 47.9701 170.069 51.0235V61.839H167.64V52.1531C167.64 50.33 167.158 48.876 164.785 48.876C162.446 48.876 160.934 50.3636 160.934 52.6452V61.8278H158.505V52.1531C158.505 50.2405 157.901 48.876 155.74 48.876C152.852 48.876 151.8 51.5268 151.8 52.6452V61.8278H149.371V47.0753Z" fill="#6D6E71"/>
<path d="M179.527 46.7285C184.206 46.7285 186.691 50.1175 186.691 54.4571C186.691 58.7632 184.206 62.1633 179.527 62.1633C174.848 62.1633 172.363 58.7632 172.363 54.4571C172.363 50.1286 174.848 46.7285 179.527 46.7285ZM179.527 60.027C182.068 60.027 184.128 58.025 184.128 54.4683C184.128 50.878 182.068 48.876 179.527 48.876C176.986 48.876 174.926 50.878 174.926 54.4683C174.926 58.025 176.986 60.027 179.527 60.027Z" fill="#6D6E71"/>
<path d="M188.975 47.0752H191.258V49.4128H191.314C192.344 47.5897 194.001 46.7285 196.105 46.7285C199.989 46.7285 201.187 48.9543 201.187 52.1195V61.8166H198.758V51.8287C198.758 50.028 197.616 48.8648 195.758 48.8648C192.814 48.8648 191.392 50.8333 191.392 53.484V61.8166H188.963V47.0752H188.975Z" fill="#6D6E71"/>
<path d="M216.881 57.1414C216.221 60.3961 213.881 62.1633 210.568 62.1633C205.855 62.1633 203.627 58.9086 203.493 54.4012C203.493 49.9832 206.404 46.7285 210.433 46.7285C215.661 46.7285 217.262 51.605 217.116 55.1729H206.068C205.978 57.7342 207.433 60.027 210.668 60.027C212.672 60.027 214.06 59.054 214.497 57.1414H216.881ZM214.542 53.0367C214.43 50.7214 212.683 48.876 210.288 48.876C207.747 48.876 206.236 50.7885 206.057 53.0367H214.542Z" fill="#6D6E71"/>
<path d="M224.851 63.7855C223.743 66.6711 222.736 67.7225 220.564 67.7225C219.993 67.7225 219.422 67.6666 218.885 67.4652V65.2395C219.344 65.3849 219.825 65.5862 220.318 65.5862C221.314 65.5862 221.863 65.1053 222.322 64.2441L223.318 61.7275L217.463 47.0645H220.206L224.516 59.1327H224.572L228.713 47.0645H231.277L224.851 63.7855Z" fill="#6D6E71"/>
<path d="M30.6824 44.6933C28.701 36.9311 26.5518 27.8604 26.5518 27.8604C26.3615 27.1669 25.9473 26.5294 25.3317 26.0597C24.716 25.5899 23.9996 25.3662 23.272 25.3662H3.71631L9.12295 45.2972C11.3729 53.2607 12.9177 61.3472 17.1937 61.6603C21.6713 61.1123 27.6264 50.1066 30.6824 44.6933Z" fill="url(#paint0_linear)"/>
<path d="M14.6636 19.4607C20.2493 18.1857 23.2045 12.996 21.268 7.86224C19.3314 2.72849 13.2308 -0.403204 7.64501 0.871844C2.05926 2.14689 -0.895921 7.33656 1.04062 12.4703C2.97716 17.6041 9.07782 20.7358 14.6636 19.4607Z" fill="url(#paint1_linear)"/>
<path d="M39.2904 61.6831C39.2568 61.6831 39.2232 61.6719 39.2008 61.6719C39.1672 61.6719 39.1224 61.6831 39.0889 61.6831C39.1896 61.6831 39.268 61.6831 39.2904 61.6831Z" fill="url(#paint2_linear)"/>
<path d="M45.6929 25.3662C45.7712 25.3662 45.8496 25.3774 45.9167 25.3886C45.9839 25.3886 46.0399 25.3662 46.0959 25.3662H45.6929Z" fill="url(#paint3_linear)"/>
<path d="M87.1101 61.6831C87.0654 61.6831 87.0318 61.6719 86.987 61.6719C86.9534 61.6719 86.931 61.6831 86.8975 61.6831C87.0094 61.6831 87.0878 61.6831 87.1101 61.6831Z" fill="url(#paint4_linear)"/>
<path d="M78.1556 45.2861C77.9429 44.5255 77.7414 43.8433 77.5735 43.2952C74.9541 33.7547 73.7004 25.5564 68.1035 25.3774C63.1894 25.6906 57.8499 35.7903 54.7939 41.3491C54.9954 42.0873 55.1745 42.7472 55.3424 43.2952C57.8611 52.064 60.1222 61.5485 64.7901 61.6716C69.1333 61.4703 74.9653 50.9791 78.1556 45.2861Z" fill="url(#paint5_linear)"/>
<path d="M16.8462 61.6825C16.8798 61.6825 17.0813 61.6825 17.4283 61.6825C17.3387 61.6825 17.2716 61.6601 17.182 61.6489C17.0813 61.6713 16.9693 61.6825 16.8462 61.6825Z" fill="url(#paint6_linear)"/>
<path d="M68.3385 25.3662H67.9243C67.9915 25.3662 68.0363 25.3774 68.1034 25.3886C68.1818 25.3774 68.2601 25.3662 68.3385 25.3662Z" fill="url(#paint7_linear)"/>
<path d="M45.9282 25.3774C40.2753 25.5564 36.7492 33.7547 31.4881 43.2952C31.2531 43.6979 30.9844 44.1676 30.6934 44.6821C31.2642 46.9302 31.8239 49.0777 32.3165 50.856C34.0963 57.2984 37.5104 61.5262 39.2007 61.6604C43.8797 61.515 48.7715 52.0416 53.7192 43.2952C54.0326 42.7472 54.402 42.0873 54.805 41.3491C53.2938 35.7903 50.7528 25.6906 45.9282 25.3774Z" fill="url(#paint8_linear)"/>
<path d="M94.3752 25.3662H93.9163C88.1514 25.3662 84.6141 33.654 79.2859 43.2952C78.9612 43.8432 78.5806 44.5255 78.1553 45.286C79.7784 50.9678 82.6888 61.4702 86.9761 61.6715C91.6663 61.5597 96.558 52.0639 101.517 43.2952C101.741 42.9149 101.987 42.4787 102.256 41.9978C100.812 36.9199 99.5132 32.3342 99.1102 30.9809C97.8677 26.7867 96.2782 25.3662 94.3752 25.3662Z" fill="url(#paint9_linear)"/>
<path d="M64.6665 61.6831C64.6777 61.6831 64.7673 61.6831 64.8792 61.6831C64.8456 61.6831 64.8232 61.6719 64.8008 61.6719C64.7449 61.6719 64.7113 61.6831 64.6665 61.6831Z" fill="url(#paint10_linear)"/>
<path d="M124.543 41.7517C122.248 33.6317 120.692 25.3662 116.226 25.3662C116.226 25.3662 116.203 25.3662 116.159 25.3662C110.987 25.3662 105.289 36.5397 102.256 41.9978C104.517 49.9724 107.103 59.1885 107.103 59.1885C107.293 59.882 107.707 60.5195 108.323 60.9893C108.939 61.459 109.655 61.6827 110.383 61.6827H129.949L124.543 41.7517Z" fill="url(#paint11_linear)"/>
<path d="M116.158 25.3662H94.375C96.2892 25.3662 97.8675 26.7867 99.11 30.9809C99.513 32.3342 100.811 36.9199 102.255 41.9978C105.278 36.5397 110.987 25.3662 116.158 25.3662Z" fill="url(#paint12_linear)"/>
<path d="M78.155 45.2866C74.9536 50.9684 69.1216 61.4708 64.7896 61.6721C64.8231 61.6721 64.8455 61.6833 64.8679 61.6833C64.8679 61.6833 84.6811 61.6833 86.8863 61.6833C86.9199 61.6833 86.9422 61.6721 86.9758 61.6721C82.6998 61.4708 79.7782 50.9796 78.155 45.2866Z" fill="url(#paint13_linear)"/>
<path d="M68.1145 25.3778C68.0473 25.3778 68.0025 25.3555 67.9354 25.3555H46.1073C46.0402 25.3555 45.9842 25.3667 45.9282 25.3778C50.7528 25.691 53.2938 35.7907 54.805 41.3495C57.8497 35.7907 63.2004 25.691 68.1145 25.3778Z" fill="url(#paint14_linear)"/>
<path d="M32.3163 50.856C31.8238 49.0777 31.2641 46.9414 30.6932 44.6821C27.6373 50.1067 21.6709 61.1012 17.2046 61.6492C17.2829 61.6492 17.3613 61.6828 17.4509 61.6828C17.4509 61.6828 36.9394 61.6828 39.0998 61.6828C39.1334 61.6828 39.1782 61.6716 39.2118 61.6716C37.5103 61.5262 34.085 57.2984 32.3163 50.856Z" fill="url(#paint15_linear)"/>
<defs>
<linearGradient id="paint0_linear" x1="17.1994" y1="59.9178" x2="17.1994" y2="10.9191" gradientUnits="userSpaceOnUse">
<stop offset="0.0909" stop-color="#52CAF5"/>
<stop offset="0.6848" stop-color="#008FD5"/>
<stop offset="1" stop-color="#006AB6"/>
</linearGradient>
<linearGradient id="paint1_linear" x1="11.1571" y1="59.9188" x2="11.1571" y2="10.9192" gradientUnits="userSpaceOnUse">
<stop offset="0.0909" stop-color="#52CAF5"/>
<stop offset="0.6848" stop-color="#008FD5"/>
<stop offset="1" stop-color="#006AB6"/>
</linearGradient>
<linearGradient id="paint2_linear" x1="39.1863" y1="59.8707" x2="39.1863" y2="9.55119" gradientUnits="userSpaceOnUse">
<stop offset="0.0909" stop-color="#52CAF5"/>
<stop offset="0.6848" stop-color="#008FD5"/>
<stop offset="1" stop-color="#006AB6"/>
</linearGradient>
<linearGradient id="paint3_linear" x1="45.8132" y1="25.6875" x2="45.8132" y2="60.5007" gradientUnits="userSpaceOnUse">
<stop stop-color="#0052A4"/>
<stop offset="0.3152" stop-color="#008FD5"/>
<stop offset="0.9091" stop-color="#52CAF5"/>
</linearGradient>
<linearGradient id="paint4_linear" x1="87.0046" y1="61.6735" x2="87.0046" y2="61.684" gradientUnits="userSpaceOnUse">
<stop stop-color="#0052A4"/>
<stop offset="0.3152" stop-color="#008FD5"/>
<stop offset="0.9091" stop-color="#52CAF5"/>
</linearGradient>
<linearGradient id="paint5_linear" x1="71.3731" y1="25.6855" x2="71.3731" y2="60.2619" gradientUnits="userSpaceOnUse">
<stop stop-color="#0052A4"/>
<stop offset="0.3152" stop-color="#008FD5"/>
<stop offset="0.9091" stop-color="#52CAF5"/>
</linearGradient>
<linearGradient id="paint6_linear" x1="17.1448" y1="63.6151" x2="17.1448" y2="26.0853" gradientUnits="userSpaceOnUse">
<stop stop-color="#007C48"/>
<stop offset="0.2247" stop-color="#4CB748"/>
<stop offset="0.7022" stop-color="#BED963"/>
<stop offset="1" stop-color="#0DB14B"/>
</linearGradient>
<linearGradient id="paint7_linear" x1="68.1357" y1="25.3825" x2="68.1357" y2="25.3657" gradientUnits="userSpaceOnUse">
<stop stop-color="#007C48"/>
<stop offset="0.2247" stop-color="#4CB748"/>
<stop offset="0.7022" stop-color="#BED963"/>
<stop offset="1" stop-color="#0DB14B"/>
</linearGradient>
<linearGradient id="paint8_linear" x1="42.7421" y1="63.6003" x2="42.7421" y2="26.3551" gradientUnits="userSpaceOnUse">
<stop stop-color="#007C48"/>
<stop offset="0.2247" stop-color="#4CB748"/>
<stop offset="0.7022" stop-color="#BED963"/>
<stop offset="1" stop-color="#0DB14B"/>
</linearGradient>
<linearGradient id="paint9_linear" x1="90.2081" y1="63.6007" x2="90.2081" y2="26.355" gradientUnits="userSpaceOnUse">
<stop stop-color="#007C48"/>
<stop offset="0.2247" stop-color="#4CB748"/>
<stop offset="0.7022" stop-color="#BED963"/>
<stop offset="1" stop-color="#0DB14B"/>
</linearGradient>
<linearGradient id="paint10_linear" x1="64.7694" y1="63.5911" x2="64.7694" y2="26.5372" gradientUnits="userSpaceOnUse">
<stop stop-color="#007C48"/>
<stop offset="0.2247" stop-color="#4CB748"/>
<stop offset="0.7022" stop-color="#BED963"/>
<stop offset="1" stop-color="#0DB14B"/>
</linearGradient>
<linearGradient id="paint11_linear" x1="116.103" y1="25.5879" x2="116.103" y2="61.4188" gradientUnits="userSpaceOnUse">
<stop stop-color="#0052A4"/>
<stop offset="0.3152" stop-color="#008FD5"/>
<stop offset="0.9091" stop-color="#52CAF5"/>
</linearGradient>
<linearGradient id="paint12_linear" x1="105.264" y1="25.3657" x2="105.264" y2="41.684" gradientUnits="userSpaceOnUse">
<stop stop-color="#205253"/>
<stop offset="1" stop-color="#009B7E"/>
</linearGradient>
<linearGradient id="paint13_linear" x1="75.8869" y1="44.5453" x2="75.8869" y2="61.7239" gradientUnits="userSpaceOnUse">
<stop offset="0.5745" stop-color="#00A34D"/>
<stop offset="1" stop-color="#008A4A"/>
</linearGradient>
<linearGradient id="paint14_linear" x1="57.0168" y1="25.3086" x2="57.0168" y2="43.4141" gradientUnits="userSpaceOnUse">
<stop stop-color="#205253"/>
<stop offset="1" stop-color="#009B7E"/>
</linearGradient>
<linearGradient id="paint15_linear" x1="28.1948" y1="44.0426" x2="28.1948" y2="61.5331" gradientUnits="userSpaceOnUse">
<stop offset="0.5745" stop-color="#00A34D"/>
<stop offset="1" stop-color="#008A4A"/>
</linearGradient>
</defs>
</svg>
