<svg width="223" height="54" viewBox="0 0 223 54" fill="none" xmlns="http://www.w3.org/2000/svg">
<path d="M216.91 23.9409C216.3 23.3609 215.99 22.6308 215.99 21.7708C215.99 20.9108 216.3 20.1908 216.91 19.6008C217.52 19.0208 218.29 18.7207 219.21 18.7207C220.13 18.7207 220.9 19.0108 221.51 19.6008C222.12 20.1808 222.43 20.9108 222.43 21.7708C222.43 22.6308 222.12 23.3509 221.51 23.9409C220.9 24.5209 220.13 24.8208 219.21 24.8208C218.29 24.8208 217.53 24.5209 216.91 23.9409Z" fill="#FF2BA9"/>
<path d="M32.12 42.8201L16.07 26.77L32.12 10.72V21.4202L26.77 26.77L32.12 32.1201V42.8201ZM53.55 0V53.55H0V0H53.55ZM45.89 7.65015H7.64V45.9001H45.89V7.65015Z" fill="#FF2BA9"/>
<path d="M71.8202 17.1987C71.8202 16.7687 71.6202 16.3986 71.2102 16.0686C70.8002 15.7486 70.2802 15.4886 69.6302 15.2786C68.9802 15.0686 68.2702 14.8486 67.4802 14.6086C66.6902 14.3686 65.9102 14.0685 65.1302 13.7085C64.3502 13.3485 63.6402 12.9087 63.0002 12.3987C62.3602 11.8887 61.8302 11.2086 61.4202 10.3486C61.0102 9.48863 60.8102 8.49865 60.8102 7.36865C60.8102 5.42865 61.6502 3.72854 63.3302 2.25854C65.0102 0.788545 67.1702 0.0686035 69.7902 0.0686035C70.8702 0.0686035 71.8902 0.188711 72.8502 0.428711C73.8102 0.668711 74.6002 0.948564 75.2102 1.27856C75.8202 1.60856 76.3602 1.93854 76.8202 2.25854C77.2802 2.58854 77.6002 2.87866 77.7802 3.12866L78.0902 3.4585L74.3502 7.36865C74.2402 7.23865 74.0802 7.06865 73.8602 6.86865C73.6402 6.66865 73.2002 6.38857 72.5202 6.03857C71.8402 5.68857 71.1502 5.50854 70.4602 5.50854C69.7302 5.50854 69.1202 5.70865 68.6402 6.11865C68.1602 6.52865 67.9102 6.99857 67.9102 7.53857C67.9102 7.96857 68.1102 8.33869 68.5202 8.65869C68.9302 8.97869 69.4502 9.23873 70.1002 9.44873C70.7502 9.65873 71.4602 9.88866 72.2302 10.1287C73.0102 10.3687 73.7902 10.6686 74.5802 11.0286C75.3702 11.3886 76.0902 11.8286 76.7302 12.3386C77.3702 12.8486 77.9002 13.5287 78.3102 14.3887C78.7202 15.2487 78.9202 16.2387 78.9202 17.3687C78.9202 19.5687 78.0502 21.4087 76.3202 22.9087C74.5902 24.4087 72.2902 25.1587 69.4202 25.1587C68.2502 25.1587 67.1202 25.0185 66.0402 24.7385C64.9602 24.4585 64.0602 24.1185 63.3602 23.7185C62.6602 23.3185 62.0402 22.9286 61.5002 22.5286C60.9602 22.1286 60.5602 21.7885 60.3102 21.4985L59.9502 21.0886L63.6702 17.1987C63.7102 17.2687 63.7902 17.3585 63.9102 17.4685C64.0302 17.5785 64.2502 17.7786 64.5902 18.0786C64.9302 18.3786 65.2802 18.6387 65.6602 18.8687C66.0402 19.0987 66.5002 19.2985 67.0702 19.4685C67.6302 19.6485 68.2002 19.7385 68.7602 19.7385C69.6602 19.7385 70.4002 19.4885 70.9702 18.9885C71.5402 18.4885 71.8202 17.8987 71.8202 17.1987Z" fill="#231F20"/>
<path d="M94.3502 0.748535H101.3L92.8302 16.0085V24.4785H86.3902V16.0085L77.9202 0.748535H84.8702L89.6202 9.89868L94.3502 0.748535Z" fill="#231F20"/>
<path d="M118.41 0.748535H124.85V24.4785H119.29L109.1 11.2585V24.4785H102.66V0.748535H108.25L118.41 13.9685V0.748535Z" fill="#231F20"/>
<path d="M147.56 19.0586V24.4885H128.92V0.758545H147.22V6.18872H135.35V9.90869H144.5V15.0085H135.35V19.0586H147.56Z" fill="#231F20"/>
<path d="M150.27 0.758545H161.46C163.96 0.758545 166.03 1.53863 167.66 3.09863C169.29 4.65863 170.1 6.58868 170.1 8.89868C170.1 9.84868 169.96 10.7286 169.68 11.5586C169.4 12.3786 169.06 13.0486 168.66 13.5586C168.26 14.0686 167.87 14.5087 167.47 14.8687C167.07 15.2287 166.74 15.4786 166.48 15.6086L166.03 15.8586L170.95 24.4985H164.18L160.11 17.0386H156.72V24.4985H150.27V0.758545ZM162.95 10.5786C163.42 10.1286 163.66 9.55866 163.66 8.87866C163.66 8.19866 163.42 7.63872 162.95 7.18872C162.48 6.73872 161.86 6.51855 161.11 6.51855H156.71V11.2485H161.11C161.86 11.2585 162.48 11.0386 162.95 10.5786Z" fill="#231F20"/>
<path d="M185.18 25.1587C181.5 25.1587 178.37 23.9285 175.8 21.4585C173.23 18.9985 171.95 16.0486 171.95 12.6086C171.95 9.17864 173.23 6.22855 175.8 3.75854C178.36 1.28854 181.49 0.0585938 185.18 0.0585938C186.45 0.0585938 187.66 0.228594 188.81 0.558594C189.96 0.888594 190.9 1.28854 191.65 1.74854C192.4 2.20854 193.05 2.67867 193.6 3.13867C194.16 3.59867 194.56 3.99861 194.8 4.32861L195.18 4.80859L191.27 8.87866C191.2 8.78866 191.11 8.67857 191.01 8.53857C190.9 8.39857 190.65 8.15859 190.25 7.80859C189.85 7.45859 189.44 7.14866 189.01 6.87866C188.58 6.60866 188.01 6.36868 187.31 6.14868C186.61 5.92868 185.9 5.82861 185.18 5.82861C183.24 5.82861 181.62 6.46854 180.33 7.75854C179.04 9.04854 178.39 10.6586 178.39 12.5986C178.39 14.5386 179.04 16.1587 180.33 17.4487C181.62 18.7387 183.24 19.3887 185.18 19.3887C186 19.3887 186.74 19.2686 187.41 19.0186C188.08 18.7686 188.56 18.5085 188.83 18.2285L189.23 17.8687V15.3186H185.51V11.2485H195.69V20.3987C195.6 20.5287 195.45 20.7087 195.24 20.9187C195.03 21.1287 194.59 21.5186 193.93 22.0586C193.27 22.6086 192.56 23.0885 191.8 23.5085C191.04 23.9285 190.06 24.3087 188.87 24.6387C187.68 24.9987 186.45 25.1587 185.18 25.1587Z" fill="#231F20"/>
<path d="M212.44 0.748535H219.39L210.92 16.0085V24.4785H204.48V16.0085L196.01 0.748535H202.96L207.71 9.89868L212.44 0.748535Z" fill="#231F20"/>
<path d="M62.1702 29.5786H70.4802C73.7802 29.5786 76.6102 30.7486 78.9702 33.0886C81.3302 35.4286 82.5102 38.2187 82.5102 41.4487C82.5102 44.6787 81.3302 47.4686 78.9702 49.8086C76.6102 52.1486 73.7802 53.3186 70.4802 53.3186H62.1702V29.5786ZM70.4802 32.9685H65.9002V49.9187H70.4802C72.7902 49.9187 74.7402 49.0985 76.3602 47.4585C77.9702 45.8185 78.7802 43.8187 78.7802 41.4387C78.7802 39.0687 77.9702 37.0587 76.3602 35.4187C74.7402 33.7887 72.7802 32.9685 70.4802 32.9685Z" fill="#231F20"/>
<path d="M90.2902 49.9187H103.68V53.3086H86.5702V29.5786H103.35V32.9685H90.2902V39.2385H100.63V42.6287H90.2902V49.9187Z" fill="#231F20"/>
<path d="M118.59 46.5286C118.59 45.7986 118.36 45.1887 117.89 44.6987C117.43 44.2087 116.83 43.8186 116.09 43.5386C115.35 43.2586 114.54 42.9986 113.65 42.7786C112.76 42.5486 111.86 42.2787 110.97 41.9487C110.08 41.6187 109.26 41.2185 108.53 40.7585C107.8 40.2985 107.2 39.6386 106.74 38.7786C106.28 37.9186 106.04 36.8987 106.04 35.6887C106.04 33.8587 106.74 32.3286 108.14 31.0986C109.54 29.8686 111.44 29.2485 113.83 29.2485C114.71 29.2485 115.56 29.3586 116.37 29.5686C117.18 29.7786 117.85 30.0386 118.39 30.3286C118.93 30.6186 119.39 30.9185 119.8 31.2085C120.2 31.4985 120.5 31.7485 120.69 31.9585L120.95 32.2886L118.58 34.6687C118.54 34.6287 118.47 34.5487 118.39 34.4487C118.31 34.3487 118.12 34.1787 117.83 33.9487C117.54 33.7187 117.22 33.5186 116.89 33.3386C116.55 33.1586 116.11 32.9986 115.57 32.8486C115.03 32.7086 114.45 32.6287 113.84 32.6287C112.62 32.6287 111.63 32.9286 110.88 33.5386C110.14 34.1486 109.76 34.8587 109.76 35.6787C109.76 36.4087 109.99 37.0186 110.46 37.5186C110.92 38.0186 111.52 38.3987 112.26 38.6887C112.99 38.9687 113.81 39.2287 114.7 39.4487C115.59 39.6787 116.49 39.9486 117.38 40.2786C118.27 40.6086 119.09 40.9985 119.82 41.4585C120.55 41.9185 121.15 42.5887 121.62 43.4487C122.09 44.3087 122.31 45.3386 122.31 46.5286C122.31 48.6286 121.56 50.3387 120.06 51.6587C118.56 52.9787 116.48 53.6487 113.84 53.6487C112.76 53.6487 111.73 53.5185 110.75 53.2585C109.77 52.9985 108.97 52.6886 108.34 52.3286C107.71 51.9686 107.17 51.6085 106.7 51.2485C106.24 50.8885 105.9 50.5786 105.69 50.3386L105.36 49.9287L107.73 47.5586C107.77 47.6286 107.85 47.7186 107.95 47.8486C108.05 47.9786 108.29 48.1985 108.66 48.5085C109.03 48.8185 109.43 49.0986 109.86 49.3386C110.29 49.5786 110.86 49.7885 111.57 49.9785C112.28 50.1685 113.03 50.2686 113.83 50.2686C115.3 50.2686 116.46 49.9087 117.3 49.1887C118.14 48.4687 118.59 47.5886 118.59 46.5286Z" fill="#231F20"/>
<path d="M126.04 53.3086V29.5786H129.76V53.3086H126.04Z" fill="#231F20"/>
<path d="M156.53 40.7686V49.2385C156.44 49.3485 156.31 49.5085 156.12 49.7085C155.94 49.9085 155.53 50.2686 154.9 50.7886C154.27 51.3086 153.59 51.7487 152.86 52.1287C152.13 52.5087 151.19 52.8587 150.01 53.1687C148.84 53.4787 147.62 53.6387 146.36 53.6387C142.81 53.6387 139.83 52.4586 137.42 50.0986C135.01 47.7386 133.81 44.8487 133.81 41.4387C133.81 38.0287 135.01 35.1486 137.42 32.7786C139.83 30.4186 142.8 29.2385 146.36 29.2385C147.56 29.2385 148.72 29.3985 149.82 29.7085C150.92 30.0185 151.84 30.4086 152.56 30.8586C153.28 31.3086 153.91 31.7587 154.45 32.1987C154.99 32.6387 155.39 33.0186 155.64 33.3386L156 33.7986L153.63 36.1787C153.56 36.0887 153.47 35.9686 153.34 35.8086C153.21 35.6486 152.92 35.3587 152.47 34.9387C152.02 34.5187 151.53 34.1586 151.01 33.8586C150.49 33.5586 149.82 33.2786 148.98 33.0186C148.15 32.7586 147.27 32.6287 146.34 32.6287C143.88 32.6287 141.79 33.4787 140.08 35.1887C138.37 36.8887 137.51 38.9787 137.51 41.4387C137.51 43.8987 138.36 45.9887 140.07 47.6987C141.77 49.4087 143.86 50.2686 146.33 50.2686C147.15 50.2686 147.93 50.1886 148.67 50.0286C149.41 49.8686 150.02 49.6687 150.5 49.4287C150.97 49.1887 151.39 48.9585 151.75 48.7185C152.11 48.4785 152.37 48.2887 152.52 48.1287L152.77 47.8787V44.1587H148.19V40.7686H156.53Z" fill="#231F20"/>
<path d="M177.69 29.5786H181.41V53.3086H178.2L164.98 36.1987V53.3086H161.26V29.5786H164.47L177.69 46.7085V29.5786Z" fill="#231F20"/>
</svg>
