<svg width="291" height="23" viewBox="0 0 291 23" fill="none" xmlns="http://www.w3.org/2000/svg">
<g clip-path="url(#clip0)">
<path d="M37.2837 22.1905C35.0771 22.1905 33.2486 21.739 31.7981 20.8362C30.3475 19.9333 29.3366 18.7068 28.7563 17.1737L33.3189 14.6015C34.0925 16.3901 35.4639 17.2844 37.4331 17.2844C39.0595 17.2844 39.8771 16.833 39.8771 15.9302C39.8771 15.334 39.4111 14.8485 38.4793 14.4907C38.0837 14.3374 37.2046 14.0734 35.8595 13.7071C33.9519 13.1705 32.4398 12.4125 31.3321 11.4415C30.2157 10.4705 29.6618 9.11626 29.6618 7.38723C29.6618 5.52192 30.3563 4.00583 31.7365 2.85598C33.1167 1.69762 34.8398 1.12695 36.9057 1.12695C38.6551 1.12695 40.2023 1.51875 41.5562 2.31087C42.91 3.10299 43.9385 4.24432 44.6594 5.74338L40.1935 8.28156C39.5342 6.7825 38.4529 6.03297 36.9408 6.03297C36.3079 6.03297 35.8244 6.16073 35.4991 6.40773C35.1738 6.65474 35.0068 6.9784 35.0068 7.36168C35.0068 7.80458 35.253 8.17935 35.7365 8.48598C36.22 8.7926 37.1694 9.15033 38.5848 9.55065C39.5957 9.84024 40.4133 10.1128 41.0287 10.3598C41.6441 10.6068 42.321 10.9731 43.0506 11.4415C43.7803 11.91 44.3341 12.5232 44.6858 13.2642C45.0462 14.0052 45.222 14.874 45.222 15.8791C45.222 17.8636 44.4924 19.4138 43.0506 20.5296C41.5825 21.6368 39.6661 22.1905 37.2837 22.1905Z" fill="#1B3281"/>
<path d="M64.0084 1.55176L56.9755 13.9957V21.7635H51.6393V14.0553L44.6064 1.55176H50.5932L54.2854 9.03002L58.0128 1.55176H64.0084Z" fill="#1B3281"/>
<path d="M77.1511 1.55176H82.4521V21.7635H78.3379L70.9797 11.6023V21.7635H65.6436V1.55176H69.7929L77.1511 11.713V1.55176Z" fill="#1B3281"/>
<path d="M91.094 16.9086H99.173V21.755H85.7666V1.55176H99.0235V6.3726H91.094V9.17482H98.2763V13.936H91.094V16.9086Z" fill="#1B3281"/>
<path d="M112.579 21.755L108.94 15.2307H107.032V21.755H101.696V1.55176H110.039C112.166 1.55176 113.951 2.2076 115.384 3.52779C116.825 4.84799 117.546 6.51739 117.546 8.53602C117.546 9.74548 117.23 10.8613 116.597 11.8663C115.964 12.8799 115.093 13.6805 114.003 14.2767L118.293 21.755H112.579ZM107.041 6.31298V10.8442H109.995C110.654 10.8613 111.19 10.6654 111.603 10.2395C112.017 9.81362 112.228 9.26851 112.228 8.59564C112.228 7.92276 112.017 7.37765 111.603 6.95178C111.19 6.52591 110.654 6.31298 109.995 6.31298H107.041Z" fill="#1B3281"/>
<path d="M140.587 10.1804V12.2331C140.587 15.1972 139.629 17.5991 137.713 19.4389C135.796 21.2786 133.308 22.1985 130.249 22.1985C126.988 22.1985 124.315 21.1849 122.223 19.1663C120.131 17.1477 119.076 14.6521 119.076 11.688C119.076 8.72398 120.122 6.21986 122.205 4.18421C124.289 2.14003 126.873 1.12646 129.95 1.12646C131.893 1.12646 133.678 1.55233 135.295 2.39556C136.913 3.23878 138.179 4.37159 139.093 5.77696L134.566 8.28959C134.152 7.65078 133.537 7.14826 132.737 6.75646C131.928 6.37318 131.023 6.17728 130.012 6.17728C128.359 6.17728 127.014 6.69684 125.959 7.73596C124.904 8.77508 124.377 10.1038 124.377 11.7221C124.377 13.2808 124.895 14.601 125.942 15.6742C126.988 16.7559 128.447 17.2925 130.337 17.2925C132.763 17.2925 134.363 16.4067 135.137 14.635H130.073V10.189H140.587V10.1804Z" fill="#1B3281"/>
<path d="M159.031 1.55176L151.998 13.9957V21.7635H146.662V14.0553L139.629 1.55176H145.616L149.308 9.03002L153.036 1.55176H159.031Z" fill="#1B3281"/>
<path d="M159.778 22.1642C158.899 22.1642 158.16 21.8746 157.554 21.2869C156.947 20.6992 156.648 19.9923 156.648 19.1661C156.648 18.3399 156.956 17.633 157.572 17.0453C158.187 16.4576 158.925 16.168 159.778 16.168C160.631 16.168 161.36 16.4576 161.967 17.0453C162.574 17.633 162.873 18.3399 162.873 19.1661C162.873 19.9923 162.574 20.6992 161.967 21.2869C161.36 21.8746 160.631 22.1642 159.778 22.1642Z" fill="#3BB54A"/>
<path d="M173.844 1.55176C175.813 1.55176 177.457 2.19056 178.776 3.45965C180.095 4.72874 180.754 6.30446 180.754 8.19532C180.754 10.0606 180.095 11.6363 178.776 12.914C177.457 14.1916 175.813 14.8304 173.844 14.8304H169.58V21.755H166.152V1.55176H173.844ZM173.844 11.713C174.855 11.713 175.69 11.3808 176.35 10.7165C177.009 10.0521 177.334 9.20889 177.334 8.1868C177.334 7.16472 177.009 6.32149 176.35 5.65714C175.69 4.99278 174.864 4.6606 173.844 4.6606H169.58V11.7045H173.844V11.713Z" fill="#1B3281"/>
<path d="M195.233 21.7552L193.774 17.6839H184.895L183.435 21.7552H179.708L187.277 1.54346H191.391L198.934 21.7552H195.233ZM186.029 14.5665H192.648L189.343 5.44442L186.029 14.5665Z" fill="#1B3281"/>
<path d="M214.511 1.55176L207.241 13.7316V21.755H203.813V13.7316L196.542 1.55176H200.446L205.545 10.5035L210.608 1.55176H214.511Z" fill="#1B3281"/>
<path d="M236.718 1.55176V21.7635H233.289V7.3521L226.942 17.5133H226.529L220.182 7.32655V21.7635H216.753V1.55176H220.446L226.731 11.6534L233.052 1.55176H236.718Z" fill="#1B3281"/>
<path d="M244.314 18.578H253.553V21.755H240.894V1.55176H253.413V4.72874H244.323V9.98397H252.665V13.1269H244.323V18.578H244.314Z" fill="#1B3281"/>
<path d="M269.192 1.55176H272.621V21.7635H269.94L260.102 8.05052V21.7635H256.674V1.55176H259.355L269.192 15.2648V1.55176Z" fill="#1B3281"/>
<path d="M290.344 1.55176V4.72874H284.471V21.7635H281.043V4.72874H275.144V1.55176H290.344Z" fill="#1B3281"/>
<path d="M0.34375 0.624023V22.5648H22.9896V0.624023H0.34375ZM3.85139 19.1664V4.02246H19.4819V19.1664H3.85139Z" fill="#3BB54A"/>
<path d="M14.0314 18.6215V13.8177L11.737 11.5947L14.0402 9.35459V4.55078L6.77881 11.5947L14.0314 18.6215Z" fill="#3BB54A"/>
</g>
<defs>
<clipPath id="clip0">
<rect x="0.34375" y="0.624023" width="290" height="21.9408" fill="white"/>
</clipPath>
</defs>
</svg>
