<svg width="223" height="54" viewBox="0 0 223 54" fill="none" xmlns="http://www.w3.org/2000/svg">
<path d="M71.83 17.2103C71.83 16.7803 71.63 16.4003 71.22 16.0803C70.81 15.7603 70.29 15.5003 69.64 15.2903C68.99 15.0803 68.28 14.8603 67.49 14.6203C66.7 14.3803 65.92 14.0803 65.14 13.7203C64.36 13.3603 63.65 12.9203 63.01 12.4103C62.36 11.9003 61.84 11.2203 61.43 10.3603C61.02 9.50031 60.82 8.51032 60.82 7.38032C60.82 5.44032 61.66 3.74032 63.34 2.27032C65.02 0.800317 67.18 0.0803146 69.8 0.0803146C70.88 0.0803146 71.9 0.200315 72.86 0.440315C73.82 0.680315 74.61 0.960314 75.22 1.29031C75.83 1.62031 76.37 1.95032 76.83 2.27032C77.29 2.60032 77.61 2.89031 77.79 3.14031L78.1 3.47031L74.36 7.38032C74.25 7.25032 74.09 7.08032 73.87 6.88032C73.66 6.68032 73.21 6.40031 72.53 6.04031C71.85 5.69031 71.16 5.51031 70.47 5.51031C69.74 5.51031 69.13 5.71032 68.65 6.12032C68.16 6.53032 67.92 7.00031 67.92 7.54031C67.92 7.97031 68.12 8.34032 68.53 8.66032C68.94 8.98032 69.46 9.24032 70.11 9.45032C70.76 9.66032 71.47 9.89032 72.24 10.1303C73.02 10.3703 73.8 10.6703 74.59 11.0303C75.38 11.3903 76.1 11.8303 76.74 12.3403C77.39 12.8503 77.91 13.5303 78.32 14.3903C78.73 15.2503 78.93 16.2403 78.93 17.3703C78.93 19.5703 78.06 21.4103 76.33 22.9103C74.6 24.4103 72.3 25.1603 69.43 25.1603C68.26 25.1603 67.13 25.0203 66.05 24.7403C64.96 24.4603 64.07 24.1203 63.37 23.7203C62.67 23.3203 62.05 22.9303 61.51 22.5303C60.97 22.1303 60.57 21.7903 60.32 21.5003L59.96 21.0903L63.68 17.2003C63.72 17.2703 63.8 17.3503 63.92 17.4703C64.04 17.5903 64.26 17.7803 64.6 18.0803C64.94 18.3803 65.29 18.6403 65.67 18.8703C66.05 19.1003 66.51 19.3003 67.08 19.4703C67.64 19.6503 68.21 19.7303 68.77 19.7303C69.67 19.7303 70.41 19.4803 70.98 18.9903C71.55 18.5003 71.83 17.9103 71.83 17.2103Z" fill="#002196"/>
<path d="M94.36 0.760315H101.31L92.84 16.0203V24.4903H86.4V16.0203L77.93 0.760315H84.88L89.63 9.91032L94.36 0.760315Z" fill="#002196"/>
<path d="M118.42 0.760315H124.86V24.4903H119.3L109.11 11.2703V24.4903H102.67V0.760315H108.26L118.42 13.9803V0.760315Z" fill="#002196"/>
<path d="M147.57 19.0603V24.4903H128.93V0.760315H147.23V6.19032H135.36V9.91032H144.51V15.0103H135.36V19.0603H147.57Z" fill="#002196"/>
<path d="M150.28 0.760315H161.47C163.97 0.760315 166.04 1.54032 167.67 3.10032C169.3 4.66032 170.11 6.59031 170.11 8.90031C170.11 9.85031 169.97 10.7303 169.69 11.5603C169.41 12.3903 169.07 13.0503 168.67 13.5603C168.27 14.0703 167.88 14.5103 167.48 14.8703C167.08 15.2303 166.75 15.4703 166.49 15.6103L166.04 15.8603L170.96 24.5003H164.19L160.12 17.0403H156.73V24.5003H150.28V0.760315ZM162.96 10.5903C163.43 10.1403 163.67 9.57031 163.67 8.89031C163.67 8.21031 163.43 7.65032 162.96 7.20032C162.49 6.75032 161.87 6.53031 161.12 6.53031H156.72V11.2603H161.12C161.87 11.2703 162.49 11.0403 162.96 10.5903Z" fill="#002196"/>
<path d="M185.19 25.1703C181.51 25.1703 178.38 23.9403 175.81 21.4703C173.24 19.0003 171.96 16.0603 171.96 12.6203C171.96 9.19032 173.24 6.24032 175.81 3.77032C178.37 1.30032 181.5 0.0703125 185.19 0.0703125C186.46 0.0703125 187.67 0.240312 188.82 0.570312C189.97 0.900313 190.91 1.30031 191.66 1.76031C192.41 2.22031 193.06 2.69031 193.61 3.15031C194.17 3.61031 194.57 4.01032 194.81 4.34032L195.19 4.82031L191.28 8.89031C191.21 8.80031 191.12 8.69032 191.02 8.55032C190.91 8.41032 190.66 8.17031 190.26 7.82031C189.86 7.47031 189.45 7.16031 189.02 6.89031C188.59 6.62031 188.02 6.38032 187.32 6.16032C186.62 5.94032 185.91 5.84032 185.19 5.84032C183.25 5.84032 181.63 6.48032 180.34 7.77032C179.05 9.06032 178.4 10.6703 178.4 12.6103C178.4 14.5503 179.05 16.1703 180.34 17.4603C181.63 18.7503 183.25 19.4003 185.19 19.4003C186.01 19.4003 186.75 19.2803 187.42 19.0303C188.09 18.7803 188.57 18.5203 188.84 18.2403L189.24 17.8803V15.3303H185.52V11.2603H195.7V20.4103C195.61 20.5403 195.46 20.7203 195.25 20.9303C195.04 21.1403 194.6 21.5303 193.94 22.0703C193.28 22.6203 192.57 23.1003 191.81 23.5203C191.05 23.9403 190.07 24.3203 188.88 24.6503C187.69 25.0003 186.46 25.1703 185.19 25.1703Z" fill="#002196"/>
<path d="M212.45 0.760315H219.4L210.93 16.0203V24.4903H204.49V16.0203L196.02 0.760315H202.97L207.72 9.91032L212.45 0.760315Z" fill="#002196"/>
<path d="M62.18 29.5903H71.66C73.92 29.5903 75.82 30.3303 77.35 31.8203C78.88 33.3003 79.64 35.1103 79.64 37.2303C79.64 39.3503 78.88 41.1603 77.35 42.6303C75.82 44.1103 73.93 44.8503 71.66 44.8503H65.9V53.3203H62.18V29.5903ZM71.66 32.9803H65.9V41.4503H71.66C72.83 41.4503 73.83 41.0403 74.66 40.2303C75.49 39.4203 75.9 38.4203 75.9 37.2203C75.9 36.0203 75.49 35.0203 74.66 34.2003C73.83 33.3903 72.83 32.9803 71.66 32.9803Z" fill="#002196"/>
<path d="M78.94 53.3203L88.77 29.5903H92.49L102.32 53.3203H98.43L95.88 47.0503H85.37L82.82 53.3203H78.94ZM90.65 33.8203L86.74 43.6503H94.53L90.65 33.8203Z" fill="#002196"/>
<path d="M103.69 29.5903L110.13 40.9403L116.57 29.5903H120.64L111.98 44.8503V53.3203H108.26V44.8503L99.62 29.5903H103.69Z" fill="#002196"/>
<path d="M32.13 32.13L26.78 26.78L32.13 21.43V10.73L16.08 26.78L32.13 42.83V32.13Z" fill="#00B23B"/>
<path d="M0 0V53.55H53.55V0H0ZM45.9 45.91H7.65V7.65H45.9V45.91Z" fill="#00B23B"/>
<path d="M216.92 23.9505C216.31 23.3705 216 22.6405 216 21.7805C216 20.9205 216.31 20.2005 216.92 19.6105C217.53 19.0305 218.3 18.7305 219.22 18.7305C220.14 18.7305 220.91 19.0205 221.52 19.6105C222.13 20.1905 222.44 20.9205 222.44 21.7805C222.44 22.6405 222.13 23.3605 221.52 23.9505C220.91 24.5305 220.14 24.8305 219.22 24.8305C218.3 24.8205 217.54 24.5305 216.92 23.9505Z" fill="#00B23B"/>
</svg>
