<svg width="229" height="55" viewBox="0 0 229 55" fill="none" xmlns="http://www.w3.org/2000/svg">
<path d="M41.0813 26.1421C38.6049 26.1421 36.5525 25.6178 34.9239 24.5693C33.2953 23.5207 32.1575 22.1041 31.5106 20.3193L36.6306 17.341C37.5006 19.4158 39.04 20.4532 41.2486 20.4532C43.078 20.4532 43.9927 19.9289 43.9927 18.8804C43.9927 18.1888 43.4684 17.6311 42.4198 17.2072C41.9737 17.0287 40.992 16.7275 39.475 16.3037C37.3333 15.679 35.6378 14.8089 34.3885 13.6935C33.1391 12.5557 32.5145 10.9829 32.5145 8.97503C32.5145 6.81102 33.2842 5.05974 34.8235 3.72117C36.3852 2.38261 38.3261 1.71333 40.6462 1.71333C42.6095 1.71333 44.3496 2.17067 45.8666 3.08536C47.3837 4.00004 48.5438 5.32745 49.3469 7.06758L44.3273 10.0124C43.5911 8.27229 42.3752 7.40222 40.6797 7.40222C39.9658 7.40222 39.4192 7.54723 39.04 7.83725C38.683 8.12727 38.5045 8.49538 38.5045 8.94157C38.5045 9.45468 38.7723 9.88972 39.3077 10.2467C39.8654 10.6036 40.9363 11.0163 42.5202 11.4848C43.658 11.8195 44.5727 12.1318 45.2643 12.4218C45.9559 12.7119 46.7144 13.1357 47.5398 13.6935C48.3653 14.2289 48.9788 14.9316 49.3804 15.8017C49.7819 16.6495 49.9827 17.6534 49.9827 18.8135C49.9827 21.1113 49.1684 22.9072 47.5398 24.2012C45.9113 25.4951 43.7584 26.1421 41.0813 26.1421ZM71.092 2.21529L63.1945 16.6383V25.6401H57.2044V16.7052L49.3069 2.21529H56.0332L60.1827 10.8825L64.3657 2.21529H71.092ZM85.862 2.21529H91.8186V25.6401H87.2005L78.9349 13.8608V25.6401H72.9448V2.21529H77.5963L85.862 13.9946V2.21529ZM101.517 20.0182H110.585V25.6401H95.5265V2.21529H110.418V7.80379H101.517V11.0498H109.581V16.5714H101.517V20.0182ZM125.649 25.6401L121.567 18.0773H119.425V25.6401H113.435V2.21529H122.805C125.192 2.21529 127.189 2.98496 128.795 4.52431C130.424 6.04135 131.238 7.97111 131.238 10.3136C131.238 11.7191 130.881 13.013 130.167 14.1954C129.453 15.3555 128.483 16.2814 127.256 16.9729L132.075 25.6401H125.649ZM119.425 7.73686V12.9907H122.738C123.474 13.013 124.077 12.7788 124.545 12.288C125.014 11.7972 125.248 11.1613 125.248 10.3805C125.248 9.59969 125.014 8.96388 124.545 8.47307C124.077 7.98226 123.474 7.73686 122.738 7.73686H119.425ZM157.117 12.221V14.597C157.117 18.0326 156.035 20.8213 153.871 22.963C151.73 25.0824 148.941 26.1421 145.505 26.1421C141.847 26.1421 138.835 24.9709 136.47 22.6284C134.128 20.2859 132.956 17.3968 132.956 13.9612C132.956 10.5255 134.128 7.62531 136.47 5.26052C138.813 2.89573 141.713 1.71333 145.171 1.71333C147.357 1.71333 149.354 2.20414 151.161 3.18575C152.99 4.16736 154.418 5.47246 155.444 7.10104L150.358 10.0124C149.889 9.27621 149.198 8.68501 148.283 8.23882C147.391 7.79263 146.375 7.56954 145.238 7.56954C143.386 7.56954 141.869 8.17189 140.687 9.3766C139.504 10.5813 138.913 12.1207 138.913 13.9946C138.913 15.8017 139.493 17.3299 140.653 18.5792C141.835 19.8285 143.486 20.4532 145.606 20.4532C148.328 20.4532 150.123 19.427 150.993 17.3745H145.305V12.221H157.117ZM177.857 2.21529L169.959 16.6383V25.6401H163.969V16.7052L156.072 2.21529H162.798L166.947 10.8825L171.13 2.21529H177.857ZM48.4099 30.2153V33.1601H41.4828V53.6401H38.4042V33.1601H31.5106V30.2153H48.4099ZM54.6021 50.6953H65.4779V53.6401H51.4899V30.2153H65.3106V33.1601H54.6021V40.3549H64.474V43.2663H54.6021V50.6953ZM67.1937 53.6401V50.8292C68.7331 51.0522 69.882 50.6284 70.6405 49.5575C71.4213 48.4644 71.8118 46.4454 71.8118 43.5005V30.2153H87.2721V53.6401H84.16V33.1601H74.9239V43.5005C74.9239 45.5976 74.7231 47.36 74.3216 48.7878C73.9423 50.1933 73.3846 51.253 72.6484 51.9669C71.9345 52.6808 71.1313 53.1716 70.2389 53.4394C69.3689 53.6848 68.3538 53.7517 67.1937 53.6401ZM95.4191 50.6953H106.295V53.6401H92.3069V30.2153H106.128V33.1601H95.4191V40.3549H105.291V43.2663H95.4191V50.6953ZM130.666 35.4357C132.696 37.042 133.711 39.206 133.711 41.9277C133.711 44.6495 132.696 46.8135 130.666 48.4197C128.658 50.026 125.97 50.9407 122.601 51.1638V53.8075H119.556V51.1638C116.209 50.9407 113.521 50.026 111.491 48.4197C109.483 46.8135 108.479 44.6495 108.479 41.9277C108.479 39.206 109.483 37.042 111.491 35.4357C113.521 33.8294 116.209 32.9147 119.556 32.6916V30.048H122.601V32.6916C125.97 32.9147 128.658 33.8294 130.666 35.4357ZM122.601 48.3193C125.122 48.1409 127.085 47.5274 128.491 46.4788C129.896 45.408 130.599 43.8909 130.599 41.9277C130.599 39.9645 129.896 38.4586 128.491 37.4101C127.085 36.3392 125.122 35.7146 122.601 35.5361V48.3193ZM111.558 41.9277C111.558 43.8686 112.261 45.3745 113.666 46.4454C115.072 47.4939 117.035 48.1074 119.556 48.2859V35.5361C117.035 35.7146 115.072 36.3392 113.666 37.4101C112.261 38.4586 111.558 39.9645 111.558 41.9277ZM156.587 50.528C154.244 52.8928 151.378 54.0752 147.987 54.0752C144.596 54.0752 141.729 52.8928 139.386 50.528C137.044 48.1632 135.873 45.2964 135.873 41.9277C135.873 38.5367 137.044 35.6699 139.386 33.3274C141.729 30.9627 144.596 29.7803 147.987 29.7803C151.378 29.7803 154.244 30.9627 156.587 33.3274C158.952 35.6699 160.134 38.5367 160.134 41.9277C160.134 45.2964 158.952 48.1632 156.587 50.528ZM141.528 48.4197C143.268 50.1599 145.421 51.0299 147.987 51.0299C150.552 51.0299 152.694 50.1599 154.412 48.4197C156.152 46.6573 157.022 44.4933 157.022 41.9277C157.022 39.3398 156.152 37.1758 154.412 35.4357C152.694 33.6732 150.552 32.792 147.987 32.792C145.421 32.792 143.268 33.6732 141.528 35.4357C139.81 37.1758 138.951 39.3398 138.951 41.9277C138.951 44.4933 139.81 46.6573 141.528 48.4197ZM178.366 30.2153H181.444V53.6401H178.366V43.099H166.988V53.6401H163.876V30.2153H166.988V40.1541H178.366V30.2153ZM201.014 53.6401V36.1719L188.967 53.6401H186.457V30.2153H189.569V47.717L201.617 30.2153H204.126V53.6401H201.014ZM224.899 30.2153V53.6401H221.82V44.6718H217.168L211.111 53.6401H207.598L213.822 44.471C212.216 44.0917 210.888 43.244 209.84 41.9277C208.791 40.6115 208.267 39.1279 208.267 37.477C208.267 35.4691 208.97 33.7625 210.375 32.357C211.803 30.9292 213.521 30.2153 215.529 30.2153H224.899ZM215.529 41.8608H221.82V33.1267H215.529C214.391 33.1267 213.409 33.5505 212.584 34.3983C211.758 35.2461 211.346 36.2723 211.346 37.477C211.346 38.6817 211.758 39.7191 212.584 40.5892C213.409 41.4369 214.391 41.8608 215.529 41.8608Z" fill="#1B3281"/>
<path d="M182.721 26.1086C181.74 26.1086 180.903 25.774 180.212 25.1047C179.542 24.4131 179.208 23.5877 179.208 22.6284C179.208 21.6691 179.553 20.8548 180.245 20.1855C180.937 19.4939 181.762 19.1481 182.721 19.1481C183.681 19.1481 184.495 19.4939 185.164 20.1855C185.856 20.8548 186.202 21.6691 186.202 22.6284C186.202 23.5877 185.856 24.4131 185.164 25.1047C184.495 25.774 183.681 26.1086 182.721 26.1086Z" fill="#53C9F4"/>
<path d="M0.558594 1.32275V26.2913H25.9055V1.32275H0.558594ZM4.48462 22.4239V5.19016H21.9795V22.4239H4.48462Z" fill="#53C9F4"/>
<path d="M15.8789 21.8039V16.3372L13.3108 13.8074L15.8888 11.2582V5.7915L7.76123 13.8074L15.8789 21.8039Z" fill="#53C9F4"/>
</svg>
