<svg width="215" height="65" viewBox="0 0 215 65" fill="none" xmlns="http://www.w3.org/2000/svg">
<path d="M211.433 31.0373C210.528 31.0373 209.767 30.7253 209.141 30.101C208.515 29.4767 208.202 28.7187 208.202 27.838C208.202 26.9574 208.515 26.2104 209.152 25.575C209.79 24.9508 210.55 24.6387 211.433 24.6387C212.317 24.6387 213.077 24.9508 213.703 25.575C214.329 26.1993 214.642 26.9574 214.642 27.838C214.642 28.7187 214.329 29.4767 213.703 30.101C213.066 30.7253 212.317 31.0373 211.433 31.0373Z" fill="#00BFA5"/>
<path d="M38.9914 51.5391V41.5398L30.1921 32.7667L38.9914 23.9713V13.9719L20.1517 32.7667L38.9914 51.5391ZM60.8163 48.6742C69.6715 33.1791 64.2488 13.4591 48.7075 4.63027C33.1662 -4.19858 13.3873 1.208 4.53209 16.7031C-4.32312 32.1982 1.0996 51.9182 16.6409 60.747C26.3123 66.2428 38.1416 66.3988 47.9584 61.1595L63.455 63.4224L60.8163 48.6742ZM46.5943 53.8244L45.5098 54.4486C35.6035 60.2677 23.0028 58.6624 14.8743 50.547C5.00168 40.7149 4.99051 24.7627 14.852 14.9194C24.7135 5.07615 40.7132 5.06505 50.5858 14.8972C58.9379 23.2132 60.4026 36.1778 54.119 46.1325L53.3922 47.2808L53.6382 48.6073L54.7787 55.006L46.5943 53.8244Z" fill="#00BFA5"/>
<path d="M82.1161 31.0714C79.8353 31.0714 77.9457 30.592 76.4475 29.6333C74.9492 28.6747 73.8982 27.3704 73.3057 25.7317L78.024 23.0005C78.829 24.9068 80.2378 25.8543 82.2727 25.8543C83.961 25.8543 84.7995 25.375 84.7995 24.4163C84.7995 23.7809 84.3188 23.2681 83.346 22.8779C82.9324 22.7107 82.0267 22.432 80.6403 22.053C78.6725 21.4845 77.1071 20.6708 75.9555 19.6452C74.8039 18.6085 74.2337 17.1704 74.2337 15.3311C74.2337 13.3468 74.9492 11.7304 76.3804 10.5042C77.8115 9.27797 79.5893 8.66483 81.7248 8.66483C83.5361 8.66483 85.1349 9.08844 86.5325 9.9245C87.9302 10.7606 89.0035 11.9868 89.7415 13.5809L85.1238 16.2786C84.4418 14.6845 83.3237 13.8819 81.7695 13.8819C81.1099 13.8819 80.6179 14.0157 80.2713 14.2832C79.9359 14.5508 79.757 14.8852 79.757 15.2976C79.757 15.7658 80.003 16.1672 80.5173 16.5016C81.0204 16.8249 82.0043 17.2038 83.4578 17.6386C84.5088 17.9507 85.3474 18.2294 85.9847 18.497C86.622 18.7645 87.3152 19.1436 88.0755 19.6452C88.8358 20.1468 89.406 20.7934 89.775 21.5849C90.144 22.3763 90.3341 23.3016 90.3341 24.3606C90.3341 26.4675 89.5849 28.1173 88.0867 29.3101C86.5661 30.4806 84.5759 31.0714 82.1161 31.0714Z" fill="#385766"/>
<path d="M110.012 9.0996L102.745 22.3429V30.6032H97.2326V22.3986L89.9651 9.0996H96.1592L99.9831 17.059L103.84 9.0996H110.012Z" fill="#385766"/>
<path d="M123.485 9.0996H128.975V30.6032H124.726L117.112 19.7901V30.6032H111.6V9.0996H115.882L123.496 19.9127V9.0996H123.485Z" fill="#385766"/>
<path d="M138.221 25.4419H146.574V30.6032H132.709V9.0996H146.428V14.2274H138.233V17.2039H145.657V22.276H138.233V25.4419H138.221Z" fill="#385766"/>
<path d="M161.019 30.6032L157.262 23.6583H155.295V30.6032H149.782V9.0996H158.414C160.617 9.0996 162.461 9.80191 163.949 11.2065C165.436 12.6111 166.185 14.3835 166.185 16.535C166.185 17.8281 165.86 19.0097 165.201 20.0799C164.541 21.1501 163.647 22.0085 162.517 22.6439L166.956 30.6032H161.019ZM155.295 14.1717V18.9986H158.347C159.029 19.0209 159.577 18.8091 160.013 18.352C160.449 17.9061 160.661 17.3153 160.661 16.6019C160.661 15.8884 160.449 15.2976 160.013 14.8517C159.577 14.4058 159.029 14.1717 158.347 14.1717H155.295Z" fill="#385766"/>
<path d="M190.1 20.4701C190.1 23.6249 189.105 26.1776 187.126 28.1396C185.147 30.1016 182.576 31.0714 179.412 31.0714C176.046 31.0714 173.273 30.0012 171.104 27.8498C168.935 25.6983 167.851 23.0452 167.851 19.8904C167.851 16.7357 168.924 14.0714 171.082 11.8976C173.24 9.72387 175.912 8.64258 179.098 8.64258C181.111 8.64258 182.956 9.08844 184.633 9.99139C186.31 10.8943 187.618 12.0872 188.557 13.5809L183.873 16.2563C183.437 15.5763 182.811 15.0413 181.972 14.6288C181.145 14.2163 180.205 14.0156 179.154 14.0156C177.444 14.0156 176.057 14.5731 174.962 15.6767C173.877 16.7803 173.329 18.196 173.329 19.9127C173.329 21.5737 173.866 22.9783 174.95 24.1265C176.035 25.2747 177.544 25.8432 179.501 25.8432C182.006 25.8432 183.66 24.9068 184.465 23.0117H179.222V18.274H190.1V20.4701Z" fill="#385766"/>
<path d="M209.466 9.0996L202.198 22.3429V30.6032H196.686V22.3986L189.418 9.0996H195.613L199.436 17.059L203.294 9.0996H209.466Z" fill="#385766"/>
<path d="M87.5947 46.377C88.5451 46.8675 89.283 47.5475 89.8085 48.4058C90.3452 49.2642 90.6136 50.2563 90.6136 51.3822C90.6136 53.1435 89.9874 54.6039 88.7352 55.7743C87.4829 56.9448 85.9512 57.5245 84.1399 57.5245H74.8933V36.0209H83.4578C85.2244 36.0209 86.7226 36.5894 87.9413 37.7265C89.16 38.8635 89.775 40.2793 89.775 41.9848C89.7862 43.8465 89.0594 45.3068 87.5947 46.377ZM83.469 39.3429H78.4488V44.9947H83.469C84.2517 44.9947 84.9113 44.7271 85.4368 44.1809C85.9735 43.6346 86.2419 42.9658 86.2419 42.1632C86.2419 41.3606 85.9735 40.6917 85.4368 40.1455C84.9113 39.6104 84.2517 39.3429 83.469 39.3429ZM84.1511 54.2137C84.9673 54.2137 85.6604 53.9239 86.2307 53.333C86.7897 52.7534 87.0804 52.0399 87.0804 51.1927C87.0804 50.3567 86.8009 49.6432 86.2307 49.0524C85.6604 48.4727 84.9673 48.1717 84.1511 48.1717H78.4488V54.1914H84.1511V54.2137Z" fill="#385766"/>
<path d="M111.678 54.6819C109.509 56.8445 106.87 57.9258 103.74 57.9258C100.609 57.9258 97.9705 56.8445 95.8014 54.6819C93.6324 52.5193 92.5478 49.8884 92.5478 46.7671C92.5478 43.6458 93.6324 41.015 95.8014 38.8524C97.9705 36.6898 100.609 35.6084 103.74 35.6084C106.87 35.6084 109.509 36.6898 111.678 38.8524C113.847 41.015 114.932 43.6458 114.932 46.7671C114.932 49.8884 113.847 52.5304 111.678 54.6819ZM98.3059 52.2852C99.7706 53.7455 101.582 54.4813 103.74 54.4813C105.898 54.4813 107.709 53.7455 109.185 52.2852C110.65 50.8248 111.388 48.9855 111.388 46.7671C111.388 44.5488 110.65 42.7206 109.185 41.2491C107.72 39.7888 105.898 39.053 103.74 39.053C101.582 39.053 99.7706 39.7888 98.3059 41.2491C96.8413 42.7095 96.1033 44.5488 96.1033 46.7671C96.1033 48.9855 96.8413 50.8248 98.3059 52.2852Z" fill="#385766"/>
<path d="M131.211 36.0209V39.3986H125.14V57.5245H121.596V39.3986H115.491V36.0209H131.211Z" fill="#385766"/>
</svg>
