<svg width="198" height="138" viewBox="0 0 198 138" fill="none" xmlns="http://www.w3.org/2000/svg">
<g clip-path="url(#clip0)">
<path d="M21.3126 78.9471C43.517 80.5918 65.769 76.4613 85.9039 66.9575C106.039 57.4536 123.371 42.8999 136.214 24.7124L129.773 20.164C117.715 37.2398 101.442 50.9039 82.5382 59.8268C63.634 68.7497 42.7422 72.6278 21.8951 71.0836L21.3126 78.9471Z" fill="#5503E5"/>
<path d="M60.2516 120.588C93.3743 115.063 124.019 99.553 148.087 76.135C172.154 52.717 188.496 22.5074 194.926 -10.4518L178.33 -13.6892C172.56 15.8893 157.894 43.0003 136.295 64.0164C114.696 85.0324 87.1945 98.951 57.4692 103.91L60.2516 120.588Z" fill="#F8006B"/>
</g>
<defs>
<clipPath id="clip0">
<rect y="138" width="138" height="198" transform="rotate(-90 0 138)" fill="white"/>
</clipPath>
</defs>
</svg>
