<svg width="188" height="47" viewBox="0 0 188 47" fill="none" xmlns="http://www.w3.org/2000/svg">
<path d="M10.1203 0.253081C3.11431 0.253081 0.324875 5.37786 0.324875 11.9298V14.849H3.17918V11.7352C3.17918 6.86989 4.99556 2.97765 9.9906 2.97765C15.1803 2.97765 16.9318 6.67527 16.9318 11.9298C16.9318 24.385 0.324875 27.8231 0.324875 43.8462V46.0518H19.5266V43.3272H3.30892V42.8082C3.50354 29.4449 19.9158 24.9039 19.9158 11.8001C19.9158 5.18325 17.1912 0.253081 10.1203 0.253081ZM45.7962 35.9968V33.2722H41.9688V0.577434H38.5955L23.5455 33.2074V35.9968H39.0496V46.0518H41.9688V35.9968H45.7962ZM39.0496 6.15631V33.2722H26.2701L39.0496 6.15631ZM66.7053 0.642304L48.801 46.0518H51.4607L69.365 0.642304H66.7053ZM76.7663 46.0518H79.8152L92.5948 3.302V0.577434H72.8741V3.36687H89.5458L76.7663 46.0518ZM113.998 0.642304L96.0932 46.0518H98.7529L116.657 0.642304H113.998ZM130.027 0.253081C123.085 0.253081 120.231 5.11838 120.231 11.7352V13.357H123.085V11.5406C123.085 6.6104 124.967 2.97765 129.962 2.97765C134.957 2.97765 136.838 6.6104 136.838 11.8001V13.4218C136.838 17.7682 134.308 20.7522 130.221 21.0117H127.043V23.7363H130.092C134.503 23.9309 136.838 26.6554 136.838 31.391V34.894C136.838 40.0837 134.957 43.7164 129.962 43.7164C124.967 43.7164 123.085 40.0188 123.085 35.0886V32.3641H120.231V34.9589C120.231 41.5757 123.085 46.441 130.027 46.441C136.968 46.441 139.822 41.5757 139.822 34.9589V31.4559C139.822 26.9798 137.876 23.4768 133.789 22.2442C137.681 20.8819 139.822 17.3141 139.822 12.838V11.7352C139.822 5.11838 136.968 0.253081 130.027 0.253081ZM154.089 0.253081C147.018 0.253081 144.034 5.05351 144.034 11.8649V34.9589C144.034 41.5757 147.083 46.441 154.089 46.441C161.03 46.441 164.079 41.5757 164.079 34.9589V29.38C164.079 23.0227 161.484 18.2871 155.127 18.2871C151.04 18.2871 148.51 19.9089 147.018 22.4388V11.9298C147.018 6.6104 149.029 2.97765 154.154 2.97765C159.149 2.97765 161.03 6.48066 161.03 11.346V12.0595H163.885V11.5406C163.885 4.92377 161.03 0.253081 154.089 0.253081ZM154.089 21.0766C159.084 21.0766 161.095 24.7093 161.095 29.5746V35.0886C161.095 40.0837 159.084 43.6515 154.089 43.6515C149.029 43.6515 147.018 40.0837 147.018 35.0886V29.5746C147.018 24.7093 149.029 21.0766 154.089 21.0766ZM172.567 3.36687H186.903V0.577434H169.842L168.674 24.8391H171.464V24.0606C172.372 20.6873 174.642 18.871 177.951 18.871C182.946 18.871 184.892 22.5686 184.892 27.4339V35.0886C184.892 39.9539 182.946 43.6515 177.951 43.6515C173.021 43.6515 171.075 39.9539 171.075 35.0886V32.4938H168.22V34.9589C168.22 41.5108 171.139 46.441 178.016 46.441C184.957 46.441 187.876 41.5108 187.876 34.9589V27.1744C187.876 20.8819 185.346 16.0815 179.054 16.0815C175.68 16.0815 173.28 17.1195 171.723 19.5845L172.567 3.36687Z" fill="#F8006B"/>
</svg>
