<svg width="173" height="32" viewBox="0 0 173 32" fill="none" xmlns="http://www.w3.org/2000/svg">
<path d="M19.8211 26.5735V20.9102L14.8658 15.9549L19.8211 10.9996V5.33643L9.25708 15.9549L19.8211 26.5735Z" fill="#ED1C24"/>
<path d="M0 31.91H31.9644V0H0V31.91ZM3.97514 3.97514H27.9349V27.9349H3.97514V3.97514Z" fill="#ED1C24"/>
<path d="M49.4446 3.48503C50.9148 3.48503 52.5485 4.02957 54.2365 5.06419C54.3454 4.84638 54.4543 4.30184 54.3999 3.26721C54.3999 2.28704 54.3454 1.6336 54.2365 1.36133C52.8752 0.544519 51.1871 0.108887 49.2268 0.108887C46.3952 0.108887 44.1626 0.925696 42.4745 2.61377C40.7864 4.24738 39.9696 6.31663 39.9696 8.76706C39.9696 11.2175 40.7864 13.2323 42.4745 14.9204C44.1626 16.554 46.4496 17.4252 49.2268 17.4252C51.1871 17.4252 52.8752 16.9896 54.2365 16.1728C54.3454 15.9005 54.3999 15.2471 54.3999 14.2669C54.3999 13.2867 54.3454 12.6877 54.2365 12.4699C52.5485 13.5045 50.9693 14.0491 49.4446 14.0491C47.9199 14.0491 46.613 13.559 45.5784 12.6333C44.5437 11.6531 44.0536 10.4007 44.0536 8.82151C44.0536 7.24235 44.5437 5.93546 45.5784 5.00974C46.613 3.97511 47.9199 3.48503 49.4446 3.48503Z" fill="#001B62"/>
<path d="M72.8587 16.9351V0.490022C71.7696 0.32666 70.735 0.32666 69.7004 0.490022L62.0224 10.1284V0.490022C60.661 0.272206 59.2997 0.272206 57.9928 0.490022V16.9351C59.0819 17.0985 60.1165 17.0985 61.1511 16.9351L68.8291 7.29676V16.9351C70.1905 17.2074 71.5518 17.2074 72.8587 16.9351Z" fill="#001B62"/>
<path d="M91.7011 16.9351V0.490022C90.3398 0.272206 88.9784 0.272206 87.6715 0.490022V6.97004H80.8648V0.490022C79.5034 0.272206 78.1421 0.272206 76.8352 0.490022V16.9351C78.1966 17.1529 79.5579 17.1529 80.8648 16.9351V10.3462H87.6715V16.9896C88.9784 17.2074 90.3398 17.2074 91.7011 16.9351Z" fill="#001B62"/>
<path d="M107.111 3.86638C107.329 2.7773 107.329 1.63377 107.111 0.490234H95.6215V16.9353H107.111C107.329 15.7918 107.329 14.7027 107.111 13.5592H99.651V10.2919H106.186C106.403 9.20286 106.403 8.05933 106.186 6.9158H99.651V3.81192H107.111V3.86638Z" fill="#001B62"/>
<path d="M121.433 2.01494C120.289 0.980319 118.819 0.490234 116.967 0.490234H110.487V16.9353C111.849 17.1531 113.21 17.1531 114.517 16.9353V11.5444H116.913C118.764 11.5444 120.235 11.0543 121.378 10.0197C122.522 8.98505 123.121 7.67815 123.121 6.04453C123.175 4.35646 122.576 3.04957 121.433 2.01494ZM116.967 8.16824H114.571V3.86638H116.967C118.165 3.86638 119.037 4.57428 119.037 6.04453C119.037 7.46034 118.165 8.16824 116.967 8.16824Z" fill="#001B62"/>
<path d="M126.17 16.9353C127.531 17.1531 128.893 17.1531 130.199 16.9353V3.86638H137.006C137.224 2.7773 137.224 1.63377 137.006 0.490234H126.17V16.9353Z" fill="#001B62"/>
<path d="M139.946 0.490022V16.9351C141.035 17.0985 142.07 17.0985 143.104 16.9351L150.782 7.29676V16.9351C152.144 17.1529 153.505 17.1529 154.812 16.9351V0.490022C153.723 0.32666 152.688 0.32666 151.654 0.490022L143.976 10.1284V0.490022C142.669 0.272206 141.307 0.272206 139.946 0.490022Z" fill="#001B62"/>
<path d="M158.515 5.93563C158.515 8.11378 159.713 9.91076 161.674 10.782L157.699 16.9353C158.298 17.0442 159.006 17.0987 159.877 17.0987C160.748 17.0987 161.51 17.0442 162.109 16.9353L165.377 11.9256L165.758 11.381H167.337V16.9353C168.698 17.1531 170.06 17.1531 171.367 16.9353V5.44554V0.490234H164.723C162.872 0.490234 161.401 0.980319 160.258 2.01494C159.06 2.99511 158.515 4.30201 158.515 5.93563ZM164.723 3.86638H167.228V4.51982V8.00487H165.268H164.669C163.471 8.00487 162.599 7.29697 162.599 5.93563C162.599 4.62873 163.525 3.86638 164.723 3.86638Z" fill="#001B62"/>
<path d="M51.1873 21.8361V29.623H48.4646V21.8361C47.6478 21.7272 46.831 21.7272 46.0686 21.8361V29.623H43.3459V21.8361C42.5291 21.7272 41.7123 21.7272 40.95 21.8361V31.6378H53.6377V21.8361C52.8209 21.7272 52.0041 21.7272 51.1873 21.8361Z" fill="#001B62"/>
<path d="M64.5283 21.836C64.2015 21.7815 63.7114 21.7271 63.1125 21.7271C62.5135 21.7271 62.0234 21.7815 61.6967 21.836L58.4294 26.3012V21.836C57.6126 21.7271 56.7958 21.7271 56.0334 21.836V31.6377C56.8503 31.7466 57.6671 31.7466 58.4294 31.6377V26.9002L61.8056 31.6377C62.1323 31.6921 62.6224 31.7466 63.2214 31.7466C63.8204 31.7466 64.3104 31.6921 64.6372 31.6377L60.9888 26.5735L64.5283 21.836Z" fill="#001B62"/>
<path d="M70.5181 21.6182C68.9934 21.6182 67.741 22.1082 66.7608 23.0884C65.7806 24.0686 65.2905 25.2666 65.2905 26.7368C65.2905 28.1526 65.7806 29.4051 66.7608 30.3852C67.741 31.3654 68.9934 31.8555 70.5181 31.8555C72.0428 31.8555 73.2953 31.3654 74.2754 30.3852C75.2556 29.4051 75.7457 28.1526 75.7457 26.7368C75.7457 25.321 75.2556 24.0686 74.2754 23.0884C73.2953 22.1082 72.0428 21.6182 70.5181 21.6182ZM72.4784 29.0239C71.9339 29.5684 71.2805 29.8952 70.5181 29.8952C69.7557 29.8952 69.1023 29.6229 68.5578 29.0239C68.0132 28.4249 67.741 27.717 67.741 26.7368C67.741 25.8111 68.0132 25.0488 68.5578 24.4498C69.1023 23.8508 69.7557 23.5785 70.5181 23.5785C71.2805 23.5785 71.9339 23.8508 72.4784 24.4498C73.023 24.9943 73.2953 25.7567 73.2953 26.7368C73.2953 27.717 73.023 28.4794 72.4784 29.0239Z" fill="#001B62"/>
<path d="M78.4133 28.6427C78.3588 29.3506 77.9776 29.7318 77.4331 29.7318C77.2697 29.7318 77.1608 29.7318 76.9975 29.6773C76.8885 30.3307 76.8885 31.0386 76.9975 31.6921C77.3242 31.801 77.7054 31.8555 78.141 31.8555C79.7202 31.8555 80.6459 30.8753 80.8637 28.8605L81.3538 23.8507H83.8586V31.6376C84.6755 31.7465 85.4923 31.7465 86.2546 31.6376V21.8359H79.1212L78.4133 28.6427Z" fill="#001B62"/>
<path d="M91.9721 21.8361L87.9969 31.6378C88.8138 31.7467 89.685 31.7467 90.5018 31.6378L91.2097 29.7863H94.8037L95.5116 31.6378C96.3284 31.7467 97.1452 31.7467 98.0165 31.6378L94.0413 21.8361C93.3334 21.7272 92.68 21.7272 91.9721 21.8361ZM91.9721 27.7716L93.0067 24.9399L94.0413 27.7716H91.9721Z" fill="#001B62"/>
<path d="M110.433 26.2467C109.779 25.6477 108.854 25.3754 107.765 25.3754H106.349V23.8507H110.542C110.651 23.1973 110.651 22.5438 110.542 21.8359H103.953V31.6376H107.819C108.908 31.6376 109.779 31.3109 110.487 30.7664C111.195 30.1674 111.522 29.405 111.522 28.4793C111.467 27.5536 111.086 26.7912 110.433 26.2467ZM107.765 29.6773H106.349V27.3358H107.765C108.472 27.3358 109.017 27.7714 109.017 28.4793C108.963 29.2417 108.472 29.6773 107.765 29.6773Z" fill="#001B62"/>
<path d="M120.235 21.8361L115.661 27.6082V21.8361C114.844 21.7272 114.027 21.7272 113.265 21.8361V31.6378C113.918 31.7467 114.517 31.7467 115.171 31.6378L119.745 25.8657V31.6378C120.561 31.7467 121.378 31.7467 122.141 31.6378V21.8361C121.487 21.7272 120.888 21.7272 120.235 21.8361Z" fill="#001B62"/>
<path d="M129.709 26.6279C130.526 26.1923 131.071 25.321 131.071 24.3408C131.071 22.7072 129.709 21.6726 127.531 21.6726C126.333 21.6726 125.353 21.9449 124.536 22.435C124.482 22.5983 124.427 22.9795 124.427 23.5785C124.427 24.1775 124.482 24.5042 124.536 24.6131C125.571 24.0141 126.497 23.6874 127.368 23.6874C128.13 23.6874 128.62 24.0686 128.62 24.7765C128.62 25.4299 128.239 25.8656 127.586 25.8656H126.17C126.061 26.519 126.061 27.118 126.17 27.7714H127.64C128.402 27.7714 128.784 28.0982 128.784 28.8061C128.784 29.5684 128.076 29.9496 127.313 29.9496C126.388 29.9496 125.407 29.6229 124.427 29.0239C124.373 29.1328 124.318 29.514 124.318 30.0585C124.318 30.6575 124.373 31.0387 124.427 31.202C125.244 31.6921 126.279 31.9644 127.477 31.9644C128.62 31.9644 129.491 31.6921 130.199 31.202C130.907 30.712 131.288 30.0041 131.288 29.0783C131.234 27.9348 130.635 27.0635 129.709 26.6279Z" fill="#001B62"/>
<path d="M142.07 31.6378V21.8361C141.253 21.7272 140.436 21.7272 139.674 21.8361V25.7023H135.59V21.8361C134.773 21.7272 133.956 21.7272 133.194 21.8361V31.6378C134.011 31.7467 134.828 31.7467 135.59 31.6378V27.6626H139.674V31.6378C140.436 31.8011 141.253 31.8011 142.07 31.6378Z" fill="#001B62"/>
<path d="M151.273 23.8507C151.382 23.1973 151.382 22.5438 151.273 21.8359H144.412V31.6376H151.273C151.382 30.9842 151.382 30.2763 151.273 29.6228H146.862V27.6625H150.783C150.892 27.0091 150.892 26.3556 150.783 25.6477H146.862V23.8507H151.273Z" fill="#001B62"/>
<path d="M158.406 23.633C159.277 23.633 160.258 23.9597 161.238 24.5587C161.292 24.4498 161.347 24.0686 161.347 23.5241C161.347 22.9251 161.292 22.5439 161.238 22.3805C160.421 21.8904 159.441 21.6182 158.243 21.6182C156.555 21.6182 155.248 22.1082 154.213 23.0884C153.179 24.0686 152.688 25.2666 152.688 26.7368C152.688 28.2071 153.179 29.4051 154.213 30.3852C155.248 31.3654 156.555 31.8555 158.243 31.8555C159.441 31.8555 160.421 31.5832 161.238 31.0931C161.292 30.9298 161.347 30.5486 161.347 29.9496C161.347 29.3506 161.292 29.0239 161.238 28.915C160.203 29.514 159.277 29.8407 158.406 29.8407C157.48 29.8407 156.718 29.5684 156.119 28.9694C155.52 28.3704 155.193 27.6625 155.193 26.6824C155.193 25.7567 155.52 24.9943 156.119 24.3953C156.718 23.9052 157.48 23.633 158.406 23.633Z" fill="#001B62"/>
<path d="M166.956 21.8361L162.981 31.6378C163.798 31.7467 164.669 31.7467 165.486 31.6378L166.194 29.7863H169.787L170.495 31.6378C171.312 31.7467 172.129 31.7467 173 31.6378L169.025 21.8361C168.317 21.7272 167.609 21.7272 166.956 21.8361ZM169.025 27.7716H166.956L167.99 24.9399L169.025 27.7716Z" fill="#001B62"/>
</svg>
