<svg width="206" height="28" viewBox="0 0 206 28" fill="none" xmlns="http://www.w3.org/2000/svg">
<path d="M50.1523 13.6557C48.6026 12.4934 47.4404 11.9768 45.5894 11.3742C43.8675 10.8576 42.7053 10.3841 42.0596 10.0398C41.4569 9.65235 41.1556 9.13579 41.1556 8.404C41.1556 6.98348 42.2748 6.12255 43.9967 6.12255C45.5463 6.12255 47.8708 6.98348 50.841 8.74837C51.0132 8.44705 51.1424 7.54308 51.0993 5.99341C51.0563 4.44375 50.9702 3.45368 50.841 2.93713C48.6457 1.68878 46.3642 1.04309 43.9536 1.04309C41.1556 1.04309 38.9603 1.81792 37.3675 3.32454C35.8179 4.83116 35 6.76824 35 9.00665C35 11.2451 35.8609 13.053 37.3245 14.2583C38.8311 15.4636 40.0795 15.9801 41.8874 16.5828C43.7384 17.1854 45.0298 17.702 45.5894 18.0464C46.149 18.3907 46.4503 18.9073 46.4503 19.596C46.4503 21.0166 45.3742 21.9205 43.2649 21.9205C41.4139 21.9205 39.0033 21.0596 35.9901 19.2947C35.8179 19.596 35.6887 20.5431 35.7318 22.1358C35.7748 23.6854 35.8609 24.6755 35.9901 25.106C38.0993 26.3543 40.596 27 43.4801 27C46.1059 27 48.3013 26.3113 50.0232 24.9768C51.745 23.5993 52.6059 21.6623 52.6059 19.1225C52.6059 16.6689 51.702 14.7749 50.1523 13.6557Z" fill="white"/>
<path d="M75.7648 1.38737C74.4734 1.38737 73.3542 1.47347 72.4933 1.60261L66.8973 12.1489L61.3013 1.60261C60.4404 1.43042 59.3642 1.38737 58.0728 1.38737C56.7814 1.38737 55.6622 1.47347 54.8013 1.60261L63.841 17.8311V26.4403C65.8642 26.7847 67.9304 26.7847 69.9536 26.4403V17.8311L78.9933 1.60261C78.1324 1.43042 77.0562 1.38737 75.7648 1.38737Z" fill="white"/>
<path d="M99.139 1.60256V16.1522L87.5595 1.60256C86.0098 1.34429 84.3741 1.34429 82.7814 1.60256V26.4403C84.8045 26.7846 86.8708 26.7846 88.8939 26.4403V11.8906L100.473 26.4403C102.023 26.6986 103.659 26.6986 105.252 26.4403V1.60256C103.228 1.25819 101.162 1.25819 99.139 1.60256Z" fill="white"/>
<path d="M127.765 21.3609H116.573V16.4105H126.473C126.775 14.7317 126.775 13.0529 126.473 11.3311H116.573V6.68207H127.765C128.066 5.00326 128.066 3.32446 127.765 1.60261H110.46V26.4403H127.765C128.066 24.7185 128.066 23.0397 127.765 21.3609Z" fill="white"/>
<path d="M138.139 26.4404V18.0463H140.506L145.973 26.4404C146.834 26.6125 147.91 26.6556 149.245 26.6556C150.579 26.6556 151.741 26.5695 152.602 26.4404L146.576 17.1424C149.503 15.8079 151.311 13.1821 151.311 9.86753C151.311 7.4139 150.45 5.43377 148.728 3.92715C147.006 2.37748 144.768 1.64569 141.97 1.64569H132.026V26.4834C134.049 26.7847 136.116 26.7847 138.139 26.4404ZM138.139 6.68211H141.97C143.778 6.68211 145.112 7.80131 145.112 9.82449C145.112 11.8477 143.778 12.9669 141.97 12.9669H138.139V6.68211Z" fill="white"/>
<path d="M169.563 27C171.198 27 172.791 26.8278 174.384 26.4404C175.934 26.0529 177.139 25.5794 177.957 25.1059V14.3443C175.934 14 173.953 14 171.973 14.3443V21.8775C171.198 22.0066 170.51 22.0496 169.95 22.0496C167.626 22.0496 165.732 21.3178 164.139 19.8543C162.589 18.3907 161.814 16.4536 161.814 14C161.814 11.5894 162.589 9.69535 164.139 8.27482C165.689 6.81125 167.626 6.07946 169.95 6.07946C172.189 6.07946 174.599 6.89734 177.182 8.44701C177.354 8.14568 177.483 7.24171 177.44 5.77814C177.397 4.27152 177.311 3.3245 177.182 2.89404C175.116 1.64569 172.619 1 169.606 1C165.387 1 161.987 2.24834 159.404 4.74503C156.864 7.24171 155.573 10.341 155.573 14C155.573 17.6589 156.821 20.7582 159.404 23.2549C161.9 25.7516 165.301 27 169.563 27Z" fill="white"/>
<path d="M190.741 26.4403C192.765 26.7847 194.831 26.7847 196.854 26.4403V17.8311L205.894 1.60261C205.033 1.43042 203.957 1.38737 202.665 1.38737C201.374 1.38737 200.255 1.47347 199.394 1.60261L193.798 12.1489L188.202 1.60261C187.341 1.43042 186.265 1.38737 184.973 1.38737C183.682 1.38737 182.563 1.43042 181.702 1.60261L190.741 17.8311V26.4403Z" fill="white"/>
<path d="M8.08293 14.0223L17.3716 4.689V9.64593L13.0399 13.9777L17.3716 18.3094V23.2663L8.08293 14.0223ZM0 0H28V28H0V0ZM3.48325 24.5167H24.4721V3.52791H3.48325V24.5167Z" fill="white"/>
</svg>
