<svg width="236" height="29" viewBox="0 0 236 29" fill="none" xmlns="http://www.w3.org/2000/svg">
<path d="M8.84563 14.0575L18.1343 4.72415V9.68109L13.8026 14.0128L18.1343 18.3446V23.3015L8.84563 14.0575ZM0.762695 0.0351562H28.7627V28.0352H0.762695V0.0351562ZM4.24595 24.5519H25.2348V3.56307H4.24595V24.5519Z" fill="white"/>
<path d="M49.8905 27.0352C52.9115 27.0352 55.4439 26.373 57.4875 25.137C57.6208 24.6956 57.7097 23.7686 57.7541 22.2678C57.7985 20.7669 57.6652 19.8841 57.4875 19.5751C54.9108 21.1642 52.4673 21.9588 50.2015 21.9588C47.8469 21.9588 45.9365 21.2525 44.3371 19.7958C42.7377 18.3391 41.9825 16.4409 41.9825 14.0131C41.9825 11.5852 42.7377 9.68711 44.3371 8.27455C45.8921 6.81784 47.8469 6.11156 50.2015 6.11156C52.4673 6.11156 54.9108 6.90612 57.4875 8.49526C57.6652 8.18626 57.7985 7.30341 57.7541 5.80256C57.7097 4.30171 57.6208 3.37471 57.4875 2.93329C55.3995 1.65315 52.8671 1.03516 49.8905 1.03516C45.6255 1.03516 42.2046 2.31529 39.6278 4.78728C37.0511 7.25927 35.7627 10.3492 35.7627 14.0572C35.7627 17.7211 37.0511 20.811 39.6278 23.3272C42.1602 25.755 45.6255 27.0352 49.8905 27.0352Z" fill="white"/>
<path d="M62.7627 1.30646V26.7639C64.3894 27.0352 66.0613 27.0352 67.6429 26.7639L79.4818 11.8421V26.7639C81.5603 27.1256 83.6841 27.1256 85.7627 26.7639V1.30646C84.136 1.03516 82.4641 1.03516 80.8825 1.30646L69.0436 16.2282V1.30646C66.9651 0.94472 64.8413 0.94472 62.7627 1.30646Z" fill="white"/>
<path d="M91.7627 1.30646V26.7639C93.8331 27.1256 95.9486 27.1256 98.0191 26.7639V16.4995H108.506V26.7639C110.577 27.1256 112.692 27.1256 114.763 26.7639V1.30646C112.692 0.94472 110.577 0.94472 108.506 1.30646V11.2995H98.0191V1.30646C95.9486 0.94472 93.8331 0.94472 91.7627 1.30646Z" fill="white"/>
<path d="M137.538 21.8842H126.668V16.9552H136.254C136.554 15.2678 136.554 13.5805 136.254 11.8487H126.668V7.14173H137.538C137.838 5.45434 137.838 3.76695 137.538 2.03516H120.763V27.0352H137.538C137.795 25.3034 137.795 23.616 137.538 21.8842Z" fill="white"/>
<path d="M142.763 26.772C144.887 27.1229 147.058 27.1229 149.183 26.772V18.6141H152.971C155.88 18.6141 158.236 17.8685 160.038 16.3334C161.839 14.7983 162.763 12.7808 162.763 10.3246C162.763 7.86849 161.839 5.85095 160.038 4.31586C158.236 2.78077 155.88 2.03516 152.971 2.03516H142.763V26.772ZM156.25 10.3685C156.25 12.4738 154.864 13.6141 152.971 13.6141H149.183V7.12288H152.971C154.864 7.12288 156.25 8.21937 156.25 10.3685Z" fill="white"/>
<path d="M173.043 26.8042V7.09455H183.525C183.842 5.42275 183.842 3.75095 183.525 2.03516H166.763V26.8042C168.841 27.1121 170.965 27.1121 173.043 26.8042Z" fill="white"/>
<path d="M194.044 1.30646C191.965 0.94472 189.841 0.94472 187.763 1.30646V26.7639C189.389 27.0352 191.061 27.0352 192.643 26.7639L204.482 11.8421V26.7639C206.56 27.1256 208.684 27.1256 210.763 26.7639V1.30646C209.136 1.03516 207.464 1.03516 205.883 1.30646L194.044 16.2282V1.30646Z" fill="white"/>
<path d="M218.09 26.9912C219.439 26.9912 220.609 26.9033 221.508 26.7715L227.084 18.3796H229.512V26.7715C231.581 27.123 233.694 27.123 235.763 26.7715V2.03516H225.51C222.677 2.03516 220.429 2.78208 218.675 4.31987C216.966 5.81371 216.112 7.79087 216.112 10.2074C216.112 13.5026 217.955 16.1388 220.923 17.457L214.763 26.7276C215.662 26.9033 216.741 26.9912 218.09 26.9912ZM225.6 7.08788H229.512V13.3269H225.6C223.756 13.3269 222.407 12.2285 222.407 10.2074C222.407 8.1863 223.756 7.08788 225.6 7.08788Z" fill="white"/>
</svg>
