<svg width="100" height="47" viewBox="0 0 100 47" fill="none" xmlns="http://www.w3.org/2000/svg">
<path d="M9.07783 0.0517578C2.81383 0.0517578 0.319824 4.63376 0.319824 10.4918V13.1018H2.87182V10.3178C2.87182 5.96776 4.49582 2.48776 8.96182 2.48776C13.6018 2.48776 15.1678 5.79376 15.1678 10.4918C15.1678 21.6278 0.319824 24.7018 0.319824 39.0278V40.9998H17.4878V38.5638H2.98782V38.0998C3.16182 26.1518 17.8358 22.0918 17.8358 10.3758C17.8358 4.45976 15.3998 0.0517578 9.07783 0.0517578Z" fill="#F8006B"/>
<path d="M55.317 46.6258V38.5638H51.953V0.399757H37.105L35.481 32.0678C35.365 34.6778 35.075 36.8818 33.451 38.5638H30.667V46.6258H33.277V40.9998H52.649V46.6258H55.317ZM39.599 2.83576H49.227V38.5638H36.177C37.685 36.9398 37.917 34.8518 38.091 32.0678L39.599 2.83576Z" fill="#F8006B"/>
<path d="M74.8779 21.9178V40.9998H77.6039V0.399757H74.8779V19.4818H62.2339V0.399757H59.5659V40.9998H62.2339V21.9178H74.8779Z" fill="#F8006B"/>
<path d="M97.3022 22.8458V40.9998H99.9702V0.399757H91.5022C85.2962 0.399757 82.8022 3.82176 82.8022 9.56376V13.1018C82.8022 17.8578 84.6582 20.5838 88.6602 21.5118C84.4842 22.4398 82.8022 25.3978 82.8022 29.8058V36.1278C82.8022 37.8098 82.6862 39.6658 81.8162 40.9998H84.6002C85.2962 39.7818 85.4702 38.3318 85.4702 36.1278V29.7478C85.4702 24.3538 88.4282 22.8458 93.0682 22.8458H97.3022ZM97.3022 2.83576V20.4098H93.0102C88.2542 20.4098 85.4702 19.0758 85.4702 13.6238V9.79576C85.4702 5.44576 87.1522 2.83576 91.5602 2.83576H97.3022Z" fill="#F8006B"/>
</svg>
