<svg width="95" height="61" viewBox="0 0 95 61" fill="none" xmlns="http://www.w3.org/2000/svg">
<path d="M63.8679 34.3511L55.7814 30.7571C55.2101 30.5033 54.8412 29.9353 54.8412 29.3104V27.0897C57.5577 24.9253 59.3036 21.5924 59.3036 17.8573V14.7314C60.1985 14.2369 60.791 13.2813 60.791 12.2111V11.9077C60.791 5.39945 55.496 0.104492 48.9878 0.104492H46.0131C39.5048 0.104492 34.2099 5.39945 34.2099 11.9077V14.6603C34.2099 15.601 34.6147 16.4532 35.3204 16.9986C35.44 17.091 35.566 17.1722 35.6972 17.2426V17.8571C35.6972 21.5922 37.443 24.9251 40.1593 27.0894V29.3102C40.1593 29.9351 39.7902 30.5031 39.2191 30.7569L31.1326 34.351C28.4842 35.5279 26.7729 38.1612 26.7729 41.0592V59.5034C26.7729 60.2719 27.396 60.895 28.1646 60.895C28.9331 60.895 29.5562 60.2719 29.5562 59.5034V41.0594C29.5562 40.8982 29.5677 40.7388 29.5844 40.5807L33.3105 44.3069C33.8904 44.8869 34.2099 45.6578 34.2099 46.4781V59.5036C34.2099 60.2721 34.8329 60.8952 35.6015 60.8952C36.37 60.8952 36.9931 60.2721 36.9931 59.5036V46.4781C36.9931 44.9145 36.3843 43.4446 35.2786 42.3389L30.8364 37.8966C31.2367 37.4813 31.7169 37.1371 32.2631 36.8942L40.2132 33.3609L46.109 39.2566V59.5034C46.109 60.2719 46.7321 60.895 47.5006 60.895C48.2692 60.895 48.8922 60.2719 48.8922 59.5034V39.2568L54.788 33.3611L62.7379 36.8942C63.2842 37.1371 63.7644 37.4813 64.1646 37.8968L59.7224 42.3389C58.6168 43.4446 58.008 44.9145 58.008 46.4781V59.5036C58.008 60.2721 58.631 60.8952 59.3996 60.8952C60.1681 60.8952 60.7912 60.2721 60.7912 59.5036V46.4781C60.7912 45.658 61.1105 44.8869 61.6905 44.3069L65.4165 40.5809C65.4332 40.739 65.4447 40.898 65.4447 41.0592V59.5034C65.4447 60.2719 66.0678 60.895 66.8363 60.895C67.6049 60.895 68.2279 60.2719 68.2279 59.5034V41.0594C68.2274 38.1614 66.5162 35.5281 63.8679 34.3511ZM47.5001 36.7124L42.3268 31.539C42.7202 30.8771 42.9423 30.1114 42.9423 29.3104V28.7441C44.3456 29.3337 45.8854 29.6605 47.5003 29.6605C49.1151 29.6605 50.6547 29.3339 52.0578 28.7443V29.3104C52.0578 30.1116 52.2799 30.8771 52.6735 31.5392L47.5001 36.7124ZM47.5003 26.8771C42.5267 26.8773 38.4802 22.8309 38.4802 17.8573V17.2314C39.3486 16.8872 40.1962 16.3395 41.0076 15.5908C41.5722 15.0696 41.6076 14.1892 41.0863 13.6244C40.565 13.0598 39.6848 13.0243 39.1198 13.5455C38.4238 14.1881 37.7284 14.6032 37.0534 14.7794C37.0371 14.7837 37.025 14.7855 37.0165 14.7863C37.0064 14.7668 36.9929 14.726 36.9929 14.6605V11.9079C36.9929 6.9343 41.0393 2.88789 46.0129 2.88789H48.9876C53.9614 2.88789 58.0076 6.9343 58.0076 11.9079V12.2113C58.0076 12.2564 57.9805 12.2955 57.9449 12.3026C49.6118 13.9484 45.4321 10.8466 44.022 9.43641C43.4785 8.89294 42.5973 8.89294 42.0541 9.43641C41.5106 9.97987 41.5106 10.861 42.0541 11.4043C46.3755 15.7257 52.6813 15.8036 56.5203 15.3424V17.8571C56.5203 22.8307 52.4738 26.8771 47.5003 26.8771Z" fill="#F8006B"/>
<path d="M25.0938 26.7819V23.8066C25.0938 20.1762 23.2071 16.9804 20.3644 15.1412C20.5399 14.5781 20.6316 13.9882 20.6316 13.395C20.6316 10.1672 18.0057 7.54138 14.7779 7.54138C11.5501 7.54138 8.92426 10.1674 8.92426 13.395C8.92426 13.9956 9.01518 14.5797 9.19108 15.1416C6.3485 16.9805 4.46204 20.1764 4.46204 23.8066V26.7813C4.46204 30.2969 6.23086 33.4055 8.92408 35.2688V38.329C8.92408 38.9326 8.5888 39.4752 8.04904 39.7451L3.23576 42.1517C1.23983 43.1499 0 45.1561 0 47.3877V59.5037C0 60.2722 0.623067 60.8953 1.3916 60.8953C2.16014 60.8953 2.78321 60.2722 2.78321 59.5037V47.9896L5.05022 50.2566C5.63006 50.8366 5.94957 51.6075 5.94957 52.4279V59.5037C5.94957 60.2722 6.57264 60.8953 7.34118 60.8953C8.10971 60.8953 8.73278 60.2722 8.73278 59.5037V52.4279C8.73278 50.8642 8.12381 49.3943 7.01832 48.2887L3.86309 45.1334C3.84788 45.1182 3.83155 45.105 3.81596 45.0908C4.01394 44.916 4.23604 44.7638 4.48059 44.6414L9.29387 42.2348C9.54047 42.1114 9.76999 41.9658 9.98392 41.804L13.3863 45.2065V59.5039C13.3863 60.2724 14.0094 60.8955 14.7779 60.8955C15.5464 60.8955 16.1695 60.2724 16.1695 59.5039V45.2064L19.5721 41.8038C19.7862 41.9658 20.0155 42.1114 20.2621 42.2346L21.5893 42.8983C21.7892 42.9983 22.0014 43.0457 22.2107 43.0457C22.7212 43.0457 23.2127 42.7636 23.4565 42.2762C23.8003 41.5887 23.5216 40.7529 22.8342 40.4092L21.507 39.7455C20.967 39.4755 20.6317 38.933 20.6317 38.3296V35.2694C23.325 33.4061 25.0938 30.2973 25.0938 26.7819ZM14.7779 10.3246C16.471 10.3246 17.8483 11.7021 17.8483 13.395C17.8483 13.5815 17.8316 13.7643 17.7997 13.9433C16.8434 13.6498 15.829 13.4908 14.7779 13.4908C13.7283 13.4908 12.7152 13.6492 11.7604 13.942C11.7283 13.763 11.7075 13.5811 11.7075 13.395C11.7075 11.7019 13.0848 10.3246 14.7779 10.3246ZM14.7779 16.2742C18.9314 16.2742 22.3106 19.6533 22.3106 23.8068V24.3111C16.5169 26.085 13.064 21.6777 12.9165 21.4845C12.6744 21.1618 12.3042 20.96 11.9019 20.9314C11.4997 20.9032 11.1044 21.0503 10.8193 21.3355C9.49093 22.6639 8.18987 23.3045 7.25026 23.6139C7.35324 19.5493 10.6892 16.2742 14.7779 16.2742ZM14.7779 42.6618L11.5622 39.446C11.6561 39.0872 11.7075 38.7131 11.7075 38.3292V36.6306C12.6777 36.9337 13.7092 37.0972 14.7779 37.0972C15.8467 37.0972 16.8781 36.9337 17.8483 36.6306V38.3292C17.8483 38.7131 17.8997 39.0874 17.9936 39.446L14.7779 42.6618ZM14.7779 34.314C10.6244 34.314 7.24525 30.9348 7.24525 26.7813V26.493C8.35501 26.2381 10.0004 25.6456 11.7169 24.2651C12.3242 24.8381 13.1922 25.5409 14.2975 26.1438C15.6049 26.8568 17.4105 27.5165 19.6159 27.5165C20.454 27.5165 21.3507 27.4191 22.2987 27.1953C22.0829 31.1571 18.7924 34.314 14.7779 34.314Z" fill="#F8006B"/>
<path d="M91.7648 39.1772L83.9769 35.2831C83.4371 35.0132 83.1018 34.4706 83.1018 33.8672V31.8951C84.9248 30.2765 86.0765 27.9178 86.0765 25.2942V23.7102C86.1086 23.7102 86.1402 23.7111 86.1723 23.7111C86.9408 23.7111 87.5639 23.088 87.5639 22.3195V19.3448C87.5639 14.4768 83.6034 10.5163 78.7353 10.5163H75.7607C70.8926 10.5163 66.9321 14.4768 66.9321 19.3448V22.3195C66.9321 23.088 67.5552 23.7111 68.3237 23.7111C68.3352 23.7111 68.3686 23.7107 68.4195 23.7087V25.2942C68.4195 27.918 69.5713 30.2767 71.3943 31.8952V33.8674C71.3943 34.471 71.0591 35.0135 70.5191 35.2833C69.8317 35.627 69.553 36.4629 69.8968 37.1503C70.1406 37.6379 70.6321 37.92 71.1426 37.92C71.3517 37.92 71.5639 37.8726 71.7638 37.7728C72.0104 37.6494 72.2399 37.5038 72.4538 37.342L75.8564 40.7445V59.5039C75.8564 60.2725 76.4795 60.8955 77.248 60.8955C78.0165 60.8955 78.6396 60.2725 78.6396 59.5039V40.7442L82.042 37.3416C82.2561 37.5036 82.4854 37.6492 82.732 37.7724L90.268 41.5405L87.9823 43.8263C86.8768 44.932 86.2678 46.4019 86.2678 47.9655V59.5036C86.2678 60.2721 86.8909 60.8952 87.6594 60.8952C88.428 60.8952 89.051 60.2721 89.051 59.5036V47.9655C89.051 47.1454 89.3704 46.3742 89.9504 45.7942L92.1155 43.6291C92.1812 43.8808 92.2172 44.1434 92.2172 44.4128V59.5036C92.2172 60.2721 92.8403 60.8952 93.6088 60.8952C94.3773 60.8952 95.0004 60.2721 95.0004 59.5036V44.4128C95.0006 42.1814 93.7608 40.1753 91.7648 39.1772ZM69.7151 20.6416V19.3446C69.7151 16.0113 72.4273 13.2993 75.7607 13.2993H78.7353C82.0687 13.2993 84.7807 16.0113 84.7807 19.3446V20.8904C78.7313 20.564 75.0806 18.21 75.0452 18.1868C74.8097 18.0298 74.541 17.953 74.2737 17.953C73.9145 17.953 73.5582 18.0918 73.2892 18.3607C71.9577 19.6922 70.6531 20.333 69.7151 20.6416ZM77.248 38.1998L74.0323 34.984C74.1262 34.6252 74.1776 34.2511 74.1776 33.8672V33.5709C75.1342 33.927 76.1687 34.1225 77.248 34.1225C78.3273 34.1225 79.3618 33.927 80.3184 33.5709V33.8672C80.3184 34.2511 80.3696 34.6252 80.4637 34.984L77.248 38.1998ZM77.248 31.3395C73.9146 31.3395 71.2027 28.6277 71.2027 25.2942V23.0508C72.1774 22.6613 73.3129 22.0421 74.4685 21.0576C75.9299 21.818 78.9873 23.1322 83.2933 23.5664V25.2942C83.2933 28.6276 80.5813 31.3395 77.248 31.3395Z" fill="#F8006B"/>
</svg>
