<svg width="65" height="26" viewBox="0 0 65 26" fill="none" xmlns="http://www.w3.org/2000/svg">
<path d="M14.1211 2.91702C13.4043 1.37355 11.21 1.37356 10.4932 2.91702L8.20224 7.85011L2.80265 8.50453C1.11322 8.70928 0.43516 10.7962 1.68158 11.9548L5.66528 15.6581L4.6191 20.9956C4.29178 22.6656 6.06699 23.9554 7.55411 23.128L12.3071 20.4837L17.0602 23.128C18.5473 23.9554 20.3225 22.6656 19.9952 20.9956L18.949 15.6581L22.9327 11.9548C24.1791 10.7962 23.501 8.70928 21.8116 8.50453L16.412 7.85011L14.1211 2.91702Z" fill="white" stroke="#121566" stroke-width="2"/>
<path d="M33.4424 2.91702C32.7256 1.37355 30.5313 1.37356 29.8145 2.91702L27.5235 7.85011L22.1239 8.50453C20.4345 8.70928 19.7564 10.7962 21.0029 11.9548L24.9866 15.6581L23.9404 20.9956C23.6131 22.6656 25.3883 23.9554 26.8754 23.128L31.6284 20.4837L36.3814 23.128C37.8686 23.9554 39.6438 22.6656 39.3164 20.9956L38.2703 15.6581L42.254 11.9548C43.5004 10.7962 42.8223 8.70928 41.1329 8.50453L35.7333 7.85011L33.4424 2.91702Z" fill="white" stroke="#121566" stroke-width="2"/>
<path d="M53.6992 2.91702C52.9824 1.37355 50.7881 1.37356 50.0713 2.91702L47.7804 7.85011L42.3808 8.50453C40.6913 8.70928 40.0133 10.7962 41.2597 11.9548L45.2434 15.6581L44.1972 20.9956C43.8699 22.6656 45.6451 23.9554 47.1322 23.128L51.8853 20.4837L56.6383 23.128C58.1254 23.9554 59.9006 22.6656 59.5733 20.9956L58.5271 15.6581L62.5108 11.9548C63.7572 10.7962 63.0792 8.70928 61.3897 8.50453L55.9901 7.85011L53.6992 2.91702Z" fill="white" stroke="#121566" stroke-width="2"/>
</svg>
