<svg width="52" height="58" viewBox="0 0 52 58" fill="none" xmlns="http://www.w3.org/2000/svg">
<path d="M51.1159 16.9415L48.2102 8.95805C47.2489 6.31678 44.3179 4.94982 41.6767 5.91146L36.3343 7.85605C36.3429 7.80383 36.3518 7.7516 36.3593 7.69893C36.7097 5.2354 35.678 2.85706 33.6002 1.33705C31.6357 -0.100146 29.1217 -0.398529 26.8755 0.538534C24.6291 1.47571 23.0727 3.47218 22.7131 5.87091L21.9498 10.7938L18.0029 7.30482C16.1792 5.69272 13.7035 5.16347 11.3805 5.88983C6.26569 7.48823 4.8661 14.0413 8.83219 17.6008C8.90345 17.6647 8.97617 17.7264 9.04958 17.7871L3.35584 19.8594C0.708793 20.8229 -0.654434 23.7452 0.309363 26.3928L3.21514 34.3763L6.83357 33.0675V52.9026C6.83357 55.7133 9.09761 58.0001 11.9085 58.0001C12.4058 58.0001 44.8386 58.0001 45.8919 58.0001C48.7027 58.0001 50.9895 55.7134 50.9895 52.9026V27.1884C49.8977 27.1884 22.9636 27.1884 22.9636 27.1884L51.1159 16.9415ZM42.839 9.10486C43.7192 8.7845 44.6965 9.24001 45.0167 10.1204L46.7603 14.9105L30.7933 20.7221L28.4688 14.3353L42.839 9.10486ZM26.0727 6.38294C26.2554 5.16245 27.0448 4.15017 28.1837 3.67495C29.3122 3.20416 30.5882 3.34428 31.5937 4.07982C33.8768 5.75004 33.3294 8.94944 30.7256 9.89749C30.2891 10.0563 27.4438 11.092 27.3063 11.142L25.2169 11.9025L26.0727 6.38294ZM25.2752 15.4975L27.5997 21.8842C26.4829 22.2908 25.5232 22.64 24.4063 23.0466L22.0818 16.6598L25.2752 15.4975ZM12.394 9.13318C13.5573 8.76978 14.8155 9.02285 15.7521 9.85071L20.1565 13.7442C18.8787 14.2093 15.8572 15.309 14.6317 15.7549C13.3981 16.2036 12.0787 15.9482 11.1019 15.0714C9.05807 13.2371 9.83711 9.93227 12.394 9.13318ZM5.24605 30.0205L3.50254 25.2304C3.18127 24.3483 3.63541 23.3738 4.5181 23.0524L18.8884 17.8221L21.2129 24.2088L5.24605 30.0205ZM33.9975 30.5867H47.6136V52.9026C47.6136 53.8395 46.8286 54.6018 45.8917 54.6018H33.9975V30.5867ZM27.2009 30.5867H30.6218V54.6017H27.2009V30.5867ZM23.8251 30.5867V54.6017H11.9082C10.9713 54.6017 10.209 53.8394 10.209 52.9025V31.8306L13.6263 30.5867H23.8251Z" fill="#4B00BA"/>
</svg>
