<svg width="195" height="60" viewBox="0 0 195 60" fill="none" xmlns="http://www.w3.org/2000/svg">
<path d="M79.3088 0C80.9771 0 82.6454 0.440715 84.1212 1.32215C84.2496 1.63694 84.3137 2.32949 84.3137 3.3998C84.3137 4.47011 84.3137 5.0997 84.1212 5.28858C82.0038 4.09236 80.3996 3.46276 79.3088 3.46276C78.6671 3.46276 78.218 3.58868 77.833 3.90348C77.448 4.21827 77.3197 4.59603 77.3197 5.09971C77.3197 5.60338 77.5122 5.98113 77.9613 6.23297C78.4105 6.48481 79.2446 6.79961 80.4638 7.17736C81.1054 7.36624 81.6829 7.61808 82.1963 7.80696C82.7096 7.99583 83.2229 8.31063 83.7362 8.75134C84.2496 9.1291 84.6987 9.69573 85.0196 10.3253C85.3404 10.9549 85.4687 11.7104 85.4687 12.5289C85.4687 14.2918 84.8912 15.6139 83.6721 16.5583C82.4529 17.5027 80.9129 18.0064 79.0521 18.0064C77.063 18.0064 75.2664 17.5657 73.7905 16.6842C73.6622 16.3694 73.598 15.6769 73.598 14.6066C73.598 13.5363 73.598 12.8437 73.7905 12.6548C75.908 13.8511 77.5763 14.4806 78.9238 14.4806C79.6296 14.4806 80.2071 14.2918 80.5921 14.0399C80.9771 13.7881 81.1696 13.3474 81.1696 12.8437C81.1696 12.34 80.9771 12.0252 80.528 11.7734C80.0788 11.5216 79.2446 11.2068 77.9613 10.766C77.3197 10.5772 76.8063 10.3253 76.293 10.1365C75.7797 9.88461 75.2664 9.56982 74.753 9.19206C74.2397 8.81431 73.7905 8.31063 73.5339 7.68104C73.213 7.05144 73.0847 6.35889 73.0847 5.60338C73.0847 4.0294 73.6622 2.70725 74.753 1.6999C75.908 0.629593 77.448 0.125919 79.4371 0.125919L79.3088 0Z" fill="#0062FE"/>
<path d="M97.4035 17.6288C95.9918 17.8806 94.5802 17.8806 93.1044 17.6288V11.7106L86.752 0.503819C87.3936 0.377901 88.1636 0.314941 89.0619 0.314941C89.9602 0.314941 90.7302 0.377901 91.3719 0.503819L95.286 7.8071L99.2001 0.503819C99.8418 0.377901 100.612 0.314941 101.51 0.314941C102.408 0.314941 103.178 0.377901 103.82 0.503819L97.4676 11.7106L97.4035 17.6288Z" fill="#0062FE"/>
<path d="M121.851 17.6287C120.696 17.8176 119.605 17.8176 118.514 17.6287L110.365 7.55524V17.6287C108.953 17.8806 107.542 17.8806 106.066 17.6287V0.440831C107.221 0.251953 108.312 0.251953 109.403 0.440831L117.552 10.5143V0.440831C118.963 0.188994 120.375 0.188994 121.851 0.440831V17.6287Z" fill="#0062FE"/>
<path d="M137.956 14.1021C138.149 15.2354 138.149 16.4316 137.956 17.6278H125.765V0.439941H137.956C138.149 1.63617 138.149 2.76944 137.956 3.96566H130.064V7.17659H137.058C137.251 8.37282 137.251 9.50608 137.058 10.7023H130.064V14.1021H137.956Z" fill="#0062FE"/>
<path d="M148.287 0.502901C150.276 0.502901 151.816 1.00658 153.035 2.07688C154.255 3.14719 154.896 4.5323 154.896 6.16924C154.896 7.30251 154.575 8.30986 153.998 9.19129C153.42 10.0727 152.586 10.7023 151.56 11.143L155.794 17.5649C155.153 17.6908 154.383 17.7538 153.485 17.7538C152.522 17.7538 151.752 17.6908 151.175 17.5649L147.325 11.7726H145.656V17.6278C144.245 17.8797 142.833 17.8797 141.357 17.6278V0.439941L148.287 0.502901ZM145.592 8.30986H148.287C148.929 8.30986 149.442 8.12098 149.891 7.74322C150.34 7.36547 150.533 6.86179 150.533 6.10628C150.533 5.41373 150.34 4.84709 149.891 4.46934C149.442 4.09158 148.929 3.9027 148.351 3.9027H145.656L145.592 8.30986Z" fill="#0062FE"/>
<path d="M168.82 9.19206C170.232 8.94022 171.643 8.94022 173.055 9.19206V16.6213C172.478 16.9361 171.643 17.2509 170.553 17.5656C169.462 17.8175 168.307 17.9434 167.152 17.9434C164.136 17.9434 161.762 17.062 159.965 15.3621C158.169 13.6622 157.27 11.5216 157.27 9.00318C157.27 6.48481 158.169 4.34419 159.965 2.64429C161.762 0.94439 164.2 0 167.216 0C169.333 0 171.066 0.440715 172.542 1.32215C172.67 1.63694 172.734 2.26654 172.734 3.27388C172.734 4.28123 172.734 4.91083 172.542 5.0997C170.745 4.0294 169.013 3.46276 167.473 3.46276C165.804 3.46276 164.457 3.96644 163.366 4.97379C162.275 5.98113 161.698 7.30328 161.698 8.94022C161.698 10.6401 162.211 11.9623 163.366 12.9696C164.457 13.977 165.868 14.4806 167.473 14.4806C167.858 14.4806 168.371 14.4177 168.884 14.3547L168.82 9.19206Z" fill="#0062FE"/>
<path d="M185.632 17.6288C184.22 17.8806 182.808 17.8806 181.332 17.6288V11.7106L174.98 0.503819C175.622 0.377901 176.392 0.314941 177.29 0.314941C178.188 0.314941 178.958 0.377901 179.6 0.503819L183.514 7.8071L187.428 0.503819C188.07 0.377901 188.84 0.314941 189.738 0.314941C190.636 0.314941 191.406 0.377901 192.048 0.503819L185.696 11.7106L185.632 17.6288Z" fill="#0062FE"/>
<path d="M92.4628 52.5078C95.8636 52.5078 99.4569 51.3115 103.307 48.982C103.564 49.4227 103.692 50.7449 103.628 52.9485C103.564 55.152 103.435 56.5372 103.243 57.1667C100.163 59.0555 96.3769 59.9999 91.8853 59.9999C85.5329 59.9999 80.3997 58.1111 76.5497 54.4595C72.6998 50.8079 70.7748 46.2118 70.7748 40.7973C70.7748 35.3828 72.6998 30.8497 76.5497 27.1351C80.3997 23.4835 85.5329 21.5947 91.8853 21.5947C96.3769 21.5947 100.163 22.5391 103.243 24.4279C103.499 25.0575 103.564 26.4426 103.628 28.6462C103.692 30.8497 103.564 32.1719 103.307 32.6126C99.4569 30.2831 95.8636 29.0869 92.4628 29.0869C88.9337 29.0869 86.0462 30.1572 83.6721 32.2978C81.298 34.4384 80.2072 37.3975 80.2072 40.9232C80.2072 44.449 81.3621 47.2821 83.7363 49.4227C86.1104 51.5634 88.9979 52.6337 92.527 52.6337L92.4628 52.5078Z" fill="#0062FE"/>
<path d="M125.765 22.728C129.936 22.728 133.336 23.8613 135.903 26.1278C138.47 28.3943 139.817 31.2905 139.817 34.9421C139.817 37.3975 139.175 39.5381 137.892 41.364C136.609 43.2527 134.876 44.6378 132.695 45.5822L141.806 59.3074C140.459 59.5592 138.79 59.6222 136.801 59.6222C134.812 59.6222 133.144 59.4962 131.796 59.3074L123.583 46.9044H119.99V59.3074C116.974 59.811 113.894 59.811 110.878 59.3074V22.665L125.765 22.728ZM119.99 39.4752H125.765C127.112 39.4752 128.267 39.0974 129.166 38.2789C130.064 37.4605 130.513 36.3902 130.513 34.8162C130.513 33.2422 130.064 32.1719 129.166 31.3534C128.267 30.535 127.176 30.1572 125.829 30.1572H120.054L119.99 39.4752Z" fill="#0062FE"/>
<path d="M195 59.3064C191.984 59.81 189.032 59.81 186.017 59.3064L181.397 38.7187L173.825 59.3064C171.387 59.6841 168.884 59.6841 166.446 59.3064L158.874 38.7187L154.254 59.3064C151.239 59.81 148.287 59.81 145.271 59.3064L154.126 22.664C156.693 22.2233 159.324 22.2233 161.89 22.664L170.168 45.0776L178.445 22.664C181.012 22.2233 183.642 22.2233 186.209 22.664L195 59.3064Z" fill="#0062FE"/>
<path d="M0 0.251953V59.3078H60.1876V0.251953H0ZM52.6802 51.9416H7.5074V7.61819H52.6802V51.9416ZM37.4087 49.3602L17.3889 29.7799L37.4087 10.1366V20.5878L28.0405 29.7799L37.4087 38.9719V49.3602Z" fill="#0CB0FF"/>
</svg>
